%TF.GenerationSoftware,KiCad,Pcbnew,10.0.6*%
%TF.CreationDate,2026-10-07T00:07:52+02:00*%
%TF.ProjectId,openrz67-nrf,6f70656e-727a-4363-972d-6e72662e6b69,A*%
%TF.SameCoordinates,Original*%
%TF.FileFunction,Legend,Top*%
%TF.FilePolarity,Positive*%
%FSLAX46Y46*%
G04 Gerber Fmt 4.6, Leading zero omitted, Abs format (unit mm)*
G04 Created by KiCad (PCBNEW 10.0.6) date 2026-10-07 00:07:52*
%MOMM*%
%LPD*%
G01*
G04 APERTURE LIST*
G04 Aperture macros list*
%AMRoundRect*
0 Rectangle with rounded corners*
0 $1 Rounding radius*
0 $2 $3 $4 $5 $6 $7 $8 $9 X,Y pos of 4 corners*
0 Add a 4 corners polygon primitive as box body*
4,1,4,$2,$3,$4,$5,$6,$7,$8,$9,$2,$3,0*
0 Add four circle primitives for the rounded corners*
1,1,$1+$1,$2,$3*
1,1,$1+$1,$4,$5*
1,1,$1+$1,$6,$7*
1,1,$1+$1,$8,$9*
0 Add four rect primitives between the rounded corners*
20,1,$1+$1,$2,$3,$4,$5,0*
20,1,$1+$1,$4,$5,$6,$7,0*
20,1,$1+$1,$6,$7,$8,$9,0*
20,1,$1+$1,$8,$9,$2,$3,0*%
G04 Aperture macros list end*
%ADD10C,0.180000*%
%ADD11C,0.152000*%
%ADD12C,0.200000*%
%ADD13C,0.150000*%
%ADD14C,0.060000*%
%ADD15C,0.250000*%
%ADD16C,0.254000*%
%ADD17RoundRect,0.051000X0.400000X-0.750000X0.400000X0.750000X-0.400000X0.750000X-0.400000X-0.750000X0*%
%ADD18RoundRect,0.051000X0.270000X-0.282750X0.270000X0.282750X-0.270000X0.282750X-0.270000X-0.282750X0*%
%ADD19RoundRect,0.051000X-0.395000X-0.270000X0.395000X-0.270000X0.395000X0.270000X-0.395000X0.270000X0*%
%ADD20RoundRect,0.051000X-0.864000X0.742500X-0.864000X-0.742500X0.864000X-0.742500X0.864000X0.742500X0*%
%ADD21RoundRect,0.051000X-1.000000X0.450000X-1.000000X-0.450000X1.000000X-0.450000X1.000000X0.450000X0*%
%ADD22RoundRect,0.051000X-0.450000X-1.000000X0.450000X-1.000000X0.450000X1.000000X-0.450000X1.000000X0*%
%ADD23RoundRect,0.051000X-0.450000X-0.450000X0.450000X-0.450000X0.450000X0.450000X-0.450000X0.450000X0*%
%ADD24RoundRect,0.051000X1.000000X-0.450000X1.000000X0.450000X-1.000000X0.450000X-1.000000X-0.450000X0*%
%ADD25RoundRect,0.051000X0.450000X-0.450000X0.450000X0.450000X-0.450000X0.450000X-0.450000X-0.450000X0*%
%ADD26RoundRect,0.051000X-0.282750X-0.270000X0.282750X-0.270000X0.282750X0.270000X-0.282750X0.270000X0*%
%ADD27RoundRect,0.051000X-0.300000X-0.775000X0.300000X-0.775000X0.300000X0.775000X-0.300000X0.775000X0*%
%ADD28RoundRect,0.051000X-0.600000X-0.900000X0.600000X-0.900000X0.600000X0.900000X-0.600000X0.900000X0*%
%ADD29RoundRect,0.051000X-0.400000X0.400000X-0.400000X-0.400000X0.400000X-0.400000X0.400000X0.400000X0*%
%ADD30RoundRect,0.051000X-0.400000X-0.850000X0.400000X-0.850000X0.400000X0.850000X-0.400000X0.850000X0*%
%ADD31RoundRect,0.051000X0.775000X-0.300000X0.775000X0.300000X-0.775000X0.300000X-0.775000X-0.300000X0*%
%ADD32RoundRect,0.051000X0.900000X-0.600000X0.900000X0.600000X-0.900000X0.600000X-0.900000X-0.600000X0*%
G04 APERTURE END LIST*
D10*
X4592857Y-23805640D02*
X4735714Y-23853259D01*
X4735714Y-23853259D02*
X4973809Y-23853259D01*
X4973809Y-23853259D02*
X5069047Y-23805640D01*
X5069047Y-23805640D02*
X5116666Y-23758020D01*
X5116666Y-23758020D02*
X5164285Y-23662782D01*
X5164285Y-23662782D02*
X5164285Y-23567544D01*
X5164285Y-23567544D02*
X5116666Y-23472306D01*
X5116666Y-23472306D02*
X5069047Y-23424687D01*
X5069047Y-23424687D02*
X4973809Y-23377068D01*
X4973809Y-23377068D02*
X4783333Y-23329449D01*
X4783333Y-23329449D02*
X4688095Y-23281830D01*
X4688095Y-23281830D02*
X4640476Y-23234211D01*
X4640476Y-23234211D02*
X4592857Y-23138973D01*
X4592857Y-23138973D02*
X4592857Y-23043735D01*
X4592857Y-23043735D02*
X4640476Y-22948497D01*
X4640476Y-22948497D02*
X4688095Y-22900878D01*
X4688095Y-22900878D02*
X4783333Y-22853259D01*
X4783333Y-22853259D02*
X5021428Y-22853259D01*
X5021428Y-22853259D02*
X5164285Y-22900878D01*
X5497619Y-22853259D02*
X5735714Y-23853259D01*
X5735714Y-23853259D02*
X5926190Y-23138973D01*
X5926190Y-23138973D02*
X6116666Y-23853259D01*
X6116666Y-23853259D02*
X6354762Y-22853259D01*
X6735714Y-23853259D02*
X6735714Y-22853259D01*
X6735714Y-22853259D02*
X6973809Y-22853259D01*
X6973809Y-22853259D02*
X7116666Y-22900878D01*
X7116666Y-22900878D02*
X7211904Y-22996116D01*
X7211904Y-22996116D02*
X7259523Y-23091354D01*
X7259523Y-23091354D02*
X7307142Y-23281830D01*
X7307142Y-23281830D02*
X7307142Y-23424687D01*
X7307142Y-23424687D02*
X7259523Y-23615163D01*
X7259523Y-23615163D02*
X7211904Y-23710401D01*
X7211904Y-23710401D02*
X7116666Y-23805640D01*
X7116666Y-23805640D02*
X6973809Y-23853259D01*
X6973809Y-23853259D02*
X6735714Y-23853259D01*
X20609523Y-21258020D02*
X20561904Y-21305640D01*
X20561904Y-21305640D02*
X20419047Y-21353259D01*
X20419047Y-21353259D02*
X20323809Y-21353259D01*
X20323809Y-21353259D02*
X20180952Y-21305640D01*
X20180952Y-21305640D02*
X20085714Y-21210401D01*
X20085714Y-21210401D02*
X20038095Y-21115163D01*
X20038095Y-21115163D02*
X19990476Y-20924687D01*
X19990476Y-20924687D02*
X19990476Y-20781830D01*
X19990476Y-20781830D02*
X20038095Y-20591354D01*
X20038095Y-20591354D02*
X20085714Y-20496116D01*
X20085714Y-20496116D02*
X20180952Y-20400878D01*
X20180952Y-20400878D02*
X20323809Y-20353259D01*
X20323809Y-20353259D02*
X20419047Y-20353259D01*
X20419047Y-20353259D02*
X20561904Y-20400878D01*
X20561904Y-20400878D02*
X20609523Y-20448497D01*
X20990476Y-21067544D02*
X21466666Y-21067544D01*
X20895238Y-21353259D02*
X21228571Y-20353259D01*
X21228571Y-20353259D02*
X21561904Y-21353259D01*
X21895238Y-21353259D02*
X21895238Y-20353259D01*
X21895238Y-20353259D02*
X22228571Y-21067544D01*
X22228571Y-21067544D02*
X22561904Y-20353259D01*
X22561904Y-20353259D02*
X22561904Y-21353259D01*
%TO.C,U2*%
D11*
X16800000Y-7700000D02*
X20400000Y-7700000D01*
X16800000Y-12300000D02*
X16800000Y-7700000D01*
X16800000Y-12300000D02*
X20400000Y-12300000D01*
X20400000Y-12300000D02*
X20400000Y-7700000D01*
D12*
X20900000Y-6500000D02*
G75*
G02*
X20700000Y-6500000I-100000J0D01*
G01*
X20700000Y-6500000D02*
G75*
G02*
X20900000Y-6500000I100000J0D01*
G01*
%TO.C,C1*%
D13*
X24510000Y-16070000D02*
X24510000Y-14590000D01*
X24510000Y-17930000D02*
X24510000Y-19410000D01*
X24660000Y-14440000D02*
X26540000Y-14440000D01*
X24660000Y-19560000D02*
X26540000Y-19560000D01*
X26690000Y-14590000D02*
X26690000Y-16070000D01*
X26690000Y-19410000D02*
X26690000Y-17930000D01*
X24510000Y-14590000D02*
G75*
G02*
X24660000Y-14440000I150000J0D01*
G01*
X24660000Y-19560000D02*
G75*
G02*
X24510000Y-19410000I0J150000D01*
G01*
X26540000Y-14440000D02*
G75*
G02*
X26690000Y-14590000I0J-150000D01*
G01*
X26690000Y-19410000D02*
G75*
G02*
X26540000Y-19560000I-150000J0D01*
G01*
D14*
X24830000Y-15400000D02*
G75*
G02*
X24770000Y-15400000I-30000J0D01*
G01*
X24770000Y-15400000D02*
G75*
G02*
X24830000Y-15400000I30000J0D01*
G01*
%TO.C,U1*%
D15*
X1500000Y-300000D02*
X14500000Y-300000D01*
X1500000Y-3650000D02*
X1500000Y-300000D01*
X1500000Y-4920000D02*
X1500000Y-4920000D01*
X1500000Y-6190000D02*
X1500000Y-6190000D01*
X1500000Y-7460000D02*
X1500000Y-7460000D01*
X1500000Y-8730000D02*
X1500000Y-8730000D01*
X1500000Y-10000000D02*
X1500000Y-10000000D01*
X1500000Y-11270000D02*
X1500000Y-11270000D01*
X1500000Y-12540000D02*
X1500000Y-12540000D01*
X1500000Y-13810000D02*
X1500000Y-13810000D01*
X1500000Y-15080000D02*
X1500000Y-15080000D01*
X1500000Y-18300000D02*
X1500000Y-16350000D01*
X2920000Y-900000D02*
X13080000Y-900000D01*
X2920000Y-3060000D02*
X2920000Y-900000D01*
X2920000Y-18300000D02*
X1500000Y-18300000D01*
X4190000Y-18300000D02*
X4190000Y-18300000D01*
X5460000Y-18300000D02*
X5460000Y-18300000D01*
X6730000Y-18300000D02*
X6730000Y-18300000D01*
X8000000Y-18300000D02*
X8000000Y-18300000D01*
X9270000Y-18300000D02*
X9270000Y-18300000D01*
X10540000Y-1660000D02*
X11940000Y-1660000D01*
X10540000Y-2170000D02*
X10540000Y-1660000D01*
X10540000Y-18300000D02*
X10540000Y-18300000D01*
X11810000Y-18300000D02*
X11810000Y-18300000D01*
X11940000Y-1660000D02*
X11940000Y-2170000D01*
X11940000Y-2170000D02*
X10540000Y-2170000D01*
X13080000Y-900000D02*
X13080000Y-3060000D01*
X13080000Y-3060000D02*
X2920000Y-3060000D01*
X14500000Y-3650000D02*
X14500000Y-300000D01*
X14500000Y-4920000D02*
X14500000Y-4920000D01*
X14500000Y-6190000D02*
X14500000Y-6190000D01*
X14500000Y-7460000D02*
X14500000Y-7460000D01*
X14500000Y-8730000D02*
X14500000Y-8730000D01*
X14500000Y-10000000D02*
X14500000Y-10000000D01*
X14500000Y-11270000D02*
X14500000Y-11270000D01*
X14500000Y-12540000D02*
X14500000Y-12540000D01*
X14500000Y-13810000D02*
X14500000Y-13810000D01*
X14500000Y-15080000D02*
X14500000Y-15080000D01*
X14500000Y-18300000D02*
X13080000Y-18300000D01*
X14500000Y-18300000D02*
X14500000Y-16350000D01*
X1130000Y-3430000D02*
G75*
G02*
X890000Y-3430000I-120000J0D01*
G01*
X890000Y-3430000D02*
G75*
G02*
X1130000Y-3430000I120000J0D01*
G01*
D14*
X1530000Y-320000D02*
G75*
G02*
X1470000Y-320000I-30000J0D01*
G01*
X1470000Y-320000D02*
G75*
G02*
X1530000Y-320000I30000J0D01*
G01*
%TO.C,U3*%
D11*
X21200000Y-7700000D02*
X24800000Y-7700000D01*
X21200000Y-12300000D02*
X21200000Y-7700000D01*
X21200000Y-12300000D02*
X24800000Y-12300000D01*
X24800000Y-12300000D02*
X24800000Y-7700000D01*
D12*
X25300000Y-6500000D02*
G75*
G02*
X25100000Y-6500000I-100000J0D01*
G01*
X25100000Y-6500000D02*
G75*
G02*
X25300000Y-6500000I100000J0D01*
G01*
%TO.C,J1*%
D15*
X18280000Y-22900000D02*
X18280000Y-25500000D01*
X19280000Y-27160000D02*
X23180000Y-27160000D01*
X19360000Y-22900000D02*
X18280000Y-22900000D01*
X23340000Y-22900000D02*
X24260000Y-22900000D01*
X24260000Y-22900000D02*
X24260000Y-25510000D01*
D14*
X18330000Y-22240000D02*
G75*
G02*
X18270000Y-22240000I-30000J0D01*
G01*
X18270000Y-22240000D02*
G75*
G02*
X18330000Y-22240000I30000J0D01*
G01*
D15*
X18930000Y-23390000D02*
G75*
G02*
X18670000Y-23390000I-130000J0D01*
G01*
X18670000Y-23390000D02*
G75*
G02*
X18930000Y-23390000I130000J0D01*
G01*
%TO.C,D1*%
D13*
X14409500Y-28356500D02*
X14409500Y-26876500D01*
X15559500Y-26856500D02*
X14409500Y-26856500D01*
X15559500Y-28356500D02*
X14409500Y-28356500D01*
X15579500Y-27276500D02*
X15589500Y-27276500D01*
X15579500Y-27606500D02*
X15919500Y-27606500D01*
X15579500Y-27946500D02*
X15919500Y-27606500D01*
X15579500Y-27956500D02*
X15579500Y-27276500D01*
X15579500Y-27956500D02*
X15579500Y-27946500D01*
X15589500Y-27276500D02*
X15919500Y-27606500D01*
X15939500Y-26854000D02*
X16989500Y-26854000D01*
X15939500Y-28354500D02*
X16989500Y-28354500D01*
X17289500Y-27154000D02*
X16989500Y-26854000D01*
X17289500Y-27254000D02*
X17289500Y-27154000D01*
X17289500Y-27954000D02*
X17289500Y-27254000D01*
X17289500Y-27954000D02*
X17289500Y-28054500D01*
X17289500Y-28054500D02*
X16989500Y-28354500D01*
%TO.C,SW1*%
D16*
X4500000Y-26350000D02*
X7500000Y-26350000D01*
X4500000Y-26350000D02*
X7500000Y-26350000D01*
X4500000Y-26519000D02*
X4500000Y-26350000D01*
X4500000Y-28850000D02*
X4500000Y-28687000D01*
X4500000Y-28850000D02*
X7500000Y-28850000D01*
X7500000Y-26350000D02*
X7500000Y-26519000D01*
X7500000Y-28681000D02*
X7500000Y-28850000D01*
X7500000Y-28850000D02*
X4500000Y-28850000D01*
X6800000Y-27600000D02*
G75*
G02*
X5200000Y-27600000I-800000J0D01*
G01*
X5200000Y-27600000D02*
G75*
G02*
X6800000Y-27600000I800000J0D01*
G01*
%TO.C,J2*%
D15*
X8700000Y-21340000D02*
X11310000Y-21340000D01*
X8700000Y-22260000D02*
X8700000Y-21340000D01*
X8700000Y-26240000D02*
X8700000Y-27320000D01*
X8700000Y-27320000D02*
X11300000Y-27320000D01*
X12960000Y-26320000D02*
X12960000Y-22420000D01*
D14*
X8070000Y-27300000D02*
G75*
G02*
X8010000Y-27300000I-30000J0D01*
G01*
X8010000Y-27300000D02*
G75*
G02*
X8070000Y-27300000I30000J0D01*
G01*
D15*
X9320000Y-26800000D02*
G75*
G02*
X9060000Y-26800000I-130000J0D01*
G01*
X9060000Y-26800000D02*
G75*
G02*
X9320000Y-26800000I130000J0D01*
G01*
%TD*%
%LPC*%
D17*
%TO.C,U2*%
X19870000Y-6500000D03*
X17330000Y-6500000D03*
X17330000Y-13500000D03*
X19870000Y-13500000D03*
%TD*%
D18*
%TO.C,R3*%
X13900000Y-27833000D03*
X13900000Y-26967000D03*
%TD*%
D19*
%TO.C,C2*%
X8725000Y-20300000D03*
X9815000Y-20300000D03*
%TD*%
D20*
%TO.C,C1*%
X25600000Y-15410000D03*
X25600000Y-18590000D03*
%TD*%
D21*
%TO.C,U1*%
X1500000Y-4290000D03*
X1500000Y-5560000D03*
X1500000Y-6800000D03*
X1500000Y-8100000D03*
X1500000Y-9370000D03*
X1500000Y-10640000D03*
X1500000Y-11910000D03*
X1500000Y-13180000D03*
X1500000Y-14450000D03*
X1500000Y-15720000D03*
D22*
X3550000Y-18310000D03*
D23*
X4190000Y-16210000D03*
D22*
X4820000Y-18310000D03*
D23*
X5460000Y-16210000D03*
D22*
X6090000Y-18310000D03*
D23*
X6730000Y-16210000D03*
D22*
X7360000Y-18310000D03*
D23*
X8000000Y-16210000D03*
D22*
X8630000Y-18310000D03*
D23*
X9270000Y-16210000D03*
D22*
X9900000Y-18310000D03*
D23*
X10540000Y-16210000D03*
D22*
X11170000Y-18310000D03*
D23*
X11810000Y-16210000D03*
D22*
X12440000Y-18310000D03*
D24*
X14500000Y-15720000D03*
X14500000Y-14450000D03*
D25*
X12410000Y-13810000D03*
D24*
X14500000Y-13180000D03*
D25*
X12410000Y-12540000D03*
D24*
X14500000Y-11910000D03*
D25*
X12410000Y-11270000D03*
D24*
X14500000Y-10640000D03*
D25*
X12410000Y-10000000D03*
D24*
X14500000Y-9370000D03*
D25*
X12410000Y-8730000D03*
D24*
X14500000Y-8100000D03*
D25*
X12410000Y-7460000D03*
D24*
X14500000Y-6830000D03*
D25*
X12410000Y-6190000D03*
D24*
X14500000Y-5560000D03*
D25*
X12400000Y-4920000D03*
D24*
X14500000Y-4290000D03*
%TD*%
D26*
%TO.C,R2*%
X23407000Y-4000000D03*
X24273000Y-4000000D03*
%TD*%
D17*
%TO.C,U3*%
X24270000Y-6500000D03*
X21730000Y-6500000D03*
X21730000Y-13500000D03*
X24270000Y-13500000D03*
%TD*%
D27*
%TO.C,J1*%
X19800000Y-22760000D03*
X20800000Y-22760000D03*
X21800000Y-22760000D03*
X22800000Y-22760000D03*
D28*
X24100000Y-26640000D03*
X18500000Y-26640000D03*
%TD*%
D29*
%TO.C,D1*%
X16599500Y-27600000D03*
X15000500Y-27600000D03*
%TD*%
D30*
%TO.C,SW1*%
X4300000Y-27600000D03*
X7700000Y-27600000D03*
%TD*%
D26*
%TO.C,R1*%
X19437000Y-4000000D03*
X20303000Y-4000000D03*
%TD*%
D31*
%TO.C,J2*%
X8560000Y-25800000D03*
X8560000Y-24800000D03*
X8560000Y-23800000D03*
X8560000Y-22800000D03*
D32*
X12440000Y-21500000D03*
X12440000Y-27100000D03*
%TD*%
%LPD*%
M02*
