%TF.GenerationSoftware,KiCad,Pcbnew,10.0.6*%
%TF.CreationDate,2026-10-09T22:07:42+02:00*%
%TF.ProjectId,openrz67-nrf,6f70656e-727a-4363-972d-6e72662e6b69,A*%
%TF.SameCoordinates,Original*%
%TF.FileFunction,Soldermask,Top*%
%TF.FilePolarity,Negative*%
%FSLAX46Y46*%
G04 Gerber Fmt 4.6, Leading zero omitted, Abs format (unit mm)*
G04 Created by KiCad (PCBNEW 10.0.6) date 2026-10-09 22:07:42*
%MOMM*%
%LPD*%
G01*
G04 APERTURE LIST*
G04 Aperture macros list*
%AMRoundRect*
0 Rectangle with rounded corners*
0 $1 Rounding radius*
0 $2 $3 $4 $5 $6 $7 $8 $9 X,Y pos of 4 corners*
0 Add a 4 corners polygon primitive as box body*
4,1,4,$2,$3,$4,$5,$6,$7,$8,$9,$2,$3,0*
0 Add four circle primitives for the rounded corners*
1,1,$1+$1,$2,$3*
1,1,$1+$1,$4,$5*
1,1,$1+$1,$6,$7*
1,1,$1+$1,$8,$9*
0 Add four rect primitives between the rounded corners*
20,1,$1+$1,$2,$3,$4,$5,0*
20,1,$1+$1,$4,$5,$6,$7,0*
20,1,$1+$1,$6,$7,$8,$9,0*
20,1,$1+$1,$8,$9,$2,$3,0*%
G04 Aperture macros list end*
%ADD10RoundRect,0.051000X0.400000X-0.750000X0.400000X0.750000X-0.400000X0.750000X-0.400000X-0.750000X0*%
%ADD11RoundRect,0.051000X-0.395000X-0.270000X0.395000X-0.270000X0.395000X0.270000X-0.395000X0.270000X0*%
%ADD12RoundRect,0.051000X-0.300000X-0.775000X0.300000X-0.775000X0.300000X0.775000X-0.300000X0.775000X0*%
%ADD13RoundRect,0.051000X-0.600000X-0.900000X0.600000X-0.900000X0.600000X0.900000X-0.600000X0.900000X0*%
%ADD14RoundRect,0.051000X-0.864000X0.742500X-0.864000X-0.742500X0.864000X-0.742500X0.864000X0.742500X0*%
%ADD15RoundRect,0.201000X0.150000X-0.587500X0.150000X0.587500X-0.150000X0.587500X-0.150000X-0.587500X0*%
%ADD16RoundRect,0.051000X-0.400000X0.400000X-0.400000X-0.400000X0.400000X-0.400000X0.400000X0.400000X0*%
%ADD17RoundRect,0.051000X-0.400000X-0.850000X0.400000X-0.850000X0.400000X0.850000X-0.400000X0.850000X0*%
%ADD18RoundRect,0.051000X-0.282750X-0.270000X0.282750X-0.270000X0.282750X0.270000X-0.282750X0.270000X0*%
%ADD19RoundRect,0.051000X-0.600000X-0.600000X0.600000X-0.600000X0.600000X0.600000X-0.600000X0.600000X0*%
%ADD20RoundRect,0.051000X-0.650000X-0.350000X0.650000X-0.350000X0.650000X0.350000X-0.650000X0.350000X0*%
%ADD21RoundRect,0.051000X0.350000X-0.650000X0.350000X0.650000X-0.350000X0.650000X-0.350000X-0.650000X0*%
%ADD22RoundRect,0.051000X0.600000X0.600000X-0.600000X0.600000X-0.600000X-0.600000X0.600000X-0.600000X0*%
%ADD23RoundRect,0.051000X0.650000X0.350000X-0.650000X0.350000X-0.650000X-0.350000X0.650000X-0.350000X0*%
%ADD24RoundRect,0.051000X-0.350000X0.650000X-0.350000X-0.650000X0.350000X-0.650000X0.350000X0.650000X0*%
%ADD25RoundRect,0.051000X0.475000X0.475000X-0.475000X0.475000X-0.475000X-0.475000X0.475000X-0.475000X0*%
%ADD26RoundRect,0.051000X-0.270000X0.282750X-0.270000X-0.282750X0.270000X-0.282750X0.270000X0.282750X0*%
G04 APERTURE END LIST*
D10*
%TO.C,U3*%
X24270000Y-6500000D03*
X21730000Y-6500000D03*
X21730000Y-13500000D03*
X24270000Y-13500000D03*
%TD*%
D11*
%TO.C,C2*%
X8725000Y-20300000D03*
X9815000Y-20300000D03*
%TD*%
D12*
%TO.C,J2*%
X10800000Y-22760000D03*
X11800000Y-22760000D03*
X12800000Y-22760000D03*
X13800000Y-22760000D03*
D13*
X15100000Y-26640000D03*
X9500000Y-26640000D03*
%TD*%
D14*
%TO.C,C1*%
X26500000Y-15410000D03*
X26500000Y-18590000D03*
%TD*%
D15*
%TO.C,Q1*%
X4450000Y-22237500D03*
X6350000Y-22237500D03*
X5400000Y-20362500D03*
%TD*%
D16*
%TO.C,D1*%
X18999500Y-27600000D03*
X17400500Y-27600000D03*
%TD*%
D17*
%TO.C,SW1*%
X4300000Y-27600000D03*
X7700000Y-27600000D03*
%TD*%
D10*
%TO.C,U2*%
X19870000Y-6500000D03*
X17330000Y-6500000D03*
X17330000Y-13500000D03*
X19870000Y-13500000D03*
%TD*%
D12*
%TO.C,J1*%
X22100000Y-22760000D03*
X23100000Y-22760000D03*
X24100000Y-22760000D03*
X25100000Y-22760000D03*
D13*
X26400000Y-26640000D03*
X20800000Y-26640000D03*
%TD*%
D18*
%TO.C,R2*%
X23407000Y-4000000D03*
X24273000Y-4000000D03*
%TD*%
D19*
%TO.C,U1*%
X1850000Y-6050000D03*
D20*
X1850000Y-7350000D03*
X1850000Y-8450000D03*
X1850000Y-9550000D03*
X1850000Y-10650000D03*
X1850000Y-11750000D03*
X1850000Y-12850000D03*
X1850000Y-13950000D03*
X1850000Y-15050000D03*
D19*
X1850000Y-16350000D03*
D21*
X3150000Y-16350000D03*
X4250000Y-16350000D03*
X5350000Y-16350000D03*
X6450000Y-16350000D03*
X7550000Y-16350000D03*
X8650000Y-16350000D03*
X9750000Y-16350000D03*
X10850000Y-16350000D03*
D22*
X12150000Y-16350000D03*
D23*
X12150000Y-15050000D03*
X12150000Y-13950000D03*
X12150000Y-12850000D03*
X12150000Y-11750000D03*
X12150000Y-10650000D03*
X12150000Y-9550000D03*
X12150000Y-8450000D03*
X12150000Y-7350000D03*
D22*
X12150000Y-6050000D03*
D24*
X10850000Y-6050000D03*
X9750000Y-6050000D03*
X8650000Y-6050000D03*
X7550000Y-6050000D03*
X6450000Y-6050000D03*
X5350000Y-6050000D03*
X4250000Y-6050000D03*
X3150000Y-6050000D03*
D25*
X6350000Y-10270000D03*
X6350000Y-11670000D03*
X7750000Y-11670000D03*
X7750000Y-10270000D03*
%TD*%
D18*
%TO.C,R1*%
X19437000Y-4000000D03*
X20303000Y-4000000D03*
%TD*%
D26*
%TO.C,R3*%
X17400000Y-24967000D03*
X17400000Y-25833000D03*
%TD*%
M02*
