%TF.GenerationSoftware,KiCad,Pcbnew,10.0.6*%
%TF.CreationDate,2026-10-04T00:11:41+02:00*%
%TF.ProjectId,openrz67-nrf,6f70656e-727a-4363-972d-6e72662e6b69,A*%
%TF.SameCoordinates,Original*%
%TF.FileFunction,Copper,L2,Bot*%
%TF.FilePolarity,Positive*%
%FSLAX46Y46*%
G04 Gerber Fmt 4.6, Leading zero omitted, Abs format (unit mm)*
G04 Created by KiCad (PCBNEW 10.0.6) date 2026-10-04 00:11:41*
%MOMM*%
%LPD*%
G01*
G04 APERTURE LIST*
%TA.AperFunction,SMDPad,CuDef*%
%ADD10R,3.000000X3.500000*%
%TD*%
%TA.AperFunction,SMDPad,CuDef*%
%ADD11R,3.000000X5.000000*%
%TD*%
%TA.AperFunction,SMDPad,CuDef*%
%ADD12C,10.000000*%
%TD*%
%TA.AperFunction,ViaPad*%
%ADD13C,0.450000*%
%TD*%
%TA.AperFunction,Conductor*%
%ADD14C,0.160000*%
%TD*%
%TA.AperFunction,Conductor*%
%ADD15C,0.300000*%
%TD*%
%TA.AperFunction,Conductor*%
%ADD16C,0.250000*%
%TD*%
G04 APERTURE END LIST*
D10*
%TO.P,BT1,1*%
%TO.N,VDD*%
X2050000Y-18000000D03*
D11*
%TO.P,BT1,2*%
X24950000Y-18000000D03*
D12*
%TO.P,BT1,3*%
%TO.N,GND*%
X13500000Y-18000000D03*
%TD*%
D13*
%TO.N,GND*%
X7700000Y-27000000D03*
X7000000Y-25800000D03*
X25600000Y-21000000D03*
X16600000Y-28300000D03*
X6000000Y-22300000D03*
%TO.N,LED_DRV*%
X2300000Y-25300000D03*
X13900000Y-26900000D03*
%TO.N,VDD*%
X3000000Y-20300000D03*
X25600000Y-15900000D03*
%TD*%
%TO.N,LED_DRV*%
D14*
X2300000Y-25300000D02*
X2300000Y-28200000D01*
X13900000Y-28200000D02*
X13900000Y-26900000D01*
X2300000Y-28200000D02*
X13900000Y-28200000D01*
%TO.N,VDD*%
D15*
X3000000Y-10000000D02*
X24950000Y-10000000D01*
X24950000Y-10000000D02*
X24950000Y-15800000D01*
D16*
X3000000Y-19500000D02*
X3000000Y-20300000D01*
D15*
X3000000Y-16500000D02*
X3000000Y-10000000D01*
%TD*%
%TA.AperFunction,Conductor*%
%TO.N,GND*%
G36*
X24654194Y-10295806D02*
G01*
X24672500Y-10340000D01*
X24672500Y-15310000D01*
X24654194Y-15354194D01*
X24610000Y-15372500D01*
X23437442Y-15372500D01*
X23418847Y-15376199D01*
X23400251Y-15379898D01*
X23400250Y-15379898D01*
X23358077Y-15408077D01*
X23329898Y-15450250D01*
X23329898Y-15450251D01*
X23322500Y-15487442D01*
X23322500Y-20512557D01*
X23329898Y-20549748D01*
X23329898Y-20549749D01*
X23358077Y-20591922D01*
X23386257Y-20610750D01*
X23400252Y-20620102D01*
X23437442Y-20627500D01*
X23437443Y-20627500D01*
X26462557Y-20627500D01*
X26462558Y-20627500D01*
X26499748Y-20620102D01*
X26541922Y-20591922D01*
X26570102Y-20549748D01*
X26575701Y-20521600D01*
X26602277Y-20481827D01*
X26649193Y-20472495D01*
X26688967Y-20499071D01*
X26699500Y-20533794D01*
X26699500Y-28196488D01*
X26699107Y-28203486D01*
X26687764Y-28304150D01*
X26684650Y-28317794D01*
X26652359Y-28410078D01*
X26646286Y-28422688D01*
X26594270Y-28505470D01*
X26585544Y-28516412D01*
X26516412Y-28585544D01*
X26505470Y-28594270D01*
X26422688Y-28646286D01*
X26410078Y-28652359D01*
X26317794Y-28684650D01*
X26304150Y-28687764D01*
X26203487Y-28699107D01*
X26196489Y-28699500D01*
X803510Y-28699500D01*
X796512Y-28699107D01*
X695850Y-28687765D01*
X682205Y-28684651D01*
X589918Y-28652358D01*
X577309Y-28646285D01*
X494529Y-28594271D01*
X483587Y-28585545D01*
X414454Y-28516412D01*
X405728Y-28505470D01*
X353714Y-28422690D01*
X347641Y-28410081D01*
X315348Y-28317794D01*
X312234Y-28304148D01*
X300893Y-28203487D01*
X300500Y-28196490D01*
X300500Y-25253593D01*
X1947500Y-25253593D01*
X1947500Y-25346406D01*
X1947501Y-25346414D01*
X1971521Y-25436059D01*
X1971522Y-25436062D01*
X2017929Y-25516439D01*
X2017930Y-25516440D01*
X2074194Y-25572704D01*
X2092500Y-25616897D01*
X2092500Y-28158726D01*
X2092500Y-28241274D01*
X2124090Y-28317539D01*
X2182461Y-28375910D01*
X2258726Y-28407500D01*
X2258727Y-28407500D01*
X13941273Y-28407500D01*
X13941274Y-28407500D01*
X14017539Y-28375910D01*
X14075910Y-28317539D01*
X14107500Y-28241274D01*
X14107500Y-27216897D01*
X14125806Y-27172704D01*
X14182070Y-27116440D01*
X14228478Y-27036060D01*
X14252500Y-26946408D01*
X14252500Y-26853592D01*
X14228478Y-26763940D01*
X14228477Y-26763937D01*
X14182070Y-26683560D01*
X14182065Y-26683554D01*
X14116445Y-26617934D01*
X14116439Y-26617929D01*
X14036062Y-26571522D01*
X14036059Y-26571521D01*
X13946414Y-26547501D01*
X13946409Y-26547500D01*
X13946408Y-26547500D01*
X13853592Y-26547500D01*
X13853591Y-26547500D01*
X13853585Y-26547501D01*
X13763940Y-26571521D01*
X13763937Y-26571522D01*
X13683560Y-26617929D01*
X13683554Y-26617934D01*
X13617934Y-26683554D01*
X13617929Y-26683560D01*
X13571522Y-26763937D01*
X13571521Y-26763940D01*
X13547501Y-26853585D01*
X13547500Y-26853593D01*
X13547500Y-26946406D01*
X13547501Y-26946414D01*
X13571521Y-27036059D01*
X13571522Y-27036062D01*
X13617929Y-27116439D01*
X13617930Y-27116440D01*
X13674194Y-27172704D01*
X13692500Y-27216897D01*
X13692500Y-27930000D01*
X13674194Y-27974194D01*
X13630000Y-27992500D01*
X2570000Y-27992500D01*
X2525806Y-27974194D01*
X2507500Y-27930000D01*
X2507500Y-25616898D01*
X2525806Y-25572704D01*
X2582070Y-25516440D01*
X2628478Y-25436060D01*
X2652500Y-25346408D01*
X2652500Y-25253592D01*
X2628478Y-25163940D01*
X2628477Y-25163937D01*
X2582070Y-25083560D01*
X2582065Y-25083554D01*
X2516445Y-25017934D01*
X2516439Y-25017929D01*
X2436062Y-24971522D01*
X2436059Y-24971521D01*
X2346414Y-24947501D01*
X2346409Y-24947500D01*
X2346408Y-24947500D01*
X2253592Y-24947500D01*
X2253591Y-24947500D01*
X2253585Y-24947501D01*
X2163940Y-24971521D01*
X2163937Y-24971522D01*
X2083560Y-25017929D01*
X2083554Y-25017934D01*
X2017934Y-25083554D01*
X2017929Y-25083560D01*
X1971522Y-25163937D01*
X1971521Y-25163940D01*
X1947501Y-25253585D01*
X1947500Y-25253593D01*
X300500Y-25253593D01*
X300500Y-21732817D01*
X9946789Y-21732817D01*
X10016034Y-21802062D01*
X10016050Y-21802077D01*
X10360675Y-22091251D01*
X10360683Y-22091258D01*
X10729194Y-22349291D01*
X11118815Y-22574238D01*
X11526526Y-22764357D01*
X11949283Y-22918229D01*
X11949295Y-22918232D01*
X12383837Y-23034668D01*
X12826895Y-23112790D01*
X13275057Y-23152000D01*
X13724943Y-23152000D01*
X14173104Y-23112790D01*
X14616162Y-23034668D01*
X15050704Y-22918232D01*
X15050716Y-22918229D01*
X15473473Y-22764357D01*
X15881184Y-22574238D01*
X16270805Y-22349291D01*
X16639316Y-22091258D01*
X16639324Y-22091251D01*
X16983949Y-21802077D01*
X16983965Y-21802062D01*
X17053211Y-21732817D01*
X13500000Y-18179606D01*
X9946789Y-21732817D01*
X300500Y-21732817D01*
X300500Y-19783794D01*
X318806Y-19739600D01*
X363000Y-19721294D01*
X407194Y-19739600D01*
X424299Y-19771601D01*
X429897Y-19799747D01*
X429898Y-19799749D01*
X458077Y-19841922D01*
X486257Y-19860750D01*
X500252Y-19870102D01*
X537442Y-19877500D01*
X2685000Y-19877500D01*
X2729194Y-19895806D01*
X2747500Y-19940000D01*
X2747500Y-20028101D01*
X2729194Y-20072295D01*
X2717934Y-20083554D01*
X2717929Y-20083560D01*
X2671522Y-20163937D01*
X2671521Y-20163940D01*
X2647501Y-20253585D01*
X2647500Y-20253593D01*
X2647500Y-20346406D01*
X2647501Y-20346414D01*
X2671521Y-20436059D01*
X2671522Y-20436062D01*
X2717929Y-20516439D01*
X2717934Y-20516445D01*
X2783554Y-20582065D01*
X2783560Y-20582070D01*
X2863937Y-20628477D01*
X2863940Y-20628478D01*
X2953592Y-20652500D01*
X2953593Y-20652500D01*
X3046407Y-20652500D01*
X3046408Y-20652500D01*
X3136060Y-20628478D01*
X3150568Y-20620102D01*
X3153048Y-20618669D01*
X3216440Y-20582070D01*
X3282070Y-20516440D01*
X3328478Y-20436060D01*
X3352500Y-20346408D01*
X3352500Y-20253592D01*
X3328478Y-20163940D01*
X3328477Y-20163937D01*
X3282070Y-20083560D01*
X3282065Y-20083554D01*
X3270806Y-20072295D01*
X3252500Y-20028101D01*
X3252500Y-19940000D01*
X3270806Y-19895806D01*
X3315000Y-19877500D01*
X3562557Y-19877500D01*
X3562558Y-19877500D01*
X3599748Y-19870102D01*
X3641922Y-19841922D01*
X3670102Y-19799748D01*
X3677500Y-19762558D01*
X3677500Y-17775056D01*
X8348000Y-17775056D01*
X8348000Y-18224943D01*
X8387209Y-18673104D01*
X8465331Y-19116162D01*
X8581767Y-19550704D01*
X8581770Y-19550716D01*
X8735642Y-19973473D01*
X8925761Y-20381184D01*
X9150708Y-20770805D01*
X9408741Y-21139316D01*
X9408748Y-21139324D01*
X9697922Y-21483949D01*
X9697937Y-21483965D01*
X9767183Y-21553211D01*
X13320394Y-18000000D01*
X13679606Y-18000000D01*
X17232817Y-21553211D01*
X17302062Y-21483965D01*
X17302077Y-21483949D01*
X17591251Y-21139324D01*
X17591258Y-21139316D01*
X17849291Y-20770805D01*
X18074238Y-20381184D01*
X18264357Y-19973473D01*
X18418229Y-19550716D01*
X18418232Y-19550704D01*
X18534668Y-19116162D01*
X18612790Y-18673104D01*
X18652000Y-18224943D01*
X18652000Y-17775056D01*
X18612790Y-17326895D01*
X18534668Y-16883837D01*
X18418232Y-16449295D01*
X18418229Y-16449283D01*
X18264357Y-16026526D01*
X18074238Y-15618815D01*
X17849291Y-15229194D01*
X17591258Y-14860683D01*
X17591251Y-14860675D01*
X17302077Y-14516050D01*
X17302062Y-14516034D01*
X17232817Y-14446789D01*
X13679606Y-18000000D01*
X13320394Y-18000000D01*
X9767183Y-14446789D01*
X9697937Y-14516034D01*
X9697922Y-14516050D01*
X9408748Y-14860675D01*
X9408741Y-14860683D01*
X9150708Y-15229194D01*
X8925761Y-15618815D01*
X8735642Y-16026526D01*
X8581770Y-16449283D01*
X8581767Y-16449295D01*
X8465331Y-16883837D01*
X8387209Y-17326895D01*
X8348000Y-17775056D01*
X3677500Y-17775056D01*
X3677500Y-16237442D01*
X3670102Y-16200252D01*
X3670101Y-16200250D01*
X3641922Y-16158077D01*
X3599748Y-16129898D01*
X3562558Y-16122500D01*
X3562557Y-16122500D01*
X3340000Y-16122500D01*
X3295806Y-16104194D01*
X3277500Y-16060000D01*
X3277500Y-14267183D01*
X9946789Y-14267183D01*
X13500000Y-17820394D01*
X17053211Y-14267183D01*
X16983965Y-14197937D01*
X16983949Y-14197922D01*
X16639324Y-13908748D01*
X16639316Y-13908741D01*
X16270805Y-13650708D01*
X15881184Y-13425761D01*
X15473473Y-13235642D01*
X15050716Y-13081770D01*
X15050704Y-13081767D01*
X14616162Y-12965331D01*
X14173104Y-12887209D01*
X13724943Y-12848000D01*
X13275057Y-12848000D01*
X12826895Y-12887209D01*
X12383837Y-12965331D01*
X11949295Y-13081767D01*
X11949283Y-13081770D01*
X11526526Y-13235642D01*
X11118815Y-13425761D01*
X10729194Y-13650708D01*
X10360683Y-13908741D01*
X10360675Y-13908748D01*
X10016050Y-14197922D01*
X10016034Y-14197937D01*
X9946789Y-14267183D01*
X3277500Y-14267183D01*
X3277500Y-10340000D01*
X3295806Y-10295806D01*
X3340000Y-10277500D01*
X24610000Y-10277500D01*
X24654194Y-10295806D01*
G37*
%TD.AperFunction*%
%TD*%
M02*
