%TF.GenerationSoftware,KiCad,Pcbnew,10.0.6*%
%TF.CreationDate,2026-10-03T23:30:41+02:00*%
%TF.ProjectId,openrz67-nrf,6f70656e-727a-4363-972d-6e72662e6b69,A*%
%TF.SameCoordinates,Original*%
%TF.FileFunction,Copper,L1,Top*%
%TF.FilePolarity,Positive*%
%FSLAX46Y46*%
G04 Gerber Fmt 4.6, Leading zero omitted, Abs format (unit mm)*
G04 Created by KiCad (PCBNEW 10.0.6) date 2026-10-03 23:30:41*
%MOMM*%
%LPD*%
G01*
G04 APERTURE LIST*
G04 Aperture macros list*
%AMRoundRect*
0 Rectangle with rounded corners*
0 $1 Rounding radius*
0 $2 $3 $4 $5 $6 $7 $8 $9 X,Y pos of 4 corners*
0 Add a 4 corners polygon primitive as box body*
4,1,4,$2,$3,$4,$5,$6,$7,$8,$9,$2,$3,0*
0 Add four circle primitives for the rounded corners*
1,1,$1+$1,$2,$3*
1,1,$1+$1,$4,$5*
1,1,$1+$1,$6,$7*
1,1,$1+$1,$8,$9*
0 Add four rect primitives between the rounded corners*
20,1,$1+$1,$2,$3,$4,$5,0*
20,1,$1+$1,$4,$5,$6,$7,0*
20,1,$1+$1,$6,$7,$8,$9,0*
20,1,$1+$1,$8,$9,$2,$3,0*%
G04 Aperture macros list end*
%TA.AperFunction,SMDPad,CuDef*%
%ADD10R,2.000000X0.900000*%
%TD*%
%TA.AperFunction,SMDPad,CuDef*%
%ADD11R,0.900000X2.000000*%
%TD*%
%TA.AperFunction,SMDPad,CuDef*%
%ADD12R,0.900000X0.900000*%
%TD*%
%TA.AperFunction,SMDPad,CuDef*%
%ADD13R,0.565500X0.540000*%
%TD*%
%TA.AperFunction,SMDPad,CuDef*%
%ADD14R,0.800000X0.800000*%
%TD*%
%TA.AperFunction,SMDPad,CuDef*%
%ADD15R,1.728000X1.485000*%
%TD*%
%TA.AperFunction,SMDPad,CuDef*%
%ADD16RoundRect,0.300000X-0.450000X-0.800000X0.450000X-0.800000X0.450000X0.800000X-0.450000X0.800000X0*%
%TD*%
%TA.AperFunction,SMDPad,CuDef*%
%ADD17R,0.540000X0.565500*%
%TD*%
%TA.AperFunction,SMDPad,CuDef*%
%ADD18R,0.800000X1.500000*%
%TD*%
%TA.AperFunction,SMDPad,CuDef*%
%ADD19R,0.800000X1.700000*%
%TD*%
%TA.AperFunction,SMDPad,CuDef*%
%ADD20R,0.790000X0.540000*%
%TD*%
%TA.AperFunction,SMDPad,CuDef*%
%ADD21R,0.600000X1.550000*%
%TD*%
%TA.AperFunction,SMDPad,CuDef*%
%ADD22R,1.200000X1.800000*%
%TD*%
%TA.AperFunction,ViaPad*%
%ADD23C,0.450000*%
%TD*%
%TA.AperFunction,Conductor*%
%ADD24C,0.160000*%
%TD*%
%TA.AperFunction,Conductor*%
%ADD25C,0.250000*%
%TD*%
G04 APERTURE END LIST*
D10*
%TO.P,U1,1*%
%TO.N,unconnected-(U1-P1.11-Pad1)*%
X1500000Y-4290000D03*
%TO.P,U1,2*%
%TO.N,unconnected-(U1-P1.10-Pad2)*%
X1500000Y-5560000D03*
%TO.P,U1,3*%
%TO.N,unconnected-(U1-P0.03-Pad3)*%
X1500000Y-6800000D03*
%TO.P,U1,4*%
%TO.N,unconnected-(U1-AI4-Pad4)*%
X1500000Y-8100000D03*
%TO.P,U1,5*%
%TO.N,GND*%
X1500000Y-9370000D03*
%TO.P,U1,6*%
%TO.N,unconnected-(U1-P1.13-Pad6)*%
X1500000Y-10640000D03*
%TO.P,U1,7*%
%TO.N,unconnected-(U1-AI0-Pad7)*%
X1500000Y-11910000D03*
%TO.P,U1,8*%
%TO.N,unconnected-(U1-AI5-Pad8)*%
X1500000Y-13180000D03*
%TO.P,U1,9*%
%TO.N,unconnected-(U1-AI7-Pad9)*%
X1500000Y-14450000D03*
%TO.P,U1,10*%
%TO.N,BTN*%
X1500000Y-15720000D03*
D11*
%TO.P,U1,11*%
%TO.N,LED_DRV*%
X3550000Y-18310000D03*
D12*
%TO.P,U1,12*%
%TO.N,unconnected-(U1-P0.26-Pad12)*%
X4190000Y-16210000D03*
D11*
%TO.P,U1,13*%
%TO.N,unconnected-(U1-XL2-Pad13)*%
X4820000Y-18310000D03*
D12*
%TO.P,U1,14*%
%TO.N,unconnected-(U1-P0.06-Pad14)*%
X5460000Y-16210000D03*
D11*
%TO.P,U1,15*%
%TO.N,unconnected-(U1-AI3-Pad15)*%
X6090000Y-18310000D03*
D12*
%TO.P,U1,16*%
%TO.N,unconnected-(U1-P0.08-Pad16)*%
X6730000Y-16210000D03*
D11*
%TO.P,U1,17*%
%TO.N,unconnected-(U1-P1.09-Pad17)*%
X7360000Y-18310000D03*
D12*
%TO.P,U1,18*%
%TO.N,unconnected-(U1-AI2-Pad18)*%
X8000000Y-16210000D03*
D11*
%TO.P,U1,19*%
%TO.N,VDD*%
X8630000Y-18310000D03*
D12*
%TO.P,U1,20*%
%TO.N,unconnected-(U1-P12-Pad20)*%
X9270000Y-16210000D03*
D11*
%TO.P,U1,21*%
%TO.N,GND*%
X9900000Y-18310000D03*
D12*
%TO.P,U1,22*%
%TO.N,unconnected-(U1-P0.07-Pad22)*%
X10540000Y-16210000D03*
D11*
%TO.P,U1,23*%
%TO.N,VDD*%
X11170000Y-18310000D03*
D12*
%TO.P,U1,24*%
%TO.N,GND*%
X11810000Y-16210000D03*
D11*
%TO.P,U1,25*%
%TO.N,unconnected-(U1-DCH-Pad25)*%
X12440000Y-18310000D03*
D10*
%TO.P,U1,26*%
%TO.N,unconnected-(U1-RST-Pad26)*%
X14500000Y-15720000D03*
%TO.P,U1,27*%
%TO.N,unconnected-(U1-VBS-Pad27)*%
X14500000Y-14450000D03*
D12*
%TO.P,U1,28*%
%TO.N,unconnected-(U1-P15-Pad28)*%
X12410000Y-13810000D03*
D10*
%TO.P,U1,29*%
%TO.N,unconnected-(U1-D--Pad29)*%
X14500000Y-13180000D03*
D12*
%TO.P,U1,30*%
%TO.N,unconnected-(U1-P17-Pad30)*%
X12410000Y-12540000D03*
D10*
%TO.P,U1,31*%
%TO.N,unconnected-(U1-D+-Pad31)*%
X14500000Y-11910000D03*
D12*
%TO.P,U1,32*%
%TO.N,unconnected-(U1-P0.20-Pad32)*%
X12410000Y-11270000D03*
D10*
%TO.P,U1,33*%
%TO.N,unconnected-(U1-P0.13-Pad33)*%
X14500000Y-10640000D03*
D12*
%TO.P,U1,34*%
%TO.N,unconnected-(U1-P0.22-Pad34)*%
X12410000Y-10000000D03*
D10*
%TO.P,U1,35*%
%TO.N,unconnected-(U1-P0.24-Pad35)*%
X14500000Y-9370000D03*
D12*
%TO.P,U1,36*%
%TO.N,unconnected-(U1-P1.00-Pad36)*%
X12410000Y-8730000D03*
D10*
%TO.P,U1,37*%
%TO.N,SWDIO*%
X14500000Y-8100000D03*
D12*
%TO.P,U1,38*%
%TO.N,unconnected-(U1-P1.02-Pad38)*%
X12410000Y-7460000D03*
D10*
%TO.P,U1,39*%
%TO.N,SWCLK*%
X14500000Y-6830000D03*
D12*
%TO.P,U1,40*%
%TO.N,unconnected-(U1-P1.04-Pad40)*%
X12410000Y-6190000D03*
D10*
%TO.P,U1,41*%
%TO.N,S1_DRV*%
X14500000Y-5560000D03*
D12*
%TO.P,U1,42*%
%TO.N,unconnected-(U1-P1.06-Pad42)*%
X12400000Y-4920000D03*
D10*
%TO.P,U1,43*%
%TO.N,S2_DRV*%
X14500000Y-4290000D03*
%TD*%
D13*
%TO.P,R2,1*%
%TO.N,S2_DRV*%
X23407000Y-4000000D03*
%TO.P,R2,2*%
%TO.N,S2_LED*%
X24273000Y-4000000D03*
%TD*%
D14*
%TO.P,D1,1*%
%TO.N,GND*%
X11200500Y-27600000D03*
%TO.P,D1,2*%
%TO.N,LED_A*%
X12799500Y-27600000D03*
%TD*%
D15*
%TO.P,C1,1*%
%TO.N,VDD*%
X25600000Y-15410000D03*
%TO.P,C1,2*%
%TO.N,GND*%
X25600000Y-18590000D03*
%TD*%
D16*
%TO.P,J2,1*%
%TO.N,VDD*%
X5090000Y-24800000D03*
%TO.P,J2,2*%
%TO.N,SWDIO*%
X7630000Y-24800000D03*
%TO.P,J2,3*%
%TO.N,SWCLK*%
X10170000Y-24800000D03*
%TO.P,J2,4*%
%TO.N,GND*%
X12710000Y-24800000D03*
%TD*%
D17*
%TO.P,R3,1*%
%TO.N,LED_DRV*%
X14000000Y-26867000D03*
%TO.P,R3,2*%
%TO.N,LED_A*%
X14000000Y-27733000D03*
%TD*%
D18*
%TO.P,U2,1*%
%TO.N,S1_LED*%
X19870000Y-6500000D03*
%TO.P,U2,2*%
%TO.N,GND*%
X17330000Y-6500000D03*
%TO.P,U2,3*%
%TO.N,CAM_GND*%
X17330000Y-13500000D03*
%TO.P,U2,4*%
%TO.N,S1*%
X19870000Y-13500000D03*
%TD*%
D19*
%TO.P,SW1,1*%
%TO.N,BTN*%
X4300000Y-27600000D03*
%TO.P,SW1,2*%
%TO.N,GND*%
X7700000Y-27600000D03*
%TD*%
D13*
%TO.P,R1,1*%
%TO.N,S1_DRV*%
X19437000Y-4000000D03*
%TO.P,R1,2*%
%TO.N,S1_LED*%
X20303000Y-4000000D03*
%TD*%
D18*
%TO.P,U3,1*%
%TO.N,S2_LED*%
X24270000Y-6500000D03*
%TO.P,U3,2*%
%TO.N,GND*%
X21730000Y-6500000D03*
%TO.P,U3,3*%
%TO.N,CAM_GND*%
X21730000Y-13500000D03*
%TO.P,U3,4*%
%TO.N,S2*%
X24270000Y-13500000D03*
%TD*%
D20*
%TO.P,C2,1*%
%TO.N,VDD*%
X8725000Y-20300000D03*
%TO.P,C2,2*%
%TO.N,GND*%
X9815000Y-20300000D03*
%TD*%
D21*
%TO.P,J1,1*%
%TO.N,CAM_GND*%
X19800000Y-22760000D03*
%TO.P,J1,2*%
%TO.N,unconnected-(J1-Pad2)*%
X20800000Y-22760000D03*
%TO.P,J1,3*%
%TO.N,S1*%
X21800000Y-22760000D03*
%TO.P,J1,4*%
%TO.N,S2*%
X22800000Y-22760000D03*
D22*
%TO.P,J1,5*%
%TO.N,unconnected-(J1-Pad5)*%
X24100000Y-26640000D03*
%TO.P,J1,6*%
%TO.N,unconnected-(J1-Pad6)*%
X18500000Y-26640000D03*
%TD*%
D23*
%TO.N,GND*%
X7700000Y-28300000D03*
X13500000Y-24800000D03*
X25600000Y-21000000D03*
X6000000Y-22300000D03*
%TO.N,VDD*%
X3000000Y-20300000D03*
X25600000Y-15900000D03*
%TD*%
%TO.N,GND*%
D24*
X9810000Y-20300000D02*
X9900000Y-18310000D01*
X11200000Y-27600000D02*
X8100000Y-27600000D01*
X25600000Y-18590000D02*
X25600000Y-21000000D01*
%TO.N,BTN*%
X1500000Y-15720000D02*
X1500000Y-27600000D01*
X1500000Y-27600000D02*
X4300000Y-27600000D01*
%TO.N,LED_DRV*%
X3550000Y-19000000D02*
X2300000Y-19700000D01*
X3550000Y-18310000D02*
X3550000Y-19000000D01*
X2300000Y-19700000D02*
X2300000Y-26200000D01*
X2300000Y-26200000D02*
X14000000Y-26200000D01*
X14000000Y-26200000D02*
X14000000Y-26870000D01*
%TO.N,VDD*%
D25*
X11170000Y-21200000D02*
X11170000Y-18310000D01*
X8720000Y-21200000D02*
X8720000Y-20300000D01*
X5090000Y-21200000D02*
X5090000Y-23700000D01*
X8720000Y-20300000D02*
X8630000Y-18310000D01*
X3000000Y-20300000D02*
X3000000Y-21200000D01*
X3000000Y-21200000D02*
X11170000Y-21200000D01*
X25600000Y-15900000D02*
X25600000Y-15410000D01*
%TO.N,SWDIO*%
D24*
X14500000Y-8100000D02*
X15750000Y-8100000D01*
X7630000Y-22900000D02*
X7630000Y-23700000D01*
X15750000Y-22900000D02*
X7630000Y-22900000D01*
X15750000Y-8100000D02*
X15750000Y-22900000D01*
%TO.N,SWCLK*%
X16050000Y-6830000D02*
X16050000Y-23300000D01*
X10170000Y-23300000D02*
X10170000Y-23700000D01*
X16050000Y-23300000D02*
X10170000Y-23300000D01*
X14500000Y-6830000D02*
X16050000Y-6830000D01*
%TO.N,S1_DRV*%
X16200000Y-5560000D02*
X17200000Y-4900000D01*
X19000000Y-4000000D02*
X19440000Y-4000000D01*
X18400000Y-4900000D02*
X19000000Y-4000000D01*
X14500000Y-5560000D02*
X16200000Y-5560000D01*
X17200000Y-4900000D02*
X18400000Y-4900000D01*
%TO.N,S2_DRV*%
X23410000Y-3400000D02*
X23410000Y-4000000D01*
X14500000Y-4290000D02*
X16600000Y-4290000D01*
X22300000Y-2300000D02*
X23410000Y-3400000D01*
X17900000Y-2300000D02*
X22300000Y-2300000D01*
X16600000Y-4290000D02*
X17900000Y-2300000D01*
%TO.N,S2_LED*%
X24270000Y-4000000D02*
X24270000Y-6500000D01*
%TO.N,LED_A*%
X14000000Y-27730000D02*
X12800000Y-27600000D01*
%TO.N,S1_LED*%
X19870000Y-5300000D02*
X19870000Y-6500000D01*
X20300000Y-4000000D02*
X19870000Y-5300000D01*
%TO.N,CAM_GND*%
D25*
X17330000Y-11500000D02*
X17330000Y-13500000D01*
X17330000Y-15500000D02*
X19800000Y-18700000D01*
X17330000Y-13500000D02*
X17330000Y-15500000D01*
X19800000Y-18700000D02*
X19800000Y-22000000D01*
X21730000Y-11500000D02*
X17330000Y-11500000D01*
X21730000Y-13500000D02*
X21730000Y-11500000D01*
%TO.N,S1*%
X21800000Y-17600000D02*
X21800000Y-22000000D01*
X19870000Y-13500000D02*
X19870000Y-15000000D01*
X19870000Y-15000000D02*
X21800000Y-17600000D01*
%TO.N,S2*%
X24270000Y-13500000D02*
X24270000Y-16500000D01*
X22800000Y-18100000D02*
X22800000Y-22000000D01*
X24270000Y-16500000D02*
X22800000Y-18100000D01*
%TD*%
%TA.AperFunction,Conductor*%
%TO.N,GND*%
G36*
X26203487Y-300893D02*
G01*
X26241291Y-305152D01*
X26304149Y-312234D01*
X26317792Y-315347D01*
X26327676Y-318806D01*
X26410081Y-347641D01*
X26422689Y-353713D01*
X26437468Y-363000D01*
X26505470Y-405728D01*
X26516412Y-414454D01*
X26585545Y-483587D01*
X26594271Y-494529D01*
X26646285Y-577309D01*
X26652358Y-589918D01*
X26684651Y-682205D01*
X26687765Y-695850D01*
X26699107Y-796510D01*
X26699500Y-803508D01*
X26699500Y-14584421D01*
X26681194Y-14628615D01*
X26637000Y-14646921D01*
X26592806Y-14628615D01*
X26585034Y-14619145D01*
X26555922Y-14575578D01*
X26513748Y-14547398D01*
X26476558Y-14540000D01*
X24723442Y-14540000D01*
X24704847Y-14543699D01*
X24686251Y-14547398D01*
X24686250Y-14547398D01*
X24644076Y-14575578D01*
X24636966Y-14586220D01*
X24597192Y-14612795D01*
X24550276Y-14603462D01*
X24523701Y-14563688D01*
X24522500Y-14551496D01*
X24522500Y-14440000D01*
X24540806Y-14395806D01*
X24585000Y-14377500D01*
X24682557Y-14377500D01*
X24682558Y-14377500D01*
X24719748Y-14370102D01*
X24761922Y-14341922D01*
X24790102Y-14299748D01*
X24797500Y-14262558D01*
X24797500Y-12737442D01*
X24790102Y-12700252D01*
X24790101Y-12700250D01*
X24761922Y-12658077D01*
X24719748Y-12629898D01*
X24682558Y-12622500D01*
X23857442Y-12622500D01*
X23838847Y-12626199D01*
X23820251Y-12629898D01*
X23820250Y-12629898D01*
X23778077Y-12658077D01*
X23749898Y-12700250D01*
X23749898Y-12700251D01*
X23742500Y-12737442D01*
X23742500Y-14262557D01*
X23749898Y-14299748D01*
X23749898Y-14299749D01*
X23778077Y-14341922D01*
X23806257Y-14360750D01*
X23820252Y-14370102D01*
X23857442Y-14377500D01*
X23955000Y-14377500D01*
X23999194Y-14395806D01*
X24017500Y-14440000D01*
X24017500Y-16377265D01*
X24001024Y-16419550D01*
X22618573Y-17924257D01*
X22616744Y-17926166D01*
X22585939Y-17956971D01*
X22582912Y-17961501D01*
X22580083Y-17966151D01*
X22565134Y-18007053D01*
X22564175Y-18009514D01*
X22547500Y-18049773D01*
X22546433Y-18055139D01*
X22545601Y-18060499D01*
X22547444Y-18104022D01*
X22547500Y-18106666D01*
X22547500Y-21795000D01*
X22529194Y-21839194D01*
X22490310Y-21855300D01*
X22490498Y-21857199D01*
X22487443Y-21857499D01*
X22450251Y-21864898D01*
X22450250Y-21864898D01*
X22408077Y-21893077D01*
X22379898Y-21935250D01*
X22379898Y-21935251D01*
X22372500Y-21972442D01*
X22372500Y-23547557D01*
X22379898Y-23584748D01*
X22379898Y-23584749D01*
X22408077Y-23626922D01*
X22436257Y-23645750D01*
X22450252Y-23655102D01*
X22487442Y-23662500D01*
X22487443Y-23662500D01*
X23112557Y-23662500D01*
X23112558Y-23662500D01*
X23149748Y-23655102D01*
X23191922Y-23626922D01*
X23220102Y-23584748D01*
X23227500Y-23547558D01*
X23227500Y-21972442D01*
X23220102Y-21935252D01*
X23220101Y-21935250D01*
X23191922Y-21893077D01*
X23149748Y-21864898D01*
X23112556Y-21857499D01*
X23109502Y-21857199D01*
X23109689Y-21855300D01*
X23070806Y-21839194D01*
X23052500Y-21795000D01*
X23052500Y-19347472D01*
X24584000Y-19347472D01*
X24592818Y-19391807D01*
X24592819Y-19391809D01*
X24626413Y-19442086D01*
X24676690Y-19475680D01*
X24676692Y-19475681D01*
X24721027Y-19484499D01*
X24721028Y-19484500D01*
X25473000Y-19484500D01*
X25473000Y-18717000D01*
X24584000Y-18717000D01*
X24584000Y-19347472D01*
X23052500Y-19347472D01*
X23052500Y-18222733D01*
X23068975Y-18180449D01*
X23388628Y-17832527D01*
X24584000Y-17832527D01*
X24584000Y-18463000D01*
X25473000Y-18463000D01*
X25473000Y-17695500D01*
X24721028Y-17695500D01*
X24676692Y-17704318D01*
X24676690Y-17704319D01*
X24626413Y-17737913D01*
X24592819Y-17788190D01*
X24592818Y-17788192D01*
X24584000Y-17832527D01*
X23388628Y-17832527D01*
X24451448Y-16675716D01*
X24453232Y-16673855D01*
X24484059Y-16643030D01*
X24484061Y-16643023D01*
X24487085Y-16638500D01*
X24489916Y-16633848D01*
X24489915Y-16633848D01*
X24489918Y-16633846D01*
X24504880Y-16592900D01*
X24505828Y-16590471D01*
X24522499Y-16550227D01*
X24522498Y-16550227D01*
X24522500Y-16550225D01*
X24522500Y-16550221D01*
X24523564Y-16544875D01*
X24524397Y-16539502D01*
X24524399Y-16539498D01*
X24522556Y-16495976D01*
X24522500Y-16493332D01*
X24522500Y-16268503D01*
X24540806Y-16224309D01*
X24585000Y-16206003D01*
X24629194Y-16224309D01*
X24636967Y-16233780D01*
X24644077Y-16244422D01*
X24668947Y-16261039D01*
X24686252Y-16272602D01*
X24723442Y-16280000D01*
X24723443Y-16280000D01*
X26476557Y-16280000D01*
X26476558Y-16280000D01*
X26513748Y-16272602D01*
X26555922Y-16244422D01*
X26584102Y-16202248D01*
X26584101Y-16202248D01*
X26585033Y-16200855D01*
X26624807Y-16174279D01*
X26671723Y-16183611D01*
X26698299Y-16223385D01*
X26699500Y-16235578D01*
X26699500Y-17720321D01*
X26681194Y-17764515D01*
X26637000Y-17782821D01*
X26592806Y-17764515D01*
X26585034Y-17755045D01*
X26573587Y-17737914D01*
X26523309Y-17704319D01*
X26523307Y-17704318D01*
X26478972Y-17695500D01*
X25727000Y-17695500D01*
X25727000Y-19484500D01*
X26478972Y-19484500D01*
X26478972Y-19484499D01*
X26523307Y-19475681D01*
X26523309Y-19475680D01*
X26573586Y-19442086D01*
X26585033Y-19424955D01*
X26624807Y-19398379D01*
X26671723Y-19407711D01*
X26698299Y-19447485D01*
X26699500Y-19459678D01*
X26699500Y-28196488D01*
X26699107Y-28203486D01*
X26687764Y-28304150D01*
X26684650Y-28317794D01*
X26652359Y-28410078D01*
X26646286Y-28422688D01*
X26594270Y-28505470D01*
X26585544Y-28516412D01*
X26516412Y-28585544D01*
X26505470Y-28594270D01*
X26422688Y-28646286D01*
X26410078Y-28652359D01*
X26317794Y-28684650D01*
X26304150Y-28687764D01*
X26203487Y-28699107D01*
X26196489Y-28699500D01*
X8206226Y-28699500D01*
X8162032Y-28681194D01*
X8143726Y-28637000D01*
X8162032Y-28592806D01*
X8171503Y-28585033D01*
X8209586Y-28559586D01*
X8243180Y-28509309D01*
X8243181Y-28509307D01*
X8251999Y-28464972D01*
X8252000Y-28464972D01*
X8252000Y-28014972D01*
X10648500Y-28014972D01*
X10657318Y-28059307D01*
X10657319Y-28059309D01*
X10690913Y-28109586D01*
X10741190Y-28143180D01*
X10741192Y-28143181D01*
X10785527Y-28151999D01*
X10785528Y-28152000D01*
X11073500Y-28152000D01*
X11327500Y-28152000D01*
X11615472Y-28152000D01*
X11615472Y-28151999D01*
X11659807Y-28143181D01*
X11659809Y-28143180D01*
X11710086Y-28109586D01*
X11743680Y-28059309D01*
X11743681Y-28059307D01*
X11752499Y-28014972D01*
X11752500Y-28014972D01*
X11752500Y-27727000D01*
X11327500Y-27727000D01*
X11327500Y-28152000D01*
X11073500Y-28152000D01*
X11073500Y-27727000D01*
X10648500Y-27727000D01*
X10648500Y-28014972D01*
X8252000Y-28014972D01*
X8252000Y-27727000D01*
X7148000Y-27727000D01*
X7148000Y-28464972D01*
X7156818Y-28509307D01*
X7156819Y-28509309D01*
X7190413Y-28559586D01*
X7228497Y-28585033D01*
X7255073Y-28624807D01*
X7245741Y-28671723D01*
X7205967Y-28698299D01*
X7193774Y-28699500D01*
X4733795Y-28699500D01*
X4689601Y-28681194D01*
X4671295Y-28637000D01*
X4689601Y-28592806D01*
X4721600Y-28575701D01*
X4749748Y-28570102D01*
X4791922Y-28541922D01*
X4820102Y-28499748D01*
X4827500Y-28462558D01*
X4827500Y-26737442D01*
X4827020Y-26735027D01*
X7148000Y-26735027D01*
X7148000Y-27473000D01*
X7573000Y-27473000D01*
X7827000Y-27473000D01*
X8252000Y-27473000D01*
X8252000Y-27185027D01*
X10648500Y-27185027D01*
X10648500Y-27473000D01*
X11073500Y-27473000D01*
X11327500Y-27473000D01*
X11752500Y-27473000D01*
X11752500Y-27185028D01*
X11752499Y-27185027D01*
X11743681Y-27140692D01*
X11743680Y-27140690D01*
X11710086Y-27090413D01*
X11659809Y-27056819D01*
X11659807Y-27056818D01*
X11615472Y-27048000D01*
X11327500Y-27048000D01*
X11327500Y-27473000D01*
X11073500Y-27473000D01*
X11073500Y-27048000D01*
X10785528Y-27048000D01*
X10741192Y-27056818D01*
X10741190Y-27056819D01*
X10690913Y-27090413D01*
X10657319Y-27140690D01*
X10657318Y-27140692D01*
X10648500Y-27185027D01*
X8252000Y-27185027D01*
X8252000Y-26735028D01*
X8251999Y-26735027D01*
X8243181Y-26690692D01*
X8243180Y-26690690D01*
X8209586Y-26640413D01*
X8159309Y-26606819D01*
X8159307Y-26606818D01*
X8114972Y-26598000D01*
X7827000Y-26598000D01*
X7827000Y-27473000D01*
X7573000Y-27473000D01*
X7573000Y-26598000D01*
X7285028Y-26598000D01*
X7240692Y-26606818D01*
X7240690Y-26606819D01*
X7190413Y-26640413D01*
X7156819Y-26690690D01*
X7156818Y-26690692D01*
X7148000Y-26735027D01*
X4827020Y-26735027D01*
X4820102Y-26700252D01*
X4820101Y-26700250D01*
X4791922Y-26658077D01*
X4749748Y-26629898D01*
X4712558Y-26622500D01*
X3887442Y-26622500D01*
X3868847Y-26626199D01*
X3850251Y-26629898D01*
X3850250Y-26629898D01*
X3808077Y-26658077D01*
X3779898Y-26700250D01*
X3779898Y-26700251D01*
X3772500Y-26737442D01*
X3772500Y-27330000D01*
X3754194Y-27374194D01*
X3710000Y-27392500D01*
X1770000Y-27392500D01*
X1725806Y-27374194D01*
X1707500Y-27330000D01*
X1707500Y-16360000D01*
X1725806Y-16315806D01*
X1770000Y-16297500D01*
X2512557Y-16297500D01*
X2512558Y-16297500D01*
X2549748Y-16290102D01*
X2591922Y-16261922D01*
X2620102Y-16219748D01*
X2627500Y-16182558D01*
X2627500Y-15747442D01*
X3612500Y-15747442D01*
X3612500Y-16672557D01*
X3619898Y-16709748D01*
X3619898Y-16709749D01*
X3648077Y-16751922D01*
X3676257Y-16770750D01*
X3690252Y-16780102D01*
X3727442Y-16787500D01*
X3727443Y-16787500D01*
X4652557Y-16787500D01*
X4652558Y-16787500D01*
X4689748Y-16780102D01*
X4731922Y-16751922D01*
X4760102Y-16709748D01*
X4763701Y-16691654D01*
X4790277Y-16651882D01*
X4837194Y-16642550D01*
X4876967Y-16669126D01*
X4886299Y-16691655D01*
X4889898Y-16709748D01*
X4889898Y-16709749D01*
X4918077Y-16751922D01*
X4946257Y-16770750D01*
X4960252Y-16780102D01*
X4997442Y-16787500D01*
X4997443Y-16787500D01*
X5922557Y-16787500D01*
X5922558Y-16787500D01*
X5959748Y-16780102D01*
X6001922Y-16751922D01*
X6030102Y-16709748D01*
X6033701Y-16691654D01*
X6060277Y-16651882D01*
X6107194Y-16642550D01*
X6146967Y-16669126D01*
X6156299Y-16691655D01*
X6159898Y-16709748D01*
X6159898Y-16709749D01*
X6188077Y-16751922D01*
X6216257Y-16770750D01*
X6230252Y-16780102D01*
X6267442Y-16787500D01*
X6267443Y-16787500D01*
X7192557Y-16787500D01*
X7192558Y-16787500D01*
X7229748Y-16780102D01*
X7271922Y-16751922D01*
X7300102Y-16709748D01*
X7303701Y-16691654D01*
X7330277Y-16651882D01*
X7377194Y-16642550D01*
X7416967Y-16669126D01*
X7426299Y-16691655D01*
X7429898Y-16709748D01*
X7429898Y-16709749D01*
X7458077Y-16751922D01*
X7486257Y-16770750D01*
X7500252Y-16780102D01*
X7537442Y-16787500D01*
X7537443Y-16787500D01*
X8462557Y-16787500D01*
X8462558Y-16787500D01*
X8499748Y-16780102D01*
X8541922Y-16751922D01*
X8570102Y-16709748D01*
X8573701Y-16691654D01*
X8600277Y-16651882D01*
X8647194Y-16642550D01*
X8686967Y-16669126D01*
X8696299Y-16691655D01*
X8699898Y-16709748D01*
X8699898Y-16709749D01*
X8728077Y-16751922D01*
X8756257Y-16770750D01*
X8770252Y-16780102D01*
X8807442Y-16787500D01*
X8807443Y-16787500D01*
X9732557Y-16787500D01*
X9732558Y-16787500D01*
X9769748Y-16780102D01*
X9811922Y-16751922D01*
X9840102Y-16709748D01*
X9843701Y-16691654D01*
X9870277Y-16651882D01*
X9917194Y-16642550D01*
X9956967Y-16669126D01*
X9966299Y-16691655D01*
X9969898Y-16709748D01*
X9969898Y-16709749D01*
X9998077Y-16751922D01*
X10026257Y-16770750D01*
X10040252Y-16780102D01*
X10077442Y-16787500D01*
X10077443Y-16787500D01*
X11002557Y-16787500D01*
X11002558Y-16787500D01*
X11039748Y-16780102D01*
X11081922Y-16751922D01*
X11110102Y-16709748D01*
X11117500Y-16672558D01*
X11117500Y-15747442D01*
X11110102Y-15710252D01*
X11110101Y-15710250D01*
X11081922Y-15668077D01*
X11039748Y-15639898D01*
X11016950Y-15635363D01*
X11002558Y-15632500D01*
X10077442Y-15632500D01*
X10063050Y-15635363D01*
X10040251Y-15639898D01*
X10040250Y-15639898D01*
X9998077Y-15668077D01*
X9969898Y-15710250D01*
X9969898Y-15710252D01*
X9966299Y-15728344D01*
X9939722Y-15768117D01*
X9892806Y-15777449D01*
X9853033Y-15750872D01*
X9843701Y-15728344D01*
X9843500Y-15727336D01*
X9840102Y-15710252D01*
X9840101Y-15710250D01*
X9811922Y-15668077D01*
X9769748Y-15639898D01*
X9746950Y-15635363D01*
X9732558Y-15632500D01*
X8807442Y-15632500D01*
X8793050Y-15635363D01*
X8770251Y-15639898D01*
X8770250Y-15639898D01*
X8728077Y-15668077D01*
X8699898Y-15710250D01*
X8699898Y-15710252D01*
X8696299Y-15728344D01*
X8669722Y-15768117D01*
X8622806Y-15777449D01*
X8583033Y-15750872D01*
X8573701Y-15728344D01*
X8573500Y-15727336D01*
X8570102Y-15710252D01*
X8570101Y-15710250D01*
X8541922Y-15668077D01*
X8499748Y-15639898D01*
X8476950Y-15635363D01*
X8462558Y-15632500D01*
X7537442Y-15632500D01*
X7523050Y-15635363D01*
X7500251Y-15639898D01*
X7500250Y-15639898D01*
X7458077Y-15668077D01*
X7429898Y-15710250D01*
X7429898Y-15710252D01*
X7426299Y-15728344D01*
X7399722Y-15768117D01*
X7352806Y-15777449D01*
X7313033Y-15750872D01*
X7303701Y-15728344D01*
X7303500Y-15727336D01*
X7300102Y-15710252D01*
X7300101Y-15710250D01*
X7271922Y-15668077D01*
X7229748Y-15639898D01*
X7206950Y-15635363D01*
X7192558Y-15632500D01*
X6267442Y-15632500D01*
X6253050Y-15635363D01*
X6230251Y-15639898D01*
X6230250Y-15639898D01*
X6188077Y-15668077D01*
X6159898Y-15710250D01*
X6159898Y-15710252D01*
X6156299Y-15728344D01*
X6129722Y-15768117D01*
X6082806Y-15777449D01*
X6043033Y-15750872D01*
X6033701Y-15728344D01*
X6033500Y-15727336D01*
X6030102Y-15710252D01*
X6030101Y-15710250D01*
X6001922Y-15668077D01*
X5959748Y-15639898D01*
X5936950Y-15635363D01*
X5922558Y-15632500D01*
X4997442Y-15632500D01*
X4983050Y-15635363D01*
X4960251Y-15639898D01*
X4960250Y-15639898D01*
X4918077Y-15668077D01*
X4889898Y-15710250D01*
X4889898Y-15710252D01*
X4886299Y-15728344D01*
X4859722Y-15768117D01*
X4812806Y-15777449D01*
X4773033Y-15750872D01*
X4763701Y-15728344D01*
X4763500Y-15727336D01*
X4760102Y-15710252D01*
X4760101Y-15710250D01*
X4731922Y-15668077D01*
X4689748Y-15639898D01*
X4666950Y-15635363D01*
X4652558Y-15632500D01*
X3727442Y-15632500D01*
X3713050Y-15635363D01*
X3690251Y-15639898D01*
X3690250Y-15639898D01*
X3648077Y-15668077D01*
X3619898Y-15710250D01*
X3619898Y-15710251D01*
X3612500Y-15747442D01*
X2627500Y-15747442D01*
X2627500Y-15257442D01*
X2620102Y-15220252D01*
X2620101Y-15220250D01*
X2591922Y-15178077D01*
X2549748Y-15149898D01*
X2542499Y-15148456D01*
X2531654Y-15146298D01*
X2491882Y-15119723D01*
X2482550Y-15072806D01*
X2509126Y-15033033D01*
X2531654Y-15023701D01*
X2549748Y-15020102D01*
X2591922Y-14991922D01*
X2620102Y-14949748D01*
X2627500Y-14912558D01*
X2627500Y-13987442D01*
X2620102Y-13950252D01*
X2620101Y-13950250D01*
X2591922Y-13908077D01*
X2549748Y-13879898D01*
X2542499Y-13878456D01*
X2531654Y-13876298D01*
X2491882Y-13849723D01*
X2482550Y-13802806D01*
X2509126Y-13763033D01*
X2531654Y-13753701D01*
X2549748Y-13750102D01*
X2591922Y-13721922D01*
X2620102Y-13679748D01*
X2627500Y-13642558D01*
X2627500Y-12717442D01*
X2620102Y-12680252D01*
X2605286Y-12658078D01*
X2591922Y-12638077D01*
X2549748Y-12609898D01*
X2542499Y-12608456D01*
X2531654Y-12606298D01*
X2491882Y-12579723D01*
X2482550Y-12532806D01*
X2509126Y-12493033D01*
X2531654Y-12483701D01*
X2549748Y-12480102D01*
X2591922Y-12451922D01*
X2620102Y-12409748D01*
X2627500Y-12372558D01*
X2627500Y-11447442D01*
X2620102Y-11410252D01*
X2620101Y-11410250D01*
X2591922Y-11368077D01*
X2549748Y-11339898D01*
X2542499Y-11338456D01*
X2531654Y-11336298D01*
X2491882Y-11309723D01*
X2482550Y-11262806D01*
X2509126Y-11223033D01*
X2531654Y-11213701D01*
X2549748Y-11210102D01*
X2591922Y-11181922D01*
X2620102Y-11139748D01*
X2627500Y-11102558D01*
X2627500Y-10177442D01*
X2620102Y-10140252D01*
X2604744Y-10117267D01*
X2591922Y-10098077D01*
X2549748Y-10069898D01*
X2542499Y-10068456D01*
X2512558Y-10062500D01*
X487442Y-10062500D01*
X468847Y-10066199D01*
X450251Y-10069898D01*
X450250Y-10069898D01*
X408076Y-10098078D01*
X407194Y-10098961D01*
X406041Y-10099438D01*
X402959Y-10101498D01*
X402549Y-10100884D01*
X363000Y-10117267D01*
X318806Y-10098961D01*
X300500Y-10054767D01*
X300500Y-8685233D01*
X318806Y-8641039D01*
X363000Y-8622733D01*
X402549Y-8639115D01*
X402959Y-8638502D01*
X406041Y-8640561D01*
X407194Y-8641039D01*
X408076Y-8641921D01*
X429307Y-8656107D01*
X450252Y-8670102D01*
X487442Y-8677500D01*
X487443Y-8677500D01*
X2512557Y-8677500D01*
X2512558Y-8677500D01*
X2549748Y-8670102D01*
X2591922Y-8641922D01*
X2620102Y-8599748D01*
X2627500Y-8562558D01*
X2627500Y-7637442D01*
X2620102Y-7600252D01*
X2604744Y-7577267D01*
X2591922Y-7558077D01*
X2549748Y-7529898D01*
X2512558Y-7522500D01*
X487442Y-7522500D01*
X468847Y-7526199D01*
X450251Y-7529898D01*
X450250Y-7529898D01*
X408076Y-7558078D01*
X407194Y-7558961D01*
X406041Y-7559438D01*
X402959Y-7561498D01*
X402549Y-7560884D01*
X363000Y-7577267D01*
X318806Y-7558961D01*
X300500Y-7514767D01*
X300500Y-7385233D01*
X318806Y-7341039D01*
X363000Y-7322733D01*
X402549Y-7339115D01*
X402959Y-7338502D01*
X406041Y-7340561D01*
X407194Y-7341039D01*
X408076Y-7341921D01*
X429307Y-7356107D01*
X450252Y-7370102D01*
X487442Y-7377500D01*
X487443Y-7377500D01*
X2512557Y-7377500D01*
X2512558Y-7377500D01*
X2549748Y-7370102D01*
X2591922Y-7341922D01*
X2620102Y-7299748D01*
X2627500Y-7262558D01*
X2627500Y-6337442D01*
X2620102Y-6300252D01*
X2611967Y-6288077D01*
X2591922Y-6258077D01*
X2552844Y-6231967D01*
X2526268Y-6192194D01*
X2535600Y-6145277D01*
X2552844Y-6128033D01*
X2591922Y-6101922D01*
X2620101Y-6059749D01*
X2620102Y-6059748D01*
X2627500Y-6022558D01*
X2627500Y-5097442D01*
X2620102Y-5060252D01*
X2604799Y-5037349D01*
X2591922Y-5018077D01*
X2549748Y-4989898D01*
X2531654Y-4986298D01*
X2491882Y-4959723D01*
X2482550Y-4912806D01*
X2509126Y-4873033D01*
X2531654Y-4863701D01*
X2549748Y-4860102D01*
X2591922Y-4831922D01*
X2620102Y-4789748D01*
X2627500Y-4752558D01*
X2627500Y-4457442D01*
X11822500Y-4457442D01*
X11822500Y-5382557D01*
X11829898Y-5419748D01*
X11829898Y-5419749D01*
X11858077Y-5461922D01*
X11900250Y-5490101D01*
X11900252Y-5490102D01*
X11923343Y-5494695D01*
X11963117Y-5521271D01*
X11972449Y-5568187D01*
X11945873Y-5607961D01*
X11923346Y-5617292D01*
X11910255Y-5619896D01*
X11910250Y-5619898D01*
X11868077Y-5648077D01*
X11839898Y-5690250D01*
X11839898Y-5690251D01*
X11832500Y-5727442D01*
X11832500Y-6652557D01*
X11839898Y-6689748D01*
X11839898Y-6689749D01*
X11868077Y-6731922D01*
X11896257Y-6750750D01*
X11910252Y-6760102D01*
X11927102Y-6763454D01*
X11928344Y-6763701D01*
X11968117Y-6790278D01*
X11977449Y-6837194D01*
X11950872Y-6876967D01*
X11928344Y-6886299D01*
X11910252Y-6889898D01*
X11910250Y-6889898D01*
X11868077Y-6918077D01*
X11839898Y-6960250D01*
X11839898Y-6960251D01*
X11832500Y-6997442D01*
X11832500Y-7922557D01*
X11839898Y-7959748D01*
X11839898Y-7959749D01*
X11868077Y-8001922D01*
X11896257Y-8020750D01*
X11910252Y-8030102D01*
X11927102Y-8033454D01*
X11928344Y-8033701D01*
X11968117Y-8060278D01*
X11977449Y-8107194D01*
X11950872Y-8146967D01*
X11928344Y-8156299D01*
X11910252Y-8159898D01*
X11910250Y-8159898D01*
X11868077Y-8188077D01*
X11839898Y-8230250D01*
X11839898Y-8230251D01*
X11832500Y-8267442D01*
X11832500Y-9192557D01*
X11839898Y-9229748D01*
X11839898Y-9229749D01*
X11868077Y-9271922D01*
X11896257Y-9290750D01*
X11910252Y-9300102D01*
X11927102Y-9303454D01*
X11928344Y-9303701D01*
X11968117Y-9330278D01*
X11977449Y-9377194D01*
X11950872Y-9416967D01*
X11928344Y-9426299D01*
X11910252Y-9429898D01*
X11910250Y-9429898D01*
X11868077Y-9458077D01*
X11839898Y-9500250D01*
X11839898Y-9500251D01*
X11832500Y-9537442D01*
X11832500Y-10462557D01*
X11839898Y-10499748D01*
X11839898Y-10499749D01*
X11868077Y-10541922D01*
X11896257Y-10560750D01*
X11910252Y-10570102D01*
X11927102Y-10573454D01*
X11928344Y-10573701D01*
X11968117Y-10600278D01*
X11977449Y-10647194D01*
X11950872Y-10686967D01*
X11928344Y-10696299D01*
X11910252Y-10699898D01*
X11910250Y-10699898D01*
X11868077Y-10728077D01*
X11839898Y-10770250D01*
X11839898Y-10770251D01*
X11832500Y-10807442D01*
X11832500Y-11732557D01*
X11839898Y-11769748D01*
X11839898Y-11769749D01*
X11868077Y-11811922D01*
X11896257Y-11830750D01*
X11910252Y-11840102D01*
X11927102Y-11843454D01*
X11928344Y-11843701D01*
X11968117Y-11870278D01*
X11977449Y-11917194D01*
X11950872Y-11956967D01*
X11928344Y-11966299D01*
X11910252Y-11969898D01*
X11910250Y-11969898D01*
X11868077Y-11998077D01*
X11839898Y-12040250D01*
X11839898Y-12040251D01*
X11832500Y-12077442D01*
X11832500Y-13002557D01*
X11839898Y-13039748D01*
X11839898Y-13039749D01*
X11868077Y-13081922D01*
X11896257Y-13100750D01*
X11910252Y-13110102D01*
X11927102Y-13113454D01*
X11928344Y-13113701D01*
X11968117Y-13140278D01*
X11977449Y-13187194D01*
X11950872Y-13226967D01*
X11928344Y-13236299D01*
X11910252Y-13239898D01*
X11910250Y-13239898D01*
X11868077Y-13268077D01*
X11839898Y-13310250D01*
X11839898Y-13310251D01*
X11832500Y-13347442D01*
X11832500Y-14272557D01*
X11839898Y-14309748D01*
X11839898Y-14309749D01*
X11868077Y-14351922D01*
X11895285Y-14370101D01*
X11910252Y-14380102D01*
X11947442Y-14387500D01*
X11947443Y-14387500D01*
X12872557Y-14387500D01*
X12872558Y-14387500D01*
X12909748Y-14380102D01*
X12951922Y-14351922D01*
X12980102Y-14309748D01*
X12987500Y-14272558D01*
X12987500Y-13347442D01*
X12980102Y-13310252D01*
X12980101Y-13310250D01*
X12951922Y-13268077D01*
X12909748Y-13239898D01*
X12891654Y-13236298D01*
X12851882Y-13209723D01*
X12842550Y-13162806D01*
X12869126Y-13123033D01*
X12891654Y-13113701D01*
X12909748Y-13110102D01*
X12951922Y-13081922D01*
X12980102Y-13039748D01*
X12987500Y-13002558D01*
X12987500Y-12077442D01*
X12980102Y-12040252D01*
X12980101Y-12040250D01*
X12951922Y-11998077D01*
X12909748Y-11969898D01*
X12891654Y-11966298D01*
X12851882Y-11939723D01*
X12842550Y-11892806D01*
X12869126Y-11853033D01*
X12891654Y-11843701D01*
X12909748Y-11840102D01*
X12951922Y-11811922D01*
X12980102Y-11769748D01*
X12987500Y-11732558D01*
X12987500Y-10807442D01*
X12980102Y-10770252D01*
X12980101Y-10770250D01*
X12951922Y-10728077D01*
X12909748Y-10699898D01*
X12891654Y-10696298D01*
X12851882Y-10669723D01*
X12842550Y-10622806D01*
X12869126Y-10583033D01*
X12891654Y-10573701D01*
X12909748Y-10570102D01*
X12951922Y-10541922D01*
X12980102Y-10499748D01*
X12987500Y-10462558D01*
X12987500Y-9537442D01*
X12980102Y-9500252D01*
X12980101Y-9500250D01*
X12951922Y-9458077D01*
X12909748Y-9429898D01*
X12891654Y-9426298D01*
X12851882Y-9399723D01*
X12842550Y-9352806D01*
X12869126Y-9313033D01*
X12891654Y-9303701D01*
X12909748Y-9300102D01*
X12951922Y-9271922D01*
X12980102Y-9229748D01*
X12987500Y-9192558D01*
X12987500Y-8267442D01*
X12980102Y-8230252D01*
X12980101Y-8230250D01*
X12951922Y-8188077D01*
X12909748Y-8159898D01*
X12891654Y-8156298D01*
X12851882Y-8129723D01*
X12842550Y-8082806D01*
X12869126Y-8043033D01*
X12891654Y-8033701D01*
X12909748Y-8030102D01*
X12951922Y-8001922D01*
X12980102Y-7959748D01*
X12987500Y-7922558D01*
X12987500Y-6997442D01*
X12980102Y-6960252D01*
X12980101Y-6960250D01*
X12951922Y-6918077D01*
X12909748Y-6889898D01*
X12891654Y-6886298D01*
X12851882Y-6859723D01*
X12842550Y-6812806D01*
X12869126Y-6773033D01*
X12891654Y-6763701D01*
X12909748Y-6760102D01*
X12951922Y-6731922D01*
X12980102Y-6689748D01*
X12987500Y-6652558D01*
X12987500Y-5727442D01*
X12980102Y-5690252D01*
X12958604Y-5658078D01*
X12951922Y-5648077D01*
X12909749Y-5619898D01*
X12886654Y-5615304D01*
X12846881Y-5588727D01*
X12837550Y-5541810D01*
X12864127Y-5502037D01*
X12886654Y-5492706D01*
X12899748Y-5490102D01*
X12941922Y-5461922D01*
X12970102Y-5419748D01*
X12977500Y-5382558D01*
X12977500Y-4457442D01*
X12970102Y-4420252D01*
X12967873Y-4416916D01*
X12941922Y-4378077D01*
X12899748Y-4349898D01*
X12862558Y-4342500D01*
X11937442Y-4342500D01*
X11918847Y-4346199D01*
X11900251Y-4349898D01*
X11900250Y-4349898D01*
X11858077Y-4378077D01*
X11829898Y-4420250D01*
X11829898Y-4420251D01*
X11822500Y-4457442D01*
X2627500Y-4457442D01*
X2627500Y-3862500D01*
X2645806Y-3818306D01*
X2690000Y-3800000D01*
X13310000Y-3800000D01*
X13354194Y-3818306D01*
X13372500Y-3862500D01*
X13372500Y-4752557D01*
X13379898Y-4789748D01*
X13379898Y-4789749D01*
X13408077Y-4831922D01*
X13436257Y-4850750D01*
X13450252Y-4860102D01*
X13467102Y-4863454D01*
X13468344Y-4863701D01*
X13508117Y-4890278D01*
X13517449Y-4937194D01*
X13490872Y-4976967D01*
X13468344Y-4986299D01*
X13450252Y-4989898D01*
X13450250Y-4989898D01*
X13408077Y-5018077D01*
X13379898Y-5060250D01*
X13379898Y-5060251D01*
X13372500Y-5097442D01*
X13372500Y-6022557D01*
X13379898Y-6059748D01*
X13379898Y-6059749D01*
X13408077Y-6101922D01*
X13436257Y-6120750D01*
X13450252Y-6130102D01*
X13467102Y-6133454D01*
X13468344Y-6133701D01*
X13508117Y-6160278D01*
X13517449Y-6207194D01*
X13490872Y-6246967D01*
X13468344Y-6256299D01*
X13450252Y-6259898D01*
X13450250Y-6259898D01*
X13408077Y-6288077D01*
X13379898Y-6330250D01*
X13379898Y-6330251D01*
X13379898Y-6330252D01*
X13372500Y-6367442D01*
X13372500Y-7292558D01*
X13375832Y-7309307D01*
X13379898Y-7329748D01*
X13379898Y-7329749D01*
X13408077Y-7371922D01*
X13427999Y-7385233D01*
X13450252Y-7400102D01*
X13467102Y-7403454D01*
X13468344Y-7403701D01*
X13508117Y-7430278D01*
X13517449Y-7477194D01*
X13490872Y-7516967D01*
X13468344Y-7526299D01*
X13450252Y-7529898D01*
X13450250Y-7529898D01*
X13408077Y-7558077D01*
X13379898Y-7600250D01*
X13379898Y-7600251D01*
X13372500Y-7637442D01*
X13372500Y-8562557D01*
X13379898Y-8599748D01*
X13379898Y-8599749D01*
X13408077Y-8641922D01*
X13436257Y-8660750D01*
X13450252Y-8670102D01*
X13467102Y-8673454D01*
X13468344Y-8673701D01*
X13508117Y-8700278D01*
X13517449Y-8747194D01*
X13490872Y-8786967D01*
X13468344Y-8796299D01*
X13450252Y-8799898D01*
X13450250Y-8799898D01*
X13408077Y-8828077D01*
X13379898Y-8870250D01*
X13379898Y-8870251D01*
X13372500Y-8907442D01*
X13372500Y-9832557D01*
X13379898Y-9869748D01*
X13379898Y-9869749D01*
X13408077Y-9911922D01*
X13436257Y-9930750D01*
X13450252Y-9940102D01*
X13467102Y-9943454D01*
X13468344Y-9943701D01*
X13508117Y-9970278D01*
X13517449Y-10017194D01*
X13490872Y-10056967D01*
X13468344Y-10066299D01*
X13450252Y-10069898D01*
X13450250Y-10069898D01*
X13408077Y-10098077D01*
X13379898Y-10140250D01*
X13379898Y-10140251D01*
X13372500Y-10177442D01*
X13372500Y-11102557D01*
X13379898Y-11139748D01*
X13379898Y-11139749D01*
X13408077Y-11181922D01*
X13436257Y-11200750D01*
X13450252Y-11210102D01*
X13467102Y-11213454D01*
X13468344Y-11213701D01*
X13508117Y-11240278D01*
X13517449Y-11287194D01*
X13490872Y-11326967D01*
X13468344Y-11336299D01*
X13450252Y-11339898D01*
X13450250Y-11339898D01*
X13408077Y-11368077D01*
X13379898Y-11410250D01*
X13379898Y-11410251D01*
X13372500Y-11447442D01*
X13372500Y-12372557D01*
X13379898Y-12409748D01*
X13379898Y-12409749D01*
X13408077Y-12451922D01*
X13436257Y-12470750D01*
X13450252Y-12480102D01*
X13467102Y-12483454D01*
X13468344Y-12483701D01*
X13508117Y-12510278D01*
X13517449Y-12557194D01*
X13490872Y-12596967D01*
X13468344Y-12606299D01*
X13450252Y-12609898D01*
X13450250Y-12609898D01*
X13408077Y-12638077D01*
X13379898Y-12680250D01*
X13379898Y-12680251D01*
X13372500Y-12717442D01*
X13372500Y-13642557D01*
X13379898Y-13679748D01*
X13379898Y-13679749D01*
X13408077Y-13721922D01*
X13436257Y-13740750D01*
X13450252Y-13750102D01*
X13467102Y-13753454D01*
X13468344Y-13753701D01*
X13508117Y-13780278D01*
X13517449Y-13827194D01*
X13490872Y-13866967D01*
X13468344Y-13876299D01*
X13450252Y-13879898D01*
X13450250Y-13879898D01*
X13408077Y-13908077D01*
X13379898Y-13950250D01*
X13379898Y-13950251D01*
X13379898Y-13950252D01*
X13372500Y-13987442D01*
X13372500Y-14912558D01*
X13379898Y-14949748D01*
X13379898Y-14949749D01*
X13408077Y-14991922D01*
X13436257Y-15010750D01*
X13450252Y-15020102D01*
X13467102Y-15023454D01*
X13468344Y-15023701D01*
X13508117Y-15050278D01*
X13517449Y-15097194D01*
X13490872Y-15136967D01*
X13468344Y-15146299D01*
X13450252Y-15149898D01*
X13450250Y-15149898D01*
X13408077Y-15178077D01*
X13379898Y-15220250D01*
X13379898Y-15220251D01*
X13379898Y-15220252D01*
X13372500Y-15257442D01*
X13372500Y-16182558D01*
X13376140Y-16200855D01*
X13379898Y-16219748D01*
X13379898Y-16219749D01*
X13408077Y-16261922D01*
X13435133Y-16280000D01*
X13450252Y-16290102D01*
X13487442Y-16297500D01*
X13487443Y-16297500D01*
X15480000Y-16297500D01*
X15524194Y-16315806D01*
X15542500Y-16360000D01*
X15542500Y-22630000D01*
X15524194Y-22674194D01*
X15480000Y-22692500D01*
X7671274Y-22692500D01*
X7588726Y-22692500D01*
X7550593Y-22708295D01*
X7512460Y-22724090D01*
X7454090Y-22782460D01*
X7422500Y-22858727D01*
X7422500Y-23510000D01*
X7404194Y-23554194D01*
X7360000Y-23572500D01*
X7128497Y-23572500D01*
X7099625Y-23575207D01*
X6977985Y-23617771D01*
X6977984Y-23617771D01*
X6874297Y-23694297D01*
X6797771Y-23797984D01*
X6797771Y-23797985D01*
X6755208Y-23919622D01*
X6755207Y-23919627D01*
X6753196Y-23941078D01*
X6752500Y-23948503D01*
X6752501Y-25651496D01*
X6752501Y-25651498D01*
X6752500Y-25651498D01*
X6755208Y-25680374D01*
X6755207Y-25680374D01*
X6797771Y-25802014D01*
X6797771Y-25802015D01*
X6864838Y-25892886D01*
X6876353Y-25939315D01*
X6851665Y-25980287D01*
X6814551Y-25992500D01*
X5905449Y-25992500D01*
X5861255Y-25974194D01*
X5842949Y-25930000D01*
X5855162Y-25892886D01*
X5922228Y-25802015D01*
X5922229Y-25802014D01*
X5964792Y-25680375D01*
X5967500Y-25651497D01*
X5967499Y-23948504D01*
X5967499Y-23948503D01*
X5967499Y-23948497D01*
X5966426Y-23937058D01*
X5964792Y-23919625D01*
X5922229Y-23797986D01*
X5913683Y-23786407D01*
X5897546Y-23764542D01*
X5845703Y-23694297D01*
X5742014Y-23617771D01*
X5620377Y-23575208D01*
X5620372Y-23575207D01*
X5599618Y-23573261D01*
X5591497Y-23572500D01*
X5591494Y-23572500D01*
X5405000Y-23572500D01*
X5360806Y-23554194D01*
X5342500Y-23510000D01*
X5342500Y-21515000D01*
X5360806Y-21470806D01*
X5405000Y-21452500D01*
X11220224Y-21452500D01*
X11220225Y-21452500D01*
X11313030Y-21414059D01*
X11384059Y-21343030D01*
X11422500Y-21250225D01*
X11422500Y-19500000D01*
X11440806Y-19455806D01*
X11485000Y-19437500D01*
X11632557Y-19437500D01*
X11632558Y-19437500D01*
X11669748Y-19430102D01*
X11711922Y-19401922D01*
X11740102Y-19359748D01*
X11743701Y-19341654D01*
X11770277Y-19301882D01*
X11817194Y-19292550D01*
X11856967Y-19319126D01*
X11866299Y-19341655D01*
X11869898Y-19359748D01*
X11869898Y-19359749D01*
X11898077Y-19401922D01*
X11926257Y-19420750D01*
X11940252Y-19430102D01*
X11977442Y-19437500D01*
X11977443Y-19437500D01*
X12902557Y-19437500D01*
X12902558Y-19437500D01*
X12939748Y-19430102D01*
X12981922Y-19401922D01*
X13010102Y-19359748D01*
X13017500Y-19322558D01*
X13017500Y-17297442D01*
X13010102Y-17260252D01*
X13010101Y-17260250D01*
X12981922Y-17218077D01*
X12939748Y-17189898D01*
X12902558Y-17182500D01*
X11977442Y-17182500D01*
X11958847Y-17186199D01*
X11940251Y-17189898D01*
X11940250Y-17189898D01*
X11898077Y-17218077D01*
X11869898Y-17260250D01*
X11869898Y-17260252D01*
X11866299Y-17278344D01*
X11839722Y-17318117D01*
X11792806Y-17327449D01*
X11753033Y-17300872D01*
X11743701Y-17278344D01*
X11743500Y-17277336D01*
X11740102Y-17260252D01*
X11740101Y-17260250D01*
X11711922Y-17218077D01*
X11669748Y-17189898D01*
X11632558Y-17182500D01*
X10707442Y-17182500D01*
X10688847Y-17186199D01*
X10670251Y-17189898D01*
X10670250Y-17189898D01*
X10628077Y-17218077D01*
X10599898Y-17260250D01*
X10599898Y-17260251D01*
X10592500Y-17297442D01*
X10592500Y-19322557D01*
X10599898Y-19359748D01*
X10599898Y-19359749D01*
X10628077Y-19401922D01*
X10656257Y-19420750D01*
X10670252Y-19430102D01*
X10707442Y-19437500D01*
X10855000Y-19437500D01*
X10899194Y-19455806D01*
X10917500Y-19500000D01*
X10917500Y-20885000D01*
X10899194Y-20929194D01*
X10855000Y-20947500D01*
X9035000Y-20947500D01*
X8990806Y-20929194D01*
X8972500Y-20885000D01*
X8972500Y-20760000D01*
X8990806Y-20715806D01*
X9035000Y-20697500D01*
X9132557Y-20697500D01*
X9132558Y-20697500D01*
X9169748Y-20690102D01*
X9169749Y-20690101D01*
X9217041Y-20658502D01*
X9218300Y-20660387D01*
X9254218Y-20645501D01*
X9298416Y-20663798D01*
X9306196Y-20673276D01*
X9310411Y-20679584D01*
X9310412Y-20679585D01*
X9360690Y-20713180D01*
X9360692Y-20713181D01*
X9405027Y-20721999D01*
X9405028Y-20722000D01*
X9688000Y-20722000D01*
X9942000Y-20722000D01*
X10224972Y-20722000D01*
X10224972Y-20721999D01*
X10269307Y-20713181D01*
X10269309Y-20713180D01*
X10319586Y-20679586D01*
X10353180Y-20629309D01*
X10353181Y-20629307D01*
X10361999Y-20584972D01*
X10362000Y-20584972D01*
X10362000Y-20427000D01*
X9942000Y-20427000D01*
X9942000Y-20722000D01*
X9688000Y-20722000D01*
X9688000Y-20173000D01*
X9942000Y-20173000D01*
X10362000Y-20173000D01*
X10362000Y-20015028D01*
X10361999Y-20015027D01*
X10353181Y-19970692D01*
X10353180Y-19970690D01*
X10319586Y-19920413D01*
X10269309Y-19886819D01*
X10269307Y-19886818D01*
X10224972Y-19878000D01*
X9942000Y-19878000D01*
X9942000Y-20173000D01*
X9688000Y-20173000D01*
X9688000Y-19878000D01*
X9405028Y-19878000D01*
X9360692Y-19886818D01*
X9360690Y-19886819D01*
X9310413Y-19920414D01*
X9306195Y-19926726D01*
X9266419Y-19953298D01*
X9219503Y-19943962D01*
X9214138Y-19939558D01*
X9169748Y-19909898D01*
X9132558Y-19902500D01*
X9132557Y-19902500D01*
X9014517Y-19902500D01*
X8970323Y-19884194D01*
X8952081Y-19842824D01*
X8950313Y-19803721D01*
X8936704Y-19502823D01*
X8952994Y-19457848D01*
X8996316Y-19437564D01*
X8999140Y-19437500D01*
X9092557Y-19437500D01*
X9092558Y-19437500D01*
X9129748Y-19430102D01*
X9171922Y-19401922D01*
X9200102Y-19359748D01*
X9207500Y-19322558D01*
X9207500Y-17297442D01*
X9200102Y-17260252D01*
X9200101Y-17260250D01*
X9171922Y-17218077D01*
X9129748Y-17189898D01*
X9092558Y-17182500D01*
X8167442Y-17182500D01*
X8148847Y-17186199D01*
X8130251Y-17189898D01*
X8130250Y-17189898D01*
X8088077Y-17218077D01*
X8059898Y-17260250D01*
X8059898Y-17260252D01*
X8056299Y-17278344D01*
X8029722Y-17318117D01*
X7982806Y-17327449D01*
X7943033Y-17300872D01*
X7933701Y-17278344D01*
X7933500Y-17277336D01*
X7930102Y-17260252D01*
X7930101Y-17260250D01*
X7901922Y-17218077D01*
X7859748Y-17189898D01*
X7822558Y-17182500D01*
X6897442Y-17182500D01*
X6878847Y-17186199D01*
X6860251Y-17189898D01*
X6860250Y-17189898D01*
X6818077Y-17218077D01*
X6789898Y-17260250D01*
X6789898Y-17260252D01*
X6786299Y-17278344D01*
X6759722Y-17318117D01*
X6712806Y-17327449D01*
X6673033Y-17300872D01*
X6663701Y-17278344D01*
X6663500Y-17277336D01*
X6660102Y-17260252D01*
X6660101Y-17260250D01*
X6631922Y-17218077D01*
X6589748Y-17189898D01*
X6552558Y-17182500D01*
X5627442Y-17182500D01*
X5608847Y-17186199D01*
X5590251Y-17189898D01*
X5590250Y-17189898D01*
X5548077Y-17218077D01*
X5519898Y-17260250D01*
X5519898Y-17260252D01*
X5516299Y-17278344D01*
X5489722Y-17318117D01*
X5442806Y-17327449D01*
X5403033Y-17300872D01*
X5393701Y-17278344D01*
X5393500Y-17277336D01*
X5390102Y-17260252D01*
X5390101Y-17260250D01*
X5361922Y-17218077D01*
X5319748Y-17189898D01*
X5282558Y-17182500D01*
X4357442Y-17182500D01*
X4338847Y-17186199D01*
X4320251Y-17189898D01*
X4320250Y-17189898D01*
X4278077Y-17218077D01*
X4249898Y-17260250D01*
X4249898Y-17260252D01*
X4246299Y-17278344D01*
X4219722Y-17318117D01*
X4172806Y-17327449D01*
X4133033Y-17300872D01*
X4123701Y-17278344D01*
X4123500Y-17277336D01*
X4120102Y-17260252D01*
X4120101Y-17260250D01*
X4091922Y-17218077D01*
X4049748Y-17189898D01*
X4012558Y-17182500D01*
X3087442Y-17182500D01*
X3068847Y-17186199D01*
X3050251Y-17189898D01*
X3050250Y-17189898D01*
X3008077Y-17218077D01*
X2979898Y-17260250D01*
X2979898Y-17260251D01*
X2972500Y-17297442D01*
X2972500Y-19048945D01*
X2954194Y-19093139D01*
X2940538Y-19103477D01*
X2212503Y-19511177D01*
X2205884Y-19514387D01*
X2182460Y-19524089D01*
X2182458Y-19524090D01*
X2179677Y-19526872D01*
X2166035Y-19537199D01*
X2162604Y-19539120D01*
X2162603Y-19539121D01*
X2146902Y-19559036D01*
X2142018Y-19564531D01*
X2124091Y-19582458D01*
X2124088Y-19582463D01*
X2122586Y-19586090D01*
X2113931Y-19600857D01*
X2111497Y-19603944D01*
X2104614Y-19628347D01*
X2102204Y-19635296D01*
X2092500Y-19658724D01*
X2092500Y-19662655D01*
X2090153Y-19679620D01*
X2089088Y-19683395D01*
X2092067Y-19708572D01*
X2092500Y-19715916D01*
X2092500Y-26158726D01*
X2092500Y-26241274D01*
X2124090Y-26317539D01*
X2182461Y-26375910D01*
X2258726Y-26407500D01*
X13577828Y-26407500D01*
X13622022Y-26425806D01*
X13640328Y-26470000D01*
X13629795Y-26504723D01*
X13609898Y-26534500D01*
X13609898Y-26534501D01*
X13602500Y-26571692D01*
X13602500Y-27162307D01*
X13609898Y-27199498D01*
X13609898Y-27199499D01*
X13638077Y-27241671D01*
X13638078Y-27241672D01*
X13647598Y-27248033D01*
X13674173Y-27287807D01*
X13664841Y-27334724D01*
X13647598Y-27351966D01*
X13646215Y-27352890D01*
X13638077Y-27358328D01*
X13609898Y-27400500D01*
X13605767Y-27421267D01*
X13579189Y-27461039D01*
X13537736Y-27471206D01*
X13507196Y-27467898D01*
X13382768Y-27454418D01*
X13340803Y-27431459D01*
X13327000Y-27392282D01*
X13327000Y-27187442D01*
X13322000Y-27162308D01*
X13319602Y-27150252D01*
X13319601Y-27150250D01*
X13291422Y-27108077D01*
X13249248Y-27079898D01*
X13212058Y-27072500D01*
X12386942Y-27072500D01*
X12368347Y-27076199D01*
X12349751Y-27079898D01*
X12349750Y-27079898D01*
X12307577Y-27108077D01*
X12279398Y-27150250D01*
X12279398Y-27150251D01*
X12272000Y-27187442D01*
X12272000Y-28012557D01*
X12279398Y-28049748D01*
X12279398Y-28049749D01*
X12307577Y-28091922D01*
X12331149Y-28107672D01*
X12349752Y-28120102D01*
X12386942Y-28127500D01*
X12386943Y-28127500D01*
X13212057Y-28127500D01*
X13212058Y-28127500D01*
X13249248Y-28120102D01*
X13291422Y-28091922D01*
X13319602Y-28049748D01*
X13327000Y-28012558D01*
X13327000Y-27935441D01*
X13345306Y-27891247D01*
X13389500Y-27872941D01*
X13396229Y-27873304D01*
X13546731Y-27889609D01*
X13588697Y-27912568D01*
X13602500Y-27951745D01*
X13602500Y-28028307D01*
X13609898Y-28065498D01*
X13609898Y-28065499D01*
X13638077Y-28107672D01*
X13666257Y-28126500D01*
X13680252Y-28135852D01*
X13717442Y-28143250D01*
X13717443Y-28143250D01*
X14282557Y-28143250D01*
X14282558Y-28143250D01*
X14319748Y-28135852D01*
X14361922Y-28107672D01*
X14390102Y-28065498D01*
X14397500Y-28028308D01*
X14397500Y-27437692D01*
X14390102Y-27400502D01*
X14372523Y-27374194D01*
X14361922Y-27358328D01*
X14352402Y-27351967D01*
X14325826Y-27312194D01*
X14335157Y-27265278D01*
X14352401Y-27248033D01*
X14361922Y-27241672D01*
X14390102Y-27199498D01*
X14397500Y-27162308D01*
X14397500Y-26571692D01*
X14390102Y-26534502D01*
X14390101Y-26534500D01*
X14361922Y-26492327D01*
X14319748Y-26464148D01*
X14282558Y-26456750D01*
X14282557Y-26456750D01*
X14270000Y-26456750D01*
X14225806Y-26438444D01*
X14207500Y-26394250D01*
X14207500Y-26158727D01*
X14207500Y-26158726D01*
X14175910Y-26082461D01*
X14117539Y-26024090D01*
X14041274Y-25992500D01*
X14041273Y-25992500D01*
X13555898Y-25992500D01*
X13511704Y-25974194D01*
X13493398Y-25930000D01*
X13505611Y-25892886D01*
X13564133Y-25813592D01*
X13564133Y-25813591D01*
X13594278Y-25727442D01*
X17772500Y-25727442D01*
X17772500Y-27552557D01*
X17779898Y-27589748D01*
X17779898Y-27589749D01*
X17808077Y-27631922D01*
X17822071Y-27641272D01*
X17850252Y-27660102D01*
X17887442Y-27667500D01*
X17887443Y-27667500D01*
X19112557Y-27667500D01*
X19112558Y-27667500D01*
X19149748Y-27660102D01*
X19191922Y-27631922D01*
X19220102Y-27589748D01*
X19227500Y-27552558D01*
X19227500Y-25727442D01*
X23372500Y-25727442D01*
X23372500Y-27552557D01*
X23379898Y-27589748D01*
X23379898Y-27589749D01*
X23408077Y-27631922D01*
X23422071Y-27641272D01*
X23450252Y-27660102D01*
X23487442Y-27667500D01*
X23487443Y-27667500D01*
X24712557Y-27667500D01*
X24712558Y-27667500D01*
X24749748Y-27660102D01*
X24791922Y-27631922D01*
X24820102Y-27589748D01*
X24827500Y-27552558D01*
X24827500Y-25727442D01*
X24820102Y-25690252D01*
X24820101Y-25690250D01*
X24791922Y-25648077D01*
X24749748Y-25619898D01*
X24712558Y-25612500D01*
X23487442Y-25612500D01*
X23468847Y-25616199D01*
X23450251Y-25619898D01*
X23450250Y-25619898D01*
X23408077Y-25648077D01*
X23379898Y-25690250D01*
X23379898Y-25690251D01*
X23372500Y-25727442D01*
X19227500Y-25727442D01*
X19220102Y-25690252D01*
X19220101Y-25690250D01*
X19191922Y-25648077D01*
X19149748Y-25619898D01*
X19112558Y-25612500D01*
X17887442Y-25612500D01*
X17868847Y-25616199D01*
X17850251Y-25619898D01*
X17850250Y-25619898D01*
X17808077Y-25648077D01*
X17779898Y-25690250D01*
X17779898Y-25690251D01*
X17772500Y-25727442D01*
X13594278Y-25727442D01*
X13602576Y-25703729D01*
X13609135Y-25684983D01*
X13609136Y-25684978D01*
X13612000Y-25654435D01*
X13612000Y-24927000D01*
X11808001Y-24927000D01*
X11808001Y-25654444D01*
X11810864Y-25684980D01*
X11810863Y-25684980D01*
X11855866Y-25813591D01*
X11855866Y-25813592D01*
X11914389Y-25892886D01*
X11925904Y-25939315D01*
X11901216Y-25980287D01*
X11864102Y-25992500D01*
X10985449Y-25992500D01*
X10941255Y-25974194D01*
X10922949Y-25930000D01*
X10935162Y-25892886D01*
X11002228Y-25802015D01*
X11002229Y-25802014D01*
X11044792Y-25680375D01*
X11047500Y-25651497D01*
X11047499Y-23948504D01*
X11047499Y-23948503D01*
X11047499Y-23948497D01*
X11046426Y-23937058D01*
X11044792Y-23919625D01*
X11002229Y-23797986D01*
X10993683Y-23786407D01*
X10977546Y-23764542D01*
X10925703Y-23694297D01*
X10825422Y-23620286D01*
X10800735Y-23579315D01*
X10812250Y-23532886D01*
X10853222Y-23508198D01*
X10862537Y-23507500D01*
X11976206Y-23507500D01*
X12020400Y-23525806D01*
X12038706Y-23570000D01*
X12020400Y-23614194D01*
X12013320Y-23620287D01*
X11936778Y-23676778D01*
X11855866Y-23786407D01*
X11855866Y-23786408D01*
X11810864Y-23915016D01*
X11810863Y-23915021D01*
X11808000Y-23945564D01*
X11808000Y-24673000D01*
X13611999Y-24673000D01*
X13611999Y-23945555D01*
X13609135Y-23915019D01*
X13609136Y-23915019D01*
X13564133Y-23786408D01*
X13564133Y-23786407D01*
X13483221Y-23676778D01*
X13406680Y-23620287D01*
X13381992Y-23579315D01*
X13393507Y-23532886D01*
X13434479Y-23508198D01*
X13443794Y-23507500D01*
X16091273Y-23507500D01*
X16091274Y-23507500D01*
X16167539Y-23475910D01*
X16225910Y-23417539D01*
X16257500Y-23341274D01*
X16257500Y-12737442D01*
X16802500Y-12737442D01*
X16802500Y-14262557D01*
X16809898Y-14299748D01*
X16809898Y-14299749D01*
X16838077Y-14341922D01*
X16866257Y-14360750D01*
X16880252Y-14370102D01*
X16917442Y-14377500D01*
X17015000Y-14377500D01*
X17059194Y-14395806D01*
X17077500Y-14440000D01*
X17077500Y-15479809D01*
X17076988Y-15487789D01*
X17073153Y-15517570D01*
X17075324Y-15525578D01*
X17077500Y-15541926D01*
X17077500Y-15550223D01*
X17077501Y-15550229D01*
X17088991Y-15577971D01*
X17091572Y-15585536D01*
X17099429Y-15614525D01*
X17104499Y-15621093D01*
X17112765Y-15635363D01*
X17115941Y-15643031D01*
X17137171Y-15664260D01*
X17142454Y-15670266D01*
X17173318Y-15710252D01*
X19534476Y-18769241D01*
X19547500Y-18807429D01*
X19547500Y-21795000D01*
X19529194Y-21839194D01*
X19490310Y-21855300D01*
X19490498Y-21857199D01*
X19487443Y-21857499D01*
X19450251Y-21864898D01*
X19450250Y-21864898D01*
X19408077Y-21893077D01*
X19379898Y-21935250D01*
X19379898Y-21935251D01*
X19372500Y-21972442D01*
X19372500Y-23547557D01*
X19379898Y-23584748D01*
X19379898Y-23584749D01*
X19408077Y-23626922D01*
X19436257Y-23645750D01*
X19450252Y-23655102D01*
X19487442Y-23662500D01*
X19487443Y-23662500D01*
X20112557Y-23662500D01*
X20112558Y-23662500D01*
X20149748Y-23655102D01*
X20191922Y-23626922D01*
X20220102Y-23584748D01*
X20227500Y-23547558D01*
X20227500Y-21972442D01*
X20372500Y-21972442D01*
X20372500Y-23547557D01*
X20379898Y-23584748D01*
X20379898Y-23584749D01*
X20408077Y-23626922D01*
X20436257Y-23645750D01*
X20450252Y-23655102D01*
X20487442Y-23662500D01*
X20487443Y-23662500D01*
X21112557Y-23662500D01*
X21112558Y-23662500D01*
X21149748Y-23655102D01*
X21191922Y-23626922D01*
X21220102Y-23584748D01*
X21227500Y-23547558D01*
X21227500Y-21972442D01*
X21220102Y-21935252D01*
X21220101Y-21935250D01*
X21191922Y-21893077D01*
X21149748Y-21864898D01*
X21112558Y-21857500D01*
X20487442Y-21857500D01*
X20468847Y-21861199D01*
X20450251Y-21864898D01*
X20450250Y-21864898D01*
X20408077Y-21893077D01*
X20379898Y-21935250D01*
X20379898Y-21935251D01*
X20372500Y-21972442D01*
X20227500Y-21972442D01*
X20220102Y-21935252D01*
X20220101Y-21935250D01*
X20191922Y-21893077D01*
X20149748Y-21864898D01*
X20112556Y-21857499D01*
X20109502Y-21857199D01*
X20109689Y-21855300D01*
X20070806Y-21839194D01*
X20052500Y-21795000D01*
X20052500Y-18720190D01*
X20053012Y-18712210D01*
X20056846Y-18682428D01*
X20056845Y-18682427D01*
X20054676Y-18674420D01*
X20052500Y-18658073D01*
X20052500Y-18649775D01*
X20041004Y-18622023D01*
X20038426Y-18614461D01*
X20030572Y-18585479D01*
X20030571Y-18585475D01*
X20025498Y-18578903D01*
X20017234Y-18564635D01*
X20014059Y-18556970D01*
X19992826Y-18535737D01*
X19987544Y-18529732D01*
X19717940Y-18180448D01*
X18204525Y-16219748D01*
X17595524Y-15430759D01*
X17582500Y-15392570D01*
X17582500Y-14440000D01*
X17600806Y-14395806D01*
X17645000Y-14377500D01*
X17742557Y-14377500D01*
X17742558Y-14377500D01*
X17779748Y-14370102D01*
X17821922Y-14341922D01*
X17850102Y-14299748D01*
X17857500Y-14262558D01*
X17857500Y-12737442D01*
X19342500Y-12737442D01*
X19342500Y-14262557D01*
X19349898Y-14299748D01*
X19349898Y-14299749D01*
X19378077Y-14341922D01*
X19406257Y-14360750D01*
X19420252Y-14370102D01*
X19457442Y-14377500D01*
X19555000Y-14377500D01*
X19599194Y-14395806D01*
X19617500Y-14440000D01*
X19617500Y-14976835D01*
X19616827Y-14985980D01*
X19612868Y-15012740D01*
X19615620Y-15023703D01*
X19617500Y-15038917D01*
X19617500Y-15050226D01*
X19627855Y-15075226D01*
X19630732Y-15083930D01*
X19637317Y-15110171D01*
X19637317Y-15110172D01*
X19644058Y-15119253D01*
X19651614Y-15132585D01*
X19655939Y-15143027D01*
X19655942Y-15143031D01*
X19675071Y-15162160D01*
X19681062Y-15169102D01*
X19846944Y-15392570D01*
X21535185Y-17666884D01*
X21547500Y-17704135D01*
X21547500Y-21795000D01*
X21529194Y-21839194D01*
X21490310Y-21855300D01*
X21490498Y-21857199D01*
X21487443Y-21857499D01*
X21450251Y-21864898D01*
X21450250Y-21864898D01*
X21408077Y-21893077D01*
X21379898Y-21935250D01*
X21379898Y-21935251D01*
X21372500Y-21972442D01*
X21372500Y-23547557D01*
X21379898Y-23584748D01*
X21379898Y-23584749D01*
X21408077Y-23626922D01*
X21436257Y-23645750D01*
X21450252Y-23655102D01*
X21487442Y-23662500D01*
X21487443Y-23662500D01*
X22112557Y-23662500D01*
X22112558Y-23662500D01*
X22149748Y-23655102D01*
X22191922Y-23626922D01*
X22220102Y-23584748D01*
X22227500Y-23547558D01*
X22227500Y-21972442D01*
X22220102Y-21935252D01*
X22220101Y-21935250D01*
X22191922Y-21893077D01*
X22149748Y-21864898D01*
X22112556Y-21857499D01*
X22109502Y-21857199D01*
X22109689Y-21855300D01*
X22070806Y-21839194D01*
X22052500Y-21795000D01*
X22052500Y-17623171D01*
X22053173Y-17614026D01*
X22057132Y-17587259D01*
X22054379Y-17576287D01*
X22052500Y-17561076D01*
X22052500Y-17549775D01*
X22052499Y-17549772D01*
X22042149Y-17524785D01*
X22039271Y-17516080D01*
X22032683Y-17489830D01*
X22032682Y-17489828D01*
X22025944Y-17480751D01*
X22018385Y-17467414D01*
X22014060Y-17456972D01*
X22014059Y-17456971D01*
X22014059Y-17456970D01*
X21994928Y-17437839D01*
X21988937Y-17430897D01*
X21892418Y-17300872D01*
X20711688Y-15710251D01*
X20134815Y-14933116D01*
X20122500Y-14895864D01*
X20122500Y-14440000D01*
X20140806Y-14395806D01*
X20185000Y-14377500D01*
X20282557Y-14377500D01*
X20282558Y-14377500D01*
X20319748Y-14370102D01*
X20361922Y-14341922D01*
X20390102Y-14299748D01*
X20397500Y-14262558D01*
X20397500Y-12737442D01*
X20390102Y-12700252D01*
X20390101Y-12700250D01*
X20361922Y-12658077D01*
X20319748Y-12629898D01*
X20282558Y-12622500D01*
X19457442Y-12622500D01*
X19438847Y-12626199D01*
X19420251Y-12629898D01*
X19420250Y-12629898D01*
X19378077Y-12658077D01*
X19349898Y-12700250D01*
X19349898Y-12700251D01*
X19342500Y-12737442D01*
X17857500Y-12737442D01*
X17850102Y-12700252D01*
X17850101Y-12700250D01*
X17821922Y-12658077D01*
X17779748Y-12629898D01*
X17742558Y-12622500D01*
X17742557Y-12622500D01*
X17645000Y-12622500D01*
X17600806Y-12604194D01*
X17582500Y-12560000D01*
X17582500Y-11815000D01*
X17600806Y-11770806D01*
X17645000Y-11752500D01*
X21415000Y-11752500D01*
X21459194Y-11770806D01*
X21477500Y-11815000D01*
X21477500Y-12560000D01*
X21459194Y-12604194D01*
X21415000Y-12622500D01*
X21317442Y-12622500D01*
X21298847Y-12626199D01*
X21280251Y-12629898D01*
X21280250Y-12629898D01*
X21238077Y-12658077D01*
X21209898Y-12700250D01*
X21209898Y-12700251D01*
X21202500Y-12737442D01*
X21202500Y-14262557D01*
X21209898Y-14299748D01*
X21209898Y-14299749D01*
X21238077Y-14341922D01*
X21266257Y-14360750D01*
X21280252Y-14370102D01*
X21317442Y-14377500D01*
X21317443Y-14377500D01*
X22142557Y-14377500D01*
X22142558Y-14377500D01*
X22179748Y-14370102D01*
X22221922Y-14341922D01*
X22250102Y-14299748D01*
X22257500Y-14262558D01*
X22257500Y-12737442D01*
X22250102Y-12700252D01*
X22250101Y-12700250D01*
X22221922Y-12658077D01*
X22179748Y-12629898D01*
X22142558Y-12622500D01*
X22142557Y-12622500D01*
X22045000Y-12622500D01*
X22000806Y-12604194D01*
X21982500Y-12560000D01*
X21982500Y-11449776D01*
X21982500Y-11449775D01*
X21944059Y-11356970D01*
X21873030Y-11285941D01*
X21780225Y-11247500D01*
X17380225Y-11247500D01*
X17279775Y-11247500D01*
X17242823Y-11262806D01*
X17186969Y-11285941D01*
X17115941Y-11356969D01*
X17115941Y-11356970D01*
X17078467Y-11447442D01*
X17077500Y-11449776D01*
X17077500Y-12560000D01*
X17059194Y-12604194D01*
X17015000Y-12622500D01*
X16917442Y-12622500D01*
X16898847Y-12626199D01*
X16880251Y-12629898D01*
X16880250Y-12629898D01*
X16838077Y-12658077D01*
X16809898Y-12700250D01*
X16809898Y-12700251D01*
X16802500Y-12737442D01*
X16257500Y-12737442D01*
X16257500Y-7264972D01*
X16778000Y-7264972D01*
X16786818Y-7309307D01*
X16786819Y-7309309D01*
X16820413Y-7359586D01*
X16870690Y-7393180D01*
X16870692Y-7393181D01*
X16915027Y-7401999D01*
X16915028Y-7402000D01*
X17203000Y-7402000D01*
X17457000Y-7402000D01*
X17744972Y-7402000D01*
X17744972Y-7401999D01*
X17789307Y-7393181D01*
X17789309Y-7393180D01*
X17839586Y-7359586D01*
X17873180Y-7309309D01*
X17873181Y-7309307D01*
X17881999Y-7264972D01*
X17882000Y-7264972D01*
X17882000Y-6627000D01*
X17457000Y-6627000D01*
X17457000Y-7402000D01*
X17203000Y-7402000D01*
X17203000Y-6627000D01*
X16778000Y-6627000D01*
X16778000Y-7264972D01*
X16257500Y-7264972D01*
X16257500Y-6788726D01*
X16225910Y-6712461D01*
X16167539Y-6654090D01*
X16091274Y-6622500D01*
X16091273Y-6622500D01*
X15690000Y-6622500D01*
X15645806Y-6604194D01*
X15627500Y-6560000D01*
X15627500Y-6367442D01*
X15621532Y-6337442D01*
X15620102Y-6330252D01*
X15620101Y-6330250D01*
X15591922Y-6288077D01*
X15549748Y-6259898D01*
X15531654Y-6256298D01*
X15491882Y-6229723D01*
X15482550Y-6182806D01*
X15509126Y-6143033D01*
X15531654Y-6133701D01*
X15549748Y-6130102D01*
X15591922Y-6101922D01*
X15620102Y-6059748D01*
X15627500Y-6022558D01*
X15627500Y-5830000D01*
X15645806Y-5785806D01*
X15690000Y-5767500D01*
X16172632Y-5767500D01*
X16185172Y-5768771D01*
X16198799Y-5771562D01*
X16213973Y-5768632D01*
X16225819Y-5767500D01*
X16241273Y-5767500D01*
X16241274Y-5767500D01*
X16254126Y-5762175D01*
X16266193Y-5758552D01*
X16279852Y-5755917D01*
X16292758Y-5747398D01*
X16303254Y-5741826D01*
X16317539Y-5735910D01*
X16318422Y-5735027D01*
X16778000Y-5735027D01*
X16778000Y-6373000D01*
X17203000Y-6373000D01*
X17457000Y-6373000D01*
X17882000Y-6373000D01*
X17882000Y-5735028D01*
X17881999Y-5735027D01*
X17873181Y-5690692D01*
X17873180Y-5690690D01*
X17839586Y-5640413D01*
X17789309Y-5606819D01*
X17789307Y-5606818D01*
X17744972Y-5598000D01*
X17457000Y-5598000D01*
X17457000Y-6373000D01*
X17203000Y-6373000D01*
X17203000Y-5598000D01*
X16915028Y-5598000D01*
X16870692Y-5606818D01*
X16870690Y-5606819D01*
X16820413Y-5640413D01*
X16786819Y-5690690D01*
X16786818Y-5690692D01*
X16778000Y-5735027D01*
X16318422Y-5735027D01*
X16327372Y-5726075D01*
X16337141Y-5718105D01*
X16364191Y-5700252D01*
X17246640Y-5117837D01*
X17281068Y-5107500D01*
X18373550Y-5107500D01*
X18385678Y-5108688D01*
X18387811Y-5109110D01*
X18400221Y-5111565D01*
X18400221Y-5111564D01*
X18400222Y-5111565D01*
X18407348Y-5110139D01*
X18414476Y-5108713D01*
X18426734Y-5107500D01*
X18441275Y-5107500D01*
X18441276Y-5107499D01*
X18454965Y-5101829D01*
X18466628Y-5098284D01*
X18481167Y-5095376D01*
X18493241Y-5087289D01*
X18504109Y-5081472D01*
X18517539Y-5075910D01*
X18528021Y-5065426D01*
X18537432Y-5057694D01*
X18549756Y-5049442D01*
X18557819Y-5037345D01*
X18565623Y-5027825D01*
X18575910Y-5017539D01*
X18581583Y-5003840D01*
X18587318Y-4993097D01*
X18990109Y-4388911D01*
X19029854Y-4362295D01*
X19076778Y-4371577D01*
X19086507Y-4378078D01*
X19104500Y-4390101D01*
X19104502Y-4390102D01*
X19141692Y-4397500D01*
X19141693Y-4397500D01*
X19732307Y-4397500D01*
X19732308Y-4397500D01*
X19769498Y-4390102D01*
X19811672Y-4361922D01*
X19818032Y-4352402D01*
X19857806Y-4325826D01*
X19904722Y-4335157D01*
X19921964Y-4352398D01*
X19928328Y-4361922D01*
X19928329Y-4361923D01*
X19931748Y-4367039D01*
X19929748Y-4368375D01*
X19944490Y-4403987D01*
X19941328Y-4423600D01*
X19676105Y-5225439D01*
X19674511Y-5229727D01*
X19662500Y-5258727D01*
X19661299Y-5264766D01*
X19661173Y-5264741D01*
X19660665Y-5267897D01*
X19660791Y-5267913D01*
X19660035Y-5274022D01*
X19662332Y-5305308D01*
X19662500Y-5309883D01*
X19662500Y-5560000D01*
X19644194Y-5604194D01*
X19600000Y-5622500D01*
X19457442Y-5622500D01*
X19438847Y-5626199D01*
X19420251Y-5629898D01*
X19420250Y-5629898D01*
X19378077Y-5658077D01*
X19349898Y-5700250D01*
X19349898Y-5700251D01*
X19342500Y-5737442D01*
X19342500Y-7262557D01*
X19349898Y-7299748D01*
X19349898Y-7299749D01*
X19378077Y-7341922D01*
X19404514Y-7359586D01*
X19420252Y-7370102D01*
X19457442Y-7377500D01*
X19457443Y-7377500D01*
X20282557Y-7377500D01*
X20282558Y-7377500D01*
X20319748Y-7370102D01*
X20361922Y-7341922D01*
X20390102Y-7299748D01*
X20397020Y-7264972D01*
X21178000Y-7264972D01*
X21186818Y-7309307D01*
X21186819Y-7309309D01*
X21220413Y-7359586D01*
X21270690Y-7393180D01*
X21270692Y-7393181D01*
X21315027Y-7401999D01*
X21315028Y-7402000D01*
X21603000Y-7402000D01*
X21857000Y-7402000D01*
X22144972Y-7402000D01*
X22144972Y-7401999D01*
X22189307Y-7393181D01*
X22189309Y-7393180D01*
X22239586Y-7359586D01*
X22273180Y-7309309D01*
X22273181Y-7309307D01*
X22281999Y-7264972D01*
X22282000Y-7264972D01*
X22282000Y-6627000D01*
X21857000Y-6627000D01*
X21857000Y-7402000D01*
X21603000Y-7402000D01*
X21603000Y-6627000D01*
X21178000Y-6627000D01*
X21178000Y-7264972D01*
X20397020Y-7264972D01*
X20397500Y-7262558D01*
X20397500Y-5737442D01*
X20397020Y-5735027D01*
X21178000Y-5735027D01*
X21178000Y-6373000D01*
X21603000Y-6373000D01*
X21857000Y-6373000D01*
X22282000Y-6373000D01*
X22282000Y-5735028D01*
X22281999Y-5735027D01*
X22273181Y-5690692D01*
X22273180Y-5690690D01*
X22239586Y-5640413D01*
X22189309Y-5606819D01*
X22189307Y-5606818D01*
X22144972Y-5598000D01*
X21857000Y-5598000D01*
X21857000Y-6373000D01*
X21603000Y-6373000D01*
X21603000Y-5598000D01*
X21315028Y-5598000D01*
X21270692Y-5606818D01*
X21270690Y-5606819D01*
X21220413Y-5640413D01*
X21186819Y-5690690D01*
X21186818Y-5690692D01*
X21178000Y-5735027D01*
X20397020Y-5735027D01*
X20390102Y-5700252D01*
X20390101Y-5700250D01*
X20361922Y-5658077D01*
X20319748Y-5629898D01*
X20282558Y-5622500D01*
X20282557Y-5622500D01*
X20140000Y-5622500D01*
X20095806Y-5604194D01*
X20077500Y-5560000D01*
X20077500Y-5343492D01*
X20080662Y-5323865D01*
X20099175Y-5267897D01*
X20352657Y-4501554D01*
X20372894Y-4440373D01*
X20404152Y-4404163D01*
X20432232Y-4397500D01*
X20598307Y-4397500D01*
X20598308Y-4397500D01*
X20635498Y-4390102D01*
X20677672Y-4361922D01*
X20705852Y-4319748D01*
X20713250Y-4282558D01*
X20713250Y-3717442D01*
X20705852Y-3680252D01*
X20695555Y-3664841D01*
X20677672Y-3638077D01*
X20635498Y-3609898D01*
X20598308Y-3602500D01*
X20007692Y-3602500D01*
X19989097Y-3606199D01*
X19970501Y-3609898D01*
X19970500Y-3609898D01*
X19928328Y-3638077D01*
X19921967Y-3647598D01*
X19882193Y-3674173D01*
X19835276Y-3664841D01*
X19818033Y-3647598D01*
X19811671Y-3638077D01*
X19769498Y-3609898D01*
X19732308Y-3602500D01*
X19141692Y-3602500D01*
X19123097Y-3606199D01*
X19104501Y-3609898D01*
X19104500Y-3609898D01*
X19062327Y-3638077D01*
X19034148Y-3680250D01*
X19034148Y-3680251D01*
X19026750Y-3717442D01*
X19026750Y-3730000D01*
X19008444Y-3774194D01*
X18964250Y-3792500D01*
X18958726Y-3792500D01*
X18958724Y-3792500D01*
X18958722Y-3792501D01*
X18945025Y-3798174D01*
X18933370Y-3801717D01*
X18918832Y-3804625D01*
X18906751Y-3812715D01*
X18895894Y-3818525D01*
X18882462Y-3824088D01*
X18871973Y-3834576D01*
X18862564Y-3842305D01*
X18850245Y-3850555D01*
X18850244Y-3850556D01*
X18842178Y-3862655D01*
X18834376Y-3872173D01*
X18824090Y-3882460D01*
X18818416Y-3896158D01*
X18812678Y-3906905D01*
X18307504Y-4664669D01*
X18267758Y-4691286D01*
X18255501Y-4692500D01*
X17227362Y-4692500D01*
X17214823Y-4691229D01*
X17201200Y-4688439D01*
X17201199Y-4688439D01*
X17193374Y-4689949D01*
X17186029Y-4691367D01*
X17174185Y-4692500D01*
X17158726Y-4692500D01*
X17158725Y-4692500D01*
X17158720Y-4692501D01*
X17145867Y-4697824D01*
X17133807Y-4701445D01*
X17120150Y-4704082D01*
X17120146Y-4704083D01*
X17107241Y-4712600D01*
X17096738Y-4718175D01*
X17082462Y-4724088D01*
X17082459Y-4724090D01*
X17072623Y-4733926D01*
X17062860Y-4741892D01*
X16153360Y-5342163D01*
X16118932Y-5352500D01*
X15690000Y-5352500D01*
X15645806Y-5334194D01*
X15627500Y-5290000D01*
X15627500Y-5097442D01*
X15624323Y-5081472D01*
X15620102Y-5060252D01*
X15604799Y-5037349D01*
X15591922Y-5018077D01*
X15549748Y-4989898D01*
X15531654Y-4986298D01*
X15491882Y-4959723D01*
X15482550Y-4912806D01*
X15509126Y-4873033D01*
X15531654Y-4863701D01*
X15549748Y-4860102D01*
X15591922Y-4831922D01*
X15620102Y-4789748D01*
X15627500Y-4752558D01*
X15627500Y-4560000D01*
X15645806Y-4515806D01*
X15690000Y-4497500D01*
X16574823Y-4497500D01*
X16586379Y-4498578D01*
X16602196Y-4501554D01*
X16615180Y-4498830D01*
X16628009Y-4497500D01*
X16641273Y-4497500D01*
X16641274Y-4497500D01*
X16656148Y-4491338D01*
X16667226Y-4487915D01*
X16682987Y-4484610D01*
X16693948Y-4477119D01*
X16705281Y-4470987D01*
X16717539Y-4465910D01*
X16728925Y-4454522D01*
X16737856Y-4447117D01*
X16751144Y-4438038D01*
X16758400Y-4426929D01*
X16766532Y-4416916D01*
X16767642Y-4415806D01*
X16775910Y-4407539D01*
X16782073Y-4392656D01*
X16787483Y-4382407D01*
X17993801Y-2535818D01*
X18033296Y-2508831D01*
X18046125Y-2507500D01*
X22188878Y-2507500D01*
X22232871Y-2525605D01*
X23183994Y-3468160D01*
X23202499Y-3512270D01*
X23202500Y-3512553D01*
X23202500Y-3540000D01*
X23184194Y-3584194D01*
X23140000Y-3602500D01*
X23111692Y-3602500D01*
X23093097Y-3606199D01*
X23074501Y-3609898D01*
X23074500Y-3609898D01*
X23032327Y-3638077D01*
X23004148Y-3680250D01*
X23004148Y-3680251D01*
X22996750Y-3717442D01*
X22996750Y-4282557D01*
X23004148Y-4319748D01*
X23004148Y-4319749D01*
X23032327Y-4361922D01*
X23046779Y-4371578D01*
X23074502Y-4390102D01*
X23111692Y-4397500D01*
X23111693Y-4397500D01*
X23702307Y-4397500D01*
X23702308Y-4397500D01*
X23739498Y-4390102D01*
X23781672Y-4361922D01*
X23788032Y-4352402D01*
X23827806Y-4325826D01*
X23874722Y-4335157D01*
X23891966Y-4352401D01*
X23898328Y-4361922D01*
X23940502Y-4390102D01*
X23977692Y-4397500D01*
X24000000Y-4397500D01*
X24044194Y-4415806D01*
X24062500Y-4460000D01*
X24062500Y-5560000D01*
X24044194Y-5604194D01*
X24000000Y-5622500D01*
X23857442Y-5622500D01*
X23838847Y-5626199D01*
X23820251Y-5629898D01*
X23820250Y-5629898D01*
X23778077Y-5658077D01*
X23749898Y-5700250D01*
X23749898Y-5700251D01*
X23742500Y-5737442D01*
X23742500Y-7262557D01*
X23749898Y-7299748D01*
X23749898Y-7299749D01*
X23778077Y-7341922D01*
X23804514Y-7359586D01*
X23820252Y-7370102D01*
X23857442Y-7377500D01*
X23857443Y-7377500D01*
X24682557Y-7377500D01*
X24682558Y-7377500D01*
X24719748Y-7370102D01*
X24761922Y-7341922D01*
X24790102Y-7299748D01*
X24797500Y-7262558D01*
X24797500Y-5737442D01*
X24790102Y-5700252D01*
X24790101Y-5700250D01*
X24761922Y-5658077D01*
X24719748Y-5629898D01*
X24682558Y-5622500D01*
X24682557Y-5622500D01*
X24540000Y-5622500D01*
X24495806Y-5604194D01*
X24477500Y-5560000D01*
X24477500Y-4460000D01*
X24495806Y-4415806D01*
X24540000Y-4397500D01*
X24568307Y-4397500D01*
X24568308Y-4397500D01*
X24605498Y-4390102D01*
X24647672Y-4361922D01*
X24675852Y-4319748D01*
X24683250Y-4282558D01*
X24683250Y-3717442D01*
X24675852Y-3680252D01*
X24665555Y-3664841D01*
X24647672Y-3638077D01*
X24605498Y-3609898D01*
X24568308Y-3602500D01*
X23977692Y-3602500D01*
X23959097Y-3606199D01*
X23940501Y-3609898D01*
X23940500Y-3609898D01*
X23898328Y-3638077D01*
X23891967Y-3647598D01*
X23852193Y-3674173D01*
X23805276Y-3664841D01*
X23788033Y-3647598D01*
X23781671Y-3638077D01*
X23739498Y-3609898D01*
X23702308Y-3602500D01*
X23702307Y-3602500D01*
X23680000Y-3602500D01*
X23635806Y-3584194D01*
X23617500Y-3540000D01*
X23617500Y-3447304D01*
X23617705Y-3445167D01*
X23617683Y-3440336D01*
X23617684Y-3440335D01*
X23617500Y-3399614D01*
X23617500Y-3358726D01*
X23617500Y-3358719D01*
X23617434Y-3358395D01*
X23617314Y-3357795D01*
X23601531Y-3320173D01*
X23601422Y-3319911D01*
X23585910Y-3282461D01*
X23585908Y-3282459D01*
X23585907Y-3282456D01*
X23585744Y-3282213D01*
X23585590Y-3281983D01*
X23585381Y-3281670D01*
X23556404Y-3252954D01*
X23556204Y-3252755D01*
X23524138Y-3220689D01*
X23522468Y-3219324D01*
X22446379Y-2152930D01*
X22417531Y-2124082D01*
X22417165Y-2123840D01*
X22416922Y-2123678D01*
X22416750Y-2123563D01*
X22379148Y-2108186D01*
X22378889Y-2108079D01*
X22341264Y-2092495D01*
X22341069Y-2092458D01*
X22340805Y-2092406D01*
X22340351Y-2092315D01*
X22299971Y-2092498D01*
X22299832Y-2092499D01*
X22299553Y-2092500D01*
X17925179Y-2092500D01*
X17913623Y-2091422D01*
X17911154Y-2090957D01*
X17897805Y-2088445D01*
X17897803Y-2088446D01*
X17889782Y-2090128D01*
X17884819Y-2091169D01*
X17871991Y-2092500D01*
X17858722Y-2092500D01*
X17843853Y-2098659D01*
X17832774Y-2102083D01*
X17817014Y-2105389D01*
X17817012Y-2105390D01*
X17806056Y-2112876D01*
X17794720Y-2119011D01*
X17782461Y-2124089D01*
X17782459Y-2124091D01*
X17771071Y-2135477D01*
X17762145Y-2142881D01*
X17748854Y-2151963D01*
X17741597Y-2163071D01*
X17733475Y-2173073D01*
X17724090Y-2182459D01*
X17724088Y-2182461D01*
X17717931Y-2197328D01*
X17712514Y-2207592D01*
X16506200Y-4054182D01*
X16466704Y-4081169D01*
X16453875Y-4082500D01*
X15690000Y-4082500D01*
X15645806Y-4064194D01*
X15627500Y-4020000D01*
X15627500Y-3862500D01*
X15645806Y-3818306D01*
X15690000Y-3800000D01*
X16500000Y-3800000D01*
X16500000Y-363000D01*
X16518306Y-318806D01*
X16562500Y-300500D01*
X26152406Y-300500D01*
X26196490Y-300500D01*
X26203487Y-300893D01*
G37*
%TD.AperFunction*%
%TD*%
M02*
