%TF.GenerationSoftware,KiCad,Pcbnew,10.0.6*%
%TF.CreationDate,2026-10-03T23:17:08+02:00*%
%TF.ProjectId,openrz67-nrf,6f70656e-727a-4363-972d-6e72662e6b69,A*%
%TF.SameCoordinates,Original*%
%TF.FileFunction,Legend,Top*%
%TF.FilePolarity,Positive*%
%FSLAX46Y46*%
G04 Gerber Fmt 4.6, Leading zero omitted, Abs format (unit mm)*
G04 Created by KiCad (PCBNEW 10.0.6) date 2026-10-03 23:17:08*
%MOMM*%
%LPD*%
G01*
G04 APERTURE LIST*
G04 Aperture macros list*
%AMRoundRect*
0 Rectangle with rounded corners*
0 $1 Rounding radius*
0 $2 $3 $4 $5 $6 $7 $8 $9 X,Y pos of 4 corners*
0 Add a 4 corners polygon primitive as box body*
4,1,4,$2,$3,$4,$5,$6,$7,$8,$9,$2,$3,0*
0 Add four circle primitives for the rounded corners*
1,1,$1+$1,$2,$3*
1,1,$1+$1,$4,$5*
1,1,$1+$1,$6,$7*
1,1,$1+$1,$8,$9*
0 Add four rect primitives between the rounded corners*
20,1,$1+$1,$2,$3,$4,$5,0*
20,1,$1+$1,$4,$5,$6,$7,0*
20,1,$1+$1,$6,$7,$8,$9,0*
20,1,$1+$1,$8,$9,$2,$3,0*%
G04 Aperture macros list end*
%ADD10C,0.254000*%
%ADD11C,0.150000*%
%ADD12C,0.060000*%
%ADD13C,0.250000*%
%ADD14C,0.152000*%
%ADD15C,0.200000*%
%ADD16RoundRect,0.051000X-0.400000X-0.850000X0.400000X-0.850000X0.400000X0.850000X-0.400000X0.850000X0*%
%ADD17RoundRect,0.051000X-0.864000X0.742500X-0.864000X-0.742500X0.864000X-0.742500X0.864000X0.742500X0*%
%ADD18RoundRect,0.351000X-0.450000X-0.800000X0.450000X-0.800000X0.450000X0.800000X-0.450000X0.800000X0*%
%ADD19RoundRect,0.051000X-1.000000X0.450000X-1.000000X-0.450000X1.000000X-0.450000X1.000000X0.450000X0*%
%ADD20RoundRect,0.051000X-0.450000X-1.000000X0.450000X-1.000000X0.450000X1.000000X-0.450000X1.000000X0*%
%ADD21RoundRect,0.051000X-0.450000X-0.450000X0.450000X-0.450000X0.450000X0.450000X-0.450000X0.450000X0*%
%ADD22RoundRect,0.051000X1.000000X-0.450000X1.000000X0.450000X-1.000000X0.450000X-1.000000X-0.450000X0*%
%ADD23RoundRect,0.051000X0.450000X-0.450000X0.450000X0.450000X-0.450000X0.450000X-0.450000X-0.450000X0*%
%ADD24RoundRect,0.051000X-0.282750X-0.270000X0.282750X-0.270000X0.282750X0.270000X-0.282750X0.270000X0*%
%ADD25RoundRect,0.051000X-0.270000X0.282750X-0.270000X-0.282750X0.270000X-0.282750X0.270000X0.282750X0*%
%ADD26RoundRect,0.051000X0.400000X-0.750000X0.400000X0.750000X-0.400000X0.750000X-0.400000X-0.750000X0*%
%ADD27RoundRect,0.051000X-0.300000X-0.775000X0.300000X-0.775000X0.300000X0.775000X-0.300000X0.775000X0*%
%ADD28RoundRect,0.051000X-0.600000X-0.900000X0.600000X-0.900000X0.600000X0.900000X-0.600000X0.900000X0*%
%ADD29RoundRect,0.051000X-0.395000X-0.270000X0.395000X-0.270000X0.395000X0.270000X-0.395000X0.270000X0*%
%ADD30RoundRect,0.051000X0.400000X-0.400000X0.400000X0.400000X-0.400000X0.400000X-0.400000X-0.400000X0*%
G04 APERTURE END LIST*
%TO.C,SW1*%
D10*
X4500000Y-26350000D02*
X7500000Y-26350000D01*
X4500000Y-26350000D02*
X7500000Y-26350000D01*
X4500000Y-26519000D02*
X4500000Y-26350000D01*
X4500000Y-28850000D02*
X4500000Y-28687000D01*
X4500000Y-28850000D02*
X7500000Y-28850000D01*
X7500000Y-26350000D02*
X7500000Y-26519000D01*
X7500000Y-28681000D02*
X7500000Y-28850000D01*
X7500000Y-28850000D02*
X4500000Y-28850000D01*
X6800000Y-27600000D02*
G75*
G02*
X5200000Y-27600000I-800000J0D01*
G01*
X5200000Y-27600000D02*
G75*
G02*
X6800000Y-27600000I800000J0D01*
G01*
%TO.C,C1*%
D11*
X24510000Y-18870000D02*
X24510000Y-17390000D01*
X24510000Y-20730000D02*
X24510000Y-22210000D01*
X24660000Y-17240000D02*
X26540000Y-17240000D01*
X24660000Y-22360000D02*
X26540000Y-22360000D01*
X26690000Y-17390000D02*
X26690000Y-18870000D01*
X26690000Y-22210000D02*
X26690000Y-20730000D01*
X24510000Y-17390000D02*
G75*
G02*
X24660000Y-17240000I150000J0D01*
G01*
X24660000Y-22360000D02*
G75*
G02*
X24510000Y-22210000I0J150000D01*
G01*
X26540000Y-17240000D02*
G75*
G02*
X26690000Y-17390000I0J-150000D01*
G01*
X26690000Y-22210000D02*
G75*
G02*
X26540000Y-22360000I-150000J0D01*
G01*
D12*
X24830000Y-18200000D02*
G75*
G02*
X24770000Y-18200000I-30000J0D01*
G01*
X24770000Y-18200000D02*
G75*
G02*
X24830000Y-18200000I30000J0D01*
G01*
%TO.C,U1*%
D13*
X1500000Y-300000D02*
X14500000Y-300000D01*
X1500000Y-3650000D02*
X1500000Y-300000D01*
X1500000Y-4920000D02*
X1500000Y-4920000D01*
X1500000Y-6190000D02*
X1500000Y-6190000D01*
X1500000Y-7460000D02*
X1500000Y-7460000D01*
X1500000Y-8730000D02*
X1500000Y-8730000D01*
X1500000Y-10000000D02*
X1500000Y-10000000D01*
X1500000Y-11270000D02*
X1500000Y-11270000D01*
X1500000Y-12540000D02*
X1500000Y-12540000D01*
X1500000Y-13810000D02*
X1500000Y-13810000D01*
X1500000Y-15080000D02*
X1500000Y-15080000D01*
X1500000Y-18300000D02*
X1500000Y-16350000D01*
X2920000Y-900000D02*
X13080000Y-900000D01*
X2920000Y-3060000D02*
X2920000Y-900000D01*
X2920000Y-18300000D02*
X1500000Y-18300000D01*
X4190000Y-18300000D02*
X4190000Y-18300000D01*
X5460000Y-18300000D02*
X5460000Y-18300000D01*
X6730000Y-18300000D02*
X6730000Y-18300000D01*
X8000000Y-18300000D02*
X8000000Y-18300000D01*
X9270000Y-18300000D02*
X9270000Y-18300000D01*
X10540000Y-1660000D02*
X11940000Y-1660000D01*
X10540000Y-2170000D02*
X10540000Y-1660000D01*
X10540000Y-18300000D02*
X10540000Y-18300000D01*
X11810000Y-18300000D02*
X11810000Y-18300000D01*
X11940000Y-1660000D02*
X11940000Y-2170000D01*
X11940000Y-2170000D02*
X10540000Y-2170000D01*
X13080000Y-900000D02*
X13080000Y-3060000D01*
X13080000Y-3060000D02*
X2920000Y-3060000D01*
X14500000Y-3650000D02*
X14500000Y-300000D01*
X14500000Y-4920000D02*
X14500000Y-4920000D01*
X14500000Y-6190000D02*
X14500000Y-6190000D01*
X14500000Y-7460000D02*
X14500000Y-7460000D01*
X14500000Y-8730000D02*
X14500000Y-8730000D01*
X14500000Y-10000000D02*
X14500000Y-10000000D01*
X14500000Y-11270000D02*
X14500000Y-11270000D01*
X14500000Y-12540000D02*
X14500000Y-12540000D01*
X14500000Y-13810000D02*
X14500000Y-13810000D01*
X14500000Y-15080000D02*
X14500000Y-15080000D01*
X14500000Y-18300000D02*
X13080000Y-18300000D01*
X14500000Y-18300000D02*
X14500000Y-16350000D01*
X1130000Y-3430000D02*
G75*
G02*
X890000Y-3430000I-120000J0D01*
G01*
X890000Y-3430000D02*
G75*
G02*
X1130000Y-3430000I120000J0D01*
G01*
D12*
X1530000Y-320000D02*
G75*
G02*
X1470000Y-320000I-30000J0D01*
G01*
X1470000Y-320000D02*
G75*
G02*
X1530000Y-320000I30000J0D01*
G01*
%TO.C,U3*%
D14*
X21200000Y-7700000D02*
X24800000Y-7700000D01*
X21200000Y-12300000D02*
X21200000Y-7700000D01*
X21200000Y-12300000D02*
X24800000Y-12300000D01*
X24800000Y-12300000D02*
X24800000Y-7700000D01*
D15*
X25300000Y-6500000D02*
G75*
G02*
X25100000Y-6500000I-100000J0D01*
G01*
X25100000Y-6500000D02*
G75*
G02*
X25300000Y-6500000I100000J0D01*
G01*
%TO.C,J1*%
D13*
X18980000Y-22900000D02*
X18980000Y-25500000D01*
X19980000Y-27160000D02*
X23880000Y-27160000D01*
X20060000Y-22900000D02*
X18980000Y-22900000D01*
X24040000Y-22900000D02*
X24960000Y-22900000D01*
X24960000Y-22900000D02*
X24960000Y-25510000D01*
D12*
X19030000Y-22240000D02*
G75*
G02*
X18970000Y-22240000I-30000J0D01*
G01*
X18970000Y-22240000D02*
G75*
G02*
X19030000Y-22240000I30000J0D01*
G01*
D13*
X19630000Y-23390000D02*
G75*
G02*
X19370000Y-23390000I-130000J0D01*
G01*
X19370000Y-23390000D02*
G75*
G02*
X19630000Y-23390000I130000J0D01*
G01*
%TO.C,D1*%
D11*
X8910500Y-27145500D02*
X9210500Y-26845500D01*
X8910500Y-27246000D02*
X8910500Y-27145500D01*
X8910500Y-27246000D02*
X8910500Y-27946000D01*
X8910500Y-27946000D02*
X8910500Y-28046000D01*
X8910500Y-28046000D02*
X9210500Y-28346000D01*
X10260500Y-26845500D02*
X9210500Y-26845500D01*
X10260500Y-28346000D02*
X9210500Y-28346000D01*
X10610500Y-27923500D02*
X10280500Y-27593500D01*
X10620500Y-27243500D02*
X10620500Y-27253500D01*
X10620500Y-27243500D02*
X10620500Y-27923500D01*
X10620500Y-27253500D02*
X10280500Y-27593500D01*
X10620500Y-27593500D02*
X10280500Y-27593500D01*
X10620500Y-27923500D02*
X10610500Y-27923500D01*
X10640500Y-26843500D02*
X11790500Y-26843500D01*
X10640500Y-28343500D02*
X11790500Y-28343500D01*
X11790500Y-26843500D02*
X11790500Y-28323500D01*
%TO.C,U2*%
D14*
X16800000Y-7700000D02*
X20400000Y-7700000D01*
X16800000Y-12300000D02*
X16800000Y-7700000D01*
X16800000Y-12300000D02*
X20400000Y-12300000D01*
X20400000Y-12300000D02*
X20400000Y-7700000D01*
D15*
X20900000Y-6500000D02*
G75*
G02*
X20700000Y-6500000I-100000J0D01*
G01*
X20700000Y-6500000D02*
G75*
G02*
X20900000Y-6500000I100000J0D01*
G01*
%TD*%
%LPC*%
D16*
%TO.C,SW1*%
X4300000Y-27600000D03*
X7700000Y-27600000D03*
%TD*%
D17*
%TO.C,C1*%
X25600000Y-18210000D03*
X25600000Y-21390000D03*
%TD*%
D18*
%TO.C,J2*%
X5090000Y-24800000D03*
X7630000Y-24800000D03*
X10170000Y-24800000D03*
X12710000Y-24800000D03*
%TD*%
D19*
%TO.C,U1*%
X1500000Y-4290000D03*
X1500000Y-5560000D03*
X1500000Y-6800000D03*
X1500000Y-8100000D03*
X1500000Y-9370000D03*
X1500000Y-10640000D03*
X1500000Y-11910000D03*
X1500000Y-13180000D03*
X1500000Y-14450000D03*
X1500000Y-15720000D03*
D20*
X3550000Y-18310000D03*
D21*
X4190000Y-16210000D03*
D20*
X4820000Y-18310000D03*
D21*
X5460000Y-16210000D03*
D20*
X6090000Y-18310000D03*
D21*
X6730000Y-16210000D03*
D20*
X7360000Y-18310000D03*
D21*
X8000000Y-16210000D03*
D20*
X8630000Y-18310000D03*
D21*
X9270000Y-16210000D03*
D20*
X9900000Y-18310000D03*
D21*
X10540000Y-16210000D03*
D20*
X11170000Y-18310000D03*
D21*
X11810000Y-16210000D03*
D20*
X12440000Y-18310000D03*
D22*
X14500000Y-15720000D03*
X14500000Y-14450000D03*
D23*
X12410000Y-13810000D03*
D22*
X14500000Y-13180000D03*
D23*
X12410000Y-12540000D03*
D22*
X14500000Y-11910000D03*
D23*
X12410000Y-11270000D03*
D22*
X14500000Y-10640000D03*
D23*
X12410000Y-10000000D03*
D22*
X14500000Y-9370000D03*
D23*
X12410000Y-8730000D03*
D22*
X14500000Y-8100000D03*
D23*
X12410000Y-7460000D03*
D22*
X14500000Y-6830000D03*
D23*
X12410000Y-6190000D03*
D22*
X14500000Y-5560000D03*
D23*
X12400000Y-4920000D03*
D22*
X14500000Y-4290000D03*
%TD*%
D24*
%TO.C,R1*%
X19437000Y-4000000D03*
X20303000Y-4000000D03*
%TD*%
D25*
%TO.C,R3*%
X12400000Y-26867000D03*
X12400000Y-27733000D03*
%TD*%
D24*
%TO.C,R2*%
X23407000Y-4000000D03*
X24273000Y-4000000D03*
%TD*%
D26*
%TO.C,U3*%
X24270000Y-6500000D03*
X21730000Y-6500000D03*
X21730000Y-13500000D03*
X24270000Y-13500000D03*
%TD*%
D27*
%TO.C,J1*%
X20500000Y-22760000D03*
X21500000Y-22760000D03*
X22500000Y-22760000D03*
X23500000Y-22760000D03*
D28*
X24800000Y-26640000D03*
X19200000Y-26640000D03*
%TD*%
D29*
%TO.C,C2*%
X8725000Y-20300000D03*
X9815000Y-20300000D03*
%TD*%
D30*
%TO.C,D1*%
X9600500Y-27600000D03*
X11199500Y-27600000D03*
%TD*%
D26*
%TO.C,U2*%
X19870000Y-6500000D03*
X17330000Y-6500000D03*
X17330000Y-13500000D03*
X19870000Y-13500000D03*
%TD*%
%LPD*%
M02*
