%TF.GenerationSoftware,KiCad,Pcbnew,10.0.6*%
%TF.CreationDate,2026-10-04T21:05:11+02:00*%
%TF.ProjectId,openrz67-nrf,6f70656e-727a-4363-972d-6e72662e6b69,A*%
%TF.SameCoordinates,Original*%
%TF.FileFunction,Legend,Bot*%
%TF.FilePolarity,Positive*%
%FSLAX46Y46*%
G04 Gerber Fmt 4.6, Leading zero omitted, Abs format (unit mm)*
G04 Created by KiCad (PCBNEW 10.0.6) date 2026-10-04 21:05:11*
%MOMM*%
%LPD*%
G01*
G04 APERTURE LIST*
G04 Aperture macros list*
%AMRoundRect*
0 Rectangle with rounded corners*
0 $1 Rounding radius*
0 $2 $3 $4 $5 $6 $7 $8 $9 X,Y pos of 4 corners*
0 Add a 4 corners polygon primitive as box body*
4,1,4,$2,$3,$4,$5,$6,$7,$8,$9,$2,$3,0*
0 Add four circle primitives for the rounded corners*
1,1,$1+$1,$2,$3*
1,1,$1+$1,$4,$5*
1,1,$1+$1,$6,$7*
1,1,$1+$1,$8,$9*
0 Add four rect primitives between the rounded corners*
20,1,$1+$1,$2,$3,$4,$5,0*
20,1,$1+$1,$4,$5,$6,$7,0*
20,1,$1+$1,$6,$7,$8,$9,0*
20,1,$1+$1,$8,$9,$2,$3,0*%
G04 Aperture macros list end*
%ADD10C,0.180000*%
%ADD11C,0.250000*%
%ADD12C,0.060000*%
%ADD13RoundRect,0.051000X-1.500000X-1.750000X1.500000X-1.750000X1.500000X1.750000X-1.500000X1.750000X0*%
%ADD14RoundRect,0.051000X-1.500000X-2.500000X1.500000X-2.500000X1.500000X2.500000X-1.500000X2.500000X0*%
%ADD15C,10.102000*%
G04 APERTURE END LIST*
D10*
X22300000Y-4431497D02*
X22357143Y-4488640D01*
X22357143Y-4488640D02*
X22528571Y-4545782D01*
X22528571Y-4545782D02*
X22642857Y-4545782D01*
X22642857Y-4545782D02*
X22814286Y-4488640D01*
X22814286Y-4488640D02*
X22928571Y-4374354D01*
X22928571Y-4374354D02*
X22985714Y-4260068D01*
X22985714Y-4260068D02*
X23042857Y-4031497D01*
X23042857Y-4031497D02*
X23042857Y-3860068D01*
X23042857Y-3860068D02*
X22985714Y-3631497D01*
X22985714Y-3631497D02*
X22928571Y-3517211D01*
X22928571Y-3517211D02*
X22814286Y-3402925D01*
X22814286Y-3402925D02*
X22642857Y-3345782D01*
X22642857Y-3345782D02*
X22528571Y-3345782D01*
X22528571Y-3345782D02*
X22357143Y-3402925D01*
X22357143Y-3402925D02*
X22300000Y-3460068D01*
X21100000Y-4545782D02*
X21500000Y-3974354D01*
X21785714Y-4545782D02*
X21785714Y-3345782D01*
X21785714Y-3345782D02*
X21328571Y-3345782D01*
X21328571Y-3345782D02*
X21214286Y-3402925D01*
X21214286Y-3402925D02*
X21157143Y-3460068D01*
X21157143Y-3460068D02*
X21100000Y-3574354D01*
X21100000Y-3574354D02*
X21100000Y-3745782D01*
X21100000Y-3745782D02*
X21157143Y-3860068D01*
X21157143Y-3860068D02*
X21214286Y-3917211D01*
X21214286Y-3917211D02*
X21328571Y-3974354D01*
X21328571Y-3974354D02*
X21785714Y-3974354D01*
X20642857Y-3460068D02*
X20585714Y-3402925D01*
X20585714Y-3402925D02*
X20471429Y-3345782D01*
X20471429Y-3345782D02*
X20185714Y-3345782D01*
X20185714Y-3345782D02*
X20071429Y-3402925D01*
X20071429Y-3402925D02*
X20014286Y-3460068D01*
X20014286Y-3460068D02*
X19957143Y-3574354D01*
X19957143Y-3574354D02*
X19957143Y-3688640D01*
X19957143Y-3688640D02*
X20014286Y-3860068D01*
X20014286Y-3860068D02*
X20700000Y-4545782D01*
X20700000Y-4545782D02*
X19957143Y-4545782D01*
X19214286Y-3345782D02*
X19100000Y-3345782D01*
X19100000Y-3345782D02*
X18985714Y-3402925D01*
X18985714Y-3402925D02*
X18928572Y-3460068D01*
X18928572Y-3460068D02*
X18871429Y-3574354D01*
X18871429Y-3574354D02*
X18814286Y-3802925D01*
X18814286Y-3802925D02*
X18814286Y-4088640D01*
X18814286Y-4088640D02*
X18871429Y-4317211D01*
X18871429Y-4317211D02*
X18928572Y-4431497D01*
X18928572Y-4431497D02*
X18985714Y-4488640D01*
X18985714Y-4488640D02*
X19100000Y-4545782D01*
X19100000Y-4545782D02*
X19214286Y-4545782D01*
X19214286Y-4545782D02*
X19328572Y-4488640D01*
X19328572Y-4488640D02*
X19385714Y-4431497D01*
X19385714Y-4431497D02*
X19442857Y-4317211D01*
X19442857Y-4317211D02*
X19500000Y-4088640D01*
X19500000Y-4088640D02*
X19500000Y-3802925D01*
X19500000Y-3802925D02*
X19442857Y-3574354D01*
X19442857Y-3574354D02*
X19385714Y-3460068D01*
X19385714Y-3460068D02*
X19328572Y-3402925D01*
X19328572Y-3402925D02*
X19214286Y-3345782D01*
X18414286Y-3345782D02*
X17671429Y-3345782D01*
X17671429Y-3345782D02*
X18071429Y-3802925D01*
X18071429Y-3802925D02*
X17900000Y-3802925D01*
X17900000Y-3802925D02*
X17785715Y-3860068D01*
X17785715Y-3860068D02*
X17728572Y-3917211D01*
X17728572Y-3917211D02*
X17671429Y-4031497D01*
X17671429Y-4031497D02*
X17671429Y-4317211D01*
X17671429Y-4317211D02*
X17728572Y-4431497D01*
X17728572Y-4431497D02*
X17785715Y-4488640D01*
X17785715Y-4488640D02*
X17900000Y-4545782D01*
X17900000Y-4545782D02*
X18242857Y-4545782D01*
X18242857Y-4545782D02*
X18357143Y-4488640D01*
X18357143Y-4488640D02*
X18414286Y-4431497D01*
X17214286Y-3460068D02*
X17157143Y-3402925D01*
X17157143Y-3402925D02*
X17042858Y-3345782D01*
X17042858Y-3345782D02*
X16757143Y-3345782D01*
X16757143Y-3345782D02*
X16642858Y-3402925D01*
X16642858Y-3402925D02*
X16585715Y-3460068D01*
X16585715Y-3460068D02*
X16528572Y-3574354D01*
X16528572Y-3574354D02*
X16528572Y-3688640D01*
X16528572Y-3688640D02*
X16585715Y-3860068D01*
X16585715Y-3860068D02*
X17271429Y-4545782D01*
X17271429Y-4545782D02*
X16528572Y-4545782D01*
X14185714Y-4088640D02*
X13271429Y-4088640D01*
X13728571Y-4545782D02*
X13728571Y-3631497D01*
X11842857Y-4488640D02*
X11671429Y-4545782D01*
X11671429Y-4545782D02*
X11385714Y-4545782D01*
X11385714Y-4545782D02*
X11271429Y-4488640D01*
X11271429Y-4488640D02*
X11214286Y-4431497D01*
X11214286Y-4431497D02*
X11157143Y-4317211D01*
X11157143Y-4317211D02*
X11157143Y-4202925D01*
X11157143Y-4202925D02*
X11214286Y-4088640D01*
X11214286Y-4088640D02*
X11271429Y-4031497D01*
X11271429Y-4031497D02*
X11385714Y-3974354D01*
X11385714Y-3974354D02*
X11614286Y-3917211D01*
X11614286Y-3917211D02*
X11728571Y-3860068D01*
X11728571Y-3860068D02*
X11785714Y-3802925D01*
X11785714Y-3802925D02*
X11842857Y-3688640D01*
X11842857Y-3688640D02*
X11842857Y-3574354D01*
X11842857Y-3574354D02*
X11785714Y-3460068D01*
X11785714Y-3460068D02*
X11728571Y-3402925D01*
X11728571Y-3402925D02*
X11614286Y-3345782D01*
X11614286Y-3345782D02*
X11328571Y-3345782D01*
X11328571Y-3345782D02*
X11157143Y-3402925D01*
X10642857Y-4545782D02*
X10642857Y-3345782D01*
X10071428Y-4545782D02*
X10071428Y-3345782D01*
X10071428Y-3345782D02*
X9785714Y-3345782D01*
X9785714Y-3345782D02*
X9614285Y-3402925D01*
X9614285Y-3402925D02*
X9500000Y-3517211D01*
X9500000Y-3517211D02*
X9442857Y-3631497D01*
X9442857Y-3631497D02*
X9385714Y-3860068D01*
X9385714Y-3860068D02*
X9385714Y-4031497D01*
X9385714Y-4031497D02*
X9442857Y-4260068D01*
X9442857Y-4260068D02*
X9500000Y-4374354D01*
X9500000Y-4374354D02*
X9614285Y-4488640D01*
X9614285Y-4488640D02*
X9785714Y-4545782D01*
X9785714Y-4545782D02*
X10071428Y-4545782D01*
X8871428Y-3917211D02*
X8471428Y-3917211D01*
X8300000Y-4545782D02*
X8871428Y-4545782D01*
X8871428Y-4545782D02*
X8871428Y-3345782D01*
X8871428Y-3345782D02*
X8300000Y-3345782D01*
X6642857Y-3345782D02*
X6414285Y-3345782D01*
X6414285Y-3345782D02*
X6300000Y-3402925D01*
X6300000Y-3402925D02*
X6185714Y-3517211D01*
X6185714Y-3517211D02*
X6128571Y-3745782D01*
X6128571Y-3745782D02*
X6128571Y-4145782D01*
X6128571Y-4145782D02*
X6185714Y-4374354D01*
X6185714Y-4374354D02*
X6300000Y-4488640D01*
X6300000Y-4488640D02*
X6414285Y-4545782D01*
X6414285Y-4545782D02*
X6642857Y-4545782D01*
X6642857Y-4545782D02*
X6757143Y-4488640D01*
X6757143Y-4488640D02*
X6871428Y-4374354D01*
X6871428Y-4374354D02*
X6928571Y-4145782D01*
X6928571Y-4145782D02*
X6928571Y-3745782D01*
X6928571Y-3745782D02*
X6871428Y-3517211D01*
X6871428Y-3517211D02*
X6757143Y-3402925D01*
X6757143Y-3402925D02*
X6642857Y-3345782D01*
X5614285Y-3345782D02*
X5614285Y-4317211D01*
X5614285Y-4317211D02*
X5557142Y-4431497D01*
X5557142Y-4431497D02*
X5500000Y-4488640D01*
X5500000Y-4488640D02*
X5385714Y-4545782D01*
X5385714Y-4545782D02*
X5157142Y-4545782D01*
X5157142Y-4545782D02*
X5042857Y-4488640D01*
X5042857Y-4488640D02*
X4985714Y-4431497D01*
X4985714Y-4431497D02*
X4928571Y-4317211D01*
X4928571Y-4317211D02*
X4928571Y-3345782D01*
X4528571Y-3345782D02*
X3842857Y-3345782D01*
X4185714Y-4545782D02*
X4185714Y-3345782D01*
%TO.C,BT1*%
D11*
X3050000Y-13500000D02*
X3050000Y-16020000D01*
X3050000Y-19980000D02*
X3050000Y-22500000D01*
X3050000Y-22500000D02*
X23940000Y-22500000D01*
X5890000Y-15460000D02*
X5890000Y-19090000D01*
X5890000Y-15460000D02*
X8650000Y-15460000D01*
X5890000Y-16050000D02*
X8650000Y-16050000D01*
X5890000Y-17570000D02*
X8650000Y-17570000D01*
X8650000Y-15460000D02*
X8650000Y-19130000D01*
X18450000Y-15450000D02*
X18450000Y-19080000D01*
X18450000Y-15450000D02*
X18450000Y-19080000D01*
X18450000Y-15450000D02*
X21210000Y-15450000D01*
X18450000Y-15450000D02*
X21210000Y-15450000D01*
X18450000Y-16040000D02*
X21210000Y-16040000D01*
X18450000Y-16040000D02*
X21210000Y-16040000D01*
X18450000Y-17560000D02*
X21210000Y-17560000D01*
X18450000Y-17560000D02*
X21210000Y-17560000D01*
X21210000Y-15450000D02*
X21210000Y-19120000D01*
X21210000Y-15450000D02*
X21210000Y-19120000D01*
X23950000Y-13500000D02*
X3050000Y-13500000D01*
X23950000Y-15270000D02*
X23950000Y-13500000D01*
X23950000Y-22500000D02*
X23950000Y-20730000D01*
X8649862Y-19137948D02*
G75*
G02*
X5890000Y-19090000I-1379862J27948D01*
G01*
X21210000Y-19120000D02*
G75*
G02*
X18450000Y-19080000I-1380000J20000D01*
G01*
X21210000Y-19120000D02*
G75*
G02*
X18450000Y-19080000I-1380000J20000D01*
G01*
D12*
X1080000Y-13500000D02*
G75*
G02*
X1020000Y-13500000I-30000J0D01*
G01*
X1020000Y-13500000D02*
G75*
G02*
X1080000Y-13500000I30000J0D01*
G01*
%TD*%
%LPC*%
D13*
%TO.C,BT1*%
X2050000Y-18000000D03*
D14*
X24950000Y-18000000D03*
D15*
X13500000Y-18000000D03*
%TD*%
%LPD*%
M02*
