%TF.GenerationSoftware,KiCad,Pcbnew,10.0.6*%
%TF.CreationDate,2026-10-08T00:09:54+02:00*%
%TF.ProjectId,openrz67-nrf,6f70656e-727a-4363-972d-6e72662e6b69,A*%
%TF.SameCoordinates,Original*%
%TF.FileFunction,Drillmap*%
%TF.FilePolarity,Positive*%
%FSLAX45Y45*%
G04 Gerber Fmt 4.5, Leading zero omitted, Abs format (unit mm)*
G04 Created by KiCad (PCBNEW 10.0.6) date 2026-10-08 00:09:54*
%MOMM*%
%LPD*%
G01*
G04 APERTURE LIST*
%ADD10C,0.100000*%
%ADD11C,0.200000*%
G04 APERTURE END LIST*
D10*
X0Y-80000D02*
G75*
G02*
X80000Y0I80000J0D01*
G01*
X0Y-2820000D02*
X0Y-80000D01*
X80000Y0D02*
X2620000Y0D01*
X80000Y-2900000D02*
G75*
G02*
X0Y-2820000I0J80000D01*
G01*
X2620000Y0D02*
G75*
G02*
X2700000Y-80000I0J-80000D01*
G01*
X2620000Y-2900000D02*
X80000Y-2900000D01*
X2700000Y-80000D02*
X2700000Y-2820000D01*
X2700000Y-2820000D02*
G75*
G02*
X2620000Y-2900000I-80000J0D01*
G01*
D11*
D10*
X217500Y-2517500D02*
X242500Y-2542500D01*
X242500Y-2517500D02*
X217500Y-2542500D01*
X287500Y-2017500D02*
X312500Y-2042500D01*
X312500Y-2017500D02*
X287500Y-2042500D01*
X367500Y-2267500D02*
X392500Y-2292500D01*
X392500Y-2267500D02*
X367500Y-2292500D01*
X587500Y-987500D02*
X612500Y-1012500D01*
X612500Y-987500D02*
X587500Y-1012500D01*
X617500Y-2567500D02*
X642500Y-2592500D01*
X642500Y-2567500D02*
X617500Y-2592500D01*
X667500Y-2637500D02*
X692500Y-2662500D01*
X692500Y-2637500D02*
X667500Y-2662500D01*
X687500Y-1957500D02*
X712500Y-1982500D01*
X712500Y-1957500D02*
X687500Y-1982500D01*
X1417500Y-2827500D02*
X1442500Y-2852500D01*
X1442500Y-2827500D02*
X1417500Y-2852500D01*
X1647500Y-2817500D02*
X1672500Y-2842500D01*
X1672500Y-2817500D02*
X1647500Y-2842500D01*
X2067500Y-867500D02*
X2092500Y-892500D01*
X2092500Y-867500D02*
X2067500Y-892500D01*
X2087500Y-507500D02*
X2112500Y-532500D01*
X2112500Y-507500D02*
X2087500Y-532500D01*
X2547500Y-1397500D02*
X2572500Y-1422500D01*
X2572500Y-1397500D02*
X2547500Y-1422500D01*
X2547500Y-2087500D02*
X2572500Y-2112500D01*
X2572500Y-2087500D02*
X2547500Y-2112500D01*
D11*
X255777Y-3216484D02*
X255777Y-3016484D01*
X255777Y-3016484D02*
X303396Y-3016484D01*
X303396Y-3016484D02*
X331967Y-3026008D01*
X331967Y-3026008D02*
X351015Y-3045055D01*
X351015Y-3045055D02*
X360539Y-3064103D01*
X360539Y-3064103D02*
X370062Y-3102198D01*
X370062Y-3102198D02*
X370062Y-3130769D01*
X370062Y-3130769D02*
X360539Y-3168865D01*
X360539Y-3168865D02*
X351015Y-3187912D01*
X351015Y-3187912D02*
X331967Y-3206960D01*
X331967Y-3206960D02*
X303396Y-3216484D01*
X303396Y-3216484D02*
X255777Y-3216484D01*
X455777Y-3216484D02*
X455777Y-3083150D01*
X455777Y-3121246D02*
X465301Y-3102198D01*
X465301Y-3102198D02*
X474824Y-3092674D01*
X474824Y-3092674D02*
X493872Y-3083150D01*
X493872Y-3083150D02*
X512920Y-3083150D01*
X579586Y-3216484D02*
X579586Y-3083150D01*
X579586Y-3016484D02*
X570063Y-3026008D01*
X570063Y-3026008D02*
X579586Y-3035531D01*
X579586Y-3035531D02*
X589110Y-3026008D01*
X589110Y-3026008D02*
X579586Y-3016484D01*
X579586Y-3016484D02*
X579586Y-3035531D01*
X703396Y-3216484D02*
X684348Y-3206960D01*
X684348Y-3206960D02*
X674824Y-3187912D01*
X674824Y-3187912D02*
X674824Y-3016484D01*
X808158Y-3216484D02*
X789110Y-3206960D01*
X789110Y-3206960D02*
X779586Y-3187912D01*
X779586Y-3187912D02*
X779586Y-3016484D01*
X1036729Y-3216484D02*
X1036729Y-3016484D01*
X1036729Y-3016484D02*
X1103396Y-3159341D01*
X1103396Y-3159341D02*
X1170063Y-3016484D01*
X1170063Y-3016484D02*
X1170063Y-3216484D01*
X1351015Y-3216484D02*
X1351015Y-3111722D01*
X1351015Y-3111722D02*
X1341491Y-3092674D01*
X1341491Y-3092674D02*
X1322444Y-3083150D01*
X1322444Y-3083150D02*
X1284348Y-3083150D01*
X1284348Y-3083150D02*
X1265301Y-3092674D01*
X1351015Y-3206960D02*
X1331967Y-3216484D01*
X1331967Y-3216484D02*
X1284348Y-3216484D01*
X1284348Y-3216484D02*
X1265301Y-3206960D01*
X1265301Y-3206960D02*
X1255777Y-3187912D01*
X1255777Y-3187912D02*
X1255777Y-3168865D01*
X1255777Y-3168865D02*
X1265301Y-3149817D01*
X1265301Y-3149817D02*
X1284348Y-3140293D01*
X1284348Y-3140293D02*
X1331967Y-3140293D01*
X1331967Y-3140293D02*
X1351015Y-3130769D01*
X1446253Y-3083150D02*
X1446253Y-3283150D01*
X1446253Y-3092674D02*
X1465301Y-3083150D01*
X1465301Y-3083150D02*
X1503396Y-3083150D01*
X1503396Y-3083150D02*
X1522443Y-3092674D01*
X1522443Y-3092674D02*
X1531967Y-3102198D01*
X1531967Y-3102198D02*
X1541491Y-3121246D01*
X1541491Y-3121246D02*
X1541491Y-3178388D01*
X1541491Y-3178388D02*
X1531967Y-3197436D01*
X1531967Y-3197436D02*
X1522443Y-3206960D01*
X1522443Y-3206960D02*
X1503396Y-3216484D01*
X1503396Y-3216484D02*
X1465301Y-3216484D01*
X1465301Y-3216484D02*
X1446253Y-3206960D01*
X1627205Y-3197436D02*
X1636729Y-3206960D01*
X1636729Y-3206960D02*
X1627205Y-3216484D01*
X1627205Y-3216484D02*
X1617682Y-3206960D01*
X1617682Y-3206960D02*
X1627205Y-3197436D01*
X1627205Y-3197436D02*
X1627205Y-3216484D01*
X1627205Y-3092674D02*
X1636729Y-3102198D01*
X1636729Y-3102198D02*
X1627205Y-3111722D01*
X1627205Y-3111722D02*
X1617682Y-3102198D01*
X1617682Y-3102198D02*
X1627205Y-3092674D01*
X1627205Y-3092674D02*
X1627205Y-3111722D01*
D10*
X-30000Y-3532500D02*
X-5000Y-3557500D01*
X-5000Y-3532500D02*
X-30000Y-3557500D01*
D11*
X293872Y-3436484D02*
X312920Y-3436484D01*
X312920Y-3436484D02*
X331967Y-3446008D01*
X331967Y-3446008D02*
X341491Y-3455531D01*
X341491Y-3455531D02*
X351015Y-3474579D01*
X351015Y-3474579D02*
X360539Y-3512674D01*
X360539Y-3512674D02*
X360539Y-3560293D01*
X360539Y-3560293D02*
X351015Y-3598388D01*
X351015Y-3598388D02*
X341491Y-3617436D01*
X341491Y-3617436D02*
X331967Y-3626960D01*
X331967Y-3626960D02*
X312920Y-3636484D01*
X312920Y-3636484D02*
X293872Y-3636484D01*
X293872Y-3636484D02*
X274824Y-3626960D01*
X274824Y-3626960D02*
X265301Y-3617436D01*
X265301Y-3617436D02*
X255777Y-3598388D01*
X255777Y-3598388D02*
X246253Y-3560293D01*
X246253Y-3560293D02*
X246253Y-3512674D01*
X246253Y-3512674D02*
X255777Y-3474579D01*
X255777Y-3474579D02*
X265301Y-3455531D01*
X265301Y-3455531D02*
X274824Y-3446008D01*
X274824Y-3446008D02*
X293872Y-3436484D01*
X446253Y-3617436D02*
X455777Y-3626960D01*
X455777Y-3626960D02*
X446253Y-3636484D01*
X446253Y-3636484D02*
X436729Y-3626960D01*
X436729Y-3626960D02*
X446253Y-3617436D01*
X446253Y-3617436D02*
X446253Y-3636484D01*
X531967Y-3455531D02*
X541491Y-3446008D01*
X541491Y-3446008D02*
X560539Y-3436484D01*
X560539Y-3436484D02*
X608158Y-3436484D01*
X608158Y-3436484D02*
X627205Y-3446008D01*
X627205Y-3446008D02*
X636729Y-3455531D01*
X636729Y-3455531D02*
X646253Y-3474579D01*
X646253Y-3474579D02*
X646253Y-3493627D01*
X646253Y-3493627D02*
X636729Y-3522198D01*
X636729Y-3522198D02*
X522443Y-3636484D01*
X522443Y-3636484D02*
X646253Y-3636484D01*
X827205Y-3436484D02*
X731967Y-3436484D01*
X731967Y-3436484D02*
X722443Y-3531722D01*
X722443Y-3531722D02*
X731967Y-3522198D01*
X731967Y-3522198D02*
X751015Y-3512674D01*
X751015Y-3512674D02*
X798634Y-3512674D01*
X798634Y-3512674D02*
X817682Y-3522198D01*
X817682Y-3522198D02*
X827205Y-3531722D01*
X827205Y-3531722D02*
X836729Y-3550769D01*
X836729Y-3550769D02*
X836729Y-3598388D01*
X836729Y-3598388D02*
X827205Y-3617436D01*
X827205Y-3617436D02*
X817682Y-3626960D01*
X817682Y-3626960D02*
X798634Y-3636484D01*
X798634Y-3636484D02*
X751015Y-3636484D01*
X751015Y-3636484D02*
X731967Y-3626960D01*
X731967Y-3626960D02*
X722443Y-3617436D01*
X960539Y-3436484D02*
X979586Y-3436484D01*
X979586Y-3436484D02*
X998634Y-3446008D01*
X998634Y-3446008D02*
X1008158Y-3455531D01*
X1008158Y-3455531D02*
X1017682Y-3474579D01*
X1017682Y-3474579D02*
X1027205Y-3512674D01*
X1027205Y-3512674D02*
X1027205Y-3560293D01*
X1027205Y-3560293D02*
X1017682Y-3598388D01*
X1017682Y-3598388D02*
X1008158Y-3617436D01*
X1008158Y-3617436D02*
X998634Y-3626960D01*
X998634Y-3626960D02*
X979586Y-3636484D01*
X979586Y-3636484D02*
X960539Y-3636484D01*
X960539Y-3636484D02*
X941491Y-3626960D01*
X941491Y-3626960D02*
X931967Y-3617436D01*
X931967Y-3617436D02*
X922443Y-3598388D01*
X922443Y-3598388D02*
X912920Y-3560293D01*
X912920Y-3560293D02*
X912920Y-3512674D01*
X912920Y-3512674D02*
X922443Y-3474579D01*
X922443Y-3474579D02*
X931967Y-3455531D01*
X931967Y-3455531D02*
X941491Y-3446008D01*
X941491Y-3446008D02*
X960539Y-3436484D01*
X1112920Y-3636484D02*
X1112920Y-3503150D01*
X1112920Y-3522198D02*
X1122444Y-3512674D01*
X1122444Y-3512674D02*
X1141491Y-3503150D01*
X1141491Y-3503150D02*
X1170063Y-3503150D01*
X1170063Y-3503150D02*
X1189110Y-3512674D01*
X1189110Y-3512674D02*
X1198634Y-3531722D01*
X1198634Y-3531722D02*
X1198634Y-3636484D01*
X1198634Y-3531722D02*
X1208158Y-3512674D01*
X1208158Y-3512674D02*
X1227205Y-3503150D01*
X1227205Y-3503150D02*
X1255777Y-3503150D01*
X1255777Y-3503150D02*
X1274825Y-3512674D01*
X1274825Y-3512674D02*
X1284348Y-3531722D01*
X1284348Y-3531722D02*
X1284348Y-3636484D01*
X1379586Y-3636484D02*
X1379586Y-3503150D01*
X1379586Y-3522198D02*
X1389110Y-3512674D01*
X1389110Y-3512674D02*
X1408158Y-3503150D01*
X1408158Y-3503150D02*
X1436729Y-3503150D01*
X1436729Y-3503150D02*
X1455777Y-3512674D01*
X1455777Y-3512674D02*
X1465301Y-3531722D01*
X1465301Y-3531722D02*
X1465301Y-3636484D01*
X1465301Y-3531722D02*
X1474824Y-3512674D01*
X1474824Y-3512674D02*
X1493872Y-3503150D01*
X1493872Y-3503150D02*
X1522443Y-3503150D01*
X1522443Y-3503150D02*
X1541491Y-3512674D01*
X1541491Y-3512674D02*
X1551015Y-3531722D01*
X1551015Y-3531722D02*
X1551015Y-3636484D01*
X1941491Y-3426960D02*
X1770063Y-3684103D01*
X2198634Y-3436484D02*
X2217682Y-3436484D01*
X2217682Y-3436484D02*
X2236729Y-3446008D01*
X2236729Y-3446008D02*
X2246253Y-3455531D01*
X2246253Y-3455531D02*
X2255777Y-3474579D01*
X2255777Y-3474579D02*
X2265301Y-3512674D01*
X2265301Y-3512674D02*
X2265301Y-3560293D01*
X2265301Y-3560293D02*
X2255777Y-3598388D01*
X2255777Y-3598388D02*
X2246253Y-3617436D01*
X2246253Y-3617436D02*
X2236729Y-3626960D01*
X2236729Y-3626960D02*
X2217682Y-3636484D01*
X2217682Y-3636484D02*
X2198634Y-3636484D01*
X2198634Y-3636484D02*
X2179587Y-3626960D01*
X2179587Y-3626960D02*
X2170063Y-3617436D01*
X2170063Y-3617436D02*
X2160539Y-3598388D01*
X2160539Y-3598388D02*
X2151015Y-3560293D01*
X2151015Y-3560293D02*
X2151015Y-3512674D01*
X2151015Y-3512674D02*
X2160539Y-3474579D01*
X2160539Y-3474579D02*
X2170063Y-3455531D01*
X2170063Y-3455531D02*
X2179587Y-3446008D01*
X2179587Y-3446008D02*
X2198634Y-3436484D01*
X2351015Y-3617436D02*
X2360539Y-3626960D01*
X2360539Y-3626960D02*
X2351015Y-3636484D01*
X2351015Y-3636484D02*
X2341491Y-3626960D01*
X2341491Y-3626960D02*
X2351015Y-3617436D01*
X2351015Y-3617436D02*
X2351015Y-3636484D01*
X2484348Y-3436484D02*
X2503396Y-3436484D01*
X2503396Y-3436484D02*
X2522444Y-3446008D01*
X2522444Y-3446008D02*
X2531968Y-3455531D01*
X2531968Y-3455531D02*
X2541491Y-3474579D01*
X2541491Y-3474579D02*
X2551015Y-3512674D01*
X2551015Y-3512674D02*
X2551015Y-3560293D01*
X2551015Y-3560293D02*
X2541491Y-3598388D01*
X2541491Y-3598388D02*
X2531968Y-3617436D01*
X2531968Y-3617436D02*
X2522444Y-3626960D01*
X2522444Y-3626960D02*
X2503396Y-3636484D01*
X2503396Y-3636484D02*
X2484348Y-3636484D01*
X2484348Y-3636484D02*
X2465301Y-3626960D01*
X2465301Y-3626960D02*
X2455777Y-3617436D01*
X2455777Y-3617436D02*
X2446253Y-3598388D01*
X2446253Y-3598388D02*
X2436729Y-3560293D01*
X2436729Y-3560293D02*
X2436729Y-3512674D01*
X2436729Y-3512674D02*
X2446253Y-3474579D01*
X2446253Y-3474579D02*
X2455777Y-3455531D01*
X2455777Y-3455531D02*
X2465301Y-3446008D01*
X2465301Y-3446008D02*
X2484348Y-3436484D01*
X2674825Y-3436484D02*
X2693872Y-3436484D01*
X2693872Y-3436484D02*
X2712920Y-3446008D01*
X2712920Y-3446008D02*
X2722444Y-3455531D01*
X2722444Y-3455531D02*
X2731968Y-3474579D01*
X2731968Y-3474579D02*
X2741491Y-3512674D01*
X2741491Y-3512674D02*
X2741491Y-3560293D01*
X2741491Y-3560293D02*
X2731968Y-3598388D01*
X2731968Y-3598388D02*
X2722444Y-3617436D01*
X2722444Y-3617436D02*
X2712920Y-3626960D01*
X2712920Y-3626960D02*
X2693872Y-3636484D01*
X2693872Y-3636484D02*
X2674825Y-3636484D01*
X2674825Y-3636484D02*
X2655777Y-3626960D01*
X2655777Y-3626960D02*
X2646253Y-3617436D01*
X2646253Y-3617436D02*
X2636729Y-3598388D01*
X2636729Y-3598388D02*
X2627206Y-3560293D01*
X2627206Y-3560293D02*
X2627206Y-3512674D01*
X2627206Y-3512674D02*
X2636729Y-3474579D01*
X2636729Y-3474579D02*
X2646253Y-3455531D01*
X2646253Y-3455531D02*
X2655777Y-3446008D01*
X2655777Y-3446008D02*
X2674825Y-3436484D01*
X2836729Y-3636484D02*
X2874825Y-3636484D01*
X2874825Y-3636484D02*
X2893872Y-3626960D01*
X2893872Y-3626960D02*
X2903396Y-3617436D01*
X2903396Y-3617436D02*
X2922444Y-3588865D01*
X2922444Y-3588865D02*
X2931967Y-3550769D01*
X2931967Y-3550769D02*
X2931967Y-3474579D01*
X2931967Y-3474579D02*
X2922444Y-3455531D01*
X2922444Y-3455531D02*
X2912920Y-3446008D01*
X2912920Y-3446008D02*
X2893872Y-3436484D01*
X2893872Y-3436484D02*
X2855777Y-3436484D01*
X2855777Y-3436484D02*
X2836729Y-3446008D01*
X2836729Y-3446008D02*
X2827206Y-3455531D01*
X2827206Y-3455531D02*
X2817682Y-3474579D01*
X2817682Y-3474579D02*
X2817682Y-3522198D01*
X2817682Y-3522198D02*
X2827206Y-3541246D01*
X2827206Y-3541246D02*
X2836729Y-3550769D01*
X2836729Y-3550769D02*
X2855777Y-3560293D01*
X2855777Y-3560293D02*
X2893872Y-3560293D01*
X2893872Y-3560293D02*
X2912920Y-3550769D01*
X2912920Y-3550769D02*
X2922444Y-3541246D01*
X2922444Y-3541246D02*
X2931967Y-3522198D01*
X3046253Y-3522198D02*
X3027206Y-3512674D01*
X3027206Y-3512674D02*
X3017682Y-3503150D01*
X3017682Y-3503150D02*
X3008158Y-3484103D01*
X3008158Y-3484103D02*
X3008158Y-3474579D01*
X3008158Y-3474579D02*
X3017682Y-3455531D01*
X3017682Y-3455531D02*
X3027206Y-3446008D01*
X3027206Y-3446008D02*
X3046253Y-3436484D01*
X3046253Y-3436484D02*
X3084348Y-3436484D01*
X3084348Y-3436484D02*
X3103396Y-3446008D01*
X3103396Y-3446008D02*
X3112920Y-3455531D01*
X3112920Y-3455531D02*
X3122444Y-3474579D01*
X3122444Y-3474579D02*
X3122444Y-3484103D01*
X3122444Y-3484103D02*
X3112920Y-3503150D01*
X3112920Y-3503150D02*
X3103396Y-3512674D01*
X3103396Y-3512674D02*
X3084348Y-3522198D01*
X3084348Y-3522198D02*
X3046253Y-3522198D01*
X3046253Y-3522198D02*
X3027206Y-3531722D01*
X3027206Y-3531722D02*
X3017682Y-3541246D01*
X3017682Y-3541246D02*
X3008158Y-3560293D01*
X3008158Y-3560293D02*
X3008158Y-3598388D01*
X3008158Y-3598388D02*
X3017682Y-3617436D01*
X3017682Y-3617436D02*
X3027206Y-3626960D01*
X3027206Y-3626960D02*
X3046253Y-3636484D01*
X3046253Y-3636484D02*
X3084348Y-3636484D01*
X3084348Y-3636484D02*
X3103396Y-3626960D01*
X3103396Y-3626960D02*
X3112920Y-3617436D01*
X3112920Y-3617436D02*
X3122444Y-3598388D01*
X3122444Y-3598388D02*
X3122444Y-3560293D01*
X3122444Y-3560293D02*
X3112920Y-3541246D01*
X3112920Y-3541246D02*
X3103396Y-3531722D01*
X3103396Y-3531722D02*
X3084348Y-3522198D01*
X3198634Y-3436484D02*
X3198634Y-3474579D01*
X3274825Y-3436484D02*
X3274825Y-3474579D01*
X3570063Y-3712674D02*
X3560539Y-3703150D01*
X3560539Y-3703150D02*
X3541491Y-3674579D01*
X3541491Y-3674579D02*
X3531968Y-3655531D01*
X3531968Y-3655531D02*
X3522444Y-3626960D01*
X3522444Y-3626960D02*
X3512920Y-3579341D01*
X3512920Y-3579341D02*
X3512920Y-3541246D01*
X3512920Y-3541246D02*
X3522444Y-3493627D01*
X3522444Y-3493627D02*
X3531968Y-3465055D01*
X3531968Y-3465055D02*
X3541491Y-3446008D01*
X3541491Y-3446008D02*
X3560539Y-3417436D01*
X3560539Y-3417436D02*
X3570063Y-3407912D01*
X3751015Y-3636484D02*
X3636729Y-3636484D01*
X3693872Y-3636484D02*
X3693872Y-3436484D01*
X3693872Y-3436484D02*
X3674825Y-3465055D01*
X3674825Y-3465055D02*
X3655777Y-3484103D01*
X3655777Y-3484103D02*
X3636729Y-3493627D01*
X3817682Y-3436484D02*
X3941491Y-3436484D01*
X3941491Y-3436484D02*
X3874825Y-3512674D01*
X3874825Y-3512674D02*
X3903396Y-3512674D01*
X3903396Y-3512674D02*
X3922444Y-3522198D01*
X3922444Y-3522198D02*
X3931968Y-3531722D01*
X3931968Y-3531722D02*
X3941491Y-3550769D01*
X3941491Y-3550769D02*
X3941491Y-3598388D01*
X3941491Y-3598388D02*
X3931968Y-3617436D01*
X3931968Y-3617436D02*
X3922444Y-3626960D01*
X3922444Y-3626960D02*
X3903396Y-3636484D01*
X3903396Y-3636484D02*
X3846253Y-3636484D01*
X3846253Y-3636484D02*
X3827206Y-3626960D01*
X3827206Y-3626960D02*
X3817682Y-3617436D01*
X4179587Y-3636484D02*
X4179587Y-3436484D01*
X4265301Y-3636484D02*
X4265301Y-3531722D01*
X4265301Y-3531722D02*
X4255777Y-3512674D01*
X4255777Y-3512674D02*
X4236730Y-3503150D01*
X4236730Y-3503150D02*
X4208158Y-3503150D01*
X4208158Y-3503150D02*
X4189110Y-3512674D01*
X4189110Y-3512674D02*
X4179587Y-3522198D01*
X4389111Y-3636484D02*
X4370063Y-3626960D01*
X4370063Y-3626960D02*
X4360539Y-3617436D01*
X4360539Y-3617436D02*
X4351015Y-3598388D01*
X4351015Y-3598388D02*
X4351015Y-3541246D01*
X4351015Y-3541246D02*
X4360539Y-3522198D01*
X4360539Y-3522198D02*
X4370063Y-3512674D01*
X4370063Y-3512674D02*
X4389111Y-3503150D01*
X4389111Y-3503150D02*
X4417682Y-3503150D01*
X4417682Y-3503150D02*
X4436730Y-3512674D01*
X4436730Y-3512674D02*
X4446253Y-3522198D01*
X4446253Y-3522198D02*
X4455777Y-3541246D01*
X4455777Y-3541246D02*
X4455777Y-3598388D01*
X4455777Y-3598388D02*
X4446253Y-3617436D01*
X4446253Y-3617436D02*
X4436730Y-3626960D01*
X4436730Y-3626960D02*
X4417682Y-3636484D01*
X4417682Y-3636484D02*
X4389111Y-3636484D01*
X4570063Y-3636484D02*
X4551015Y-3626960D01*
X4551015Y-3626960D02*
X4541492Y-3607912D01*
X4541492Y-3607912D02*
X4541492Y-3436484D01*
X4722444Y-3626960D02*
X4703396Y-3636484D01*
X4703396Y-3636484D02*
X4665301Y-3636484D01*
X4665301Y-3636484D02*
X4646253Y-3626960D01*
X4646253Y-3626960D02*
X4636730Y-3607912D01*
X4636730Y-3607912D02*
X4636730Y-3531722D01*
X4636730Y-3531722D02*
X4646253Y-3512674D01*
X4646253Y-3512674D02*
X4665301Y-3503150D01*
X4665301Y-3503150D02*
X4703396Y-3503150D01*
X4703396Y-3503150D02*
X4722444Y-3512674D01*
X4722444Y-3512674D02*
X4731968Y-3531722D01*
X4731968Y-3531722D02*
X4731968Y-3550769D01*
X4731968Y-3550769D02*
X4636730Y-3569817D01*
X4808158Y-3626960D02*
X4827206Y-3636484D01*
X4827206Y-3636484D02*
X4865301Y-3636484D01*
X4865301Y-3636484D02*
X4884349Y-3626960D01*
X4884349Y-3626960D02*
X4893873Y-3607912D01*
X4893873Y-3607912D02*
X4893873Y-3598388D01*
X4893873Y-3598388D02*
X4884349Y-3579341D01*
X4884349Y-3579341D02*
X4865301Y-3569817D01*
X4865301Y-3569817D02*
X4836730Y-3569817D01*
X4836730Y-3569817D02*
X4817682Y-3560293D01*
X4817682Y-3560293D02*
X4808158Y-3541246D01*
X4808158Y-3541246D02*
X4808158Y-3531722D01*
X4808158Y-3531722D02*
X4817682Y-3512674D01*
X4817682Y-3512674D02*
X4836730Y-3503150D01*
X4836730Y-3503150D02*
X4865301Y-3503150D01*
X4865301Y-3503150D02*
X4884349Y-3512674D01*
X4960539Y-3712674D02*
X4970063Y-3703150D01*
X4970063Y-3703150D02*
X4989111Y-3674579D01*
X4989111Y-3674579D02*
X4998634Y-3655531D01*
X4998634Y-3655531D02*
X5008158Y-3626960D01*
X5008158Y-3626960D02*
X5017682Y-3579341D01*
X5017682Y-3579341D02*
X5017682Y-3541246D01*
X5017682Y-3541246D02*
X5008158Y-3493627D01*
X5008158Y-3493627D02*
X4998634Y-3465055D01*
X4998634Y-3465055D02*
X4989111Y-3446008D01*
X4989111Y-3446008D02*
X4970063Y-3417436D01*
X4970063Y-3417436D02*
X4960539Y-3407912D01*
M02*
