%TF.GenerationSoftware,KiCad,Pcbnew,10.0.6*%
%TF.CreationDate,2026-10-08T21:27:07+02:00*%
%TF.ProjectId,openrz67-nrf,6f70656e-727a-4363-972d-6e72662e6b69,A*%
%TF.SameCoordinates,Original*%
%TF.FileFunction,Paste,Top*%
%TF.FilePolarity,Positive*%
%FSLAX46Y46*%
G04 Gerber Fmt 4.6, Leading zero omitted, Abs format (unit mm)*
G04 Created by KiCad (PCBNEW 10.0.6) date 2026-10-08 21:27:07*
%MOMM*%
%LPD*%
G01*
G04 APERTURE LIST*
G04 Aperture macros list*
%AMRoundRect*
0 Rectangle with rounded corners*
0 $1 Rounding radius*
0 $2 $3 $4 $5 $6 $7 $8 $9 X,Y pos of 4 corners*
0 Add a 4 corners polygon primitive as box body*
4,1,4,$2,$3,$4,$5,$6,$7,$8,$9,$2,$3,0*
0 Add four circle primitives for the rounded corners*
1,1,$1+$1,$2,$3*
1,1,$1+$1,$4,$5*
1,1,$1+$1,$6,$7*
1,1,$1+$1,$8,$9*
0 Add four rect primitives between the rounded corners*
20,1,$1+$1,$2,$3,$4,$5,0*
20,1,$1+$1,$4,$5,$6,$7,0*
20,1,$1+$1,$6,$7,$8,$9,0*
20,1,$1+$1,$8,$9,$2,$3,0*%
G04 Aperture macros list end*
%ADD10C,0.000000*%
%ADD11R,0.800000X0.800000*%
%ADD12RoundRect,0.150000X0.150000X-0.587500X0.150000X0.587500X-0.150000X0.587500X-0.150000X-0.587500X0*%
%ADD13R,1.728000X1.485000*%
%ADD14R,0.600000X1.550000*%
%ADD15R,1.200000X1.800000*%
%ADD16R,0.800000X1.500000*%
%ADD17R,0.565500X0.540000*%
%ADD18R,0.540000X0.565500*%
%ADD19R,0.790000X0.540000*%
%ADD20R,0.800000X1.700000*%
%ADD21R,2.000000X0.900000*%
%ADD22R,0.900000X2.000000*%
%ADD23R,0.900000X0.900000*%
G04 APERTURE END LIST*
D10*
%TO.C,R2*%
G36*
X23705000Y-3770000D02*
G01*
X23705000Y-4230000D01*
X23665000Y-4270000D01*
X23164500Y-4270000D01*
X23124500Y-4230000D01*
X23124500Y-3770000D01*
X23164500Y-3730000D01*
X23665000Y-3730000D01*
X23705000Y-3770000D01*
G37*
G36*
X24555500Y-3770000D02*
G01*
X24555500Y-4230000D01*
X24515500Y-4270000D01*
X24015000Y-4270000D01*
X23975000Y-4230000D01*
X23975000Y-3770000D01*
X24015000Y-3730000D01*
X24515500Y-3730000D01*
X24555500Y-3770000D01*
G37*
%TO.C,R3*%
G36*
X17670000Y-24724500D02*
G01*
X17670000Y-25225000D01*
X17630000Y-25265000D01*
X17170000Y-25265000D01*
X17130000Y-25225000D01*
X17130000Y-24724500D01*
X17170000Y-24684500D01*
X17630000Y-24684500D01*
X17670000Y-24724500D01*
G37*
G36*
X17670000Y-25575000D02*
G01*
X17670000Y-26075500D01*
X17630000Y-26115500D01*
X17170000Y-26115500D01*
X17130000Y-26075500D01*
X17130000Y-25575000D01*
X17170000Y-25535000D01*
X17630000Y-25535000D01*
X17670000Y-25575000D01*
G37*
%TO.C,C2*%
G36*
X9090000Y-20075000D02*
G01*
X9090000Y-20525000D01*
X9020000Y-20575000D01*
X8540000Y-20575000D01*
X8490000Y-20525000D01*
X8490000Y-20075000D01*
X8540000Y-20025000D01*
X9020000Y-20025000D01*
X9090000Y-20075000D01*
G37*
G36*
X10050000Y-20075000D02*
G01*
X10050000Y-20525000D01*
X10000000Y-20575000D01*
X9520000Y-20575000D01*
X9450000Y-20525000D01*
X9450000Y-20075000D01*
X9520000Y-20025000D01*
X10000000Y-20025000D01*
X10050000Y-20075000D01*
G37*
%TO.C,R1*%
G36*
X19735000Y-3770000D02*
G01*
X19735000Y-4230000D01*
X19695000Y-4270000D01*
X19194500Y-4270000D01*
X19154500Y-4230000D01*
X19154500Y-3770000D01*
X19194500Y-3730000D01*
X19695000Y-3730000D01*
X19735000Y-3770000D01*
G37*
G36*
X20585500Y-3770000D02*
G01*
X20585500Y-4230000D01*
X20545500Y-4270000D01*
X20045000Y-4270000D01*
X20005000Y-4230000D01*
X20005000Y-3770000D01*
X20045000Y-3730000D01*
X20545500Y-3730000D01*
X20585500Y-3770000D01*
G37*
%TD*%
D11*
%TO.C,D1*%
X18999500Y-27600000D03*
X17400500Y-27600000D03*
%TD*%
D12*
%TO.C,Q1*%
X4450000Y-22237500D03*
X6350000Y-22237500D03*
X5400000Y-20362500D03*
%TD*%
D13*
%TO.C,C1*%
X26500000Y-15410000D03*
X26500000Y-18590000D03*
%TD*%
D14*
%TO.C,J1*%
X22100000Y-22760000D03*
X23100000Y-22760000D03*
X24100000Y-22760000D03*
X25100000Y-22760000D03*
D15*
X26400000Y-26640000D03*
X20800000Y-26640000D03*
%TD*%
D16*
%TO.C,U2*%
X19870000Y-6500000D03*
X17330000Y-6500000D03*
X17330000Y-13500000D03*
X19870000Y-13500000D03*
%TD*%
D17*
%TO.C,R2*%
X23407000Y-4000000D03*
X24273000Y-4000000D03*
%TD*%
D18*
%TO.C,R3*%
X17400000Y-24967000D03*
X17400000Y-25833000D03*
%TD*%
D19*
%TO.C,C2*%
X8725000Y-20300000D03*
X9815000Y-20300000D03*
%TD*%
D14*
%TO.C,J2*%
X10800000Y-22760000D03*
X11800000Y-22760000D03*
X12800000Y-22760000D03*
X13800000Y-22760000D03*
D15*
X15100000Y-26640000D03*
X9500000Y-26640000D03*
%TD*%
D20*
%TO.C,SW1*%
X4300000Y-27600000D03*
X7700000Y-27600000D03*
%TD*%
D16*
%TO.C,U3*%
X24270000Y-6500000D03*
X21730000Y-6500000D03*
X21730000Y-13500000D03*
X24270000Y-13500000D03*
%TD*%
D17*
%TO.C,R1*%
X19437000Y-4000000D03*
X20303000Y-4000000D03*
%TD*%
D21*
%TO.C,U1*%
X1500000Y-4290000D03*
X1500000Y-5560000D03*
X1500000Y-6800000D03*
X1500000Y-8100000D03*
X1500000Y-9370000D03*
X1500000Y-10640000D03*
X1500000Y-11910000D03*
X1500000Y-13180000D03*
X1500000Y-14450000D03*
X1500000Y-15720000D03*
D22*
X3550000Y-18310000D03*
D23*
X4190000Y-16210000D03*
D22*
X4820000Y-18310000D03*
D23*
X5460000Y-16210000D03*
D22*
X6090000Y-18310000D03*
D23*
X6730000Y-16210000D03*
D22*
X7360000Y-18310000D03*
D23*
X8000000Y-16210000D03*
D22*
X8630000Y-18310000D03*
D23*
X9270000Y-16210000D03*
D22*
X9900000Y-18310000D03*
D23*
X10540000Y-16210000D03*
D22*
X11170000Y-18310000D03*
D23*
X11810000Y-16210000D03*
D22*
X12440000Y-18310000D03*
D21*
X14500000Y-15720000D03*
X14500000Y-14450000D03*
D23*
X12410000Y-13810000D03*
D21*
X14500000Y-13180000D03*
D23*
X12410000Y-12540000D03*
D21*
X14500000Y-11910000D03*
D23*
X12410000Y-11270000D03*
D21*
X14500000Y-10640000D03*
D23*
X12410000Y-10000000D03*
D21*
X14500000Y-9370000D03*
D23*
X12410000Y-8730000D03*
D21*
X14500000Y-8100000D03*
D23*
X12410000Y-7460000D03*
D21*
X14500000Y-6830000D03*
D23*
X12410000Y-6190000D03*
D21*
X14500000Y-5560000D03*
D23*
X12400000Y-4920000D03*
D21*
X14500000Y-4290000D03*
%TD*%
M02*
