%TF.GenerationSoftware,KiCad,Pcbnew,10.0.6*%
%TF.CreationDate,2026-10-03T22:42:20+02:00*%
%TF.ProjectId,openrz67-nrf,6f70656e-727a-4363-972d-6e72662e6b69,A*%
%TF.SameCoordinates,Original*%
%TF.FileFunction,Drillmap*%
%TF.FilePolarity,Positive*%
%FSLAX45Y45*%
G04 Gerber Fmt 4.5, Leading zero omitted, Abs format (unit mm)*
G04 Created by KiCad (PCBNEW 10.0.6) date 2026-10-03 22:42:20*
%MOMM*%
%LPD*%
G01*
G04 APERTURE LIST*
%ADD10C,0.100000*%
%ADD11C,0.200000*%
G04 APERTURE END LIST*
D10*
X0Y-80000D02*
G75*
G02*
X80000Y0I80000J0D01*
G01*
X0Y-2920000D02*
X0Y-80000D01*
X80000Y0D02*
X3020000Y0D01*
X80000Y-3000000D02*
G75*
G02*
X0Y-2920000I0J80000D01*
G01*
X3020000Y0D02*
G75*
G02*
X3100000Y-80000I0J-80000D01*
G01*
X3020000Y-3000000D02*
X80000Y-3000000D01*
X3100000Y-80000D02*
X3100000Y-2920000D01*
X3100000Y-2920000D02*
G75*
G02*
X3020000Y-3000000I-80000J0D01*
G01*
D11*
D10*
X392500Y-2017500D02*
X417500Y-2042500D01*
X417500Y-2017500D02*
X392500Y-2042500D01*
X587500Y-2217500D02*
X612500Y-2242500D01*
X612500Y-2217500D02*
X587500Y-2242500D01*
X757500Y-2917500D02*
X782500Y-2942500D01*
X782500Y-2917500D02*
X757500Y-2942500D01*
X1188500Y-2407500D02*
X1213500Y-2432500D01*
X1213500Y-2407500D02*
X1188500Y-2432500D01*
X2787500Y-1917500D02*
X2812500Y-1942500D01*
X2812500Y-1917500D02*
X2787500Y-1942500D01*
X2917500Y-747500D02*
X2942500Y-772500D01*
X2942500Y-747500D02*
X2917500Y-772500D01*
D11*
X255777Y-3316484D02*
X255777Y-3116484D01*
X255777Y-3116484D02*
X303396Y-3116484D01*
X303396Y-3116484D02*
X331967Y-3126008D01*
X331967Y-3126008D02*
X351015Y-3145055D01*
X351015Y-3145055D02*
X360539Y-3164103D01*
X360539Y-3164103D02*
X370062Y-3202198D01*
X370062Y-3202198D02*
X370062Y-3230769D01*
X370062Y-3230769D02*
X360539Y-3268865D01*
X360539Y-3268865D02*
X351015Y-3287912D01*
X351015Y-3287912D02*
X331967Y-3306960D01*
X331967Y-3306960D02*
X303396Y-3316484D01*
X303396Y-3316484D02*
X255777Y-3316484D01*
X455777Y-3316484D02*
X455777Y-3183150D01*
X455777Y-3221246D02*
X465301Y-3202198D01*
X465301Y-3202198D02*
X474824Y-3192674D01*
X474824Y-3192674D02*
X493872Y-3183150D01*
X493872Y-3183150D02*
X512920Y-3183150D01*
X579586Y-3316484D02*
X579586Y-3183150D01*
X579586Y-3116484D02*
X570063Y-3126008D01*
X570063Y-3126008D02*
X579586Y-3135531D01*
X579586Y-3135531D02*
X589110Y-3126008D01*
X589110Y-3126008D02*
X579586Y-3116484D01*
X579586Y-3116484D02*
X579586Y-3135531D01*
X703396Y-3316484D02*
X684348Y-3306960D01*
X684348Y-3306960D02*
X674824Y-3287912D01*
X674824Y-3287912D02*
X674824Y-3116484D01*
X808158Y-3316484D02*
X789110Y-3306960D01*
X789110Y-3306960D02*
X779586Y-3287912D01*
X779586Y-3287912D02*
X779586Y-3116484D01*
X1036729Y-3316484D02*
X1036729Y-3116484D01*
X1036729Y-3116484D02*
X1103396Y-3259341D01*
X1103396Y-3259341D02*
X1170063Y-3116484D01*
X1170063Y-3116484D02*
X1170063Y-3316484D01*
X1351015Y-3316484D02*
X1351015Y-3211722D01*
X1351015Y-3211722D02*
X1341491Y-3192674D01*
X1341491Y-3192674D02*
X1322444Y-3183150D01*
X1322444Y-3183150D02*
X1284348Y-3183150D01*
X1284348Y-3183150D02*
X1265301Y-3192674D01*
X1351015Y-3306960D02*
X1331967Y-3316484D01*
X1331967Y-3316484D02*
X1284348Y-3316484D01*
X1284348Y-3316484D02*
X1265301Y-3306960D01*
X1265301Y-3306960D02*
X1255777Y-3287912D01*
X1255777Y-3287912D02*
X1255777Y-3268865D01*
X1255777Y-3268865D02*
X1265301Y-3249817D01*
X1265301Y-3249817D02*
X1284348Y-3240293D01*
X1284348Y-3240293D02*
X1331967Y-3240293D01*
X1331967Y-3240293D02*
X1351015Y-3230769D01*
X1446253Y-3183150D02*
X1446253Y-3383150D01*
X1446253Y-3192674D02*
X1465301Y-3183150D01*
X1465301Y-3183150D02*
X1503396Y-3183150D01*
X1503396Y-3183150D02*
X1522443Y-3192674D01*
X1522443Y-3192674D02*
X1531967Y-3202198D01*
X1531967Y-3202198D02*
X1541491Y-3221246D01*
X1541491Y-3221246D02*
X1541491Y-3278388D01*
X1541491Y-3278388D02*
X1531967Y-3297436D01*
X1531967Y-3297436D02*
X1522443Y-3306960D01*
X1522443Y-3306960D02*
X1503396Y-3316484D01*
X1503396Y-3316484D02*
X1465301Y-3316484D01*
X1465301Y-3316484D02*
X1446253Y-3306960D01*
X1627205Y-3297436D02*
X1636729Y-3306960D01*
X1636729Y-3306960D02*
X1627205Y-3316484D01*
X1627205Y-3316484D02*
X1617682Y-3306960D01*
X1617682Y-3306960D02*
X1627205Y-3297436D01*
X1627205Y-3297436D02*
X1627205Y-3316484D01*
X1627205Y-3192674D02*
X1636729Y-3202198D01*
X1636729Y-3202198D02*
X1627205Y-3211722D01*
X1627205Y-3211722D02*
X1617682Y-3202198D01*
X1617682Y-3202198D02*
X1627205Y-3192674D01*
X1627205Y-3192674D02*
X1627205Y-3211722D01*
D10*
X-30000Y-3632500D02*
X-5000Y-3657500D01*
X-5000Y-3632500D02*
X-30000Y-3657500D01*
D11*
X293872Y-3536484D02*
X312920Y-3536484D01*
X312920Y-3536484D02*
X331967Y-3546008D01*
X331967Y-3546008D02*
X341491Y-3555531D01*
X341491Y-3555531D02*
X351015Y-3574579D01*
X351015Y-3574579D02*
X360539Y-3612674D01*
X360539Y-3612674D02*
X360539Y-3660293D01*
X360539Y-3660293D02*
X351015Y-3698388D01*
X351015Y-3698388D02*
X341491Y-3717436D01*
X341491Y-3717436D02*
X331967Y-3726960D01*
X331967Y-3726960D02*
X312920Y-3736484D01*
X312920Y-3736484D02*
X293872Y-3736484D01*
X293872Y-3736484D02*
X274824Y-3726960D01*
X274824Y-3726960D02*
X265301Y-3717436D01*
X265301Y-3717436D02*
X255777Y-3698388D01*
X255777Y-3698388D02*
X246253Y-3660293D01*
X246253Y-3660293D02*
X246253Y-3612674D01*
X246253Y-3612674D02*
X255777Y-3574579D01*
X255777Y-3574579D02*
X265301Y-3555531D01*
X265301Y-3555531D02*
X274824Y-3546008D01*
X274824Y-3546008D02*
X293872Y-3536484D01*
X446253Y-3717436D02*
X455777Y-3726960D01*
X455777Y-3726960D02*
X446253Y-3736484D01*
X446253Y-3736484D02*
X436729Y-3726960D01*
X436729Y-3726960D02*
X446253Y-3717436D01*
X446253Y-3717436D02*
X446253Y-3736484D01*
X531967Y-3555531D02*
X541491Y-3546008D01*
X541491Y-3546008D02*
X560539Y-3536484D01*
X560539Y-3536484D02*
X608158Y-3536484D01*
X608158Y-3536484D02*
X627205Y-3546008D01*
X627205Y-3546008D02*
X636729Y-3555531D01*
X636729Y-3555531D02*
X646253Y-3574579D01*
X646253Y-3574579D02*
X646253Y-3593627D01*
X646253Y-3593627D02*
X636729Y-3622198D01*
X636729Y-3622198D02*
X522443Y-3736484D01*
X522443Y-3736484D02*
X646253Y-3736484D01*
X827205Y-3536484D02*
X731967Y-3536484D01*
X731967Y-3536484D02*
X722443Y-3631722D01*
X722443Y-3631722D02*
X731967Y-3622198D01*
X731967Y-3622198D02*
X751015Y-3612674D01*
X751015Y-3612674D02*
X798634Y-3612674D01*
X798634Y-3612674D02*
X817682Y-3622198D01*
X817682Y-3622198D02*
X827205Y-3631722D01*
X827205Y-3631722D02*
X836729Y-3650769D01*
X836729Y-3650769D02*
X836729Y-3698388D01*
X836729Y-3698388D02*
X827205Y-3717436D01*
X827205Y-3717436D02*
X817682Y-3726960D01*
X817682Y-3726960D02*
X798634Y-3736484D01*
X798634Y-3736484D02*
X751015Y-3736484D01*
X751015Y-3736484D02*
X731967Y-3726960D01*
X731967Y-3726960D02*
X722443Y-3717436D01*
X960539Y-3536484D02*
X979586Y-3536484D01*
X979586Y-3536484D02*
X998634Y-3546008D01*
X998634Y-3546008D02*
X1008158Y-3555531D01*
X1008158Y-3555531D02*
X1017682Y-3574579D01*
X1017682Y-3574579D02*
X1027205Y-3612674D01*
X1027205Y-3612674D02*
X1027205Y-3660293D01*
X1027205Y-3660293D02*
X1017682Y-3698388D01*
X1017682Y-3698388D02*
X1008158Y-3717436D01*
X1008158Y-3717436D02*
X998634Y-3726960D01*
X998634Y-3726960D02*
X979586Y-3736484D01*
X979586Y-3736484D02*
X960539Y-3736484D01*
X960539Y-3736484D02*
X941491Y-3726960D01*
X941491Y-3726960D02*
X931967Y-3717436D01*
X931967Y-3717436D02*
X922443Y-3698388D01*
X922443Y-3698388D02*
X912920Y-3660293D01*
X912920Y-3660293D02*
X912920Y-3612674D01*
X912920Y-3612674D02*
X922443Y-3574579D01*
X922443Y-3574579D02*
X931967Y-3555531D01*
X931967Y-3555531D02*
X941491Y-3546008D01*
X941491Y-3546008D02*
X960539Y-3536484D01*
X1112920Y-3736484D02*
X1112920Y-3603150D01*
X1112920Y-3622198D02*
X1122444Y-3612674D01*
X1122444Y-3612674D02*
X1141491Y-3603150D01*
X1141491Y-3603150D02*
X1170063Y-3603150D01*
X1170063Y-3603150D02*
X1189110Y-3612674D01*
X1189110Y-3612674D02*
X1198634Y-3631722D01*
X1198634Y-3631722D02*
X1198634Y-3736484D01*
X1198634Y-3631722D02*
X1208158Y-3612674D01*
X1208158Y-3612674D02*
X1227205Y-3603150D01*
X1227205Y-3603150D02*
X1255777Y-3603150D01*
X1255777Y-3603150D02*
X1274825Y-3612674D01*
X1274825Y-3612674D02*
X1284348Y-3631722D01*
X1284348Y-3631722D02*
X1284348Y-3736484D01*
X1379586Y-3736484D02*
X1379586Y-3603150D01*
X1379586Y-3622198D02*
X1389110Y-3612674D01*
X1389110Y-3612674D02*
X1408158Y-3603150D01*
X1408158Y-3603150D02*
X1436729Y-3603150D01*
X1436729Y-3603150D02*
X1455777Y-3612674D01*
X1455777Y-3612674D02*
X1465301Y-3631722D01*
X1465301Y-3631722D02*
X1465301Y-3736484D01*
X1465301Y-3631722D02*
X1474824Y-3612674D01*
X1474824Y-3612674D02*
X1493872Y-3603150D01*
X1493872Y-3603150D02*
X1522443Y-3603150D01*
X1522443Y-3603150D02*
X1541491Y-3612674D01*
X1541491Y-3612674D02*
X1551015Y-3631722D01*
X1551015Y-3631722D02*
X1551015Y-3736484D01*
X1941491Y-3526960D02*
X1770063Y-3784103D01*
X2198634Y-3536484D02*
X2217682Y-3536484D01*
X2217682Y-3536484D02*
X2236729Y-3546008D01*
X2236729Y-3546008D02*
X2246253Y-3555531D01*
X2246253Y-3555531D02*
X2255777Y-3574579D01*
X2255777Y-3574579D02*
X2265301Y-3612674D01*
X2265301Y-3612674D02*
X2265301Y-3660293D01*
X2265301Y-3660293D02*
X2255777Y-3698388D01*
X2255777Y-3698388D02*
X2246253Y-3717436D01*
X2246253Y-3717436D02*
X2236729Y-3726960D01*
X2236729Y-3726960D02*
X2217682Y-3736484D01*
X2217682Y-3736484D02*
X2198634Y-3736484D01*
X2198634Y-3736484D02*
X2179587Y-3726960D01*
X2179587Y-3726960D02*
X2170063Y-3717436D01*
X2170063Y-3717436D02*
X2160539Y-3698388D01*
X2160539Y-3698388D02*
X2151015Y-3660293D01*
X2151015Y-3660293D02*
X2151015Y-3612674D01*
X2151015Y-3612674D02*
X2160539Y-3574579D01*
X2160539Y-3574579D02*
X2170063Y-3555531D01*
X2170063Y-3555531D02*
X2179587Y-3546008D01*
X2179587Y-3546008D02*
X2198634Y-3536484D01*
X2351015Y-3717436D02*
X2360539Y-3726960D01*
X2360539Y-3726960D02*
X2351015Y-3736484D01*
X2351015Y-3736484D02*
X2341491Y-3726960D01*
X2341491Y-3726960D02*
X2351015Y-3717436D01*
X2351015Y-3717436D02*
X2351015Y-3736484D01*
X2484348Y-3536484D02*
X2503396Y-3536484D01*
X2503396Y-3536484D02*
X2522444Y-3546008D01*
X2522444Y-3546008D02*
X2531968Y-3555531D01*
X2531968Y-3555531D02*
X2541491Y-3574579D01*
X2541491Y-3574579D02*
X2551015Y-3612674D01*
X2551015Y-3612674D02*
X2551015Y-3660293D01*
X2551015Y-3660293D02*
X2541491Y-3698388D01*
X2541491Y-3698388D02*
X2531968Y-3717436D01*
X2531968Y-3717436D02*
X2522444Y-3726960D01*
X2522444Y-3726960D02*
X2503396Y-3736484D01*
X2503396Y-3736484D02*
X2484348Y-3736484D01*
X2484348Y-3736484D02*
X2465301Y-3726960D01*
X2465301Y-3726960D02*
X2455777Y-3717436D01*
X2455777Y-3717436D02*
X2446253Y-3698388D01*
X2446253Y-3698388D02*
X2436729Y-3660293D01*
X2436729Y-3660293D02*
X2436729Y-3612674D01*
X2436729Y-3612674D02*
X2446253Y-3574579D01*
X2446253Y-3574579D02*
X2455777Y-3555531D01*
X2455777Y-3555531D02*
X2465301Y-3546008D01*
X2465301Y-3546008D02*
X2484348Y-3536484D01*
X2674825Y-3536484D02*
X2693872Y-3536484D01*
X2693872Y-3536484D02*
X2712920Y-3546008D01*
X2712920Y-3546008D02*
X2722444Y-3555531D01*
X2722444Y-3555531D02*
X2731968Y-3574579D01*
X2731968Y-3574579D02*
X2741491Y-3612674D01*
X2741491Y-3612674D02*
X2741491Y-3660293D01*
X2741491Y-3660293D02*
X2731968Y-3698388D01*
X2731968Y-3698388D02*
X2722444Y-3717436D01*
X2722444Y-3717436D02*
X2712920Y-3726960D01*
X2712920Y-3726960D02*
X2693872Y-3736484D01*
X2693872Y-3736484D02*
X2674825Y-3736484D01*
X2674825Y-3736484D02*
X2655777Y-3726960D01*
X2655777Y-3726960D02*
X2646253Y-3717436D01*
X2646253Y-3717436D02*
X2636729Y-3698388D01*
X2636729Y-3698388D02*
X2627206Y-3660293D01*
X2627206Y-3660293D02*
X2627206Y-3612674D01*
X2627206Y-3612674D02*
X2636729Y-3574579D01*
X2636729Y-3574579D02*
X2646253Y-3555531D01*
X2646253Y-3555531D02*
X2655777Y-3546008D01*
X2655777Y-3546008D02*
X2674825Y-3536484D01*
X2836729Y-3736484D02*
X2874825Y-3736484D01*
X2874825Y-3736484D02*
X2893872Y-3726960D01*
X2893872Y-3726960D02*
X2903396Y-3717436D01*
X2903396Y-3717436D02*
X2922444Y-3688865D01*
X2922444Y-3688865D02*
X2931967Y-3650769D01*
X2931967Y-3650769D02*
X2931967Y-3574579D01*
X2931967Y-3574579D02*
X2922444Y-3555531D01*
X2922444Y-3555531D02*
X2912920Y-3546008D01*
X2912920Y-3546008D02*
X2893872Y-3536484D01*
X2893872Y-3536484D02*
X2855777Y-3536484D01*
X2855777Y-3536484D02*
X2836729Y-3546008D01*
X2836729Y-3546008D02*
X2827206Y-3555531D01*
X2827206Y-3555531D02*
X2817682Y-3574579D01*
X2817682Y-3574579D02*
X2817682Y-3622198D01*
X2817682Y-3622198D02*
X2827206Y-3641246D01*
X2827206Y-3641246D02*
X2836729Y-3650769D01*
X2836729Y-3650769D02*
X2855777Y-3660293D01*
X2855777Y-3660293D02*
X2893872Y-3660293D01*
X2893872Y-3660293D02*
X2912920Y-3650769D01*
X2912920Y-3650769D02*
X2922444Y-3641246D01*
X2922444Y-3641246D02*
X2931967Y-3622198D01*
X3046253Y-3622198D02*
X3027206Y-3612674D01*
X3027206Y-3612674D02*
X3017682Y-3603150D01*
X3017682Y-3603150D02*
X3008158Y-3584103D01*
X3008158Y-3584103D02*
X3008158Y-3574579D01*
X3008158Y-3574579D02*
X3017682Y-3555531D01*
X3017682Y-3555531D02*
X3027206Y-3546008D01*
X3027206Y-3546008D02*
X3046253Y-3536484D01*
X3046253Y-3536484D02*
X3084348Y-3536484D01*
X3084348Y-3536484D02*
X3103396Y-3546008D01*
X3103396Y-3546008D02*
X3112920Y-3555531D01*
X3112920Y-3555531D02*
X3122444Y-3574579D01*
X3122444Y-3574579D02*
X3122444Y-3584103D01*
X3122444Y-3584103D02*
X3112920Y-3603150D01*
X3112920Y-3603150D02*
X3103396Y-3612674D01*
X3103396Y-3612674D02*
X3084348Y-3622198D01*
X3084348Y-3622198D02*
X3046253Y-3622198D01*
X3046253Y-3622198D02*
X3027206Y-3631722D01*
X3027206Y-3631722D02*
X3017682Y-3641246D01*
X3017682Y-3641246D02*
X3008158Y-3660293D01*
X3008158Y-3660293D02*
X3008158Y-3698388D01*
X3008158Y-3698388D02*
X3017682Y-3717436D01*
X3017682Y-3717436D02*
X3027206Y-3726960D01*
X3027206Y-3726960D02*
X3046253Y-3736484D01*
X3046253Y-3736484D02*
X3084348Y-3736484D01*
X3084348Y-3736484D02*
X3103396Y-3726960D01*
X3103396Y-3726960D02*
X3112920Y-3717436D01*
X3112920Y-3717436D02*
X3122444Y-3698388D01*
X3122444Y-3698388D02*
X3122444Y-3660293D01*
X3122444Y-3660293D02*
X3112920Y-3641246D01*
X3112920Y-3641246D02*
X3103396Y-3631722D01*
X3103396Y-3631722D02*
X3084348Y-3622198D01*
X3198634Y-3536484D02*
X3198634Y-3574579D01*
X3274825Y-3536484D02*
X3274825Y-3574579D01*
X3570063Y-3812674D02*
X3560539Y-3803150D01*
X3560539Y-3803150D02*
X3541491Y-3774579D01*
X3541491Y-3774579D02*
X3531968Y-3755531D01*
X3531968Y-3755531D02*
X3522444Y-3726960D01*
X3522444Y-3726960D02*
X3512920Y-3679341D01*
X3512920Y-3679341D02*
X3512920Y-3641246D01*
X3512920Y-3641246D02*
X3522444Y-3593627D01*
X3522444Y-3593627D02*
X3531968Y-3565055D01*
X3531968Y-3565055D02*
X3541491Y-3546008D01*
X3541491Y-3546008D02*
X3560539Y-3517436D01*
X3560539Y-3517436D02*
X3570063Y-3507912D01*
X3731968Y-3536484D02*
X3693872Y-3536484D01*
X3693872Y-3536484D02*
X3674825Y-3546008D01*
X3674825Y-3546008D02*
X3665301Y-3555531D01*
X3665301Y-3555531D02*
X3646253Y-3584103D01*
X3646253Y-3584103D02*
X3636729Y-3622198D01*
X3636729Y-3622198D02*
X3636729Y-3698388D01*
X3636729Y-3698388D02*
X3646253Y-3717436D01*
X3646253Y-3717436D02*
X3655777Y-3726960D01*
X3655777Y-3726960D02*
X3674825Y-3736484D01*
X3674825Y-3736484D02*
X3712920Y-3736484D01*
X3712920Y-3736484D02*
X3731968Y-3726960D01*
X3731968Y-3726960D02*
X3741491Y-3717436D01*
X3741491Y-3717436D02*
X3751015Y-3698388D01*
X3751015Y-3698388D02*
X3751015Y-3650769D01*
X3751015Y-3650769D02*
X3741491Y-3631722D01*
X3741491Y-3631722D02*
X3731968Y-3622198D01*
X3731968Y-3622198D02*
X3712920Y-3612674D01*
X3712920Y-3612674D02*
X3674825Y-3612674D01*
X3674825Y-3612674D02*
X3655777Y-3622198D01*
X3655777Y-3622198D02*
X3646253Y-3631722D01*
X3646253Y-3631722D02*
X3636729Y-3650769D01*
X3989110Y-3736484D02*
X3989110Y-3536484D01*
X4074825Y-3736484D02*
X4074825Y-3631722D01*
X4074825Y-3631722D02*
X4065301Y-3612674D01*
X4065301Y-3612674D02*
X4046253Y-3603150D01*
X4046253Y-3603150D02*
X4017682Y-3603150D01*
X4017682Y-3603150D02*
X3998634Y-3612674D01*
X3998634Y-3612674D02*
X3989110Y-3622198D01*
X4198634Y-3736484D02*
X4179587Y-3726960D01*
X4179587Y-3726960D02*
X4170063Y-3717436D01*
X4170063Y-3717436D02*
X4160539Y-3698388D01*
X4160539Y-3698388D02*
X4160539Y-3641246D01*
X4160539Y-3641246D02*
X4170063Y-3622198D01*
X4170063Y-3622198D02*
X4179587Y-3612674D01*
X4179587Y-3612674D02*
X4198634Y-3603150D01*
X4198634Y-3603150D02*
X4227206Y-3603150D01*
X4227206Y-3603150D02*
X4246253Y-3612674D01*
X4246253Y-3612674D02*
X4255777Y-3622198D01*
X4255777Y-3622198D02*
X4265301Y-3641246D01*
X4265301Y-3641246D02*
X4265301Y-3698388D01*
X4265301Y-3698388D02*
X4255777Y-3717436D01*
X4255777Y-3717436D02*
X4246253Y-3726960D01*
X4246253Y-3726960D02*
X4227206Y-3736484D01*
X4227206Y-3736484D02*
X4198634Y-3736484D01*
X4379587Y-3736484D02*
X4360539Y-3726960D01*
X4360539Y-3726960D02*
X4351015Y-3707912D01*
X4351015Y-3707912D02*
X4351015Y-3536484D01*
X4531968Y-3726960D02*
X4512920Y-3736484D01*
X4512920Y-3736484D02*
X4474825Y-3736484D01*
X4474825Y-3736484D02*
X4455777Y-3726960D01*
X4455777Y-3726960D02*
X4446253Y-3707912D01*
X4446253Y-3707912D02*
X4446253Y-3631722D01*
X4446253Y-3631722D02*
X4455777Y-3612674D01*
X4455777Y-3612674D02*
X4474825Y-3603150D01*
X4474825Y-3603150D02*
X4512920Y-3603150D01*
X4512920Y-3603150D02*
X4531968Y-3612674D01*
X4531968Y-3612674D02*
X4541492Y-3631722D01*
X4541492Y-3631722D02*
X4541492Y-3650769D01*
X4541492Y-3650769D02*
X4446253Y-3669817D01*
X4617682Y-3726960D02*
X4636730Y-3736484D01*
X4636730Y-3736484D02*
X4674825Y-3736484D01*
X4674825Y-3736484D02*
X4693873Y-3726960D01*
X4693873Y-3726960D02*
X4703396Y-3707912D01*
X4703396Y-3707912D02*
X4703396Y-3698388D01*
X4703396Y-3698388D02*
X4693873Y-3679341D01*
X4693873Y-3679341D02*
X4674825Y-3669817D01*
X4674825Y-3669817D02*
X4646253Y-3669817D01*
X4646253Y-3669817D02*
X4627206Y-3660293D01*
X4627206Y-3660293D02*
X4617682Y-3641246D01*
X4617682Y-3641246D02*
X4617682Y-3631722D01*
X4617682Y-3631722D02*
X4627206Y-3612674D01*
X4627206Y-3612674D02*
X4646253Y-3603150D01*
X4646253Y-3603150D02*
X4674825Y-3603150D01*
X4674825Y-3603150D02*
X4693873Y-3612674D01*
X4770063Y-3812674D02*
X4779587Y-3803150D01*
X4779587Y-3803150D02*
X4798634Y-3774579D01*
X4798634Y-3774579D02*
X4808158Y-3755531D01*
X4808158Y-3755531D02*
X4817682Y-3726960D01*
X4817682Y-3726960D02*
X4827206Y-3679341D01*
X4827206Y-3679341D02*
X4827206Y-3641246D01*
X4827206Y-3641246D02*
X4817682Y-3593627D01*
X4817682Y-3593627D02*
X4808158Y-3565055D01*
X4808158Y-3565055D02*
X4798634Y-3546008D01*
X4798634Y-3546008D02*
X4779587Y-3517436D01*
X4779587Y-3517436D02*
X4770063Y-3507912D01*
M02*
