%TF.GenerationSoftware,KiCad,Pcbnew,10.0.6*%
%TF.CreationDate,2026-10-03T23:11:32+02:00*%
%TF.ProjectId,openrz67-nrf,6f70656e-727a-4363-972d-6e72662e6b69,A*%
%TF.SameCoordinates,Original*%
%TF.FileFunction,Legend,Top*%
%TF.FilePolarity,Positive*%
%FSLAX46Y46*%
G04 Gerber Fmt 4.6, Leading zero omitted, Abs format (unit mm)*
G04 Created by KiCad (PCBNEW 10.0.6) date 2026-10-03 23:11:32*
%MOMM*%
%LPD*%
G01*
G04 APERTURE LIST*
G04 Aperture macros list*
%AMRoundRect*
0 Rectangle with rounded corners*
0 $1 Rounding radius*
0 $2 $3 $4 $5 $6 $7 $8 $9 X,Y pos of 4 corners*
0 Add a 4 corners polygon primitive as box body*
4,1,4,$2,$3,$4,$5,$6,$7,$8,$9,$2,$3,0*
0 Add four circle primitives for the rounded corners*
1,1,$1+$1,$2,$3*
1,1,$1+$1,$4,$5*
1,1,$1+$1,$6,$7*
1,1,$1+$1,$8,$9*
0 Add four rect primitives between the rounded corners*
20,1,$1+$1,$2,$3,$4,$5,0*
20,1,$1+$1,$4,$5,$6,$7,0*
20,1,$1+$1,$6,$7,$8,$9,0*
20,1,$1+$1,$8,$9,$2,$3,0*%
G04 Aperture macros list end*
%ADD10C,0.254000*%
%ADD11C,0.152000*%
%ADD12C,0.200000*%
%ADD13C,0.150000*%
%ADD14C,0.250000*%
%ADD15C,0.060000*%
%ADD16RoundRect,0.051000X-0.400000X-0.850000X0.400000X-0.850000X0.400000X0.850000X-0.400000X0.850000X0*%
%ADD17RoundRect,0.051000X0.400000X-0.750000X0.400000X0.750000X-0.400000X0.750000X-0.400000X-0.750000X0*%
%ADD18RoundRect,0.051000X-0.282750X-0.270000X0.282750X-0.270000X0.282750X0.270000X-0.282750X0.270000X0*%
%ADD19RoundRect,0.051000X0.400000X-0.400000X0.400000X0.400000X-0.400000X0.400000X-0.400000X-0.400000X0*%
%ADD20RoundRect,0.051000X-1.000000X0.450000X-1.000000X-0.450000X1.000000X-0.450000X1.000000X0.450000X0*%
%ADD21RoundRect,0.051000X-0.450000X-1.000000X0.450000X-1.000000X0.450000X1.000000X-0.450000X1.000000X0*%
%ADD22RoundRect,0.051000X-0.450000X-0.450000X0.450000X-0.450000X0.450000X0.450000X-0.450000X0.450000X0*%
%ADD23RoundRect,0.051000X1.000000X-0.450000X1.000000X0.450000X-1.000000X0.450000X-1.000000X-0.450000X0*%
%ADD24RoundRect,0.051000X0.450000X-0.450000X0.450000X0.450000X-0.450000X0.450000X-0.450000X-0.450000X0*%
%ADD25RoundRect,0.051000X-0.395000X-0.270000X0.395000X-0.270000X0.395000X0.270000X-0.395000X0.270000X0*%
%ADD26RoundRect,0.351000X-0.450000X-0.800000X0.450000X-0.800000X0.450000X0.800000X-0.450000X0.800000X0*%
%ADD27RoundRect,0.051000X-0.270000X0.282750X-0.270000X-0.282750X0.270000X-0.282750X0.270000X0.282750X0*%
%ADD28RoundRect,0.051000X-0.300000X-0.775000X0.300000X-0.775000X0.300000X0.775000X-0.300000X0.775000X0*%
%ADD29RoundRect,0.051000X-0.600000X-0.900000X0.600000X-0.900000X0.600000X0.900000X-0.600000X0.900000X0*%
%ADD30RoundRect,0.051000X0.864000X-0.742500X0.864000X0.742500X-0.864000X0.742500X-0.864000X-0.742500X0*%
G04 APERTURE END LIST*
%TO.C,SW1*%
D10*
X4500000Y-27250000D02*
X7500000Y-27250000D01*
X4500000Y-27250000D02*
X7500000Y-27250000D01*
X4500000Y-27419000D02*
X4500000Y-27250000D01*
X4500000Y-29750000D02*
X4500000Y-29587000D01*
X4500000Y-29750000D02*
X7500000Y-29750000D01*
X7500000Y-27250000D02*
X7500000Y-27419000D01*
X7500000Y-29581000D02*
X7500000Y-29750000D01*
X7500000Y-29750000D02*
X4500000Y-29750000D01*
X6800000Y-28500000D02*
G75*
G02*
X5200000Y-28500000I-800000J0D01*
G01*
X5200000Y-28500000D02*
G75*
G02*
X6800000Y-28500000I800000J0D01*
G01*
%TO.C,U3*%
D11*
X23200000Y-7700000D02*
X26800000Y-7700000D01*
X23200000Y-12300000D02*
X23200000Y-7700000D01*
X23200000Y-12300000D02*
X26800000Y-12300000D01*
X26800000Y-12300000D02*
X26800000Y-7700000D01*
D12*
X27300000Y-6500000D02*
G75*
G02*
X27100000Y-6500000I-100000J0D01*
G01*
X27100000Y-6500000D02*
G75*
G02*
X27300000Y-6500000I100000J0D01*
G01*
%TO.C,U2*%
D11*
X18200000Y-7700000D02*
X21800000Y-7700000D01*
X18200000Y-12300000D02*
X18200000Y-7700000D01*
X18200000Y-12300000D02*
X21800000Y-12300000D01*
X21800000Y-12300000D02*
X21800000Y-7700000D01*
D12*
X22300000Y-6500000D02*
G75*
G02*
X22100000Y-6500000I-100000J0D01*
G01*
X22100000Y-6500000D02*
G75*
G02*
X22300000Y-6500000I100000J0D01*
G01*
%TO.C,D1*%
D13*
X8910500Y-28145500D02*
X9210500Y-27845500D01*
X8910500Y-28246000D02*
X8910500Y-28145500D01*
X8910500Y-28246000D02*
X8910500Y-28946000D01*
X8910500Y-28946000D02*
X8910500Y-29046000D01*
X8910500Y-29046000D02*
X9210500Y-29346000D01*
X10260500Y-27845500D02*
X9210500Y-27845500D01*
X10260500Y-29346000D02*
X9210500Y-29346000D01*
X10610500Y-28923500D02*
X10280500Y-28593500D01*
X10620500Y-28243500D02*
X10620500Y-28253500D01*
X10620500Y-28243500D02*
X10620500Y-28923500D01*
X10620500Y-28253500D02*
X10280500Y-28593500D01*
X10620500Y-28593500D02*
X10280500Y-28593500D01*
X10620500Y-28923500D02*
X10610500Y-28923500D01*
X10640500Y-27843500D02*
X11790500Y-27843500D01*
X10640500Y-29343500D02*
X11790500Y-29343500D01*
X11790500Y-27843500D02*
X11790500Y-29323500D01*
%TO.C,U1*%
D14*
X1500000Y-300000D02*
X14500000Y-300000D01*
X1500000Y-3650000D02*
X1500000Y-300000D01*
X1500000Y-4920000D02*
X1500000Y-4920000D01*
X1500000Y-6190000D02*
X1500000Y-6190000D01*
X1500000Y-7460000D02*
X1500000Y-7460000D01*
X1500000Y-8730000D02*
X1500000Y-8730000D01*
X1500000Y-10000000D02*
X1500000Y-10000000D01*
X1500000Y-11270000D02*
X1500000Y-11270000D01*
X1500000Y-12540000D02*
X1500000Y-12540000D01*
X1500000Y-13810000D02*
X1500000Y-13810000D01*
X1500000Y-15080000D02*
X1500000Y-15080000D01*
X1500000Y-18300000D02*
X1500000Y-16350000D01*
X2920000Y-900000D02*
X13080000Y-900000D01*
X2920000Y-3060000D02*
X2920000Y-900000D01*
X2920000Y-18300000D02*
X1500000Y-18300000D01*
X4190000Y-18300000D02*
X4190000Y-18300000D01*
X5460000Y-18300000D02*
X5460000Y-18300000D01*
X6730000Y-18300000D02*
X6730000Y-18300000D01*
X8000000Y-18300000D02*
X8000000Y-18300000D01*
X9270000Y-18300000D02*
X9270000Y-18300000D01*
X10540000Y-1660000D02*
X11940000Y-1660000D01*
X10540000Y-2170000D02*
X10540000Y-1660000D01*
X10540000Y-18300000D02*
X10540000Y-18300000D01*
X11810000Y-18300000D02*
X11810000Y-18300000D01*
X11940000Y-1660000D02*
X11940000Y-2170000D01*
X11940000Y-2170000D02*
X10540000Y-2170000D01*
X13080000Y-900000D02*
X13080000Y-3060000D01*
X13080000Y-3060000D02*
X2920000Y-3060000D01*
X14500000Y-3650000D02*
X14500000Y-300000D01*
X14500000Y-4920000D02*
X14500000Y-4920000D01*
X14500000Y-6190000D02*
X14500000Y-6190000D01*
X14500000Y-7460000D02*
X14500000Y-7460000D01*
X14500000Y-8730000D02*
X14500000Y-8730000D01*
X14500000Y-10000000D02*
X14500000Y-10000000D01*
X14500000Y-11270000D02*
X14500000Y-11270000D01*
X14500000Y-12540000D02*
X14500000Y-12540000D01*
X14500000Y-13810000D02*
X14500000Y-13810000D01*
X14500000Y-15080000D02*
X14500000Y-15080000D01*
X14500000Y-18300000D02*
X13080000Y-18300000D01*
X14500000Y-18300000D02*
X14500000Y-16350000D01*
X1130000Y-3430000D02*
G75*
G02*
X890000Y-3430000I-120000J0D01*
G01*
X890000Y-3430000D02*
G75*
G02*
X1130000Y-3430000I120000J0D01*
G01*
D15*
X1530000Y-320000D02*
G75*
G02*
X1470000Y-320000I-30000J0D01*
G01*
X1470000Y-320000D02*
G75*
G02*
X1530000Y-320000I30000J0D01*
G01*
%TO.C,J1*%
D14*
X18980000Y-25000000D02*
X18980000Y-27600000D01*
X19980000Y-29260000D02*
X23880000Y-29260000D01*
X20060000Y-25000000D02*
X18980000Y-25000000D01*
X24040000Y-25000000D02*
X24960000Y-25000000D01*
X24960000Y-25000000D02*
X24960000Y-27610000D01*
D15*
X19030000Y-24340000D02*
G75*
G02*
X18970000Y-24340000I-30000J0D01*
G01*
X18970000Y-24340000D02*
G75*
G02*
X19030000Y-24340000I30000J0D01*
G01*
D14*
X19630000Y-25490000D02*
G75*
G02*
X19370000Y-25490000I-130000J0D01*
G01*
X19370000Y-25490000D02*
G75*
G02*
X19630000Y-25490000I130000J0D01*
G01*
%TO.C,C1*%
D13*
X28210000Y-7590000D02*
X28210000Y-9070000D01*
X28210000Y-12410000D02*
X28210000Y-10930000D01*
X30240000Y-7440000D02*
X28360000Y-7440000D01*
X30240000Y-12560000D02*
X28360000Y-12560000D01*
X30390000Y-9070000D02*
X30390000Y-7590000D01*
X30390000Y-10930000D02*
X30390000Y-12410000D01*
X28210000Y-7590000D02*
G75*
G02*
X28360000Y-7440000I150000J0D01*
G01*
X28360000Y-12560000D02*
G75*
G02*
X28210000Y-12410000I0J150000D01*
G01*
X30240000Y-7440000D02*
G75*
G02*
X30390000Y-7590000I0J-150000D01*
G01*
X30390000Y-12410000D02*
G75*
G02*
X30240000Y-12560000I-150000J0D01*
G01*
D15*
X30130000Y-11600000D02*
G75*
G02*
X30070000Y-11600000I-30000J0D01*
G01*
X30070000Y-11600000D02*
G75*
G02*
X30130000Y-11600000I30000J0D01*
G01*
%TD*%
%LPC*%
D16*
%TO.C,SW1*%
X4300000Y-28500000D03*
X7700000Y-28500000D03*
%TD*%
D17*
%TO.C,U3*%
X26270000Y-6500000D03*
X23730000Y-6500000D03*
X23730000Y-13500000D03*
X26270000Y-13500000D03*
%TD*%
D18*
%TO.C,R2*%
X25407000Y-4000000D03*
X26273000Y-4000000D03*
%TD*%
D17*
%TO.C,U2*%
X21270000Y-6500000D03*
X18730000Y-6500000D03*
X18730000Y-13500000D03*
X21270000Y-13500000D03*
%TD*%
D19*
%TO.C,D1*%
X9600500Y-28600000D03*
X11199500Y-28600000D03*
%TD*%
D18*
%TO.C,R1*%
X20837000Y-4000000D03*
X21703000Y-4000000D03*
%TD*%
D20*
%TO.C,U1*%
X1500000Y-4290000D03*
X1500000Y-5560000D03*
X1500000Y-6800000D03*
X1500000Y-8100000D03*
X1500000Y-9370000D03*
X1500000Y-10640000D03*
X1500000Y-11910000D03*
X1500000Y-13180000D03*
X1500000Y-14450000D03*
X1500000Y-15720000D03*
D21*
X3550000Y-18310000D03*
D22*
X4190000Y-16210000D03*
D21*
X4820000Y-18310000D03*
D22*
X5460000Y-16210000D03*
D21*
X6090000Y-18310000D03*
D22*
X6730000Y-16210000D03*
D21*
X7360000Y-18310000D03*
D22*
X8000000Y-16210000D03*
D21*
X8630000Y-18310000D03*
D22*
X9270000Y-16210000D03*
D21*
X9900000Y-18310000D03*
D22*
X10540000Y-16210000D03*
D21*
X11170000Y-18310000D03*
D22*
X11810000Y-16210000D03*
D21*
X12440000Y-18310000D03*
D23*
X14500000Y-15720000D03*
X14500000Y-14450000D03*
D24*
X12410000Y-13810000D03*
D23*
X14500000Y-13180000D03*
D24*
X12410000Y-12540000D03*
D23*
X14500000Y-11910000D03*
D24*
X12410000Y-11270000D03*
D23*
X14500000Y-10640000D03*
D24*
X12410000Y-10000000D03*
D23*
X14500000Y-9370000D03*
D24*
X12410000Y-8730000D03*
D23*
X14500000Y-8100000D03*
D24*
X12410000Y-7460000D03*
D23*
X14500000Y-6830000D03*
D24*
X12410000Y-6190000D03*
D23*
X14500000Y-5560000D03*
D24*
X12400000Y-4920000D03*
D23*
X14500000Y-4290000D03*
%TD*%
D25*
%TO.C,C2*%
X8725000Y-20300000D03*
X9815000Y-20300000D03*
%TD*%
D26*
%TO.C,J2*%
X4389999Y-25500000D03*
X6929999Y-25500000D03*
X9469999Y-25500000D03*
X12009999Y-25500000D03*
%TD*%
D27*
%TO.C,R3*%
X12400000Y-27567000D03*
X12400000Y-28433000D03*
%TD*%
D28*
%TO.C,J1*%
X20500000Y-24860000D03*
X21500000Y-24860000D03*
X22500000Y-24860000D03*
X23500000Y-24860000D03*
D29*
X24800000Y-28740000D03*
X19200000Y-28740000D03*
%TD*%
D30*
%TO.C,C1*%
X29300000Y-11590000D03*
X29300000Y-8410000D03*
%TD*%
%LPD*%
M02*
