%TF.GenerationSoftware,KiCad,Pcbnew,10.0.6*%
%TF.CreationDate,2026-10-10T10:56:43+02:00*%
%TF.ProjectId,openrz67-nrf,6f70656e-727a-4363-972d-6e72662e6b69,A*%
%TF.SameCoordinates,Original*%
%TF.FileFunction,Copper,L1,Top*%
%TF.FilePolarity,Positive*%
%FSLAX46Y46*%
G04 Gerber Fmt 4.6, Leading zero omitted, Abs format (unit mm)*
G04 Created by KiCad (PCBNEW 10.0.6) date 2026-10-10 10:56:43*
%MOMM*%
%LPD*%
G01*
G04 APERTURE LIST*
G04 Aperture macros list*
%AMRoundRect*
0 Rectangle with rounded corners*
0 $1 Rounding radius*
0 $2 $3 $4 $5 $6 $7 $8 $9 X,Y pos of 4 corners*
0 Add a 4 corners polygon primitive as box body*
4,1,4,$2,$3,$4,$5,$6,$7,$8,$9,$2,$3,0*
0 Add four circle primitives for the rounded corners*
1,1,$1+$1,$2,$3*
1,1,$1+$1,$4,$5*
1,1,$1+$1,$6,$7*
1,1,$1+$1,$8,$9*
0 Add four rect primitives between the rounded corners*
20,1,$1+$1,$2,$3,$4,$5,0*
20,1,$1+$1,$4,$5,$6,$7,0*
20,1,$1+$1,$6,$7,$8,$9,0*
20,1,$1+$1,$8,$9,$2,$3,0*%
G04 Aperture macros list end*
%TA.AperFunction,SMDPad,CuDef*%
%ADD10R,0.565500X0.540000*%
%TD*%
%TA.AperFunction,SMDPad,CuDef*%
%ADD11R,1.200000X1.200000*%
%TD*%
%TA.AperFunction,SMDPad,CuDef*%
%ADD12R,1.300000X0.700000*%
%TD*%
%TA.AperFunction,SMDPad,CuDef*%
%ADD13R,0.700000X1.300000*%
%TD*%
%TA.AperFunction,SMDPad,CuDef*%
%ADD14R,0.950000X0.950000*%
%TD*%
%TA.AperFunction,SMDPad,CuDef*%
%ADD15R,1.728000X1.485000*%
%TD*%
%TA.AperFunction,SMDPad,CuDef*%
%ADD16RoundRect,0.150000X0.150000X-0.587500X0.150000X0.587500X-0.150000X0.587500X-0.150000X-0.587500X0*%
%TD*%
%TA.AperFunction,SMDPad,CuDef*%
%ADD17R,0.790000X0.540000*%
%TD*%
%TA.AperFunction,SMDPad,CuDef*%
%ADD18R,0.800000X0.800000*%
%TD*%
%TA.AperFunction,SMDPad,CuDef*%
%ADD19R,0.800000X1.500000*%
%TD*%
%TA.AperFunction,SMDPad,CuDef*%
%ADD20R,0.600000X1.550000*%
%TD*%
%TA.AperFunction,SMDPad,CuDef*%
%ADD21R,1.200000X1.800000*%
%TD*%
%TA.AperFunction,SMDPad,CuDef*%
%ADD22R,0.540000X0.565500*%
%TD*%
%TA.AperFunction,SMDPad,CuDef*%
%ADD23R,0.540000X0.790000*%
%TD*%
%TA.AperFunction,SMDPad,CuDef*%
%ADD24R,0.800000X1.700000*%
%TD*%
%TA.AperFunction,ViaPad*%
%ADD25C,0.450000*%
%TD*%
%TA.AperFunction,Conductor*%
%ADD26C,0.160000*%
%TD*%
%TA.AperFunction,Conductor*%
%ADD27C,0.250000*%
%TD*%
G04 APERTURE END LIST*
D10*
%TO.P,R2,1*%
%TO.N,S2_DRV*%
X23407000Y-4000000D03*
%TO.P,R2,2*%
%TO.N,S2_LED*%
X24273000Y-4000000D03*
%TD*%
D11*
%TO.P,U1,1*%
%TO.N,unconnected-(U1-P1.09-Pad1)*%
X1850000Y-6050000D03*
D12*
%TO.P,U1,2*%
%TO.N,unconnected-(U1-P1.10-Pad2)*%
X1850000Y-7350000D03*
%TO.P,U1,3*%
%TO.N,unconnected-(U1-P1.11-Pad3)*%
X1850000Y-8450000D03*
%TO.P,U1,4*%
%TO.N,unconnected-(U1-P1.12-Pad4)*%
X1850000Y-9550000D03*
%TO.P,U1,5*%
%TO.N,unconnected-(U1-P1.13-Pad5)*%
X1850000Y-10650000D03*
%TO.P,U1,6*%
%TO.N,unconnected-(U1-P1.14-Pad6)*%
X1850000Y-11750000D03*
%TO.P,U1,7*%
%TO.N,BTN*%
X1850000Y-12850000D03*
%TO.P,U1,8*%
%TO.N,unconnected-(U1-P1.02-Pad8)*%
X1850000Y-13950000D03*
%TO.P,U1,9*%
%TO.N,VDD*%
X1850000Y-15050000D03*
D11*
%TO.P,U1,10*%
%TO.N,GND*%
X1850000Y-16350000D03*
D13*
%TO.P,U1,11*%
%TO.N,SWCLK*%
X3150000Y-16350000D03*
%TO.P,U1,12*%
%TO.N,SWDIO*%
X4250000Y-16350000D03*
%TO.P,U1,13*%
%TO.N,unconnected-(U1-P1.03-Pad13)*%
X5350000Y-16350000D03*
%TO.P,U1,14*%
%TO.N,unconnected-(U1-P1.06-Pad14)*%
X6450000Y-16350000D03*
%TO.P,U1,15*%
%TO.N,unconnected-(U1-P1.05-Pad15)*%
X7550000Y-16350000D03*
%TO.P,U1,16*%
%TO.N,unconnected-(U1-P1.07-Pad16)*%
X8650000Y-16350000D03*
%TO.P,U1,17*%
%TO.N,unconnected-(U1-P1.08-Pad17)*%
X9750000Y-16350000D03*
%TO.P,U1,18*%
%TO.N,LED_DRV*%
X10850000Y-16350000D03*
D11*
%TO.P,U1,19*%
%TO.N,unconnected-(U1-nRESET-Pad19)*%
X12150000Y-16350000D03*
D12*
%TO.P,U1,20*%
%TO.N,unconnected-(U1-P2.01-Pad20)*%
X12150000Y-15050000D03*
%TO.P,U1,21*%
%TO.N,unconnected-(U1-P2.02-Pad21)*%
X12150000Y-13950000D03*
%TO.P,U1,22*%
%TO.N,unconnected-(U1-P2.03-Pad22)*%
X12150000Y-12850000D03*
%TO.P,U1,23*%
%TO.N,unconnected-(U1-P2.06-Pad23)*%
X12150000Y-11750000D03*
%TO.P,U1,24*%
%TO.N,unconnected-(U1-P2.08-Pad24)*%
X12150000Y-10650000D03*
%TO.P,U1,25*%
%TO.N,unconnected-(U1-P2.10-Pad25)*%
X12150000Y-9550000D03*
%TO.P,U1,26*%
%TO.N,unconnected-(U1-P0.01-Pad26)*%
X12150000Y-8450000D03*
%TO.P,U1,27*%
%TO.N,S1_DRV*%
X12150000Y-7350000D03*
D11*
%TO.P,U1,28*%
%TO.N,S2_DRV*%
X12150000Y-6050000D03*
D13*
%TO.P,U1,29*%
%TO.N,unconnected-(U1-P0.00-Pad29)*%
X10850000Y-6050000D03*
%TO.P,U1,30*%
%TO.N,GND*%
X9750000Y-6050000D03*
%TO.P,U1,31*%
X8650000Y-6050000D03*
%TO.P,U1,32*%
%TO.N,unconnected-(U1-P0.02-Pad32)*%
X7550000Y-6050000D03*
%TO.P,U1,33*%
%TO.N,unconnected-(U1-P0.04-Pad33)*%
X6450000Y-6050000D03*
%TO.P,U1,34*%
%TO.N,unconnected-(U1-P0.03-Pad34)*%
X5350000Y-6050000D03*
%TO.P,U1,35*%
%TO.N,unconnected-(U1-P2.09-Pad35)*%
X4250000Y-6050000D03*
%TO.P,U1,36*%
%TO.N,unconnected-(U1-P2.07-Pad36)*%
X3150000Y-6050000D03*
D14*
%TO.P,U1,37*%
%TO.N,GND*%
X6350000Y-10270000D03*
%TO.P,U1,38*%
X6350000Y-11670000D03*
%TO.P,U1,39*%
X7750000Y-11670000D03*
%TO.P,U1,40*%
X7750000Y-10270000D03*
%TD*%
D15*
%TO.P,C1,1*%
%TO.N,VBAT*%
X26500000Y-15410000D03*
%TO.P,C1,2*%
%TO.N,GND*%
X26500000Y-18590000D03*
%TD*%
D16*
%TO.P,Q1,1*%
%TO.N,GND*%
X4450000Y-22237500D03*
%TO.P,Q1,2*%
%TO.N,VDD*%
X6350000Y-22237500D03*
%TO.P,Q1,3*%
%TO.N,VBAT*%
X5400000Y-20362500D03*
%TD*%
D17*
%TO.P,C2,1*%
%TO.N,VDD*%
X8725000Y-20300000D03*
%TO.P,C2,2*%
%TO.N,GND*%
X9815000Y-20300000D03*
%TD*%
D18*
%TO.P,D1,1*%
%TO.N,GND*%
X18999500Y-27600000D03*
%TO.P,D1,2*%
%TO.N,LED_A*%
X17400500Y-27600000D03*
%TD*%
D19*
%TO.P,U3,1*%
%TO.N,S2_LED*%
X24270000Y-6500000D03*
%TO.P,U3,2*%
%TO.N,GND*%
X21730000Y-6500000D03*
%TO.P,U3,3*%
%TO.N,CAM_GND*%
X21730000Y-13500000D03*
%TO.P,U3,4*%
%TO.N,S2*%
X24270000Y-13500000D03*
%TD*%
D20*
%TO.P,J1,1*%
%TO.N,CAM_GND*%
X22100000Y-22760000D03*
%TO.P,J1,2*%
%TO.N,unconnected-(J1-Pad2)*%
X23100000Y-22760000D03*
%TO.P,J1,3*%
%TO.N,S1*%
X24100000Y-22760000D03*
%TO.P,J1,4*%
%TO.N,S2*%
X25100000Y-22760000D03*
D21*
%TO.P,J1,5*%
%TO.N,unconnected-(J1-Pad5)*%
X26400000Y-26640000D03*
%TO.P,J1,6*%
%TO.N,unconnected-(J1-Pad6)*%
X20800000Y-26640000D03*
%TD*%
D22*
%TO.P,R3,1*%
%TO.N,LED_DRV*%
X17400000Y-24967000D03*
%TO.P,R3,2*%
%TO.N,LED_A*%
X17400000Y-25833000D03*
%TD*%
D23*
%TO.P,C3,1*%
%TO.N,VDD*%
X1850000Y-18995000D03*
%TO.P,C3,2*%
%TO.N,GND*%
X1850000Y-17905000D03*
%TD*%
D19*
%TO.P,U2,1*%
%TO.N,S1_LED*%
X19870000Y-6500000D03*
%TO.P,U2,2*%
%TO.N,GND*%
X17330000Y-6500000D03*
%TO.P,U2,3*%
%TO.N,CAM_GND*%
X17330000Y-13500000D03*
%TO.P,U2,4*%
%TO.N,S1*%
X19870000Y-13500000D03*
%TD*%
D20*
%TO.P,J2,1*%
%TO.N,GND*%
X10800000Y-22760000D03*
%TO.P,J2,2*%
%TO.N,VDD*%
X11800000Y-22760000D03*
%TO.P,J2,3*%
%TO.N,SWCLK*%
X12800000Y-22760000D03*
%TO.P,J2,4*%
%TO.N,SWDIO*%
X13800000Y-22760000D03*
D21*
%TO.P,J2,5*%
%TO.N,N/C*%
X15100000Y-26640000D03*
%TO.P,J2,6*%
X9500000Y-26640000D03*
%TD*%
D10*
%TO.P,R1,1*%
%TO.N,S1_DRV*%
X19437000Y-4000000D03*
%TO.P,R1,2*%
%TO.N,S1_LED*%
X20303000Y-4000000D03*
%TD*%
D24*
%TO.P,SW1,1*%
%TO.N,BTN*%
X4300000Y-27600000D03*
%TO.P,SW1,2*%
%TO.N,GND*%
X7700000Y-27600000D03*
%TD*%
D25*
%TO.N,GND*%
X21000000Y-5200000D03*
X3800000Y-13500000D03*
X9500000Y-8000000D03*
X3800000Y-22800000D03*
X26500000Y-21000000D03*
X20800000Y-8800000D03*
X6800000Y-26500000D03*
X10500000Y-14000000D03*
X4000000Y-9000000D03*
X7000000Y-19700000D03*
X19800000Y-28300000D03*
%TO.N,VBAT*%
X3000000Y-20300000D03*
X26500000Y-14100000D03*
%TD*%
%TO.N,S2_DRV*%
D26*
X22300000Y-2300000D02*
X23410000Y-3400000D01*
X16600000Y-4450000D02*
X17900000Y-2300000D01*
X12150000Y-6050000D02*
X15000000Y-6050000D01*
X15000000Y-6050000D02*
X16600000Y-4450000D01*
X23410000Y-3400000D02*
X23410000Y-4000000D01*
X17900000Y-2300000D02*
X22300000Y-2300000D01*
%TO.N,S2_LED*%
X24270000Y-4000000D02*
X24270000Y-6500000D01*
%TO.N,BTN*%
X450000Y-27600000D02*
X4300000Y-27600000D01*
X1850000Y-12850000D02*
X450000Y-12850000D01*
X450000Y-12850000D02*
X450000Y-27600000D01*
%TO.N,VDD*%
D27*
X8720000Y-20300000D02*
X8720000Y-21200000D01*
X850000Y-23500000D02*
X6350000Y-23500000D01*
X850000Y-18995000D02*
X850000Y-23500000D01*
X850000Y-15050000D02*
X850000Y-18995000D01*
X6350000Y-22240000D02*
X6350000Y-21000000D01*
X7000000Y-20300000D02*
X8720000Y-20300000D01*
X6350000Y-23500000D02*
X6350000Y-22240000D01*
X8720000Y-21200000D02*
X11800000Y-21200000D01*
X6350000Y-21000000D02*
X7000000Y-20300000D01*
X1850000Y-15050000D02*
X850000Y-15050000D01*
X850000Y-18995000D02*
X1850000Y-18995000D01*
X11800000Y-21200000D02*
X11800000Y-22760000D01*
%TO.N,GND*%
X1850000Y-16350000D02*
X1850000Y-17905000D01*
D26*
X26500000Y-18590000D02*
X26500000Y-21000000D01*
D27*
X4450000Y-22600000D02*
X3800000Y-22800000D01*
%TO.N,SWCLK*%
D26*
X3150000Y-18300000D02*
X12800000Y-18300000D01*
X12800000Y-18300000D02*
X12800000Y-22760000D01*
X3150000Y-16350000D02*
X3150000Y-18300000D01*
%TO.N,SWDIO*%
X4250000Y-17950000D02*
X13800000Y-17950000D01*
X4250000Y-16350000D02*
X4250000Y-17950000D01*
X13800000Y-17950000D02*
X13800000Y-22760000D01*
%TO.N,LED_DRV*%
X16300000Y-17600000D02*
X16300000Y-24970000D01*
X10850000Y-16350000D02*
X10850000Y-17600000D01*
X16300000Y-24970000D02*
X17400000Y-24970000D01*
X10850000Y-17600000D02*
X16300000Y-17600000D01*
%TO.N,S1_DRV*%
X19000000Y-4000000D02*
X19440000Y-4000000D01*
X15900000Y-6850000D02*
X15900000Y-5600000D01*
X15900000Y-5600000D02*
X16500000Y-5000000D01*
X18400000Y-5000000D02*
X19000000Y-4000000D01*
X12150000Y-7350000D02*
X15400000Y-7350000D01*
X16500000Y-5000000D02*
X18400000Y-5000000D01*
X15400000Y-7350000D02*
X15900000Y-6850000D01*
%TO.N,VBAT*%
D27*
X3000000Y-20300000D02*
X5400000Y-20300000D01*
X26500000Y-14100000D02*
X26500000Y-15410000D01*
%TO.N,LED_A*%
D26*
X17400000Y-25830000D02*
X17400000Y-27600000D01*
%TO.N,CAM_GND*%
D27*
X21730000Y-13500000D02*
X21730000Y-11500000D01*
X17330000Y-13500000D02*
X17330000Y-15500000D01*
X21730000Y-11500000D02*
X17330000Y-11500000D01*
X17330000Y-15500000D02*
X19800000Y-18700000D01*
X19800000Y-20500000D02*
X22100000Y-22760000D01*
X17330000Y-11500000D02*
X17330000Y-13500000D01*
X19800000Y-18700000D02*
X19800000Y-20500000D01*
%TO.N,S2*%
X24270000Y-13500000D02*
X24270000Y-14300000D01*
X25100000Y-15100000D02*
X25100000Y-22760000D01*
X24270000Y-14300000D02*
X25100000Y-15100000D01*
%TO.N,S1*%
X21800000Y-19500000D02*
X24100000Y-21800000D01*
X24100000Y-21800000D02*
X24100000Y-22760000D01*
X19870000Y-13500000D02*
X19870000Y-15000000D01*
X19870000Y-15000000D02*
X21800000Y-17600000D01*
X21800000Y-17600000D02*
X21800000Y-19500000D01*
%TO.N,S1_LED*%
D26*
X20300000Y-4000000D02*
X19870000Y-5300000D01*
X19870000Y-5300000D02*
X19870000Y-6500000D01*
%TD*%
%TA.AperFunction,Conductor*%
%TO.N,GND*%
G36*
X28703487Y-300893D02*
G01*
X28741291Y-305152D01*
X28804149Y-312234D01*
X28817792Y-315347D01*
X28827676Y-318806D01*
X28910081Y-347641D01*
X28922689Y-353713D01*
X28937468Y-363000D01*
X29005470Y-405728D01*
X29016412Y-414454D01*
X29085545Y-483587D01*
X29094271Y-494529D01*
X29146285Y-577309D01*
X29152358Y-589918D01*
X29184651Y-682205D01*
X29187765Y-695850D01*
X29199107Y-796510D01*
X29199500Y-803508D01*
X29199500Y-28196488D01*
X29199107Y-28203486D01*
X29187764Y-28304150D01*
X29184650Y-28317794D01*
X29152359Y-28410078D01*
X29146286Y-28422688D01*
X29094270Y-28505470D01*
X29085544Y-28516412D01*
X29016412Y-28585544D01*
X29005470Y-28594270D01*
X28922688Y-28646286D01*
X28910078Y-28652359D01*
X28817794Y-28684650D01*
X28804150Y-28687764D01*
X28703487Y-28699107D01*
X28696489Y-28699500D01*
X8206226Y-28699500D01*
X8162032Y-28681194D01*
X8143726Y-28637000D01*
X8162032Y-28592806D01*
X8171503Y-28585033D01*
X8209586Y-28559586D01*
X8243180Y-28509309D01*
X8243181Y-28509307D01*
X8251999Y-28464972D01*
X8252000Y-28464972D01*
X8252000Y-27727000D01*
X7148000Y-27727000D01*
X7148000Y-28464972D01*
X7156818Y-28509307D01*
X7156819Y-28509309D01*
X7190413Y-28559586D01*
X7228497Y-28585033D01*
X7255073Y-28624807D01*
X7245741Y-28671723D01*
X7205967Y-28698299D01*
X7193774Y-28699500D01*
X4733795Y-28699500D01*
X4689601Y-28681194D01*
X4671295Y-28637000D01*
X4689601Y-28592806D01*
X4721600Y-28575701D01*
X4749748Y-28570102D01*
X4791922Y-28541922D01*
X4820102Y-28499748D01*
X4827500Y-28462558D01*
X4827500Y-26737442D01*
X4827020Y-26735027D01*
X7148000Y-26735027D01*
X7148000Y-27473000D01*
X7573000Y-27473000D01*
X7827000Y-27473000D01*
X8252000Y-27473000D01*
X8252000Y-26735028D01*
X8251999Y-26735027D01*
X8243181Y-26690692D01*
X8243180Y-26690690D01*
X8209586Y-26640413D01*
X8159309Y-26606819D01*
X8159307Y-26606818D01*
X8114972Y-26598000D01*
X7827000Y-26598000D01*
X7827000Y-27473000D01*
X7573000Y-27473000D01*
X7573000Y-26598000D01*
X7285028Y-26598000D01*
X7240692Y-26606818D01*
X7240690Y-26606819D01*
X7190413Y-26640413D01*
X7156819Y-26690690D01*
X7156818Y-26690692D01*
X7148000Y-26735027D01*
X4827020Y-26735027D01*
X4820102Y-26700252D01*
X4820101Y-26700250D01*
X4791922Y-26658077D01*
X4749748Y-26629898D01*
X4712558Y-26622500D01*
X3887442Y-26622500D01*
X3868847Y-26626199D01*
X3850251Y-26629898D01*
X3850250Y-26629898D01*
X3808077Y-26658077D01*
X3779898Y-26700250D01*
X3779898Y-26700251D01*
X3772500Y-26737442D01*
X3772500Y-27330000D01*
X3754194Y-27374194D01*
X3710000Y-27392500D01*
X720000Y-27392500D01*
X675806Y-27374194D01*
X657500Y-27330000D01*
X657500Y-25727442D01*
X8772500Y-25727442D01*
X8772500Y-27552557D01*
X8779898Y-27589748D01*
X8779898Y-27589749D01*
X8808077Y-27631922D01*
X8836257Y-27650750D01*
X8850252Y-27660102D01*
X8887442Y-27667500D01*
X8887443Y-27667500D01*
X10112557Y-27667500D01*
X10112558Y-27667500D01*
X10149748Y-27660102D01*
X10191922Y-27631922D01*
X10220102Y-27589748D01*
X10227500Y-27552558D01*
X10227500Y-25727442D01*
X14372500Y-25727442D01*
X14372500Y-27552557D01*
X14379898Y-27589748D01*
X14379898Y-27589749D01*
X14408077Y-27631922D01*
X14436257Y-27650750D01*
X14450252Y-27660102D01*
X14487442Y-27667500D01*
X14487443Y-27667500D01*
X15712557Y-27667500D01*
X15712558Y-27667500D01*
X15749748Y-27660102D01*
X15791922Y-27631922D01*
X15820102Y-27589748D01*
X15827500Y-27552558D01*
X15827500Y-25727442D01*
X15820102Y-25690252D01*
X15820101Y-25690250D01*
X15791922Y-25648077D01*
X15749748Y-25619898D01*
X15712558Y-25612500D01*
X14487442Y-25612500D01*
X14468847Y-25616199D01*
X14450251Y-25619898D01*
X14450250Y-25619898D01*
X14408077Y-25648077D01*
X14379898Y-25690250D01*
X14379898Y-25690251D01*
X14372500Y-25727442D01*
X10227500Y-25727442D01*
X10220102Y-25690252D01*
X10220101Y-25690250D01*
X10191922Y-25648077D01*
X10149748Y-25619898D01*
X10112558Y-25612500D01*
X8887442Y-25612500D01*
X8868847Y-25616199D01*
X8850251Y-25619898D01*
X8850250Y-25619898D01*
X8808077Y-25648077D01*
X8779898Y-25690250D01*
X8779898Y-25690251D01*
X8772500Y-25727442D01*
X657500Y-25727442D01*
X657500Y-23787105D01*
X675806Y-23742911D01*
X720000Y-23724605D01*
X743916Y-23729362D01*
X799775Y-23752500D01*
X6400224Y-23752500D01*
X6400225Y-23752500D01*
X6493030Y-23714059D01*
X6564059Y-23643030D01*
X6602500Y-23550225D01*
X6602500Y-23549972D01*
X10348000Y-23549972D01*
X10356818Y-23594307D01*
X10356819Y-23594309D01*
X10390413Y-23644586D01*
X10440690Y-23678180D01*
X10440692Y-23678181D01*
X10485027Y-23686999D01*
X10485028Y-23687000D01*
X10673000Y-23687000D01*
X10673000Y-22887000D01*
X10348000Y-22887000D01*
X10348000Y-23549972D01*
X6602500Y-23549972D01*
X6602500Y-23123813D01*
X6620806Y-23079619D01*
X6639754Y-23066639D01*
X6659542Y-23057903D01*
X6732903Y-22984542D01*
X6774808Y-22889634D01*
X6777499Y-22866441D01*
X6777500Y-22866439D01*
X6777500Y-21970027D01*
X10348000Y-21970027D01*
X10348000Y-22633000D01*
X10673000Y-22633000D01*
X10673000Y-21833000D01*
X10485028Y-21833000D01*
X10440692Y-21841818D01*
X10440690Y-21841819D01*
X10390413Y-21875413D01*
X10356819Y-21925690D01*
X10356818Y-21925692D01*
X10348000Y-21970027D01*
X6777500Y-21970027D01*
X6777500Y-21608560D01*
X6777499Y-21608558D01*
X6774809Y-21585370D01*
X6774807Y-21585364D01*
X6732905Y-21490461D01*
X6732902Y-21490457D01*
X6659542Y-21417097D01*
X6639753Y-21408359D01*
X6606720Y-21373761D01*
X6602500Y-21351185D01*
X6602500Y-21123697D01*
X6619200Y-21081169D01*
X6641672Y-21056969D01*
X6955066Y-20719467D01*
X7091562Y-20572472D01*
X7135049Y-20552543D01*
X7137362Y-20552500D01*
X8145229Y-20552500D01*
X8189423Y-20570806D01*
X8206528Y-20602806D01*
X8209898Y-20619748D01*
X8209898Y-20619749D01*
X8238077Y-20661922D01*
X8255070Y-20673276D01*
X8280252Y-20690102D01*
X8317442Y-20697500D01*
X8405000Y-20697500D01*
X8449194Y-20715806D01*
X8467500Y-20760000D01*
X8467500Y-21149775D01*
X8467500Y-21250225D01*
X8505941Y-21343030D01*
X8576970Y-21414059D01*
X8669775Y-21452500D01*
X11485000Y-21452500D01*
X11529194Y-21470806D01*
X11547500Y-21515000D01*
X11547500Y-21795000D01*
X11529194Y-21839194D01*
X11490310Y-21855300D01*
X11490498Y-21857199D01*
X11487443Y-21857499D01*
X11450251Y-21864898D01*
X11450250Y-21864898D01*
X11408077Y-21893077D01*
X11379898Y-21935250D01*
X11379898Y-21935252D01*
X11373789Y-21965962D01*
X11347212Y-22005735D01*
X11300296Y-22015067D01*
X11260523Y-21988490D01*
X11251191Y-21965961D01*
X11243181Y-21925692D01*
X11243180Y-21925690D01*
X11209586Y-21875413D01*
X11159309Y-21841819D01*
X11159307Y-21841818D01*
X11114972Y-21833000D01*
X10927000Y-21833000D01*
X10927000Y-23687000D01*
X11114972Y-23687000D01*
X11114972Y-23686999D01*
X11159307Y-23678181D01*
X11159309Y-23678180D01*
X11209586Y-23644586D01*
X11243180Y-23594309D01*
X11243181Y-23594307D01*
X11251191Y-23554038D01*
X11277767Y-23514264D01*
X11324683Y-23504932D01*
X11364457Y-23531508D01*
X11373789Y-23554037D01*
X11379898Y-23584748D01*
X11379898Y-23584749D01*
X11408077Y-23626922D01*
X11432185Y-23643030D01*
X11450252Y-23655102D01*
X11487442Y-23662500D01*
X11487443Y-23662500D01*
X12112557Y-23662500D01*
X12112558Y-23662500D01*
X12149748Y-23655102D01*
X12191922Y-23626922D01*
X12220102Y-23584748D01*
X12227500Y-23547558D01*
X12227500Y-21972442D01*
X12220102Y-21935252D01*
X12219302Y-21934054D01*
X12191922Y-21893077D01*
X12149748Y-21864898D01*
X12112556Y-21857499D01*
X12109502Y-21857199D01*
X12109689Y-21855300D01*
X12070806Y-21839194D01*
X12052500Y-21795000D01*
X12052500Y-21149776D01*
X12041698Y-21123697D01*
X12014059Y-21056970D01*
X11943030Y-20985941D01*
X11850225Y-20947500D01*
X11850224Y-20947500D01*
X9035000Y-20947500D01*
X8990806Y-20929194D01*
X8972500Y-20885000D01*
X8972500Y-20760000D01*
X8990806Y-20715806D01*
X9035000Y-20697500D01*
X9132557Y-20697500D01*
X9132558Y-20697500D01*
X9169748Y-20690102D01*
X9169749Y-20690101D01*
X9217041Y-20658502D01*
X9218300Y-20660387D01*
X9254218Y-20645501D01*
X9298416Y-20663798D01*
X9306196Y-20673276D01*
X9310411Y-20679584D01*
X9310412Y-20679585D01*
X9360690Y-20713180D01*
X9360692Y-20713181D01*
X9405027Y-20721999D01*
X9405028Y-20722000D01*
X9688000Y-20722000D01*
X9942000Y-20722000D01*
X10224972Y-20722000D01*
X10224972Y-20721999D01*
X10269307Y-20713181D01*
X10269309Y-20713180D01*
X10319586Y-20679586D01*
X10353180Y-20629309D01*
X10353181Y-20629307D01*
X10361999Y-20584972D01*
X10362000Y-20584967D01*
X10362000Y-20427000D01*
X9942000Y-20427000D01*
X9942000Y-20722000D01*
X9688000Y-20722000D01*
X9688000Y-20173000D01*
X9942000Y-20173000D01*
X10362000Y-20173000D01*
X10362000Y-20015028D01*
X10361999Y-20015027D01*
X10353181Y-19970692D01*
X10353180Y-19970690D01*
X10319586Y-19920413D01*
X10269309Y-19886819D01*
X10269307Y-19886818D01*
X10224972Y-19878000D01*
X9942000Y-19878000D01*
X9942000Y-20173000D01*
X9688000Y-20173000D01*
X9688000Y-19878000D01*
X9405028Y-19878000D01*
X9360692Y-19886818D01*
X9360690Y-19886819D01*
X9310413Y-19920414D01*
X9306195Y-19926726D01*
X9266419Y-19953298D01*
X9219503Y-19943962D01*
X9214138Y-19939558D01*
X9169748Y-19909898D01*
X9132558Y-19902500D01*
X8317442Y-19902500D01*
X8298847Y-19906199D01*
X8280251Y-19909898D01*
X8280250Y-19909898D01*
X8238077Y-19938077D01*
X8209898Y-19980250D01*
X8209898Y-19980251D01*
X8206528Y-19997194D01*
X8179952Y-20036967D01*
X8145229Y-20047500D01*
X7056328Y-20047500D01*
X7046413Y-20046709D01*
X7040842Y-20045813D01*
X6997988Y-20047401D01*
X6996484Y-20047457D01*
X6994173Y-20047500D01*
X6949775Y-20047500D01*
X6949774Y-20047500D01*
X6945093Y-20048430D01*
X6940462Y-20049532D01*
X6900094Y-20068031D01*
X6897975Y-20068955D01*
X6856972Y-20085939D01*
X6852992Y-20088597D01*
X6849147Y-20091379D01*
X6818934Y-20123916D01*
X6817355Y-20125554D01*
X6785941Y-20156970D01*
X6785937Y-20156974D01*
X6782806Y-20161660D01*
X6776643Y-20169459D01*
X6168934Y-20823915D01*
X6167329Y-20825580D01*
X6135941Y-20856968D01*
X6133286Y-20860941D01*
X6130794Y-20864989D01*
X6115334Y-20906604D01*
X6114490Y-20908753D01*
X6097499Y-20949776D01*
X6096574Y-20954423D01*
X6095813Y-20959157D01*
X6097457Y-21003512D01*
X6097500Y-21005826D01*
X6097500Y-21351185D01*
X6079194Y-21395379D01*
X6060247Y-21408359D01*
X6040457Y-21417097D01*
X5967097Y-21490457D01*
X5967094Y-21490461D01*
X5925192Y-21585364D01*
X5925190Y-21585370D01*
X5922500Y-21608558D01*
X5922500Y-22866441D01*
X5925190Y-22889629D01*
X5925192Y-22889635D01*
X5967094Y-22984538D01*
X5967097Y-22984542D01*
X6040455Y-23057901D01*
X6040456Y-23057901D01*
X6040458Y-23057903D01*
X6060243Y-23066638D01*
X6093278Y-23101232D01*
X6097500Y-23123813D01*
X6097500Y-23185000D01*
X6079194Y-23229194D01*
X6035000Y-23247500D01*
X4684462Y-23247500D01*
X4640268Y-23229194D01*
X4621962Y-23185000D01*
X4640268Y-23140806D01*
X4668057Y-23124691D01*
X4670342Y-23124069D01*
X4773628Y-23078463D01*
X4853463Y-22998628D01*
X4899070Y-22895339D01*
X4902000Y-22870086D01*
X4902000Y-22364500D01*
X3998001Y-22364500D01*
X3998001Y-22870086D01*
X4000930Y-22895341D01*
X4000930Y-22895342D01*
X4046536Y-22998628D01*
X4126371Y-23078463D01*
X4229665Y-23124072D01*
X4231950Y-23124694D01*
X4233115Y-23125595D01*
X4233959Y-23125968D01*
X4233866Y-23126176D01*
X4269786Y-23153963D01*
X4275843Y-23201413D01*
X4246574Y-23239249D01*
X4215537Y-23247500D01*
X1165000Y-23247500D01*
X1120806Y-23229194D01*
X1102500Y-23185000D01*
X1102500Y-21604913D01*
X3998000Y-21604913D01*
X3998000Y-22110500D01*
X4323000Y-22110500D01*
X4577000Y-22110500D01*
X4901999Y-22110500D01*
X4901999Y-21604913D01*
X4899069Y-21579658D01*
X4899069Y-21579657D01*
X4853463Y-21476371D01*
X4773628Y-21396536D01*
X4670339Y-21350929D01*
X4645087Y-21348000D01*
X4577000Y-21348000D01*
X4577000Y-22110500D01*
X4323000Y-22110500D01*
X4323000Y-21348000D01*
X4254913Y-21348000D01*
X4229658Y-21350930D01*
X4229657Y-21350930D01*
X4126371Y-21396536D01*
X4046536Y-21476371D01*
X4000929Y-21579660D01*
X3998000Y-21604913D01*
X1102500Y-21604913D01*
X1102500Y-20253593D01*
X2647500Y-20253593D01*
X2647500Y-20346406D01*
X2647501Y-20346414D01*
X2671521Y-20436059D01*
X2671522Y-20436062D01*
X2717929Y-20516439D01*
X2717934Y-20516445D01*
X2783554Y-20582065D01*
X2783560Y-20582070D01*
X2863937Y-20628477D01*
X2863940Y-20628478D01*
X2953592Y-20652500D01*
X2953593Y-20652500D01*
X3046407Y-20652500D01*
X3046408Y-20652500D01*
X3136060Y-20628478D01*
X3216440Y-20582070D01*
X3216445Y-20582065D01*
X3227705Y-20570806D01*
X3271899Y-20552500D01*
X4910000Y-20552500D01*
X4954194Y-20570806D01*
X4972500Y-20615000D01*
X4972500Y-20991441D01*
X4975190Y-21014629D01*
X4975192Y-21014635D01*
X5017094Y-21109538D01*
X5017097Y-21109542D01*
X5090457Y-21182902D01*
X5090461Y-21182905D01*
X5171358Y-21218623D01*
X5185366Y-21224808D01*
X5185367Y-21224808D01*
X5185370Y-21224809D01*
X5208558Y-21227499D01*
X5208561Y-21227500D01*
X5208568Y-21227500D01*
X5591439Y-21227500D01*
X5591441Y-21227499D01*
X5614629Y-21224809D01*
X5614630Y-21224808D01*
X5614634Y-21224808D01*
X5681526Y-21195272D01*
X5709538Y-21182905D01*
X5709538Y-21182904D01*
X5709542Y-21182903D01*
X5782903Y-21109542D01*
X5824808Y-21014634D01*
X5826099Y-21003512D01*
X5827499Y-20991441D01*
X5827500Y-20991439D01*
X5827500Y-19733560D01*
X5827499Y-19733558D01*
X5824809Y-19710370D01*
X5824807Y-19710364D01*
X5782905Y-19615461D01*
X5782902Y-19615457D01*
X5709542Y-19542097D01*
X5709538Y-19542094D01*
X5614635Y-19500192D01*
X5614629Y-19500190D01*
X5591440Y-19497500D01*
X5591432Y-19497500D01*
X5208568Y-19497500D01*
X5208560Y-19497500D01*
X5185370Y-19500190D01*
X5185364Y-19500192D01*
X5090461Y-19542094D01*
X5090457Y-19542097D01*
X5017097Y-19615457D01*
X5017094Y-19615461D01*
X4975192Y-19710364D01*
X4975190Y-19710370D01*
X4972500Y-19733558D01*
X4972500Y-19985000D01*
X4954194Y-20029194D01*
X4910000Y-20047500D01*
X3271899Y-20047500D01*
X3227705Y-20029194D01*
X3216445Y-20017934D01*
X3216439Y-20017929D01*
X3136062Y-19971522D01*
X3136059Y-19971521D01*
X3046414Y-19947501D01*
X3046409Y-19947500D01*
X3046408Y-19947500D01*
X2953592Y-19947500D01*
X2953591Y-19947500D01*
X2953585Y-19947501D01*
X2863940Y-19971521D01*
X2863937Y-19971522D01*
X2783560Y-20017929D01*
X2783554Y-20017934D01*
X2717934Y-20083554D01*
X2717929Y-20083560D01*
X2671522Y-20163937D01*
X2671521Y-20163940D01*
X2647501Y-20253585D01*
X2647500Y-20253593D01*
X1102500Y-20253593D01*
X1102500Y-19310000D01*
X1120806Y-19265806D01*
X1165000Y-19247500D01*
X1390000Y-19247500D01*
X1434194Y-19265806D01*
X1452500Y-19310000D01*
X1452500Y-19402557D01*
X1459898Y-19439748D01*
X1459898Y-19439749D01*
X1488077Y-19481922D01*
X1511392Y-19497500D01*
X1530252Y-19510102D01*
X1567442Y-19517500D01*
X1567443Y-19517500D01*
X2132557Y-19517500D01*
X2132558Y-19517500D01*
X2169748Y-19510102D01*
X2211922Y-19481922D01*
X2240102Y-19439748D01*
X2247500Y-19402558D01*
X2247500Y-18587442D01*
X2240102Y-18550252D01*
X2240101Y-18550250D01*
X2208502Y-18502959D01*
X2210385Y-18501700D01*
X2195501Y-18465768D01*
X2213807Y-18421574D01*
X2223279Y-18413801D01*
X2229585Y-18409587D01*
X2263180Y-18359309D01*
X2263181Y-18359307D01*
X2271999Y-18314972D01*
X2272000Y-18314972D01*
X2272000Y-18032000D01*
X1428000Y-18032000D01*
X1428000Y-18314972D01*
X1436818Y-18359307D01*
X1436819Y-18359309D01*
X1470414Y-18409587D01*
X1476722Y-18413802D01*
X1503297Y-18453576D01*
X1493964Y-18500492D01*
X1489560Y-18505858D01*
X1459898Y-18550250D01*
X1459898Y-18550251D01*
X1452500Y-18587442D01*
X1452500Y-18680000D01*
X1434194Y-18724194D01*
X1390000Y-18742500D01*
X1165000Y-18742500D01*
X1120806Y-18724194D01*
X1102500Y-18680000D01*
X1102500Y-17495027D01*
X1428000Y-17495027D01*
X1428000Y-17778000D01*
X1723000Y-17778000D01*
X1977000Y-17778000D01*
X2272000Y-17778000D01*
X2272000Y-17495028D01*
X2271999Y-17495027D01*
X2263181Y-17450692D01*
X2263180Y-17450690D01*
X2229586Y-17400413D01*
X2179309Y-17366819D01*
X2179307Y-17366818D01*
X2134972Y-17358000D01*
X1977000Y-17358000D01*
X1977000Y-17778000D01*
X1723000Y-17778000D01*
X1723000Y-17358000D01*
X1565028Y-17358000D01*
X1520692Y-17366818D01*
X1520690Y-17366819D01*
X1470413Y-17400413D01*
X1436819Y-17450690D01*
X1436818Y-17450692D01*
X1428000Y-17495027D01*
X1102500Y-17495027D01*
X1102500Y-15687442D01*
X2672500Y-15687442D01*
X2672500Y-17012558D01*
X2678341Y-17041921D01*
X2679898Y-17049748D01*
X2679898Y-17049749D01*
X2708077Y-17091922D01*
X2736257Y-17110750D01*
X2750252Y-17120102D01*
X2787442Y-17127500D01*
X2880000Y-17127500D01*
X2924194Y-17145806D01*
X2942500Y-17190000D01*
X2942500Y-18341274D01*
X2974090Y-18417539D01*
X3032461Y-18475910D01*
X3108726Y-18507500D01*
X3191274Y-18507500D01*
X12530000Y-18507500D01*
X12574194Y-18525806D01*
X12592500Y-18570000D01*
X12592500Y-21795000D01*
X12574194Y-21839194D01*
X12530000Y-21857500D01*
X12487442Y-21857500D01*
X12468847Y-21861199D01*
X12450251Y-21864898D01*
X12450250Y-21864898D01*
X12408077Y-21893077D01*
X12379898Y-21935250D01*
X12379898Y-21935251D01*
X12372500Y-21972442D01*
X12372500Y-23547557D01*
X12379898Y-23584748D01*
X12379898Y-23584749D01*
X12408077Y-23626922D01*
X12432185Y-23643030D01*
X12450252Y-23655102D01*
X12487442Y-23662500D01*
X12487443Y-23662500D01*
X13112557Y-23662500D01*
X13112558Y-23662500D01*
X13149748Y-23655102D01*
X13191922Y-23626922D01*
X13220102Y-23584748D01*
X13227500Y-23547558D01*
X13227500Y-21972442D01*
X13220102Y-21935252D01*
X13219302Y-21934054D01*
X13191922Y-21893077D01*
X13149748Y-21864898D01*
X13112558Y-21857500D01*
X13112557Y-21857500D01*
X13070000Y-21857500D01*
X13025806Y-21839194D01*
X13007500Y-21795000D01*
X13007500Y-18258726D01*
X13001366Y-18243917D01*
X13001367Y-18196082D01*
X13035192Y-18162257D01*
X13059109Y-18157500D01*
X13530000Y-18157500D01*
X13574194Y-18175806D01*
X13592500Y-18220000D01*
X13592500Y-21795000D01*
X13574194Y-21839194D01*
X13530000Y-21857500D01*
X13487442Y-21857500D01*
X13468847Y-21861199D01*
X13450251Y-21864898D01*
X13450250Y-21864898D01*
X13408077Y-21893077D01*
X13379898Y-21935250D01*
X13379898Y-21935251D01*
X13372500Y-21972442D01*
X13372500Y-23547557D01*
X13379898Y-23584748D01*
X13379898Y-23584749D01*
X13408077Y-23626922D01*
X13432185Y-23643030D01*
X13450252Y-23655102D01*
X13487442Y-23662500D01*
X13487443Y-23662500D01*
X14112557Y-23662500D01*
X14112558Y-23662500D01*
X14149748Y-23655102D01*
X14191922Y-23626922D01*
X14220102Y-23584748D01*
X14227500Y-23547558D01*
X14227500Y-21972442D01*
X14220102Y-21935252D01*
X14219302Y-21934054D01*
X14191922Y-21893077D01*
X14149748Y-21864898D01*
X14112558Y-21857500D01*
X14112557Y-21857500D01*
X14070000Y-21857500D01*
X14025806Y-21839194D01*
X14007500Y-21795000D01*
X14007500Y-17908726D01*
X14001366Y-17893917D01*
X14001367Y-17846082D01*
X14035192Y-17812257D01*
X14059109Y-17807500D01*
X16030000Y-17807500D01*
X16074194Y-17825806D01*
X16092500Y-17870000D01*
X16092500Y-24928726D01*
X16092500Y-25011274D01*
X16124090Y-25087539D01*
X16182461Y-25145910D01*
X16258726Y-25177500D01*
X16940000Y-25177500D01*
X16984194Y-25195806D01*
X17002500Y-25240000D01*
X17002500Y-25262307D01*
X17009898Y-25299498D01*
X17009898Y-25299499D01*
X17038077Y-25341671D01*
X17038078Y-25341672D01*
X17047598Y-25348033D01*
X17074173Y-25387807D01*
X17064841Y-25434724D01*
X17047598Y-25451966D01*
X17046215Y-25452890D01*
X17038077Y-25458328D01*
X17009898Y-25500500D01*
X17009898Y-25500501D01*
X17002500Y-25537692D01*
X17002500Y-26128307D01*
X17009898Y-26165498D01*
X17009898Y-26165499D01*
X17038077Y-26207672D01*
X17066257Y-26226500D01*
X17080252Y-26235852D01*
X17117442Y-26243250D01*
X17130000Y-26243250D01*
X17174194Y-26261556D01*
X17192500Y-26305750D01*
X17192500Y-27010000D01*
X17174194Y-27054194D01*
X17130000Y-27072500D01*
X16987942Y-27072500D01*
X16969347Y-27076199D01*
X16950751Y-27079898D01*
X16950750Y-27079898D01*
X16908577Y-27108077D01*
X16880398Y-27150250D01*
X16880398Y-27150251D01*
X16873000Y-27187442D01*
X16873000Y-28012557D01*
X16880398Y-28049748D01*
X16880398Y-28049749D01*
X16908577Y-28091922D01*
X16935014Y-28109586D01*
X16950752Y-28120102D01*
X16987942Y-28127500D01*
X16987943Y-28127500D01*
X17813057Y-28127500D01*
X17813058Y-28127500D01*
X17850248Y-28120102D01*
X17892422Y-28091922D01*
X17920602Y-28049748D01*
X17927520Y-28014972D01*
X18447500Y-28014972D01*
X18456318Y-28059307D01*
X18456319Y-28059309D01*
X18489913Y-28109586D01*
X18540190Y-28143180D01*
X18540192Y-28143181D01*
X18584527Y-28151999D01*
X18584528Y-28152000D01*
X18872500Y-28152000D01*
X19126500Y-28152000D01*
X19414472Y-28152000D01*
X19414472Y-28151999D01*
X19458807Y-28143181D01*
X19458809Y-28143180D01*
X19509086Y-28109586D01*
X19542680Y-28059309D01*
X19542681Y-28059307D01*
X19551499Y-28014972D01*
X19551500Y-28014972D01*
X19551500Y-27727000D01*
X19126500Y-27727000D01*
X19126500Y-28152000D01*
X18872500Y-28152000D01*
X18872500Y-27727000D01*
X18447500Y-27727000D01*
X18447500Y-28014972D01*
X17927520Y-28014972D01*
X17928000Y-28012558D01*
X17928000Y-27187442D01*
X17927520Y-27185027D01*
X18447500Y-27185027D01*
X18447500Y-27473000D01*
X18872500Y-27473000D01*
X19126500Y-27473000D01*
X19551500Y-27473000D01*
X19551500Y-27185028D01*
X19551499Y-27185027D01*
X19542681Y-27140692D01*
X19542680Y-27140690D01*
X19509086Y-27090413D01*
X19458809Y-27056819D01*
X19458807Y-27056818D01*
X19414472Y-27048000D01*
X19126500Y-27048000D01*
X19126500Y-27473000D01*
X18872500Y-27473000D01*
X18872500Y-27048000D01*
X18584528Y-27048000D01*
X18540192Y-27056818D01*
X18540190Y-27056819D01*
X18489913Y-27090413D01*
X18456319Y-27140690D01*
X18456318Y-27140692D01*
X18447500Y-27185027D01*
X17927520Y-27185027D01*
X17920602Y-27150252D01*
X17920601Y-27150250D01*
X17892422Y-27108077D01*
X17850248Y-27079898D01*
X17813058Y-27072500D01*
X17813057Y-27072500D01*
X17670000Y-27072500D01*
X17625806Y-27054194D01*
X17607500Y-27010000D01*
X17607500Y-26305750D01*
X17625806Y-26261556D01*
X17670000Y-26243250D01*
X17682557Y-26243250D01*
X17682558Y-26243250D01*
X17719748Y-26235852D01*
X17761922Y-26207672D01*
X17790102Y-26165498D01*
X17797500Y-26128308D01*
X17797500Y-25727442D01*
X20072500Y-25727442D01*
X20072500Y-27552557D01*
X20079898Y-27589748D01*
X20079898Y-27589749D01*
X20108077Y-27631922D01*
X20136257Y-27650750D01*
X20150252Y-27660102D01*
X20187442Y-27667500D01*
X20187443Y-27667500D01*
X21412557Y-27667500D01*
X21412558Y-27667500D01*
X21449748Y-27660102D01*
X21491922Y-27631922D01*
X21520102Y-27589748D01*
X21527500Y-27552558D01*
X21527500Y-25727442D01*
X25672500Y-25727442D01*
X25672500Y-27552557D01*
X25679898Y-27589748D01*
X25679898Y-27589749D01*
X25708077Y-27631922D01*
X25736257Y-27650750D01*
X25750252Y-27660102D01*
X25787442Y-27667500D01*
X25787443Y-27667500D01*
X27012557Y-27667500D01*
X27012558Y-27667500D01*
X27049748Y-27660102D01*
X27091922Y-27631922D01*
X27120102Y-27589748D01*
X27127500Y-27552558D01*
X27127500Y-25727442D01*
X27120102Y-25690252D01*
X27120101Y-25690250D01*
X27091922Y-25648077D01*
X27049748Y-25619898D01*
X27012558Y-25612500D01*
X25787442Y-25612500D01*
X25768847Y-25616199D01*
X25750251Y-25619898D01*
X25750250Y-25619898D01*
X25708077Y-25648077D01*
X25679898Y-25690250D01*
X25679898Y-25690251D01*
X25672500Y-25727442D01*
X21527500Y-25727442D01*
X21520102Y-25690252D01*
X21520101Y-25690250D01*
X21491922Y-25648077D01*
X21449748Y-25619898D01*
X21412558Y-25612500D01*
X20187442Y-25612500D01*
X20168847Y-25616199D01*
X20150251Y-25619898D01*
X20150250Y-25619898D01*
X20108077Y-25648077D01*
X20079898Y-25690250D01*
X20079898Y-25690251D01*
X20072500Y-25727442D01*
X17797500Y-25727442D01*
X17797500Y-25537692D01*
X17790102Y-25500502D01*
X17761922Y-25458328D01*
X17752402Y-25451967D01*
X17725826Y-25412194D01*
X17735157Y-25365278D01*
X17752401Y-25348033D01*
X17761922Y-25341672D01*
X17790102Y-25299498D01*
X17797500Y-25262308D01*
X17797500Y-24671692D01*
X17790102Y-24634502D01*
X17790101Y-24634500D01*
X17761922Y-24592327D01*
X17719748Y-24564148D01*
X17682558Y-24556750D01*
X17117442Y-24556750D01*
X17098847Y-24560449D01*
X17080251Y-24564148D01*
X17080250Y-24564148D01*
X17038077Y-24592327D01*
X17009898Y-24634500D01*
X17009898Y-24634501D01*
X17002500Y-24671692D01*
X17002500Y-24700000D01*
X16984194Y-24744194D01*
X16940000Y-24762500D01*
X16570000Y-24762500D01*
X16525806Y-24744194D01*
X16507500Y-24700000D01*
X16507500Y-17558727D01*
X16481115Y-17495028D01*
X16475910Y-17482461D01*
X16417539Y-17424090D01*
X16341274Y-17392500D01*
X16341273Y-17392500D01*
X11120000Y-17392500D01*
X11075806Y-17374194D01*
X11057500Y-17330000D01*
X11057500Y-17190000D01*
X11075806Y-17145806D01*
X11120000Y-17127500D01*
X11212557Y-17127500D01*
X11212558Y-17127500D01*
X11249748Y-17120102D01*
X11291922Y-17091922D01*
X11320102Y-17049748D01*
X11323516Y-17032581D01*
X11350091Y-16992809D01*
X11397007Y-16983476D01*
X11436781Y-17010051D01*
X11458076Y-17041921D01*
X11469789Y-17049747D01*
X11500252Y-17070102D01*
X11537442Y-17077500D01*
X11537443Y-17077500D01*
X12762557Y-17077500D01*
X12762558Y-17077500D01*
X12799748Y-17070102D01*
X12841922Y-17041922D01*
X12870102Y-16999748D01*
X12877500Y-16962558D01*
X12877500Y-15737442D01*
X12870102Y-15700252D01*
X12847949Y-15667097D01*
X12841921Y-15658076D01*
X12810051Y-15636781D01*
X12783476Y-15597007D01*
X12792809Y-15550091D01*
X12832581Y-15523516D01*
X12849748Y-15520102D01*
X12891922Y-15491922D01*
X12920102Y-15449748D01*
X12927500Y-15412558D01*
X12927500Y-14687442D01*
X12920102Y-14650252D01*
X12920101Y-14650250D01*
X12891922Y-14608077D01*
X12849748Y-14579898D01*
X12828026Y-14575577D01*
X12812558Y-14572500D01*
X11487442Y-14572500D01*
X11471974Y-14575577D01*
X11450251Y-14579898D01*
X11450250Y-14579898D01*
X11408077Y-14608077D01*
X11379898Y-14650250D01*
X11379898Y-14650251D01*
X11372500Y-14687442D01*
X11372500Y-15412557D01*
X11379898Y-15449748D01*
X11379898Y-15449749D01*
X11408077Y-15491922D01*
X11450250Y-15520101D01*
X11450251Y-15520101D01*
X11450252Y-15520102D01*
X11467416Y-15523516D01*
X11507190Y-15550091D01*
X11516523Y-15597007D01*
X11489949Y-15636781D01*
X11458077Y-15658077D01*
X11436781Y-15689949D01*
X11397007Y-15716523D01*
X11350090Y-15707190D01*
X11323516Y-15667416D01*
X11322888Y-15664260D01*
X11320102Y-15650252D01*
X11315277Y-15643031D01*
X11291922Y-15608077D01*
X11249748Y-15579898D01*
X11240061Y-15577971D01*
X11212558Y-15572500D01*
X10487442Y-15572500D01*
X10468847Y-15576199D01*
X10450251Y-15579898D01*
X10450250Y-15579898D01*
X10408077Y-15608077D01*
X10379898Y-15650250D01*
X10379898Y-15650251D01*
X10378341Y-15658077D01*
X10372500Y-15687442D01*
X10372500Y-17012558D01*
X10378341Y-17041921D01*
X10379898Y-17049748D01*
X10379898Y-17049749D01*
X10408077Y-17091922D01*
X10436257Y-17110750D01*
X10450252Y-17120102D01*
X10487442Y-17127500D01*
X10580000Y-17127500D01*
X10624194Y-17145806D01*
X10642500Y-17190000D01*
X10642500Y-17641273D01*
X10648634Y-17656083D01*
X10648633Y-17703918D01*
X10614808Y-17737743D01*
X10590891Y-17742500D01*
X4520000Y-17742500D01*
X4475806Y-17724194D01*
X4457500Y-17680000D01*
X4457500Y-17190000D01*
X4475806Y-17145806D01*
X4520000Y-17127500D01*
X4612557Y-17127500D01*
X4612558Y-17127500D01*
X4649748Y-17120102D01*
X4691922Y-17091922D01*
X4720102Y-17049748D01*
X4727500Y-17012558D01*
X4727500Y-15687442D01*
X4872500Y-15687442D01*
X4872500Y-17012558D01*
X4878341Y-17041921D01*
X4879898Y-17049748D01*
X4879898Y-17049749D01*
X4908077Y-17091922D01*
X4936257Y-17110750D01*
X4950252Y-17120102D01*
X4987442Y-17127500D01*
X4987443Y-17127500D01*
X5712557Y-17127500D01*
X5712558Y-17127500D01*
X5749748Y-17120102D01*
X5791922Y-17091922D01*
X5820102Y-17049748D01*
X5827500Y-17012558D01*
X5827500Y-15687442D01*
X5972500Y-15687442D01*
X5972500Y-17012558D01*
X5978341Y-17041921D01*
X5979898Y-17049748D01*
X5979898Y-17049749D01*
X6008077Y-17091922D01*
X6036257Y-17110750D01*
X6050252Y-17120102D01*
X6087442Y-17127500D01*
X6087443Y-17127500D01*
X6812557Y-17127500D01*
X6812558Y-17127500D01*
X6849748Y-17120102D01*
X6891922Y-17091922D01*
X6920102Y-17049748D01*
X6927500Y-17012558D01*
X6927500Y-15687442D01*
X7072500Y-15687442D01*
X7072500Y-17012558D01*
X7078341Y-17041921D01*
X7079898Y-17049748D01*
X7079898Y-17049749D01*
X7108077Y-17091922D01*
X7136257Y-17110750D01*
X7150252Y-17120102D01*
X7187442Y-17127500D01*
X7187443Y-17127500D01*
X7912557Y-17127500D01*
X7912558Y-17127500D01*
X7949748Y-17120102D01*
X7991922Y-17091922D01*
X8020102Y-17049748D01*
X8027500Y-17012558D01*
X8027500Y-15687442D01*
X8172500Y-15687442D01*
X8172500Y-17012558D01*
X8178341Y-17041921D01*
X8179898Y-17049748D01*
X8179898Y-17049749D01*
X8208077Y-17091922D01*
X8236257Y-17110750D01*
X8250252Y-17120102D01*
X8287442Y-17127500D01*
X8287443Y-17127500D01*
X9012557Y-17127500D01*
X9012558Y-17127500D01*
X9049748Y-17120102D01*
X9091922Y-17091922D01*
X9120102Y-17049748D01*
X9127500Y-17012558D01*
X9127500Y-15687442D01*
X9272500Y-15687442D01*
X9272500Y-17012558D01*
X9278341Y-17041921D01*
X9279898Y-17049748D01*
X9279898Y-17049749D01*
X9308077Y-17091922D01*
X9336257Y-17110750D01*
X9350252Y-17120102D01*
X9387442Y-17127500D01*
X9387443Y-17127500D01*
X10112557Y-17127500D01*
X10112558Y-17127500D01*
X10149748Y-17120102D01*
X10191922Y-17091922D01*
X10220102Y-17049748D01*
X10227500Y-17012558D01*
X10227500Y-15687442D01*
X10220102Y-15650252D01*
X10215277Y-15643031D01*
X10191922Y-15608077D01*
X10149748Y-15579898D01*
X10140061Y-15577971D01*
X10112558Y-15572500D01*
X9387442Y-15572500D01*
X9368847Y-15576199D01*
X9350251Y-15579898D01*
X9350250Y-15579898D01*
X9308077Y-15608077D01*
X9279898Y-15650250D01*
X9279898Y-15650251D01*
X9278341Y-15658077D01*
X9272500Y-15687442D01*
X9127500Y-15687442D01*
X9120102Y-15650252D01*
X9115277Y-15643031D01*
X9091922Y-15608077D01*
X9049748Y-15579898D01*
X9040061Y-15577971D01*
X9012558Y-15572500D01*
X8287442Y-15572500D01*
X8268847Y-15576199D01*
X8250251Y-15579898D01*
X8250250Y-15579898D01*
X8208077Y-15608077D01*
X8179898Y-15650250D01*
X8179898Y-15650251D01*
X8178341Y-15658077D01*
X8172500Y-15687442D01*
X8027500Y-15687442D01*
X8020102Y-15650252D01*
X8015277Y-15643031D01*
X7991922Y-15608077D01*
X7949748Y-15579898D01*
X7940061Y-15577971D01*
X7912558Y-15572500D01*
X7187442Y-15572500D01*
X7168847Y-15576199D01*
X7150251Y-15579898D01*
X7150250Y-15579898D01*
X7108077Y-15608077D01*
X7079898Y-15650250D01*
X7079898Y-15650251D01*
X7078341Y-15658077D01*
X7072500Y-15687442D01*
X6927500Y-15687442D01*
X6920102Y-15650252D01*
X6915277Y-15643031D01*
X6891922Y-15608077D01*
X6849748Y-15579898D01*
X6840061Y-15577971D01*
X6812558Y-15572500D01*
X6087442Y-15572500D01*
X6068847Y-15576199D01*
X6050251Y-15579898D01*
X6050250Y-15579898D01*
X6008077Y-15608077D01*
X5979898Y-15650250D01*
X5979898Y-15650251D01*
X5978341Y-15658077D01*
X5972500Y-15687442D01*
X5827500Y-15687442D01*
X5820102Y-15650252D01*
X5815277Y-15643031D01*
X5791922Y-15608077D01*
X5749748Y-15579898D01*
X5740061Y-15577971D01*
X5712558Y-15572500D01*
X4987442Y-15572500D01*
X4968847Y-15576199D01*
X4950251Y-15579898D01*
X4950250Y-15579898D01*
X4908077Y-15608077D01*
X4879898Y-15650250D01*
X4879898Y-15650251D01*
X4878341Y-15658077D01*
X4872500Y-15687442D01*
X4727500Y-15687442D01*
X4720102Y-15650252D01*
X4715277Y-15643031D01*
X4691922Y-15608077D01*
X4649748Y-15579898D01*
X4640061Y-15577971D01*
X4612558Y-15572500D01*
X3887442Y-15572500D01*
X3868847Y-15576199D01*
X3850251Y-15579898D01*
X3850250Y-15579898D01*
X3808077Y-15608077D01*
X3779898Y-15650250D01*
X3779898Y-15650251D01*
X3778341Y-15658077D01*
X3772500Y-15687442D01*
X3772500Y-17012558D01*
X3778341Y-17041921D01*
X3779898Y-17049748D01*
X3779898Y-17049749D01*
X3808077Y-17091922D01*
X3836257Y-17110750D01*
X3850252Y-17120102D01*
X3887442Y-17127500D01*
X3980000Y-17127500D01*
X4024194Y-17145806D01*
X4042500Y-17190000D01*
X4042500Y-17991273D01*
X4048634Y-18006083D01*
X4048633Y-18053918D01*
X4014808Y-18087743D01*
X3990891Y-18092500D01*
X3420000Y-18092500D01*
X3375806Y-18074194D01*
X3357500Y-18030000D01*
X3357500Y-17190000D01*
X3375806Y-17145806D01*
X3420000Y-17127500D01*
X3512557Y-17127500D01*
X3512558Y-17127500D01*
X3549748Y-17120102D01*
X3591922Y-17091922D01*
X3620102Y-17049748D01*
X3627500Y-17012558D01*
X3627500Y-15687442D01*
X3620102Y-15650252D01*
X3615277Y-15643031D01*
X3591922Y-15608077D01*
X3549748Y-15579898D01*
X3540061Y-15577971D01*
X3512558Y-15572500D01*
X2787442Y-15572500D01*
X2768847Y-15576199D01*
X2750251Y-15579898D01*
X2750250Y-15579898D01*
X2708077Y-15608077D01*
X2679898Y-15650250D01*
X2679898Y-15650251D01*
X2678341Y-15658077D01*
X2672500Y-15687442D01*
X1102500Y-15687442D01*
X1102500Y-15586760D01*
X1120806Y-15542566D01*
X1165000Y-15524260D01*
X1177188Y-15525460D01*
X1187442Y-15527500D01*
X1187444Y-15527500D01*
X2512557Y-15527500D01*
X2512558Y-15527500D01*
X2549748Y-15520102D01*
X2591922Y-15491922D01*
X2620102Y-15449748D01*
X2627500Y-15412558D01*
X2627500Y-14687442D01*
X2620102Y-14650252D01*
X2620101Y-14650250D01*
X2591922Y-14608077D01*
X2549748Y-14579898D01*
X2528026Y-14575577D01*
X2512558Y-14572500D01*
X1187442Y-14572500D01*
X1171974Y-14575577D01*
X1150251Y-14579898D01*
X1150250Y-14579898D01*
X1108077Y-14608077D01*
X1079898Y-14650250D01*
X1079898Y-14650251D01*
X1072500Y-14687442D01*
X1072500Y-14735000D01*
X1054194Y-14779194D01*
X1010000Y-14797500D01*
X799775Y-14797500D01*
X743917Y-14820637D01*
X696082Y-14820636D01*
X662257Y-14786811D01*
X657500Y-14762894D01*
X657500Y-13587442D01*
X1072500Y-13587442D01*
X1072500Y-14312557D01*
X1079898Y-14349748D01*
X1079898Y-14349749D01*
X1108077Y-14391922D01*
X1136257Y-14410750D01*
X1150252Y-14420102D01*
X1187442Y-14427500D01*
X1187443Y-14427500D01*
X2512557Y-14427500D01*
X2512558Y-14427500D01*
X2549748Y-14420102D01*
X2591922Y-14391922D01*
X2620102Y-14349748D01*
X2627500Y-14312558D01*
X2627500Y-13587442D01*
X11372500Y-13587442D01*
X11372500Y-14312557D01*
X11379898Y-14349748D01*
X11379898Y-14349749D01*
X11408077Y-14391922D01*
X11436257Y-14410750D01*
X11450252Y-14420102D01*
X11487442Y-14427500D01*
X11487443Y-14427500D01*
X12812557Y-14427500D01*
X12812558Y-14427500D01*
X12849748Y-14420102D01*
X12891922Y-14391922D01*
X12920102Y-14349748D01*
X12927500Y-14312558D01*
X12927500Y-13587442D01*
X12920102Y-13550252D01*
X12920101Y-13550250D01*
X12891922Y-13508077D01*
X12849748Y-13479898D01*
X12812558Y-13472500D01*
X11487442Y-13472500D01*
X11468847Y-13476199D01*
X11450251Y-13479898D01*
X11450250Y-13479898D01*
X11408077Y-13508077D01*
X11379898Y-13550250D01*
X11379898Y-13550251D01*
X11372500Y-13587442D01*
X2627500Y-13587442D01*
X2620102Y-13550252D01*
X2620101Y-13550250D01*
X2591922Y-13508077D01*
X2549748Y-13479898D01*
X2512558Y-13472500D01*
X1187442Y-13472500D01*
X1168847Y-13476199D01*
X1150251Y-13479898D01*
X1150250Y-13479898D01*
X1108077Y-13508077D01*
X1079898Y-13550250D01*
X1079898Y-13550251D01*
X1072500Y-13587442D01*
X657500Y-13587442D01*
X657500Y-13120000D01*
X675806Y-13075806D01*
X720000Y-13057500D01*
X1010000Y-13057500D01*
X1054194Y-13075806D01*
X1072500Y-13120000D01*
X1072500Y-13212557D01*
X1079898Y-13249748D01*
X1079898Y-13249749D01*
X1108077Y-13291922D01*
X1136257Y-13310750D01*
X1150252Y-13320102D01*
X1187442Y-13327500D01*
X1187443Y-13327500D01*
X2512557Y-13327500D01*
X2512558Y-13327500D01*
X2549748Y-13320102D01*
X2591922Y-13291922D01*
X2620102Y-13249748D01*
X2627500Y-13212558D01*
X2627500Y-12487442D01*
X11372500Y-12487442D01*
X11372500Y-13212557D01*
X11379898Y-13249748D01*
X11379898Y-13249749D01*
X11408077Y-13291922D01*
X11436257Y-13310750D01*
X11450252Y-13320102D01*
X11487442Y-13327500D01*
X11487443Y-13327500D01*
X12812557Y-13327500D01*
X12812558Y-13327500D01*
X12849748Y-13320102D01*
X12891922Y-13291922D01*
X12920102Y-13249748D01*
X12927500Y-13212558D01*
X12927500Y-12737442D01*
X16802500Y-12737442D01*
X16802500Y-14262557D01*
X16809898Y-14299748D01*
X16809898Y-14299749D01*
X16838077Y-14341922D01*
X16866257Y-14360750D01*
X16880252Y-14370102D01*
X16917442Y-14377500D01*
X17015000Y-14377500D01*
X17059194Y-14395806D01*
X17077500Y-14440000D01*
X17077500Y-15479809D01*
X17076988Y-15487789D01*
X17073153Y-15517570D01*
X17075324Y-15525578D01*
X17077500Y-15541926D01*
X17077500Y-15550223D01*
X17077501Y-15550229D01*
X17088991Y-15577971D01*
X17091572Y-15585536D01*
X17099428Y-15614523D01*
X17099429Y-15614525D01*
X17104499Y-15621093D01*
X17112765Y-15635363D01*
X17115941Y-15643031D01*
X17137171Y-15664260D01*
X17142454Y-15670266D01*
X17170955Y-15707190D01*
X19534476Y-18769241D01*
X19547500Y-18807429D01*
X19547500Y-20443840D01*
X19547040Y-20448727D01*
X19547498Y-20500902D01*
X19547500Y-20501450D01*
X19547500Y-20550280D01*
X19547659Y-20551043D01*
X19547778Y-20551623D01*
X19547931Y-20552395D01*
X19567029Y-20597381D01*
X19567241Y-20597886D01*
X19585958Y-20643074D01*
X19586406Y-20643731D01*
X19586716Y-20644190D01*
X19587167Y-20644866D01*
X19622048Y-20679140D01*
X19622340Y-20679429D01*
X19656091Y-20713180D01*
X19659284Y-20716373D01*
X19663088Y-20719466D01*
X21337237Y-22364500D01*
X21653805Y-22675562D01*
X21672498Y-22719594D01*
X21672500Y-22720142D01*
X21672500Y-23547557D01*
X21679898Y-23584748D01*
X21679898Y-23584749D01*
X21708077Y-23626922D01*
X21732185Y-23643030D01*
X21750252Y-23655102D01*
X21787442Y-23662500D01*
X21787443Y-23662500D01*
X22412557Y-23662500D01*
X22412558Y-23662500D01*
X22449748Y-23655102D01*
X22491922Y-23626922D01*
X22520102Y-23584748D01*
X22527500Y-23547558D01*
X22527500Y-21972442D01*
X22672500Y-21972442D01*
X22672500Y-23547557D01*
X22679898Y-23584748D01*
X22679898Y-23584749D01*
X22708077Y-23626922D01*
X22732185Y-23643030D01*
X22750252Y-23655102D01*
X22787442Y-23662500D01*
X22787443Y-23662500D01*
X23412557Y-23662500D01*
X23412558Y-23662500D01*
X23449748Y-23655102D01*
X23491922Y-23626922D01*
X23520102Y-23584748D01*
X23527500Y-23547558D01*
X23527500Y-21972442D01*
X23520102Y-21935252D01*
X23519302Y-21934054D01*
X23491922Y-21893077D01*
X23449748Y-21864898D01*
X23412558Y-21857500D01*
X22787442Y-21857500D01*
X22768847Y-21861199D01*
X22750251Y-21864898D01*
X22750250Y-21864898D01*
X22708077Y-21893077D01*
X22679898Y-21935250D01*
X22679898Y-21935251D01*
X22672500Y-21972442D01*
X22527500Y-21972442D01*
X22520102Y-21935252D01*
X22519302Y-21934054D01*
X22491922Y-21893077D01*
X22449748Y-21864898D01*
X22412558Y-21857500D01*
X21787442Y-21857500D01*
X21768847Y-21861199D01*
X21750251Y-21864898D01*
X21750250Y-21864898D01*
X21708077Y-21893078D01*
X21698453Y-21907480D01*
X21658678Y-21934054D01*
X21611762Y-21924719D01*
X21602683Y-21917334D01*
X20071195Y-20412480D01*
X20052502Y-20368448D01*
X20052500Y-20367900D01*
X20052500Y-18720190D01*
X20053012Y-18712210D01*
X20056846Y-18682428D01*
X20056845Y-18682427D01*
X20054676Y-18674420D01*
X20052500Y-18658073D01*
X20052500Y-18649775D01*
X20041004Y-18622023D01*
X20038426Y-18614461D01*
X20030572Y-18585479D01*
X20030571Y-18585475D01*
X20025498Y-18578903D01*
X20017234Y-18564635D01*
X20014059Y-18556970D01*
X19992826Y-18535737D01*
X19987544Y-18529732D01*
X19964974Y-18500492D01*
X17777947Y-15667097D01*
X17595524Y-15430759D01*
X17582500Y-15392570D01*
X17582500Y-14440000D01*
X17600806Y-14395806D01*
X17645000Y-14377500D01*
X17742557Y-14377500D01*
X17742558Y-14377500D01*
X17779748Y-14370102D01*
X17821922Y-14341922D01*
X17850102Y-14299748D01*
X17857500Y-14262558D01*
X17857500Y-12737442D01*
X19342500Y-12737442D01*
X19342500Y-14262557D01*
X19349898Y-14299748D01*
X19349898Y-14299749D01*
X19378077Y-14341922D01*
X19406257Y-14360750D01*
X19420252Y-14370102D01*
X19457442Y-14377500D01*
X19555000Y-14377500D01*
X19599194Y-14395806D01*
X19617500Y-14440000D01*
X19617500Y-14976835D01*
X19616827Y-14985980D01*
X19612868Y-15012740D01*
X19615620Y-15023703D01*
X19617500Y-15038917D01*
X19617500Y-15050226D01*
X19627855Y-15075226D01*
X19630732Y-15083930D01*
X19637317Y-15110171D01*
X19637317Y-15110172D01*
X19644058Y-15119253D01*
X19651614Y-15132585D01*
X19655939Y-15143027D01*
X19655942Y-15143031D01*
X19675071Y-15162160D01*
X19681062Y-15169102D01*
X21535185Y-17666884D01*
X21547500Y-17704135D01*
X21547500Y-19449775D01*
X21547500Y-19550225D01*
X21574522Y-19615461D01*
X21585941Y-19643030D01*
X23730904Y-21787993D01*
X23749210Y-21832187D01*
X23730904Y-21876381D01*
X23721433Y-21884154D01*
X23708077Y-21893077D01*
X23679898Y-21935250D01*
X23679898Y-21935251D01*
X23672500Y-21972442D01*
X23672500Y-23547557D01*
X23679898Y-23584748D01*
X23679898Y-23584749D01*
X23708077Y-23626922D01*
X23732185Y-23643030D01*
X23750252Y-23655102D01*
X23787442Y-23662500D01*
X23787443Y-23662500D01*
X24412557Y-23662500D01*
X24412558Y-23662500D01*
X24449748Y-23655102D01*
X24491922Y-23626922D01*
X24520102Y-23584748D01*
X24527500Y-23547558D01*
X24527500Y-21972442D01*
X24520102Y-21935252D01*
X24519302Y-21934054D01*
X24491922Y-21893077D01*
X24449748Y-21864898D01*
X24412556Y-21857499D01*
X24409502Y-21857199D01*
X24409689Y-21855300D01*
X24370806Y-21839194D01*
X24352500Y-21795000D01*
X24352500Y-21749776D01*
X24352500Y-21749775D01*
X24314059Y-21656970D01*
X24243030Y-21585941D01*
X22070806Y-19413717D01*
X22052500Y-19369523D01*
X22052500Y-17623171D01*
X22053173Y-17614026D01*
X22057132Y-17587259D01*
X22054379Y-17576287D01*
X22052500Y-17561076D01*
X22052500Y-17549775D01*
X22052499Y-17549772D01*
X22042149Y-17524785D01*
X22039271Y-17516080D01*
X22032683Y-17489830D01*
X22032682Y-17489828D01*
X22025942Y-17480748D01*
X22018385Y-17467414D01*
X22014060Y-17456972D01*
X22014059Y-17456971D01*
X22014059Y-17456970D01*
X21994928Y-17437839D01*
X21988937Y-17430897D01*
X21966308Y-17400413D01*
X20682007Y-15670266D01*
X20134815Y-14933116D01*
X20122500Y-14895864D01*
X20122500Y-14440000D01*
X20140806Y-14395806D01*
X20185000Y-14377500D01*
X20282557Y-14377500D01*
X20282558Y-14377500D01*
X20319748Y-14370102D01*
X20361922Y-14341922D01*
X20390102Y-14299748D01*
X20397500Y-14262558D01*
X20397500Y-12737442D01*
X20390102Y-12700252D01*
X20390101Y-12700250D01*
X20361922Y-12658077D01*
X20319748Y-12629898D01*
X20282558Y-12622500D01*
X19457442Y-12622500D01*
X19438847Y-12626199D01*
X19420251Y-12629898D01*
X19420250Y-12629898D01*
X19378077Y-12658077D01*
X19349898Y-12700250D01*
X19349898Y-12700251D01*
X19342500Y-12737442D01*
X17857500Y-12737442D01*
X17850102Y-12700252D01*
X17850101Y-12700250D01*
X17821922Y-12658077D01*
X17779748Y-12629898D01*
X17742558Y-12622500D01*
X17742557Y-12622500D01*
X17645000Y-12622500D01*
X17600806Y-12604194D01*
X17582500Y-12560000D01*
X17582500Y-11815000D01*
X17600806Y-11770806D01*
X17645000Y-11752500D01*
X21415000Y-11752500D01*
X21459194Y-11770806D01*
X21477500Y-11815000D01*
X21477500Y-12560000D01*
X21459194Y-12604194D01*
X21415000Y-12622500D01*
X21317442Y-12622500D01*
X21298847Y-12626199D01*
X21280251Y-12629898D01*
X21280250Y-12629898D01*
X21238077Y-12658077D01*
X21209898Y-12700250D01*
X21209898Y-12700251D01*
X21202500Y-12737442D01*
X21202500Y-14262557D01*
X21209898Y-14299748D01*
X21209898Y-14299749D01*
X21238077Y-14341922D01*
X21266257Y-14360750D01*
X21280252Y-14370102D01*
X21317442Y-14377500D01*
X21317443Y-14377500D01*
X22142557Y-14377500D01*
X22142558Y-14377500D01*
X22179748Y-14370102D01*
X22221922Y-14341922D01*
X22250102Y-14299748D01*
X22257500Y-14262558D01*
X22257500Y-12737442D01*
X23742500Y-12737442D01*
X23742500Y-14262557D01*
X23749898Y-14299748D01*
X23749898Y-14299749D01*
X23778077Y-14341922D01*
X23806257Y-14360750D01*
X23820252Y-14370102D01*
X23857442Y-14377500D01*
X23987036Y-14377500D01*
X24031230Y-14395806D01*
X24044778Y-14416082D01*
X24056017Y-14443217D01*
X24056926Y-14444524D01*
X24057567Y-14445465D01*
X24058461Y-14446803D01*
X24092693Y-14479797D01*
X24093514Y-14480603D01*
X24127320Y-14514409D01*
X24135122Y-14520693D01*
X24225783Y-14608077D01*
X24804019Y-15165412D01*
X24828373Y-15188885D01*
X24847489Y-15232735D01*
X24847500Y-15233885D01*
X24847500Y-21795000D01*
X24829194Y-21839194D01*
X24790310Y-21855300D01*
X24790498Y-21857199D01*
X24787443Y-21857499D01*
X24750251Y-21864898D01*
X24750250Y-21864898D01*
X24708077Y-21893077D01*
X24679898Y-21935250D01*
X24679898Y-21935251D01*
X24672500Y-21972442D01*
X24672500Y-23547557D01*
X24679898Y-23584748D01*
X24679898Y-23584749D01*
X24708077Y-23626922D01*
X24732185Y-23643030D01*
X24750252Y-23655102D01*
X24787442Y-23662500D01*
X24787443Y-23662500D01*
X25412557Y-23662500D01*
X25412558Y-23662500D01*
X25449748Y-23655102D01*
X25491922Y-23626922D01*
X25520102Y-23584748D01*
X25527500Y-23547558D01*
X25527500Y-21972442D01*
X25520102Y-21935252D01*
X25519302Y-21934054D01*
X25491922Y-21893077D01*
X25449748Y-21864898D01*
X25412556Y-21857499D01*
X25409502Y-21857199D01*
X25409689Y-21855300D01*
X25370806Y-21839194D01*
X25352500Y-21795000D01*
X25352500Y-19347472D01*
X25484000Y-19347472D01*
X25492818Y-19391807D01*
X25492819Y-19391809D01*
X25526413Y-19442086D01*
X25576690Y-19475680D01*
X25576692Y-19475681D01*
X25621027Y-19484499D01*
X25621028Y-19484500D01*
X26373000Y-19484500D01*
X26627000Y-19484500D01*
X27378972Y-19484500D01*
X27378972Y-19484499D01*
X27423307Y-19475681D01*
X27423309Y-19475680D01*
X27473586Y-19442086D01*
X27507180Y-19391809D01*
X27507181Y-19391807D01*
X27515999Y-19347472D01*
X27516000Y-19347472D01*
X27516000Y-18717000D01*
X26627000Y-18717000D01*
X26627000Y-19484500D01*
X26373000Y-19484500D01*
X26373000Y-18717000D01*
X25484000Y-18717000D01*
X25484000Y-19347472D01*
X25352500Y-19347472D01*
X25352500Y-17832527D01*
X25484000Y-17832527D01*
X25484000Y-18463000D01*
X26373000Y-18463000D01*
X26627000Y-18463000D01*
X27516000Y-18463000D01*
X27516000Y-17832528D01*
X27515999Y-17832527D01*
X27507181Y-17788192D01*
X27507180Y-17788190D01*
X27473586Y-17737913D01*
X27423309Y-17704319D01*
X27423307Y-17704318D01*
X27378972Y-17695500D01*
X26627000Y-17695500D01*
X26627000Y-18463000D01*
X26373000Y-18463000D01*
X26373000Y-17695500D01*
X25621028Y-17695500D01*
X25576692Y-17704318D01*
X25576690Y-17704319D01*
X25526413Y-17737913D01*
X25492819Y-17788190D01*
X25492818Y-17788192D01*
X25484000Y-17832527D01*
X25352500Y-17832527D01*
X25352500Y-15156045D01*
X25353390Y-15146065D01*
X25352511Y-15098288D01*
X25352500Y-15097137D01*
X25352500Y-15049573D01*
X25352168Y-15048052D01*
X25351932Y-15046918D01*
X25351615Y-15045326D01*
X25342188Y-15023703D01*
X25332621Y-15001756D01*
X25332184Y-15000729D01*
X25313981Y-14956782D01*
X25313074Y-14955477D01*
X25312431Y-14954533D01*
X25311538Y-14953197D01*
X25277330Y-14920226D01*
X25276509Y-14919420D01*
X25242679Y-14885590D01*
X25234877Y-14879308D01*
X25002098Y-14654942D01*
X25508500Y-14654942D01*
X25508500Y-16165057D01*
X25515898Y-16202248D01*
X25515898Y-16202249D01*
X25544077Y-16244422D01*
X25572257Y-16263250D01*
X25586252Y-16272602D01*
X25623442Y-16280000D01*
X25623443Y-16280000D01*
X27376557Y-16280000D01*
X27376558Y-16280000D01*
X27413748Y-16272602D01*
X27455922Y-16244422D01*
X27484102Y-16202248D01*
X27491500Y-16165058D01*
X27491500Y-14654942D01*
X27484102Y-14617752D01*
X27477638Y-14608078D01*
X27455922Y-14575577D01*
X27413748Y-14547398D01*
X27376558Y-14540000D01*
X27376557Y-14540000D01*
X26815000Y-14540000D01*
X26770806Y-14521694D01*
X26752500Y-14477500D01*
X26752500Y-14371898D01*
X26770806Y-14327704D01*
X26782070Y-14316440D01*
X26828478Y-14236060D01*
X26852500Y-14146408D01*
X26852500Y-14053592D01*
X26828478Y-13963940D01*
X26828477Y-13963937D01*
X26782070Y-13883560D01*
X26782065Y-13883554D01*
X26716445Y-13817934D01*
X26716439Y-13817929D01*
X26636062Y-13771522D01*
X26636059Y-13771521D01*
X26546414Y-13747501D01*
X26546409Y-13747500D01*
X26546408Y-13747500D01*
X26453592Y-13747500D01*
X26453591Y-13747500D01*
X26453585Y-13747501D01*
X26363940Y-13771521D01*
X26363937Y-13771522D01*
X26283560Y-13817929D01*
X26283554Y-13817934D01*
X26217934Y-13883554D01*
X26217929Y-13883560D01*
X26171522Y-13963937D01*
X26171521Y-13963940D01*
X26147501Y-14053585D01*
X26147500Y-14053593D01*
X26147500Y-14146406D01*
X26147501Y-14146414D01*
X26171521Y-14236059D01*
X26171522Y-14236062D01*
X26217929Y-14316439D01*
X26217930Y-14316440D01*
X26229193Y-14327703D01*
X26247500Y-14371896D01*
X26247500Y-14477500D01*
X26229194Y-14521694D01*
X26185000Y-14540000D01*
X25623442Y-14540000D01*
X25604847Y-14543699D01*
X25586251Y-14547398D01*
X25586250Y-14547398D01*
X25544077Y-14575577D01*
X25515898Y-14617750D01*
X25515898Y-14617751D01*
X25508500Y-14654942D01*
X25002098Y-14654942D01*
X24766244Y-14427612D01*
X24747130Y-14383763D01*
X24760919Y-14348656D01*
X24758502Y-14347041D01*
X24778949Y-14316439D01*
X24790102Y-14299748D01*
X24797500Y-14262558D01*
X24797500Y-12737442D01*
X24790102Y-12700252D01*
X24790101Y-12700250D01*
X24761922Y-12658077D01*
X24719748Y-12629898D01*
X24682558Y-12622500D01*
X23857442Y-12622500D01*
X23838847Y-12626199D01*
X23820251Y-12629898D01*
X23820250Y-12629898D01*
X23778077Y-12658077D01*
X23749898Y-12700250D01*
X23749898Y-12700251D01*
X23742500Y-12737442D01*
X22257500Y-12737442D01*
X22250102Y-12700252D01*
X22250101Y-12700250D01*
X22221922Y-12658077D01*
X22179748Y-12629898D01*
X22142558Y-12622500D01*
X22142557Y-12622500D01*
X22045000Y-12622500D01*
X22000806Y-12604194D01*
X21982500Y-12560000D01*
X21982500Y-11449776D01*
X21982500Y-11449775D01*
X21944059Y-11356970D01*
X21873030Y-11285941D01*
X21780225Y-11247500D01*
X17380225Y-11247500D01*
X17279775Y-11247500D01*
X17233372Y-11266720D01*
X17186969Y-11285941D01*
X17115941Y-11356969D01*
X17077500Y-11449776D01*
X17077500Y-12560000D01*
X17059194Y-12604194D01*
X17015000Y-12622500D01*
X16917442Y-12622500D01*
X16898847Y-12626199D01*
X16880251Y-12629898D01*
X16880250Y-12629898D01*
X16838077Y-12658077D01*
X16809898Y-12700250D01*
X16809898Y-12700251D01*
X16802500Y-12737442D01*
X12927500Y-12737442D01*
X12927500Y-12487442D01*
X12920102Y-12450252D01*
X12920101Y-12450250D01*
X12891922Y-12408077D01*
X12849748Y-12379898D01*
X12812558Y-12372500D01*
X11487442Y-12372500D01*
X11468847Y-12376199D01*
X11450251Y-12379898D01*
X11450250Y-12379898D01*
X11408077Y-12408077D01*
X11379898Y-12450250D01*
X11379898Y-12450251D01*
X11372500Y-12487442D01*
X2627500Y-12487442D01*
X2620102Y-12450252D01*
X2620101Y-12450250D01*
X2591922Y-12408077D01*
X2549748Y-12379898D01*
X2512558Y-12372500D01*
X1187442Y-12372500D01*
X1168847Y-12376199D01*
X1150251Y-12379898D01*
X1150250Y-12379898D01*
X1108077Y-12408077D01*
X1079898Y-12450250D01*
X1079898Y-12450251D01*
X1072500Y-12487442D01*
X1072500Y-12580000D01*
X1054194Y-12624194D01*
X1010000Y-12642500D01*
X408723Y-12642500D01*
X386916Y-12651533D01*
X339081Y-12651532D01*
X305257Y-12617706D01*
X300500Y-12593790D01*
X300500Y-11387442D01*
X1072500Y-11387442D01*
X1072500Y-12112557D01*
X1079898Y-12149748D01*
X1079898Y-12149749D01*
X1108077Y-12191922D01*
X1136257Y-12210750D01*
X1150252Y-12220102D01*
X1187442Y-12227500D01*
X1187443Y-12227500D01*
X2512557Y-12227500D01*
X2512558Y-12227500D01*
X2549748Y-12220102D01*
X2591922Y-12191922D01*
X2620102Y-12149748D01*
X2627500Y-12112558D01*
X2627500Y-11387442D01*
X11372500Y-11387442D01*
X11372500Y-12112557D01*
X11379898Y-12149748D01*
X11379898Y-12149749D01*
X11408077Y-12191922D01*
X11436257Y-12210750D01*
X11450252Y-12220102D01*
X11487442Y-12227500D01*
X11487443Y-12227500D01*
X12812557Y-12227500D01*
X12812558Y-12227500D01*
X12849748Y-12220102D01*
X12891922Y-12191922D01*
X12920102Y-12149748D01*
X12927500Y-12112558D01*
X12927500Y-11387442D01*
X12920102Y-11350252D01*
X12920101Y-11350250D01*
X12891922Y-11308077D01*
X12849748Y-11279898D01*
X12812558Y-11272500D01*
X11487442Y-11272500D01*
X11468847Y-11276199D01*
X11450251Y-11279898D01*
X11450250Y-11279898D01*
X11408077Y-11308077D01*
X11379898Y-11350250D01*
X11379898Y-11350251D01*
X11372500Y-11387442D01*
X2627500Y-11387442D01*
X2620102Y-11350252D01*
X2620101Y-11350250D01*
X2591922Y-11308077D01*
X2549748Y-11279898D01*
X2512558Y-11272500D01*
X1187442Y-11272500D01*
X1168847Y-11276199D01*
X1150251Y-11279898D01*
X1150250Y-11279898D01*
X1108077Y-11308077D01*
X1079898Y-11350250D01*
X1079898Y-11350251D01*
X1072500Y-11387442D01*
X300500Y-11387442D01*
X300500Y-10287442D01*
X1072500Y-10287442D01*
X1072500Y-11012557D01*
X1079898Y-11049748D01*
X1079898Y-11049749D01*
X1108077Y-11091922D01*
X1136257Y-11110750D01*
X1150252Y-11120102D01*
X1187442Y-11127500D01*
X1187443Y-11127500D01*
X2512557Y-11127500D01*
X2512558Y-11127500D01*
X2549748Y-11120102D01*
X2591922Y-11091922D01*
X2620102Y-11049748D01*
X2627500Y-11012558D01*
X2627500Y-10287442D01*
X11372500Y-10287442D01*
X11372500Y-11012557D01*
X11379898Y-11049748D01*
X11379898Y-11049749D01*
X11408077Y-11091922D01*
X11436257Y-11110750D01*
X11450252Y-11120102D01*
X11487442Y-11127500D01*
X11487443Y-11127500D01*
X12812557Y-11127500D01*
X12812558Y-11127500D01*
X12849748Y-11120102D01*
X12891922Y-11091922D01*
X12920102Y-11049748D01*
X12927500Y-11012558D01*
X12927500Y-10287442D01*
X12920102Y-10250252D01*
X12920101Y-10250250D01*
X12891922Y-10208077D01*
X12849748Y-10179898D01*
X12812558Y-10172500D01*
X11487442Y-10172500D01*
X11468847Y-10176199D01*
X11450251Y-10179898D01*
X11450250Y-10179898D01*
X11408077Y-10208077D01*
X11379898Y-10250250D01*
X11379898Y-10250251D01*
X11372500Y-10287442D01*
X2627500Y-10287442D01*
X2620102Y-10250252D01*
X2620101Y-10250250D01*
X2591922Y-10208077D01*
X2549748Y-10179898D01*
X2512558Y-10172500D01*
X1187442Y-10172500D01*
X1168847Y-10176199D01*
X1150251Y-10179898D01*
X1150250Y-10179898D01*
X1108077Y-10208077D01*
X1079898Y-10250250D01*
X1079898Y-10250251D01*
X1072500Y-10287442D01*
X300500Y-10287442D01*
X300500Y-9187442D01*
X1072500Y-9187442D01*
X1072500Y-9912557D01*
X1079898Y-9949748D01*
X1079898Y-9949749D01*
X1108077Y-9991922D01*
X1136257Y-10010750D01*
X1150252Y-10020102D01*
X1187442Y-10027500D01*
X1187443Y-10027500D01*
X2512557Y-10027500D01*
X2512558Y-10027500D01*
X2549748Y-10020102D01*
X2591922Y-9991922D01*
X2620102Y-9949748D01*
X2627500Y-9912558D01*
X2627500Y-9187442D01*
X11372500Y-9187442D01*
X11372500Y-9912557D01*
X11379898Y-9949748D01*
X11379898Y-9949749D01*
X11408077Y-9991922D01*
X11436257Y-10010750D01*
X11450252Y-10020102D01*
X11487442Y-10027500D01*
X11487443Y-10027500D01*
X12812557Y-10027500D01*
X12812558Y-10027500D01*
X12849748Y-10020102D01*
X12891922Y-9991922D01*
X12920102Y-9949748D01*
X12927500Y-9912558D01*
X12927500Y-9187442D01*
X12920102Y-9150252D01*
X12920101Y-9150250D01*
X12891922Y-9108077D01*
X12849748Y-9079898D01*
X12812558Y-9072500D01*
X11487442Y-9072500D01*
X11468847Y-9076199D01*
X11450251Y-9079898D01*
X11450250Y-9079898D01*
X11408077Y-9108077D01*
X11379898Y-9150250D01*
X11379898Y-9150251D01*
X11372500Y-9187442D01*
X2627500Y-9187442D01*
X2620102Y-9150252D01*
X2620101Y-9150250D01*
X2591922Y-9108077D01*
X2549748Y-9079898D01*
X2512558Y-9072500D01*
X1187442Y-9072500D01*
X1168847Y-9076199D01*
X1150251Y-9079898D01*
X1150250Y-9079898D01*
X1108077Y-9108077D01*
X1079898Y-9150250D01*
X1079898Y-9150251D01*
X1072500Y-9187442D01*
X300500Y-9187442D01*
X300500Y-8087442D01*
X1072500Y-8087442D01*
X1072500Y-8812557D01*
X1079898Y-8849748D01*
X1079898Y-8849749D01*
X1108077Y-8891922D01*
X1136257Y-8910750D01*
X1150252Y-8920102D01*
X1187442Y-8927500D01*
X1187443Y-8927500D01*
X2512557Y-8927500D01*
X2512558Y-8927500D01*
X2549748Y-8920102D01*
X2591922Y-8891922D01*
X2620102Y-8849748D01*
X2627500Y-8812558D01*
X2627500Y-8087442D01*
X11372500Y-8087442D01*
X11372500Y-8812557D01*
X11379898Y-8849748D01*
X11379898Y-8849749D01*
X11408077Y-8891922D01*
X11436257Y-8910750D01*
X11450252Y-8920102D01*
X11487442Y-8927500D01*
X11487443Y-8927500D01*
X12812557Y-8927500D01*
X12812558Y-8927500D01*
X12849748Y-8920102D01*
X12891922Y-8891922D01*
X12920102Y-8849748D01*
X12927500Y-8812558D01*
X12927500Y-8087442D01*
X12920102Y-8050252D01*
X12920101Y-8050250D01*
X12891922Y-8008077D01*
X12849748Y-7979898D01*
X12812558Y-7972500D01*
X11487442Y-7972500D01*
X11468847Y-7976199D01*
X11450251Y-7979898D01*
X11450250Y-7979898D01*
X11408077Y-8008077D01*
X11379898Y-8050250D01*
X11379898Y-8050251D01*
X11372500Y-8087442D01*
X2627500Y-8087442D01*
X2620102Y-8050252D01*
X2620101Y-8050250D01*
X2591922Y-8008077D01*
X2549748Y-7979898D01*
X2512558Y-7972500D01*
X1187442Y-7972500D01*
X1168847Y-7976199D01*
X1150251Y-7979898D01*
X1150250Y-7979898D01*
X1108077Y-8008077D01*
X1079898Y-8050250D01*
X1079898Y-8050251D01*
X1072500Y-8087442D01*
X300500Y-8087442D01*
X300500Y-5362500D01*
X318806Y-5318306D01*
X363000Y-5300000D01*
X1079955Y-5300000D01*
X1124149Y-5318306D01*
X1142455Y-5362500D01*
X1131921Y-5397223D01*
X1129898Y-5400252D01*
X1122500Y-5437442D01*
X1122500Y-6662558D01*
X1128518Y-6692809D01*
X1129898Y-6699748D01*
X1129898Y-6699749D01*
X1158077Y-6741921D01*
X1158078Y-6741922D01*
X1169792Y-6749749D01*
X1189948Y-6763217D01*
X1216523Y-6802991D01*
X1207191Y-6849908D01*
X1167419Y-6876483D01*
X1150251Y-6879898D01*
X1150250Y-6879898D01*
X1108077Y-6908077D01*
X1079898Y-6950250D01*
X1079898Y-6950251D01*
X1072500Y-6987442D01*
X1072500Y-7712557D01*
X1079898Y-7749748D01*
X1079898Y-7749749D01*
X1108077Y-7791922D01*
X1136257Y-7810750D01*
X1150252Y-7820102D01*
X1187442Y-7827500D01*
X1187443Y-7827500D01*
X2512557Y-7827500D01*
X2512558Y-7827500D01*
X2549748Y-7820102D01*
X2591922Y-7791922D01*
X2620102Y-7749748D01*
X2627500Y-7712558D01*
X2627500Y-6987442D01*
X2620102Y-6950252D01*
X2620101Y-6950250D01*
X2591922Y-6908077D01*
X2549748Y-6879898D01*
X2532581Y-6876483D01*
X2492808Y-6849906D01*
X2483476Y-6802990D01*
X2510052Y-6763217D01*
X2541922Y-6741922D01*
X2548162Y-6732583D01*
X2563217Y-6710051D01*
X2602991Y-6683476D01*
X2649907Y-6692808D01*
X2676483Y-6732581D01*
X2679898Y-6749747D01*
X2679898Y-6749749D01*
X2708077Y-6791922D01*
X2733225Y-6808725D01*
X2750252Y-6820102D01*
X2787442Y-6827500D01*
X2787443Y-6827500D01*
X3512557Y-6827500D01*
X3512558Y-6827500D01*
X3549748Y-6820102D01*
X3591922Y-6791922D01*
X3620102Y-6749748D01*
X3627500Y-6712558D01*
X3627500Y-5387442D01*
X3624964Y-5374693D01*
X3634296Y-5327777D01*
X3674069Y-5301201D01*
X3686263Y-5300000D01*
X3713737Y-5300000D01*
X3757931Y-5318306D01*
X3776237Y-5362500D01*
X3775036Y-5374692D01*
X3772500Y-5387442D01*
X3772500Y-6712558D01*
X3777593Y-6738162D01*
X3779898Y-6749748D01*
X3779898Y-6749749D01*
X3808077Y-6791922D01*
X3833225Y-6808725D01*
X3850252Y-6820102D01*
X3887442Y-6827500D01*
X3887443Y-6827500D01*
X4612557Y-6827500D01*
X4612558Y-6827500D01*
X4649748Y-6820102D01*
X4691922Y-6791922D01*
X4720102Y-6749748D01*
X4727500Y-6712558D01*
X4727500Y-5387442D01*
X4724964Y-5374693D01*
X4734296Y-5327777D01*
X4774069Y-5301201D01*
X4786263Y-5300000D01*
X4813737Y-5300000D01*
X4857931Y-5318306D01*
X4876237Y-5362500D01*
X4875036Y-5374692D01*
X4872500Y-5387442D01*
X4872500Y-6712558D01*
X4877593Y-6738162D01*
X4879898Y-6749748D01*
X4879898Y-6749749D01*
X4908077Y-6791922D01*
X4933225Y-6808725D01*
X4950252Y-6820102D01*
X4987442Y-6827500D01*
X4987443Y-6827500D01*
X5712557Y-6827500D01*
X5712558Y-6827500D01*
X5749748Y-6820102D01*
X5791922Y-6791922D01*
X5820102Y-6749748D01*
X5827500Y-6712558D01*
X5827500Y-5387442D01*
X5824964Y-5374693D01*
X5834296Y-5327777D01*
X5874069Y-5301201D01*
X5886263Y-5300000D01*
X5913737Y-5300000D01*
X5957931Y-5318306D01*
X5976237Y-5362500D01*
X5975036Y-5374692D01*
X5972500Y-5387442D01*
X5972500Y-6712558D01*
X5977593Y-6738162D01*
X5979898Y-6749748D01*
X5979898Y-6749749D01*
X6008077Y-6791922D01*
X6033225Y-6808725D01*
X6050252Y-6820102D01*
X6087442Y-6827500D01*
X6087443Y-6827500D01*
X6812557Y-6827500D01*
X6812558Y-6827500D01*
X6849748Y-6820102D01*
X6891922Y-6791922D01*
X6920102Y-6749748D01*
X6927500Y-6712558D01*
X6927500Y-5387442D01*
X6924964Y-5374693D01*
X6934296Y-5327777D01*
X6974069Y-5301201D01*
X6986263Y-5300000D01*
X7013737Y-5300000D01*
X7057931Y-5318306D01*
X7076237Y-5362500D01*
X7075036Y-5374692D01*
X7072500Y-5387442D01*
X7072500Y-6712558D01*
X7077593Y-6738162D01*
X7079898Y-6749748D01*
X7079898Y-6749749D01*
X7108077Y-6791922D01*
X7133225Y-6808725D01*
X7150252Y-6820102D01*
X7187442Y-6827500D01*
X7187443Y-6827500D01*
X7912557Y-6827500D01*
X7912558Y-6827500D01*
X7949748Y-6820102D01*
X7991922Y-6791922D01*
X8020102Y-6749748D01*
X8027500Y-6712558D01*
X8027500Y-5387442D01*
X8024964Y-5374693D01*
X8034296Y-5327777D01*
X8074069Y-5301201D01*
X8086263Y-5300000D01*
X10313737Y-5300000D01*
X10357931Y-5318306D01*
X10376237Y-5362500D01*
X10375036Y-5374692D01*
X10372500Y-5387442D01*
X10372500Y-6712558D01*
X10377593Y-6738162D01*
X10379898Y-6749748D01*
X10379898Y-6749749D01*
X10408077Y-6791922D01*
X10433225Y-6808725D01*
X10450252Y-6820102D01*
X10487442Y-6827500D01*
X10487443Y-6827500D01*
X11212557Y-6827500D01*
X11212558Y-6827500D01*
X11249748Y-6820102D01*
X11291922Y-6791922D01*
X11320102Y-6749748D01*
X11323516Y-6732581D01*
X11350091Y-6692809D01*
X11397007Y-6683476D01*
X11436781Y-6710051D01*
X11458076Y-6741920D01*
X11458077Y-6741920D01*
X11458078Y-6741922D01*
X11469792Y-6749749D01*
X11489948Y-6763217D01*
X11516523Y-6802991D01*
X11507191Y-6849908D01*
X11467419Y-6876483D01*
X11450251Y-6879898D01*
X11450250Y-6879898D01*
X11408077Y-6908077D01*
X11379898Y-6950250D01*
X11379898Y-6950251D01*
X11372500Y-6987442D01*
X11372500Y-7712557D01*
X11379898Y-7749748D01*
X11379898Y-7749749D01*
X11408077Y-7791922D01*
X11436257Y-7810750D01*
X11450252Y-7820102D01*
X11487442Y-7827500D01*
X11487443Y-7827500D01*
X12812557Y-7827500D01*
X12812558Y-7827500D01*
X12849748Y-7820102D01*
X12891922Y-7791922D01*
X12920102Y-7749748D01*
X12927500Y-7712558D01*
X12927500Y-7620000D01*
X12945806Y-7575806D01*
X12990000Y-7557500D01*
X15441274Y-7557500D01*
X15441275Y-7557500D01*
X15517540Y-7525910D01*
X15778478Y-7264972D01*
X16778000Y-7264972D01*
X16786818Y-7309307D01*
X16786819Y-7309309D01*
X16820413Y-7359586D01*
X16870690Y-7393180D01*
X16870692Y-7393181D01*
X16915027Y-7401999D01*
X16915028Y-7402000D01*
X17203000Y-7402000D01*
X17457000Y-7402000D01*
X17744972Y-7402000D01*
X17744972Y-7401999D01*
X17789307Y-7393181D01*
X17789309Y-7393180D01*
X17839586Y-7359586D01*
X17873180Y-7309309D01*
X17873181Y-7309307D01*
X17881999Y-7264972D01*
X17882000Y-7264972D01*
X17882000Y-6627000D01*
X17457000Y-6627000D01*
X17457000Y-7402000D01*
X17203000Y-7402000D01*
X17203000Y-6627000D01*
X16778000Y-6627000D01*
X16778000Y-7264972D01*
X15778478Y-7264972D01*
X16075910Y-6967539D01*
X16107500Y-6891274D01*
X16107500Y-6808725D01*
X16107500Y-5735027D01*
X16778000Y-5735027D01*
X16778000Y-6373000D01*
X17203000Y-6373000D01*
X17457000Y-6373000D01*
X17882000Y-6373000D01*
X17882000Y-5735028D01*
X17881999Y-5735027D01*
X17873181Y-5690692D01*
X17873180Y-5690690D01*
X17839586Y-5640413D01*
X17789309Y-5606819D01*
X17789307Y-5606818D01*
X17744972Y-5598000D01*
X17457000Y-5598000D01*
X17457000Y-6373000D01*
X17203000Y-6373000D01*
X17203000Y-5598000D01*
X16915028Y-5598000D01*
X16870692Y-5606818D01*
X16870690Y-5606819D01*
X16820413Y-5640413D01*
X16786819Y-5690690D01*
X16786818Y-5690692D01*
X16778000Y-5735027D01*
X16107500Y-5735027D01*
X16107500Y-5711838D01*
X16125806Y-5667644D01*
X16567644Y-5225806D01*
X16611838Y-5207500D01*
X18380024Y-5207500D01*
X18389223Y-5208181D01*
X18410284Y-5211315D01*
X18418080Y-5209366D01*
X18433238Y-5207500D01*
X18441274Y-5207500D01*
X18460952Y-5199348D01*
X18469698Y-5196460D01*
X18490368Y-5191294D01*
X18496825Y-5186508D01*
X18510111Y-5178985D01*
X18517539Y-5175910D01*
X18532609Y-5160838D01*
X18539573Y-5154834D01*
X18556694Y-5142150D01*
X18560827Y-5135259D01*
X18570225Y-5123222D01*
X18575910Y-5117539D01*
X18584064Y-5097849D01*
X18588204Y-5089630D01*
X19001802Y-4400301D01*
X19040237Y-4371824D01*
X19087551Y-4378865D01*
X19090118Y-4380491D01*
X19104502Y-4390102D01*
X19141692Y-4397500D01*
X19141693Y-4397500D01*
X19732307Y-4397500D01*
X19732308Y-4397500D01*
X19769498Y-4390102D01*
X19811672Y-4361922D01*
X19818032Y-4352402D01*
X19857806Y-4325826D01*
X19904722Y-4335157D01*
X19921964Y-4352398D01*
X19928328Y-4361922D01*
X19928329Y-4361923D01*
X19931748Y-4367039D01*
X19929748Y-4368375D01*
X19944490Y-4403987D01*
X19941328Y-4423600D01*
X19676105Y-5225439D01*
X19674511Y-5229727D01*
X19662500Y-5258727D01*
X19661299Y-5264766D01*
X19661173Y-5264741D01*
X19660665Y-5267897D01*
X19660791Y-5267913D01*
X19660035Y-5274022D01*
X19662332Y-5305308D01*
X19662500Y-5309883D01*
X19662500Y-5560000D01*
X19644194Y-5604194D01*
X19600000Y-5622500D01*
X19457442Y-5622500D01*
X19438847Y-5626199D01*
X19420251Y-5629898D01*
X19420250Y-5629898D01*
X19378077Y-5658077D01*
X19349898Y-5700250D01*
X19349898Y-5700251D01*
X19342500Y-5737442D01*
X19342500Y-7262557D01*
X19349898Y-7299748D01*
X19349898Y-7299749D01*
X19378077Y-7341922D01*
X19404514Y-7359586D01*
X19420252Y-7370102D01*
X19457442Y-7377500D01*
X19457443Y-7377500D01*
X20282557Y-7377500D01*
X20282558Y-7377500D01*
X20319748Y-7370102D01*
X20361922Y-7341922D01*
X20390102Y-7299748D01*
X20397020Y-7264972D01*
X21178000Y-7264972D01*
X21186818Y-7309307D01*
X21186819Y-7309309D01*
X21220413Y-7359586D01*
X21270690Y-7393180D01*
X21270692Y-7393181D01*
X21315027Y-7401999D01*
X21315028Y-7402000D01*
X21603000Y-7402000D01*
X21857000Y-7402000D01*
X22144972Y-7402000D01*
X22144972Y-7401999D01*
X22189307Y-7393181D01*
X22189309Y-7393180D01*
X22239586Y-7359586D01*
X22273180Y-7309309D01*
X22273181Y-7309307D01*
X22281999Y-7264972D01*
X22282000Y-7264972D01*
X22282000Y-6627000D01*
X21857000Y-6627000D01*
X21857000Y-7402000D01*
X21603000Y-7402000D01*
X21603000Y-6627000D01*
X21178000Y-6627000D01*
X21178000Y-7264972D01*
X20397020Y-7264972D01*
X20397500Y-7262558D01*
X20397500Y-5737442D01*
X20397020Y-5735027D01*
X21178000Y-5735027D01*
X21178000Y-6373000D01*
X21603000Y-6373000D01*
X21857000Y-6373000D01*
X22282000Y-6373000D01*
X22282000Y-5735028D01*
X22281999Y-5735027D01*
X22273181Y-5690692D01*
X22273180Y-5690690D01*
X22239586Y-5640413D01*
X22189309Y-5606819D01*
X22189307Y-5606818D01*
X22144972Y-5598000D01*
X21857000Y-5598000D01*
X21857000Y-6373000D01*
X21603000Y-6373000D01*
X21603000Y-5598000D01*
X21315028Y-5598000D01*
X21270692Y-5606818D01*
X21270690Y-5606819D01*
X21220413Y-5640413D01*
X21186819Y-5690690D01*
X21186818Y-5690692D01*
X21178000Y-5735027D01*
X20397020Y-5735027D01*
X20390102Y-5700252D01*
X20390101Y-5700250D01*
X20361922Y-5658077D01*
X20319748Y-5629898D01*
X20282558Y-5622500D01*
X20282557Y-5622500D01*
X20140000Y-5622500D01*
X20095806Y-5604194D01*
X20077500Y-5560000D01*
X20077500Y-5343492D01*
X20080662Y-5323865D01*
X20085072Y-5310534D01*
X20372894Y-4440373D01*
X20404152Y-4404163D01*
X20432232Y-4397500D01*
X20598307Y-4397500D01*
X20598308Y-4397500D01*
X20635498Y-4390102D01*
X20677672Y-4361922D01*
X20705852Y-4319748D01*
X20713250Y-4282558D01*
X20713250Y-3717442D01*
X20705852Y-3680252D01*
X20695555Y-3664841D01*
X20677672Y-3638077D01*
X20635498Y-3609898D01*
X20598308Y-3602500D01*
X20007692Y-3602500D01*
X19989097Y-3606199D01*
X19970501Y-3609898D01*
X19970500Y-3609898D01*
X19928328Y-3638077D01*
X19921967Y-3647598D01*
X19882193Y-3674173D01*
X19835276Y-3664841D01*
X19818033Y-3647598D01*
X19811671Y-3638077D01*
X19769498Y-3609898D01*
X19732308Y-3602500D01*
X19141692Y-3602500D01*
X19123097Y-3606199D01*
X19104501Y-3609898D01*
X19104500Y-3609898D01*
X19062327Y-3638077D01*
X19034148Y-3680250D01*
X19034148Y-3680251D01*
X19026750Y-3717442D01*
X19026750Y-3730000D01*
X19008444Y-3774194D01*
X18964250Y-3792500D01*
X18958724Y-3792500D01*
X18939046Y-3800651D01*
X18930291Y-3803541D01*
X18909632Y-3808706D01*
X18903171Y-3813493D01*
X18889888Y-3821013D01*
X18882460Y-3824089D01*
X18882460Y-3824090D01*
X18867401Y-3839148D01*
X18860419Y-3845168D01*
X18843308Y-3857846D01*
X18843301Y-3857854D01*
X18839165Y-3864747D01*
X18829775Y-3876775D01*
X18824089Y-3882461D01*
X18815940Y-3902135D01*
X18811791Y-3910371D01*
X18300721Y-4762156D01*
X18262287Y-4790634D01*
X18247128Y-4792500D01*
X16701836Y-4792500D01*
X16657642Y-4774194D01*
X16639336Y-4730000D01*
X16657642Y-4685806D01*
X16732276Y-4611171D01*
X16739419Y-4605034D01*
X16756208Y-4592684D01*
X16760605Y-4585409D01*
X16769900Y-4573548D01*
X16775910Y-4567539D01*
X16783887Y-4548278D01*
X16788136Y-4539877D01*
X17998780Y-2537660D01*
X18037312Y-2509315D01*
X18052263Y-2507500D01*
X22188878Y-2507500D01*
X22232871Y-2525605D01*
X23183994Y-3468160D01*
X23202499Y-3512270D01*
X23202500Y-3512553D01*
X23202500Y-3540000D01*
X23184194Y-3584194D01*
X23140000Y-3602500D01*
X23111692Y-3602500D01*
X23093097Y-3606199D01*
X23074501Y-3609898D01*
X23074500Y-3609898D01*
X23032327Y-3638077D01*
X23004148Y-3680250D01*
X23004148Y-3680251D01*
X22996750Y-3717442D01*
X22996750Y-4282557D01*
X23004148Y-4319748D01*
X23004148Y-4319749D01*
X23032327Y-4361922D01*
X23047147Y-4371824D01*
X23074502Y-4390102D01*
X23111692Y-4397500D01*
X23111693Y-4397500D01*
X23702307Y-4397500D01*
X23702308Y-4397500D01*
X23739498Y-4390102D01*
X23781672Y-4361922D01*
X23788032Y-4352402D01*
X23827806Y-4325826D01*
X23874722Y-4335157D01*
X23891966Y-4352401D01*
X23898328Y-4361922D01*
X23940502Y-4390102D01*
X23977692Y-4397500D01*
X24000000Y-4397500D01*
X24044194Y-4415806D01*
X24062500Y-4460000D01*
X24062500Y-5560000D01*
X24044194Y-5604194D01*
X24000000Y-5622500D01*
X23857442Y-5622500D01*
X23838847Y-5626199D01*
X23820251Y-5629898D01*
X23820250Y-5629898D01*
X23778077Y-5658077D01*
X23749898Y-5700250D01*
X23749898Y-5700251D01*
X23742500Y-5737442D01*
X23742500Y-7262557D01*
X23749898Y-7299748D01*
X23749898Y-7299749D01*
X23778077Y-7341922D01*
X23804514Y-7359586D01*
X23820252Y-7370102D01*
X23857442Y-7377500D01*
X23857443Y-7377500D01*
X24682557Y-7377500D01*
X24682558Y-7377500D01*
X24719748Y-7370102D01*
X24761922Y-7341922D01*
X24790102Y-7299748D01*
X24797500Y-7262558D01*
X24797500Y-5737442D01*
X24790102Y-5700252D01*
X24790101Y-5700250D01*
X24761922Y-5658077D01*
X24719748Y-5629898D01*
X24682558Y-5622500D01*
X24682557Y-5622500D01*
X24540000Y-5622500D01*
X24495806Y-5604194D01*
X24477500Y-5560000D01*
X24477500Y-4460000D01*
X24495806Y-4415806D01*
X24540000Y-4397500D01*
X24568307Y-4397500D01*
X24568308Y-4397500D01*
X24605498Y-4390102D01*
X24647672Y-4361922D01*
X24675852Y-4319748D01*
X24683250Y-4282558D01*
X24683250Y-3717442D01*
X24675852Y-3680252D01*
X24665555Y-3664841D01*
X24647672Y-3638077D01*
X24605498Y-3609898D01*
X24568308Y-3602500D01*
X23977692Y-3602500D01*
X23959097Y-3606199D01*
X23940501Y-3609898D01*
X23940500Y-3609898D01*
X23898328Y-3638077D01*
X23891967Y-3647598D01*
X23852193Y-3674173D01*
X23805276Y-3664841D01*
X23788033Y-3647598D01*
X23781671Y-3638077D01*
X23739498Y-3609898D01*
X23702308Y-3602500D01*
X23702307Y-3602500D01*
X23680000Y-3602500D01*
X23635806Y-3584194D01*
X23617500Y-3540000D01*
X23617500Y-3447304D01*
X23617705Y-3445167D01*
X23617683Y-3440336D01*
X23617684Y-3440335D01*
X23617500Y-3399614D01*
X23617500Y-3358726D01*
X23617500Y-3358719D01*
X23617434Y-3358395D01*
X23617314Y-3357795D01*
X23601531Y-3320173D01*
X23601422Y-3319911D01*
X23585910Y-3282461D01*
X23585908Y-3282459D01*
X23585907Y-3282456D01*
X23585744Y-3282213D01*
X23585590Y-3281983D01*
X23585381Y-3281670D01*
X23556404Y-3252954D01*
X23556204Y-3252755D01*
X23524138Y-3220689D01*
X23522468Y-3219324D01*
X22446379Y-2152930D01*
X22417531Y-2124082D01*
X22417165Y-2123840D01*
X22416922Y-2123678D01*
X22416750Y-2123563D01*
X22379148Y-2108186D01*
X22378889Y-2108079D01*
X22341264Y-2092495D01*
X22341069Y-2092458D01*
X22340805Y-2092406D01*
X22340351Y-2092315D01*
X22299971Y-2092498D01*
X22299832Y-2092499D01*
X22299553Y-2092500D01*
X17920438Y-2092500D01*
X17911028Y-2091787D01*
X17909203Y-2091509D01*
X17890436Y-2088650D01*
X17882182Y-2090685D01*
X17867229Y-2092500D01*
X17858726Y-2092500D01*
X17858724Y-2092500D01*
X17858721Y-2092501D01*
X17839474Y-2100473D01*
X17830511Y-2103415D01*
X17810286Y-2108398D01*
X17810283Y-2108399D01*
X17803429Y-2113441D01*
X17790323Y-2120832D01*
X17782481Y-2124082D01*
X17782459Y-2124091D01*
X17782458Y-2124091D01*
X17767727Y-2138822D01*
X17760575Y-2144968D01*
X17743792Y-2157315D01*
X17743790Y-2157317D01*
X17739387Y-2164599D01*
X17730106Y-2176443D01*
X17724092Y-2182457D01*
X17724090Y-2182460D01*
X17716115Y-2201712D01*
X17711857Y-2210129D01*
X16439391Y-4314592D01*
X16430102Y-4326447D01*
X14932356Y-5824194D01*
X14888162Y-5842500D01*
X12940000Y-5842500D01*
X12895806Y-5824194D01*
X12877500Y-5780000D01*
X12877500Y-5437442D01*
X12870102Y-5400252D01*
X12868078Y-5397224D01*
X12858746Y-5350309D01*
X12885320Y-5310534D01*
X12920045Y-5300000D01*
X15000000Y-5300000D01*
X15000000Y-363000D01*
X15018306Y-318806D01*
X15062500Y-300500D01*
X28652406Y-300500D01*
X28696490Y-300500D01*
X28703487Y-300893D01*
G37*
%TD.AperFunction*%
%TD*%
M02*
