%TF.GenerationSoftware,KiCad,Pcbnew,10.0.6*%
%TF.CreationDate,2026-10-08T21:27:07+02:00*%
%TF.ProjectId,openrz67-nrf,6f70656e-727a-4363-972d-6e72662e6b69,A*%
%TF.SameCoordinates,Original*%
%TF.FileFunction,Legend,Bot*%
%TF.FilePolarity,Positive*%
%FSLAX46Y46*%
G04 Gerber Fmt 4.6, Leading zero omitted, Abs format (unit mm)*
G04 Created by KiCad (PCBNEW 10.0.6) date 2026-10-08 21:27:07*
%MOMM*%
%LPD*%
G01*
G04 APERTURE LIST*
G04 Aperture macros list*
%AMRoundRect*
0 Rectangle with rounded corners*
0 $1 Rounding radius*
0 $2 $3 $4 $5 $6 $7 $8 $9 X,Y pos of 4 corners*
0 Add a 4 corners polygon primitive as box body*
4,1,4,$2,$3,$4,$5,$6,$7,$8,$9,$2,$3,0*
0 Add four circle primitives for the rounded corners*
1,1,$1+$1,$2,$3*
1,1,$1+$1,$4,$5*
1,1,$1+$1,$6,$7*
1,1,$1+$1,$8,$9*
0 Add four rect primitives between the rounded corners*
20,1,$1+$1,$2,$3,$4,$5,0*
20,1,$1+$1,$4,$5,$6,$7,0*
20,1,$1+$1,$6,$7,$8,$9,0*
20,1,$1+$1,$8,$9,$2,$3,0*%
G04 Aperture macros list end*
%ADD10C,0.180000*%
%ADD11C,0.250000*%
%ADD12C,0.060000*%
%ADD13RoundRect,0.051000X-1.500000X-1.750000X1.500000X-1.750000X1.500000X1.750000X-1.500000X1.750000X0*%
%ADD14RoundRect,0.051000X-1.500000X-2.500000X1.500000X-2.500000X1.500000X2.500000X-1.500000X2.500000X0*%
%ADD15C,10.102000*%
G04 APERTURE END LIST*
D10*
X22178572Y-1353259D02*
X21988096Y-1353259D01*
X21988096Y-1353259D02*
X21892858Y-1400878D01*
X21892858Y-1400878D02*
X21797620Y-1496116D01*
X21797620Y-1496116D02*
X21750001Y-1686592D01*
X21750001Y-1686592D02*
X21750001Y-2019925D01*
X21750001Y-2019925D02*
X21797620Y-2210401D01*
X21797620Y-2210401D02*
X21892858Y-2305640D01*
X21892858Y-2305640D02*
X21988096Y-2353259D01*
X21988096Y-2353259D02*
X22178572Y-2353259D01*
X22178572Y-2353259D02*
X22273810Y-2305640D01*
X22273810Y-2305640D02*
X22369048Y-2210401D01*
X22369048Y-2210401D02*
X22416667Y-2019925D01*
X22416667Y-2019925D02*
X22416667Y-1686592D01*
X22416667Y-1686592D02*
X22369048Y-1496116D01*
X22369048Y-1496116D02*
X22273810Y-1400878D01*
X22273810Y-1400878D02*
X22178572Y-1353259D01*
X21321429Y-1686592D02*
X21321429Y-2686592D01*
X21321429Y-1734211D02*
X21226191Y-1686592D01*
X21226191Y-1686592D02*
X21035715Y-1686592D01*
X21035715Y-1686592D02*
X20940477Y-1734211D01*
X20940477Y-1734211D02*
X20892858Y-1781830D01*
X20892858Y-1781830D02*
X20845239Y-1877068D01*
X20845239Y-1877068D02*
X20845239Y-2162782D01*
X20845239Y-2162782D02*
X20892858Y-2258020D01*
X20892858Y-2258020D02*
X20940477Y-2305640D01*
X20940477Y-2305640D02*
X21035715Y-2353259D01*
X21035715Y-2353259D02*
X21226191Y-2353259D01*
X21226191Y-2353259D02*
X21321429Y-2305640D01*
X20035715Y-2305640D02*
X20130953Y-2353259D01*
X20130953Y-2353259D02*
X20321429Y-2353259D01*
X20321429Y-2353259D02*
X20416667Y-2305640D01*
X20416667Y-2305640D02*
X20464286Y-2210401D01*
X20464286Y-2210401D02*
X20464286Y-1829449D01*
X20464286Y-1829449D02*
X20416667Y-1734211D01*
X20416667Y-1734211D02*
X20321429Y-1686592D01*
X20321429Y-1686592D02*
X20130953Y-1686592D01*
X20130953Y-1686592D02*
X20035715Y-1734211D01*
X20035715Y-1734211D02*
X19988096Y-1829449D01*
X19988096Y-1829449D02*
X19988096Y-1924687D01*
X19988096Y-1924687D02*
X20464286Y-2019925D01*
X19559524Y-1686592D02*
X19559524Y-2353259D01*
X19559524Y-1781830D02*
X19511905Y-1734211D01*
X19511905Y-1734211D02*
X19416667Y-1686592D01*
X19416667Y-1686592D02*
X19273810Y-1686592D01*
X19273810Y-1686592D02*
X19178572Y-1734211D01*
X19178572Y-1734211D02*
X19130953Y-1829449D01*
X19130953Y-1829449D02*
X19130953Y-2353259D01*
X18083334Y-2353259D02*
X18416667Y-1877068D01*
X18654762Y-2353259D02*
X18654762Y-1353259D01*
X18654762Y-1353259D02*
X18273810Y-1353259D01*
X18273810Y-1353259D02*
X18178572Y-1400878D01*
X18178572Y-1400878D02*
X18130953Y-1448497D01*
X18130953Y-1448497D02*
X18083334Y-1543735D01*
X18083334Y-1543735D02*
X18083334Y-1686592D01*
X18083334Y-1686592D02*
X18130953Y-1781830D01*
X18130953Y-1781830D02*
X18178572Y-1829449D01*
X18178572Y-1829449D02*
X18273810Y-1877068D01*
X18273810Y-1877068D02*
X18654762Y-1877068D01*
X17750000Y-1353259D02*
X17083334Y-1353259D01*
X17083334Y-1353259D02*
X17750000Y-2353259D01*
X17750000Y-2353259D02*
X17083334Y-2353259D01*
X16273810Y-1353259D02*
X16464286Y-1353259D01*
X16464286Y-1353259D02*
X16559524Y-1400878D01*
X16559524Y-1400878D02*
X16607143Y-1448497D01*
X16607143Y-1448497D02*
X16702381Y-1591354D01*
X16702381Y-1591354D02*
X16750000Y-1781830D01*
X16750000Y-1781830D02*
X16750000Y-2162782D01*
X16750000Y-2162782D02*
X16702381Y-2258020D01*
X16702381Y-2258020D02*
X16654762Y-2305640D01*
X16654762Y-2305640D02*
X16559524Y-2353259D01*
X16559524Y-2353259D02*
X16369048Y-2353259D01*
X16369048Y-2353259D02*
X16273810Y-2305640D01*
X16273810Y-2305640D02*
X16226191Y-2258020D01*
X16226191Y-2258020D02*
X16178572Y-2162782D01*
X16178572Y-2162782D02*
X16178572Y-1924687D01*
X16178572Y-1924687D02*
X16226191Y-1829449D01*
X16226191Y-1829449D02*
X16273810Y-1781830D01*
X16273810Y-1781830D02*
X16369048Y-1734211D01*
X16369048Y-1734211D02*
X16559524Y-1734211D01*
X16559524Y-1734211D02*
X16654762Y-1781830D01*
X16654762Y-1781830D02*
X16702381Y-1829449D01*
X16702381Y-1829449D02*
X16750000Y-1924687D01*
X15845238Y-1353259D02*
X15178572Y-1353259D01*
X15178572Y-1353259D02*
X15607143Y-2353259D01*
X14035714Y-1686592D02*
X14035714Y-2353259D01*
X14035714Y-1781830D02*
X13988095Y-1734211D01*
X13988095Y-1734211D02*
X13892857Y-1686592D01*
X13892857Y-1686592D02*
X13750000Y-1686592D01*
X13750000Y-1686592D02*
X13654762Y-1734211D01*
X13654762Y-1734211D02*
X13607143Y-1829449D01*
X13607143Y-1829449D02*
X13607143Y-2353259D01*
X12559524Y-2353259D02*
X12892857Y-1877068D01*
X13130952Y-2353259D02*
X13130952Y-1353259D01*
X13130952Y-1353259D02*
X12750000Y-1353259D01*
X12750000Y-1353259D02*
X12654762Y-1400878D01*
X12654762Y-1400878D02*
X12607143Y-1448497D01*
X12607143Y-1448497D02*
X12559524Y-1543735D01*
X12559524Y-1543735D02*
X12559524Y-1686592D01*
X12559524Y-1686592D02*
X12607143Y-1781830D01*
X12607143Y-1781830D02*
X12654762Y-1829449D01*
X12654762Y-1829449D02*
X12750000Y-1877068D01*
X12750000Y-1877068D02*
X13130952Y-1877068D01*
X11797619Y-1829449D02*
X12130952Y-1829449D01*
X12130952Y-2353259D02*
X12130952Y-1353259D01*
X12130952Y-1353259D02*
X11654762Y-1353259D01*
X10511904Y-2353259D02*
X10511904Y-1686592D01*
X10511904Y-1877068D02*
X10464285Y-1781830D01*
X10464285Y-1781830D02*
X10416666Y-1734211D01*
X10416666Y-1734211D02*
X10321428Y-1686592D01*
X10321428Y-1686592D02*
X10226190Y-1686592D01*
X9511904Y-2305640D02*
X9607142Y-2353259D01*
X9607142Y-2353259D02*
X9797618Y-2353259D01*
X9797618Y-2353259D02*
X9892856Y-2305640D01*
X9892856Y-2305640D02*
X9940475Y-2210401D01*
X9940475Y-2210401D02*
X9940475Y-1829449D01*
X9940475Y-1829449D02*
X9892856Y-1734211D01*
X9892856Y-1734211D02*
X9797618Y-1686592D01*
X9797618Y-1686592D02*
X9607142Y-1686592D01*
X9607142Y-1686592D02*
X9511904Y-1734211D01*
X9511904Y-1734211D02*
X9464285Y-1829449D01*
X9464285Y-1829449D02*
X9464285Y-1924687D01*
X9464285Y-1924687D02*
X9940475Y-2019925D01*
X9130951Y-1686592D02*
X8892856Y-2353259D01*
X8892856Y-2353259D02*
X8654761Y-1686592D01*
X7559522Y-2067544D02*
X7083332Y-2067544D01*
X7654760Y-2353259D02*
X7321427Y-1353259D01*
X7321427Y-1353259D02*
X6988094Y-2353259D01*
X23550000Y-4431497D02*
X23607143Y-4488640D01*
X23607143Y-4488640D02*
X23778571Y-4545782D01*
X23778571Y-4545782D02*
X23892857Y-4545782D01*
X23892857Y-4545782D02*
X24064286Y-4488640D01*
X24064286Y-4488640D02*
X24178571Y-4374354D01*
X24178571Y-4374354D02*
X24235714Y-4260068D01*
X24235714Y-4260068D02*
X24292857Y-4031497D01*
X24292857Y-4031497D02*
X24292857Y-3860068D01*
X24292857Y-3860068D02*
X24235714Y-3631497D01*
X24235714Y-3631497D02*
X24178571Y-3517211D01*
X24178571Y-3517211D02*
X24064286Y-3402925D01*
X24064286Y-3402925D02*
X23892857Y-3345782D01*
X23892857Y-3345782D02*
X23778571Y-3345782D01*
X23778571Y-3345782D02*
X23607143Y-3402925D01*
X23607143Y-3402925D02*
X23550000Y-3460068D01*
X22350000Y-4545782D02*
X22750000Y-3974354D01*
X23035714Y-4545782D02*
X23035714Y-3345782D01*
X23035714Y-3345782D02*
X22578571Y-3345782D01*
X22578571Y-3345782D02*
X22464286Y-3402925D01*
X22464286Y-3402925D02*
X22407143Y-3460068D01*
X22407143Y-3460068D02*
X22350000Y-3574354D01*
X22350000Y-3574354D02*
X22350000Y-3745782D01*
X22350000Y-3745782D02*
X22407143Y-3860068D01*
X22407143Y-3860068D02*
X22464286Y-3917211D01*
X22464286Y-3917211D02*
X22578571Y-3974354D01*
X22578571Y-3974354D02*
X23035714Y-3974354D01*
X21892857Y-3460068D02*
X21835714Y-3402925D01*
X21835714Y-3402925D02*
X21721429Y-3345782D01*
X21721429Y-3345782D02*
X21435714Y-3345782D01*
X21435714Y-3345782D02*
X21321429Y-3402925D01*
X21321429Y-3402925D02*
X21264286Y-3460068D01*
X21264286Y-3460068D02*
X21207143Y-3574354D01*
X21207143Y-3574354D02*
X21207143Y-3688640D01*
X21207143Y-3688640D02*
X21264286Y-3860068D01*
X21264286Y-3860068D02*
X21950000Y-4545782D01*
X21950000Y-4545782D02*
X21207143Y-4545782D01*
X20464286Y-3345782D02*
X20350000Y-3345782D01*
X20350000Y-3345782D02*
X20235714Y-3402925D01*
X20235714Y-3402925D02*
X20178572Y-3460068D01*
X20178572Y-3460068D02*
X20121429Y-3574354D01*
X20121429Y-3574354D02*
X20064286Y-3802925D01*
X20064286Y-3802925D02*
X20064286Y-4088640D01*
X20064286Y-4088640D02*
X20121429Y-4317211D01*
X20121429Y-4317211D02*
X20178572Y-4431497D01*
X20178572Y-4431497D02*
X20235714Y-4488640D01*
X20235714Y-4488640D02*
X20350000Y-4545782D01*
X20350000Y-4545782D02*
X20464286Y-4545782D01*
X20464286Y-4545782D02*
X20578572Y-4488640D01*
X20578572Y-4488640D02*
X20635714Y-4431497D01*
X20635714Y-4431497D02*
X20692857Y-4317211D01*
X20692857Y-4317211D02*
X20750000Y-4088640D01*
X20750000Y-4088640D02*
X20750000Y-3802925D01*
X20750000Y-3802925D02*
X20692857Y-3574354D01*
X20692857Y-3574354D02*
X20635714Y-3460068D01*
X20635714Y-3460068D02*
X20578572Y-3402925D01*
X20578572Y-3402925D02*
X20464286Y-3345782D01*
X19664286Y-3345782D02*
X18921429Y-3345782D01*
X18921429Y-3345782D02*
X19321429Y-3802925D01*
X19321429Y-3802925D02*
X19150000Y-3802925D01*
X19150000Y-3802925D02*
X19035715Y-3860068D01*
X19035715Y-3860068D02*
X18978572Y-3917211D01*
X18978572Y-3917211D02*
X18921429Y-4031497D01*
X18921429Y-4031497D02*
X18921429Y-4317211D01*
X18921429Y-4317211D02*
X18978572Y-4431497D01*
X18978572Y-4431497D02*
X19035715Y-4488640D01*
X19035715Y-4488640D02*
X19150000Y-4545782D01*
X19150000Y-4545782D02*
X19492857Y-4545782D01*
X19492857Y-4545782D02*
X19607143Y-4488640D01*
X19607143Y-4488640D02*
X19664286Y-4431497D01*
X18464286Y-3460068D02*
X18407143Y-3402925D01*
X18407143Y-3402925D02*
X18292858Y-3345782D01*
X18292858Y-3345782D02*
X18007143Y-3345782D01*
X18007143Y-3345782D02*
X17892858Y-3402925D01*
X17892858Y-3402925D02*
X17835715Y-3460068D01*
X17835715Y-3460068D02*
X17778572Y-3574354D01*
X17778572Y-3574354D02*
X17778572Y-3688640D01*
X17778572Y-3688640D02*
X17835715Y-3860068D01*
X17835715Y-3860068D02*
X18521429Y-4545782D01*
X18521429Y-4545782D02*
X17778572Y-4545782D01*
X15435714Y-4088640D02*
X14521429Y-4088640D01*
X14978571Y-4545782D02*
X14978571Y-3631497D01*
X13092857Y-4488640D02*
X12921429Y-4545782D01*
X12921429Y-4545782D02*
X12635714Y-4545782D01*
X12635714Y-4545782D02*
X12521429Y-4488640D01*
X12521429Y-4488640D02*
X12464286Y-4431497D01*
X12464286Y-4431497D02*
X12407143Y-4317211D01*
X12407143Y-4317211D02*
X12407143Y-4202925D01*
X12407143Y-4202925D02*
X12464286Y-4088640D01*
X12464286Y-4088640D02*
X12521429Y-4031497D01*
X12521429Y-4031497D02*
X12635714Y-3974354D01*
X12635714Y-3974354D02*
X12864286Y-3917211D01*
X12864286Y-3917211D02*
X12978571Y-3860068D01*
X12978571Y-3860068D02*
X13035714Y-3802925D01*
X13035714Y-3802925D02*
X13092857Y-3688640D01*
X13092857Y-3688640D02*
X13092857Y-3574354D01*
X13092857Y-3574354D02*
X13035714Y-3460068D01*
X13035714Y-3460068D02*
X12978571Y-3402925D01*
X12978571Y-3402925D02*
X12864286Y-3345782D01*
X12864286Y-3345782D02*
X12578571Y-3345782D01*
X12578571Y-3345782D02*
X12407143Y-3402925D01*
X11892857Y-4545782D02*
X11892857Y-3345782D01*
X11321428Y-4545782D02*
X11321428Y-3345782D01*
X11321428Y-3345782D02*
X11035714Y-3345782D01*
X11035714Y-3345782D02*
X10864285Y-3402925D01*
X10864285Y-3402925D02*
X10750000Y-3517211D01*
X10750000Y-3517211D02*
X10692857Y-3631497D01*
X10692857Y-3631497D02*
X10635714Y-3860068D01*
X10635714Y-3860068D02*
X10635714Y-4031497D01*
X10635714Y-4031497D02*
X10692857Y-4260068D01*
X10692857Y-4260068D02*
X10750000Y-4374354D01*
X10750000Y-4374354D02*
X10864285Y-4488640D01*
X10864285Y-4488640D02*
X11035714Y-4545782D01*
X11035714Y-4545782D02*
X11321428Y-4545782D01*
X10121428Y-3917211D02*
X9721428Y-3917211D01*
X9550000Y-4545782D02*
X10121428Y-4545782D01*
X10121428Y-4545782D02*
X10121428Y-3345782D01*
X10121428Y-3345782D02*
X9550000Y-3345782D01*
X7892857Y-3345782D02*
X7664285Y-3345782D01*
X7664285Y-3345782D02*
X7550000Y-3402925D01*
X7550000Y-3402925D02*
X7435714Y-3517211D01*
X7435714Y-3517211D02*
X7378571Y-3745782D01*
X7378571Y-3745782D02*
X7378571Y-4145782D01*
X7378571Y-4145782D02*
X7435714Y-4374354D01*
X7435714Y-4374354D02*
X7550000Y-4488640D01*
X7550000Y-4488640D02*
X7664285Y-4545782D01*
X7664285Y-4545782D02*
X7892857Y-4545782D01*
X7892857Y-4545782D02*
X8007143Y-4488640D01*
X8007143Y-4488640D02*
X8121428Y-4374354D01*
X8121428Y-4374354D02*
X8178571Y-4145782D01*
X8178571Y-4145782D02*
X8178571Y-3745782D01*
X8178571Y-3745782D02*
X8121428Y-3517211D01*
X8121428Y-3517211D02*
X8007143Y-3402925D01*
X8007143Y-3402925D02*
X7892857Y-3345782D01*
X6864285Y-3345782D02*
X6864285Y-4317211D01*
X6864285Y-4317211D02*
X6807142Y-4431497D01*
X6807142Y-4431497D02*
X6750000Y-4488640D01*
X6750000Y-4488640D02*
X6635714Y-4545782D01*
X6635714Y-4545782D02*
X6407142Y-4545782D01*
X6407142Y-4545782D02*
X6292857Y-4488640D01*
X6292857Y-4488640D02*
X6235714Y-4431497D01*
X6235714Y-4431497D02*
X6178571Y-4317211D01*
X6178571Y-4317211D02*
X6178571Y-3345782D01*
X5778571Y-3345782D02*
X5092857Y-3345782D01*
X5435714Y-4545782D02*
X5435714Y-3345782D01*
%TO.C,BT1*%
D11*
X3050000Y-13500000D02*
X3050000Y-16020000D01*
X3050000Y-19980000D02*
X3050000Y-22500000D01*
X3050000Y-22500000D02*
X23940000Y-22500000D01*
X5890000Y-15460000D02*
X5890000Y-19090000D01*
X5890000Y-15460000D02*
X8650000Y-15460000D01*
X5890000Y-16050000D02*
X8650000Y-16050000D01*
X5890000Y-17570000D02*
X8650000Y-17570000D01*
X8650000Y-15460000D02*
X8650000Y-19130000D01*
X18450000Y-15450000D02*
X18450000Y-19080000D01*
X18450000Y-15450000D02*
X18450000Y-19080000D01*
X18450000Y-15450000D02*
X21210000Y-15450000D01*
X18450000Y-15450000D02*
X21210000Y-15450000D01*
X18450000Y-16040000D02*
X21210000Y-16040000D01*
X18450000Y-16040000D02*
X21210000Y-16040000D01*
X18450000Y-17560000D02*
X21210000Y-17560000D01*
X18450000Y-17560000D02*
X21210000Y-17560000D01*
X21210000Y-15450000D02*
X21210000Y-19120000D01*
X21210000Y-15450000D02*
X21210000Y-19120000D01*
X23950000Y-13500000D02*
X3050000Y-13500000D01*
X23950000Y-15270000D02*
X23950000Y-13500000D01*
X23950000Y-22500000D02*
X23950000Y-20730000D01*
X8649862Y-19137948D02*
G75*
G02*
X5890000Y-19090000I-1379862J27948D01*
G01*
X21210000Y-19120000D02*
G75*
G02*
X18450000Y-19080000I-1380000J20000D01*
G01*
X21210000Y-19120000D02*
G75*
G02*
X18450000Y-19080000I-1380000J20000D01*
G01*
D12*
X1080000Y-13500000D02*
G75*
G02*
X1020000Y-13500000I-30000J0D01*
G01*
X1020000Y-13500000D02*
G75*
G02*
X1080000Y-13500000I30000J0D01*
G01*
%TD*%
%LPC*%
D13*
%TO.C,BT1*%
X2050000Y-18000000D03*
D14*
X24950000Y-18000000D03*
D15*
X13500000Y-18000000D03*
%TD*%
%LPD*%
M02*
