%TF.GenerationSoftware,KiCad,Pcbnew,10.0.6*%
%TF.CreationDate,2026-10-04T17:09:46+02:00*%
%TF.ProjectId,openrz67-nrf,6f70656e-727a-4363-972d-6e72662e6b69,A*%
%TF.SameCoordinates,Original*%
%TF.FileFunction,Paste,Top*%
%TF.FilePolarity,Positive*%
%FSLAX46Y46*%
G04 Gerber Fmt 4.6, Leading zero omitted, Abs format (unit mm)*
G04 Created by KiCad (PCBNEW 10.0.6) date 2026-10-04 17:09:46*
%MOMM*%
%LPD*%
G01*
G04 APERTURE LIST*
%ADD10C,0.000000*%
%ADD11R,1.728000X1.485000*%
%ADD12R,0.600000X1.550000*%
%ADD13R,1.200000X1.800000*%
%ADD14R,0.790000X0.540000*%
%ADD15R,0.540000X0.565500*%
%ADD16R,0.800000X1.500000*%
%ADD17R,2.000000X0.900000*%
%ADD18R,0.900000X2.000000*%
%ADD19R,0.900000X0.900000*%
%ADD20R,0.565500X0.540000*%
%ADD21R,0.800000X0.800000*%
%ADD22R,0.800000X1.700000*%
%ADD23R,1.550000X0.600000*%
%ADD24R,1.800000X1.200000*%
G04 APERTURE END LIST*
D10*
%TO.C,C2*%
G36*
X9090000Y-20075000D02*
G01*
X9090000Y-20525000D01*
X9020000Y-20575000D01*
X8540000Y-20575000D01*
X8490000Y-20525000D01*
X8490000Y-20075000D01*
X8540000Y-20025000D01*
X9020000Y-20025000D01*
X9090000Y-20075000D01*
G37*
G36*
X10050000Y-20075000D02*
G01*
X10050000Y-20525000D01*
X10000000Y-20575000D01*
X9520000Y-20575000D01*
X9450000Y-20525000D01*
X9450000Y-20075000D01*
X9520000Y-20025000D01*
X10000000Y-20025000D01*
X10050000Y-20075000D01*
G37*
%TO.C,R3*%
G36*
X14170000Y-26724500D02*
G01*
X14170000Y-27225000D01*
X14130000Y-27265000D01*
X13670000Y-27265000D01*
X13630000Y-27225000D01*
X13630000Y-26724500D01*
X13670000Y-26684500D01*
X14130000Y-26684500D01*
X14170000Y-26724500D01*
G37*
G36*
X14170000Y-27575000D02*
G01*
X14170000Y-28075500D01*
X14130000Y-28115500D01*
X13670000Y-28115500D01*
X13630000Y-28075500D01*
X13630000Y-27575000D01*
X13670000Y-27535000D01*
X14130000Y-27535000D01*
X14170000Y-27575000D01*
G37*
%TO.C,R1*%
G36*
X19735000Y-3770000D02*
G01*
X19735000Y-4230000D01*
X19695000Y-4270000D01*
X19194500Y-4270000D01*
X19154500Y-4230000D01*
X19154500Y-3770000D01*
X19194500Y-3730000D01*
X19695000Y-3730000D01*
X19735000Y-3770000D01*
G37*
G36*
X20585500Y-3770000D02*
G01*
X20585500Y-4230000D01*
X20545500Y-4270000D01*
X20045000Y-4270000D01*
X20005000Y-4230000D01*
X20005000Y-3770000D01*
X20045000Y-3730000D01*
X20545500Y-3730000D01*
X20585500Y-3770000D01*
G37*
%TO.C,R2*%
G36*
X23705000Y-3770000D02*
G01*
X23705000Y-4230000D01*
X23665000Y-4270000D01*
X23164500Y-4270000D01*
X23124500Y-4230000D01*
X23124500Y-3770000D01*
X23164500Y-3730000D01*
X23665000Y-3730000D01*
X23705000Y-3770000D01*
G37*
G36*
X24555500Y-3770000D02*
G01*
X24555500Y-4230000D01*
X24515500Y-4270000D01*
X24015000Y-4270000D01*
X23975000Y-4230000D01*
X23975000Y-3770000D01*
X24015000Y-3730000D01*
X24515500Y-3730000D01*
X24555500Y-3770000D01*
G37*
%TD*%
D11*
%TO.C,C1*%
X25600000Y-15410000D03*
X25600000Y-18590000D03*
%TD*%
D12*
%TO.C,J1*%
X19800000Y-22760000D03*
X20800000Y-22760000D03*
X21800000Y-22760000D03*
X22800000Y-22760000D03*
D13*
X24100000Y-26640000D03*
X18500000Y-26640000D03*
%TD*%
D14*
%TO.C,C2*%
X8725000Y-20300000D03*
X9815000Y-20300000D03*
%TD*%
D15*
%TO.C,R3*%
X13900000Y-27833000D03*
X13900000Y-26967000D03*
%TD*%
D16*
%TO.C,U3*%
X24270000Y-6500000D03*
X21730000Y-6500000D03*
X21730000Y-13500000D03*
X24270000Y-13500000D03*
%TD*%
D17*
%TO.C,U1*%
X1500000Y-4290000D03*
X1500000Y-5560000D03*
X1500000Y-6800000D03*
X1500000Y-8100000D03*
X1500000Y-9370000D03*
X1500000Y-10640000D03*
X1500000Y-11910000D03*
X1500000Y-13180000D03*
X1500000Y-14450000D03*
X1500000Y-15720000D03*
D18*
X3550000Y-18310000D03*
D19*
X4190000Y-16210000D03*
D18*
X4820000Y-18310000D03*
D19*
X5460000Y-16210000D03*
D18*
X6090000Y-18310000D03*
D19*
X6730000Y-16210000D03*
D18*
X7360000Y-18310000D03*
D19*
X8000000Y-16210000D03*
D18*
X8630000Y-18310000D03*
D19*
X9270000Y-16210000D03*
D18*
X9900000Y-18310000D03*
D19*
X10540000Y-16210000D03*
D18*
X11170000Y-18310000D03*
D19*
X11810000Y-16210000D03*
D18*
X12440000Y-18310000D03*
D17*
X14500000Y-15720000D03*
X14500000Y-14450000D03*
D19*
X12410000Y-13810000D03*
D17*
X14500000Y-13180000D03*
D19*
X12410000Y-12540000D03*
D17*
X14500000Y-11910000D03*
D19*
X12410000Y-11270000D03*
D17*
X14500000Y-10640000D03*
D19*
X12410000Y-10000000D03*
D17*
X14500000Y-9370000D03*
D19*
X12410000Y-8730000D03*
D17*
X14500000Y-8100000D03*
D19*
X12410000Y-7460000D03*
D17*
X14500000Y-6830000D03*
D19*
X12410000Y-6190000D03*
D17*
X14500000Y-5560000D03*
D19*
X12400000Y-4920000D03*
D17*
X14500000Y-4290000D03*
%TD*%
D16*
%TO.C,U2*%
X19870000Y-6500000D03*
X17330000Y-6500000D03*
X17330000Y-13500000D03*
X19870000Y-13500000D03*
%TD*%
D20*
%TO.C,R1*%
X19437000Y-4000000D03*
X20303000Y-4000000D03*
%TD*%
D21*
%TO.C,D1*%
X16599500Y-27600000D03*
X15000500Y-27600000D03*
%TD*%
D20*
%TO.C,R2*%
X23407000Y-4000000D03*
X24273000Y-4000000D03*
%TD*%
D22*
%TO.C,SW1*%
X4300000Y-27600000D03*
X7700000Y-27600000D03*
%TD*%
D23*
%TO.C,J2*%
X8560000Y-25800000D03*
X8560000Y-24800000D03*
X8560000Y-23800000D03*
X8560000Y-22800000D03*
D24*
X12440000Y-21500000D03*
X12440000Y-27100000D03*
%TD*%
M02*
