#VRML V2.0 utf8
# 3D model generated by easyeda2kicad.py (https://github.com/uPesy/easyeda2kicad.py)

Shape{
    appearance Appearance {
        material  Material 	{
            diffuseColor 0.6666666666666666 0.6980392156862745 0.7686274509803922
            specularColor 0.3333333333333333 0.34901960784313724 0.3843137254901961
            ambientIntensity 0.6967
            transparency 0.0
            shininess 0.5
        }
    }
    geometry IndexedFaceSet {
        ccw TRUE
        solid FALSE
        coord DEF co Coordinate {
            point [
                4.1142 1.1811 1.3189, 4.1142 0.7896 1.3189, 4.1142 0.7896 0.5015, 4.1142 0.1123 0.2933, 4.1142 0.1106 0.2931, 4.1142 0.1299 0.2931, 4.1142 0.0267 0.4381, 4.1142 0.0255 0.4411, 4.1142 0.0255 0.4201, 4.1142 -0.0988 0.4093, 4.1142 -0.0937 0.3966, 4.1142 -0.0564 0.3966, 4.1142 -0.1104 0.4255, 4.1142 -0.1066 0.4201, 4.1142 -0.0564 0.4201, 4.1142 -0.2016 0.5098, 4.1142 -0.1893 0.5015, 4.1142 -0.0564 0.5015, 4.1142 -0.1762 0.4927, 4.1142 -0.1575 0.4711, 4.1142 -0.1455 0.4478, 4.1142 -0.1429 0.4469, 4.1142 -0.1259 0.4385, 4.1142 -0.2302 0.5199, 4.1142 -0.0564 1.3189, 4.1142 -0.2537 0.5223, 4.1142 -0.2819 0.5189, 4.1142 -0.3081 0.5087, 4.1142 -1.1811 1.3189, 4.1142 -0.3197 0.5015, 4.1142 -1.1811 0.5015, 4.1142 -0.322 0.5001, 4.1142 -1.1811 0.4201, 4.1142 -0.4443 0.4201, 4.1142 -0.4393 0.4313, 4.1142 -0.4256 0.4489, 4.1142 -0.3826 0.4734, 4.1142 -0.3601 0.4762, 4.1142 -0.3354 0.4887, 4.1142 -0.3536 0.4759, 4.1142 -0.347 0.4751, 4.1142 -0.4218 0.4525, 4.1142 -0.4037 0.4652, 4.1142 -0.4107 0.3068, 4.1142 -0.4284 0.322, 4.1142 -1.1811 0.2931, 4.1142 -0.3902 0.2968, 4.1142 -0.4414 0.3404, 4.1142 -0.4496 0.3616, 4.1142 -1.1811 0.3966, 4.1142 -0.4523 0.384, 4.1142 -0.4522 0.3894, 4.1142 -0.4509 0.3966, 4.1142 -0.4484 0.4108, 4.1142 -0.3523 0.2614, 4.1142 -0.3583 0.264, 4.1142 -0.3693 0.2725, 4.1142 -0.3829 0.2946, 4.1142 -0.3822 0.2931, 4.1142 -0.3776 0.2831, 4.1142 -1.1811 0.2614, 4.1142 -1.1811 0.1969, 4.1142 -0.7874 0.1969, 4.1142 -0.305 0.2614, 4.1142 -0.316 0.2574, 4.1142 -0.0564 0.1575, 4.1142 -0.3288 0.2559, 4.1142 -0.3319 0.256, 4.1142 -0.7874 0.1575, 4.1142 -0.3453 0.2583, 4.1142 -0.2755 0.2931, 4.1142 -0.2755 0.2929, 4.1142 -0.0564 0.2614, 4.1142 -0.2822 0.2802, 4.1142 -0.2918 0.2697, 4.1142 -0.3033 0.262, 4.1142 -0.2063 0.3242, 4.1142 -0.2028 0.3267, 4.1142 -0.1922 0.3607, 4.1142 -0.4116 0.3621, 4.1142 -0.4041 0.3498, 4.1142 -0.3755 0.3458, 4.1142 -0.3937 0.3396, 4.1142 -0.3823 0.3328, 4.1142 -0.2861 0.351, 4.1142 -0.2098 0.3908, 4.1142 -0.2955 0.3596, 4.1142 -0.3075 0.3663, 4.1142 -0.1249 0.3788, 4.1142 -0.1278 0.3896, 4.1142 -0.1318 0.3966, 4.1142 -0.4152 0.3966, 4.1142 -0.1989 0.3282, 4.1142 -0.1945 0.3288, 4.1142 -0.1939 0.3287, 4.1142 -0.0989 0.3349, 4.1142 -0.1102 0.3191, 4.1142 -0.0564 0.2931, 4.1142 -0.0918 0.3919, 4.1142 -0.0891 0.3732, 4.1142 -0.0917 0.353, 4.1142 -0.3541 0.3643, 4.1142 -0.3659 0.3564, 4.1142 -0.4165 0.3851, 4.1142 -0.4157 0.376, 4.1142 -0.1256 0.306, 4.1142 -0.143 0.2975, 4.1142 -0.162 0.2935, 4.1142 -0.2121 0.3111, 4.1142 -0.212 0.3134, 4.1142 -0.2719 0.3185, 4.1142 -0.2108 0.3177, 4.1142 -0.2086 0.3216, 4.1142 -0.1922 0.3284, 4.1142 -0.191 0.3282, 4.1142 -0.1654 0.3282, 4.1142 -0.1956 0.2935, 4.1142 -0.1988 0.294, 4.1142 -0.2026 0.2955, 4.1142 -0.2063 0.2981, 4.1142 -0.2076 0.2995, 4.1142 -0.2101 0.303, 4.1142 -0.2116 0.3069, 4.1142 -0.2722 0.307, 4.1142 -0.2719 0.3128, 4.1142 -0.1362 0.3423, 4.1142 -0.1299 0.3511, 4.1142 -0.1259 0.3613, 4.1142 -0.1244 0.3726, 4.1142 -0.3415 0.3689, 4.1142 -0.3288 0.3703, 4.1142 -0.3211 0.3698, 4.1142 -0.1545 0.3304, 4.1142 -0.1446 0.3352, 4.1142 -0.4104 0.4107, 4.1142 -0.415 0.3979, 4.1142 -0.1734 0.417, 4.1142 -0.1688 0.417, 4.1142 -0.1334 0.3993, 4.1142 -0.139 0.4054, 4.1142 -0.1478 0.4117, 4.1142 -0.1577 0.4156, 4.1142 -0.1859 0.4515, 4.1142 -0.1988 0.4668, 4.1142 -0.3294 0.4335, 4.1142 -0.1999 0.4678, 4.1142 -0.2158 0.4789, 4.1142 -0.3206 0.4516, 4.1142 -0.4041 0.4201, 4.1142 -0.3345 0.4362, 4.1142 -0.1741 0.4201, 4.1142 -0.177 0.4332, 4.1142 -0.3473 0.4407, 4.1142 -0.3596 0.4421, 4.1142 -0.3654 0.4418, 4.1142 -0.3079 0.4669, 4.1142 -0.2337 0.4858, 4.1142 -0.2927 0.4779, 4.1142 -0.2531 0.4882, 4.1142 -0.2741 0.4855, 4.1142 -0.3795 0.4385, 4.1142 -0.3922 0.4317, 4.1142 -0.4027 0.4222, 4.1142 0.3238 0.4201, 4.1142 0.2978 0.4208, 4.1142 0.2864 0.4208, 4.1142 0.2673 0.5009, 4.1142 0.3238 0.5015, 4.1142 0.2488 0.5015, 4.1142 0.2371 0.4208, 4.1142 0.2257 0.4208, 4.1142 0.2235 0.4201, 4.1142 0.2488 0.4201, 4.1142 0.2488 0.4427, 4.1142 0.2448 0.4427, 4.1142 0.2235 0.5015, 4.1142 0.2488 0.4814, 4.1142 0.2562 0.5009, 4.1142 0.1485 0.5015, 4.1142 0.1299 0.5015, 4.1142 0.1391 0.5009, 4.1142 0.1299 0.5009, 4.1142 0.1391 0.4916, 4.1142 0.141 0.4299, 4.1142 0.1485 0.4201, 4.1142 0.141 0.4208, 4.1142 0.1299 0.4201, 4.1142 0.1082 0.4916, 4.1142 0.1082 0.466, 4.1142 0.1299 0.4916, 4.1142 0.1299 0.466, 4.1142 0.1369 0.466, 4.1142 0.1369 0.4569, 4.1142 0.1299 0.4299, 4.1142 0.1299 0.4569, 4.1142 0.1082 0.4299, 4.1142 0.1082 0.4569, 4.1142 0.0979 0.5009, 4.1142 0.0933 0.5015, 4.1142 0.0979 0.4208, 4.1142 0.1299 0.4208, 4.1142 0.0933 0.4201, 4.1142 0.0819 0.4881, 4.1142 0.0819 0.434, 4.1142 0.0806 0.4888, 4.1142 0.0339 0.47, 4.1142 0.0785 0.4325, 4.1142 0.0364 0.4771, 4.1142 0.0402 0.4828, 4.1142 0.0328 0.4599, 4.1142 0.0328 0.4592, 4.1142 0.0737 0.4304, 4.1142 0.0646 0.4288, 4.1142 0.0724 0.4918, 4.1142 0.063 0.4929, 4.1142 0.0595 0.4927, 4.1142 0.0526 0.4913, 4.1142 0.0785 0.4896, 4.1142 0.0463 0.4883, 4.1142 0.0412 0.484, 4.1142 0.034 0.4493, 4.1142 0.0366 0.4428, 4.1142 0.0406 0.4371, 4.1142 0.0479 0.4316, 4.1142 0.0538 0.4295, 4.1142 0.0612 0.4286, 4.1142 0.0426 0.4352, 4.1142 0.0711 0.5015, 4.1142 0.074 0.5013, 4.1142 0.0785 0.5015, 4.1142 0.0785 0.4999, 4.1142 0.0819 0.4989, 4.1142 0.0636 0.5022, 4.1142 0.0785 1.3189, 4.1142 0.0629 0.5022, 4.1142 0.0255 1.3189, 4.1142 0.0569 0.5015, 4.1142 0.0255 0.5015, 4.1142 0.0437 0.4979, 4.1142 0.0522 0.501, 4.1142 0.0279 0.4833, 4.1142 0.0335 0.4904, 4.1142 0.0358 0.4926, 4.1142 0.0207 0.4201, 4.1142 0.0207 0.5015, 4.1142 0.024 0.4744, 4.1142 0.0255 0.4778, 4.1142 0.0235 0.4465, 4.1142 0.0219 0.4593, 4.1142 0.0221 0.4641, 4.1142 0.0383 0.4253, 4.1142 0.0458 0.4216, 4.1142 0.0526 0.4201, 4.1142 0.0322 0.4304, 4.1142 0.0314 0.4312, 4.1142 0.0544 0.4197, 4.1142 0.0255 0.3966, 4.1142 0.0597 0.4194, 4.1142 0.0785 0.3966, 4.1142 0.0658 0.4201, 4.1142 0.0819 0.4241, 4.1142 0.0785 0.4201, 4.1142 0.0785 0.4228, 4.1142 0.0735 0.421, 4.1142 1.1811 0.1969, 4.1142 1.1811 0.2614, 4.1142 0.7896 0.1969, 4.1142 0.7896 0.2614, 4.1142 0.7874 0.1969, 4.1142 0.3238 0.2614, 4.1142 0.7874 0.1575, 4.1142 0.0312 0.3183, 4.1142 0.0332 0.3211, 4.1142 0.0347 0.3372, 4.1142 0.0785 0.2931, 4.1142 0.075 0.2938, 4.1142 0.065 0.2938, 4.1142 0.0374 0.2946, 4.1142 0.0255 0.2931, 4.1142 0.0412 0.2931, 4.1142 0.0414 0.2931, 4.1142 0.0308 0.3011, 4.1142 0.0296 0.3045, 4.1142 0.0291 0.3091, 4.1142 0.0605 0.3517, 4.1142 0.0647 0.3504, 4.1142 0.068 0.3485, 4.1142 0.0707 0.3459, 4.1142 0.0364 0.3238, 4.1142 0.0407 0.326, 4.1142 0.0411 0.3413, 4.1142 0.0481 0.3277, 4.1142 0.0568 0.3438, 4.1142 0.0534 0.3441, 4.1142 0.0474 0.3435, 4.1142 0.034 0.2969, 4.1142 0.0329 0.2981, 4.1142 0.065 0.3026, 4.1142 0.0647 0.3026, 4.1142 0.0632 0.3002, 4.1142 0.06 0.2968, 4.1142 0.0291 0.3105, 4.1142 0.0298 0.3148, 4.1142 0.0727 0.3426, 4.1142 0.0743 0.338, 4.1142 0.075 0.3306, 4.1142 0.0347 0.3469, 4.1142 0.0374 0.3485, 4.1142 0.0449 0.3512, 4.1142 0.0544 0.3523, 4.1142 0.065 0.3301, 4.1142 0.0647 0.3346, 4.1142 0.0636 0.3381, 4.1142 0.0625 0.3402, 4.1142 0.0609 0.3418, 4.1142 0.0592 0.3429, 4.1142 0.0472 0.2924, 4.1142 0.0255 0.2614, 4.1142 0.0524 0.293, 4.1142 0.0785 0.2614, 4.1142 0.0527 0.2931, 4.1142 0.0887 0.3355, 4.1142 0.0891 0.3391, 4.1142 0.0902 0.3286, 4.1142 0.0891 0.3316, 4.1142 0.0886 0.3061, 4.1142 0.0926 0.3037, 4.1142 0.0933 0.3034, 4.1142 0.0933 0.3247, 4.1142 0.0915 0.3265, 4.1142 0.0932 0.3248, 4.1142 0.0975 0.2931, 4.1142 0.0958 0.2933, 4.1142 0.0933 0.2931, 4.1142 0.0933 0.2942, 4.1142 0.0886 0.2958, 4.1142 0.1041 0.2924, 4.1142 0.0933 0.2614, 4.1142 0.1299 0.2614, 4.1142 0.1245 0.3497, 4.1142 0.1245 0.34, 4.1142 0.0951 0.3477, 4.1142 0.0981 0.3495, 4.1142 0.0933 0.3966, 4.1142 0.1268 0.3053, 4.1142 0.1255 0.3021, 4.1142 0.1237 0.2995, 4.1142 0.0903 0.3423, 4.1142 0.0921 0.345, 4.1142 0.0933 0.3461, 4.1142 0.1036 0.3515, 4.1142 0.111 0.3523, 4.1142 0.1299 0.3966, 4.1142 0.1165 0.3519, 4.1142 0.1239 0.3188, 4.1142 0.1258 0.316, 4.1142 0.1268 0.3131, 4.1142 0.1273 0.3093, 4.1142 0.1208 0.297, 4.1142 0.1178 0.2952, 4.1142 0.11 0.3441, 4.1142 0.107 0.3439, 4.1142 0.099 0.3364, 4.1142 0.1043 0.3432, 4.1142 0.1021 0.342, 4.1142 0.0991 0.3351, 4.1142 0.0995 0.3335, 4.1142 0.1002 0.3322, 4.1142 0.1012 0.3311, 4.1142 0.1048 0.3289, 4.1142 0.1166 0.3434, 4.1142 0.111 0.3262, 4.1142 0.1222 0.3413, 4.1142 0.1148 0.3246, 4.1142 0.1215 0.3209, 4.1142 0.1006 0.3407, 4.1142 0.0997 0.3394, 4.1142 0.0992 0.338, 4.1142 0.0988 0.3013, 4.1142 0.1039 0.3189, 4.1142 0.0979 0.3216, 4.1142 0.1051 0.3006, 4.1142 0.1056 0.3006, 4.1142 0.1105 0.3161, 4.1142 0.1107 0.3012, 4.1142 0.117 0.3083, 4.1142 0.1169 0.3096, 4.1142 0.1133 0.3021, 4.1142 0.1142 0.3027, 4.1142 0.1154 0.3037, 4.1142 0.1162 0.305, 4.1142 0.1168 0.3064, 4.1142 0.1164 0.3112, 4.1142 0.1156 0.3125, 4.1142 0.1144 0.3138, 4.1142 0.1982 0.3738, 4.1142 0.2235 0.3738, 4.1142 0.2235 0.3966, 4.1142 0.1586 0.308, 4.1142 0.1599 0.3033, 4.1142 0.1601 0.3033, 4.1142 0.1874 0.351, 4.1142 0.1485 0.3966, 4.1142 0.177 0.351, 4.1142 0.1485 0.337, 4.1142 0.1614 0.3079, 4.1142 0.1606 0.3052, 4.1142 0.1485 0.3101, 4.1142 0.1325 0.351, 4.1142 0.1437 0.351, 4.1142 0.1546 0.2931, 4.1142 0.1549 0.2939, 4.1142 0.1485 0.2799, 4.1142 0.1485 0.2799, 4.1142 0.1485 0.2931, 4.1142 0.1505 0.2835, 4.1142 0.1345 0.2766, 4.1142 0.1345 0.2676, 4.1142 0.1366 0.2759, 4.1142 0.1402 0.2754, 4.1142 0.1426 0.2757, 4.1142 0.1485 0.2686, 4.1142 0.1451 0.2673, 4.1142 0.1485 0.2614, 4.1142 0.141 0.2668, 4.1142 0.1388 0.2669, 4.1142 0.1448 0.2765, 4.1142 0.1467 0.2778, 4.1142 0.1614 0.2851, 4.1142 0.1569 0.2763, 4.1142 0.2235 0.2614, 4.1142 0.1646 0.2931, 4.1142 0.1532 0.2719, 4.1142 0.1525 0.2713, 4.1142 0.149 0.2688, 4.1142 0.2394 0.3738, 4.1142 0.2394 0.3646, 4.1142 0.2488 0.3966, 4.1142 0.2412 0.3029, 4.1142 0.2488 0.2931, 4.1142 0.2412 0.2938, 4.1142 0.2235 0.2931, 4.1142 0.2235 0.2938, 4.1142 0.1982 0.2938, 4.1142 0.2085 0.3646, 4.1142 0.2085 0.339, 4.1142 0.2235 0.3646, 4.1142 0.2235 0.339, 4.1142 0.2371 0.339, 4.1142 0.2371 0.3298, 4.1142 0.2235 0.3029, 4.1142 0.2235 0.3298, 4.1142 0.2085 0.3029, 4.1142 0.2085 0.3298, 4.1142 -0.0132 0.5009, 4.1142 -0.0132 0.4299, 4.1142 0.0187 0.4299, 4.1142 -0.0236 0.4208, 4.1142 -0.0236 0.5009, 4.1142 0.0187 0.4208, 4.1142 0.0195 0.3029, 4.1142 0.0195 0.2938, 4.1142 0.0207 0.2931, 4.1142 -0.0236 0.2938, 4.1142 -0.0236 0.3738, 4.1142 0.0207 0.3966, 4.1142 0.0177 0.3738, 4.1142 0.0177 0.3646, 4.1142 -0.0132 0.3646, 4.1142 -0.0132 0.339, 4.1142 -0.0132 0.3298, 4.1142 -0.0132 0.3029, 4.1142 0.0154 0.3298, 4.1142 0.0154 0.339, 4.1142 0.0207 1.3189, 4.1142 0.0207 0.2614, 4.1142 0.0565 0.2945, 4.1142 0.2189 0.4469, 4.1142 0.2149 0.4387, 4.1142 0.1789 0.5009, 4.1142 0.1917 0.4994, 4.1142 0.2013 0.4957, 4.1142 0.2004 0.4258, 4.1142 0.1912 0.4223, 4.1142 0.1781 0.4208, 4.1142 0.1561 0.4208, 4.1142 0.1561 0.5009, 4.1142 0.2092 0.4903, 4.1142 0.2125 0.487, 4.1142 0.2173 0.4798, 4.1142 0.2092 0.432, 4.1142 0.2082 0.4311, 4.1142 0.2202 0.472, 4.1142 0.2213 0.4618, 4.1142 0.221 0.4562, 4.1142 0.0933 1.3189, 4.1142 0.1299 1.3189, 4.1142 0.1485 1.3189, 4.1142 0.2235 1.3189, 4.1142 0.2488 1.3189, 4.1142 0.3238 1.3189, 4.1142 0.3192 0.3199, 4.1142 0.3152 0.3116, 4.1142 0.3238 0.2931, 4.1142 0.3238 0.3966, 4.1142 0.292 0.3724, 4.1142 0.3015 0.3687, 4.1142 0.3007 0.2988, 4.1142 0.2915 0.2953, 4.1142 0.2784 0.2938, 4.1142 0.2564 0.2938, 4.1142 0.2564 0.3738, 4.1142 0.2792 0.3738, 4.1142 0.2782 0.4427, 4.1142 0.3095 0.3632, 4.1142 0.3128 0.3599, 4.1142 0.3176 0.3528, 4.1142 0.3095 0.305, 4.1142 0.3085 0.3041, 4.1142 0.3204 0.345, 4.1142 0.3216 0.3348, 4.1142 0.3213 0.3291, 4.1142 0.0207 0.1575, 4.1142 0.0255 0.1575, 4.1142 0.0785 0.1575, 4.1142 0.0933 0.1575, 4.1142 0.1299 0.1575, 4.1142 0.1485 0.1575, 4.1142 0.2235 0.1575, 4.1142 0.2488 0.2614, 4.1142 0.2488 0.1575, 4.1142 0.3238 0.1575, 4.1142 0.3374 0.2938, 4.1142 0.326 0.2938, 4.1142 0.3866 0.2938, 4.1142 0.3785 0.3157, 4.1142 0.3451 0.3157, 4.1142 0.3565 0.3738, 4.1142 0.3675 0.3738, 4.1142 0.398 0.2938, 4.1142 0.7896 0.2931, 4.1142 0.7896 0.3966, 4.1142 0.7896 0.4201, 4.1142 1.1811 0.5015, 4.1142 1.1811 0.4201, 4.1142 1.1811 0.3966, 4.1142 1.1811 0.2931, 4.8228 0.4 0.0, 4.8228 0.6693 0.0, 4.8228 0.4 0.0787, 4.8228 0.6693 0.0787, 4.0354 1.1811 1.3189, 4.0354 1.1811 0.1969, -4.0354 -1.1811 0.1969, -4.0354 -1.1811 1.3189, -4.1142 -1.1811 0.1969, -4.1142 -1.1811 1.3189, 2.4803 -1.1811 1.4764, 2.5197 -1.1811 1.4764, 2.4803 -1.1811 1.3976, 2.5197 -1.1811 1.3976, -3.7795 -1.1811 1.3976, -3.9567 -1.1811 1.3976, -3.9567 1.1811 1.3976, -2.5197 0.5906 1.3976, -3.7795 1.1811 1.3976, -2.4803 -1.1811 1.3976, -2.4803 -1.084 1.3976, -1.2992 -1.084 1.3976, 1.2992 -1.084 1.3976, 2.4803 -1.084 1.3976, 1.2992 -1.1811 1.3976, -2.4996 0.7434 1.3976, -1.339 0.8858 1.3976, -1.4328 1.0081 1.3976, 3.5827 1.7717 1.3976, -1.5551 1.102 1.3976, -2.5197 -1.1811 1.3976, -3.7795 -1.5748 1.3976, 2.5197 0.5906 1.3976, 3.7795 1.1811 1.3976, 2.4996 0.7434 1.3976, 3.7795 1.5748 1.3976, 2.4406 0.8858 1.3976, 3.7746 1.6186 1.3976, -1.2598 -1.1811 1.3976, -1.2598 0.5906 1.3976, 1.2598 0.5906 1.3976, -1.28 0.7434 1.3976, 1.28 0.7434 1.3976, 1.339 0.8858 1.3976, 1.4328 1.0081 1.3976, 2.3467 1.0081 1.3976, -3.7746 1.6186 1.3976, -3.76 1.6602 1.3976, -2.4406 0.8858 1.3976, -3.7366 1.6975 1.3976, -3.7054 1.7287 1.3976, 3.7746 -1.6186 1.3976, 3.76 -1.6602 1.3976, 1.2598 -1.1811 1.3976, -3.5827 -1.7717 1.3976, -1.2992 -1.1811 1.3976, -3.7795 1.5748 1.3976, 3.9567 1.1811 1.3976, 3.9567 -1.1811 1.3976, 3.7795 -1.1811 1.3976, 3.7795 -1.5748 1.3976, 3.7366 -1.6975 1.3976, 3.7054 -1.7287 1.3976, 3.6681 -1.7522 1.3976, 3.5827 -1.7717 1.3976, 3.6265 -1.7667 1.3976, -3.7054 -1.7287 1.3976, -3.7366 -1.6975 1.3976, 3.6265 1.7667 1.3976, 3.6681 1.7522 1.3976, 3.7054 1.7287 1.3976, 3.7366 1.6975 1.3976, 3.76 1.6602 1.3976, -1.6975 1.161 1.3976, -1.8504 1.1811 1.3976, -3.5827 1.7717 1.3976, -1.9291 1.1811 1.3976, -2.082 1.161 1.3976, -3.6681 -1.7522 1.3976, -3.76 -1.6602 1.3976, -3.7746 -1.6186 1.3976, 2.2244 1.102 1.3976, 2.082 1.161 1.3976, 1.9291 1.1811 1.3976, 1.8504 1.1811 1.3976, 1.6975 1.161 1.3976, 1.5551 1.102 1.3976, -2.2244 1.102 1.3976, -2.3467 1.0081 1.3976, -3.6265 1.7667 1.3976, -3.6681 1.7522 1.3976, -3.6265 -1.7667 1.3976, 2.5197 0.5906 1.4764, 3.9567 1.1811 1.4764, 3.7795 1.1811 1.4764, 2.4803 -1.084 1.4764, 1.2992 -1.084 1.4764, 2.4996 0.7434 1.4764, -1.2598 0.5906 1.4764, -1.2598 -1.1811 1.4764, 1.2598 -1.1811 1.4764, 3.5827 -1.7717 1.4764, 1.2992 -1.1811 1.4764, -1.2992 -1.084 1.4764, -2.4803 -1.084 1.4764, -1.2992 -1.1811 1.4764, -2.4803 -1.1811 1.4764, -2.5197 -1.1811 1.4764, -3.7795 1.1811 1.4764, -3.7795 -1.1811 1.4764, -3.9567 1.1811 1.4764, -3.9567 -1.1811 1.4764, -1.339 0.8858 1.4764, 3.5827 1.7717 1.4764, -1.4328 1.0081 1.4764, -1.5551 1.102 1.4764, 3.6265 -1.7667 1.4764, 3.6681 -1.7522 1.4764, 3.7054 -1.7287 1.4764, 3.7366 -1.6975 1.4764, 3.76 -1.6602 1.4764, 3.9567 -1.1811 1.4764, 3.7795 -1.1811 1.4764, 3.7795 -1.5748 1.4764, 3.7746 -1.6186 1.4764, -2.3467 1.0081 1.4764, -2.2244 1.102 1.4764, -3.5827 1.7717 1.4764, -2.082 1.161 1.4764, 1.2598 0.5906 1.4764, 1.28 0.7434 1.4764, -1.28 0.7434 1.4764, 1.339 0.8858 1.4764, 1.4328 1.0081 1.4764, -3.6681 1.7522 1.4764, -3.7054 1.7287 1.4764, -2.4406 0.8858 1.4764, -3.7366 1.6975 1.4764, -3.76 1.6602 1.4764, 1.9291 1.1811 1.4764, 2.082 1.161 1.4764, 2.4406 0.8858 1.4764, 3.7795 1.5748 1.4764, 3.7746 1.6186 1.4764, -3.7795 -1.5748 1.4764, -3.7746 -1.6186 1.4764, -3.76 -1.6602 1.4764, -2.5197 0.5906 1.4764, -2.4996 0.7434 1.4764, -3.7795 1.5748 1.4764, -3.7746 1.6186 1.4764, -1.9291 1.1811 1.4764, -1.8504 1.1811 1.4764, -1.6975 1.161 1.4764, -3.7366 -1.6975 1.4764, -3.7054 -1.7287 1.4764, -3.6681 -1.7522 1.4764, 1.5551 1.102 1.4764, 1.6975 1.161 1.4764, 1.8504 1.1811 1.4764, -3.5827 -1.7717 1.4764, -3.6265 -1.7667 1.4764, -3.6265 1.7667 1.4764, 3.76 1.6602 1.4764, 3.7366 1.6975 1.4764, 3.7054 1.7287 1.4764, 2.2244 1.102 1.4764, 2.3467 1.0081 1.4764, 3.6265 1.7667 1.4764, 3.6681 1.7522 1.4764, 4.0354 -1.1811 0.1969, 4.0354 -1.1811 1.3189, 4.0354 0.7874 0.1969, 4.0354 -0.7874 0.1969, 4.0354 -0.7874 0.1575, 4.0354 0.7874 0.1575, -4.1142 -0.3937 0.1969, -4.1142 1.1811 1.3189, -4.1142 1.1811 0.1969, -4.1142 0.3937 0.1969, -4.1142 0.3937 0.1575, -4.1142 -0.3937 0.1575, -4.0354 1.1811 1.3189, -4.0354 -0.3937 0.1969, -4.0354 1.1811 0.1969, -4.0354 0.3937 0.1969, -4.0354 0.3937 0.1575, -4.0354 -0.3937 0.1575, -3.9771 -1.1811 1.395, -3.9975 -1.1811 1.471, -3.9961 -1.1811 1.3871, -4.0354 -1.1811 1.4553, -4.0124 -1.1811 1.3746, -4.068 -1.1811 1.4303, -4.0249 -1.1811 1.3583, -4.0931 -1.1811 1.3976, -4.0328 -1.1811 1.3393, -4.1088 -1.1811 1.3597, -4.0328 1.1811 1.3393, -4.1088 1.1811 1.3597, -4.0249 1.1811 1.3583, -4.0931 1.1811 1.3976, -4.0124 1.1811 1.3746, -4.068 1.1811 1.4303, -3.9961 1.1811 1.3871, -4.0354 1.1811 1.4553, -3.9771 1.1811 1.395, -3.9975 1.1811 1.471, -4.0408 -0.3937 0.1167, -4.0408 0.3937 0.1167, -4.0565 -0.3937 0.0787, -4.0565 0.3937 0.0787, -4.0816 -0.3937 0.0461, -4.0816 0.3937 0.0461, -4.1142 -0.3937 0.0211, -4.1142 0.3937 0.0211, -4.1522 -0.3937 0.0054, -4.1522 0.3937 0.0054, -4.1929 -0.3937 0.0, -4.1929 0.3937 0.0, -4.1929 0.3937 0.0787, -4.1929 -0.3937 0.0787, -4.1725 0.3937 0.0814, -4.1725 -0.3937 0.0814, -4.1535 0.3937 0.0893, -4.1535 -0.3937 0.0893, -4.1372 0.3937 0.1018, -4.1372 -0.3937 0.1018, -4.1247 0.3937 0.1181, -4.1247 -0.3937 0.1181, -4.1169 0.3937 0.1371, -4.1169 -0.3937 0.1371, -4.7047 0.3937 0.0, -4.8228 0.2756 0.0, -4.8188 -0.3062 0.0, -4.8228 -0.2756 0.0, -4.7047 -0.3937 0.0, -4.7353 -0.3897 0.0, -4.7638 -0.3779 0.0, -4.8188 0.3062 0.0, -4.807 0.3346 0.0, -4.7353 0.3897 0.0, -4.7882 0.3591 0.0, -4.7638 0.3779 0.0, -4.7882 -0.3591 0.0, -4.807 -0.3346 0.0, -4.8188 0.3062 0.0787, -4.8228 0.2756 0.0787, -4.7047 0.3937 0.0787, -4.7638 0.3779 0.0787, -4.7882 0.3591 0.0787, -4.807 0.3346 0.0787, -4.8228 -0.2756 0.0787, -4.7047 -0.3937 0.0787, -4.7353 0.3897 0.0787, -4.807 -0.3346 0.0787, -4.7882 -0.3591 0.0787, -4.7638 -0.3779 0.0787, -4.8188 -0.3062 0.0787, -4.7353 -0.3897 0.0787, -1.2992 0.4417 1.0227, -1.2992 -0.187 1.0227, -2.4803 -0.187 1.0227, -2.4803 0.4417 1.0227, -2.4602 0.5945 1.0227, -2.4012 0.737 1.0227, -2.3073 0.8593 1.0227, -2.185 0.9531 1.0227, -2.0426 1.0121 1.0227, -1.8898 1.0322 1.0227, -1.7369 1.0121 1.0227, -1.5945 0.9531 1.0227, -1.4722 0.8593 1.0227, -1.3783 0.737 1.0227, -1.3193 0.5945 1.0227, -2.4803 -0.187 1.1015, -1.2992 -0.187 1.1015, -2.4803 0.4417 1.1015, -1.2992 0.4417 1.1015, -2.4602 0.5945 1.1015, -2.4012 0.737 1.1015, -1.3193 0.5945 1.1015, -1.3783 0.737 1.1015, -1.7369 1.0121 1.1015, -1.8898 1.0322 1.1015, -2.0426 1.0121 1.1015, -2.185 0.9531 1.1015, -2.3073 0.8593 1.1015, -1.4722 0.8593 1.1015, -1.5945 0.9531 1.1015, -1.2992 -0.2293 1.1061, -2.4803 -0.2293 1.1061, -1.2992 -0.2697 1.1197, -2.4803 -0.2697 1.1197, -1.2992 -1.0013 1.4582, -2.4803 -1.0013 1.4582, -2.4803 -1.0417 1.4718, -1.2992 -1.0417 1.4718, -1.2992 -1.0586 1.3949, -2.4803 -1.0586 1.3949, -1.2992 -1.0344 1.3867, -2.4803 -1.0344 1.3867, -1.2992 -0.3028 1.0482, -2.4803 -0.3028 1.0482, -2.4803 -0.2463 1.0292, -1.2992 -0.2463 1.0292, 3.9771 1.1811 1.395, 3.9975 1.1811 1.471, 3.9961 1.1811 1.3871, 4.0354 1.1811 1.4553, 4.0124 1.1811 1.3746, 4.068 1.1811 1.4303, 4.0249 1.1811 1.3583, 4.0931 1.1811 1.3976, 4.0328 1.1811 1.3393, 4.1088 1.1811 1.3597, 4.0328 -1.1811 1.3393, 4.1088 -1.1811 1.3597, 4.0249 -1.1811 1.3583, 4.0931 -1.1811 1.3976, 4.0124 -1.1811 1.3746, 4.068 -1.1811 1.4303, 3.9961 -1.1811 1.3871, 4.0354 -1.1811 1.4553, 3.9771 -1.1811 1.395, 3.9975 -1.1811 1.471, 4.0408 0.7874 0.1167, 4.0408 -0.7874 0.1167, 4.0565 0.7874 0.0787, 4.0565 -0.7874 0.0787, 4.0816 0.7874 0.0461, 4.0816 -0.7874 0.0461, 4.1142 0.7874 0.0211, 4.1142 -0.7874 0.0211, 4.1522 0.7874 0.0054, 4.1522 -0.7874 0.0054, 4.1929 0.7874 0.0, 4.1929 -0.7874 0.0, 4.1929 -0.7874 0.0787, 4.1929 0.7874 0.0787, 4.1725 -0.7874 0.0814, 4.1725 0.7874 0.0814, 4.1535 -0.7874 0.0893, 4.1535 0.7874 0.0893, 4.1372 -0.7874 0.1018, 4.1372 0.7874 0.1018, 4.1247 -0.7874 0.1181, 4.1247 0.7874 0.1181, 4.1169 -0.7874 0.1371, 4.1169 0.7874 0.1371, 4.3541 -0.1012 0.0, 4.3648 -0.1285 0.0, 4.382 -0.1524 0.0, 4.3648 0.1285 0.0, 4.382 0.1524 0.0, 4.4045 0.1713 0.0, 4.4045 -0.1713 0.0, 4.4311 -0.184 0.0, 4.7047 -0.7874 0.0, 4.7422 -0.288 0.0, 4.7912 -0.3196 0.0, 4.8084 -0.3435 0.0, 4.8192 -0.3708 0.0, 4.3541 0.1012 0.0, 4.3504 0.072 0.0, 4.3504 -0.072 0.0, 4.7687 -0.3007 0.0, 4.8188 -0.6999 0.0, 4.807 -0.7283 0.0, 4.7638 0.7716 0.0, 4.7882 0.7528 0.0, 4.807 0.7283 0.0, 4.8188 0.6999 0.0, 4.7047 0.7874 0.0, 4.7422 0.288 0.0, 4.4311 0.184 0.0, 4.8192 0.3708 0.0, 4.8084 0.3435 0.0, 4.7912 0.3196 0.0, 4.8228 -0.4 0.0, 4.8228 -0.6693 0.0, 4.7687 0.3007 0.0, 4.7882 -0.7528 0.0, 4.7638 -0.7716 0.0, 4.7353 -0.7834 0.0, 4.7353 0.7834 0.0, 4.3648 -0.1285 0.0787, 4.382 -0.1524 0.0787, 4.4045 -0.1713 0.0787, 4.3541 0.1012 0.0787, 4.3648 0.1285 0.0787, 4.382 0.1524 0.0787, 4.4045 0.1713 0.0787, 4.4311 0.184 0.0787, 4.7047 0.7874 0.0787, 4.7422 0.288 0.0787, 4.7638 -0.7716 0.0787, 4.7882 -0.7528 0.0787, 4.807 -0.7283 0.0787, 4.8188 -0.6999 0.0787, 4.8228 -0.6693 0.0787, 4.7047 -0.7874 0.0787, 4.7422 -0.288 0.0787, 4.4311 -0.184 0.0787, 4.8192 -0.3708 0.0787, 4.8084 -0.3435 0.0787, 4.7912 -0.3196 0.0787, 4.3541 -0.1012 0.0787, 4.3504 -0.072 0.0787, 4.3504 0.072 0.0787, 4.8228 -0.4 0.0787, 4.7687 -0.3007 0.0787, 4.8188 0.6999 0.0787, 4.807 0.7283 0.0787, 4.7353 -0.7834 0.0787, 4.8084 0.3435 0.0787, 4.8192 0.3708 0.0787, 4.7912 0.3196 0.0787, 4.7687 0.3007 0.0787, 4.7882 0.7528 0.0787, 4.7638 0.7716 0.0787, 4.7353 0.7834 0.0787, 2.4803 -0.187 1.0227, 1.2992 -0.187 1.0227, 2.4803 0.4417 1.0227, 1.2992 0.4417 1.0227, 2.4602 0.5945 1.0227, 2.4012 0.737 1.0227, 1.3193 0.5945 1.0227, 1.3783 0.737 1.0227, 1.7369 1.0121 1.0227, 1.8898 1.0322 1.0227, 2.0426 1.0121 1.0227, 2.185 0.9531 1.0227, 2.3073 0.8593 1.0227, 1.4722 0.8593 1.0227, 1.5945 0.9531 1.0227, 2.4803 -0.2463 1.0292, 1.2992 -0.2463 1.0292, 2.4803 -0.3028 1.0482, 1.2992 -0.3028 1.0482, 1.2992 -1.0344 1.3867, 2.4803 -1.0344 1.3867, 1.2992 -1.0586 1.3949, 2.4803 -1.0586 1.3949, 2.4803 -1.0417 1.4718, 1.2992 -1.0417 1.4718, 2.4803 -1.0013 1.4582, 1.2992 -1.0013 1.4582, 1.2992 -0.2697 1.1197, 2.4803 -0.2697 1.1197, 1.2992 -0.2293 1.1061, 2.4803 -0.2293 1.1061, 1.2992 -0.187 1.1015, 2.4803 -0.187 1.1015, 1.2992 0.4417 1.1015, 2.4803 0.4417 1.1015, 2.4602 0.5945 1.1015, 2.4012 0.737 1.1015, 2.3073 0.8593 1.1015, 2.185 0.9531 1.1015, 2.0426 1.0121 1.1015, 1.8898 1.0322 1.1015, 1.7369 1.0121 1.1015, 1.5945 0.9531 1.1015, 1.4722 0.8593 1.1015, 1.3783 0.737 1.1015, 1.3193 0.5945 1.1015
            ]
        }
        coordIndex [
            0,1,2,-1,3,4,5,-1,6,7,8,-1,9,10,11,-1,12,13,14,-1,15,16,17,-1,17,16,18,-1,17,18,19,-1,19,20,17,-1,17,20,21,-1,17,21,22,-1,23,24,25,-1,25,24,26,-1,26,24,27,-1,27,24,28,-1,27,28,29,-1,29,28,30,-1,29,30,31,-1,32,33,30,-1,30,33,34,-1,30,34,35,-1,30,36,31,-1,31,36,37,-1,31,37,38,-1,38,37,39,-1,38,39,40,-1,35,41,30,-1,30,41,42,-1,30,42,36,-1,43,44,45,-1,43,45,46,-1,44,47,45,-1,45,47,48,-1,45,48,49,-1,49,48,50,-1,50,51,49,-1,49,51,52,-1,49,52,32,-1,32,52,53,-1,32,53,33,-1,54,55,45,-1,45,55,56,-1,57,46,58,-1,58,46,45,-1,58,45,59,-1,59,45,56,-1,60,61,62,-1,63,64,65,-1,64,66,65,-1,65,66,67,-1,65,67,68,-1,68,67,69,-1,68,69,62,-1,62,69,54,-1,62,54,60,-1,60,54,45,-1,70,71,72,-1,71,73,72,-1,72,73,74,-1,72,74,75,-1,76,77,78,-1,79,80,81,-1,81,80,82,-1,81,82,83,-1,84,85,86,-1,86,85,87,-1,88,89,85,-1,85,89,90,-1,85,90,91,-1,77,92,78,-1,78,92,93,-1,78,93,94,-1,95,96,97,-1,10,98,11,-1,11,98,99,-1,11,99,97,-1,97,99,100,-1,97,100,95,-1,101,91,102,-1,102,91,103,-1,102,103,81,-1,81,103,104,-1,81,104,79,-1,96,105,97,-1,97,105,106,-1,97,106,107,-1,108,109,110,-1,110,109,111,-1,110,111,78,-1,78,111,112,-1,78,112,76,-1,94,113,78,-1,78,113,114,-1,78,114,115,-1,116,117,70,-1,117,118,70,-1,70,118,119,-1,70,119,120,-1,120,121,70,-1,70,121,122,-1,70,122,123,-1,123,122,108,-1,123,108,124,-1,124,108,110,-1,125,126,78,-1,78,126,127,-1,78,127,85,-1,85,127,128,-1,85,128,88,-1,101,129,91,-1,91,129,130,-1,91,130,85,-1,85,130,131,-1,85,131,87,-1,115,132,78,-1,78,132,133,-1,78,133,125,-1,134,135,136,-1,135,91,136,-1,136,91,90,-1,136,90,137,-1,137,90,138,-1,138,139,137,-1,137,139,140,-1,137,140,141,-1,142,143,144,-1,143,145,144,-1,144,145,146,-1,144,146,147,-1,148,144,149,-1,134,136,148,-1,148,136,150,-1,148,150,144,-1,144,150,151,-1,144,151,142,-1,149,152,148,-1,148,152,153,-1,148,153,154,-1,147,146,155,-1,155,146,156,-1,155,156,157,-1,157,156,158,-1,157,158,159,-1,160,161,154,-1,154,161,162,-1,154,162,148,-1,163,164,165,-1,164,163,166,-1,166,163,167,-1,166,167,168,-1,169,170,171,-1,172,173,174,-1,171,170,175,-1,175,170,176,-1,175,176,168,-1,168,176,177,-1,168,177,166,-1,178,179,180,-1,180,179,181,-1,180,182,178,-1,178,182,183,-1,178,183,184,-1,184,183,185,-1,184,185,186,-1,187,188,189,-1,189,188,190,-1,189,190,182,-1,182,190,191,-1,182,191,183,-1,183,191,192,-1,183,192,193,-1,193,192,194,-1,193,194,195,-1,195,194,196,-1,181,179,197,-1,197,179,198,-1,197,198,199,-1,185,200,186,-1,186,200,199,-1,186,199,201,-1,201,199,198,-1,201,198,202,-1,203,202,204,-1,205,206,207,-1,207,206,208,-1,205,209,206,-1,206,209,210,-1,206,210,211,-1,211,210,212,-1,213,214,206,-1,206,214,215,-1,206,215,216,-1,203,204,206,-1,206,204,217,-1,206,217,213,-1,216,218,206,-1,206,218,219,-1,206,219,208,-1,220,221,222,-1,223,224,210,-1,210,224,225,-1,210,225,212,-1,220,222,210,-1,210,222,226,-1,210,226,223,-1,227,228,229,-1,229,228,230,-1,229,230,198,-1,198,230,231,-1,198,231,202,-1,232,233,234,-1,234,233,235,-1,234,235,236,-1,237,238,239,-1,240,241,237,-1,237,241,242,-1,237,242,238,-1,8,7,243,-1,244,245,237,-1,237,245,246,-1,237,246,240,-1,7,247,243,-1,243,247,248,-1,243,248,244,-1,244,248,249,-1,244,249,245,-1,250,8,251,-1,251,8,252,-1,250,253,8,-1,8,253,254,-1,8,254,6,-1,255,256,257,-1,257,256,258,-1,257,258,259,-1,202,203,201,-1,201,203,260,-1,201,260,261,-1,261,260,262,-1,261,262,263,-1,264,265,266,-1,266,265,267,-1,266,267,268,-1,268,267,269,-1,268,269,270,-1,271,272,273,-1,274,275,276,-1,277,278,279,-1,279,278,280,-1,281,282,278,-1,278,282,283,-1,284,285,258,-1,258,285,286,-1,258,286,287,-1,272,288,273,-1,273,288,289,-1,273,289,290,-1,290,289,291,-1,292,293,291,-1,291,293,294,-1,291,294,290,-1,277,295,278,-1,278,295,296,-1,278,296,281,-1,297,298,276,-1,276,298,299,-1,276,299,300,-1,256,301,302,-1,287,303,258,-1,258,303,304,-1,258,304,305,-1,271,273,302,-1,302,273,306,-1,302,306,256,-1,306,307,256,-1,256,307,308,-1,256,308,258,-1,258,308,309,-1,258,309,284,-1,310,311,291,-1,291,311,312,-1,291,312,313,-1,313,314,291,-1,291,314,315,-1,291,315,292,-1,316,317,318,-1,318,317,319,-1,318,319,320,-1,321,322,258,-1,323,324,325,-1,326,327,328,-1,323,325,329,-1,324,321,325,-1,325,321,258,-1,325,258,274,-1,274,258,305,-1,274,305,275,-1,326,328,325,-1,325,328,330,-1,325,330,329,-1,331,332,333,-1,333,332,334,-1,333,334,274,-1,274,334,335,-1,274,335,325,-1,336,337,4,-1,4,337,338,-1,4,338,5,-1,339,340,5,-1,341,342,343,-1,344,345,5,-1,5,345,346,-1,322,347,258,-1,258,347,348,-1,258,348,343,-1,343,348,349,-1,343,349,341,-1,342,350,343,-1,343,350,351,-1,343,351,352,-1,352,351,353,-1,352,353,339,-1,354,355,340,-1,340,355,356,-1,340,356,5,-1,5,356,357,-1,5,357,344,-1,346,358,5,-1,5,358,359,-1,5,359,3,-1,360,361,362,-1,362,361,363,-1,362,363,364,-1,362,365,360,-1,360,365,366,-1,360,366,367,-1,367,368,360,-1,360,368,369,-1,360,369,370,-1,370,369,371,-1,370,371,372,-1,372,371,373,-1,372,373,340,-1,340,373,374,-1,340,374,354,-1,375,376,364,-1,364,376,377,-1,364,377,362,-1,378,379,327,-1,327,379,380,-1,327,380,328,-1,378,381,379,-1,379,381,382,-1,379,382,383,-1,383,382,384,-1,383,385,386,-1,384,387,383,-1,383,387,388,-1,383,388,389,-1,389,390,383,-1,383,390,391,-1,383,391,385,-1,386,392,383,-1,383,392,393,-1,383,393,394,-1,395,396,397,-1,398,399,400,-1,401,402,403,-1,403,402,404,-1,403,404,405,-1,405,404,398,-1,405,398,406,-1,406,398,400,-1,407,408,5,-1,339,5,352,-1,352,5,408,-1,352,408,402,-1,402,408,409,-1,402,409,404,-1,410,411,407,-1,412,413,414,-1,414,413,415,-1,414,415,410,-1,410,407,414,-1,414,407,5,-1,414,5,416,-1,416,5,338,-1,416,338,417,-1,416,418,414,-1,414,418,419,-1,414,419,420,-1,421,422,423,-1,423,422,424,-1,423,424,338,-1,338,424,425,-1,338,425,417,-1,420,426,414,-1,414,426,427,-1,414,427,412,-1,428,429,430,-1,428,430,431,-1,429,432,430,-1,430,432,433,-1,430,433,423,-1,423,433,434,-1,423,434,421,-1,435,436,437,-1,437,436,438,-1,437,438,439,-1,439,438,440,-1,439,440,441,-1,441,440,442,-1,441,442,443,-1,444,445,446,-1,446,445,447,-1,446,447,436,-1,436,447,448,-1,436,448,438,-1,438,448,449,-1,438,449,450,-1,450,449,451,-1,450,451,452,-1,452,451,453,-1,454,455,456,-1,243,457,14,-1,14,457,17,-1,14,17,12,-1,12,17,22,-1,457,458,17,-1,17,458,454,-1,17,454,244,-1,244,454,456,-1,244,456,243,-1,243,456,459,-1,243,459,457,-1,460,461,462,-1,462,461,463,-1,462,463,97,-1,97,463,11,-1,11,463,464,-1,11,464,465,-1,465,464,466,-1,465,466,467,-1,467,468,469,-1,470,471,472,-1,472,471,460,-1,472,460,473,-1,23,15,24,-1,24,15,17,-1,24,17,474,-1,474,17,244,-1,474,244,235,-1,235,244,237,-1,235,237,236,-1,236,237,239,-1,13,9,14,-1,14,9,11,-1,14,11,243,-1,243,11,465,-1,243,465,8,-1,8,465,256,-1,8,256,252,-1,252,256,255,-1,469,473,467,-1,467,473,460,-1,467,460,465,-1,465,460,462,-1,465,462,256,-1,256,462,278,-1,256,278,301,-1,301,278,283,-1,316,280,317,-1,317,280,278,-1,317,278,475,-1,475,278,462,-1,475,462,72,-1,72,462,97,-1,72,97,70,-1,70,97,107,-1,70,107,116,-1,300,476,276,-1,276,476,320,-1,276,320,274,-1,274,320,319,-1,274,319,333,-1,333,319,337,-1,333,337,331,-1,331,337,336,-1,263,259,261,-1,261,259,258,-1,261,258,201,-1,201,258,343,-1,201,343,186,-1,186,343,352,-1,186,352,184,-1,184,352,402,-1,184,402,171,-1,477,478,171,-1,178,479,175,-1,175,479,480,-1,175,480,481,-1,482,483,171,-1,171,483,484,-1,171,484,184,-1,184,484,485,-1,184,485,178,-1,178,485,486,-1,178,486,479,-1,481,487,175,-1,175,487,488,-1,175,488,489,-1,478,490,171,-1,171,490,491,-1,171,491,482,-1,489,492,175,-1,175,492,493,-1,175,493,171,-1,171,493,494,-1,171,494,477,-1,172,397,437,-1,437,397,396,-1,437,396,435,-1,232,227,233,-1,233,227,229,-1,233,229,495,-1,495,229,198,-1,495,198,496,-1,496,198,179,-1,496,179,497,-1,497,179,178,-1,497,178,498,-1,498,178,175,-1,498,175,499,-1,499,175,168,-1,499,168,500,-1,500,168,167,-1,501,502,503,-1,504,505,506,-1,507,508,503,-1,503,508,509,-1,503,509,439,-1,439,509,510,-1,439,510,437,-1,437,510,511,-1,437,511,512,-1,513,173,165,-1,165,173,172,-1,165,172,163,-1,163,172,437,-1,163,437,504,-1,504,437,512,-1,504,512,505,-1,506,514,504,-1,504,514,515,-1,504,515,516,-1,502,517,503,-1,503,517,518,-1,503,518,507,-1,516,519,504,-1,504,519,520,-1,504,520,503,-1,503,520,521,-1,503,521,501,-1,75,63,72,-1,72,63,65,-1,72,65,475,-1,475,65,522,-1,475,522,317,-1,317,522,523,-1,317,523,319,-1,319,523,524,-1,319,524,337,-1,337,524,525,-1,337,525,338,-1,338,525,526,-1,338,526,423,-1,423,526,527,-1,423,527,430,-1,430,527,528,-1,430,528,529,-1,529,528,530,-1,529,530,269,-1,269,530,531,-1,269,531,270,-1,532,533,503,-1,534,535,536,-1,503,533,504,-1,504,533,537,-1,504,537,538,-1,536,532,534,-1,534,532,503,-1,534,503,539,-1,539,503,540,-1,539,540,538,-1,538,540,541,-1,538,541,504,-1,504,541,542,-1,504,542,163,-1,163,542,2,-1,163,2,167,-1,167,2,1,-1,167,1,500,-1,0,2,543,-1,543,2,542,-1,543,542,544,-1,544,542,541,-1,544,541,545,-1,545,541,540,-1,545,540,546,-1,174,169,172,-1,172,169,171,-1,172,171,397,-1,397,171,402,-1,397,402,395,-1,395,402,401,-1,395,401,443,-1,443,401,431,-1,443,431,441,-1,441,431,430,-1,441,430,439,-1,439,430,529,-1,439,529,503,-1,503,529,269,-1,503,269,540,-1,540,269,267,-1,540,267,546,-1,546,267,265,-1,547,548,549,-1,549,548,550,-1,551,0,552,-1,552,0,264,-1,553,554,555,-1,555,554,556,-1,557,558,559,-1,559,558,560,-1,561,562,563,-1,564,563,565,-1,566,567,568,-1,569,570,571,-1,571,570,559,-1,564,565,572,-1,573,574,575,-1,575,574,576,-1,563,564,561,-1,561,564,577,-1,561,577,578,-1,560,579,580,-1,580,579,581,-1,580,581,582,-1,582,581,583,-1,582,583,584,-1,585,586,587,-1,587,586,588,-1,587,588,589,-1,589,588,573,-1,589,573,590,-1,590,573,591,-1,583,592,575,-1,593,594,595,-1,595,594,596,-1,595,596,597,-1,598,599,560,-1,587,600,585,-1,585,600,601,-1,585,601,602,-1,572,565,595,-1,595,565,603,-1,595,603,593,-1,604,605,580,-1,580,605,606,-1,580,606,560,-1,560,606,607,-1,560,607,598,-1,599,608,560,-1,560,608,609,-1,560,609,610,-1,600,571,601,-1,601,571,559,-1,601,559,611,-1,611,559,560,-1,611,560,612,-1,612,560,610,-1,613,614,577,-1,575,615,583,-1,583,615,616,-1,583,616,617,-1,617,618,583,-1,583,618,619,-1,583,619,584,-1,576,620,575,-1,575,620,621,-1,575,621,622,-1,622,621,623,-1,622,623,624,-1,613,577,625,-1,614,626,577,-1,577,626,627,-1,577,627,578,-1,592,628,575,-1,575,628,629,-1,575,629,630,-1,630,631,575,-1,575,631,632,-1,575,632,573,-1,573,632,633,-1,573,633,591,-1,624,634,622,-1,622,634,635,-1,622,635,636,-1,636,635,595,-1,636,595,637,-1,637,595,597,-1,568,602,566,-1,566,602,601,-1,566,601,577,-1,577,601,638,-1,577,638,625,-1,639,640,641,-1,557,642,643,-1,639,641,644,-1,645,646,647,-1,647,646,648,-1,647,648,649,-1,650,651,652,-1,652,651,653,-1,654,655,656,-1,656,655,657,-1,656,657,658,-1,659,660,661,-1,661,660,662,-1,643,649,557,-1,557,649,648,-1,557,648,558,-1,558,648,663,-1,558,663,664,-1,664,665,558,-1,558,665,666,-1,558,666,667,-1,668,640,669,-1,669,640,639,-1,669,639,670,-1,670,639,558,-1,670,558,671,-1,671,558,667,-1,672,673,674,-1,674,673,675,-1,647,676,645,-1,645,676,677,-1,645,677,678,-1,678,677,679,-1,678,679,659,-1,659,679,680,-1,681,682,683,-1,683,682,684,-1,683,684,685,-1,686,687,660,-1,644,641,688,-1,688,641,689,-1,688,689,690,-1,656,691,654,-1,654,691,692,-1,654,692,693,-1,654,694,655,-1,655,694,695,-1,655,695,696,-1,696,695,683,-1,696,683,697,-1,697,683,685,-1,675,698,674,-1,674,698,699,-1,674,699,660,-1,660,699,700,-1,660,700,662,-1,693,701,654,-1,654,701,702,-1,654,702,703,-1,680,704,659,-1,659,704,705,-1,659,705,660,-1,660,705,706,-1,660,706,686,-1,646,652,648,-1,648,652,653,-1,648,653,707,-1,707,653,654,-1,707,654,708,-1,708,654,703,-1,672,674,683,-1,683,674,709,-1,683,709,681,-1,690,710,688,-1,688,710,711,-1,688,711,712,-1,687,713,660,-1,660,713,714,-1,660,714,715,-1,715,714,688,-1,715,688,716,-1,716,688,712,-1,61,28,717,-1,717,28,718,-1,551,552,718,-1,718,552,719,-1,717,718,720,-1,720,718,719,-1,720,719,721,-1,721,719,722,-1,669,670,606,-1,606,670,607,-1,577,654,566,-1,566,654,653,-1,723,555,556,-1,724,725,726,-1,727,728,726,-1,726,728,723,-1,726,723,724,-1,724,723,556,-1,554,553,729,-1,729,553,730,-1,731,729,732,-1,732,729,730,-1,732,730,733,-1,733,730,734,-1,655,696,565,-1,565,696,603,-1,575,660,715,-1,575,715,615,-1,615,715,716,-1,615,716,616,-1,616,716,712,-1,616,712,617,-1,617,712,711,-1,617,711,618,-1,618,711,710,-1,618,710,619,-1,619,710,690,-1,619,690,584,-1,584,690,689,-1,584,689,582,-1,582,689,580,-1,580,689,641,-1,607,670,671,-1,607,671,598,-1,598,671,667,-1,598,667,599,-1,599,667,666,-1,599,666,608,-1,608,666,665,-1,608,665,609,-1,609,665,664,-1,609,664,610,-1,610,664,663,-1,610,663,612,-1,612,663,648,-1,612,648,611,-1,601,611,707,-1,707,611,648,-1,601,707,708,-1,601,708,638,-1,638,708,703,-1,638,703,625,-1,625,703,702,-1,625,702,613,-1,613,702,701,-1,613,701,614,-1,614,701,693,-1,614,693,626,-1,626,693,692,-1,626,692,627,-1,627,692,691,-1,627,691,578,-1,578,691,561,-1,561,691,656,-1,603,696,697,-1,603,697,593,-1,593,697,685,-1,593,685,594,-1,594,685,684,-1,594,684,596,-1,596,684,682,-1,596,682,597,-1,597,682,681,-1,597,681,637,-1,637,681,709,-1,637,709,636,-1,636,709,674,-1,636,674,622,-1,575,622,660,-1,660,622,674,-1,657,655,563,-1,563,655,565,-1,562,561,658,-1,658,561,656,-1,562,658,735,-1,735,658,736,-1,735,736,737,-1,737,736,738,-1,737,738,739,-1,739,738,740,-1,739,740,741,-1,741,740,742,-1,741,742,743,-1,743,742,744,-1,743,744,554,-1,554,744,556,-1,729,724,745,-1,745,724,746,-1,745,746,747,-1,747,746,748,-1,747,748,749,-1,749,748,750,-1,749,750,751,-1,751,750,752,-1,751,752,753,-1,753,752,754,-1,753,754,563,-1,563,754,657,-1,658,657,754,-1,658,754,736,-1,736,754,752,-1,736,752,738,-1,738,752,750,-1,738,750,740,-1,740,750,748,-1,740,748,742,-1,742,748,746,-1,742,746,744,-1,744,746,724,-1,744,724,556,-1,554,729,743,-1,743,729,745,-1,743,745,741,-1,741,745,747,-1,741,747,739,-1,739,747,749,-1,739,749,737,-1,737,749,751,-1,737,751,735,-1,735,751,753,-1,735,753,562,-1,562,753,563,-1,724,729,725,-1,725,729,731,-1,733,734,755,-1,733,755,756,-1,756,755,757,-1,756,757,758,-1,758,757,759,-1,758,759,760,-1,760,759,761,-1,760,761,762,-1,762,761,763,-1,762,763,764,-1,764,763,765,-1,764,765,766,-1,767,768,769,-1,769,768,770,-1,769,770,771,-1,771,770,772,-1,771,772,773,-1,773,772,774,-1,773,774,775,-1,775,774,776,-1,775,776,777,-1,777,776,778,-1,777,778,727,-1,727,778,728,-1,779,766,780,-1,781,782,783,-1,780,766,782,-1,782,766,765,-1,782,765,783,-1,783,784,785,-1,780,786,779,-1,779,786,787,-1,779,787,788,-1,788,787,789,-1,788,789,790,-1,785,791,783,-1,783,791,792,-1,783,792,781,-1,793,794,795,-1,795,794,767,-1,796,797,798,-1,767,794,768,-1,768,794,799,-1,768,799,800,-1,793,795,798,-1,798,795,801,-1,798,801,796,-1,802,803,804,-1,799,805,800,-1,800,805,802,-1,800,802,806,-1,806,802,804,-1,799,794,782,-1,782,794,780,-1,646,645,585,-1,585,645,586,-1,652,646,602,-1,602,646,585,-1,694,654,564,-1,564,654,577,-1,623,698,624,-1,624,698,675,-1,624,675,634,-1,634,675,673,-1,634,673,635,-1,635,673,672,-1,635,672,595,-1,595,672,683,-1,595,683,572,-1,572,683,695,-1,572,695,564,-1,564,695,694,-1,699,698,621,-1,621,698,623,-1,586,645,588,-1,588,645,678,-1,588,678,573,-1,573,678,659,-1,573,659,574,-1,574,659,661,-1,574,661,576,-1,576,661,662,-1,576,662,620,-1,620,662,700,-1,620,700,621,-1,621,700,699,-1,807,808,809,-1,809,810,807,-1,807,810,811,-1,807,811,812,-1,812,813,807,-1,807,813,814,-1,807,814,815,-1,815,816,807,-1,807,816,817,-1,807,817,818,-1,818,819,807,-1,807,819,820,-1,807,820,821,-1,822,823,824,-1,824,823,825,-1,824,825,826,-1,826,825,827,-1,827,825,828,-1,827,828,829,-1,827,830,831,-1,831,832,827,-1,827,832,833,-1,827,833,834,-1,829,835,827,-1,827,835,836,-1,827,836,830,-1,823,822,837,-1,837,822,838,-1,837,838,839,-1,839,838,840,-1,841,839,842,-1,842,839,840,-1,841,842,843,-1,841,843,844,-1,844,843,651,-1,844,651,650,-1,568,567,845,-1,845,567,846,-1,845,846,847,-1,847,846,848,-1,849,847,850,-1,850,847,848,-1,849,850,851,-1,849,851,852,-1,852,851,809,-1,852,809,808,-1,807,825,808,-1,808,825,823,-1,808,823,852,-1,852,823,837,-1,852,837,849,-1,849,837,839,-1,849,839,847,-1,847,839,841,-1,847,841,845,-1,845,841,844,-1,845,844,568,-1,568,844,650,-1,568,650,602,-1,602,650,652,-1,566,653,567,-1,567,653,651,-1,567,651,846,-1,846,651,843,-1,846,843,848,-1,848,843,842,-1,848,842,850,-1,850,842,840,-1,850,840,851,-1,851,840,838,-1,851,838,809,-1,809,838,822,-1,809,822,810,-1,810,822,824,-1,810,824,826,-1,810,826,811,-1,811,826,827,-1,811,827,812,-1,812,827,834,-1,812,834,813,-1,813,834,833,-1,813,833,814,-1,814,833,832,-1,814,832,815,-1,815,832,831,-1,815,831,816,-1,825,807,821,-1,825,821,828,-1,828,821,820,-1,828,820,829,-1,829,820,819,-1,829,819,835,-1,835,819,818,-1,835,818,836,-1,836,818,817,-1,836,817,830,-1,830,817,816,-1,830,816,831,-1,668,669,605,-1,605,669,606,-1,604,580,640,-1,640,580,641,-1,604,640,853,-1,853,640,854,-1,853,854,855,-1,855,854,856,-1,855,856,857,-1,857,856,858,-1,857,858,859,-1,859,858,860,-1,859,860,861,-1,861,860,862,-1,861,862,551,-1,551,862,0,-1,718,28,863,-1,863,28,864,-1,863,864,865,-1,865,864,866,-1,865,866,867,-1,867,866,868,-1,867,868,869,-1,869,868,870,-1,869,870,871,-1,871,870,872,-1,871,872,605,-1,605,872,668,-1,640,668,872,-1,640,872,854,-1,854,872,870,-1,854,870,856,-1,856,870,868,-1,856,868,858,-1,858,868,866,-1,858,866,860,-1,860,866,864,-1,860,864,862,-1,862,864,28,-1,862,28,0,-1,551,718,861,-1,861,718,863,-1,861,863,859,-1,859,863,865,-1,859,865,857,-1,857,865,867,-1,857,867,855,-1,855,867,869,-1,855,869,853,-1,853,869,871,-1,853,871,604,-1,604,871,605,-1,721,722,873,-1,721,873,874,-1,874,873,875,-1,874,875,876,-1,876,875,877,-1,876,877,878,-1,878,877,879,-1,878,879,880,-1,880,879,881,-1,880,881,882,-1,882,881,883,-1,882,883,884,-1,885,886,887,-1,887,886,888,-1,887,888,889,-1,889,888,890,-1,889,890,891,-1,891,890,892,-1,891,892,893,-1,893,892,894,-1,893,894,895,-1,895,894,896,-1,895,896,68,-1,68,896,270,-1,897,898,884,-1,884,898,899,-1,900,883,901,-1,901,883,902,-1,899,903,884,-1,884,903,904,-1,884,904,905,-1,905,904,906,-1,907,908,909,-1,900,910,883,-1,883,910,911,-1,883,911,884,-1,884,911,912,-1,884,912,897,-1,907,909,913,-1,914,915,905,-1,916,917,918,-1,919,548,920,-1,920,548,921,-1,920,921,883,-1,883,921,922,-1,883,922,902,-1,923,924,925,-1,913,909,906,-1,906,909,926,-1,906,926,905,-1,905,926,927,-1,905,927,914,-1,548,547,921,-1,921,547,923,-1,921,923,928,-1,928,923,925,-1,929,930,915,-1,915,930,931,-1,915,931,905,-1,919,920,918,-1,918,920,932,-1,918,932,916,-1,933,885,934,-1,934,885,935,-1,936,937,886,-1,886,937,938,-1,938,939,886,-1,886,939,940,-1,886,940,941,-1,941,940,942,-1,943,944,945,-1,946,947,948,-1,948,947,949,-1,948,949,885,-1,885,949,950,-1,885,950,935,-1,951,952,953,-1,933,954,885,-1,885,954,955,-1,885,955,886,-1,886,955,956,-1,886,956,936,-1,947,957,949,-1,949,957,951,-1,949,951,958,-1,958,951,953,-1,959,960,941,-1,946,948,945,-1,945,948,961,-1,945,961,943,-1,962,963,964,-1,964,963,965,-1,965,963,942,-1,942,963,549,-1,942,549,941,-1,941,549,550,-1,941,550,959,-1,966,967,960,-1,960,967,968,-1,960,968,941,-1,927,926,947,-1,947,926,957,-1,647,600,676,-1,676,600,587,-1,631,706,632,-1,632,706,705,-1,632,705,633,-1,633,705,704,-1,633,704,591,-1,591,704,680,-1,591,680,590,-1,590,680,679,-1,590,679,589,-1,589,679,677,-1,589,677,587,-1,587,677,676,-1,706,631,686,-1,686,631,630,-1,579,639,581,-1,581,639,644,-1,581,644,583,-1,583,644,688,-1,583,688,592,-1,592,688,714,-1,592,714,628,-1,628,714,713,-1,628,713,629,-1,629,713,687,-1,629,687,630,-1,630,687,686,-1,639,579,558,-1,558,579,560,-1,600,647,571,-1,571,647,649,-1,969,970,971,-1,971,970,972,-1,971,972,973,-1,973,972,974,-1,974,972,975,-1,974,975,976,-1,974,977,978,-1,978,979,974,-1,974,979,980,-1,974,980,981,-1,976,982,974,-1,974,982,983,-1,974,983,977,-1,970,969,984,-1,970,984,985,-1,985,984,986,-1,985,986,987,-1,988,987,989,-1,989,987,986,-1,988,989,990,-1,990,989,991,-1,990,991,569,-1,569,991,570,-1,643,642,992,-1,643,992,993,-1,993,992,994,-1,993,994,995,-1,996,995,997,-1,997,995,994,-1,996,997,998,-1,998,997,999,-1,998,999,1000,-1,1000,999,1001,-1,1002,1000,1001,-1,1001,1003,1002,-1,1002,1003,1004,-1,1002,1004,1005,-1,1005,1006,1002,-1,1002,1006,1007,-1,1002,1007,1008,-1,1008,1009,1002,-1,1002,1009,1010,-1,1002,1010,1011,-1,1011,1012,1002,-1,1002,1012,1013,-1,1002,1013,1014,-1,571,649,569,-1,569,649,643,-1,569,643,990,-1,990,643,993,-1,990,993,988,-1,988,993,995,-1,988,995,987,-1,987,995,996,-1,987,996,985,-1,985,996,998,-1,985,998,970,-1,970,998,1000,-1,970,1000,972,-1,972,1000,1002,-1,971,1003,969,-1,969,1003,1001,-1,969,1001,984,-1,984,1001,999,-1,984,999,986,-1,986,999,997,-1,986,997,989,-1,989,997,994,-1,989,994,991,-1,991,994,992,-1,991,992,570,-1,570,992,642,-1,570,642,559,-1,559,642,557,-1,1003,971,973,-1,1003,973,1004,-1,1004,973,974,-1,1004,974,1005,-1,1005,974,981,-1,1005,981,1006,-1,1006,981,980,-1,1006,980,1007,-1,1007,980,979,-1,1007,979,1008,-1,1008,979,978,-1,1008,978,1009,-1,972,1002,1014,-1,972,1014,975,-1,975,1014,1013,-1,975,1013,976,-1,976,1013,1012,-1,976,1012,982,-1,982,1012,1011,-1,982,1011,983,-1,983,1011,1010,-1,983,1010,977,-1,977,1010,1009,-1,977,1009,978,-1,62,720,68,-1,68,720,721,-1,68,721,895,-1,895,721,874,-1,895,874,893,-1,893,874,876,-1,893,876,891,-1,891,876,878,-1,891,878,889,-1,889,878,880,-1,889,880,887,-1,887,880,882,-1,887,882,885,-1,885,882,884,-1,885,884,948,-1,948,884,905,-1,717,720,61,-1,61,720,62,-1,941,920,886,-1,886,920,883,-1,886,883,888,-1,888,883,881,-1,888,881,890,-1,890,881,879,-1,890,879,892,-1,892,879,877,-1,892,877,894,-1,894,877,875,-1,894,875,896,-1,896,875,873,-1,896,873,270,-1,270,873,722,-1,270,722,268,-1,268,722,719,-1,552,264,719,-1,719,264,268,-1,726,732,727,-1,727,732,733,-1,727,733,777,-1,777,733,756,-1,777,756,775,-1,775,756,758,-1,775,758,773,-1,773,758,760,-1,773,760,771,-1,771,760,762,-1,771,762,769,-1,769,762,764,-1,769,764,767,-1,767,764,766,-1,767,766,795,-1,795,766,779,-1,731,732,725,-1,725,732,726,-1,800,783,768,-1,768,783,765,-1,768,765,770,-1,770,765,763,-1,770,763,772,-1,772,763,761,-1,772,761,774,-1,774,761,759,-1,774,759,776,-1,776,759,757,-1,776,757,778,-1,778,757,755,-1,778,755,728,-1,728,755,734,-1,728,734,723,-1,723,734,730,-1,553,555,730,-1,730,555,723,-1,956,911,936,-1,936,911,910,-1,936,910,937,-1,937,910,900,-1,937,900,938,-1,938,900,901,-1,938,901,939,-1,939,901,902,-1,939,902,940,-1,940,902,922,-1,911,956,912,-1,912,956,955,-1,950,904,935,-1,935,904,903,-1,935,903,934,-1,934,903,899,-1,934,899,933,-1,933,899,898,-1,933,898,954,-1,954,898,897,-1,954,897,955,-1,955,897,912,-1,942,940,921,-1,921,940,922,-1,906,904,949,-1,949,904,950,-1,783,800,806,-1,783,806,784,-1,784,806,804,-1,784,804,785,-1,785,804,803,-1,785,803,791,-1,791,803,802,-1,791,802,792,-1,792,802,805,-1,792,805,781,-1,781,805,799,-1,781,799,782,-1,795,779,788,-1,795,788,801,-1,801,788,790,-1,801,790,796,-1,796,790,789,-1,796,789,797,-1,797,789,787,-1,797,787,798,-1,798,787,786,-1,798,786,793,-1,793,786,780,-1,793,780,794,-1,948,905,931,-1,948,931,961,-1,961,931,930,-1,961,930,943,-1,943,930,929,-1,943,929,944,-1,944,929,915,-1,944,915,945,-1,945,915,914,-1,945,914,946,-1,946,914,927,-1,946,927,947,-1,906,949,958,-1,906,958,913,-1,913,958,953,-1,913,953,907,-1,907,953,952,-1,907,952,908,-1,908,952,951,-1,908,951,909,-1,909,951,957,-1,909,957,926,-1,942,921,928,-1,942,928,965,-1,965,928,925,-1,965,925,964,-1,964,925,924,-1,964,924,962,-1,962,924,923,-1,962,923,963,-1,963,923,547,-1,963,547,549,-1,920,941,968,-1,920,968,932,-1,932,968,967,-1,932,967,916,-1,916,967,966,-1,916,966,917,-1,917,966,960,-1,917,960,918,-1,918,960,959,-1,918,959,919,-1,919,959,550,-1,919,550,548,-1,
        ]
    }
}
Shape{
    appearance Appearance {
        material  Material 	{
            diffuseColor 0.0 0.0 0.0
            specularColor 0.0 0.0 0.0
            ambientIntensity 0.0
            transparency 0.0
            shininess 0.5
        }
    }
    geometry IndexedFaceSet {
        ccw TRUE
        solid FALSE
        coord DEF co Coordinate {
            point [
                4.1181 0.0187 0.4299, 4.1181 0.0187 0.4208, 4.1142 0.0187 0.4299, 4.1142 0.0187 0.4208, 4.1181 -0.0132 0.4299, 4.1142 -0.0132 0.4299, 4.1181 -0.0132 0.5009, 4.1142 -0.0132 0.5009, 4.1181 -0.0236 0.5009, 4.1142 -0.0236 0.5009, 4.1181 -0.0236 0.4208, 4.1142 -0.0236 0.4208, 4.1181 0.0597 0.4194, 4.1142 0.0597 0.4194, 4.1142 0.0658 0.4201, 4.1181 0.0735 0.421, 4.1142 0.0735 0.421, 4.1181 0.0819 0.4241, 4.1142 0.0785 0.4228, 4.1142 0.0819 0.4241, 4.1181 0.0819 0.434, 4.1142 0.0819 0.434, 4.1142 0.0785 0.4325, 4.1181 0.0737 0.4304, 4.1142 0.0737 0.4304, 4.1142 0.0646 0.4288, 4.1181 0.0646 0.4288, 4.1142 0.0612 0.4286, 4.1181 0.0612 0.4286, 4.1142 0.0538 0.4295, 4.1181 0.0538 0.4295, 4.1142 0.0479 0.4316, 4.1181 0.0479 0.4316, 4.1142 0.0426 0.4352, 4.1181 0.0426 0.4352, 4.1142 0.0406 0.4371, 4.1181 0.0406 0.4371, 4.1142 0.0366 0.4428, 4.1181 0.0366 0.4428, 4.1142 0.034 0.4493, 4.1181 0.034 0.4493, 4.1142 0.0328 0.4592, 4.1181 0.0328 0.4592, 4.1142 0.0328 0.4599, 4.1181 0.0328 0.4599, 4.1142 0.0339 0.47, 4.1181 0.0339 0.47, 4.1142 0.0364 0.4771, 4.1181 0.0364 0.4771, 4.1142 0.0402 0.4828, 4.1181 0.0402 0.4828, 4.1142 0.0412 0.484, 4.1181 0.0412 0.484, 4.1142 0.0463 0.4883, 4.1181 0.0463 0.4883, 4.1142 0.0526 0.4913, 4.1181 0.0526 0.4913, 4.1142 0.0595 0.4927, 4.1181 0.0595 0.4927, 4.1142 0.063 0.4929, 4.1181 0.063 0.4929, 4.1142 0.0724 0.4918, 4.1142 0.0785 0.4896, 4.1181 0.0806 0.4888, 4.1181 0.0724 0.4918, 4.1142 0.0806 0.4888, 4.1142 0.0819 0.4881, 4.1181 0.0819 0.4881, 4.1181 0.0819 0.4989, 4.1142 0.0819 0.4989, 4.1142 0.0629 0.5022, 4.1181 0.0629 0.5022, 4.1181 0.0636 0.5022, 4.1142 0.0785 0.4999, 4.1181 0.074 0.5013, 4.1142 0.074 0.5013, 4.1142 0.0711 0.5015, 4.1142 0.0636 0.5022, 4.1181 0.0522 0.501, 4.1142 0.0569 0.5015, 4.1142 0.0522 0.501, 4.1142 0.0437 0.4979, 4.1181 0.0437 0.4979, 4.1142 0.0358 0.4926, 4.1181 0.0358 0.4926, 4.1142 0.0335 0.4904, 4.1181 0.0335 0.4904, 4.1142 0.0279 0.4833, 4.1142 0.0255 0.4778, 4.1181 0.024 0.4744, 4.1181 0.0279 0.4833, 4.1142 0.024 0.4744, 4.1142 0.0221 0.4641, 4.1181 0.0221 0.4641, 4.1142 0.0219 0.4593, 4.1181 0.0219 0.4593, 4.1142 0.0235 0.4465, 4.1142 0.0255 0.4411, 4.1181 0.0267 0.4381, 4.1181 0.0235 0.4465, 4.1142 0.0267 0.4381, 4.1142 0.0314 0.4312, 4.1181 0.0314 0.4312, 4.1142 0.0322 0.4304, 4.1181 0.0322 0.4304, 4.1181 0.0544 0.4197, 4.1142 0.0383 0.4253, 4.1181 0.0383 0.4253, 4.1142 0.0458 0.4216, 4.1181 0.0458 0.4216, 4.1142 0.0526 0.4201, 4.1142 0.0544 0.4197, 4.1181 0.141 0.4299, 4.1181 0.141 0.4208, 4.1142 0.141 0.4299, 4.1142 0.141 0.4208, 4.1142 0.1082 0.4299, 4.1181 0.1082 0.4299, 4.1142 0.1299 0.4299, 4.1181 0.1082 0.4569, 4.1142 0.1082 0.4569, 4.1181 0.1369 0.4569, 4.1142 0.1299 0.4569, 4.1142 0.1369 0.4569, 4.1181 0.1369 0.466, 4.1142 0.1369 0.466, 4.1142 0.1082 0.466, 4.1181 0.1082 0.466, 4.1142 0.1299 0.466, 4.1181 0.1082 0.4916, 4.1142 0.1082 0.4916, 4.1181 0.1391 0.4916, 4.1142 0.1299 0.4916, 4.1142 0.1391 0.4916, 4.1181 0.1391 0.5009, 4.1142 0.1391 0.5009, 4.1142 0.0979 0.5009, 4.1181 0.0979 0.5009, 4.1142 0.1299 0.5009, 4.1181 0.0979 0.4208, 4.1142 0.0979 0.4208, 4.1142 0.1299 0.4208, 4.1181 0.2102 0.457, 4.1181 0.221 0.4562, 4.1181 0.2104 0.4616, 4.1181 0.2213 0.4618, 4.1181 0.2095 0.4707, 4.1181 0.2202 0.472, 4.1181 0.2073 0.4768, 4.1181 0.2173 0.4798, 4.1181 0.2043 0.4814, 4.1181 0.2125 0.487, 4.1181 0.2016 0.4841, 4.1181 0.2092 0.4903, 4.1181 0.1955 0.4882, 4.1181 0.2013 0.4957, 4.1181 0.1885 0.4906, 4.1181 0.1917 0.4994, 4.1181 0.1785 0.4916, 4.1181 0.1789 0.5009, 4.1181 0.1664 0.4916, 4.1181 0.1561 0.5009, 4.1181 0.1664 0.4299, 4.1181 0.1561 0.4208, 4.1181 0.1781 0.4299, 4.1181 0.1781 0.4208, 4.1181 0.1882 0.431, 4.1181 0.1912 0.4223, 4.1181 0.195 0.4334, 4.1181 0.2004 0.4258, 4.1181 0.2004 0.4369, 4.1181 0.2082 0.4311, 4.1181 0.2019 0.4383, 4.1181 0.2092 0.432, 4.1181 0.206 0.4435, 4.1181 0.2149 0.4387, 4.1181 0.2087 0.4496, 4.1181 0.2189 0.4469, 4.1142 0.1781 0.4208, 4.1142 0.1561 0.4208, 4.1142 0.1912 0.4223, 4.1142 0.2004 0.4258, 4.1142 0.2082 0.4311, 4.1142 0.2092 0.432, 4.1142 0.2149 0.4387, 4.1142 0.2189 0.4469, 4.1142 0.221 0.4562, 4.1142 0.2213 0.4618, 4.1142 0.2202 0.472, 4.1142 0.2173 0.4798, 4.1142 0.2125 0.487, 4.1142 0.2092 0.4903, 4.1142 0.2013 0.4957, 4.1142 0.1917 0.4994, 4.1142 0.1789 0.5009, 4.1142 0.1561 0.5009, 4.1142 0.1785 0.4916, 4.1142 0.1664 0.4916, 4.1142 0.1664 0.4299, 4.1142 0.1781 0.4299, 4.1142 0.2019 0.4383, 4.1142 0.2004 0.4369, 4.1142 0.195 0.4334, 4.1142 0.1882 0.431, 4.1142 0.2104 0.4616, 4.1142 0.2102 0.457, 4.1142 0.2087 0.4496, 4.1142 0.206 0.4435, 4.1142 0.2016 0.4841, 4.1142 0.2043 0.4814, 4.1142 0.2073 0.4768, 4.1142 0.2095 0.4707, 4.1142 0.1885 0.4906, 4.1142 0.1955 0.4882
            ]
        }
        coordIndex [
            0,1,2,-1,2,1,3,-1,4,0,5,-1,5,0,2,-1,6,4,7,-1,7,4,5,-1,8,6,9,-1,9,6,7,-1,10,8,11,-1,11,8,9,-1,1,10,3,-1,3,10,11,-1,6,8,4,-1,4,8,10,-1,4,10,0,-1,0,10,1,-1,12,13,14,-1,12,14,15,-1,15,14,16,-1,15,16,17,-1,17,16,18,-1,17,18,19,-1,20,17,21,-1,21,17,19,-1,20,21,22,-1,20,22,23,-1,22,24,23,-1,23,24,25,-1,23,25,26,-1,26,25,27,-1,26,27,28,-1,28,27,29,-1,28,29,30,-1,30,29,31,-1,30,31,32,-1,32,31,33,-1,32,33,34,-1,34,33,35,-1,34,35,36,-1,36,35,37,-1,36,37,38,-1,38,37,39,-1,38,39,40,-1,40,39,41,-1,40,41,42,-1,42,41,43,-1,42,43,44,-1,44,43,45,-1,44,45,46,-1,46,45,47,-1,46,47,48,-1,48,47,49,-1,48,49,50,-1,50,49,51,-1,50,51,52,-1,52,51,53,-1,52,53,54,-1,54,53,55,-1,54,55,56,-1,56,55,57,-1,56,57,58,-1,58,57,59,-1,58,59,60,-1,60,59,61,-1,62,63,61,-1,61,63,64,-1,61,64,60,-1,62,65,63,-1,63,65,66,-1,63,66,67,-1,68,67,69,-1,69,67,66,-1,70,71,72,-1,68,69,73,-1,68,73,74,-1,73,75,74,-1,74,75,76,-1,74,76,72,-1,72,76,77,-1,72,77,70,-1,71,70,78,-1,78,70,79,-1,79,80,78,-1,78,80,81,-1,78,81,82,-1,82,81,83,-1,82,83,84,-1,84,83,85,-1,84,85,86,-1,86,85,87,-1,88,89,87,-1,87,89,90,-1,87,90,86,-1,88,91,89,-1,89,91,92,-1,89,92,93,-1,93,92,94,-1,93,94,95,-1,95,94,96,-1,97,98,96,-1,96,98,99,-1,96,99,95,-1,97,100,98,-1,98,100,101,-1,98,101,102,-1,102,101,103,-1,102,103,104,-1,13,12,105,-1,104,103,106,-1,104,106,107,-1,107,106,108,-1,107,108,109,-1,109,108,110,-1,109,110,105,-1,105,110,111,-1,105,111,13,-1,63,67,68,-1,38,40,99,-1,46,48,90,-1,99,40,95,-1,90,48,86,-1,63,68,64,-1,64,68,74,-1,64,74,60,-1,60,74,72,-1,60,72,58,-1,58,72,71,-1,58,71,56,-1,56,71,78,-1,56,78,54,-1,17,20,15,-1,15,20,23,-1,15,23,12,-1,78,82,54,-1,54,82,84,-1,54,84,52,-1,52,84,86,-1,52,86,50,-1,50,86,48,-1,99,98,38,-1,38,98,102,-1,38,102,36,-1,36,102,104,-1,36,104,34,-1,34,104,107,-1,34,107,32,-1,32,107,109,-1,32,109,30,-1,30,109,105,-1,30,105,28,-1,28,105,12,-1,28,12,26,-1,26,12,23,-1,40,42,95,-1,95,42,44,-1,95,44,93,-1,93,44,46,-1,93,46,89,-1,89,46,90,-1,112,113,114,-1,114,113,115,-1,116,117,118,-1,118,117,112,-1,118,112,114,-1,119,117,120,-1,120,117,116,-1,119,120,121,-1,121,120,122,-1,121,122,123,-1,124,121,125,-1,125,121,123,-1,126,127,128,-1,128,127,124,-1,128,124,125,-1,129,127,130,-1,130,127,126,-1,129,130,131,-1,131,130,132,-1,131,132,133,-1,134,131,135,-1,135,131,133,-1,136,137,138,-1,138,137,134,-1,138,134,135,-1,139,137,140,-1,140,137,136,-1,139,140,113,-1,113,140,141,-1,113,141,115,-1,139,113,112,-1,112,117,139,-1,139,117,119,-1,139,119,137,-1,131,134,129,-1,129,134,137,-1,129,137,127,-1,127,137,119,-1,127,119,124,-1,124,119,121,-1,142,143,144,-1,144,143,145,-1,144,145,146,-1,146,145,147,-1,146,147,148,-1,148,147,149,-1,148,149,150,-1,150,149,151,-1,150,151,152,-1,152,151,153,-1,152,153,154,-1,154,153,155,-1,154,155,156,-1,156,155,157,-1,156,157,158,-1,158,157,159,-1,158,159,160,-1,160,159,161,-1,160,161,162,-1,162,161,163,-1,162,163,164,-1,164,163,165,-1,164,165,166,-1,166,165,167,-1,166,167,168,-1,168,167,169,-1,168,169,170,-1,170,169,171,-1,170,171,172,-1,172,171,173,-1,172,173,174,-1,174,173,175,-1,174,175,176,-1,176,175,177,-1,176,177,142,-1,142,177,143,-1,165,163,178,-1,178,163,179,-1,165,178,180,-1,165,180,167,-1,167,180,181,-1,167,181,169,-1,169,181,182,-1,169,182,171,-1,171,182,183,-1,171,183,173,-1,173,183,184,-1,173,184,175,-1,175,184,185,-1,175,185,177,-1,177,185,186,-1,177,186,143,-1,143,186,187,-1,143,187,145,-1,145,187,188,-1,145,188,147,-1,147,188,189,-1,147,189,149,-1,149,189,190,-1,149,190,151,-1,151,190,191,-1,151,191,153,-1,153,191,192,-1,153,192,155,-1,155,192,193,-1,155,193,157,-1,157,193,194,-1,157,194,159,-1,161,159,195,-1,195,159,194,-1,163,161,179,-1,179,161,195,-1,158,160,196,-1,196,160,197,-1,160,162,197,-1,197,162,198,-1,162,164,198,-1,198,164,199,-1,172,200,201,-1,172,201,170,-1,170,201,202,-1,170,202,168,-1,168,202,203,-1,168,203,166,-1,166,203,199,-1,166,199,164,-1,144,204,205,-1,144,205,142,-1,142,205,206,-1,142,206,176,-1,176,206,207,-1,176,207,174,-1,174,207,200,-1,174,200,172,-1,152,208,209,-1,152,209,150,-1,150,209,210,-1,150,210,148,-1,148,210,211,-1,148,211,146,-1,146,211,204,-1,146,204,144,-1,158,196,212,-1,158,212,156,-1,156,212,213,-1,156,213,154,-1,154,213,208,-1,154,208,152,-1,
        ]
    }
}
Shape{
    appearance Appearance {
        material  Material 	{
            diffuseColor 0.6666666666666666 0.6980392156862745 0.7686274509803922
            specularColor 0.3333333333333333 0.34901960784313724 0.3843137254901961
            ambientIntensity 0.6967
            transparency 0.0
            shininess 0.5
        }
    }
    geometry IndexedFaceSet {
        ccw TRUE
        solid FALSE
        coord DEF co Coordinate {
            point [
                4.1142 0.1664 0.4916, 4.1142 0.1664 0.4299, 4.1142 0.1785 0.4916, 4.1142 0.1781 0.4299, 4.1142 0.1882 0.431, 4.1142 0.195 0.4334, 4.1142 0.2004 0.4369, 4.1142 0.2019 0.4383, 4.1142 0.206 0.4435, 4.1142 0.2087 0.4496, 4.1142 0.2102 0.457, 4.1142 0.2104 0.4616, 4.1142 0.2095 0.4707, 4.1142 0.2073 0.4768, 4.1142 0.2043 0.4814, 4.1142 0.2016 0.4841, 4.1142 0.1885 0.4906, 4.1142 0.1955 0.4882
            ]
        }
        coordIndex [
            0,1,2,-1,2,1,3,-1,2,3,4,-1,4,5,2,-1,2,5,6,-1,2,6,7,-1,7,8,2,-1,2,8,9,-1,2,9,10,-1,10,11,2,-1,2,11,12,-1,2,12,13,-1,13,14,2,-1,2,14,15,-1,2,15,16,-1,16,15,17,-1,
        ]
    }
}
Shape{
    appearance Appearance {
        material  Material 	{
            diffuseColor 0.0 0.0 0.0
            specularColor 0.0 0.0 0.0
            ambientIntensity 0.0
            transparency 0.0
            shininess 0.5
        }
    }
    geometry IndexedFaceSet {
        ccw TRUE
        solid FALSE
        coord DEF co Coordinate {
            point [
                4.1181 0.2481 0.4517, 4.1181 0.2448 0.4427, 4.1181 0.275 0.4517, 4.1181 0.2782 0.4427, 4.1181 0.2601 0.485, 4.1181 0.2562 0.5009, 4.1181 0.2257 0.4208, 4.1181 0.2371 0.4208, 4.1181 0.2608 0.4874, 4.1181 0.2614 0.4906, 4.1181 0.2673 0.5009, 4.1181 0.2616 0.4906, 4.1181 0.2623 0.4872, 4.1181 0.2629 0.485, 4.1181 0.2978 0.4208, 4.1181 0.2864 0.4208, 4.1142 0.2673 0.5009, 4.1142 0.2978 0.4208, 4.1142 0.2562 0.5009, 4.1142 0.2257 0.4208, 4.1142 0.2488 0.4814, 4.1142 0.2371 0.4208, 4.1142 0.2448 0.4427, 4.1142 0.2782 0.4427, 4.1142 0.2488 0.4427, 4.1142 0.2864 0.4208, 4.1142 0.2481 0.4517, 4.1142 0.275 0.4517, 4.1142 0.2629 0.485, 4.1142 0.2616 0.4906, 4.1142 0.2623 0.4872, 4.1142 0.2614 0.4906, 4.1142 0.2601 0.485, 4.1142 0.2608 0.4874
            ]
        }
        coordIndex [
            0,1,2,-1,2,1,3,-1,4,5,0,-1,0,5,6,-1,0,6,1,-1,1,6,7,-1,4,8,5,-1,5,8,9,-1,5,9,10,-1,10,9,11,-1,10,11,12,-1,12,13,10,-1,10,13,2,-1,10,2,14,-1,14,2,3,-1,14,3,15,-1,10,14,16,-1,16,14,17,-1,5,10,18,-1,18,10,16,-1,19,6,20,-1,20,6,5,-1,20,5,18,-1,7,6,21,-1,21,6,19,-1,1,7,22,-1,22,7,21,-1,23,3,24,-1,24,3,1,-1,24,1,22,-1,15,3,25,-1,25,3,23,-1,14,15,17,-1,17,15,25,-1,0,2,26,-1,26,2,27,-1,2,13,27,-1,27,13,28,-1,11,29,30,-1,11,30,12,-1,12,30,28,-1,12,28,13,-1,11,9,29,-1,29,9,31,-1,4,32,33,-1,4,33,8,-1,8,33,31,-1,8,31,9,-1,4,0,32,-1,32,0,26,-1,
        ]
    }
}
Shape{
    appearance Appearance {
        material  Material 	{
            diffuseColor 0.6666666666666666 0.6980392156862745 0.7686274509803922
            specularColor 0.3333333333333333 0.34901960784313724 0.3843137254901961
            ambientIntensity 0.6967
            transparency 0.0
            shininess 0.5
        }
    }
    geometry IndexedFaceSet {
        ccw TRUE
        solid FALSE
        coord DEF co Coordinate {
            point [
                4.1142 0.2616 0.4906, 4.1142 0.2614 0.4906, 4.1142 0.2623 0.4872, 4.1142 0.2608 0.4874, 4.1142 0.2629 0.485, 4.1142 0.2601 0.485, 4.1142 0.275 0.4517, 4.1142 0.2481 0.4517
            ]
        }
        coordIndex [
            0,1,2,-1,2,1,3,-1,2,3,4,-1,4,3,5,-1,4,5,6,-1,6,5,7,-1,
        ]
    }
}
Shape{
    appearance Appearance {
        material  Material 	{
            diffuseColor 0.0 0.0 0.0
            specularColor 0.0 0.0 0.0
            ambientIntensity 0.0
            transparency 0.0
            shininess 0.5
        }
    }
    geometry IndexedFaceSet {
        ccw TRUE
        solid FALSE
        coord DEF co Coordinate {
            point [
                4.1181 0.0195 0.3029, 4.1181 0.0195 0.2938, 4.1142 0.0195 0.3029, 4.1142 0.0195 0.2938, 4.1181 -0.0132 0.3029, 4.1142 -0.0132 0.3029, 4.1181 -0.0132 0.3298, 4.1142 -0.0132 0.3298, 4.1181 0.0154 0.3298, 4.1142 0.0154 0.3298, 4.1181 0.0154 0.339, 4.1142 0.0154 0.339, 4.1181 -0.0132 0.339, 4.1142 -0.0132 0.339, 4.1181 -0.0132 0.3646, 4.1142 -0.0132 0.3646, 4.1181 0.0177 0.3646, 4.1142 0.0177 0.3646, 4.1181 0.0177 0.3738, 4.1142 0.0177 0.3738, 4.1181 -0.0236 0.3738, 4.1142 -0.0236 0.3738, 4.1181 -0.0236 0.2938, 4.1142 -0.0236 0.2938, 4.1181 0.0647 0.3026, 4.1181 0.065 0.3026, 4.1181 0.0644 0.3118, 4.1181 0.0407 0.326, 4.1181 0.0364 0.3238, 4.1181 0.0419 0.3171, 4.1181 0.065 0.3163, 4.1181 0.075 0.3306, 4.1181 0.065 0.317, 4.1181 0.065 0.3225, 4.1181 0.065 0.2938, 4.1181 0.075 0.2938, 4.1181 0.0629 0.3083, 4.1181 0.0607 0.3053, 4.1181 0.0632 0.3002, 4.1181 0.0595 0.3041, 4.1181 0.06 0.2968, 4.1181 0.0566 0.3022, 4.1181 0.0565 0.2945, 4.1181 0.0536 0.3011, 4.1181 0.0524 0.293, 4.1181 0.0498 0.3006, 4.1181 0.0472 0.2924, 4.1181 0.0464 0.301, 4.1181 0.0412 0.2931, 4.1181 0.0442 0.3019, 4.1181 0.0374 0.2946, 4.1181 0.0422 0.3032, 4.1181 0.034 0.2969, 4.1181 0.0413 0.3041, 4.1181 0.0407 0.3157, 4.1181 0.0332 0.3211, 4.1181 0.0398 0.3138, 4.1181 0.0312 0.3183, 4.1181 0.0394 0.3115, 4.1181 0.0433 0.3182, 4.1181 0.0457 0.3193, 4.1181 0.0481 0.3277, 4.1181 0.0516 0.3207, 4.1181 0.065 0.3301, 4.1181 0.0347 0.3469, 4.1181 0.0347 0.3372, 4.1181 0.0374 0.3485, 4.1181 0.0411 0.3413, 4.1181 0.0449 0.3512, 4.1181 0.0474 0.3435, 4.1181 0.0544 0.3523, 4.1181 0.0534 0.3441, 4.1181 0.0605 0.3517, 4.1181 0.0568 0.3438, 4.1181 0.0647 0.3504, 4.1181 0.0592 0.3429, 4.1181 0.068 0.3485, 4.1181 0.0609 0.3418, 4.1181 0.0707 0.3459, 4.1181 0.0625 0.3402, 4.1181 0.0727 0.3426, 4.1181 0.0636 0.3381, 4.1181 0.0743 0.338, 4.1181 0.0647 0.3346, 4.1181 0.0298 0.3148, 4.1181 0.0291 0.3105, 4.1181 0.0393 0.3099, 4.1181 0.0291 0.3091, 4.1181 0.0395 0.3076, 4.1181 0.0296 0.3045, 4.1181 0.0402 0.3058, 4.1181 0.0308 0.3011, 4.1181 0.0329 0.2981, 4.1142 0.0544 0.3523, 4.1142 0.0449 0.3512, 4.1142 0.0374 0.3485, 4.1142 0.0347 0.3469, 4.1142 0.0347 0.3372, 4.1142 0.0411 0.3413, 4.1142 0.0474 0.3435, 4.1142 0.0534 0.3441, 4.1142 0.0568 0.3438, 4.1142 0.0592 0.3429, 4.1142 0.0609 0.3418, 4.1142 0.0625 0.3402, 4.1142 0.0636 0.3381, 4.1142 0.0647 0.3346, 4.1142 0.065 0.3301, 4.1142 0.0481 0.3277, 4.1142 0.0407 0.326, 4.1142 0.0364 0.3238, 4.1142 0.0332 0.3211, 4.1142 0.0312 0.3183, 4.1142 0.0298 0.3148, 4.1142 0.0291 0.3105, 4.1142 0.0291 0.3091, 4.1142 0.0296 0.3045, 4.1142 0.0308 0.3011, 4.1142 0.0329 0.2981, 4.1142 0.034 0.2969, 4.1142 0.0472 0.2924, 4.1142 0.0414 0.2931, 4.1142 0.0412 0.2931, 4.1142 0.0374 0.2946, 4.1142 0.0524 0.293, 4.1142 0.0527 0.2931, 4.1142 0.0565 0.2945, 4.1142 0.06 0.2968, 4.1142 0.0632 0.3002, 4.1142 0.0647 0.3026, 4.1142 0.065 0.3026, 4.1142 0.065 0.2938, 4.1142 0.075 0.2938, 4.1142 0.075 0.3306, 4.1142 0.0743 0.338, 4.1142 0.0727 0.3426, 4.1142 0.0707 0.3459, 4.1142 0.068 0.3485, 4.1142 0.0647 0.3504, 4.1142 0.0605 0.3517, 4.1142 0.0419 0.3171, 4.1142 0.0433 0.3182, 4.1142 0.0457 0.3193, 4.1142 0.0516 0.3207, 4.1142 0.0393 0.3099, 4.1142 0.0394 0.3115, 4.1142 0.0398 0.3138, 4.1142 0.0407 0.3157, 4.1142 0.0422 0.3032, 4.1142 0.0413 0.3041, 4.1142 0.0402 0.3058, 4.1142 0.0395 0.3076, 4.1142 0.0498 0.3006, 4.1142 0.0464 0.301, 4.1142 0.0442 0.3019, 4.1142 0.0607 0.3053, 4.1142 0.0595 0.3041, 4.1142 0.0566 0.3022, 4.1142 0.0536 0.3011, 4.1142 0.065 0.317, 4.1142 0.065 0.3163, 4.1142 0.0644 0.3118, 4.1142 0.0629 0.3083, 4.1142 0.065 0.3225
            ]
        }
        coordIndex [
            0,1,2,-1,2,1,3,-1,4,0,5,-1,5,0,2,-1,6,4,7,-1,7,4,5,-1,8,6,9,-1,9,6,7,-1,10,8,11,-1,11,8,9,-1,12,10,13,-1,13,10,11,-1,14,12,15,-1,15,12,13,-1,16,14,17,-1,17,14,15,-1,18,16,19,-1,19,16,17,-1,20,18,21,-1,21,18,19,-1,22,20,23,-1,23,20,21,-1,1,22,3,-1,3,22,23,-1,22,1,0,-1,0,4,22,-1,22,4,6,-1,22,6,20,-1,16,18,14,-1,14,18,20,-1,14,20,12,-1,12,20,6,-1,12,6,10,-1,10,6,8,-1,24,25,26,-1,27,28,29,-1,30,31,32,-1,32,31,33,-1,34,35,25,-1,25,35,31,-1,25,31,26,-1,26,31,30,-1,26,36,24,-1,24,36,37,-1,24,37,38,-1,38,37,39,-1,38,39,40,-1,40,39,41,-1,40,41,42,-1,42,41,43,-1,42,43,44,-1,44,43,45,-1,44,45,46,-1,46,45,47,-1,46,47,48,-1,48,47,49,-1,48,49,50,-1,50,49,51,-1,50,51,52,-1,52,51,53,-1,29,28,54,-1,54,28,55,-1,54,55,56,-1,56,55,57,-1,56,57,58,-1,29,59,27,-1,27,59,60,-1,27,60,61,-1,61,60,62,-1,61,62,63,-1,64,65,66,-1,66,65,67,-1,66,67,68,-1,68,67,69,-1,68,69,70,-1,70,69,71,-1,70,71,72,-1,72,71,73,-1,72,73,74,-1,74,73,75,-1,74,75,76,-1,76,75,77,-1,76,77,78,-1,78,77,79,-1,78,79,80,-1,80,79,81,-1,80,81,82,-1,82,81,83,-1,82,83,31,-1,31,83,63,-1,31,63,33,-1,33,63,62,-1,57,84,58,-1,58,84,85,-1,58,85,86,-1,86,85,87,-1,86,87,88,-1,88,87,89,-1,88,89,90,-1,90,89,91,-1,90,91,53,-1,53,91,92,-1,53,92,52,-1,70,93,94,-1,70,94,68,-1,68,94,95,-1,68,95,66,-1,66,95,96,-1,66,96,64,-1,65,64,97,-1,97,64,96,-1,65,97,98,-1,65,98,67,-1,67,98,99,-1,67,99,69,-1,69,99,100,-1,69,100,71,-1,71,100,101,-1,71,101,73,-1,73,101,102,-1,73,102,75,-1,75,102,103,-1,75,103,77,-1,77,103,104,-1,77,104,79,-1,79,104,105,-1,79,105,81,-1,81,105,106,-1,81,106,83,-1,83,106,107,-1,83,107,63,-1,61,63,108,-1,108,63,107,-1,61,108,109,-1,61,109,27,-1,27,109,110,-1,27,110,28,-1,28,110,111,-1,28,111,55,-1,55,111,112,-1,55,112,57,-1,57,112,113,-1,57,113,84,-1,84,113,114,-1,84,114,85,-1,85,114,115,-1,85,115,87,-1,87,115,116,-1,87,116,89,-1,89,116,117,-1,89,117,91,-1,91,117,118,-1,91,118,92,-1,92,118,119,-1,92,119,52,-1,120,46,121,-1,121,46,48,-1,121,48,122,-1,122,48,50,-1,122,50,123,-1,123,50,52,-1,123,52,119,-1,46,120,124,-1,46,124,44,-1,44,124,125,-1,44,125,42,-1,125,126,42,-1,42,126,127,-1,42,127,40,-1,40,127,128,-1,40,128,38,-1,38,128,129,-1,38,129,24,-1,25,24,130,-1,130,24,129,-1,34,25,131,-1,131,25,130,-1,35,34,132,-1,132,34,131,-1,31,35,133,-1,133,35,132,-1,31,133,134,-1,31,134,82,-1,82,134,135,-1,82,135,80,-1,80,135,136,-1,80,136,78,-1,78,136,137,-1,78,137,76,-1,76,137,138,-1,76,138,74,-1,74,138,139,-1,74,139,72,-1,72,139,93,-1,72,93,70,-1,29,140,141,-1,29,141,59,-1,59,141,142,-1,59,142,60,-1,60,142,143,-1,60,143,62,-1,86,144,145,-1,86,145,58,-1,58,145,146,-1,58,146,56,-1,56,146,147,-1,56,147,54,-1,54,147,140,-1,54,140,29,-1,51,148,149,-1,51,149,53,-1,53,149,150,-1,53,150,90,-1,90,150,151,-1,90,151,88,-1,88,151,144,-1,88,144,86,-1,45,152,153,-1,45,153,47,-1,47,153,154,-1,47,154,49,-1,49,154,148,-1,49,148,51,-1,37,155,156,-1,37,156,39,-1,39,156,157,-1,39,157,41,-1,41,157,158,-1,41,158,43,-1,43,158,152,-1,43,152,45,-1,32,159,160,-1,32,160,30,-1,30,160,161,-1,30,161,26,-1,26,161,162,-1,26,162,36,-1,36,162,155,-1,36,155,37,-1,32,33,159,-1,159,33,163,-1,33,62,163,-1,163,62,143,-1,
        ]
    }
}
Shape{
    appearance Appearance {
        material  Material 	{
            diffuseColor 0.6666666666666666 0.6980392156862745 0.7686274509803922
            specularColor 0.3333333333333333 0.34901960784313724 0.3843137254901961
            ambientIntensity 0.6967
            transparency 0.0
            shininess 0.5
        }
    }
    geometry IndexedFaceSet {
        ccw TRUE
        solid FALSE
        coord DEF co Coordinate {
            point [
                4.1142 0.065 0.3225, 4.1142 0.0516 0.3207, 4.1142 0.065 0.317, 4.1142 0.0457 0.3193, 4.1142 0.0433 0.3182, 4.1142 0.0419 0.3171, 4.1142 0.065 0.3163, 4.1142 0.0644 0.3118, 4.1142 0.0407 0.3157, 4.1142 0.0629 0.3083, 4.1142 0.0413 0.3041, 4.1142 0.0422 0.3032, 4.1142 0.0595 0.3041, 4.1142 0.0402 0.3058, 4.1142 0.0566 0.3022, 4.1142 0.0536 0.3011, 4.1142 0.0498 0.3006, 4.1142 0.0398 0.3138, 4.1142 0.0394 0.3115, 4.1142 0.0607 0.3053, 4.1142 0.0393 0.3099, 4.1142 0.0395 0.3076, 4.1142 0.0442 0.3019, 4.1142 0.0464 0.301
            ]
        }
        coordIndex [
            0,1,2,-1,2,1,3,-1,3,4,2,-1,2,4,5,-1,2,5,6,-1,6,5,7,-1,7,5,8,-1,7,8,9,-1,10,11,12,-1,10,12,13,-1,14,12,15,-1,15,12,16,-1,8,17,9,-1,9,17,18,-1,9,18,19,-1,19,18,20,-1,19,20,12,-1,12,20,21,-1,12,21,13,-1,11,22,12,-1,12,22,23,-1,12,23,16,-1,
        ]
    }
}
Shape{
    appearance Appearance {
        material  Material 	{
            diffuseColor 0.0 0.0 0.0
            specularColor 0.0 0.0 0.0
            ambientIntensity 0.0
            transparency 0.0
            shininess 0.5
        }
    }
    geometry IndexedFaceSet {
        ccw TRUE
        solid FALSE
        coord DEF co Coordinate {
            point [
                4.1142 0.0886 0.3061, 4.1181 0.0886 0.3061, 4.1181 0.0926 0.3037, 4.1181 0.1051 0.3006, 4.1142 0.1051 0.3006, 4.1142 0.0988 0.3013, 4.1181 0.0988 0.3013, 4.1142 0.0933 0.3034, 4.1142 0.0926 0.3037, 4.1181 0.0886 0.2958, 4.1142 0.0886 0.2958, 4.1181 0.0958 0.2933, 4.1142 0.0933 0.2942, 4.1142 0.1041 0.2924, 4.1181 0.1041 0.2924, 4.1142 0.0975 0.2931, 4.1142 0.0958 0.2933, 4.1142 0.1106 0.2931, 4.1181 0.1123 0.2933, 4.1142 0.1123 0.2933, 4.1142 0.1178 0.2952, 4.1181 0.1178 0.2952, 4.1142 0.1208 0.297, 4.1181 0.1208 0.297, 4.1142 0.1237 0.2995, 4.1181 0.1237 0.2995, 4.1142 0.1255 0.3021, 4.1181 0.1255 0.3021, 4.1142 0.1268 0.3053, 4.1181 0.1268 0.3053, 4.1142 0.1273 0.3093, 4.1181 0.1273 0.3093, 4.1142 0.1268 0.3131, 4.1181 0.1268 0.3131, 4.1142 0.1258 0.316, 4.1181 0.1258 0.316, 4.1142 0.1239 0.3188, 4.1181 0.1239 0.3188, 4.1142 0.1215 0.3209, 4.1181 0.1215 0.3209, 4.1142 0.1148 0.3246, 4.1181 0.1148 0.3246, 4.1142 0.111 0.3262, 4.1181 0.111 0.3262, 4.1142 0.1048 0.3289, 4.1181 0.1048 0.3289, 4.1142 0.1012 0.3311, 4.1181 0.1012 0.3311, 4.1142 0.1002 0.3322, 4.1181 0.1002 0.3322, 4.1142 0.0995 0.3335, 4.1181 0.0995 0.3335, 4.1142 0.0991 0.3351, 4.1181 0.0991 0.3351, 4.1142 0.099 0.3364, 4.1181 0.099 0.3364, 4.1142 0.0992 0.338, 4.1181 0.0992 0.338, 4.1142 0.0997 0.3394, 4.1181 0.0997 0.3394, 4.1142 0.1006 0.3407, 4.1181 0.1006 0.3407, 4.1142 0.1021 0.342, 4.1181 0.1021 0.342, 4.1142 0.1043 0.3432, 4.1181 0.1043 0.3432, 4.1142 0.107 0.3439, 4.1181 0.107 0.3439, 4.1142 0.11 0.3441, 4.1181 0.11 0.3441, 4.1142 0.1166 0.3434, 4.1181 0.1166 0.3434, 4.1142 0.1222 0.3413, 4.1181 0.1222 0.3413, 4.1142 0.1245 0.34, 4.1181 0.1245 0.34, 4.1181 0.1245 0.3497, 4.1142 0.1245 0.3497, 4.1142 0.1165 0.3519, 4.1181 0.1165 0.3519, 4.1142 0.111 0.3523, 4.1181 0.111 0.3523, 4.1142 0.1036 0.3515, 4.1181 0.1036 0.3515, 4.1142 0.0981 0.3495, 4.1181 0.0981 0.3495, 4.1142 0.0951 0.3477, 4.1181 0.0951 0.3477, 4.1142 0.0933 0.3461, 4.1181 0.0921 0.345, 4.1142 0.0921 0.345, 4.1142 0.0903 0.3423, 4.1181 0.0903 0.3423, 4.1142 0.0891 0.3391, 4.1181 0.0891 0.3391, 4.1142 0.0887 0.3355, 4.1181 0.0887 0.3355, 4.1142 0.0891 0.3316, 4.1181 0.0891 0.3316, 4.1142 0.0902 0.3286, 4.1181 0.0902 0.3286, 4.1142 0.0915 0.3265, 4.1181 0.0915 0.3265, 4.1142 0.1039 0.3189, 4.1181 0.1039 0.3189, 4.1181 0.0979 0.3216, 4.1142 0.0932 0.3248, 4.1181 0.0932 0.3248, 4.1142 0.0933 0.3247, 4.1142 0.0979 0.3216, 4.1142 0.1105 0.3161, 4.1181 0.1105 0.3161, 4.1142 0.1144 0.3138, 4.1181 0.1144 0.3138, 4.1142 0.1156 0.3125, 4.1181 0.1156 0.3125, 4.1142 0.1164 0.3112, 4.1181 0.1164 0.3112, 4.1142 0.1169 0.3096, 4.1181 0.1169 0.3096, 4.1142 0.117 0.3083, 4.1181 0.117 0.3083, 4.1142 0.1168 0.3064, 4.1181 0.1168 0.3064, 4.1142 0.1162 0.305, 4.1181 0.1162 0.305, 4.1142 0.1154 0.3037, 4.1181 0.1154 0.3037, 4.1142 0.1142 0.3027, 4.1181 0.1142 0.3027, 4.1142 0.1133 0.3021, 4.1181 0.1133 0.3021, 4.1142 0.1107 0.3012, 4.1181 0.1107 0.3012, 4.1142 0.1056 0.3006, 4.1181 0.1056 0.3006, 4.1181 0.177 0.351, 4.1181 0.1874 0.351, 4.1142 0.177 0.351, 4.1142 0.1874 0.351, 4.1181 0.1614 0.3079, 4.1142 0.1614 0.3079, 4.1142 0.1606 0.3052, 4.1181 0.1606 0.3052, 4.1142 0.1601 0.3033, 4.1181 0.1601 0.3033, 4.1181 0.1599 0.3033, 4.1142 0.1599 0.3033, 4.1181 0.1586 0.308, 4.1142 0.1586 0.308, 4.1142 0.1437 0.351, 4.1181 0.1437 0.351, 4.1142 0.1485 0.337, 4.1181 0.1325 0.351, 4.1142 0.1325 0.351, 4.1142 0.1549 0.2939, 4.1181 0.1549 0.2939, 4.1142 0.1485 0.3101, 4.1142 0.1505 0.2835, 4.1181 0.1505 0.2835, 4.1142 0.1546 0.2931, 4.1142 0.1485 0.2799, 4.1181 0.1485 0.2799, 4.1142 0.1485 0.2799, 4.1181 0.1467 0.2778, 4.1142 0.1467 0.2778, 4.1142 0.1448 0.2765, 4.1181 0.1448 0.2765, 4.1142 0.1426 0.2757, 4.1181 0.1426 0.2757, 4.1142 0.1402 0.2754, 4.1181 0.1402 0.2754, 4.1142 0.1366 0.2759, 4.1181 0.1366 0.2759, 4.1142 0.1345 0.2766, 4.1181 0.1345 0.2766, 4.1181 0.1345 0.2676, 4.1142 0.1345 0.2676, 4.1142 0.1388 0.2669, 4.1181 0.1388 0.2669, 4.1142 0.141 0.2668, 4.1181 0.141 0.2668, 4.1142 0.1451 0.2673, 4.1181 0.1451 0.2673, 4.1142 0.1485 0.2686, 4.1181 0.149 0.2688, 4.1142 0.149 0.2688, 4.1142 0.1525 0.2713, 4.1181 0.1525 0.2713, 4.1142 0.1532 0.2719, 4.1181 0.1532 0.2719, 4.1142 0.1569 0.2763, 4.1181 0.1569 0.2763, 4.1142 0.1614 0.2851, 4.1181 0.1614 0.2851, 4.1142 0.1646 0.2931, 4.1181 0.2412 0.3029, 4.1181 0.2412 0.2938, 4.1142 0.2412 0.3029, 4.1142 0.2412 0.2938, 4.1142 0.2085 0.3029, 4.1181 0.2085 0.3029, 4.1142 0.2235 0.3029, 4.1181 0.2085 0.3298, 4.1142 0.2085 0.3298, 4.1142 0.2371 0.3298, 4.1181 0.2371 0.3298, 4.1142 0.2235 0.3298, 4.1181 0.2371 0.339, 4.1142 0.2371 0.339, 4.1142 0.2085 0.339, 4.1181 0.2085 0.339, 4.1142 0.2235 0.339, 4.1181 0.2085 0.3646, 4.1142 0.2085 0.3646, 4.1142 0.2394 0.3646, 4.1181 0.2394 0.3646, 4.1142 0.2235 0.3646, 4.1181 0.2394 0.3738, 4.1142 0.2394 0.3738, 4.1142 0.1982 0.3738, 4.1181 0.1982 0.3738, 4.1142 0.2235 0.3738, 4.1181 0.1982 0.2938, 4.1142 0.1982 0.2938, 4.1142 0.2235 0.2938, 4.1181 0.3105 0.33, 4.1181 0.3213 0.3291, 4.1181 0.3107 0.3345, 4.1181 0.3216 0.3348, 4.1181 0.3097 0.3436, 4.1181 0.3204 0.345, 4.1181 0.3076 0.3497, 4.1181 0.3176 0.3528, 4.1181 0.3046 0.3544, 4.1181 0.3128 0.3599, 4.1181 0.3019 0.3571, 4.1181 0.3095 0.3632, 4.1181 0.2958 0.3611, 4.1181 0.3015 0.3687, 4.1181 0.2887 0.3636, 4.1181 0.292 0.3724, 4.1181 0.2788 0.3646, 4.1181 0.2792 0.3738, 4.1181 0.2667 0.3646, 4.1181 0.2564 0.3738, 4.1181 0.2667 0.3029, 4.1181 0.2564 0.2938, 4.1181 0.2783 0.3029, 4.1181 0.2784 0.2938, 4.1181 0.2884 0.304, 4.1181 0.2915 0.2953, 4.1181 0.2953 0.3064, 4.1181 0.3007 0.2988, 4.1181 0.3006 0.3099, 4.1181 0.3085 0.3041, 4.1181 0.3021 0.3112, 4.1181 0.3095 0.305, 4.1181 0.3063 0.3165, 4.1181 0.3152 0.3116, 4.1181 0.309 0.3225, 4.1181 0.3192 0.3199, 4.1142 0.2784 0.2938, 4.1142 0.2564 0.2938, 4.1142 0.2915 0.2953, 4.1142 0.3007 0.2988, 4.1142 0.3085 0.3041, 4.1142 0.3095 0.305, 4.1142 0.3152 0.3116, 4.1142 0.3192 0.3199, 4.1142 0.3213 0.3291, 4.1142 0.3216 0.3348, 4.1142 0.3204 0.345, 4.1142 0.3176 0.3528, 4.1142 0.3128 0.3599, 4.1142 0.3095 0.3632, 4.1142 0.3015 0.3687, 4.1142 0.292 0.3724, 4.1142 0.2792 0.3738, 4.1142 0.2564 0.3738, 4.1142 0.2788 0.3646, 4.1142 0.2667 0.3646, 4.1142 0.2667 0.3029, 4.1142 0.2783 0.3029, 4.1142 0.3021 0.3112, 4.1142 0.3006 0.3099, 4.1142 0.2953 0.3064, 4.1142 0.2884 0.304, 4.1142 0.3107 0.3345, 4.1142 0.3105 0.33, 4.1142 0.309 0.3225, 4.1142 0.3063 0.3165, 4.1142 0.3019 0.3571, 4.1142 0.3046 0.3544, 4.1142 0.3076 0.3497, 4.1142 0.3097 0.3436, 4.1142 0.2887 0.3636, 4.1142 0.2958 0.3611
            ]
        }
        coordIndex [
            0,1,2,-1,3,4,5,-1,3,5,6,-1,6,5,7,-1,6,7,2,-1,2,7,8,-1,2,8,0,-1,9,1,10,-1,10,1,0,-1,9,10,11,-1,11,10,12,-1,13,14,15,-1,15,14,11,-1,15,11,16,-1,16,11,12,-1,13,17,14,-1,14,17,18,-1,17,19,18,-1,18,19,20,-1,18,20,21,-1,21,20,22,-1,21,22,23,-1,23,22,24,-1,23,24,25,-1,25,24,26,-1,25,26,27,-1,27,26,28,-1,27,28,29,-1,29,28,30,-1,29,30,31,-1,31,30,32,-1,31,32,33,-1,33,32,34,-1,33,34,35,-1,35,34,36,-1,35,36,37,-1,37,36,38,-1,37,38,39,-1,39,38,40,-1,39,40,41,-1,41,40,42,-1,41,42,43,-1,43,42,44,-1,43,44,45,-1,45,44,46,-1,45,46,47,-1,47,46,48,-1,47,48,49,-1,49,48,50,-1,49,50,51,-1,51,50,52,-1,51,52,53,-1,53,52,54,-1,53,54,55,-1,55,54,56,-1,55,56,57,-1,57,56,58,-1,57,58,59,-1,59,58,60,-1,59,60,61,-1,61,60,62,-1,61,62,63,-1,63,62,64,-1,63,64,65,-1,65,64,66,-1,65,66,67,-1,67,66,68,-1,67,68,69,-1,69,68,70,-1,69,70,71,-1,71,70,72,-1,71,72,73,-1,73,72,74,-1,73,74,75,-1,76,75,77,-1,77,75,74,-1,76,77,78,-1,76,78,79,-1,79,78,80,-1,79,80,81,-1,81,80,82,-1,81,82,83,-1,83,82,84,-1,83,84,85,-1,85,84,86,-1,85,86,87,-1,86,88,87,-1,87,88,89,-1,88,90,89,-1,89,90,91,-1,89,91,92,-1,92,91,93,-1,92,93,94,-1,94,93,95,-1,94,95,96,-1,96,95,97,-1,96,97,98,-1,98,97,99,-1,98,99,100,-1,100,99,101,-1,100,101,102,-1,103,104,105,-1,102,101,106,-1,102,106,107,-1,107,106,108,-1,107,108,105,-1,105,108,109,-1,105,109,103,-1,104,103,110,-1,104,110,111,-1,111,110,112,-1,111,112,113,-1,113,112,114,-1,113,114,115,-1,115,114,116,-1,115,116,117,-1,117,116,118,-1,117,118,119,-1,119,118,120,-1,119,120,121,-1,121,120,122,-1,121,122,123,-1,123,122,124,-1,123,124,125,-1,125,124,126,-1,125,126,127,-1,127,126,128,-1,127,128,129,-1,129,128,130,-1,129,130,131,-1,131,130,132,-1,131,132,133,-1,133,132,134,-1,133,134,135,-1,135,134,4,-1,135,4,3,-1,61,63,85,-1,85,63,83,-1,111,43,104,-1,104,43,45,-1,21,23,127,-1,127,23,25,-1,127,25,125,-1,125,25,27,-1,125,27,123,-1,123,27,29,-1,123,29,121,-1,121,29,31,-1,121,31,119,-1,119,31,33,-1,119,33,117,-1,117,33,35,-1,117,35,115,-1,115,35,37,-1,115,37,113,-1,113,37,39,-1,113,39,111,-1,111,39,41,-1,111,41,43,-1,14,3,11,-1,11,3,6,-1,11,6,9,-1,9,6,2,-1,9,2,1,-1,63,65,83,-1,83,65,67,-1,83,67,81,-1,81,67,69,-1,81,69,79,-1,79,69,71,-1,79,71,76,-1,76,71,73,-1,76,73,75,-1,127,129,21,-1,21,129,131,-1,21,131,18,-1,18,131,133,-1,18,133,14,-1,14,133,135,-1,14,135,3,-1,85,87,61,-1,61,87,89,-1,61,89,59,-1,59,89,92,-1,59,92,57,-1,57,92,94,-1,57,94,55,-1,55,94,96,-1,55,96,53,-1,53,96,98,-1,53,98,51,-1,51,98,100,-1,51,100,49,-1,49,100,102,-1,49,102,47,-1,47,102,107,-1,47,107,45,-1,45,107,105,-1,45,105,104,-1,136,137,138,-1,138,137,139,-1,140,136,141,-1,141,136,138,-1,140,141,142,-1,140,142,143,-1,143,142,144,-1,143,144,145,-1,146,145,147,-1,147,145,144,-1,148,146,149,-1,149,146,147,-1,150,151,152,-1,152,151,148,-1,152,148,149,-1,153,151,154,-1,154,151,150,-1,155,156,157,-1,157,156,153,-1,157,153,154,-1,158,159,160,-1,160,159,156,-1,160,156,155,-1,159,158,161,-1,159,161,162,-1,162,161,163,-1,162,163,164,-1,163,165,164,-1,164,165,166,-1,164,166,167,-1,167,166,168,-1,167,168,169,-1,169,168,170,-1,169,170,171,-1,171,170,172,-1,171,172,173,-1,173,172,174,-1,173,174,175,-1,176,175,177,-1,177,175,174,-1,176,177,178,-1,176,178,179,-1,179,178,180,-1,179,180,181,-1,181,180,182,-1,181,182,183,-1,183,182,184,-1,183,184,185,-1,184,186,185,-1,185,186,187,-1,185,187,188,-1,188,187,189,-1,188,189,190,-1,190,189,191,-1,190,191,192,-1,192,191,193,-1,192,193,194,-1,139,137,195,-1,195,137,194,-1,195,194,193,-1,143,145,194,-1,137,136,194,-1,194,136,140,-1,194,140,143,-1,151,153,148,-1,148,153,156,-1,148,156,146,-1,192,162,190,-1,190,162,164,-1,175,176,173,-1,173,176,179,-1,173,179,171,-1,171,179,181,-1,171,181,169,-1,169,181,183,-1,169,183,167,-1,167,183,185,-1,167,185,164,-1,164,185,188,-1,164,188,190,-1,145,146,194,-1,194,146,156,-1,194,156,192,-1,192,156,159,-1,192,159,162,-1,196,197,198,-1,198,197,199,-1,200,201,202,-1,202,201,196,-1,202,196,198,-1,203,201,204,-1,204,201,200,-1,205,206,207,-1,207,206,203,-1,207,203,204,-1,208,206,209,-1,209,206,205,-1,210,211,212,-1,212,211,208,-1,212,208,209,-1,213,211,214,-1,214,211,210,-1,215,216,217,-1,217,216,213,-1,217,213,214,-1,218,216,219,-1,219,216,215,-1,220,221,222,-1,222,221,218,-1,222,218,219,-1,223,221,224,-1,224,221,220,-1,199,197,225,-1,225,197,223,-1,225,223,224,-1,206,208,203,-1,203,208,211,-1,197,196,223,-1,223,196,201,-1,216,218,213,-1,213,218,221,-1,213,221,211,-1,211,221,223,-1,211,223,203,-1,203,223,201,-1,226,227,228,-1,228,227,229,-1,228,229,230,-1,230,229,231,-1,230,231,232,-1,232,231,233,-1,232,233,234,-1,234,233,235,-1,234,235,236,-1,236,235,237,-1,236,237,238,-1,238,237,239,-1,238,239,240,-1,240,239,241,-1,240,241,242,-1,242,241,243,-1,242,243,244,-1,244,243,245,-1,244,245,246,-1,246,245,247,-1,246,247,248,-1,248,247,249,-1,248,249,250,-1,250,249,251,-1,250,251,252,-1,252,251,253,-1,252,253,254,-1,254,253,255,-1,254,255,256,-1,256,255,257,-1,256,257,258,-1,258,257,259,-1,258,259,260,-1,260,259,261,-1,260,261,226,-1,226,261,227,-1,249,247,262,-1,262,247,263,-1,249,262,264,-1,249,264,251,-1,251,264,265,-1,251,265,253,-1,253,265,266,-1,253,266,255,-1,255,266,267,-1,255,267,257,-1,257,267,268,-1,257,268,259,-1,259,268,269,-1,259,269,261,-1,261,269,270,-1,261,270,227,-1,227,270,271,-1,227,271,229,-1,229,271,272,-1,229,272,231,-1,231,272,273,-1,231,273,233,-1,233,273,274,-1,233,274,235,-1,235,274,275,-1,235,275,237,-1,237,275,276,-1,237,276,239,-1,239,276,277,-1,239,277,241,-1,241,277,278,-1,241,278,243,-1,245,243,279,-1,279,243,278,-1,247,245,263,-1,263,245,279,-1,242,244,280,-1,280,244,281,-1,244,246,281,-1,281,246,282,-1,246,248,282,-1,282,248,283,-1,256,284,285,-1,256,285,254,-1,254,285,286,-1,254,286,252,-1,252,286,287,-1,252,287,250,-1,250,287,283,-1,250,283,248,-1,228,288,289,-1,228,289,226,-1,226,289,290,-1,226,290,260,-1,260,290,291,-1,260,291,258,-1,258,291,284,-1,258,284,256,-1,236,292,293,-1,236,293,234,-1,234,293,294,-1,234,294,232,-1,232,294,295,-1,232,295,230,-1,230,295,288,-1,230,288,228,-1,242,280,296,-1,242,296,240,-1,240,296,297,-1,240,297,238,-1,238,297,292,-1,238,292,236,-1,
        ]
    }
}
Shape{
    appearance Appearance {
        material  Material 	{
            diffuseColor 0.6666666666666666 0.6980392156862745 0.7686274509803922
            specularColor 0.3333333333333333 0.34901960784313724 0.3843137254901961
            ambientIntensity 0.6967
            transparency 0.0
            shininess 0.5
        }
    }
    geometry IndexedFaceSet {
        ccw TRUE
        solid FALSE
        coord DEF co Coordinate {
            point [
                4.1142 0.2667 0.3646, 4.1142 0.2667 0.3029, 4.1142 0.2788 0.3646, 4.1142 0.2783 0.3029, 4.1142 0.2884 0.304, 4.1142 0.2953 0.3064, 4.1142 0.3006 0.3099, 4.1142 0.3021 0.3112, 4.1142 0.3063 0.3165, 4.1142 0.309 0.3225, 4.1142 0.3105 0.33, 4.1142 0.3107 0.3345, 4.1142 0.3097 0.3436, 4.1142 0.3076 0.3497, 4.1142 0.3046 0.3544, 4.1142 0.3019 0.3571, 4.1142 0.2887 0.3636, 4.1142 0.2958 0.3611
            ]
        }
        coordIndex [
            0,1,2,-1,2,1,3,-1,2,3,4,-1,4,5,2,-1,2,5,6,-1,2,6,7,-1,7,8,2,-1,2,8,9,-1,2,9,10,-1,10,11,2,-1,2,11,12,-1,2,12,13,-1,13,14,2,-1,2,14,15,-1,2,15,16,-1,16,15,17,-1,
        ]
    }
}
Shape{
    appearance Appearance {
        material  Material 	{
            diffuseColor 0.0 0.0 0.0
            specularColor 0.0 0.0 0.0
            ambientIntensity 0.0
            transparency 0.0
            shininess 0.5
        }
    }
    geometry IndexedFaceSet {
        ccw TRUE
        solid FALSE
        coord DEF co Coordinate {
            point [
                4.1181 0.3484 0.3247, 4.1181 0.3451 0.3157, 4.1181 0.3753 0.3247, 4.1181 0.3785 0.3157, 4.1181 0.3604 0.358, 4.1181 0.3565 0.3738, 4.1181 0.326 0.2938, 4.1181 0.3374 0.2938, 4.1181 0.3611 0.3604, 4.1181 0.3617 0.3636, 4.1181 0.3675 0.3738, 4.1181 0.3619 0.3636, 4.1181 0.3626 0.3602, 4.1181 0.3632 0.358, 4.1181 0.398 0.2938, 4.1181 0.3866 0.2938, 4.1142 0.3675 0.3738, 4.1142 0.398 0.2938, 4.1142 0.3565 0.3738, 4.1142 0.326 0.2938, 4.1142 0.3374 0.2938, 4.1142 0.3451 0.3157, 4.1142 0.3785 0.3157, 4.1142 0.3866 0.2938, 4.1142 0.3484 0.3247, 4.1142 0.3753 0.3247, 4.1142 0.3632 0.358, 4.1142 0.3619 0.3636, 4.1142 0.3626 0.3602, 4.1142 0.3617 0.3636, 4.1142 0.3604 0.358, 4.1142 0.3611 0.3604
            ]
        }
        coordIndex [
            0,1,2,-1,2,1,3,-1,4,5,0,-1,0,5,6,-1,0,6,1,-1,1,6,7,-1,4,8,5,-1,5,8,9,-1,5,9,10,-1,10,9,11,-1,10,11,12,-1,12,13,10,-1,10,13,2,-1,10,2,14,-1,14,2,3,-1,14,3,15,-1,10,14,16,-1,16,14,17,-1,5,10,18,-1,18,10,16,-1,6,5,19,-1,19,5,18,-1,7,6,20,-1,20,6,19,-1,1,7,21,-1,21,7,20,-1,3,1,22,-1,22,1,21,-1,15,3,23,-1,23,3,22,-1,14,15,17,-1,17,15,23,-1,0,2,24,-1,24,2,25,-1,2,13,25,-1,25,13,26,-1,11,27,28,-1,11,28,12,-1,12,28,26,-1,12,26,13,-1,11,9,27,-1,27,9,29,-1,4,30,31,-1,4,31,8,-1,8,31,29,-1,8,29,9,-1,4,0,30,-1,30,0,24,-1,
        ]
    }
}
Shape{
    appearance Appearance {
        material  Material 	{
            diffuseColor 0.6666666666666666 0.6980392156862745 0.7686274509803922
            specularColor 0.3333333333333333 0.34901960784313724 0.3843137254901961
            ambientIntensity 0.6967
            transparency 0.0
            shininess 0.5
        }
    }
    geometry IndexedFaceSet {
        ccw TRUE
        solid FALSE
        coord DEF co Coordinate {
            point [
                4.1142 0.3619 0.3636, 4.1142 0.3617 0.3636, 4.1142 0.3626 0.3602, 4.1142 0.3611 0.3604, 4.1142 0.3632 0.358, 4.1142 0.3604 0.358, 4.1142 0.3753 0.3247, 4.1142 0.3484 0.3247
            ]
        }
        coordIndex [
            0,1,2,-1,2,1,3,-1,2,3,4,-1,4,3,5,-1,4,5,6,-1,6,5,7,-1,
        ]
    }
}
Shape{
    appearance Appearance {
        material  Material 	{
            diffuseColor 0.0 0.0 0.0
            specularColor 0.0 0.0 0.0
            ambientIntensity 0.0
            transparency 0.0
            shininess 0.5
        }
    }
    geometry IndexedFaceSet {
        ccw TRUE
        solid FALSE
        coord DEF co Coordinate {
            point [
                4.1181 -0.3776 0.2831, 4.1181 -0.3693 0.2725, 4.1181 -0.3823 0.3328, 4.1181 -0.3922 0.4317, 4.1181 -0.3795 0.4385, 4.1181 -0.3826 0.4734, 4.1181 -0.2822 0.2802, 4.1181 -0.2755 0.2929, 4.1181 -0.2722 0.307, 4.1181 -0.347 0.4751, 4.1181 -0.3294 0.4335, 4.1181 -0.3206 0.4516, 4.1181 -0.3601 0.4762, 4.1181 -0.1922 0.3607, 4.1181 -0.2098 0.3908, 4.1181 -0.2719 0.3185, 4.1181 -0.2861 0.351, 4.1181 -0.2719 0.3128, 4.1181 -0.3033 0.262, 4.1181 -0.2918 0.2697, 4.1181 -0.3515 0.3106, 4.1181 -0.3505 0.3053, 4.1181 -0.3482 0.3005, 4.1181 -0.1734 0.417, 4.1181 -0.1688 0.417, 4.1181 -0.1455 0.4478, 4.1181 -0.1577 0.4156, 4.1181 -0.1429 0.4469, 4.1181 -0.1478 0.4117, 4.1181 -0.1259 0.4385, 4.1181 -0.1104 0.4255, 4.1181 -0.3354 0.4887, 4.1181 -0.3079 0.4669, 4.1181 -0.322 0.5001, 4.1181 -0.2927 0.4779, 4.1181 -0.3081 0.5087, 4.1181 -0.3937 0.3396, 4.1181 -0.3902 0.2968, 4.1181 -0.3829 0.2946, 4.1181 -0.3654 0.4418, 4.1181 -0.3596 0.4421, 4.1181 -0.3536 0.4759, 4.1181 -0.3473 0.4407, 4.1181 -0.3345 0.4362, 4.1181 -0.3113 0.2994, 4.1181 -0.3144 0.2959, 4.1181 -0.3188 0.2928, 4.1181 -0.316 0.2574, 4.1181 -0.3237 0.2908, 4.1181 -0.3288 0.2559, 4.1181 -0.3294 0.2901, 4.1181 -0.3319 0.256, 4.1181 -0.3304 0.2901, 4.1181 -0.3453 0.2583, 4.1181 -0.3355 0.2909, 4.1181 -0.3583 0.264, 4.1181 -0.3406 0.2931, 4.1181 -0.345 0.2965, 4.1181 -0.3086 0.3202, 4.1181 -0.3073 0.3149, 4.1181 -0.3073 0.3097, 4.1181 -0.3087 0.3043, 4.1181 -0.4037 0.4652, 4.1181 -0.4218 0.4525, 4.1181 -0.4027 0.4222, 4.1181 -0.4256 0.4489, 4.1181 -0.4104 0.4107, 4.1181 -0.4393 0.4313, 4.1181 -0.415 0.3979, 4.1181 -0.3512 0.3162, 4.1181 -0.3496 0.3215, 4.1181 -0.3755 0.3458, 4.1181 -0.3466 0.3263, 4.1181 -0.3659 0.3564, 4.1181 -0.3444 0.3286, 4.1181 -0.3541 0.3643, 4.1181 -0.3399 0.3318, 4.1181 -0.3415 0.3689, 4.1181 -0.335 0.3338, 4.1181 -0.3288 0.3703, 4.1181 -0.3294 0.3345, 4.1181 -0.3211 0.3698, 4.1181 -0.3246 0.334, 4.1181 -0.3075 0.3663, 4.1181 -0.3194 0.3321, 4.1181 -0.2955 0.3596, 4.1181 -0.3148 0.329, 4.1181 -0.3111 0.3249, 4.1181 -0.139 0.4054, 4.1181 -0.1334 0.3993, 4.1181 -0.0988 0.4093, 4.1181 -0.1278 0.3896, 4.1181 -0.0918 0.3919, 4.1181 -0.1249 0.3788, 4.1181 -0.0891 0.3732, 4.1181 -0.1244 0.3726, 4.1181 -0.0917 0.353, 4.1181 -0.1259 0.3613, 4.1181 -0.0989 0.3349, 4.1181 -0.1299 0.3511, 4.1181 -0.1102 0.3191, 4.1181 -0.1362 0.3423, 4.1181 -0.1256 0.306, 4.1181 -0.1446 0.3352, 4.1181 -0.143 0.2975, 4.1181 -0.1545 0.3304, 4.1181 -0.162 0.2935, 4.1181 -0.1654 0.3282, 4.1181 -0.1956 0.2935, 4.1181 -0.191 0.3282, 4.1181 -0.1988 0.294, 4.1181 -0.1762 0.4927, 4.1181 -0.1988 0.4668, 4.1181 -0.1575 0.4711, 4.1181 -0.1859 0.4515, 4.1181 -0.177 0.4332, 4.1181 -0.1939 0.3287, 4.1181 -0.2076 0.2995, 4.1181 -0.2063 0.2981, 4.1181 -0.2819 0.5189, 4.1181 -0.2741 0.4855, 4.1181 -0.2537 0.5223, 4.1181 -0.2531 0.4882, 4.1181 -0.2302 0.5199, 4.1181 -0.2337 0.4858, 4.1181 -0.2016 0.5098, 4.1181 -0.2158 0.4789, 4.1181 -0.1999 0.4678, 4.1181 -0.1922 0.3284, 4.1181 -0.2026 0.2955, 4.1181 -0.4484 0.4108, 4.1181 -0.4522 0.3894, 4.1181 -0.4165 0.3851, 4.1181 -0.4523 0.384, 4.1181 -0.4157 0.376, 4.1181 -0.4496 0.3616, 4.1181 -0.4116 0.3621, 4.1181 -0.4414 0.3404, 4.1181 -0.4041 0.3498, 4.1181 -0.4284 0.322, 4.1181 -0.4107 0.3068, 4.1181 -0.2121 0.3111, 4.1181 -0.2116 0.3069, 4.1181 -0.2101 0.303, 4.1181 -0.1989 0.3282, 4.1181 -0.2028 0.3267, 4.1181 -0.212 0.3134, 4.1181 -0.2063 0.3242, 4.1181 -0.2086 0.3216, 4.1181 -0.2108 0.3177, 4.1181 -0.1945 0.3288, 4.1142 -0.1066 0.4201, 4.1142 -0.0988 0.4093, 4.1142 -0.0937 0.3966, 4.1142 -0.0918 0.3919, 4.1142 -0.0891 0.3732, 4.1142 -0.1104 0.4255, 4.1142 -0.1259 0.4385, 4.1142 -0.1429 0.4469, 4.1142 -0.1455 0.4478, 4.1142 -0.1575 0.4711, 4.1142 -0.1762 0.4927, 4.1142 -0.1893 0.5015, 4.1142 -0.2016 0.5098, 4.1142 -0.2302 0.5199, 4.1142 -0.2537 0.5223, 4.1142 -0.2819 0.5189, 4.1142 -0.3081 0.5087, 4.1142 -0.3197 0.5015, 4.1142 -0.322 0.5001, 4.1142 -0.3354 0.4887, 4.1142 -0.347 0.4751, 4.1142 -0.3536 0.4759, 4.1142 -0.3601 0.4762, 4.1142 -0.3826 0.4734, 4.1142 -0.4037 0.4652, 4.1142 -0.4218 0.4525, 4.1142 -0.4256 0.4489, 4.1142 -0.4393 0.4313, 4.1142 -0.4443 0.4201, 4.1142 -0.4484 0.4108, 4.1142 -0.4509 0.3966, 4.1142 -0.4522 0.3894, 4.1142 -0.4523 0.384, 4.1142 -0.4496 0.3616, 4.1142 -0.4414 0.3404, 4.1142 -0.4284 0.322, 4.1142 -0.4107 0.3068, 4.1142 -0.3902 0.2968, 4.1142 -0.3829 0.2946, 4.1142 -0.3822 0.2931, 4.1142 -0.3776 0.2831, 4.1142 -0.3693 0.2725, 4.1142 -0.3583 0.264, 4.1142 -0.3523 0.2614, 4.1142 -0.3453 0.2583, 4.1142 -0.3319 0.256, 4.1142 -0.3288 0.2559, 4.1142 -0.2719 0.3128, 4.1142 -0.316 0.2574, 4.1142 -0.305 0.2614, 4.1142 -0.3033 0.262, 4.1142 -0.2918 0.2697, 4.1142 -0.2822 0.2802, 4.1142 -0.2755 0.2929, 4.1142 -0.2755 0.2931, 4.1142 -0.2722 0.307, 4.1142 -0.2719 0.3185, 4.1142 -0.1922 0.3607, 4.1142 -0.2098 0.3908, 4.1142 -0.2861 0.351, 4.1142 -0.2955 0.3596, 4.1142 -0.3075 0.3663, 4.1142 -0.3211 0.3698, 4.1142 -0.3288 0.3703, 4.1142 -0.3415 0.3689, 4.1142 -0.3541 0.3643, 4.1142 -0.3659 0.3564, 4.1142 -0.3755 0.3458, 4.1142 -0.3823 0.3328, 4.1142 -0.3937 0.3396, 4.1142 -0.4041 0.3498, 4.1142 -0.4116 0.3621, 4.1142 -0.4157 0.376, 4.1142 -0.4165 0.3851, 4.1142 -0.4152 0.3966, 4.1142 -0.415 0.3979, 4.1142 -0.4104 0.4107, 4.1142 -0.4041 0.4201, 4.1142 -0.4027 0.4222, 4.1142 -0.3922 0.4317, 4.1142 -0.3795 0.4385, 4.1142 -0.3654 0.4418, 4.1142 -0.3596 0.4421, 4.1142 -0.3473 0.4407, 4.1142 -0.3345 0.4362, 4.1142 -0.3294 0.4335, 4.1142 -0.3206 0.4516, 4.1142 -0.3079 0.4669, 4.1142 -0.2927 0.4779, 4.1142 -0.2741 0.4855, 4.1142 -0.2531 0.4882, 4.1142 -0.2337 0.4858, 4.1142 -0.2158 0.4789, 4.1142 -0.1999 0.4678, 4.1142 -0.1988 0.4668, 4.1142 -0.1859 0.4515, 4.1142 -0.177 0.4332, 4.1142 -0.1741 0.4201, 4.1142 -0.1734 0.417, 4.1142 -0.1688 0.417, 4.1142 -0.1577 0.4156, 4.1142 -0.1478 0.4117, 4.1142 -0.139 0.4054, 4.1142 -0.1334 0.3993, 4.1142 -0.1318 0.3966, 4.1142 -0.1278 0.3896, 4.1142 -0.1249 0.3788, 4.1142 -0.1244 0.3726, 4.1142 -0.1259 0.3613, 4.1142 -0.1299 0.3511, 4.1142 -0.1362 0.3423, 4.1142 -0.1446 0.3352, 4.1142 -0.1545 0.3304, 4.1142 -0.1654 0.3282, 4.1142 -0.191 0.3282, 4.1142 -0.1922 0.3284, 4.1142 -0.1939 0.3287, 4.1142 -0.1945 0.3288, 4.1142 -0.1989 0.3282, 4.1142 -0.2028 0.3267, 4.1142 -0.2063 0.3242, 4.1142 -0.2086 0.3216, 4.1142 -0.2108 0.3177, 4.1142 -0.212 0.3134, 4.1142 -0.2121 0.3111, 4.1142 -0.2116 0.3069, 4.1142 -0.2101 0.303, 4.1142 -0.2076 0.2995, 4.1142 -0.2063 0.2981, 4.1142 -0.2026 0.2955, 4.1142 -0.1988 0.294, 4.1142 -0.1956 0.2935, 4.1142 -0.162 0.2935, 4.1142 -0.143 0.2975, 4.1142 -0.1256 0.306, 4.1142 -0.1102 0.3191, 4.1142 -0.0989 0.3349, 4.1142 -0.0917 0.353, 4.1142 -0.3294 0.3345, 4.1142 -0.3246 0.334, 4.1142 -0.3194 0.3321, 4.1142 -0.3148 0.329, 4.1142 -0.3111 0.3249, 4.1142 -0.3086 0.3202, 4.1142 -0.3073 0.3149, 4.1142 -0.3073 0.3097, 4.1142 -0.3087 0.3043, 4.1142 -0.3113 0.2994, 4.1142 -0.3144 0.2959, 4.1142 -0.3188 0.2928, 4.1142 -0.3237 0.2908, 4.1142 -0.3294 0.2901, 4.1142 -0.3304 0.2901, 4.1142 -0.3355 0.2909, 4.1142 -0.3406 0.2931, 4.1142 -0.345 0.2965, 4.1142 -0.3482 0.3005, 4.1142 -0.3505 0.3053, 4.1142 -0.3515 0.3106, 4.1142 -0.3512 0.3162, 4.1142 -0.3496 0.3215, 4.1142 -0.3466 0.3263, 4.1142 -0.3444 0.3286, 4.1142 -0.3399 0.3318, 4.1142 -0.335 0.3338
            ]
        }
        coordIndex [
            0,1,2,-1,3,4,5,-1,6,7,8,-1,9,10,11,-1,5,4,12,-1,13,14,15,-1,15,14,16,-1,15,16,17,-1,17,16,18,-1,17,18,8,-1,8,18,19,-1,8,19,6,-1,20,2,21,-1,21,2,1,-1,21,1,22,-1,23,24,25,-1,25,24,26,-1,25,26,27,-1,27,26,28,-1,27,28,29,-1,29,28,30,-1,9,11,31,-1,31,11,32,-1,31,32,33,-1,33,32,34,-1,33,34,35,-1,36,37,2,-1,2,37,38,-1,2,38,0,-1,4,39,12,-1,12,39,40,-1,12,40,41,-1,41,40,42,-1,41,42,9,-1,9,42,43,-1,9,43,10,-1,44,45,18,-1,18,45,46,-1,18,46,47,-1,47,46,48,-1,47,48,49,-1,49,48,50,-1,49,50,51,-1,51,50,52,-1,51,52,53,-1,53,52,54,-1,53,54,55,-1,55,54,56,-1,55,56,1,-1,1,56,57,-1,1,57,22,-1,58,59,16,-1,16,59,60,-1,16,60,18,-1,18,60,61,-1,18,61,44,-1,5,62,3,-1,3,62,63,-1,3,63,64,-1,64,63,65,-1,64,65,66,-1,66,65,67,-1,66,67,68,-1,20,69,2,-1,2,69,70,-1,2,70,71,-1,71,70,72,-1,71,72,73,-1,73,72,74,-1,73,74,75,-1,75,74,76,-1,75,76,77,-1,77,76,78,-1,77,78,79,-1,79,78,80,-1,79,80,81,-1,81,80,82,-1,81,82,83,-1,83,82,84,-1,83,84,85,-1,85,84,86,-1,85,86,16,-1,16,86,87,-1,16,87,58,-1,28,88,30,-1,30,88,89,-1,30,89,90,-1,90,89,91,-1,90,91,92,-1,92,91,93,-1,92,93,94,-1,94,93,95,-1,94,95,96,-1,96,95,97,-1,96,97,98,-1,98,97,99,-1,98,99,100,-1,100,99,101,-1,100,101,102,-1,102,101,103,-1,102,103,104,-1,104,103,105,-1,104,105,106,-1,106,105,107,-1,106,107,108,-1,108,107,109,-1,108,109,110,-1,111,112,113,-1,113,112,114,-1,113,114,25,-1,25,114,115,-1,25,115,23,-1,116,117,118,-1,35,34,119,-1,119,34,120,-1,119,120,121,-1,121,120,122,-1,121,122,123,-1,123,122,124,-1,123,124,125,-1,125,124,126,-1,125,126,111,-1,111,126,127,-1,111,127,112,-1,109,128,110,-1,110,128,116,-1,110,116,129,-1,129,116,118,-1,67,130,68,-1,68,130,131,-1,68,131,132,-1,132,131,133,-1,132,133,134,-1,134,133,135,-1,134,135,136,-1,136,135,137,-1,136,137,138,-1,138,137,139,-1,138,139,36,-1,36,139,140,-1,36,140,37,-1,141,142,116,-1,116,142,143,-1,116,143,117,-1,144,145,146,-1,145,147,146,-1,146,147,148,-1,146,148,149,-1,141,116,146,-1,146,116,150,-1,146,150,144,-1,151,30,152,-1,152,30,90,-1,152,90,153,-1,153,90,92,-1,153,92,154,-1,154,92,94,-1,154,94,155,-1,151,156,30,-1,30,156,157,-1,30,157,29,-1,29,157,158,-1,29,158,27,-1,27,158,159,-1,27,159,25,-1,25,159,160,-1,25,160,113,-1,113,160,161,-1,113,161,111,-1,125,111,162,-1,162,111,161,-1,162,163,125,-1,125,163,164,-1,125,164,123,-1,123,164,165,-1,123,165,121,-1,121,165,166,-1,121,166,119,-1,119,166,167,-1,119,167,35,-1,35,167,33,-1,33,167,168,-1,33,168,169,-1,33,169,170,-1,33,170,31,-1,31,170,171,-1,31,171,9,-1,9,171,172,-1,9,172,41,-1,41,172,173,-1,41,173,12,-1,12,173,174,-1,12,174,5,-1,5,174,175,-1,5,175,62,-1,62,175,176,-1,62,176,63,-1,63,176,177,-1,63,177,65,-1,130,67,178,-1,178,67,65,-1,178,65,177,-1,178,179,130,-1,130,179,180,-1,130,180,131,-1,131,180,181,-1,181,182,131,-1,131,182,183,-1,131,183,133,-1,133,183,184,-1,133,184,135,-1,135,184,185,-1,135,185,137,-1,137,185,186,-1,137,186,139,-1,139,186,187,-1,139,187,140,-1,140,187,188,-1,140,188,37,-1,37,188,189,-1,37,189,38,-1,38,189,190,-1,38,190,0,-1,190,191,0,-1,0,191,192,-1,0,192,1,-1,1,192,193,-1,1,193,55,-1,55,193,194,-1,55,194,53,-1,194,195,53,-1,53,195,196,-1,53,196,51,-1,51,196,197,-1,51,197,49,-1,198,17,8,-1,49,197,199,-1,49,199,47,-1,47,199,200,-1,47,200,18,-1,200,201,18,-1,18,201,202,-1,18,202,19,-1,19,202,203,-1,19,203,6,-1,6,203,204,-1,6,204,7,-1,7,204,205,-1,7,205,8,-1,8,205,206,-1,8,206,198,-1,15,17,207,-1,207,17,198,-1,13,15,208,-1,208,15,207,-1,14,13,209,-1,209,13,208,-1,16,14,210,-1,210,14,209,-1,16,210,211,-1,16,211,85,-1,85,211,212,-1,85,212,83,-1,83,212,213,-1,83,213,81,-1,81,213,214,-1,81,214,79,-1,79,214,215,-1,79,215,77,-1,77,215,216,-1,77,216,75,-1,75,216,217,-1,75,217,73,-1,73,217,218,-1,73,218,71,-1,71,218,219,-1,71,219,2,-1,2,219,220,-1,2,220,36,-1,36,220,221,-1,36,221,138,-1,138,221,222,-1,138,222,136,-1,136,222,223,-1,136,223,134,-1,134,223,224,-1,134,224,132,-1,132,224,225,-1,132,225,68,-1,68,225,226,-1,68,226,227,-1,228,64,227,-1,227,64,66,-1,227,66,68,-1,228,229,64,-1,64,229,230,-1,64,230,3,-1,3,230,231,-1,3,231,4,-1,4,231,232,-1,4,232,39,-1,39,232,233,-1,39,233,40,-1,40,233,234,-1,40,234,42,-1,42,234,235,-1,42,235,43,-1,43,235,236,-1,43,236,10,-1,10,236,237,-1,10,237,11,-1,11,237,238,-1,11,238,32,-1,32,238,239,-1,32,239,34,-1,34,239,240,-1,34,240,120,-1,120,240,241,-1,120,241,122,-1,122,241,242,-1,122,242,124,-1,124,242,243,-1,124,243,126,-1,126,243,244,-1,126,244,127,-1,127,244,245,-1,127,245,112,-1,112,245,246,-1,112,246,114,-1,114,246,247,-1,114,247,115,-1,115,247,23,-1,23,247,248,-1,23,248,249,-1,24,23,250,-1,250,23,249,-1,24,250,251,-1,24,251,26,-1,26,251,252,-1,26,252,28,-1,28,252,253,-1,28,253,88,-1,88,253,254,-1,88,254,89,-1,89,254,255,-1,89,255,91,-1,255,256,91,-1,91,256,257,-1,91,257,93,-1,93,257,258,-1,93,258,95,-1,95,258,259,-1,95,259,97,-1,97,259,260,-1,97,260,99,-1,99,260,261,-1,99,261,101,-1,101,261,262,-1,101,262,103,-1,103,262,263,-1,103,263,105,-1,105,263,264,-1,105,264,107,-1,109,107,265,-1,265,107,264,-1,109,265,266,-1,109,266,128,-1,128,266,267,-1,128,267,116,-1,116,267,268,-1,116,268,150,-1,150,268,269,-1,150,269,144,-1,144,269,270,-1,144,270,145,-1,145,270,271,-1,145,271,147,-1,147,271,272,-1,147,272,148,-1,148,272,273,-1,148,273,149,-1,149,273,274,-1,149,274,146,-1,146,274,275,-1,146,275,141,-1,141,275,276,-1,141,276,142,-1,142,276,277,-1,142,277,143,-1,143,277,278,-1,143,278,117,-1,117,278,279,-1,117,279,118,-1,118,279,280,-1,118,280,129,-1,129,280,281,-1,129,281,110,-1,110,281,282,-1,110,282,108,-1,106,108,283,-1,283,108,282,-1,106,283,284,-1,106,284,104,-1,104,284,285,-1,104,285,102,-1,102,285,286,-1,102,286,100,-1,100,286,287,-1,100,287,98,-1,98,287,288,-1,98,288,96,-1,96,288,155,-1,96,155,94,-1,80,289,290,-1,80,290,82,-1,82,290,291,-1,82,291,84,-1,84,291,292,-1,84,292,86,-1,86,292,293,-1,86,293,87,-1,87,293,294,-1,87,294,58,-1,58,294,295,-1,58,295,59,-1,59,295,296,-1,59,296,60,-1,60,296,297,-1,60,297,61,-1,61,297,298,-1,61,298,44,-1,44,298,299,-1,44,299,45,-1,45,299,300,-1,45,300,46,-1,46,300,301,-1,46,301,48,-1,48,301,302,-1,48,302,50,-1,50,302,303,-1,50,303,52,-1,52,303,304,-1,52,304,54,-1,54,304,305,-1,54,305,56,-1,56,305,306,-1,56,306,57,-1,57,306,307,-1,57,307,22,-1,22,307,308,-1,22,308,21,-1,21,308,309,-1,21,309,20,-1,20,309,310,-1,20,310,69,-1,69,310,311,-1,69,311,70,-1,70,311,312,-1,70,312,72,-1,72,312,313,-1,72,313,74,-1,74,313,314,-1,74,314,76,-1,76,314,315,-1,76,315,78,-1,78,315,289,-1,78,289,80,-1,
        ]
    }
}
Shape{
    appearance Appearance {
        material  Material 	{
            diffuseColor 0.6666666666666666 0.6980392156862745 0.7686274509803922
            specularColor 0.3333333333333333 0.34901960784313724 0.3843137254901961
            ambientIntensity 0.6967
            transparency 0.0
            shininess 0.5
        }
    }
    geometry IndexedFaceSet {
        ccw TRUE
        solid FALSE
        coord DEF co Coordinate {
            point [
                4.1142 -0.3304 0.2901, 4.1142 -0.3444 0.3286, 4.1142 -0.3466 0.3263, 4.1142 -0.3237 0.2908, 4.1142 -0.3188 0.2928, 4.1142 -0.3246 0.334, 4.1142 -0.3294 0.3345, 4.1142 -0.335 0.3338, 4.1142 -0.3399 0.3318, 4.1142 -0.3505 0.3053, 4.1142 -0.3482 0.3005, 4.1142 -0.345 0.2965, 4.1142 -0.3294 0.2901, 4.1142 -0.3496 0.3215, 4.1142 -0.3512 0.3162, 4.1142 -0.3515 0.3106, 4.1142 -0.3406 0.2931, 4.1142 -0.3355 0.2909, 4.1142 -0.3144 0.2959, 4.1142 -0.3113 0.2994, 4.1142 -0.3087 0.3043, 4.1142 -0.3073 0.3097, 4.1142 -0.3073 0.3149, 4.1142 -0.3086 0.3202, 4.1142 -0.3111 0.3249, 4.1142 -0.3148 0.329, 4.1142 -0.3194 0.3321
            ]
        }
        coordIndex [
            0,1,2,-1,3,4,5,-1,6,7,0,-1,0,7,8,-1,0,8,1,-1,9,10,2,-1,2,10,11,-1,6,0,5,-1,5,0,12,-1,5,12,3,-1,13,14,2,-1,2,14,15,-1,2,15,9,-1,11,16,2,-1,2,16,17,-1,2,17,0,-1,4,18,5,-1,5,18,19,-1,5,19,20,-1,20,21,5,-1,5,21,22,-1,5,22,23,-1,23,24,5,-1,5,24,25,-1,5,25,26,-1,
        ]
    }
}