%TF.GenerationSoftware,KiCad,Pcbnew,10.0.6*%
%TF.CreationDate,2026-09-07T19:40:46+02:00*%
%TF.ProjectId,openrz67,6f70656e-727a-4363-972e-6b696361645f,2*%
%TF.SameCoordinates,Original*%
%TF.FileFunction,Paste,Top*%
%TF.FilePolarity,Positive*%
%FSLAX46Y46*%
G04 Gerber Fmt 4.6, Leading zero omitted, Abs format (unit mm)*
G04 Created by KiCad (PCBNEW 10.0.6) date 2026-09-07 19:40:46*
%MOMM*%
%LPD*%
G01*
G04 APERTURE LIST*
%ADD10C,0.000000*%
%ADD11R,1.050000X1.700000*%
%ADD12R,0.790000X0.540000*%
%ADD13R,0.565500X0.540000*%
%ADD14R,0.540000X0.790000*%
%ADD15R,0.800000X0.900000*%
%ADD16R,0.665000X0.280000*%
%ADD17R,1.200000X2.000000*%
%ADD18R,0.900000X0.800000*%
%ADD19R,0.800000X0.800000*%
%ADD20R,0.540000X0.565500*%
%ADD21R,1.050000X1.000000*%
%ADD22R,2.200000X1.050000*%
%ADD23R,0.806500X0.864000*%
%ADD24R,1.100000X0.800000*%
%ADD25R,3.400000X2.000000*%
%ADD26R,1.500000X0.800000*%
%ADD27R,1.700000X0.800000*%
%ADD28O,0.280000X0.900000*%
%ADD29O,0.900000X0.280000*%
%ADD30R,3.700000X3.700000*%
%ADD31R,1.100000X0.550000*%
%ADD32R,1.100000X0.300000*%
%ADD33R,0.200000X0.500000*%
%ADD34R,1.500000X0.900000*%
G04 APERTURE END LIST*
D10*
%TO.C,C4*%
G36*
X19605000Y-19685000D02*
G01*
X19605000Y-20135000D01*
X19535000Y-20185000D01*
X19055000Y-20185000D01*
X19005000Y-20135000D01*
X19005000Y-19685000D01*
X19055000Y-19635000D01*
X19535000Y-19635000D01*
X19605000Y-19685000D01*
G37*
G36*
X20565000Y-19685000D02*
G01*
X20565000Y-20135000D01*
X20515000Y-20185000D01*
X20035000Y-20185000D01*
X19965000Y-20135000D01*
X19965000Y-19685000D01*
X20035000Y-19635000D01*
X20515000Y-19635000D01*
X20565000Y-19685000D01*
G37*
%TO.C,R5*%
G36*
X7821500Y-13565500D02*
G01*
X7821500Y-14025500D01*
X7781500Y-14065500D01*
X7281000Y-14065500D01*
X7241000Y-14025500D01*
X7241000Y-13565500D01*
X7281000Y-13525500D01*
X7781500Y-13525500D01*
X7821500Y-13565500D01*
G37*
G36*
X8672000Y-13565500D02*
G01*
X8672000Y-14025500D01*
X8632000Y-14065500D01*
X8131500Y-14065500D01*
X8091500Y-14025500D01*
X8091500Y-13565500D01*
X8131500Y-13525500D01*
X8632000Y-13525500D01*
X8672000Y-13565500D01*
G37*
%TO.C,C7*%
G36*
X25938500Y-15833500D02*
G01*
X25938500Y-16313500D01*
X25888500Y-16383500D01*
X25438500Y-16383500D01*
X25388500Y-16313500D01*
X25388500Y-15833500D01*
X25438500Y-15783500D01*
X25888500Y-15783500D01*
X25938500Y-15833500D01*
G37*
G36*
X25938500Y-16813500D02*
G01*
X25938500Y-17293500D01*
X25888500Y-17343500D01*
X25438500Y-17343500D01*
X25388500Y-17293500D01*
X25388500Y-16813500D01*
X25438500Y-16743500D01*
X25888500Y-16743500D01*
X25938500Y-16813500D01*
G37*
%TO.C,C25*%
G36*
X17820000Y-9575000D02*
G01*
X17820000Y-10025000D01*
X17750000Y-10075000D01*
X17270000Y-10075000D01*
X17220000Y-10025000D01*
X17220000Y-9575000D01*
X17270000Y-9525000D01*
X17750000Y-9525000D01*
X17820000Y-9575000D01*
G37*
G36*
X18780000Y-9575000D02*
G01*
X18780000Y-10025000D01*
X18730000Y-10075000D01*
X18250000Y-10075000D01*
X18180000Y-10025000D01*
X18180000Y-9575000D01*
X18250000Y-9525000D01*
X18730000Y-9525000D01*
X18780000Y-9575000D01*
G37*
%TO.C,C2*%
G36*
X15019500Y-19527500D02*
G01*
X15019500Y-20007500D01*
X14969500Y-20077500D01*
X14519500Y-20077500D01*
X14469500Y-20007500D01*
X14469500Y-19527500D01*
X14519500Y-19477500D01*
X14969500Y-19477500D01*
X15019500Y-19527500D01*
G37*
G36*
X15019500Y-20507500D02*
G01*
X15019500Y-20987500D01*
X14969500Y-21037500D01*
X14519500Y-21037500D01*
X14469500Y-20987500D01*
X14469500Y-20507500D01*
X14519500Y-20437500D01*
X14969500Y-20437500D01*
X15019500Y-20507500D01*
G37*
%TO.C,R7*%
G36*
X28012000Y-8667500D02*
G01*
X28012000Y-9168000D01*
X27972000Y-9208000D01*
X27512000Y-9208000D01*
X27472000Y-9168000D01*
X27472000Y-8667500D01*
X27512000Y-8627500D01*
X27972000Y-8627500D01*
X28012000Y-8667500D01*
G37*
G36*
X28012000Y-9518000D02*
G01*
X28012000Y-10018500D01*
X27972000Y-10058500D01*
X27512000Y-10058500D01*
X27472000Y-10018500D01*
X27472000Y-9518000D01*
X27512000Y-9478000D01*
X27972000Y-9478000D01*
X28012000Y-9518000D01*
G37*
%TO.C,R20*%
G36*
X19909000Y-8945500D02*
G01*
X19909000Y-9405500D01*
X19869000Y-9445500D01*
X19368500Y-9445500D01*
X19328500Y-9405500D01*
X19328500Y-8945500D01*
X19368500Y-8905500D01*
X19869000Y-8905500D01*
X19909000Y-8945500D01*
G37*
G36*
X20759500Y-8945500D02*
G01*
X20759500Y-9405500D01*
X20719500Y-9445500D01*
X20219000Y-9445500D01*
X20179000Y-9405500D01*
X20179000Y-8945500D01*
X20219000Y-8905500D01*
X20719500Y-8905500D01*
X20759500Y-8945500D01*
G37*
%TO.C,R21*%
G36*
X31620000Y-12724500D02*
G01*
X31620000Y-13225000D01*
X31580000Y-13265000D01*
X31120000Y-13265000D01*
X31080000Y-13225000D01*
X31080000Y-12724500D01*
X31120000Y-12684500D01*
X31580000Y-12684500D01*
X31620000Y-12724500D01*
G37*
G36*
X31620000Y-13575000D02*
G01*
X31620000Y-14075500D01*
X31580000Y-14115500D01*
X31120000Y-14115500D01*
X31080000Y-14075500D01*
X31080000Y-13575000D01*
X31120000Y-13535000D01*
X31580000Y-13535000D01*
X31620000Y-13575000D01*
G37*
%TO.C,R8*%
G36*
X27209500Y-15764000D02*
G01*
X27209500Y-16264500D01*
X27169500Y-16304500D01*
X26709500Y-16304500D01*
X26669500Y-16264500D01*
X26669500Y-15764000D01*
X26709500Y-15724000D01*
X27169500Y-15724000D01*
X27209500Y-15764000D01*
G37*
G36*
X27209500Y-16614500D02*
G01*
X27209500Y-17115000D01*
X27169500Y-17155000D01*
X26709500Y-17155000D01*
X26669500Y-17115000D01*
X26669500Y-16614500D01*
X26709500Y-16574500D01*
X27169500Y-16574500D01*
X27209500Y-16614500D01*
G37*
%TO.C,R16*%
G36*
X18355000Y-600000D02*
G01*
X18355000Y-842000D01*
X17985000Y-842000D01*
X17985000Y-1172000D01*
X18355000Y-1172000D01*
X18355000Y-1400000D01*
X18305000Y-1450000D01*
X17505000Y-1450000D01*
X17455000Y-1400000D01*
X17455000Y-600000D01*
X17505000Y-550000D01*
X18305000Y-550000D01*
X18355000Y-600000D01*
G37*
G36*
X19945000Y-600000D02*
G01*
X19945000Y-1400000D01*
X19895000Y-1450000D01*
X19095000Y-1450000D01*
X19045000Y-1400000D01*
X19045000Y-1158000D01*
X19415000Y-1158000D01*
X19415000Y-828000D01*
X19045000Y-828000D01*
X19045000Y-600000D01*
X19095000Y-550000D01*
X19895000Y-550000D01*
X19945000Y-600000D01*
G37*
%TO.C,L1*%
G36*
X12740500Y-19623000D02*
G01*
X12740500Y-19796000D01*
X12472000Y-19979500D01*
X11975500Y-19979500D01*
X11935500Y-19939500D01*
X11935500Y-19479500D01*
X11975500Y-19439500D01*
X12472000Y-19439500D01*
X12740500Y-19623000D01*
G37*
G36*
X13815500Y-19479500D02*
G01*
X13815500Y-19939500D01*
X13775500Y-19979500D01*
X13279000Y-19979500D01*
X13010500Y-19796000D01*
X13010500Y-19623000D01*
X13279000Y-19439500D01*
X13775500Y-19439500D01*
X13815500Y-19479500D01*
G37*
%TO.C,C1*%
G36*
X11278000Y-19527500D02*
G01*
X11278000Y-20007500D01*
X11228000Y-20077500D01*
X10778000Y-20077500D01*
X10728000Y-20007500D01*
X10728000Y-19527500D01*
X10778000Y-19477500D01*
X11228000Y-19477500D01*
X11278000Y-19527500D01*
G37*
G36*
X11278000Y-20507500D02*
G01*
X11278000Y-20987500D01*
X11228000Y-21037500D01*
X10778000Y-21037500D01*
X10728000Y-20987500D01*
X10728000Y-20507500D01*
X10778000Y-20437500D01*
X11228000Y-20437500D01*
X11278000Y-20507500D01*
G37*
%TO.C,R6*%
G36*
X19932500Y-10143500D02*
G01*
X19932500Y-10603500D01*
X19892500Y-10643500D01*
X19392000Y-10643500D01*
X19352000Y-10603500D01*
X19352000Y-10143500D01*
X19392000Y-10103500D01*
X19892500Y-10103500D01*
X19932500Y-10143500D01*
G37*
G36*
X20783000Y-10143500D02*
G01*
X20783000Y-10603500D01*
X20743000Y-10643500D01*
X20242500Y-10643500D01*
X20202500Y-10603500D01*
X20202500Y-10143500D01*
X20242500Y-10103500D01*
X20743000Y-10103500D01*
X20783000Y-10143500D01*
G37*
%TO.C,R13*%
G36*
X16065000Y-770000D02*
G01*
X16065000Y-1230000D01*
X16025000Y-1270000D01*
X15524500Y-1270000D01*
X15484500Y-1230000D01*
X15484500Y-770000D01*
X15524500Y-730000D01*
X16025000Y-730000D01*
X16065000Y-770000D01*
G37*
G36*
X16915500Y-770000D02*
G01*
X16915500Y-1230000D01*
X16875500Y-1270000D01*
X16375000Y-1270000D01*
X16335000Y-1230000D01*
X16335000Y-770000D01*
X16375000Y-730000D01*
X16875500Y-730000D01*
X16915500Y-770000D01*
G37*
%TO.C,L2*%
G36*
X15897000Y-15316000D02*
G01*
X15897000Y-15489000D01*
X15628500Y-15672500D01*
X15132000Y-15672500D01*
X15092000Y-15632500D01*
X15092000Y-15172500D01*
X15132000Y-15132500D01*
X15628500Y-15132500D01*
X15897000Y-15316000D01*
G37*
G36*
X16972000Y-15172500D02*
G01*
X16972000Y-15632500D01*
X16932000Y-15672500D01*
X16435500Y-15672500D01*
X16167000Y-15489000D01*
X16167000Y-15316000D01*
X16435500Y-15132500D01*
X16932000Y-15132500D01*
X16972000Y-15172500D01*
G37*
%TO.C,C5*%
G36*
X15771000Y-16386500D02*
G01*
X15771000Y-16836500D01*
X15701000Y-16886500D01*
X15221000Y-16886500D01*
X15171000Y-16836500D01*
X15171000Y-16386500D01*
X15221000Y-16336500D01*
X15701000Y-16336500D01*
X15771000Y-16386500D01*
G37*
G36*
X16731000Y-16386500D02*
G01*
X16731000Y-16836500D01*
X16681000Y-16886500D01*
X16201000Y-16886500D01*
X16131000Y-16836500D01*
X16131000Y-16386500D01*
X16201000Y-16336500D01*
X16681000Y-16336500D01*
X16731000Y-16386500D01*
G37*
%TO.C,U1*%
G36*
X22757000Y-15919500D02*
G01*
X19757000Y-15919500D01*
X19757000Y-12919500D01*
X22757000Y-12919500D01*
X22757000Y-15919500D01*
G37*
G36*
X19016500Y-12529500D02*
G01*
X19016500Y-12529500D01*
G75*
G02*
X19016500Y-12809500I0J-140000D01*
G01*
X18397000Y-12809500D01*
G75*
G02*
X18397000Y-12529500I0J140000D01*
G01*
X19016500Y-12529500D01*
G37*
G36*
X19016500Y-13029500D02*
G01*
X19016500Y-13029500D01*
G75*
G02*
X19016500Y-13309500I0J-140000D01*
G01*
X18397000Y-13309500D01*
G75*
G02*
X18397000Y-13029500I0J140000D01*
G01*
X19016500Y-13029500D01*
G37*
G36*
X19016500Y-13530000D02*
G01*
X19016500Y-13530000D01*
G75*
G02*
X19016500Y-13810000I0J-140000D01*
G01*
X18397000Y-13810000D01*
G75*
G02*
X18397000Y-13530000I0J140000D01*
G01*
X19016500Y-13530000D01*
G37*
G36*
X19016500Y-14030500D02*
G01*
X19016500Y-14030500D01*
G75*
G02*
X19016500Y-14310500I0J-140000D01*
G01*
X18397000Y-14310500D01*
G75*
G02*
X18397000Y-14030500I0J140000D01*
G01*
X19016500Y-14030500D01*
G37*
G36*
X19016500Y-14528500D02*
G01*
X19016500Y-14528500D01*
G75*
G02*
X19016500Y-14808500I0J-140000D01*
G01*
X18397000Y-14808500D01*
G75*
G02*
X18397000Y-14528500I0J140000D01*
G01*
X19016500Y-14528500D01*
G37*
G36*
X19016500Y-15028500D02*
G01*
X19016500Y-15028500D01*
G75*
G02*
X19016500Y-15308500I0J-140000D01*
G01*
X18397000Y-15308500D01*
G75*
G02*
X18397000Y-15028500I0J140000D01*
G01*
X19016500Y-15028500D01*
G37*
G36*
X19016500Y-15529000D02*
G01*
X19016500Y-15529000D01*
G75*
G02*
X19016500Y-15809000I0J-140000D01*
G01*
X18397000Y-15809000D01*
G75*
G02*
X18397000Y-15529000I0J140000D01*
G01*
X19016500Y-15529000D01*
G37*
G36*
X19016500Y-16029500D02*
G01*
X19016500Y-16029500D01*
G75*
G02*
X19016500Y-16309500I0J-140000D01*
G01*
X18397000Y-16309500D01*
G75*
G02*
X18397000Y-16029500I0J140000D01*
G01*
X19016500Y-16029500D01*
G37*
G36*
X19367000Y-11559500D02*
G01*
X19367000Y-11559500D01*
G75*
G02*
X19647000Y-11559500I140000J0D01*
G01*
X19647000Y-12179500D01*
G75*
G02*
X19367000Y-12179500I-140000J0D01*
G01*
X19367000Y-11559500D01*
G37*
G36*
X19367000Y-16659500D02*
G01*
X19367000Y-16659500D01*
G75*
G02*
X19647000Y-16659500I140000J0D01*
G01*
X19647000Y-17279500D01*
G75*
G02*
X19367000Y-17279500I-140000J0D01*
G01*
X19367000Y-16659500D01*
G37*
G36*
X19867000Y-11559500D02*
G01*
X19867000Y-11559500D01*
G75*
G02*
X20147000Y-11559500I140000J0D01*
G01*
X20147000Y-12179500D01*
G75*
G02*
X19867000Y-12179500I-140000J0D01*
G01*
X19867000Y-11559500D01*
G37*
G36*
X19867000Y-16659500D02*
G01*
X19867000Y-16659500D01*
G75*
G02*
X20147000Y-16659500I140000J0D01*
G01*
X20147000Y-17279500D01*
G75*
G02*
X19867000Y-17279500I-140000J0D01*
G01*
X19867000Y-16659500D01*
G37*
G36*
X20367500Y-11559500D02*
G01*
X20367500Y-11559500D01*
G75*
G02*
X20647500Y-11559500I140000J0D01*
G01*
X20647500Y-12179500D01*
G75*
G02*
X20367500Y-12179500I-140000J0D01*
G01*
X20367500Y-11559500D01*
G37*
G36*
X20367500Y-16659500D02*
G01*
X20367500Y-16659500D01*
G75*
G02*
X20647500Y-16659500I140000J0D01*
G01*
X20647500Y-17279500D01*
G75*
G02*
X20367500Y-17279500I-140000J0D01*
G01*
X20367500Y-16659500D01*
G37*
G36*
X20868000Y-11559500D02*
G01*
X20868000Y-11559500D01*
G75*
G02*
X21148000Y-11559500I140000J0D01*
G01*
X21148000Y-12179500D01*
G75*
G02*
X20868000Y-12179500I-140000J0D01*
G01*
X20868000Y-11559500D01*
G37*
G36*
X20868000Y-16659500D02*
G01*
X20868000Y-16659500D01*
G75*
G02*
X21148000Y-16659500I140000J0D01*
G01*
X21148000Y-17279500D01*
G75*
G02*
X20868000Y-17279500I-140000J0D01*
G01*
X20868000Y-16659500D01*
G37*
G36*
X21366000Y-11559500D02*
G01*
X21366000Y-11559500D01*
G75*
G02*
X21646000Y-11559500I140000J0D01*
G01*
X21646000Y-12179500D01*
G75*
G02*
X21366000Y-12179500I-140000J0D01*
G01*
X21366000Y-11559500D01*
G37*
G36*
X21366000Y-16659500D02*
G01*
X21366000Y-16659500D01*
G75*
G02*
X21646000Y-16659500I140000J0D01*
G01*
X21646000Y-17279500D01*
G75*
G02*
X21366000Y-17279500I-140000J0D01*
G01*
X21366000Y-16659500D01*
G37*
G36*
X21866000Y-11559500D02*
G01*
X21866000Y-11559500D01*
G75*
G02*
X22146000Y-11559500I140000J0D01*
G01*
X22146000Y-12179500D01*
G75*
G02*
X21866000Y-12179500I-140000J0D01*
G01*
X21866000Y-11559500D01*
G37*
G36*
X21866000Y-16659500D02*
G01*
X21866000Y-16659500D01*
G75*
G02*
X22146000Y-16659500I140000J0D01*
G01*
X22146000Y-17279500D01*
G75*
G02*
X21866000Y-17279500I-140000J0D01*
G01*
X21866000Y-16659500D01*
G37*
G36*
X22366500Y-11559500D02*
G01*
X22366500Y-11559500D01*
G75*
G02*
X22646500Y-11559500I140000J0D01*
G01*
X22646500Y-12179500D01*
G75*
G02*
X22366500Y-12179500I-140000J0D01*
G01*
X22366500Y-11559500D01*
G37*
G36*
X22366500Y-16659500D02*
G01*
X22366500Y-16659500D01*
G75*
G02*
X22646500Y-16659500I140000J0D01*
G01*
X22646500Y-17279500D01*
G75*
G02*
X22366500Y-17279500I-140000J0D01*
G01*
X22366500Y-16659500D01*
G37*
G36*
X22867000Y-11559500D02*
G01*
X22867000Y-11559500D01*
G75*
G02*
X23147000Y-11559500I140000J0D01*
G01*
X23147000Y-12179500D01*
G75*
G02*
X22867000Y-12179500I-140000J0D01*
G01*
X22867000Y-11559500D01*
G37*
G36*
X22867000Y-16659500D02*
G01*
X22867000Y-16659500D01*
G75*
G02*
X23147000Y-16659500I140000J0D01*
G01*
X23147000Y-17279500D01*
G75*
G02*
X22867000Y-17279500I-140000J0D01*
G01*
X22867000Y-16659500D01*
G37*
G36*
X24117000Y-12529500D02*
G01*
X24117000Y-12529500D01*
G75*
G02*
X24117000Y-12809500I0J-140000D01*
G01*
X23497000Y-12809500D01*
G75*
G02*
X23497000Y-12529500I0J140000D01*
G01*
X24117000Y-12529500D01*
G37*
G36*
X24117000Y-13029500D02*
G01*
X24117000Y-13029500D01*
G75*
G02*
X24117000Y-13309500I0J-140000D01*
G01*
X23497000Y-13309500D01*
G75*
G02*
X23497000Y-13029500I0J140000D01*
G01*
X24117000Y-13029500D01*
G37*
G36*
X24117000Y-13530000D02*
G01*
X24117000Y-13530000D01*
G75*
G02*
X24117000Y-13810000I0J-140000D01*
G01*
X23497000Y-13810000D01*
G75*
G02*
X23497000Y-13530000I0J140000D01*
G01*
X24117000Y-13530000D01*
G37*
G36*
X24117000Y-14030500D02*
G01*
X24117000Y-14030500D01*
G75*
G02*
X24117000Y-14310500I0J-140000D01*
G01*
X23497000Y-14310500D01*
G75*
G02*
X23497000Y-14030500I0J140000D01*
G01*
X24117000Y-14030500D01*
G37*
G36*
X24117000Y-14528500D02*
G01*
X24117000Y-14528500D01*
G75*
G02*
X24117000Y-14808500I0J-140000D01*
G01*
X23497000Y-14808500D01*
G75*
G02*
X23497000Y-14528500I0J140000D01*
G01*
X24117000Y-14528500D01*
G37*
G36*
X24117000Y-15028500D02*
G01*
X24117000Y-15028500D01*
G75*
G02*
X24117000Y-15308500I0J-140000D01*
G01*
X23497000Y-15308500D01*
G75*
G02*
X23497000Y-15028500I0J140000D01*
G01*
X24117000Y-15028500D01*
G37*
G36*
X24117000Y-15529000D02*
G01*
X24117000Y-15529000D01*
G75*
G02*
X24117000Y-15809000I0J-140000D01*
G01*
X23497000Y-15809000D01*
G75*
G02*
X23497000Y-15529000I0J140000D01*
G01*
X24117000Y-15529000D01*
G37*
G36*
X24117000Y-16029500D02*
G01*
X24117000Y-16029500D01*
G75*
G02*
X24117000Y-16309500I0J-140000D01*
G01*
X23497000Y-16309500D01*
G75*
G02*
X23497000Y-16029500I0J140000D01*
G01*
X24117000Y-16029500D01*
G37*
%TO.C,C9*%
G36*
X12133500Y-13582000D02*
G01*
X12133500Y-14032000D01*
X12063500Y-14082000D01*
X11583500Y-14082000D01*
X11533500Y-14032000D01*
X11533500Y-13582000D01*
X11583500Y-13532000D01*
X12063500Y-13532000D01*
X12133500Y-13582000D01*
G37*
G36*
X13093500Y-13582000D02*
G01*
X13093500Y-14032000D01*
X13043500Y-14082000D01*
X12563500Y-14082000D01*
X12493500Y-14032000D01*
X12493500Y-13582000D01*
X12563500Y-13532000D01*
X13043500Y-13532000D01*
X13093500Y-13582000D01*
G37*
%TO.C,R4*%
G36*
X7821500Y-14737500D02*
G01*
X7821500Y-15197500D01*
X7781500Y-15237500D01*
X7281000Y-15237500D01*
X7241000Y-15197500D01*
X7241000Y-14737500D01*
X7281000Y-14697500D01*
X7781500Y-14697500D01*
X7821500Y-14737500D01*
G37*
G36*
X8672000Y-14737500D02*
G01*
X8672000Y-15197500D01*
X8632000Y-15237500D01*
X8131500Y-15237500D01*
X8091500Y-15197500D01*
X8091500Y-14737500D01*
X8131500Y-14697500D01*
X8632000Y-14697500D01*
X8672000Y-14737500D01*
G37*
%TO.C,C6*%
G36*
X26125000Y-12642000D02*
G01*
X26125000Y-13092000D01*
X26055000Y-13142000D01*
X25575000Y-13142000D01*
X25525000Y-13092000D01*
X25525000Y-12642000D01*
X25575000Y-12592000D01*
X26055000Y-12592000D01*
X26125000Y-12642000D01*
G37*
G36*
X27085000Y-12642000D02*
G01*
X27085000Y-13092000D01*
X27035000Y-13142000D01*
X26555000Y-13142000D01*
X26485000Y-13092000D01*
X26485000Y-12642000D01*
X26555000Y-12592000D01*
X27035000Y-12592000D01*
X27085000Y-12642000D01*
G37*
%TO.C,C31*%
G36*
X27695000Y-19767500D02*
G01*
X27695000Y-20247500D01*
X27645000Y-20317500D01*
X27195000Y-20317500D01*
X27145000Y-20247500D01*
X27145000Y-19767500D01*
X27195000Y-19717500D01*
X27645000Y-19717500D01*
X27695000Y-19767500D01*
G37*
G36*
X27695000Y-20747500D02*
G01*
X27695000Y-21227500D01*
X27645000Y-21277500D01*
X27195000Y-21277500D01*
X27145000Y-21227500D01*
X27145000Y-20747500D01*
X27195000Y-20677500D01*
X27645000Y-20677500D01*
X27695000Y-20747500D01*
G37*
%TO.C,USB1*%
G36*
X6532000Y-11659000D02*
G01*
X5432000Y-11659000D01*
X5432000Y-11359000D01*
X6532000Y-11359000D01*
X6532000Y-11659000D01*
G37*
G36*
X6532000Y-12159000D02*
G01*
X5432000Y-12159000D01*
X5432000Y-11859000D01*
X6532000Y-11859000D01*
X6532000Y-12159000D01*
G37*
G36*
X6532000Y-12659000D02*
G01*
X5432000Y-12659000D01*
X5432000Y-12359000D01*
X6532000Y-12359000D01*
X6532000Y-12659000D01*
G37*
G36*
X6532000Y-13159000D02*
G01*
X5432000Y-13159000D01*
X5432000Y-12859000D01*
X6532000Y-12859000D01*
X6532000Y-13159000D01*
G37*
G36*
X6532000Y-13659000D02*
G01*
X5432000Y-13659000D01*
X5432000Y-13359000D01*
X6532000Y-13359000D01*
X6532000Y-13659000D01*
G37*
G36*
X6532000Y-14159000D02*
G01*
X5432000Y-14159000D01*
X5432000Y-13859000D01*
X6532000Y-13859000D01*
X6532000Y-14159000D01*
G37*
G36*
X6532000Y-14659000D02*
G01*
X5432000Y-14659000D01*
X5432000Y-14359000D01*
X6532000Y-14359000D01*
X6532000Y-14659000D01*
G37*
G36*
X6532000Y-16759000D02*
G01*
X5432000Y-16759000D01*
X5432000Y-16159000D01*
X6532000Y-16159000D01*
X6532000Y-16759000D01*
G37*
G36*
X6532000Y-10359000D02*
G01*
X5432000Y-10359000D01*
X5432000Y-9759000D01*
X6532000Y-9759000D01*
X6532000Y-10359000D01*
G37*
G36*
X6532000Y-11159000D02*
G01*
X5432000Y-11159000D01*
X5432000Y-10559000D01*
X6532000Y-10559000D01*
X6532000Y-11159000D01*
G37*
G36*
X6532000Y-15159000D02*
G01*
X5432000Y-15159000D01*
X5432000Y-14859000D01*
X6532000Y-14859000D01*
X6532000Y-15159000D01*
G37*
G36*
X6532000Y-15959000D02*
G01*
X5432000Y-15959000D01*
X5432000Y-15359000D01*
X6532000Y-15359000D01*
X6532000Y-15959000D01*
G37*
G36*
X1412000Y-8335000D02*
G01*
X1441500Y-8337000D01*
X1471500Y-8340500D01*
X1501000Y-8346000D01*
X1530000Y-8352500D01*
X1559000Y-8360500D01*
X1587000Y-8370000D01*
X1615000Y-8381000D01*
X1642500Y-8393500D01*
X1669000Y-8407000D01*
X1695000Y-8422000D01*
X1720000Y-8438500D01*
X1744000Y-8455500D01*
X1767500Y-8474500D01*
X1790000Y-8494000D01*
X1811500Y-8515000D01*
X1832000Y-8537000D01*
X1851000Y-8560000D01*
X1869000Y-8584000D01*
X1886000Y-8608500D01*
X1901500Y-8634000D01*
X1916000Y-8660500D01*
X1929000Y-8687500D01*
X1940500Y-8715000D01*
X1950500Y-8743000D01*
X1959500Y-8771500D01*
X1967000Y-8800500D01*
X1973000Y-8830000D01*
X1977500Y-8859500D01*
X1980500Y-8889000D01*
X1982000Y-8919000D01*
X1982000Y-8949000D01*
X1980500Y-8979000D01*
X1977500Y-9008500D01*
X1973000Y-9038000D01*
X1967000Y-9067500D01*
X1959500Y-9096500D01*
X1950500Y-9125000D01*
X1940500Y-9153000D01*
X1929000Y-9181000D01*
X1916000Y-9208000D01*
X1901500Y-9234000D01*
X1886000Y-9259500D01*
X1869000Y-9284500D01*
X1851000Y-9308000D01*
X1832000Y-9331000D01*
X1811500Y-9353000D01*
X1790000Y-9374000D01*
X1767500Y-9393500D01*
X1744000Y-9412500D01*
X1720000Y-9429500D01*
X1695000Y-9446000D01*
X1669000Y-9461000D01*
X1642500Y-9474500D01*
X1615000Y-9487000D01*
X1587000Y-9498000D01*
X1559000Y-9507500D01*
X1530000Y-9515500D01*
X1501000Y-9522000D01*
X1471500Y-9527500D01*
X1441500Y-9531000D01*
X1412000Y-9533500D01*
X1382000Y-9534000D01*
X1082000Y-9534000D01*
X1052000Y-9533500D01*
X1022000Y-9531000D01*
X992500Y-9527500D01*
X963000Y-9522000D01*
X934000Y-9515500D01*
X905000Y-9507500D01*
X877000Y-9498000D01*
X849000Y-9487000D01*
X821500Y-9474500D01*
X795000Y-9461000D01*
X769000Y-9446000D01*
X744000Y-9429500D01*
X719500Y-9412500D01*
X696500Y-9393500D01*
X674000Y-9374000D01*
X652500Y-9353000D01*
X632000Y-9331000D01*
X613000Y-9308000D01*
X595000Y-9284500D01*
X578000Y-9259500D01*
X562500Y-9234000D01*
X548000Y-9208000D01*
X535000Y-9181000D01*
X523500Y-9153000D01*
X513000Y-9125000D01*
X504500Y-9096500D01*
X497000Y-9067500D01*
X491000Y-9038000D01*
X486500Y-9008500D01*
X483500Y-8979000D01*
X482000Y-8949000D01*
X482000Y-8919000D01*
X483500Y-8889000D01*
X486500Y-8859500D01*
X491000Y-8830000D01*
X497000Y-8800500D01*
X504500Y-8771500D01*
X513000Y-8743000D01*
X523500Y-8715000D01*
X535000Y-8687500D01*
X548000Y-8660500D01*
X562500Y-8634000D01*
X578000Y-8608500D01*
X595000Y-8584000D01*
X613000Y-8560000D01*
X632000Y-8537000D01*
X652500Y-8515000D01*
X674000Y-8494000D01*
X696500Y-8474500D01*
X719500Y-8455500D01*
X744000Y-8438500D01*
X769000Y-8422000D01*
X795000Y-8407000D01*
X821500Y-8393500D01*
X849000Y-8381000D01*
X877000Y-8370000D01*
X905000Y-8360500D01*
X934000Y-8352500D01*
X963000Y-8346000D01*
X992500Y-8340500D01*
X1022000Y-8337000D01*
X1052000Y-8335000D01*
X1082000Y-8334000D01*
X1382000Y-8334000D01*
X1412000Y-8335000D01*
G37*
G36*
X1412000Y-16984500D02*
G01*
X1441500Y-16987000D01*
X1471500Y-16990500D01*
X1501000Y-16996000D01*
X1530000Y-17002500D01*
X1559000Y-17010500D01*
X1587000Y-17020000D01*
X1615000Y-17031000D01*
X1642500Y-17043500D01*
X1669000Y-17057000D01*
X1695000Y-17072000D01*
X1720000Y-17088500D01*
X1744000Y-17105500D01*
X1767500Y-17124500D01*
X1790000Y-17144000D01*
X1811500Y-17165000D01*
X1832000Y-17187000D01*
X1851000Y-17210000D01*
X1869000Y-17233500D01*
X1886000Y-17258500D01*
X1901500Y-17284000D01*
X1916000Y-17310000D01*
X1929000Y-17337000D01*
X1940500Y-17365000D01*
X1950500Y-17393000D01*
X1959500Y-17421500D01*
X1967000Y-17450500D01*
X1973000Y-17480000D01*
X1977500Y-17509500D01*
X1980500Y-17539000D01*
X1982000Y-17569000D01*
X1982000Y-17599000D01*
X1980500Y-17629000D01*
X1977500Y-17658500D01*
X1973000Y-17688000D01*
X1967000Y-17717500D01*
X1959500Y-17746500D01*
X1950500Y-17775000D01*
X1940500Y-17803000D01*
X1929000Y-17830500D01*
X1916000Y-17857500D01*
X1901500Y-17884000D01*
X1886000Y-17909500D01*
X1869000Y-17934000D01*
X1851000Y-17958000D01*
X1832000Y-17981000D01*
X1811500Y-18003000D01*
X1790000Y-18024000D01*
X1767500Y-18043500D01*
X1744000Y-18062500D01*
X1720000Y-18079500D01*
X1695000Y-18096000D01*
X1669000Y-18111000D01*
X1642500Y-18124500D01*
X1615000Y-18137000D01*
X1587000Y-18148000D01*
X1559000Y-18157500D01*
X1530000Y-18165500D01*
X1501000Y-18172000D01*
X1471500Y-18177500D01*
X1441500Y-18181000D01*
X1412000Y-18183000D01*
X1382000Y-18184000D01*
X1082000Y-18184000D01*
X1052000Y-18183000D01*
X1022000Y-18181000D01*
X992500Y-18177500D01*
X963000Y-18172000D01*
X934000Y-18165500D01*
X905000Y-18157500D01*
X877000Y-18148000D01*
X849000Y-18137000D01*
X821500Y-18124500D01*
X795000Y-18111000D01*
X769000Y-18096000D01*
X744000Y-18079500D01*
X719500Y-18062500D01*
X696500Y-18043500D01*
X674000Y-18024000D01*
X652500Y-18003000D01*
X632000Y-17981000D01*
X613000Y-17958000D01*
X595000Y-17934000D01*
X578000Y-17909500D01*
X562500Y-17884000D01*
X548000Y-17857500D01*
X535000Y-17830500D01*
X523500Y-17803000D01*
X513000Y-17775000D01*
X504500Y-17746500D01*
X497000Y-17717500D01*
X491000Y-17688000D01*
X486500Y-17658500D01*
X483500Y-17629000D01*
X482000Y-17599000D01*
X482000Y-17569000D01*
X483500Y-17539000D01*
X486500Y-17509500D01*
X491000Y-17480000D01*
X497000Y-17450500D01*
X504500Y-17421500D01*
X513000Y-17393000D01*
X523500Y-17365000D01*
X535000Y-17337000D01*
X548000Y-17310000D01*
X562500Y-17284000D01*
X578000Y-17258500D01*
X595000Y-17233500D01*
X613000Y-17210000D01*
X632000Y-17187000D01*
X652500Y-17165000D01*
X674000Y-17144000D01*
X696500Y-17124500D01*
X719500Y-17105500D01*
X744000Y-17088500D01*
X769000Y-17072000D01*
X795000Y-17057000D01*
X821500Y-17043500D01*
X849000Y-17031000D01*
X877000Y-17020000D01*
X905000Y-17010500D01*
X934000Y-17002500D01*
X963000Y-16996000D01*
X992500Y-16990500D01*
X1022000Y-16987000D01*
X1052000Y-16984500D01*
X1082000Y-16984000D01*
X1382000Y-16984000D01*
X1412000Y-16984500D01*
G37*
G36*
X5862000Y-16984500D02*
G01*
X5892000Y-16987000D01*
X5921500Y-16990500D01*
X5951000Y-16996000D01*
X5980000Y-17002500D01*
X6009000Y-17010500D01*
X6037500Y-17020000D01*
X6065000Y-17031000D01*
X6092500Y-17043500D01*
X6119000Y-17057000D01*
X6145000Y-17072000D01*
X6170000Y-17088500D01*
X6194500Y-17105500D01*
X6218000Y-17124500D01*
X6240000Y-17144000D01*
X6261500Y-17165000D01*
X6282000Y-17187000D01*
X6301000Y-17210000D01*
X6319500Y-17233500D01*
X6336000Y-17258500D01*
X6351500Y-17284000D01*
X6366000Y-17310000D01*
X6379000Y-17337000D01*
X6390500Y-17365000D01*
X6401000Y-17393000D01*
X6409500Y-17421500D01*
X6417000Y-17450500D01*
X6423000Y-17480000D01*
X6427500Y-17509500D01*
X6430500Y-17539000D01*
X6432000Y-17569000D01*
X6432000Y-17599000D01*
X6430500Y-17629000D01*
X6427500Y-17658500D01*
X6423000Y-17688000D01*
X6417000Y-17717500D01*
X6409500Y-17746500D01*
X6401000Y-17775000D01*
X6390500Y-17803000D01*
X6379000Y-17830500D01*
X6366000Y-17857500D01*
X6351500Y-17884000D01*
X6336000Y-17909500D01*
X6319500Y-17934000D01*
X6301000Y-17958000D01*
X6282000Y-17981000D01*
X6261500Y-18003000D01*
X6240000Y-18024000D01*
X6218000Y-18043500D01*
X6194500Y-18062500D01*
X6170000Y-18079500D01*
X6145000Y-18096000D01*
X6119000Y-18111000D01*
X6092500Y-18124500D01*
X6065000Y-18137000D01*
X6037500Y-18148000D01*
X6009000Y-18157500D01*
X5980000Y-18165500D01*
X5951000Y-18172000D01*
X5921500Y-18177500D01*
X5892000Y-18181000D01*
X5862000Y-18183000D01*
X5832000Y-18184000D01*
X5032000Y-18184000D01*
X5002000Y-18183000D01*
X4972500Y-18181000D01*
X4942500Y-18177500D01*
X4913000Y-18172000D01*
X4884000Y-18165500D01*
X4855500Y-18157500D01*
X4827000Y-18148000D01*
X4799000Y-18137000D01*
X4772000Y-18124500D01*
X4745000Y-18111000D01*
X4719500Y-18096000D01*
X4694000Y-18079500D01*
X4670000Y-18062500D01*
X4646500Y-18043500D01*
X4624000Y-18024000D01*
X4602500Y-18003000D01*
X4582500Y-17981000D01*
X4563000Y-17958000D01*
X4545000Y-17934000D01*
X4528000Y-17909500D01*
X4512500Y-17884000D01*
X4498000Y-17857500D01*
X4485000Y-17830500D01*
X4473500Y-17803000D01*
X4463500Y-17775000D01*
X4454500Y-17746500D01*
X4447000Y-17717500D01*
X4441000Y-17688000D01*
X4437000Y-17658500D01*
X4434000Y-17629000D01*
X4432500Y-17599000D01*
X4432500Y-17569000D01*
X4434000Y-17539000D01*
X4437000Y-17509500D01*
X4441000Y-17480000D01*
X4447000Y-17450500D01*
X4454500Y-17421500D01*
X4463500Y-17393000D01*
X4473500Y-17365000D01*
X4485000Y-17337000D01*
X4498000Y-17310000D01*
X4512500Y-17284000D01*
X4528000Y-17258500D01*
X4545000Y-17233500D01*
X4563000Y-17210000D01*
X4582500Y-17187000D01*
X4602500Y-17165000D01*
X4624000Y-17144000D01*
X4646500Y-17124500D01*
X4670000Y-17105500D01*
X4694000Y-17088500D01*
X4719500Y-17072000D01*
X4745000Y-17057000D01*
X4772000Y-17043500D01*
X4799000Y-17031000D01*
X4827000Y-17020000D01*
X4855500Y-17010500D01*
X4884000Y-17002500D01*
X4913000Y-16996000D01*
X4942500Y-16990500D01*
X4972500Y-16987000D01*
X5002000Y-16984500D01*
X5032000Y-16984000D01*
X5832000Y-16984000D01*
X5862000Y-16984500D01*
G37*
G36*
X5862000Y-8335000D02*
G01*
X5892000Y-8337000D01*
X5921500Y-8340500D01*
X5951000Y-8346000D01*
X5980000Y-8352500D01*
X6009000Y-8360500D01*
X6037500Y-8370000D01*
X6065000Y-8381000D01*
X6092500Y-8393500D01*
X6119000Y-8407000D01*
X6145000Y-8422000D01*
X6170000Y-8438500D01*
X6194500Y-8455500D01*
X6218000Y-8474500D01*
X6240000Y-8494000D01*
X6261500Y-8515000D01*
X6282000Y-8537000D01*
X6301000Y-8560000D01*
X6319500Y-8584000D01*
X6336000Y-8608500D01*
X6351500Y-8634000D01*
X6366000Y-8660500D01*
X6379000Y-8687500D01*
X6390500Y-8715000D01*
X6401000Y-8743000D01*
X6409500Y-8771500D01*
X6417000Y-8800500D01*
X6423000Y-8830000D01*
X6427500Y-8859500D01*
X6430500Y-8889000D01*
X6432000Y-8919000D01*
X6432000Y-8949000D01*
X6430500Y-8979000D01*
X6427500Y-9008500D01*
X6423000Y-9038000D01*
X6417000Y-9067500D01*
X6409500Y-9096500D01*
X6401000Y-9125000D01*
X6390500Y-9153000D01*
X6379000Y-9181000D01*
X6366000Y-9208000D01*
X6351500Y-9234000D01*
X6336000Y-9259500D01*
X6319500Y-9284500D01*
X6301000Y-9308000D01*
X6282000Y-9331000D01*
X6261500Y-9353000D01*
X6240000Y-9374000D01*
X6218000Y-9393500D01*
X6194500Y-9412500D01*
X6170000Y-9429500D01*
X6145000Y-9446000D01*
X6119000Y-9461000D01*
X6092500Y-9474500D01*
X6065000Y-9487000D01*
X6037500Y-9498000D01*
X6009000Y-9507500D01*
X5980000Y-9515500D01*
X5951000Y-9522000D01*
X5921500Y-9527500D01*
X5892000Y-9531000D01*
X5862000Y-9533500D01*
X5832000Y-9534000D01*
X5032000Y-9534000D01*
X5002000Y-9533500D01*
X4972500Y-9531000D01*
X4942500Y-9527500D01*
X4913000Y-9522000D01*
X4884000Y-9515500D01*
X4855500Y-9507500D01*
X4827000Y-9498000D01*
X4799000Y-9487000D01*
X4772000Y-9474500D01*
X4745000Y-9461000D01*
X4719500Y-9446000D01*
X4694000Y-9429500D01*
X4670000Y-9412500D01*
X4646500Y-9393500D01*
X4624000Y-9374000D01*
X4602500Y-9353000D01*
X4582500Y-9331000D01*
X4563000Y-9308000D01*
X4545000Y-9284500D01*
X4528000Y-9259500D01*
X4512500Y-9234000D01*
X4498000Y-9208000D01*
X4485000Y-9181000D01*
X4473500Y-9153000D01*
X4463500Y-9125000D01*
X4454500Y-9096500D01*
X4447000Y-9067500D01*
X4441000Y-9038000D01*
X4437000Y-9008500D01*
X4434000Y-8979000D01*
X4432500Y-8949000D01*
X4432500Y-8919000D01*
X4434000Y-8889000D01*
X4437000Y-8859500D01*
X4441000Y-8830000D01*
X4447000Y-8800500D01*
X4454500Y-8771500D01*
X4463500Y-8743000D01*
X4473500Y-8715000D01*
X4485000Y-8687500D01*
X4498000Y-8660500D01*
X4512500Y-8634000D01*
X4528000Y-8608500D01*
X4545000Y-8584000D01*
X4563000Y-8560000D01*
X4582500Y-8537000D01*
X4602500Y-8515000D01*
X4624000Y-8494000D01*
X4646500Y-8474500D01*
X4670000Y-8455500D01*
X4694000Y-8438500D01*
X4719500Y-8422000D01*
X4745000Y-8407000D01*
X4772000Y-8393500D01*
X4799000Y-8381000D01*
X4827000Y-8370000D01*
X4855500Y-8360500D01*
X4884000Y-8352500D01*
X4913000Y-8346000D01*
X4942500Y-8340500D01*
X4972500Y-8337000D01*
X5002000Y-8335000D01*
X5032000Y-8334000D01*
X5832000Y-8334000D01*
X5862000Y-8335000D01*
G37*
%TO.C,C30*%
G36*
X22039500Y-19786500D02*
G01*
X22039500Y-20266500D01*
X21989500Y-20336500D01*
X21539500Y-20336500D01*
X21489500Y-20266500D01*
X21489500Y-19786500D01*
X21539500Y-19736500D01*
X21989500Y-19736500D01*
X22039500Y-19786500D01*
G37*
G36*
X22039500Y-20766500D02*
G01*
X22039500Y-21246500D01*
X21989500Y-21296500D01*
X21539500Y-21296500D01*
X21489500Y-21246500D01*
X21489500Y-20766500D01*
X21539500Y-20696500D01*
X21989500Y-20696500D01*
X22039500Y-20766500D01*
G37*
%TO.C,R9*%
G36*
X7821500Y-12323000D02*
G01*
X7821500Y-12783000D01*
X7781500Y-12823000D01*
X7281000Y-12823000D01*
X7241000Y-12783000D01*
X7241000Y-12323000D01*
X7281000Y-12283000D01*
X7781500Y-12283000D01*
X7821500Y-12323000D01*
G37*
G36*
X8672000Y-12323000D02*
G01*
X8672000Y-12783000D01*
X8632000Y-12823000D01*
X8131500Y-12823000D01*
X8091500Y-12783000D01*
X8091500Y-12323000D01*
X8131500Y-12283000D01*
X8632000Y-12283000D01*
X8672000Y-12323000D01*
G37*
%TO.C,R18*%
G36*
X22270000Y-2124500D02*
G01*
X22270000Y-2625000D01*
X22230000Y-2665000D01*
X21770000Y-2665000D01*
X21730000Y-2625000D01*
X21730000Y-2124500D01*
X21770000Y-2084500D01*
X22230000Y-2084500D01*
X22270000Y-2124500D01*
G37*
G36*
X22270000Y-2975000D02*
G01*
X22270000Y-3475500D01*
X22230000Y-3515500D01*
X21770000Y-3515500D01*
X21730000Y-3475500D01*
X21730000Y-2975000D01*
X21770000Y-2935000D01*
X22230000Y-2935000D01*
X22270000Y-2975000D01*
G37*
%TO.C,R22*%
G36*
X31620000Y-5924500D02*
G01*
X31620000Y-6425000D01*
X31580000Y-6465000D01*
X31120000Y-6465000D01*
X31080000Y-6425000D01*
X31080000Y-5924500D01*
X31120000Y-5884500D01*
X31580000Y-5884500D01*
X31620000Y-5924500D01*
G37*
G36*
X31620000Y-6775000D02*
G01*
X31620000Y-7275500D01*
X31580000Y-7315500D01*
X31120000Y-7315500D01*
X31080000Y-7275500D01*
X31080000Y-6775000D01*
X31120000Y-6735000D01*
X31580000Y-6735000D01*
X31620000Y-6775000D01*
G37*
%TO.C,R10*%
G36*
X7821500Y-15911500D02*
G01*
X7821500Y-16371500D01*
X7781500Y-16411500D01*
X7281000Y-16411500D01*
X7241000Y-16371500D01*
X7241000Y-15911500D01*
X7281000Y-15871500D01*
X7781500Y-15871500D01*
X7821500Y-15911500D01*
G37*
G36*
X8672000Y-15911500D02*
G01*
X8672000Y-16371500D01*
X8632000Y-16411500D01*
X8131500Y-16411500D01*
X8091500Y-16371500D01*
X8091500Y-15911500D01*
X8131500Y-15871500D01*
X8632000Y-15871500D01*
X8672000Y-15911500D01*
G37*
%TO.C,R11*%
G36*
X14064999Y-770000D02*
G01*
X14064999Y-1230000D01*
X14024999Y-1270000D01*
X13524499Y-1270000D01*
X13484499Y-1230000D01*
X13484499Y-770000D01*
X13524499Y-730000D01*
X14024999Y-730000D01*
X14064999Y-770000D01*
G37*
G36*
X14915499Y-770000D02*
G01*
X14915499Y-1230000D01*
X14875499Y-1270000D01*
X14374999Y-1270000D01*
X14334999Y-1230000D01*
X14334999Y-770000D01*
X14374999Y-730000D01*
X14875499Y-730000D01*
X14915499Y-770000D01*
G37*
%TO.C,C3*%
G36*
X19584000Y-20889500D02*
G01*
X19584000Y-21339500D01*
X19514000Y-21389500D01*
X19034000Y-21389500D01*
X18984000Y-21339500D01*
X18984000Y-20889500D01*
X19034000Y-20839500D01*
X19514000Y-20839500D01*
X19584000Y-20889500D01*
G37*
G36*
X20544000Y-20889500D02*
G01*
X20544000Y-21339500D01*
X20494000Y-21389500D01*
X20014000Y-21389500D01*
X19944000Y-21339500D01*
X19944000Y-20889500D01*
X20014000Y-20839500D01*
X20494000Y-20839500D01*
X20544000Y-20889500D01*
G37*
%TO.C,C8*%
G36*
X12811000Y-17762000D02*
G01*
X12811000Y-18212000D01*
X12741000Y-18262000D01*
X12261000Y-18262000D01*
X12211000Y-18212000D01*
X12211000Y-17762000D01*
X12261000Y-17712000D01*
X12741000Y-17712000D01*
X12811000Y-17762000D01*
G37*
G36*
X13771000Y-17762000D02*
G01*
X13771000Y-18212000D01*
X13721000Y-18262000D01*
X13241000Y-18262000D01*
X13171000Y-18212000D01*
X13171000Y-17762000D01*
X13241000Y-17712000D01*
X13721000Y-17712000D01*
X13771000Y-17762000D01*
G37*
%TD*%
D11*
%TO.C,X2*%
X25834500Y-20476500D03*
X23284500Y-20476500D03*
%TD*%
D12*
%TO.C,C4*%
X19240000Y-19910000D03*
X20330000Y-19910000D03*
%TD*%
D13*
%TO.C,R5*%
X8389500Y-13795500D03*
X7523500Y-13795500D03*
%TD*%
D14*
%TO.C,C7*%
X25663500Y-16018500D03*
X25663500Y-17108500D03*
%TD*%
D15*
%TO.C,C29*%
X26559500Y-14395000D03*
X25159500Y-14395000D03*
%TD*%
D16*
%TO.C,U2*%
X14240000Y-7400000D03*
X14240000Y-7900000D03*
X14240000Y-8400000D03*
X14240000Y-8900000D03*
X14240000Y-9400000D03*
X16560000Y-9400000D03*
X16560000Y-8900000D03*
X16560000Y-8400000D03*
X16560000Y-7900000D03*
X16560000Y-7400000D03*
D17*
X15400000Y-8400000D03*
%TD*%
D12*
%TO.C,C25*%
X18545000Y-9800000D03*
X17455000Y-9800000D03*
%TD*%
D18*
%TO.C,C22*%
X11800000Y-800000D03*
X11800000Y-2200000D03*
%TD*%
D15*
%TO.C,C26*%
X28510000Y-17526000D03*
X29910000Y-17526000D03*
%TD*%
D19*
%TO.C,D4*%
X24220500Y-1014500D03*
X24227500Y-2613500D03*
%TD*%
D14*
%TO.C,C2*%
X14744500Y-19712500D03*
X14744500Y-20802500D03*
%TD*%
D18*
%TO.C,C14*%
X27742500Y-5940500D03*
X27742500Y-7340500D03*
%TD*%
D20*
%TO.C,R7*%
X27742000Y-9776000D03*
X27742000Y-8910000D03*
%TD*%
D13*
%TO.C,R20*%
X19611000Y-9175500D03*
X20477000Y-9175500D03*
%TD*%
D18*
%TO.C,C21*%
X6072000Y-7287500D03*
X6072000Y-5887500D03*
%TD*%
D20*
%TO.C,R21*%
X31350000Y-12967000D03*
X31350000Y-13833000D03*
%TD*%
D21*
%TO.C,A1*%
X9800500Y-19634500D03*
D22*
X8275500Y-21109500D03*
X8275500Y-18159500D03*
%TD*%
D20*
%TO.C,R8*%
X26939500Y-16006500D03*
X26939500Y-16872500D03*
%TD*%
D23*
%TO.C,R16*%
X17946500Y-1000000D03*
X19453500Y-1000000D03*
%TD*%
D24*
%TO.C,X1*%
X11967500Y-16422500D03*
X13567500Y-16422500D03*
X13567500Y-15272500D03*
X11967500Y-15272500D03*
%TD*%
D25*
%TO.C,L3*%
X10300999Y-5065000D03*
X10300999Y-10665000D03*
%TD*%
D12*
%TO.C,L1*%
X12330500Y-19709500D03*
X13420500Y-19709500D03*
%TD*%
D18*
%TO.C,C24*%
X19300000Y-5800000D03*
X19300000Y-7200000D03*
%TD*%
D14*
%TO.C,C1*%
X11003000Y-19712500D03*
X11003000Y-20802500D03*
%TD*%
D13*
%TO.C,R6*%
X20500500Y-10373500D03*
X19634500Y-10373500D03*
%TD*%
%TO.C,R13*%
X16633000Y-1000000D03*
X15767000Y-1000000D03*
%TD*%
D26*
%TO.C,U6*%
X33000000Y-6330000D03*
X33000000Y-8870000D03*
X40000000Y-8870000D03*
X40000000Y-6330000D03*
%TD*%
D12*
%TO.C,L2*%
X15487000Y-15402500D03*
X16577000Y-15402500D03*
%TD*%
D27*
%TO.C,S2*%
X25511500Y-6914500D03*
X25511500Y-10314500D03*
%TD*%
D12*
%TO.C,C5*%
X16496000Y-16611500D03*
X15406000Y-16611500D03*
%TD*%
D28*
%TO.C,U1*%
X19507000Y-16969500D03*
X20007000Y-16969500D03*
X20507000Y-16969500D03*
X21007000Y-16969500D03*
X21507000Y-16969500D03*
X22007000Y-16969500D03*
X22507000Y-16969500D03*
X23007000Y-16969500D03*
D29*
X23807000Y-16169500D03*
X23807000Y-15669500D03*
X23807000Y-15169500D03*
X23807000Y-14669500D03*
X23807000Y-14169500D03*
X23807000Y-13669500D03*
X23807000Y-13169500D03*
X23807000Y-12669500D03*
D28*
X23007000Y-11869500D03*
X22507000Y-11869500D03*
X22007000Y-11869500D03*
X21507000Y-11869500D03*
X21007000Y-11869500D03*
X20507000Y-11869500D03*
X20007000Y-11869500D03*
X19507000Y-11869500D03*
D29*
X18707000Y-12669500D03*
X18707000Y-13169500D03*
X18707000Y-13669500D03*
X18707000Y-14169500D03*
X18707000Y-14669500D03*
X18707000Y-15169500D03*
X18707000Y-15669500D03*
X18707000Y-16169500D03*
D30*
X21257000Y-14419500D03*
%TD*%
D12*
%TO.C,C9*%
X12858500Y-13807000D03*
X11768500Y-13807000D03*
%TD*%
D13*
%TO.C,R4*%
X8389500Y-14967500D03*
X7523500Y-14967500D03*
%TD*%
D12*
%TO.C,C6*%
X25760000Y-12867000D03*
X26850000Y-12867000D03*
%TD*%
D14*
%TO.C,C31*%
X27420000Y-21042500D03*
X27420000Y-19952500D03*
%TD*%
D31*
%TO.C,USB1*%
X5982000Y-10059000D03*
X5982000Y-10859000D03*
D32*
X5982000Y-11509000D03*
X5982000Y-12009000D03*
X5982000Y-12509000D03*
X5982000Y-13009000D03*
X5982000Y-13509000D03*
X5982000Y-14009000D03*
X5982000Y-14509000D03*
X5982000Y-15009000D03*
D31*
X5982000Y-15659000D03*
X5982000Y-16459000D03*
%TD*%
D14*
%TO.C,C30*%
X21764500Y-21061500D03*
X21764500Y-19971500D03*
%TD*%
D18*
%TO.C,C20*%
X9779000Y-1586000D03*
X9779000Y-2986000D03*
%TD*%
D26*
%TO.C,U5*%
X33000000Y-13130000D03*
X33000000Y-15670000D03*
X40000000Y-15670000D03*
X40000000Y-13130000D03*
%TD*%
D27*
%TO.C,S1*%
X22711000Y-10319500D03*
X22711000Y-6919500D03*
%TD*%
D33*
%TO.C,U3*%
X16200000Y-4750000D03*
X16600000Y-4750000D03*
X17000000Y-4750000D03*
X17400000Y-4750000D03*
X17800000Y-4750000D03*
X17800000Y-2650000D03*
X17400000Y-2650000D03*
X17000000Y-2650000D03*
X16600000Y-2650000D03*
X16200000Y-2650000D03*
D34*
X17000000Y-3700000D03*
%TD*%
D15*
%TO.C,C15*%
X15200500Y-18034000D03*
X16600500Y-18034000D03*
%TD*%
D13*
%TO.C,R9*%
X7523500Y-12553000D03*
X8389500Y-12553000D03*
%TD*%
D20*
%TO.C,R18*%
X22000000Y-3233000D03*
X22000000Y-2367000D03*
%TD*%
%TO.C,R22*%
X31350000Y-6167000D03*
X31350000Y-7033000D03*
%TD*%
D13*
%TO.C,R10*%
X7523500Y-16141500D03*
X8389500Y-16141500D03*
%TD*%
%TO.C,R11*%
X14632999Y-1000000D03*
X13766999Y-1000000D03*
%TD*%
D19*
%TO.C,D3*%
X20500000Y-4799500D03*
X20500000Y-3200500D03*
%TD*%
D15*
%TO.C,C23*%
X15800000Y-11400000D03*
X17200000Y-11400000D03*
%TD*%
D12*
%TO.C,C3*%
X19219000Y-21114500D03*
X20309000Y-21114500D03*
%TD*%
%TO.C,C8*%
X13536000Y-17987000D03*
X12446000Y-17987000D03*
%TD*%
M02*
