%TF.GenerationSoftware,KiCad,Pcbnew,10.0.6*%
%TF.CreationDate,2026-09-08T23:38:44+02:00*%
%TF.ProjectId,openrz67,6f70656e-727a-4363-972e-6b696361645f,2*%
%TF.SameCoordinates,Original*%
%TF.FileFunction,Soldermask,Top*%
%TF.FilePolarity,Negative*%
%FSLAX46Y46*%
G04 Gerber Fmt 4.6, Leading zero omitted, Abs format (unit mm)*
G04 Created by KiCad (PCBNEW 10.0.6) date 2026-09-08 23:38:44*
%MOMM*%
%LPD*%
G01*
G04 APERTURE LIST*
G04 Aperture macros list*
%AMRoundRect*
0 Rectangle with rounded corners*
0 $1 Rounding radius*
0 $2 $3 $4 $5 $6 $7 $8 $9 X,Y pos of 4 corners*
0 Add a 4 corners polygon primitive as box body*
4,1,4,$2,$3,$4,$5,$6,$7,$8,$9,$2,$3,0*
0 Add four circle primitives for the rounded corners*
1,1,$1+$1,$2,$3*
1,1,$1+$1,$4,$5*
1,1,$1+$1,$6,$7*
1,1,$1+$1,$8,$9*
0 Add four rect primitives between the rounded corners*
20,1,$1+$1,$2,$3,$4,$5,0*
20,1,$1+$1,$4,$5,$6,$7,0*
20,1,$1+$1,$6,$7,$8,$9,0*
20,1,$1+$1,$8,$9,$2,$3,0*%
G04 Aperture macros list end*
%ADD10RoundRect,0.051000X0.525000X0.850000X-0.525000X0.850000X-0.525000X-0.850000X0.525000X-0.850000X0*%
%ADD11RoundRect,0.051000X-0.395000X-0.270000X0.395000X-0.270000X0.395000X0.270000X-0.395000X0.270000X0*%
%ADD12RoundRect,0.051000X0.282750X0.270000X-0.282750X0.270000X-0.282750X-0.270000X0.282750X-0.270000X0*%
%ADD13RoundRect,0.051000X-0.270000X0.395000X-0.270000X-0.395000X0.270000X-0.395000X0.270000X0.395000X0*%
%ADD14RoundRect,0.051000X0.400000X0.450000X-0.400000X0.450000X-0.400000X-0.450000X0.400000X-0.450000X0*%
%ADD15RoundRect,0.051000X-0.332500X-0.140000X0.332500X-0.140000X0.332500X0.140000X-0.332500X0.140000X0*%
%ADD16RoundRect,0.051000X-0.600000X-1.000000X0.600000X-1.000000X0.600000X1.000000X-0.600000X1.000000X0*%
%ADD17RoundRect,0.051000X0.395000X0.270000X-0.395000X0.270000X-0.395000X-0.270000X0.395000X-0.270000X0*%
%ADD18RoundRect,0.051000X-0.450000X0.400000X-0.450000X-0.400000X0.450000X-0.400000X0.450000X0.400000X0*%
%ADD19RoundRect,0.051000X-0.400000X-0.450000X0.400000X-0.450000X0.400000X0.450000X-0.400000X0.450000X0*%
%ADD20RoundRect,0.051000X-0.400000X-0.400000X0.400000X-0.400000X0.400000X0.400000X-0.400000X0.400000X0*%
%ADD21RoundRect,0.051000X0.270000X-0.282750X0.270000X0.282750X-0.270000X0.282750X-0.270000X-0.282750X0*%
%ADD22RoundRect,0.051000X-0.282750X-0.270000X0.282750X-0.270000X0.282750X0.270000X-0.282750X0.270000X0*%
%ADD23RoundRect,0.051000X0.450000X-0.400000X0.450000X0.400000X-0.450000X0.400000X-0.450000X-0.400000X0*%
%ADD24RoundRect,0.051000X-0.270000X0.282750X-0.270000X-0.282750X0.270000X-0.282750X0.270000X0.282750X0*%
%ADD25RoundRect,0.051000X0.525000X-0.500000X0.525000X0.500000X-0.525000X0.500000X-0.525000X-0.500000X0*%
%ADD26RoundRect,0.051000X1.100000X-0.525000X1.100000X0.525000X-1.100000X0.525000X-1.100000X-0.525000X0*%
%ADD27RoundRect,0.051000X-0.403250X-0.432000X0.403250X-0.432000X0.403250X0.432000X-0.403250X0.432000X0*%
%ADD28RoundRect,0.051000X-0.550000X-0.400000X0.550000X-0.400000X0.550000X0.400000X-0.550000X0.400000X0*%
%ADD29RoundRect,0.051000X-1.700000X1.000000X-1.700000X-1.000000X1.700000X-1.000000X1.700000X1.000000X0*%
%ADD30C,1.702000*%
%ADD31C,3.102000*%
%ADD32RoundRect,0.051000X-0.800000X-0.800000X0.800000X-0.800000X0.800000X0.800000X-0.800000X0.800000X0*%
%ADD33RoundRect,0.051000X0.750000X0.400000X-0.750000X0.400000X-0.750000X-0.400000X0.750000X-0.400000X0*%
%ADD34RoundRect,0.051000X-0.850000X0.400000X-0.850000X-0.400000X0.850000X-0.400000X0.850000X0.400000X0*%
%ADD35O,0.382000X1.002000*%
%ADD36O,1.002000X0.382000*%
%ADD37RoundRect,0.051000X-1.850000X-1.850000X1.850000X-1.850000X1.850000X1.850000X-1.850000X1.850000X0*%
%ADD38RoundRect,0.051000X0.270000X-0.395000X0.270000X0.395000X-0.270000X0.395000X-0.270000X-0.395000X0*%
%ADD39C,0.802000*%
%ADD40RoundRect,0.051000X-0.550000X0.275000X-0.550000X-0.275000X0.550000X-0.275000X0.550000X0.275000X0*%
%ADD41RoundRect,0.051000X-0.550000X0.150000X-0.550000X-0.150000X0.550000X-0.150000X0.550000X0.150000X0*%
%ADD42O,2.102000X1.202000*%
%ADD43O,1.902000X1.302000*%
%ADD44RoundRect,0.051000X0.850000X-0.850000X0.850000X0.850000X-0.850000X0.850000X-0.850000X-0.850000X0*%
%ADD45C,1.802000*%
%ADD46RoundRect,0.051000X0.850000X-0.400000X0.850000X0.400000X-0.850000X0.400000X-0.850000X-0.400000X0*%
%ADD47RoundRect,0.051000X0.100000X-0.250000X0.100000X0.250000X-0.100000X0.250000X-0.100000X-0.250000X0*%
%ADD48RoundRect,0.051000X0.750000X-0.450000X0.750000X0.450000X-0.750000X0.450000X-0.750000X-0.450000X0*%
%ADD49RoundRect,0.051000X0.400000X0.400000X-0.400000X0.400000X-0.400000X-0.400000X0.400000X-0.400000X0*%
G04 APERTURE END LIST*
D10*
%TO.C,X2*%
X25834500Y-20476500D03*
X23284500Y-20476500D03*
%TD*%
D11*
%TO.C,C4*%
X19240000Y-19910000D03*
X20330000Y-19910000D03*
%TD*%
D12*
%TO.C,R5*%
X8389500Y-13795500D03*
X7523500Y-13795500D03*
%TD*%
D13*
%TO.C,C7*%
X25663500Y-16018500D03*
X25663500Y-17108500D03*
%TD*%
D14*
%TO.C,C29*%
X26559500Y-14395000D03*
X25159500Y-14395000D03*
%TD*%
D15*
%TO.C,U2*%
X14240000Y-7400000D03*
X14240000Y-7900000D03*
X14240000Y-8400000D03*
X14240000Y-8900000D03*
X14240000Y-9400000D03*
X16560000Y-9400000D03*
X16560000Y-8900000D03*
X16560000Y-8400000D03*
X16560000Y-7900000D03*
X16560000Y-7400000D03*
D16*
X15400000Y-8400000D03*
%TD*%
D17*
%TO.C,C25*%
X18545000Y-9800000D03*
X17455000Y-9800000D03*
%TD*%
D18*
%TO.C,C22*%
X11800000Y-800000D03*
X11800000Y-2200000D03*
%TD*%
D19*
%TO.C,C26*%
X28510000Y-17526000D03*
X29910000Y-17526000D03*
%TD*%
D20*
%TO.C,D4*%
X24220500Y-1014500D03*
X24227500Y-2613500D03*
%TD*%
D13*
%TO.C,C2*%
X14744500Y-19712500D03*
X14744500Y-20802500D03*
%TD*%
D18*
%TO.C,C14*%
X27742500Y-5940500D03*
X27742500Y-7340500D03*
%TD*%
D21*
%TO.C,R7*%
X27742000Y-9776000D03*
X27742000Y-8910000D03*
%TD*%
D22*
%TO.C,R20*%
X19611000Y-9175500D03*
X20477000Y-9175500D03*
%TD*%
D23*
%TO.C,C21*%
X6072000Y-7287500D03*
X6072000Y-5887500D03*
%TD*%
D24*
%TO.C,R21*%
X31350000Y-12967000D03*
X31350000Y-13833000D03*
%TD*%
D25*
%TO.C,A1*%
X9800500Y-19634500D03*
D26*
X8275500Y-21109500D03*
X8275500Y-18159500D03*
%TD*%
D24*
%TO.C,R8*%
X26939500Y-16006500D03*
X26939500Y-16872500D03*
%TD*%
D27*
%TO.C,R16*%
X17946500Y-1000000D03*
X19453500Y-1000000D03*
%TD*%
D28*
%TO.C,X1*%
X11967500Y-16422500D03*
X13567500Y-16422500D03*
X13567500Y-15272500D03*
X11967500Y-15272500D03*
%TD*%
D29*
%TO.C,L3*%
X10300999Y-5065000D03*
X10300999Y-10665000D03*
%TD*%
D30*
%TO.C,BAT1*%
X3275000Y-3810500D03*
X3275000Y-5810500D03*
%TD*%
%TO.C,S3*%
X27713500Y-2040000D03*
X29713500Y-2040000D03*
%TD*%
D11*
%TO.C,L1*%
X12330500Y-19709500D03*
X13420500Y-19709500D03*
%TD*%
D31*
%TO.C,H2*%
X46000000Y-2000000D03*
%TD*%
D18*
%TO.C,C24*%
X19300000Y-5800000D03*
X19300000Y-7200000D03*
%TD*%
D13*
%TO.C,C1*%
X11003000Y-19712500D03*
X11003000Y-20802500D03*
%TD*%
D12*
%TO.C,R6*%
X20500500Y-10373500D03*
X19634500Y-10373500D03*
%TD*%
%TO.C,R13*%
X16633000Y-1000000D03*
X15767000Y-1000000D03*
%TD*%
D32*
%TO.C,U4*%
X44300500Y-14750000D03*
D30*
X44300500Y-12250000D03*
X44300500Y-9750000D03*
X44300500Y-7250000D03*
%TD*%
D33*
%TO.C,U6*%
X33000000Y-6330000D03*
X33000000Y-8870000D03*
X40000000Y-8870000D03*
X40000000Y-6330000D03*
%TD*%
D11*
%TO.C,L2*%
X15487000Y-15402500D03*
X16577000Y-15402500D03*
%TD*%
D34*
%TO.C,S2*%
X25511500Y-6914500D03*
X25511500Y-10314500D03*
%TD*%
D17*
%TO.C,C5*%
X16496000Y-16611500D03*
X15406000Y-16611500D03*
%TD*%
D35*
%TO.C,U1*%
X19507000Y-16969500D03*
X20007000Y-16969500D03*
X20507000Y-16969500D03*
X21007000Y-16969500D03*
X21507000Y-16969500D03*
X22007000Y-16969500D03*
X22507000Y-16969500D03*
X23007000Y-16969500D03*
D36*
X23807000Y-16169500D03*
X23807000Y-15669500D03*
X23807000Y-15169500D03*
X23807000Y-14669500D03*
X23807000Y-14169500D03*
X23807000Y-13669500D03*
X23807000Y-13169500D03*
X23807000Y-12669500D03*
D35*
X23007000Y-11869500D03*
X22507000Y-11869500D03*
X22007000Y-11869500D03*
X21507000Y-11869500D03*
X21007000Y-11869500D03*
X20507000Y-11869500D03*
X20007000Y-11869500D03*
X19507000Y-11869500D03*
D36*
X18707000Y-12669500D03*
X18707000Y-13169500D03*
X18707000Y-13669500D03*
X18707000Y-14169500D03*
X18707000Y-14669500D03*
X18707000Y-15169500D03*
X18707000Y-15669500D03*
X18707000Y-16169500D03*
D37*
X21257000Y-14419500D03*
%TD*%
D17*
%TO.C,C9*%
X12858500Y-13807000D03*
X11768500Y-13807000D03*
%TD*%
D12*
%TO.C,R4*%
X8389500Y-14967500D03*
X7523500Y-14967500D03*
%TD*%
D11*
%TO.C,C6*%
X25760000Y-12867000D03*
X26850000Y-12867000D03*
%TD*%
D38*
%TO.C,C31*%
X27420000Y-21042500D03*
X27420000Y-19952500D03*
%TD*%
D39*
%TO.C,USB1*%
X4912000Y-10369000D03*
X4912000Y-16149000D03*
D40*
X5982000Y-10059000D03*
X5982000Y-10859000D03*
D41*
X5982000Y-11509000D03*
X5982000Y-12009000D03*
X5982000Y-12509000D03*
X5982000Y-13009000D03*
X5982000Y-13509000D03*
X5982000Y-14009000D03*
X5982000Y-14509000D03*
X5982000Y-15009000D03*
D40*
X5982000Y-15659000D03*
X5982000Y-16459000D03*
D42*
X5432000Y-8934000D03*
D43*
X1232000Y-8934000D03*
D42*
X5432000Y-17584000D03*
D43*
X1232000Y-17584000D03*
%TD*%
D38*
%TO.C,C30*%
X21764500Y-21061500D03*
X21764500Y-19971500D03*
%TD*%
D18*
%TO.C,C20*%
X9779000Y-1586000D03*
X9779000Y-2986000D03*
%TD*%
D33*
%TO.C,U5*%
X33000000Y-13130000D03*
X33000000Y-15670000D03*
X40000000Y-15670000D03*
X40000000Y-13130000D03*
%TD*%
D44*
%TO.C,J1*%
X34420000Y-20600000D03*
D45*
X36960000Y-20600000D03*
X39500000Y-20600000D03*
X42040000Y-20600000D03*
%TD*%
D46*
%TO.C,S1*%
X22711000Y-10319500D03*
X22711000Y-6919500D03*
%TD*%
D47*
%TO.C,U3*%
X16200000Y-4750000D03*
X16600000Y-4750000D03*
X17000000Y-4750000D03*
X17400000Y-4750000D03*
X17800000Y-4750000D03*
X17800000Y-2650000D03*
X17400000Y-2650000D03*
X17000000Y-2650000D03*
X16600000Y-2650000D03*
X16200000Y-2650000D03*
D48*
X17000000Y-3700000D03*
%TD*%
D19*
%TO.C,C15*%
X15200500Y-18034000D03*
X16600500Y-18034000D03*
%TD*%
D22*
%TO.C,R9*%
X7523500Y-12553000D03*
X8389500Y-12553000D03*
%TD*%
D21*
%TO.C,R18*%
X22000000Y-3233000D03*
X22000000Y-2367000D03*
%TD*%
D24*
%TO.C,R22*%
X31350000Y-6167000D03*
X31350000Y-7033000D03*
%TD*%
D22*
%TO.C,R10*%
X7523500Y-16141500D03*
X8389500Y-16141500D03*
%TD*%
D31*
%TO.C,H1*%
X2000000Y-20000000D03*
%TD*%
D12*
%TO.C,R11*%
X14632999Y-1000000D03*
X13766999Y-1000000D03*
%TD*%
D49*
%TO.C,D3*%
X20500000Y-4799500D03*
X20500000Y-3200500D03*
%TD*%
D14*
%TO.C,C23*%
X15850000Y-10500000D03*
X14450000Y-10500000D03*
%TD*%
D11*
%TO.C,C3*%
X19219000Y-21114500D03*
X20309000Y-21114500D03*
%TD*%
D17*
%TO.C,C8*%
X13536000Y-17987000D03*
X12446000Y-17987000D03*
%TD*%
M02*
