%TF.GenerationSoftware,KiCad,Pcbnew,10.0.6*%
%TF.CreationDate,2026-09-07T19:40:46+02:00*%
%TF.ProjectId,openrz67,6f70656e-727a-4363-972e-6b696361645f,2*%
%TF.SameCoordinates,Original*%
%TF.FileFunction,Legend,Bot*%
%TF.FilePolarity,Positive*%
%FSLAX46Y46*%
G04 Gerber Fmt 4.6, Leading zero omitted, Abs format (unit mm)*
G04 Created by KiCad (PCBNEW 10.0.6) date 2026-09-07 19:40:46*
%MOMM*%
%LPD*%
G01*
G04 APERTURE LIST*
G04 Aperture macros list*
%AMRoundRect*
0 Rectangle with rounded corners*
0 $1 Rounding radius*
0 $2 $3 $4 $5 $6 $7 $8 $9 X,Y pos of 4 corners*
0 Add a 4 corners polygon primitive as box body*
4,1,4,$2,$3,$4,$5,$6,$7,$8,$9,$2,$3,0*
0 Add four circle primitives for the rounded corners*
1,1,$1+$1,$2,$3*
1,1,$1+$1,$4,$5*
1,1,$1+$1,$6,$7*
1,1,$1+$1,$8,$9*
0 Add four rect primitives between the rounded corners*
20,1,$1+$1,$2,$3,$4,$5,0*
20,1,$1+$1,$4,$5,$6,$7,0*
20,1,$1+$1,$6,$7,$8,$9,0*
20,1,$1+$1,$8,$9,$2,$3,0*%
G04 Aperture macros list end*
%ADD10C,0.203000*%
%ADD11C,1.702000*%
%ADD12C,3.102000*%
%ADD13RoundRect,0.051000X-0.800000X-0.800000X0.800000X-0.800000X0.800000X0.800000X-0.800000X0.800000X0*%
%ADD14C,0.802000*%
%ADD15O,2.102000X1.202000*%
%ADD16O,1.902000X1.302000*%
%ADD17RoundRect,0.051000X0.850000X-0.850000X0.850000X0.850000X-0.850000X0.850000X-0.850000X-0.850000X0*%
%ADD18C,1.802000*%
G04 APERTURE END LIST*
D10*
X5453123Y-5445541D02*
X5583766Y-5394731D01*
X5583766Y-5394731D02*
X5627313Y-5343922D01*
X5627313Y-5343922D02*
X5670861Y-5242303D01*
X5670861Y-5242303D02*
X5670861Y-5089874D01*
X5670861Y-5089874D02*
X5627313Y-4988255D01*
X5627313Y-4988255D02*
X5583766Y-4937446D01*
X5583766Y-4937446D02*
X5496671Y-4886636D01*
X5496671Y-4886636D02*
X5148290Y-4886636D01*
X5148290Y-4886636D02*
X5148290Y-5953636D01*
X5148290Y-5953636D02*
X5453123Y-5953636D01*
X5453123Y-5953636D02*
X5540218Y-5902826D01*
X5540218Y-5902826D02*
X5583766Y-5852017D01*
X5583766Y-5852017D02*
X5627313Y-5750398D01*
X5627313Y-5750398D02*
X5627313Y-5648779D01*
X5627313Y-5648779D02*
X5583766Y-5547160D01*
X5583766Y-5547160D02*
X5540218Y-5496350D01*
X5540218Y-5496350D02*
X5453123Y-5445541D01*
X5453123Y-5445541D02*
X5148290Y-5445541D01*
X6019242Y-5191493D02*
X6454718Y-5191493D01*
X5932147Y-4886636D02*
X6236980Y-5953636D01*
X6236980Y-5953636D02*
X6541813Y-4886636D01*
X6716004Y-5953636D02*
X7238575Y-5953636D01*
X6977289Y-4886636D02*
X6977289Y-5953636D01*
X7543409Y-5293112D02*
X8240171Y-5293112D01*
X5482123Y-3697041D02*
X5612766Y-3646231D01*
X5612766Y-3646231D02*
X5656313Y-3595422D01*
X5656313Y-3595422D02*
X5699861Y-3493803D01*
X5699861Y-3493803D02*
X5699861Y-3341374D01*
X5699861Y-3341374D02*
X5656313Y-3239755D01*
X5656313Y-3239755D02*
X5612766Y-3188946D01*
X5612766Y-3188946D02*
X5525671Y-3138136D01*
X5525671Y-3138136D02*
X5177290Y-3138136D01*
X5177290Y-3138136D02*
X5177290Y-4205136D01*
X5177290Y-4205136D02*
X5482123Y-4205136D01*
X5482123Y-4205136D02*
X5569218Y-4154326D01*
X5569218Y-4154326D02*
X5612766Y-4103517D01*
X5612766Y-4103517D02*
X5656313Y-4001898D01*
X5656313Y-4001898D02*
X5656313Y-3900279D01*
X5656313Y-3900279D02*
X5612766Y-3798660D01*
X5612766Y-3798660D02*
X5569218Y-3747850D01*
X5569218Y-3747850D02*
X5482123Y-3697041D01*
X5482123Y-3697041D02*
X5177290Y-3697041D01*
X6048242Y-3442993D02*
X6483718Y-3442993D01*
X5961147Y-3138136D02*
X6265980Y-4205136D01*
X6265980Y-4205136D02*
X6570813Y-3138136D01*
X6745004Y-4205136D02*
X7267575Y-4205136D01*
X7006289Y-3138136D02*
X7006289Y-4205136D01*
X7572409Y-3544612D02*
X8269171Y-3544612D01*
X7920790Y-3138136D02*
X7920790Y-3951088D01*
X38640218Y-15178136D02*
X38466028Y-15178136D01*
X38466028Y-15178136D02*
X38378932Y-15127326D01*
X38378932Y-15127326D02*
X38335385Y-15076517D01*
X38335385Y-15076517D02*
X38248290Y-14924088D01*
X38248290Y-14924088D02*
X38204742Y-14720850D01*
X38204742Y-14720850D02*
X38204742Y-14314374D01*
X38204742Y-14314374D02*
X38248290Y-14212755D01*
X38248290Y-14212755D02*
X38291837Y-14161946D01*
X38291837Y-14161946D02*
X38378932Y-14111136D01*
X38378932Y-14111136D02*
X38553123Y-14111136D01*
X38553123Y-14111136D02*
X38640218Y-14161946D01*
X38640218Y-14161946D02*
X38683766Y-14212755D01*
X38683766Y-14212755D02*
X38727313Y-14314374D01*
X38727313Y-14314374D02*
X38727313Y-14568422D01*
X38727313Y-14568422D02*
X38683766Y-14670041D01*
X38683766Y-14670041D02*
X38640218Y-14720850D01*
X38640218Y-14720850D02*
X38553123Y-14771660D01*
X38553123Y-14771660D02*
X38378932Y-14771660D01*
X38378932Y-14771660D02*
X38291837Y-14720850D01*
X38291837Y-14720850D02*
X38248290Y-14670041D01*
X38248290Y-14670041D02*
X38204742Y-14568422D01*
X38988599Y-15178136D02*
X39293432Y-14111136D01*
X39293432Y-14111136D02*
X39598265Y-15178136D01*
X40556313Y-15228946D02*
X39772456Y-13857088D01*
X40861147Y-14111136D02*
X40861147Y-15178136D01*
X40861147Y-15178136D02*
X41383718Y-14111136D01*
X41383718Y-14111136D02*
X41383718Y-15178136D01*
X42341766Y-14212755D02*
X42298218Y-14161946D01*
X42298218Y-14161946D02*
X42167576Y-14111136D01*
X42167576Y-14111136D02*
X42080480Y-14111136D01*
X42080480Y-14111136D02*
X41949837Y-14161946D01*
X41949837Y-14161946D02*
X41862742Y-14263565D01*
X41862742Y-14263565D02*
X41819195Y-14365184D01*
X41819195Y-14365184D02*
X41775647Y-14568422D01*
X41775647Y-14568422D02*
X41775647Y-14720850D01*
X41775647Y-14720850D02*
X41819195Y-14924088D01*
X41819195Y-14924088D02*
X41862742Y-15025707D01*
X41862742Y-15025707D02*
X41949837Y-15127326D01*
X41949837Y-15127326D02*
X42080480Y-15178136D01*
X42080480Y-15178136D02*
X42167576Y-15178136D01*
X42167576Y-15178136D02*
X42298218Y-15127326D01*
X42298218Y-15127326D02*
X42341766Y-15076517D01*
X40809813Y-12790326D02*
X40722718Y-12841136D01*
X40722718Y-12841136D02*
X40592075Y-12841136D01*
X40592075Y-12841136D02*
X40461432Y-12790326D01*
X40461432Y-12790326D02*
X40374337Y-12688707D01*
X40374337Y-12688707D02*
X40330790Y-12587088D01*
X40330790Y-12587088D02*
X40287242Y-12383850D01*
X40287242Y-12383850D02*
X40287242Y-12231422D01*
X40287242Y-12231422D02*
X40330790Y-12028184D01*
X40330790Y-12028184D02*
X40374337Y-11926565D01*
X40374337Y-11926565D02*
X40461432Y-11824946D01*
X40461432Y-11824946D02*
X40592075Y-11774136D01*
X40592075Y-11774136D02*
X40679171Y-11774136D01*
X40679171Y-11774136D02*
X40809813Y-11824946D01*
X40809813Y-11824946D02*
X40853361Y-11875755D01*
X40853361Y-11875755D02*
X40853361Y-12231422D01*
X40853361Y-12231422D02*
X40679171Y-12231422D01*
X41245290Y-11774136D02*
X41245290Y-12841136D01*
X41245290Y-12841136D02*
X41767861Y-11774136D01*
X41767861Y-11774136D02*
X41767861Y-12841136D01*
X42203338Y-11774136D02*
X42203338Y-12841136D01*
X42203338Y-12841136D02*
X42421076Y-12841136D01*
X42421076Y-12841136D02*
X42551719Y-12790326D01*
X42551719Y-12790326D02*
X42638814Y-12688707D01*
X42638814Y-12688707D02*
X42682361Y-12587088D01*
X42682361Y-12587088D02*
X42725909Y-12383850D01*
X42725909Y-12383850D02*
X42725909Y-12231422D01*
X42725909Y-12231422D02*
X42682361Y-12028184D01*
X42682361Y-12028184D02*
X42638814Y-11926565D01*
X42638814Y-11926565D02*
X42551719Y-11824946D01*
X42551719Y-11824946D02*
X42421076Y-11774136D01*
X42421076Y-11774136D02*
X42203338Y-11774136D01*
X41150742Y-6643446D02*
X41281385Y-6592636D01*
X41281385Y-6592636D02*
X41499123Y-6592636D01*
X41499123Y-6592636D02*
X41586218Y-6643446D01*
X41586218Y-6643446D02*
X41629766Y-6694255D01*
X41629766Y-6694255D02*
X41673313Y-6795874D01*
X41673313Y-6795874D02*
X41673313Y-6897493D01*
X41673313Y-6897493D02*
X41629766Y-6999112D01*
X41629766Y-6999112D02*
X41586218Y-7049922D01*
X41586218Y-7049922D02*
X41499123Y-7100731D01*
X41499123Y-7100731D02*
X41324932Y-7151541D01*
X41324932Y-7151541D02*
X41237837Y-7202350D01*
X41237837Y-7202350D02*
X41194290Y-7253160D01*
X41194290Y-7253160D02*
X41150742Y-7354779D01*
X41150742Y-7354779D02*
X41150742Y-7456398D01*
X41150742Y-7456398D02*
X41194290Y-7558017D01*
X41194290Y-7558017D02*
X41237837Y-7608826D01*
X41237837Y-7608826D02*
X41324932Y-7659636D01*
X41324932Y-7659636D02*
X41542671Y-7659636D01*
X41542671Y-7659636D02*
X41673313Y-7608826D01*
X42021694Y-7558017D02*
X42065242Y-7608826D01*
X42065242Y-7608826D02*
X42152337Y-7659636D01*
X42152337Y-7659636D02*
X42370075Y-7659636D01*
X42370075Y-7659636D02*
X42457170Y-7608826D01*
X42457170Y-7608826D02*
X42500718Y-7558017D01*
X42500718Y-7558017D02*
X42544265Y-7456398D01*
X42544265Y-7456398D02*
X42544265Y-7354779D01*
X42544265Y-7354779D02*
X42500718Y-7202350D01*
X42500718Y-7202350D02*
X41978146Y-6592636D01*
X41978146Y-6592636D02*
X42544265Y-6592636D01*
X41404742Y-9284946D02*
X41535385Y-9234136D01*
X41535385Y-9234136D02*
X41753123Y-9234136D01*
X41753123Y-9234136D02*
X41840218Y-9284946D01*
X41840218Y-9284946D02*
X41883766Y-9335755D01*
X41883766Y-9335755D02*
X41927313Y-9437374D01*
X41927313Y-9437374D02*
X41927313Y-9538993D01*
X41927313Y-9538993D02*
X41883766Y-9640612D01*
X41883766Y-9640612D02*
X41840218Y-9691422D01*
X41840218Y-9691422D02*
X41753123Y-9742231D01*
X41753123Y-9742231D02*
X41578932Y-9793041D01*
X41578932Y-9793041D02*
X41491837Y-9843850D01*
X41491837Y-9843850D02*
X41448290Y-9894660D01*
X41448290Y-9894660D02*
X41404742Y-9996279D01*
X41404742Y-9996279D02*
X41404742Y-10097898D01*
X41404742Y-10097898D02*
X41448290Y-10199517D01*
X41448290Y-10199517D02*
X41491837Y-10250326D01*
X41491837Y-10250326D02*
X41578932Y-10301136D01*
X41578932Y-10301136D02*
X41796671Y-10301136D01*
X41796671Y-10301136D02*
X41927313Y-10250326D01*
X42798265Y-9234136D02*
X42275694Y-9234136D01*
X42536980Y-9234136D02*
X42536980Y-10301136D01*
X42536980Y-10301136D02*
X42449884Y-10148707D01*
X42449884Y-10148707D02*
X42362789Y-10047088D01*
X42362789Y-10047088D02*
X42275694Y-9996279D01*
G36*
X10319994Y-13732220D02*
G01*
X10451625Y-13764436D01*
X10566669Y-13815770D01*
X10667524Y-13885561D01*
X10755980Y-13974300D01*
X10830561Y-14079531D01*
X10889143Y-14198315D01*
X10932129Y-14332582D01*
X10959019Y-14484880D01*
X10968428Y-14658266D01*
X10958937Y-14833306D01*
X10931853Y-14986578D01*
X10888620Y-15121251D01*
X10829782Y-15239968D01*
X10754957Y-15344728D01*
X10666120Y-15433131D01*
X10565126Y-15502616D01*
X10450225Y-15553682D01*
X10319083Y-15585697D01*
X10168887Y-15596927D01*
X10018192Y-15585673D01*
X9886835Y-15553614D01*
X9771956Y-15502521D01*
X9671179Y-15433053D01*
X9582724Y-15344728D01*
X9508331Y-15240038D01*
X9449803Y-15121359D01*
X9406779Y-14986686D01*
X9379818Y-14833376D01*
X9370369Y-14658266D01*
X9785773Y-14658266D01*
X9794452Y-14809893D01*
X9818529Y-14934349D01*
X9857944Y-15044443D01*
X9903396Y-15121082D01*
X9963460Y-15184270D01*
X10026696Y-15224980D01*
X10095669Y-15248500D01*
X10169910Y-15256464D01*
X10243495Y-15248284D01*
X10314055Y-15223786D01*
X10378576Y-15181817D01*
X10436424Y-15118694D01*
X10482117Y-15040771D01*
X10520733Y-14935000D01*
X10544299Y-14814801D01*
X10553024Y-14659569D01*
X10545513Y-14513818D01*
X10524921Y-14396622D01*
X10488795Y-14291257D01*
X10438471Y-14202723D01*
X10381505Y-14139286D01*
X10316660Y-14095786D01*
X10245282Y-14070011D01*
X10169910Y-14061370D01*
X10094500Y-14069851D01*
X10023067Y-14095134D01*
X9958245Y-14137976D01*
X9901349Y-14200335D01*
X9855608Y-14279274D01*
X9817505Y-14384571D01*
X9794344Y-14504122D01*
X9785773Y-14658266D01*
X9370369Y-14658266D01*
X9379775Y-14484875D01*
X9406654Y-14332573D01*
X9449623Y-14198306D01*
X9508179Y-14079525D01*
X9582724Y-13974300D01*
X9671234Y-13885511D01*
X9772042Y-13815712D01*
X9886922Y-13764396D01*
X10018249Y-13732206D01*
X10168887Y-13720907D01*
X10319994Y-13732220D01*
G37*
G36*
X11628385Y-13822634D02*
G01*
X11701568Y-13782166D01*
X11770948Y-13752826D01*
X11844788Y-13734627D01*
X11940776Y-13727856D01*
X12046179Y-13740147D01*
X12143732Y-13776493D01*
X12232845Y-13836194D01*
X12313467Y-13920126D01*
X12377047Y-14019746D01*
X12429509Y-14148983D01*
X12453706Y-14242798D01*
X12468651Y-14345037D01*
X12473804Y-14456876D01*
X12465096Y-14622251D01*
X12440783Y-14760381D01*
X12402893Y-14875644D01*
X12352458Y-14971696D01*
X12285936Y-15053542D01*
X12208733Y-15111281D01*
X12118737Y-15146757D01*
X12012616Y-15159189D01*
X11935164Y-15153092D01*
X11866332Y-15135559D01*
X11804820Y-15107295D01*
X11716763Y-15049204D01*
X11628385Y-14975387D01*
X11628385Y-15117500D01*
X11253647Y-15117500D01*
X11253647Y-14073964D01*
X11628385Y-14073964D01*
X11628385Y-14753478D01*
X11680763Y-14784378D01*
X11735586Y-14807001D01*
X11791732Y-14821118D01*
X11844928Y-14825674D01*
X11925288Y-14814628D01*
X11984982Y-14784493D01*
X12029180Y-14736650D01*
X12059033Y-14673207D01*
X12079611Y-14580992D01*
X12087526Y-14450362D01*
X12078075Y-14318008D01*
X12052811Y-14219859D01*
X12014663Y-14147897D01*
X11975438Y-14105586D01*
X11926873Y-14074474D01*
X11866952Y-14054624D01*
X11792909Y-14047474D01*
X11708507Y-14052251D01*
X11628385Y-14073964D01*
X11253647Y-14073964D01*
X11253647Y-13255377D01*
X11628385Y-13255377D01*
X11628385Y-13822634D01*
G37*
G36*
X13519988Y-13720967D02*
G01*
X13635614Y-13740775D01*
X13748913Y-13774819D01*
X13875049Y-13827302D01*
X13875049Y-14179490D01*
X13833453Y-14179490D01*
X13761599Y-14125911D01*
X13657483Y-14070490D01*
X13544168Y-14032359D01*
X13427447Y-14019681D01*
X13304214Y-14030816D01*
X13211977Y-14060615D01*
X13143718Y-14105448D01*
X13090049Y-14169889D01*
X13055209Y-14250919D01*
X13039122Y-14353195D01*
X13896917Y-14353195D01*
X13896917Y-14506382D01*
X13886717Y-14664313D01*
X13858252Y-14794538D01*
X13813604Y-14902078D01*
X13753238Y-14990803D01*
X13677559Y-15060888D01*
X13583663Y-15113256D01*
X13467608Y-15146993D01*
X13324340Y-15159189D01*
X13199236Y-15150312D01*
X13090114Y-15125041D01*
X12994689Y-15084848D01*
X12911032Y-15030391D01*
X12837655Y-14961490D01*
X12774974Y-14878699D01*
X12726032Y-14785460D01*
X12690284Y-14680294D01*
X12677180Y-14610280D01*
X13038098Y-14610280D01*
X13051721Y-14703704D01*
X13078164Y-14772361D01*
X13116080Y-14822092D01*
X13165385Y-14858014D01*
X13223967Y-14880322D01*
X13294190Y-14888208D01*
X13369571Y-14879320D01*
X13425178Y-14855383D01*
X13465879Y-14818401D01*
X13495328Y-14767987D01*
X13515336Y-14700308D01*
X13524226Y-14610280D01*
X13038098Y-14610280D01*
X12677180Y-14610280D01*
X12667988Y-14561170D01*
X12660196Y-14425609D01*
X12668497Y-14288628D01*
X12692118Y-14170103D01*
X12729830Y-14067085D01*
X12781384Y-13977212D01*
X12847519Y-13898847D01*
X12923387Y-13836147D01*
X13012870Y-13785411D01*
X13118125Y-13747156D01*
X13241766Y-13722673D01*
X13386781Y-13713959D01*
X13519988Y-13720967D01*
G37*
G36*
X15335757Y-13755649D02*
G01*
X14958971Y-13755649D01*
X14958971Y-14432774D01*
X14951620Y-14597577D01*
X14940702Y-14673800D01*
X14926681Y-14718520D01*
X14901023Y-14757384D01*
X14865729Y-14784094D01*
X14821403Y-14798941D01*
X14753875Y-14804830D01*
X14702897Y-14800062D01*
X14650210Y-14785396D01*
X14597364Y-14761233D01*
X14536215Y-14723405D01*
X14536215Y-13755649D01*
X14161477Y-13755649D01*
X14161477Y-15117500D01*
X14536215Y-15117500D01*
X14536215Y-14970719D01*
X14637051Y-15053339D01*
X14728284Y-15110552D01*
X14824150Y-15146711D01*
X14932822Y-15159189D01*
X15026737Y-15150279D01*
X15105711Y-15125145D01*
X15172465Y-15085149D01*
X15229021Y-15030213D01*
X15273247Y-14962677D01*
X15306476Y-14878490D01*
X15327969Y-14774024D01*
X15335757Y-14644695D01*
X15335757Y-13755649D01*
G37*
G36*
X16098635Y-14415729D02*
G01*
X16282886Y-14415729D01*
X16705642Y-13755649D01*
X17193910Y-13755649D01*
X16676422Y-14527552D01*
X16770417Y-14590578D01*
X16845411Y-14660682D01*
X16903946Y-14737845D01*
X16946837Y-14826574D01*
X16973923Y-14934090D01*
X16983602Y-15064954D01*
X16977344Y-15160644D01*
X16959781Y-15240549D01*
X16932049Y-15307490D01*
X16871896Y-15394752D01*
X16793115Y-15464911D01*
X16703460Y-15515106D01*
X16607747Y-15543947D01*
X16504160Y-15557239D01*
X16371476Y-15562186D01*
X15701004Y-15562186D01*
X15701004Y-15235619D01*
X16098635Y-15235619D01*
X16243337Y-15235619D01*
X16369336Y-15231277D01*
X16421370Y-15222836D01*
X16464068Y-15207284D01*
X16515115Y-15172475D01*
X16546236Y-15129768D01*
X16563943Y-15077128D01*
X16570245Y-15011756D01*
X16564891Y-14938745D01*
X16550982Y-14888100D01*
X16526837Y-14844943D01*
X16490123Y-14803853D01*
X16442303Y-14772057D01*
X16381806Y-14753370D01*
X16313359Y-14745344D01*
X16221469Y-14742296D01*
X16098635Y-14742296D01*
X16098635Y-15235619D01*
X15701004Y-15235619D01*
X15701004Y-13755649D01*
X16098635Y-13755649D01*
X16098635Y-14415729D01*
G37*
G36*
X18566773Y-13755649D02*
G01*
X17264447Y-13755649D01*
X17264447Y-14089163D01*
X18036909Y-15214775D01*
X17301948Y-15214775D01*
X17301948Y-15562186D01*
X18525176Y-15562186D01*
X18525176Y-15221723D01*
X17753738Y-14103060D01*
X18566773Y-14103060D01*
X18566773Y-13755649D01*
G37*
G36*
X19531038Y-13726581D02*
G01*
X19617065Y-13742664D01*
X19692012Y-13768025D01*
X19796702Y-13826103D01*
X19887245Y-13904710D01*
X19935676Y-13964059D01*
X19976556Y-14032203D01*
X20010079Y-14110116D01*
X20042750Y-14235703D01*
X20053816Y-14371326D01*
X20047411Y-14488655D01*
X20029546Y-14586290D01*
X20001704Y-14667494D01*
X19962551Y-14742211D01*
X19916525Y-14804689D01*
X19863329Y-14856181D01*
X19793910Y-14902129D01*
X19719092Y-14933480D01*
X19639567Y-14951453D01*
X19550939Y-14957691D01*
X19450320Y-14948862D01*
X19358870Y-14923167D01*
X19271984Y-14883424D01*
X19189693Y-14833166D01*
X19207603Y-14932779D01*
X19236196Y-15017288D01*
X19274909Y-15089038D01*
X19323974Y-15149744D01*
X19381866Y-15197319D01*
X19451411Y-15232720D01*
X19534914Y-15255326D01*
X19635248Y-15263412D01*
X19718164Y-15258143D01*
X19787767Y-15243436D01*
X19883057Y-15207827D01*
X19922606Y-15207827D01*
X19922606Y-15566311D01*
X19804890Y-15584659D01*
X19638412Y-15596927D01*
X19489355Y-15587826D01*
X19361020Y-15562143D01*
X19250552Y-15521799D01*
X19146550Y-15463543D01*
X19058882Y-15393280D01*
X18985620Y-15310964D01*
X18921519Y-15211898D01*
X18870617Y-15103613D01*
X18832542Y-14984941D01*
X18807283Y-14860968D01*
X18791330Y-14721041D01*
X18785735Y-14563162D01*
X18788506Y-14494005D01*
X19185506Y-14494005D01*
X19186529Y-14563488D01*
X19187553Y-14603006D01*
X19279213Y-14632970D01*
X19374969Y-14645021D01*
X19480123Y-14632427D01*
X19528277Y-14614316D01*
X19568619Y-14586287D01*
X19602645Y-14547671D01*
X19629013Y-14496937D01*
X19644892Y-14436616D01*
X19650881Y-14353738D01*
X19645450Y-14263141D01*
X19631619Y-14201963D01*
X19608849Y-14149547D01*
X19580065Y-14105557D01*
X19547997Y-14074170D01*
X19509249Y-14051491D01*
X19468217Y-14037765D01*
X19433315Y-14033577D01*
X19388592Y-14038007D01*
X19347889Y-14050948D01*
X19311039Y-14073211D01*
X19279213Y-14105557D01*
X19242342Y-14163845D01*
X19211003Y-14251143D01*
X19192557Y-14353270D01*
X19185506Y-14494005D01*
X18788506Y-14494005D01*
X18791832Y-14410970D01*
X18808968Y-14280652D01*
X18835706Y-14169285D01*
X18875093Y-14063709D01*
X18923356Y-13974719D01*
X18980409Y-13900258D01*
X19038321Y-13845314D01*
X19103773Y-13800304D01*
X19177689Y-13765094D01*
X19296667Y-13732344D01*
X19432291Y-13720907D01*
X19531038Y-13726581D01*
G37*
G36*
X21539277Y-15201421D02*
G01*
X20837631Y-13755649D01*
X20391983Y-13755649D01*
X21120802Y-15214775D01*
X20324331Y-15214775D01*
X20324331Y-15562186D01*
X21539277Y-15562186D01*
X21539277Y-15201421D01*
G37*
G36*
X23816370Y-15214775D02*
G01*
X23332290Y-15214775D01*
X23332290Y-13755649D01*
X22932520Y-13755649D01*
X22932520Y-15214775D01*
X22448440Y-15214775D01*
X22448440Y-15562186D01*
X23816370Y-15562186D01*
X23816370Y-15214775D01*
G37*
G36*
X24883357Y-14693658D02*
G01*
X24850042Y-14693658D01*
X24772992Y-14709292D01*
X24684495Y-14714503D01*
X24606613Y-14711285D01*
X24542863Y-14702452D01*
X24480712Y-14686693D01*
X24410629Y-14661523D01*
X24410629Y-13755649D01*
X24035891Y-13755649D01*
X24035891Y-15117500D01*
X24410629Y-15117500D01*
X24410629Y-14917087D01*
X24496640Y-14995971D01*
X24567631Y-15048119D01*
X24626148Y-15079176D01*
X24716687Y-15108486D01*
X24794860Y-15117500D01*
X24839620Y-15116197D01*
X24883357Y-15112614D01*
X24883357Y-14693658D01*
G37*
G36*
X25470729Y-13755649D02*
G01*
X25095991Y-13755649D01*
X25095991Y-15117500D01*
X25470729Y-15117500D01*
X25470729Y-13755649D01*
G37*
G36*
X25481152Y-15312050D02*
G01*
X25085568Y-15312050D01*
X25085568Y-15645564D01*
X25481152Y-15645564D01*
X25481152Y-15312050D01*
G37*
G36*
X26455934Y-13250282D02*
G01*
X26579312Y-13274918D01*
X26656788Y-13302604D01*
X26724251Y-13338897D01*
X26782919Y-13383484D01*
X26833947Y-13437874D01*
X26877622Y-13505579D01*
X26914036Y-13588566D01*
X26939029Y-13677607D01*
X26955153Y-13784158D01*
X26960937Y-13911332D01*
X26960937Y-15117500D01*
X26597551Y-15117500D01*
X26584058Y-15060720D01*
X26517711Y-15101585D01*
X26442984Y-15133025D01*
X26362904Y-15152381D01*
X26270736Y-15159189D01*
X26167126Y-15147416D01*
X26065081Y-15111746D01*
X25971717Y-15054350D01*
X25895905Y-14979404D01*
X25830651Y-14880948D01*
X25781352Y-14765529D01*
X25759569Y-14682421D01*
X25745695Y-14585921D01*
X25740779Y-14473921D01*
X25741375Y-14463173D01*
X26126964Y-14463173D01*
X26136143Y-14578768D01*
X26161383Y-14669303D01*
X26200851Y-14740233D01*
X26255713Y-14793609D01*
X26327819Y-14827292D01*
X26422605Y-14839571D01*
X26506914Y-14830451D01*
X26586105Y-14805481D01*
X26586105Y-14185570D01*
X26539374Y-14154948D01*
X26487186Y-14130635D01*
X26432425Y-14115148D01*
X26376821Y-14110008D01*
X26296960Y-14119721D01*
X26236174Y-14146272D01*
X26189963Y-14187958D01*
X26157952Y-14245163D01*
X26135672Y-14332987D01*
X26126964Y-14463173D01*
X25741375Y-14463173D01*
X25750700Y-14295004D01*
X25777885Y-14152097D01*
X25819458Y-14038563D01*
X25874036Y-13949004D01*
X25945277Y-13875481D01*
X26030166Y-13822045D01*
X26131462Y-13788437D01*
X26252963Y-13776493D01*
X26350762Y-13786224D01*
X26436191Y-13814166D01*
X26514910Y-13858589D01*
X26586105Y-13916218D01*
X26586105Y-13890813D01*
X26582160Y-13809543D01*
X26571495Y-13745986D01*
X26552091Y-13690035D01*
X26524688Y-13646865D01*
X26484719Y-13611832D01*
X26425210Y-13583463D01*
X26355167Y-13567343D01*
X26256033Y-13561098D01*
X26175798Y-13567170D01*
X26079040Y-13587154D01*
X25984279Y-13615645D01*
X25911445Y-13644477D01*
X25865661Y-13644477D01*
X25865661Y-13300323D01*
X25956197Y-13278417D01*
X26070199Y-13258634D01*
X26188965Y-13245792D01*
X26310192Y-13241480D01*
X26455934Y-13250282D01*
G37*
G36*
X27947817Y-13250282D02*
G01*
X28071194Y-13274918D01*
X28148671Y-13302604D01*
X28216133Y-13338897D01*
X28274802Y-13383484D01*
X28325830Y-13437874D01*
X28369504Y-13505579D01*
X28405918Y-13588566D01*
X28430911Y-13677607D01*
X28447035Y-13784158D01*
X28452819Y-13911332D01*
X28452819Y-15117500D01*
X28089433Y-15117500D01*
X28075940Y-15060720D01*
X28009593Y-15101585D01*
X27934866Y-15133025D01*
X27854787Y-15152381D01*
X27762619Y-15159189D01*
X27659009Y-15147416D01*
X27556964Y-15111746D01*
X27463599Y-15054350D01*
X27387787Y-14979404D01*
X27322533Y-14880948D01*
X27273234Y-14765529D01*
X27251451Y-14682421D01*
X27237578Y-14585921D01*
X27232662Y-14473921D01*
X27233258Y-14463173D01*
X27618846Y-14463173D01*
X27628025Y-14578768D01*
X27653265Y-14669303D01*
X27692733Y-14740233D01*
X27747596Y-14793609D01*
X27819701Y-14827292D01*
X27914487Y-14839571D01*
X27998796Y-14830451D01*
X28077987Y-14805481D01*
X28077987Y-14185570D01*
X28031256Y-14154948D01*
X27979068Y-14130635D01*
X27924307Y-14115148D01*
X27868703Y-14110008D01*
X27788842Y-14119721D01*
X27728056Y-14146272D01*
X27681845Y-14187958D01*
X27649834Y-14245163D01*
X27627554Y-14332987D01*
X27618846Y-14463173D01*
X27233258Y-14463173D01*
X27242582Y-14295004D01*
X27269767Y-14152097D01*
X27311340Y-14038563D01*
X27365919Y-13949004D01*
X27437159Y-13875481D01*
X27522048Y-13822045D01*
X27623344Y-13788437D01*
X27744845Y-13776493D01*
X27842644Y-13786224D01*
X27928073Y-13814166D01*
X28006792Y-13858589D01*
X28077987Y-13916218D01*
X28077987Y-13890813D01*
X28074042Y-13809543D01*
X28063377Y-13745986D01*
X28043973Y-13690035D01*
X28016570Y-13646865D01*
X27976601Y-13611832D01*
X27917092Y-13583463D01*
X27847049Y-13567343D01*
X27747916Y-13561098D01*
X27667680Y-13567170D01*
X27570922Y-13587154D01*
X27476161Y-13615645D01*
X27403327Y-13644477D01*
X27357543Y-13644477D01*
X27357543Y-13300323D01*
X27448079Y-13278417D01*
X27562082Y-13258634D01*
X27680847Y-13245792D01*
X27802074Y-13241480D01*
X27947817Y-13250282D01*
G37*
G36*
X29582289Y-13720967D02*
G01*
X29697915Y-13740775D01*
X29811214Y-13774819D01*
X29937349Y-13827302D01*
X29937349Y-14179490D01*
X29895753Y-14179490D01*
X29823899Y-14125911D01*
X29719783Y-14070490D01*
X29606469Y-14032359D01*
X29489748Y-14019681D01*
X29366515Y-14030816D01*
X29274277Y-14060615D01*
X29206018Y-14105448D01*
X29152349Y-14169889D01*
X29117510Y-14250919D01*
X29101423Y-14353195D01*
X29959218Y-14353195D01*
X29959218Y-14506382D01*
X29949017Y-14664313D01*
X29920553Y-14794538D01*
X29875905Y-14902078D01*
X29815539Y-14990803D01*
X29739860Y-15060888D01*
X29645963Y-15113256D01*
X29529909Y-15146993D01*
X29386641Y-15159189D01*
X29261537Y-15150312D01*
X29152415Y-15125041D01*
X29056989Y-15084848D01*
X28973332Y-15030391D01*
X28899955Y-14961490D01*
X28837274Y-14878699D01*
X28788333Y-14785460D01*
X28752585Y-14680294D01*
X28739481Y-14610280D01*
X29100399Y-14610280D01*
X29114022Y-14703704D01*
X29140464Y-14772361D01*
X29178380Y-14822092D01*
X29227685Y-14858014D01*
X29286268Y-14880322D01*
X29356491Y-14888208D01*
X29431872Y-14879320D01*
X29487479Y-14855383D01*
X29528180Y-14818401D01*
X29557629Y-14767987D01*
X29577637Y-14700308D01*
X29586526Y-14610280D01*
X29100399Y-14610280D01*
X28739481Y-14610280D01*
X28730289Y-14561170D01*
X28722497Y-14425609D01*
X28730798Y-14288628D01*
X28754419Y-14170103D01*
X28792131Y-14067085D01*
X28843684Y-13977212D01*
X28909819Y-13898847D01*
X28985688Y-13836147D01*
X29075170Y-13785411D01*
X29180426Y-13747156D01*
X29304066Y-13722673D01*
X29449082Y-13713959D01*
X29582289Y-13720967D01*
G37*
G36*
X31071243Y-14693658D02*
G01*
X31037929Y-14693658D01*
X30960878Y-14709292D01*
X30872381Y-14714503D01*
X30794500Y-14711285D01*
X30730749Y-14702452D01*
X30668599Y-14686693D01*
X30598516Y-14661523D01*
X30598516Y-13755649D01*
X30223777Y-13755649D01*
X30223777Y-15117500D01*
X30598516Y-15117500D01*
X30598516Y-14917087D01*
X30684527Y-14995971D01*
X30755517Y-15048119D01*
X30814035Y-15079176D01*
X30904574Y-15108486D01*
X30982746Y-15117500D01*
X31027507Y-15116197D01*
X31071243Y-15112614D01*
X31071243Y-14693658D01*
G37*
G36*
X33189396Y-15117500D02*
G01*
X32738630Y-13755649D01*
X32313920Y-13755649D01*
X31866225Y-15117500D01*
X32262832Y-15117500D01*
X32533533Y-14181336D01*
X32801071Y-15117500D01*
X33189396Y-15117500D01*
G37*
G36*
X34630748Y-13755649D02*
G01*
X33413755Y-13755649D01*
X33413755Y-14055725D01*
X33693204Y-14304449D01*
X33825184Y-14432942D01*
X33917563Y-14531461D01*
X34031285Y-14671912D01*
X34096604Y-14777688D01*
X34126865Y-14849672D01*
X34144142Y-14918517D01*
X34149739Y-14985375D01*
X34141589Y-15063842D01*
X34118737Y-15125962D01*
X34081529Y-15175583D01*
X34032821Y-15211030D01*
X33968861Y-15234078D01*
X33885273Y-15242568D01*
X33789063Y-15231755D01*
X33683805Y-15197513D01*
X33581539Y-15146108D01*
X33487642Y-15082759D01*
X33454328Y-15082759D01*
X33454328Y-15484127D01*
X33537546Y-15518819D01*
X33672359Y-15559255D01*
X33817080Y-15587557D01*
X33961300Y-15596927D01*
X34109380Y-15586430D01*
X34229783Y-15557479D01*
X34327277Y-15512979D01*
X34405831Y-15454488D01*
X34472054Y-15377058D01*
X34519292Y-15286134D01*
X34548583Y-15179027D01*
X34558909Y-15051709D01*
X34550796Y-14940034D01*
X34526519Y-14832278D01*
X34485487Y-14726988D01*
X34431442Y-14628943D01*
X34357745Y-14523461D01*
X34261128Y-14409541D01*
X34165326Y-14311109D01*
X34070548Y-14222374D01*
X33934220Y-14103060D01*
X34630748Y-14103060D01*
X34630748Y-13755649D01*
G37*
G36*
X18351068Y-10768609D02*
G01*
X17134075Y-10768609D01*
X17134075Y-11068685D01*
X17413523Y-11317409D01*
X17545503Y-11445902D01*
X17637883Y-11544421D01*
X17751604Y-11684872D01*
X17816923Y-11790648D01*
X17847185Y-11862632D01*
X17864462Y-11931477D01*
X17870059Y-11998335D01*
X17861909Y-12076802D01*
X17839056Y-12138922D01*
X17801848Y-12188543D01*
X17753141Y-12223990D01*
X17689180Y-12247038D01*
X17605592Y-12255528D01*
X17509382Y-12244715D01*
X17404125Y-12210473D01*
X17301859Y-12159068D01*
X17207961Y-12095719D01*
X17174647Y-12095719D01*
X17174647Y-12497087D01*
X17257865Y-12531779D01*
X17392679Y-12572215D01*
X17537399Y-12600517D01*
X17681619Y-12609887D01*
X17829699Y-12599390D01*
X17950103Y-12570439D01*
X18047597Y-12525939D01*
X18126150Y-12467448D01*
X18192373Y-12390018D01*
X18239611Y-12299094D01*
X18268903Y-12191987D01*
X18279228Y-12064669D01*
X18271115Y-11952994D01*
X18246838Y-11845238D01*
X18205807Y-11739948D01*
X18151761Y-11641903D01*
X18078064Y-11536421D01*
X17981447Y-11422501D01*
X17885645Y-11324069D01*
X17790867Y-11235334D01*
X17654540Y-11116020D01*
X18351068Y-11116020D01*
X18351068Y-10768609D01*
G37*
G36*
X19332389Y-10741253D02*
G01*
X19430654Y-10761849D01*
X19512785Y-10793796D01*
X19589029Y-10840560D01*
X19654603Y-10899447D01*
X19710624Y-10971084D01*
X19754526Y-11051313D01*
X19791518Y-11148588D01*
X19820896Y-11265732D01*
X19846995Y-11451893D01*
X19856350Y-11673071D01*
X19847205Y-11893594D01*
X19822012Y-12074331D01*
X19793431Y-12187388D01*
X19756477Y-12284107D01*
X19711647Y-12366591D01*
X19655456Y-12440594D01*
X19589864Y-12501059D01*
X19513809Y-12548764D01*
X19431673Y-12581331D01*
X19333102Y-12602343D01*
X19215098Y-12609887D01*
X19102027Y-12602692D01*
X19004915Y-12582395D01*
X18921504Y-12550501D01*
X18844031Y-12503904D01*
X18777810Y-12444838D01*
X18721619Y-12372670D01*
X18676018Y-12289335D01*
X18638370Y-12192345D01*
X18609113Y-12079759D01*
X18583253Y-11898721D01*
X18573752Y-11671877D01*
X18573801Y-11670683D01*
X18976687Y-11670683D01*
X18984602Y-11892452D01*
X19004574Y-12041995D01*
X19031869Y-12137951D01*
X19064972Y-12199855D01*
X19105548Y-12241978D01*
X19154698Y-12267425D01*
X19215098Y-12276372D01*
X19275448Y-12267427D01*
X19324568Y-12241985D01*
X19365130Y-12199863D01*
X19398233Y-12137951D01*
X19425560Y-12042040D01*
X19445517Y-11893172D01*
X19453415Y-11673071D01*
X19445446Y-11455708D01*
X19425186Y-11306647D01*
X19397209Y-11208843D01*
X19363493Y-11145161D01*
X19322810Y-11102154D01*
X19274188Y-11076385D01*
X19215098Y-11067382D01*
X19155958Y-11076388D01*
X19107306Y-11102161D01*
X19066609Y-11145169D01*
X19032893Y-11208843D01*
X19004883Y-11306604D01*
X18984639Y-11454986D01*
X18976687Y-11670683D01*
X18573801Y-11670683D01*
X18582865Y-11451075D01*
X18608090Y-11268229D01*
X18636838Y-11153652D01*
X18674146Y-11056150D01*
X18719479Y-10973472D01*
X18775021Y-10901250D01*
X18840889Y-10841736D01*
X18918340Y-10794339D01*
X19001816Y-10761939D01*
X19099905Y-10741235D01*
X19215098Y-10733867D01*
X19332389Y-10741253D01*
G37*
G36*
X21382477Y-10768609D02*
G01*
X20165484Y-10768609D01*
X20165484Y-11068685D01*
X20444933Y-11317409D01*
X20576913Y-11445902D01*
X20669292Y-11544421D01*
X20783014Y-11684872D01*
X20848333Y-11790648D01*
X20878594Y-11862632D01*
X20895871Y-11931477D01*
X20901468Y-11998335D01*
X20893318Y-12076802D01*
X20870465Y-12138922D01*
X20833257Y-12188543D01*
X20784550Y-12223990D01*
X20720589Y-12247038D01*
X20637001Y-12255528D01*
X20540792Y-12244715D01*
X20435534Y-12210473D01*
X20333268Y-12159068D01*
X20239371Y-12095719D01*
X20206057Y-12095719D01*
X20206057Y-12497087D01*
X20289275Y-12531779D01*
X20424088Y-12572215D01*
X20568809Y-12600517D01*
X20713028Y-12609887D01*
X20861108Y-12599390D01*
X20981512Y-12570439D01*
X21079006Y-12525939D01*
X21157559Y-12467448D01*
X21223783Y-12390018D01*
X21271021Y-12299094D01*
X21300312Y-12191987D01*
X21310637Y-12064669D01*
X21302525Y-11952994D01*
X21278247Y-11845238D01*
X21237216Y-11739948D01*
X21183170Y-11641903D01*
X21109474Y-11536421D01*
X21012857Y-11422501D01*
X20917055Y-11324069D01*
X20822277Y-11235334D01*
X20685949Y-11116020D01*
X21382477Y-11116020D01*
X21382477Y-10768609D01*
G37*
G36*
X22373356Y-10739541D02*
G01*
X22459384Y-10755624D01*
X22534331Y-10780985D01*
X22639020Y-10839063D01*
X22729563Y-10917670D01*
X22777994Y-10977019D01*
X22818875Y-11045163D01*
X22852398Y-11123076D01*
X22885069Y-11248663D01*
X22896135Y-11384286D01*
X22889729Y-11501615D01*
X22871865Y-11599250D01*
X22844023Y-11680454D01*
X22804869Y-11755171D01*
X22758843Y-11817649D01*
X22705648Y-11869141D01*
X22636228Y-11915089D01*
X22561410Y-11946440D01*
X22481886Y-11964413D01*
X22393257Y-11970651D01*
X22292639Y-11961822D01*
X22201188Y-11936127D01*
X22114302Y-11896384D01*
X22032012Y-11846126D01*
X22049921Y-11945739D01*
X22078514Y-12030248D01*
X22117228Y-12101998D01*
X22166292Y-12162704D01*
X22224184Y-12210279D01*
X22293729Y-12245680D01*
X22377232Y-12268286D01*
X22477566Y-12276372D01*
X22560482Y-12271103D01*
X22630086Y-12256396D01*
X22725376Y-12220787D01*
X22764925Y-12220787D01*
X22764925Y-12579271D01*
X22647208Y-12597619D01*
X22480730Y-12609887D01*
X22331673Y-12600786D01*
X22203338Y-12575103D01*
X22092871Y-12534759D01*
X21988868Y-12476503D01*
X21901201Y-12406240D01*
X21827939Y-12323924D01*
X21763837Y-12224858D01*
X21712936Y-12116573D01*
X21674861Y-11997901D01*
X21649602Y-11873928D01*
X21633648Y-11734001D01*
X21628053Y-11576122D01*
X21630824Y-11506965D01*
X22027824Y-11506965D01*
X22028848Y-11576448D01*
X22029871Y-11615966D01*
X22121532Y-11645930D01*
X22217287Y-11657981D01*
X22322441Y-11645387D01*
X22370596Y-11627276D01*
X22410938Y-11599247D01*
X22444963Y-11560631D01*
X22471331Y-11509897D01*
X22487210Y-11449576D01*
X22493200Y-11366698D01*
X22487768Y-11276101D01*
X22473937Y-11214923D01*
X22451167Y-11162507D01*
X22422384Y-11118517D01*
X22390316Y-11087130D01*
X22351568Y-11064451D01*
X22310536Y-11050725D01*
X22275634Y-11046537D01*
X22230911Y-11050967D01*
X22190208Y-11063908D01*
X22153358Y-11086171D01*
X22121532Y-11118517D01*
X22084661Y-11176805D01*
X22053322Y-11264103D01*
X22034875Y-11366230D01*
X22027824Y-11506965D01*
X21630824Y-11506965D01*
X21634151Y-11423930D01*
X21651286Y-11293612D01*
X21678025Y-11182245D01*
X21717411Y-11076669D01*
X21765675Y-10987679D01*
X21822728Y-10913218D01*
X21880640Y-10858274D01*
X21946092Y-10813264D01*
X22020007Y-10778054D01*
X22138986Y-10745304D01*
X22274610Y-10733867D01*
X22373356Y-10739541D01*
G37*
G36*
X23913149Y-11400897D02*
G01*
X23118819Y-11400897D01*
X23118819Y-11748308D01*
X23913149Y-11748308D01*
X23913149Y-11400897D01*
G37*
G36*
X24902380Y-10741253D02*
G01*
X25000646Y-10761849D01*
X25082777Y-10793796D01*
X25159020Y-10840560D01*
X25224595Y-10899447D01*
X25280615Y-10971084D01*
X25324518Y-11051313D01*
X25361509Y-11148588D01*
X25390887Y-11265732D01*
X25416986Y-11451893D01*
X25426341Y-11673071D01*
X25417197Y-11893594D01*
X25392004Y-12074331D01*
X25363423Y-12187388D01*
X25326469Y-12284107D01*
X25281639Y-12366591D01*
X25225447Y-12440594D01*
X25159855Y-12501059D01*
X25083800Y-12548764D01*
X25001664Y-12581331D01*
X24903093Y-12602343D01*
X24785089Y-12609887D01*
X24672018Y-12602692D01*
X24574906Y-12582395D01*
X24491496Y-12550501D01*
X24414023Y-12503904D01*
X24347801Y-12444838D01*
X24291610Y-12372670D01*
X24246009Y-12289335D01*
X24208362Y-12192345D01*
X24179105Y-12079759D01*
X24153244Y-11898721D01*
X24143743Y-11671877D01*
X24143792Y-11670683D01*
X24546678Y-11670683D01*
X24554593Y-11892452D01*
X24574565Y-12041995D01*
X24601861Y-12137951D01*
X24634964Y-12199855D01*
X24675539Y-12241978D01*
X24724689Y-12267425D01*
X24785089Y-12276372D01*
X24845439Y-12267427D01*
X24894559Y-12241985D01*
X24935122Y-12199863D01*
X24968224Y-12137951D01*
X24995551Y-12042040D01*
X25015508Y-11893172D01*
X25023407Y-11673071D01*
X25015438Y-11455708D01*
X24995177Y-11306647D01*
X24967201Y-11208843D01*
X24933484Y-11145161D01*
X24892801Y-11102154D01*
X24844179Y-11076385D01*
X24785089Y-11067382D01*
X24725949Y-11076388D01*
X24677298Y-11102161D01*
X24636601Y-11145169D01*
X24602884Y-11208843D01*
X24574874Y-11306604D01*
X24554630Y-11454986D01*
X24546678Y-11670683D01*
X24143792Y-11670683D01*
X24152857Y-11451075D01*
X24178081Y-11268229D01*
X24206829Y-11153652D01*
X24244137Y-11056150D01*
X24289470Y-10973472D01*
X24345013Y-10901250D01*
X24410880Y-10841736D01*
X24488332Y-10794339D01*
X24571807Y-10761939D01*
X24669897Y-10741235D01*
X24785089Y-10733867D01*
X24902380Y-10741253D01*
G37*
G36*
X26206498Y-10742508D02*
G01*
X26332744Y-10767072D01*
X26443356Y-10805955D01*
X26547497Y-10862726D01*
X26638303Y-10934687D01*
X26717222Y-11022327D01*
X26778318Y-11116046D01*
X26829040Y-11224833D01*
X26869183Y-11350739D01*
X26896570Y-11482007D01*
X26913396Y-11622255D01*
X26919154Y-11772518D01*
X26913234Y-11926537D01*
X26896729Y-12056263D01*
X26871230Y-12165092D01*
X26833230Y-12268252D01*
X26785712Y-12356116D01*
X26728667Y-12430536D01*
X26671476Y-12485616D01*
X26607357Y-12530562D01*
X26535482Y-12565592D01*
X26418725Y-12598234D01*
X26278925Y-12609887D01*
X26139461Y-12597481D01*
X26019278Y-12562178D01*
X25915112Y-12505656D01*
X25824437Y-12427930D01*
X25761964Y-12350730D01*
X25714033Y-12266311D01*
X25679615Y-12173644D01*
X25658471Y-12071209D01*
X25652368Y-11975862D01*
X26054008Y-11975862D01*
X26059425Y-12058738D01*
X26074294Y-12124597D01*
X26098301Y-12182285D01*
X26126871Y-12225238D01*
X26162770Y-12259710D01*
X26198152Y-12281041D01*
X26235953Y-12293148D01*
X26275761Y-12297217D01*
X26318643Y-12292971D01*
X26359047Y-12280389D01*
X26396007Y-12258449D01*
X26428839Y-12225238D01*
X26465531Y-12166095D01*
X26495933Y-12079651D01*
X26513628Y-11978779D01*
X26520407Y-11839286D01*
X26518825Y-11765461D01*
X26517243Y-11727789D01*
X26431910Y-11699561D01*
X26329920Y-11685774D01*
X26272836Y-11689174D01*
X26222068Y-11698910D01*
X26175370Y-11717221D01*
X26136270Y-11744508D01*
X26102305Y-11783298D01*
X26075876Y-11834943D01*
X26059901Y-11895986D01*
X26054008Y-11975862D01*
X25652368Y-11975862D01*
X25651166Y-11957080D01*
X25657534Y-11839697D01*
X25675235Y-11742696D01*
X25702719Y-11662649D01*
X25741468Y-11589063D01*
X25787325Y-11526746D01*
X25840629Y-11474613D01*
X25909387Y-11429655D01*
X25985797Y-11397857D01*
X26066808Y-11379381D01*
X26152927Y-11373104D01*
X26263295Y-11381844D01*
X26346019Y-11405131D01*
X26424229Y-11442826D01*
X26514172Y-11497629D01*
X26493420Y-11388455D01*
X26461037Y-11301233D01*
X26415772Y-11226150D01*
X26360071Y-11165308D01*
X26299440Y-11121892D01*
X26225790Y-11090941D01*
X26146995Y-11073282D01*
X26066477Y-11067382D01*
X25971848Y-11072881D01*
X25908746Y-11086707D01*
X25819784Y-11122968D01*
X25778095Y-11122968D01*
X25778095Y-10764483D01*
X25895719Y-10744941D01*
X26062290Y-10733867D01*
X26206498Y-10742508D01*
G37*
%LPC*%
D11*
%TO.C,BAT1*%
X3275000Y-3810500D03*
X3275000Y-5810500D03*
%TD*%
%TO.C,S3*%
X27713500Y-2040000D03*
X29713500Y-2040000D03*
%TD*%
D12*
%TO.C,H2*%
X46000000Y-2000000D03*
%TD*%
D13*
%TO.C,U4*%
X44300500Y-14750000D03*
D11*
X44300500Y-12250000D03*
X44300500Y-9750000D03*
X44300500Y-7250000D03*
%TD*%
D14*
%TO.C,USB1*%
X4912000Y-10369000D03*
X4912000Y-16149000D03*
D15*
X5432000Y-8934000D03*
D16*
X1232000Y-8934000D03*
D15*
X5432000Y-17584000D03*
D16*
X1232000Y-17584000D03*
%TD*%
D17*
%TO.C,J1*%
X34420000Y-20600000D03*
D18*
X36960000Y-20600000D03*
X39500000Y-20600000D03*
X42040000Y-20600000D03*
%TD*%
D12*
%TO.C,H1*%
X2000000Y-20000000D03*
%TD*%
%LPD*%
M02*
