%TF.GenerationSoftware,KiCad,Pcbnew,10.0.6*%
%TF.CreationDate,2026-09-07T19:40:46+02:00*%
%TF.ProjectId,openrz67,6f70656e-727a-4363-972e-6b696361645f,2*%
%TF.SameCoordinates,Original*%
%TF.FileFunction,Copper,L2,Bot*%
%TF.FilePolarity,Positive*%
%FSLAX46Y46*%
G04 Gerber Fmt 4.6, Leading zero omitted, Abs format (unit mm)*
G04 Created by KiCad (PCBNEW 10.0.6) date 2026-09-07 19:40:46*
%MOMM*%
%LPD*%
G01*
G04 APERTURE LIST*
%TA.AperFunction,ComponentPad*%
%ADD10C,1.600000*%
%TD*%
%TA.AperFunction,ComponentPad*%
%ADD11C,3.000000*%
%TD*%
%TA.AperFunction,ComponentPad*%
%ADD12R,1.600000X1.600000*%
%TD*%
%TA.AperFunction,ComponentPad*%
%ADD13O,2.000000X1.100000*%
%TD*%
%TA.AperFunction,ComponentPad*%
%ADD14O,1.800000X1.200000*%
%TD*%
%TA.AperFunction,ComponentPad*%
%ADD15R,1.700000X1.700000*%
%TD*%
%TA.AperFunction,ComponentPad*%
%ADD16C,1.700000*%
%TD*%
%TA.AperFunction,ViaPad*%
%ADD17C,0.450000*%
%TD*%
%TA.AperFunction,ViaPad*%
%ADD18C,0.500000*%
%TD*%
%TA.AperFunction,Conductor*%
%ADD19C,0.508000*%
%TD*%
%TA.AperFunction,Conductor*%
%ADD20C,0.635000*%
%TD*%
%TA.AperFunction,Conductor*%
%ADD21C,0.300000*%
%TD*%
%TA.AperFunction,Conductor*%
%ADD22C,0.254000*%
%TD*%
%TA.AperFunction,Conductor*%
%ADD23C,0.200000*%
%TD*%
%TA.AperFunction,Conductor*%
%ADD24C,0.400000*%
%TD*%
%TA.AperFunction,Conductor*%
%ADD25C,0.203000*%
%TD*%
%TA.AperFunction,Conductor*%
%ADD26C,0.160000*%
%TD*%
G04 APERTURE END LIST*
D10*
%TO.P,BAT1,1*%
%TO.N,BAT+*%
X3275000Y-3810500D03*
%TO.P,BAT1,2*%
%TO.N,GND*%
X3275000Y-5810500D03*
%TD*%
%TO.P,S3,1*%
%TO.N,VSYS*%
X27713500Y-2040000D03*
%TO.P,S3,2*%
%TO.N,SW_SYS*%
X29713500Y-2040000D03*
%TD*%
D11*
%TO.P,H2,1*%
%TO.N,N/C*%
X46000000Y-2000000D03*
%TD*%
D12*
%TO.P,U4,1*%
%TO.N,unconnected-(U4-Pad1)*%
X44300500Y-14750000D03*
D10*
%TO.P,U4,2*%
%TO.N,AGND*%
X44300500Y-12250000D03*
%TO.P,U4,3*%
%TO.N,S1*%
X44300500Y-9750000D03*
%TO.P,U4,4*%
%TO.N,S2*%
X44300500Y-7250000D03*
%TD*%
D13*
%TO.P,USB1,13*%
%TO.N,GND*%
X5432000Y-8934000D03*
D14*
X1232000Y-8934000D03*
D13*
%TO.P,USB1,14*%
X5432000Y-17584000D03*
D14*
X1232000Y-17584000D03*
%TD*%
D15*
%TO.P,J1,1*%
%TO.N,VCC*%
X34420000Y-20600000D03*
D16*
%TO.P,J1,2*%
%TO.N,GND*%
X36960000Y-20600000D03*
%TO.P,J1,3*%
%TO.N,GPIO21*%
X39500000Y-20600000D03*
%TO.P,J1,4*%
%TO.N,GPIO6*%
X42040000Y-20600000D03*
%TD*%
D11*
%TO.P,H1,1*%
%TO.N,N/C*%
X2000000Y-20000000D03*
%TD*%
D17*
%TO.N,GND*%
X8232000Y-17221000D03*
X43891000Y-813000D03*
X21257000Y-14419500D03*
X15799000Y-11989000D03*
X28295500Y-21133000D03*
X24841000Y-17627500D03*
X18186500Y-18490500D03*
X22606000Y-15697000D03*
X6353500Y-18796000D03*
X15799000Y-20421500D03*
X12243000Y-21082000D03*
X10719000Y-14529000D03*
X47295000Y-18389500D03*
X1371500Y-11735000D03*
X6705500Y-18034000D03*
X24559500Y-21155500D03*
X10617000Y-15443000D03*
X18552500Y-17319500D03*
X20472500Y-15341500D03*
X1168500Y-14325500D03*
X41097000Y-3911500D03*
X1371500Y-15951000D03*
X30317500Y-21110000D03*
X10028500Y-18134500D03*
X525000Y-7213500D03*
X6807000Y-21336000D03*
X4470500Y-18796000D03*
X15799000Y-13614500D03*
X17222500Y-18999000D03*
X26060500Y-18034000D03*
X47142500Y-20574000D03*
X576500Y-2595500D03*
X26416000Y-7620000D03*
X10007500Y-21133000D03*
X11785500Y-18796000D03*
X6299000Y-20218500D03*
X15799000Y-19050000D03*
X21257000Y-13003500D03*
X12880500Y-18796000D03*
X2997000Y-17119500D03*
X34696500Y-2946500D03*
X19892500Y-14419500D03*
X22657000Y-13106500D03*
X16713000Y-20472500D03*
X3759000Y-525000D03*
X44247000Y-3454500D03*
X19529500Y-19101000D03*
X45872500Y-21234500D03*
X4826000Y-21031000D03*
X10617000Y-12293500D03*
X13817500Y-18796000D03*
X19863000Y-13005000D03*
X14071500Y-13563500D03*
X7112000Y-17221000D03*
X13919000Y-21133000D03*
X5489500Y-18796000D03*
X32842000Y-17618000D03*
X22676000Y-14419500D03*
X12801500Y-12039500D03*
X3759000Y-21234500D03*
X1321000Y-10566500D03*
X6096000Y-19507000D03*
X1219000Y-12700000D03*
X9123500Y-17221000D03*
X1625500Y-762000D03*
X4724500Y-19964500D03*
X18339000Y-20269000D03*
X13411000Y-11074500D03*
X37135000Y-3810000D03*
X21257000Y-15691000D03*
X525500Y-4140000D03*
X43688000Y-2032000D03*
X38455500Y-3099000D03*
X35306000Y-1016000D03*
%TO.N,VCC*%
X17577000Y-17831000D03*
X24079000Y-11942000D03*
X15050000Y-15950000D03*
X24282500Y-3708500D03*
X25501500Y-11989000D03*
X27229000Y-15494000D03*
X20320000Y-19151500D03*
X31191000Y-17069000D03*
D18*
X17500000Y-6700000D03*
%TO.N,SW_SYS*%
X18000000Y-11400000D03*
X13600000Y-10100000D03*
%TO.N,VSYS*%
X15000000Y-4700000D03*
X26100000Y-5300000D03*
X24500000Y-5300000D03*
X22600000Y-4300000D03*
D17*
%TO.N,Net-(D4-K)*%
X20879000Y-8331000D03*
X25298500Y-6137000D03*
%TO.N,Net-(U1-CHIP_EN)*%
X25527000Y-9398000D03*
X22924500Y-17940000D03*
%TO.N,D7*%
X20015000Y-8433000D03*
X16561000Y-13532000D03*
D18*
%TO.N,BAT+*%
X6800000Y-5888000D03*
X15700000Y-5888000D03*
D17*
%TO.N,S1_DRV*%
X24650000Y-16169500D03*
X28450000Y-10800000D03*
X30640000Y-13833000D03*
X29500000Y-10800000D03*
%TO.N,AGND*%
X36982500Y-8229500D03*
X35153500Y-12293500D03*
X35103000Y-5232500D03*
X35865000Y-6553000D03*
X37897000Y-9753500D03*
X38151000Y-16713000D03*
X38303000Y-7264500D03*
X46888500Y-7315000D03*
X38151000Y-14681000D03*
X46888500Y-13563500D03*
X45771000Y-11633000D03*
X42875000Y-16408500D03*
X45974000Y-8585000D03*
X44808000Y-16464000D03*
X46888500Y-16459000D03*
X35103000Y-7721500D03*
X44808000Y-5439500D03*
X47041000Y-10414000D03*
X36786500Y-14715500D03*
X41859000Y-14529000D03*
X34950500Y-14630500D03*
X38100000Y-12192000D03*
X37236500Y-5283000D03*
X43180000Y-5435500D03*
X42265500Y-6959500D03*
X35560000Y-9703000D03*
X46228000Y-14681000D03*
X35712500Y-16662500D03*
X46888500Y-5588000D03*
%TO.N,S2_DRV*%
X23860000Y-17455500D03*
X29007000Y-9449000D03*
%TO.N,GPIO6*%
X24650000Y-13500000D03*
X28450000Y-9900000D03*
%TO.N,GPIO21*%
X18800000Y-18000000D03*
X17650000Y-16550000D03*
X25150000Y-19000000D03*
X17900000Y-14250000D03*
D18*
%TO.N,VBUS*%
X10500000Y-2986000D03*
X15650000Y-2986000D03*
%TD*%
%TO.N,VCC*%
D19*
X31191000Y-17069000D02*
X31191000Y-18542000D01*
D20*
X23727500Y-12293500D02*
X24079000Y-11942000D01*
D21*
X12699999Y-10000000D02*
X12699999Y-11200000D01*
X15100000Y-15900000D02*
X15050000Y-15950000D01*
D22*
X32058000Y-816000D02*
X32918500Y-1676500D01*
D19*
X27229000Y-15494000D02*
X28254500Y-16520000D01*
D21*
X13400000Y-12000000D02*
X13400000Y-12100000D01*
X13000000Y-9400000D02*
X12699999Y-10000000D01*
D22*
X32918500Y-1676500D02*
X32918500Y-2692500D01*
D23*
X15050000Y-15402500D02*
X16764000Y-15402500D01*
D21*
X13100000Y-11600000D02*
X13400000Y-12000000D01*
D20*
X16764000Y-17018000D02*
X16764000Y-14376500D01*
D22*
X32918500Y-2692500D02*
X32715000Y-2895500D01*
D20*
X25454500Y-11942000D02*
X25501500Y-11989000D01*
D19*
X31191000Y-16520000D02*
X31191000Y-17069000D01*
D20*
X17577000Y-17831000D02*
X16764000Y-17018000D01*
D19*
X31191000Y-18542000D02*
X32766000Y-20117000D01*
D20*
X16764000Y-14376500D02*
X18847000Y-12293500D01*
D22*
X24282500Y-2286000D02*
X25752500Y-816000D01*
D20*
X32715000Y-2895500D02*
X32253500Y-3357000D01*
D19*
X32766000Y-20117000D02*
X34420000Y-20600000D01*
D21*
X15100000Y-15800000D02*
X15100000Y-15900000D01*
X17500000Y-6700000D02*
X16000000Y-8200000D01*
X14600000Y-13300000D02*
X14600000Y-15000000D01*
D20*
X31343500Y-4267000D02*
X31343500Y-16367500D01*
D21*
X13800000Y-9400000D02*
X13000000Y-9400000D01*
X13400000Y-12100000D02*
X14600000Y-13300000D01*
D19*
X28254500Y-16520000D02*
X31191000Y-16520000D01*
D20*
X18847000Y-12293500D02*
X23727500Y-12293500D01*
D22*
X25752500Y-816000D02*
X32058000Y-816000D01*
D20*
X21285000Y-20117000D02*
X20320000Y-19151500D01*
D23*
X15050000Y-15950000D02*
X15050000Y-15402500D01*
D21*
X16000000Y-8200000D02*
X15000000Y-8200000D01*
X14600000Y-15000000D02*
X15100000Y-15800000D01*
D20*
X24079000Y-11942000D02*
X25454500Y-11942000D01*
X31343500Y-16367500D02*
X31191000Y-16520000D01*
X32253500Y-3357000D02*
X31343500Y-4267000D01*
D21*
X12699999Y-11200000D02*
X13100000Y-11600000D01*
D20*
X32766000Y-20117000D02*
X21285000Y-20117000D01*
D21*
X15000000Y-8200000D02*
X13800000Y-9400000D01*
D22*
X24282500Y-3708500D02*
X24282500Y-2286000D01*
%TO.N,SW_SYS*%
D21*
X29500000Y-2500000D02*
X29600000Y-2300000D01*
X19500000Y-8300000D02*
X19500000Y-8200000D01*
X29600000Y-2300000D02*
X29600000Y-2100000D01*
X14400000Y-10300000D02*
X15100000Y-10300000D01*
X15100000Y-10300000D02*
X15200000Y-10400000D01*
X19100000Y-10300000D02*
X19100000Y-8700000D01*
X17700000Y-11300000D02*
X17900000Y-11300000D01*
X26400000Y-3200000D02*
X28800000Y-3200000D01*
X19100000Y-8700000D02*
X19500000Y-8300000D01*
X16600000Y-10400000D02*
X17300000Y-11100000D01*
X18000000Y-11400000D02*
X19100000Y-10300000D01*
X17500000Y-11200000D02*
X17600000Y-11200000D01*
X21200000Y-6500000D02*
X21400000Y-6500000D01*
X17900000Y-11300000D02*
X18000000Y-11400000D01*
X13600000Y-10100000D02*
X14199999Y-10100000D01*
X25600000Y-3900000D02*
X25800000Y-3800000D01*
X23300000Y-4900000D02*
X23600000Y-4800000D01*
X23900000Y-4600000D02*
X24100000Y-4500000D01*
X25200000Y-4000000D02*
X25600000Y-3900000D01*
X21400000Y-6500000D02*
X22800000Y-5100000D01*
X25800000Y-3800000D02*
X26400000Y-3200000D01*
X29600000Y-2100000D02*
X29714000Y-2040000D01*
X24500000Y-4400000D02*
X24800000Y-4200000D01*
X15200000Y-10400000D02*
X16600000Y-10400000D01*
X24100000Y-4500000D02*
X24500000Y-4400000D01*
X19500000Y-8200000D02*
X21200000Y-6500000D01*
X23600000Y-4800000D02*
X23900000Y-4600000D01*
X14199999Y-10100000D02*
X14400000Y-10300000D01*
X17400000Y-11100000D02*
X17500000Y-11200000D01*
X23200000Y-5000000D02*
X23300000Y-4900000D01*
X17300000Y-11100000D02*
X17400000Y-11100000D01*
X24800000Y-4200000D02*
X25200000Y-4000000D01*
X22800000Y-5100000D02*
X23200000Y-5000000D01*
X28800000Y-3200000D02*
X29500000Y-2500000D01*
X17600000Y-11200000D02*
X17700000Y-11300000D01*
%TO.N,VSYS*%
X24500000Y-5300000D02*
X26100000Y-5300000D01*
D24*
X15000000Y-4700000D02*
X22600000Y-4300000D01*
%TO.N,Net-(D4-K)*%
D25*
X20879000Y-8331000D02*
X23063000Y-8331000D01*
X23063000Y-8331000D02*
X25257500Y-6137000D01*
X25257500Y-6137000D02*
X25298500Y-6137000D01*
%TO.N,Net-(U1-CHIP_EN)*%
X22924500Y-16699500D02*
X22924500Y-17940000D01*
X26771500Y-10642500D02*
X26771500Y-12852500D01*
X25527000Y-9398000D02*
X26771500Y-10642500D01*
X26771500Y-12852500D02*
X22924500Y-16699500D01*
%TO.N,D7*%
X16561000Y-13532000D02*
X20015000Y-10077500D01*
X20015000Y-10077500D02*
X20015000Y-8433000D01*
%TO.N,BAT+*%
D24*
X6800000Y-5888000D02*
X15700000Y-5888000D01*
%TO.N,S1_DRV*%
D25*
X24650000Y-16169500D02*
X24500000Y-16169500D01*
X29500000Y-12693000D02*
X30640000Y-13833000D01*
X27600000Y-13069500D02*
X27600000Y-11650000D01*
X27600000Y-11650000D02*
X28450000Y-10800000D01*
X24500000Y-16169500D02*
X27600000Y-13069500D01*
X29500000Y-10800000D02*
X29500000Y-12693000D01*
%TO.N,S2_DRV*%
X29007000Y-9449000D02*
X29007000Y-12308500D01*
X29007000Y-12308500D02*
X29007000Y-12750000D01*
X24100000Y-17657000D02*
X23860000Y-17455500D01*
X29007000Y-12750000D02*
X24100000Y-17657000D01*
%TO.N,GPIO6*%
D26*
X25050000Y-9200000D02*
X25150000Y-9050000D01*
X25650000Y-8900000D02*
X28450000Y-9900000D01*
X24650000Y-13500000D02*
X26050000Y-12300000D01*
X25150000Y-9050000D02*
X25300000Y-8950000D01*
X25400000Y-8900000D02*
X25650000Y-8900000D01*
X26050000Y-11100000D02*
X25050000Y-9600000D01*
X25050000Y-9600000D02*
X25050000Y-9200000D01*
X26050000Y-12300000D02*
X26050000Y-11100000D01*
X25300000Y-8950000D02*
X25400000Y-8900000D01*
%TO.N,GPIO21*%
X18800000Y-18000000D02*
X25150000Y-19000000D01*
X17900000Y-14250000D02*
X17650000Y-16550000D01*
%TO.N,VBUS*%
D24*
X10500000Y-2986000D02*
X15650000Y-2986000D01*
%TD*%
%TA.AperFunction,Conductor*%
%TO.N,AGND*%
G36*
X47681194Y-4503806D02*
G01*
X47699500Y-4548000D01*
X47699500Y-17600500D01*
X47681194Y-17644694D01*
X47637000Y-17663000D01*
X34662500Y-17663000D01*
X34618306Y-17644694D01*
X34600000Y-17600500D01*
X34600000Y-13937442D01*
X43373000Y-13937442D01*
X43373000Y-15562557D01*
X43380398Y-15599748D01*
X43380398Y-15599749D01*
X43408577Y-15641922D01*
X43436757Y-15660750D01*
X43450752Y-15670102D01*
X43487942Y-15677500D01*
X43487943Y-15677500D01*
X45113057Y-15677500D01*
X45113058Y-15677500D01*
X45150248Y-15670102D01*
X45192422Y-15641922D01*
X45220602Y-15599748D01*
X45228000Y-15562558D01*
X45228000Y-13937442D01*
X45220602Y-13900252D01*
X45220601Y-13900250D01*
X45192422Y-13858077D01*
X45150248Y-13829898D01*
X45113058Y-13822500D01*
X43487942Y-13822500D01*
X43469347Y-13826199D01*
X43450751Y-13829898D01*
X43450750Y-13829898D01*
X43408577Y-13858077D01*
X43380398Y-13900250D01*
X43380398Y-13900251D01*
X43373000Y-13937442D01*
X34600000Y-13937442D01*
X34600000Y-12122999D01*
X43355111Y-12122999D01*
X43355111Y-12123000D01*
X43816892Y-12123000D01*
X43800500Y-12184174D01*
X43800500Y-12315826D01*
X43816892Y-12377000D01*
X43355111Y-12377000D01*
X43385084Y-12527686D01*
X43385084Y-12527687D01*
X43456848Y-12700938D01*
X43456850Y-12700942D01*
X43561033Y-12856863D01*
X43693636Y-12989466D01*
X43849557Y-13093649D01*
X43849561Y-13093651D01*
X44022810Y-13165414D01*
X44022813Y-13165415D01*
X44173499Y-13195388D01*
X44173500Y-13195387D01*
X44173500Y-12733608D01*
X44234674Y-12750000D01*
X44366326Y-12750000D01*
X44427500Y-12733608D01*
X44427500Y-13195388D01*
X44578186Y-13165415D01*
X44578189Y-13165414D01*
X44751438Y-13093651D01*
X44751442Y-13093649D01*
X44907363Y-12989466D01*
X45039966Y-12856863D01*
X45144149Y-12700942D01*
X45144151Y-12700938D01*
X45215915Y-12527687D01*
X45215915Y-12527686D01*
X45245889Y-12377000D01*
X44784108Y-12377000D01*
X44800500Y-12315826D01*
X44800500Y-12184174D01*
X44784108Y-12123000D01*
X45245889Y-12123000D01*
X45245888Y-12122999D01*
X45215915Y-11972313D01*
X45215915Y-11972312D01*
X45144151Y-11799061D01*
X45144149Y-11799057D01*
X45039966Y-11643136D01*
X44907363Y-11510533D01*
X44751442Y-11406350D01*
X44751438Y-11406348D01*
X44578186Y-11334584D01*
X44427500Y-11304611D01*
X44427500Y-11766391D01*
X44366326Y-11750000D01*
X44234674Y-11750000D01*
X44173500Y-11766391D01*
X44173500Y-11304611D01*
X44173499Y-11304611D01*
X44022813Y-11334584D01*
X44022812Y-11334584D01*
X43849561Y-11406348D01*
X43849557Y-11406350D01*
X43693636Y-11510533D01*
X43561033Y-11643136D01*
X43456850Y-11799057D01*
X43456848Y-11799061D01*
X43385084Y-11972312D01*
X43385084Y-11972313D01*
X43355111Y-12122999D01*
X34600000Y-12122999D01*
X34600000Y-9658648D01*
X43373000Y-9658648D01*
X43373000Y-9841351D01*
X43408642Y-10020540D01*
X43408643Y-10020542D01*
X43478560Y-10189336D01*
X43580064Y-10341247D01*
X43709253Y-10470436D01*
X43861164Y-10571940D01*
X44029958Y-10641857D01*
X44209149Y-10677500D01*
X44391851Y-10677500D01*
X44571042Y-10641857D01*
X44739836Y-10571940D01*
X44891747Y-10470436D01*
X45020936Y-10341247D01*
X45122440Y-10189336D01*
X45192357Y-10020542D01*
X45228000Y-9841351D01*
X45228000Y-9658649D01*
X45192357Y-9479458D01*
X45122440Y-9310664D01*
X45020936Y-9158753D01*
X44891747Y-9029564D01*
X44891746Y-9029563D01*
X44739838Y-8928061D01*
X44739836Y-8928060D01*
X44571040Y-8858142D01*
X44391851Y-8822500D01*
X44209149Y-8822500D01*
X44029959Y-8858142D01*
X43861163Y-8928060D01*
X43861161Y-8928061D01*
X43709253Y-9029563D01*
X43580063Y-9158753D01*
X43478561Y-9310661D01*
X43478560Y-9310663D01*
X43408642Y-9479459D01*
X43373000Y-9658648D01*
X34600000Y-9658648D01*
X34600000Y-7158648D01*
X43373000Y-7158648D01*
X43373000Y-7341351D01*
X43408642Y-7520540D01*
X43408643Y-7520542D01*
X43478560Y-7689336D01*
X43580064Y-7841247D01*
X43709253Y-7970436D01*
X43861164Y-8071940D01*
X44029958Y-8141857D01*
X44209149Y-8177500D01*
X44391851Y-8177500D01*
X44571042Y-8141857D01*
X44739836Y-8071940D01*
X44891747Y-7970436D01*
X45020936Y-7841247D01*
X45122440Y-7689336D01*
X45192357Y-7520542D01*
X45228000Y-7341351D01*
X45228000Y-7158649D01*
X45192357Y-6979458D01*
X45122440Y-6810664D01*
X45020936Y-6658753D01*
X44891747Y-6529564D01*
X44891746Y-6529563D01*
X44739838Y-6428061D01*
X44739836Y-6428060D01*
X44571040Y-6358142D01*
X44391851Y-6322500D01*
X44209149Y-6322500D01*
X44029959Y-6358142D01*
X43861163Y-6428060D01*
X43861161Y-6428061D01*
X43709253Y-6529563D01*
X43580063Y-6658753D01*
X43478561Y-6810661D01*
X43478560Y-6810663D01*
X43408642Y-6979459D01*
X43373000Y-7158648D01*
X34600000Y-7158648D01*
X34600000Y-4548000D01*
X34618306Y-4503806D01*
X34662500Y-4485500D01*
X47637000Y-4485500D01*
X47681194Y-4503806D01*
G37*
%TD.AperFunction*%
%TD*%
%TA.AperFunction,Conductor*%
%TO.N,GND*%
G36*
X45580692Y-305255D02*
G01*
X45586141Y-307512D01*
X45619967Y-341334D01*
X45619970Y-389169D01*
X45594723Y-418642D01*
X45594677Y-418670D01*
X45581496Y-424723D01*
X45543550Y-437054D01*
X45543547Y-437055D01*
X45375309Y-491717D01*
X45375256Y-491735D01*
X45147000Y-608038D01*
X44939747Y-758617D01*
X44939739Y-758624D01*
X44758624Y-939739D01*
X44758617Y-939747D01*
X44608038Y-1147000D01*
X44491735Y-1375256D01*
X44491730Y-1375270D01*
X44412576Y-1618881D01*
X44386754Y-1781918D01*
X44372500Y-1871911D01*
X44372500Y-2128088D01*
X44401397Y-2310540D01*
X44401396Y-2310540D01*
X44412574Y-2381111D01*
X44491730Y-2624728D01*
X44491735Y-2624742D01*
X44491737Y-2624747D01*
X44575927Y-2789979D01*
X44575928Y-2789979D01*
X44603984Y-2845043D01*
X44608037Y-2852996D01*
X44758612Y-3060245D01*
X44758615Y-3060248D01*
X44758621Y-3060256D01*
X44939798Y-3241432D01*
X44939906Y-3241523D01*
X44940708Y-3242080D01*
X45147004Y-3391963D01*
X45375257Y-3508264D01*
X45618893Y-3587426D01*
X45871913Y-3627500D01*
X45871915Y-3627500D01*
X46128085Y-3627500D01*
X46128087Y-3627500D01*
X46381107Y-3587426D01*
X46624743Y-3508264D01*
X46852996Y-3391963D01*
X47060245Y-3241388D01*
X47241388Y-3060245D01*
X47391963Y-2852996D01*
X47508264Y-2624743D01*
X47573718Y-2423294D01*
X47585630Y-2402023D01*
X47589462Y-2397536D01*
X47632084Y-2375821D01*
X47677577Y-2390603D01*
X47697620Y-2422970D01*
X47697634Y-2423026D01*
X47699500Y-2438184D01*
X47699500Y-4290500D01*
X47681194Y-4334694D01*
X47637000Y-4353000D01*
X34662500Y-4353000D01*
X34611797Y-4363085D01*
X34611795Y-4363085D01*
X34611794Y-4363086D01*
X34601073Y-4367526D01*
X34567603Y-4381390D01*
X34567586Y-4381398D01*
X34542742Y-4394964D01*
X34542740Y-4394966D01*
X34542739Y-4394966D01*
X34542739Y-4394967D01*
X34540352Y-4397929D01*
X34495891Y-4453100D01*
X34477585Y-4497297D01*
X34468326Y-4543847D01*
X34467500Y-4548000D01*
X34467500Y-17600500D01*
X34477586Y-17651206D01*
X34488398Y-17677308D01*
X34495890Y-17695396D01*
X34495898Y-17695413D01*
X34509464Y-17720257D01*
X34509465Y-17720258D01*
X34509467Y-17720261D01*
X34567600Y-17767108D01*
X34611794Y-17785414D01*
X34662500Y-17795500D01*
X47637000Y-17795500D01*
X47681194Y-17813806D01*
X47699500Y-17858000D01*
X47699500Y-19996658D01*
X47699460Y-19998897D01*
X47699381Y-20001101D01*
X47699262Y-20003321D01*
X47682679Y-20235179D01*
X47682201Y-20239622D01*
X47681567Y-20244028D01*
X47680776Y-20248411D01*
X47632080Y-20472266D01*
X47630975Y-20476595D01*
X47629724Y-20480854D01*
X47628316Y-20485081D01*
X47548259Y-20699723D01*
X47546553Y-20703843D01*
X47544710Y-20707879D01*
X47542712Y-20711871D01*
X47432922Y-20912935D01*
X47430642Y-20916777D01*
X47428236Y-20920520D01*
X47425695Y-20924180D01*
X47288406Y-21107578D01*
X47285604Y-21111054D01*
X47282694Y-21114412D01*
X47279656Y-21117675D01*
X47117675Y-21279656D01*
X47114412Y-21282694D01*
X47111054Y-21285604D01*
X47107578Y-21288406D01*
X46924180Y-21425695D01*
X46920520Y-21428236D01*
X46916777Y-21430642D01*
X46912935Y-21432922D01*
X46711871Y-21542712D01*
X46707879Y-21544710D01*
X46703843Y-21546553D01*
X46699723Y-21548259D01*
X46485081Y-21628316D01*
X46480852Y-21629724D01*
X46476590Y-21630976D01*
X46472266Y-21632080D01*
X46248411Y-21680776D01*
X46244028Y-21681567D01*
X46239622Y-21682201D01*
X46235179Y-21682679D01*
X46003321Y-21699262D01*
X46001103Y-21699380D01*
X45998872Y-21699460D01*
X45996659Y-21699500D01*
X42169944Y-21699500D01*
X42146030Y-21694743D01*
X42142237Y-21693172D01*
X42108414Y-21659349D01*
X42108413Y-21611514D01*
X42136690Y-21580313D01*
X42137149Y-21580068D01*
X42154411Y-21573892D01*
X42173473Y-21570101D01*
X42325126Y-21539936D01*
X42325127Y-21539935D01*
X42325461Y-21539869D01*
X42327155Y-21539095D01*
X42347491Y-21530671D01*
X42367610Y-21522338D01*
X42367611Y-21522337D01*
X42503020Y-21466250D01*
X42663120Y-21359274D01*
X42799274Y-21223120D01*
X42906250Y-21063020D01*
X42970873Y-20907007D01*
X42979105Y-20887132D01*
X42979869Y-20885458D01*
X42979934Y-20885129D01*
X42979936Y-20885126D01*
X43017500Y-20696275D01*
X43017500Y-20503725D01*
X42979936Y-20314874D01*
X42979934Y-20314869D01*
X42979933Y-20314865D01*
X42952406Y-20248411D01*
X42907150Y-20139154D01*
X42907142Y-20139135D01*
X42906251Y-20136982D01*
X42906250Y-20136980D01*
X42799274Y-19976880D01*
X42663118Y-19840724D01*
X42503029Y-19733755D01*
X42503025Y-19733753D01*
X42503022Y-19733751D01*
X42503020Y-19733750D01*
X42450611Y-19712041D01*
X42325138Y-19660067D01*
X42325134Y-19660066D01*
X42325126Y-19660064D01*
X42325114Y-19660061D01*
X42325098Y-19660058D01*
X42136275Y-19622500D01*
X41943725Y-19622500D01*
X41943724Y-19622500D01*
X41754900Y-19660058D01*
X41754860Y-19660067D01*
X41576990Y-19733745D01*
X41576969Y-19733755D01*
X41416880Y-19840724D01*
X41280724Y-19976880D01*
X41173755Y-20136969D01*
X41173745Y-20136990D01*
X41100067Y-20314860D01*
X41100058Y-20314900D01*
X41062500Y-20503723D01*
X41062500Y-20696275D01*
X41100058Y-20885098D01*
X41100067Y-20885138D01*
X41172603Y-21060252D01*
X41173750Y-21063020D01*
X41173751Y-21063022D01*
X41173753Y-21063025D01*
X41173755Y-21063029D01*
X41207099Y-21112931D01*
X41207103Y-21112936D01*
X41280725Y-21223119D01*
X41416880Y-21359274D01*
X41576978Y-21466249D01*
X41576986Y-21466253D01*
X41629388Y-21487959D01*
X41629393Y-21487960D01*
X41754867Y-21539934D01*
X41754870Y-21539934D01*
X41754874Y-21539936D01*
X41906527Y-21570101D01*
X41906526Y-21570101D01*
X41913520Y-21571492D01*
X41922486Y-21573275D01*
X41945015Y-21582607D01*
X41948427Y-21584886D01*
X41975002Y-21624661D01*
X41965668Y-21671577D01*
X41931875Y-21696652D01*
X41931388Y-21696800D01*
X41913215Y-21699500D01*
X39629944Y-21699500D01*
X39606030Y-21694743D01*
X39602237Y-21693172D01*
X39568414Y-21659349D01*
X39568413Y-21611514D01*
X39596690Y-21580313D01*
X39597149Y-21580068D01*
X39614411Y-21573892D01*
X39633473Y-21570101D01*
X39785126Y-21539936D01*
X39785127Y-21539935D01*
X39785461Y-21539869D01*
X39787155Y-21539095D01*
X39807491Y-21530671D01*
X39827610Y-21522338D01*
X39827611Y-21522337D01*
X39963020Y-21466250D01*
X40123120Y-21359274D01*
X40259274Y-21223120D01*
X40366250Y-21063020D01*
X40430873Y-20907007D01*
X40439105Y-20887132D01*
X40439869Y-20885458D01*
X40439934Y-20885129D01*
X40439936Y-20885126D01*
X40477500Y-20696275D01*
X40477500Y-20503725D01*
X40439936Y-20314874D01*
X40439934Y-20314869D01*
X40439933Y-20314865D01*
X40412406Y-20248411D01*
X40367150Y-20139154D01*
X40367142Y-20139135D01*
X40366251Y-20136982D01*
X40366250Y-20136980D01*
X40259274Y-19976880D01*
X40123118Y-19840724D01*
X39963029Y-19733755D01*
X39963025Y-19733753D01*
X39963022Y-19733751D01*
X39963020Y-19733750D01*
X39910611Y-19712041D01*
X39785138Y-19660067D01*
X39785134Y-19660066D01*
X39785126Y-19660064D01*
X39785114Y-19660061D01*
X39785098Y-19660058D01*
X39596275Y-19622500D01*
X39403725Y-19622500D01*
X39403724Y-19622500D01*
X39214900Y-19660058D01*
X39214860Y-19660067D01*
X39036990Y-19733745D01*
X39036969Y-19733755D01*
X38876880Y-19840724D01*
X38740724Y-19976880D01*
X38633755Y-20136969D01*
X38633745Y-20136990D01*
X38560067Y-20314860D01*
X38560058Y-20314900D01*
X38522500Y-20503723D01*
X38522500Y-20696275D01*
X38560058Y-20885098D01*
X38560067Y-20885138D01*
X38632603Y-21060252D01*
X38633750Y-21063020D01*
X38633751Y-21063022D01*
X38633753Y-21063025D01*
X38633755Y-21063029D01*
X38667099Y-21112931D01*
X38667103Y-21112936D01*
X38740725Y-21223119D01*
X38876880Y-21359274D01*
X39036978Y-21466249D01*
X39036986Y-21466253D01*
X39089388Y-21487959D01*
X39089393Y-21487960D01*
X39214867Y-21539934D01*
X39214870Y-21539934D01*
X39214874Y-21539936D01*
X39366527Y-21570101D01*
X39366526Y-21570101D01*
X39373520Y-21571492D01*
X39382486Y-21573275D01*
X39405015Y-21582607D01*
X39408427Y-21584886D01*
X39435002Y-21624661D01*
X39425668Y-21671577D01*
X39391875Y-21696652D01*
X39391388Y-21696800D01*
X39373215Y-21699500D01*
X37215525Y-21699500D01*
X37191611Y-21694743D01*
X37187818Y-21693172D01*
X37153995Y-21659349D01*
X37153994Y-21611514D01*
X37182271Y-21580313D01*
X37182730Y-21580068D01*
X37199990Y-21573892D01*
X37252271Y-21563493D01*
X37434626Y-21487960D01*
X37574736Y-21394341D01*
X37267944Y-21087549D01*
X37249638Y-21043355D01*
X37267943Y-20999162D01*
X37359162Y-20907943D01*
X37403355Y-20889638D01*
X37447549Y-20907944D01*
X37754341Y-21214736D01*
X37847960Y-21074626D01*
X37923493Y-20892271D01*
X37958300Y-20717282D01*
X37962000Y-20710361D01*
X37962000Y-20499235D01*
X37960797Y-20495270D01*
X37958770Y-20485081D01*
X37923493Y-20307728D01*
X37847959Y-20125373D01*
X37847957Y-20125371D01*
X37847957Y-20125369D01*
X37764924Y-20001101D01*
X37754341Y-19985262D01*
X37754340Y-19985261D01*
X37447548Y-20292054D01*
X37403354Y-20310360D01*
X37359160Y-20292054D01*
X37267943Y-20200836D01*
X37249637Y-20156642D01*
X37267942Y-20112449D01*
X37574736Y-19805657D01*
X37434626Y-19712040D01*
X37252271Y-19636506D01*
X37252268Y-19636505D01*
X37252265Y-19636504D01*
X37058688Y-19598000D01*
X36861312Y-19598000D01*
X36667729Y-19636505D01*
X36667728Y-19636505D01*
X36485372Y-19712040D01*
X36485369Y-19712041D01*
X36345261Y-19805658D01*
X36652054Y-20112450D01*
X36670360Y-20156644D01*
X36652054Y-20200838D01*
X36560838Y-20292054D01*
X36516644Y-20310360D01*
X36472450Y-20292054D01*
X36165658Y-19985261D01*
X36072041Y-20125369D01*
X36072040Y-20125372D01*
X35996505Y-20307728D01*
X35996505Y-20307729D01*
X35958000Y-20501310D01*
X35958000Y-20698688D01*
X35996504Y-20892265D01*
X35996505Y-20892268D01*
X35996506Y-20892271D01*
X36072040Y-21074626D01*
X36165657Y-21214736D01*
X36472449Y-20907944D01*
X36516643Y-20889638D01*
X36560837Y-20907944D01*
X36652054Y-20999160D01*
X36670360Y-21043354D01*
X36652054Y-21087548D01*
X36345261Y-21394340D01*
X36485369Y-21487957D01*
X36485371Y-21487957D01*
X36485373Y-21487959D01*
X36667728Y-21563493D01*
X36716906Y-21573275D01*
X36739434Y-21582607D01*
X36742846Y-21584886D01*
X36769421Y-21624661D01*
X36760087Y-21671577D01*
X36726294Y-21696652D01*
X36725807Y-21696800D01*
X36707634Y-21699500D01*
X35316226Y-21699500D01*
X35292296Y-21694737D01*
X35288508Y-21693167D01*
X35254690Y-21659335D01*
X35254701Y-21611500D01*
X35283017Y-21580288D01*
X35283473Y-21580045D01*
X35300694Y-21573892D01*
X35303796Y-21573275D01*
X35319748Y-21570102D01*
X35361922Y-21541922D01*
X35390102Y-21499748D01*
X35397500Y-21462558D01*
X35397500Y-19737442D01*
X35390102Y-19700252D01*
X35382909Y-19689487D01*
X35361922Y-19658077D01*
X35319748Y-19629898D01*
X35313484Y-19628652D01*
X35313482Y-19628651D01*
X35290236Y-19624027D01*
X35282558Y-19622500D01*
X35282557Y-19622500D01*
X33557440Y-19622500D01*
X33545381Y-19624898D01*
X33545382Y-19624899D01*
X33526287Y-19628697D01*
X33523206Y-19629000D01*
X33520249Y-19629897D01*
X33478077Y-19658076D01*
X33478076Y-19658077D01*
X33449897Y-19700249D01*
X33449000Y-19703207D01*
X33448697Y-19706287D01*
X33442500Y-19737440D01*
X33442500Y-19821323D01*
X33437740Y-19845247D01*
X33434098Y-19854037D01*
X33400277Y-19887855D01*
X33396627Y-19889367D01*
X33355189Y-19891619D01*
X33116457Y-19821905D01*
X33102125Y-19815686D01*
X33088998Y-19807911D01*
X33076658Y-19798333D01*
X33039236Y-19760911D01*
X33039232Y-19760908D01*
X32944888Y-19706438D01*
X32941597Y-19703912D01*
X32933930Y-19700737D01*
X32929813Y-19700195D01*
X32897799Y-19691617D01*
X32882728Y-19685375D01*
X32868953Y-19677422D01*
X32856014Y-19667492D01*
X31599596Y-18411073D01*
X31586049Y-18390799D01*
X31577256Y-18369572D01*
X31572500Y-18345657D01*
X31572500Y-16806144D01*
X31577256Y-16782230D01*
X31586050Y-16760999D01*
X31599593Y-16740731D01*
X31699584Y-16640741D01*
X31699589Y-16640736D01*
X31718296Y-16608335D01*
X31734225Y-16580746D01*
X31755816Y-16543348D01*
X31756938Y-16541706D01*
X31757391Y-16540811D01*
X31759040Y-16537762D01*
X31766309Y-16525172D01*
X31764873Y-16514265D01*
X31764874Y-16514264D01*
X31788498Y-16426092D01*
X31788500Y-16426084D01*
X31788500Y-4489644D01*
X31793256Y-4465730D01*
X31802050Y-4444499D01*
X31815593Y-4424231D01*
X33071084Y-3168741D01*
X33071089Y-3168736D01*
X33129675Y-3067263D01*
X33160000Y-2954086D01*
X33160000Y-2836914D01*
X33159999Y-2836908D01*
X33158504Y-2831329D01*
X33158021Y-2829525D01*
X33156026Y-2809223D01*
X33156105Y-2808033D01*
X33157317Y-2789684D01*
X33161968Y-2769823D01*
X33172938Y-2743436D01*
X33172938Y-2743433D01*
X33173000Y-2743123D01*
X33173000Y-2692814D01*
X33173011Y-2683925D01*
X33173068Y-2637133D01*
X33173067Y-2637117D01*
X33173068Y-2636492D01*
X33173067Y-2636481D01*
X33173067Y-2636413D01*
X33173000Y-2633571D01*
X33173000Y-1736142D01*
X33173001Y-1736105D01*
X33173001Y-1625877D01*
X33172996Y-1625865D01*
X33170103Y-1618881D01*
X33134257Y-1532340D01*
X33134253Y-1532335D01*
X32202164Y-600246D01*
X32202163Y-600245D01*
X32202158Y-600243D01*
X32174762Y-588895D01*
X32108623Y-561500D01*
X32108622Y-561500D01*
X25812356Y-561500D01*
X25812324Y-561499D01*
X25810396Y-561499D01*
X25803123Y-561499D01*
X25701877Y-561499D01*
X25701874Y-561499D01*
X25701871Y-561499D01*
X25608339Y-600242D01*
X25608337Y-600243D01*
X24066749Y-2141831D01*
X24066744Y-2141837D01*
X24066743Y-2141839D01*
X24028000Y-2235377D01*
X24028000Y-3426169D01*
X24023242Y-3450088D01*
X24014452Y-3471308D01*
X24001328Y-3490955D01*
X24001341Y-3490966D01*
X24001336Y-3490970D01*
X24001384Y-3491014D01*
X24001030Y-3491400D01*
X24000919Y-3491568D01*
X24000440Y-3492046D01*
X24000437Y-3492049D01*
X24000429Y-3492060D01*
X23954025Y-3572430D01*
X23954021Y-3572437D01*
X23954014Y-3572464D01*
X23930000Y-3662085D01*
X23930000Y-3754913D01*
X23954014Y-3844534D01*
X23954021Y-3844561D01*
X23954025Y-3844568D01*
X24000428Y-3924938D01*
X24000436Y-3924947D01*
X24066052Y-3990563D01*
X24066060Y-3990570D01*
X24146430Y-4036973D01*
X24146437Y-4036977D01*
X24146464Y-4036985D01*
X24220578Y-4056844D01*
X24242444Y-4067625D01*
X24247782Y-4071720D01*
X24271704Y-4113144D01*
X24259329Y-4159351D01*
X24259317Y-4159367D01*
X24258567Y-4160344D01*
X24224148Y-4182920D01*
X24040448Y-4228845D01*
X24039155Y-4229154D01*
X24037854Y-4229450D01*
X24036521Y-4229738D01*
X24008568Y-4235459D01*
X24008557Y-4235462D01*
X24004913Y-4236721D01*
X24004880Y-4236733D01*
X24004869Y-4236737D01*
X24000927Y-4238195D01*
X24000917Y-4238198D01*
X24000906Y-4238203D01*
X23997255Y-4239644D01*
X23997244Y-4239649D01*
X23972286Y-4253503D01*
X23971141Y-4254123D01*
X23970003Y-4254724D01*
X23968767Y-4255360D01*
X23798741Y-4340372D01*
X23794836Y-4342159D01*
X23790887Y-4343805D01*
X23786874Y-4345319D01*
X23776478Y-4348836D01*
X23776474Y-4348837D01*
X23776474Y-4348838D01*
X23776464Y-4348843D01*
X23776461Y-4348845D01*
X23765304Y-4356283D01*
X23762001Y-4358339D01*
X23758640Y-4360289D01*
X23755228Y-4362130D01*
X23743236Y-4368125D01*
X23743237Y-4368126D01*
X23743222Y-4368133D01*
X23743216Y-4368137D01*
X23734998Y-4375425D01*
X23731691Y-4378160D01*
X23728299Y-4380775D01*
X23724808Y-4383280D01*
X23487421Y-4541537D01*
X23480214Y-4545677D01*
X23472801Y-4549303D01*
X23465103Y-4552453D01*
X23222782Y-4633226D01*
X23221021Y-4633784D01*
X23219259Y-4634314D01*
X23217434Y-4634833D01*
X23192891Y-4641410D01*
X23192279Y-4641663D01*
X23188183Y-4643759D01*
X23182431Y-4646346D01*
X23178329Y-4648019D01*
X23177622Y-4648278D01*
X23177588Y-4648291D01*
X23177577Y-4648297D01*
X23156384Y-4662291D01*
X23154828Y-4663286D01*
X23153239Y-4664269D01*
X23151609Y-4665243D01*
X23129614Y-4677942D01*
X23129610Y-4677945D01*
X23128755Y-4678645D01*
X23125670Y-4681433D01*
X23120831Y-4685382D01*
X23117433Y-4687880D01*
X23116613Y-4688549D01*
X23099751Y-4707564D01*
X23098486Y-4708948D01*
X23097205Y-4710308D01*
X23095902Y-4711650D01*
X23076372Y-4731179D01*
X23062974Y-4741371D01*
X23048727Y-4749438D01*
X23033090Y-4755685D01*
X22773665Y-4820541D01*
X22770188Y-4821306D01*
X22766724Y-4821965D01*
X22763693Y-4822451D01*
X22763483Y-4822493D01*
X22731161Y-4831154D01*
X22730757Y-4831261D01*
X22730595Y-4831303D01*
X22730273Y-4831386D01*
X22729705Y-4831531D01*
X22697267Y-4839641D01*
X22697241Y-4839649D01*
X22696820Y-4839816D01*
X22695724Y-4840236D01*
X22695676Y-4840253D01*
X22695086Y-4840495D01*
X22694902Y-4840569D01*
X22694497Y-4840729D01*
X22694410Y-4840768D01*
X22693401Y-4841196D01*
X22692896Y-4841405D01*
X22692883Y-4841411D01*
X22663978Y-4858099D01*
X22663819Y-4858119D01*
X22663612Y-4858310D01*
X22663151Y-4858572D01*
X22662607Y-4858877D01*
X22633359Y-4875115D01*
X22632989Y-4875390D01*
X22631983Y-4876121D01*
X22631951Y-4876143D01*
X22631372Y-4876585D01*
X22631324Y-4876621D01*
X22630968Y-4876884D01*
X22630914Y-4876928D01*
X22630018Y-4877629D01*
X22629622Y-4877932D01*
X22629613Y-4877940D01*
X22606029Y-4901524D01*
X22605628Y-4901922D01*
X22605238Y-4902305D01*
X22604893Y-4902641D01*
X22580831Y-4925908D01*
X22580679Y-4926076D01*
X22578713Y-4928411D01*
X22576357Y-4931052D01*
X22573912Y-4933640D01*
X21312151Y-6195403D01*
X21291877Y-6208950D01*
X21270651Y-6217742D01*
X21246736Y-6222500D01*
X21163463Y-6222500D01*
X21163453Y-6222502D01*
X21092893Y-6241408D01*
X21092886Y-6241411D01*
X21029611Y-6277942D01*
X19277942Y-8029611D01*
X19241410Y-8092889D01*
X19241409Y-8092890D01*
X19222443Y-8163670D01*
X19218127Y-8175138D01*
X19208786Y-8194078D01*
X19196926Y-8210627D01*
X18877942Y-8529611D01*
X18841410Y-8592889D01*
X18841409Y-8592890D01*
X18822499Y-8663459D01*
X18822499Y-8742738D01*
X18822500Y-8742791D01*
X18822500Y-10146735D01*
X18817742Y-10170654D01*
X18808951Y-10191876D01*
X18795403Y-10212151D01*
X18012151Y-10995403D01*
X17991877Y-11008950D01*
X17971054Y-11017575D01*
X17947139Y-11022333D01*
X17914976Y-11022333D01*
X17914575Y-11022499D01*
X17858699Y-11022499D01*
X17858634Y-11022500D01*
X17853264Y-11022500D01*
X17829347Y-11017742D01*
X17808122Y-11008950D01*
X17787848Y-10995403D01*
X17770387Y-10977942D01*
X17707109Y-10941410D01*
X17707108Y-10941409D01*
X17636332Y-10922444D01*
X17624865Y-10918128D01*
X17605920Y-10908785D01*
X17589370Y-10896925D01*
X17570387Y-10877942D01*
X17507109Y-10841410D01*
X17436325Y-10822441D01*
X17424860Y-10818126D01*
X17405920Y-10808786D01*
X17389369Y-10796925D01*
X17089950Y-10497506D01*
X16770389Y-10177944D01*
X16770387Y-10177942D01*
X16707109Y-10141410D01*
X16707108Y-10141409D01*
X16636539Y-10122499D01*
X16636534Y-10122499D01*
X16563466Y-10122499D01*
X16559641Y-10122499D01*
X16558699Y-10122499D01*
X16558634Y-10122500D01*
X15353264Y-10122500D01*
X15329347Y-10117742D01*
X15308122Y-10108950D01*
X15287848Y-10095403D01*
X15270387Y-10077942D01*
X15207109Y-10041410D01*
X15207108Y-10041409D01*
X15136539Y-10022499D01*
X15136534Y-10022499D01*
X15063466Y-10022499D01*
X15059641Y-10022499D01*
X15058699Y-10022499D01*
X15058634Y-10022500D01*
X14553264Y-10022500D01*
X14529345Y-10017742D01*
X14508123Y-10008951D01*
X14487848Y-9995404D01*
X14430844Y-9938401D01*
X14430844Y-9938400D01*
X14370386Y-9877942D01*
X14307108Y-9841410D01*
X14307107Y-9841409D01*
X14288198Y-9836343D01*
X14236538Y-9822499D01*
X14236533Y-9822499D01*
X14236532Y-9822499D01*
X14163464Y-9822500D01*
X13894685Y-9822500D01*
X13870768Y-9817742D01*
X13849542Y-9808950D01*
X13835625Y-9799650D01*
X13835037Y-9800417D01*
X13833274Y-9799064D01*
X13832888Y-9798748D01*
X13832070Y-9798135D01*
X13831537Y-9797731D01*
X13828541Y-9795432D01*
X13828769Y-9795133D01*
X13813934Y-9782121D01*
X13809839Y-9776784D01*
X13797460Y-9730578D01*
X13821377Y-9689153D01*
X13826716Y-9685056D01*
X13848585Y-9674272D01*
X13877629Y-9666489D01*
X13907111Y-9658589D01*
X13970389Y-9622056D01*
X15087849Y-8504593D01*
X15108120Y-8491048D01*
X15129350Y-8482255D01*
X15153264Y-8477500D01*
X15958634Y-8477500D01*
X15958699Y-8477501D01*
X15959641Y-8477501D01*
X15963466Y-8477501D01*
X16036534Y-8477501D01*
X16036539Y-8477500D01*
X16063918Y-8470162D01*
X16063921Y-8470162D01*
X16084505Y-8464645D01*
X16107111Y-8458589D01*
X16170389Y-8422056D01*
X17487849Y-7104593D01*
X17508120Y-7091048D01*
X17529350Y-7082255D01*
X17545765Y-7078991D01*
X17545640Y-7078034D01*
X17549695Y-7077500D01*
X17549698Y-7077500D01*
X17549699Y-7077500D01*
X17645709Y-7051774D01*
X17731790Y-7002075D01*
X17802075Y-6931790D01*
X17851774Y-6845709D01*
X17877500Y-6749699D01*
X17877500Y-6650301D01*
X17851774Y-6554291D01*
X17802075Y-6468210D01*
X17802073Y-6468208D01*
X17802072Y-6468207D01*
X17802070Y-6468203D01*
X17731793Y-6397926D01*
X17652833Y-6352338D01*
X17649542Y-6349812D01*
X17641875Y-6346637D01*
X17637758Y-6346095D01*
X17549708Y-6322500D01*
X17549703Y-6322500D01*
X17549699Y-6322500D01*
X17450301Y-6322500D01*
X17450296Y-6322500D01*
X17450290Y-6322500D01*
X17362242Y-6346095D01*
X17362237Y-6346095D01*
X17362238Y-6346096D01*
X17354289Y-6348225D01*
X17268208Y-6397926D01*
X17268204Y-6397929D01*
X17268195Y-6397937D01*
X17197937Y-6468195D01*
X17197929Y-6468204D01*
X17197926Y-6468208D01*
X17148225Y-6554289D01*
X17146096Y-6562238D01*
X17146095Y-6562240D01*
X17122500Y-6650290D01*
X17121966Y-6654354D01*
X17121009Y-6654228D01*
X17117742Y-6670654D01*
X17108951Y-6691876D01*
X17095403Y-6712151D01*
X15912151Y-7895403D01*
X15891877Y-7908950D01*
X15870651Y-7917742D01*
X15846736Y-7922500D01*
X14963463Y-7922500D01*
X14963453Y-7922502D01*
X14892893Y-7941408D01*
X14892886Y-7941411D01*
X14829611Y-7977942D01*
X13712151Y-9095403D01*
X13691877Y-9108950D01*
X13670651Y-9117742D01*
X13646736Y-9122500D01*
X13037592Y-9122500D01*
X13031295Y-9122182D01*
X13025042Y-9121548D01*
X13020885Y-9120914D01*
X13019844Y-9120809D01*
X13019843Y-9120809D01*
X13019842Y-9120809D01*
X13018093Y-9120914D01*
X13012811Y-9121231D01*
X13012810Y-9121231D01*
X12994460Y-9122332D01*
X12992600Y-9122416D01*
X12990714Y-9122472D01*
X12988859Y-9122500D01*
X12963457Y-9122500D01*
X12962811Y-9122585D01*
X12958298Y-9123553D01*
X12953811Y-9124281D01*
X12952136Y-9124553D01*
X12947561Y-9125059D01*
X12946903Y-9125186D01*
X12929061Y-9131134D01*
X12929049Y-9131138D01*
X12922793Y-9133222D01*
X12921018Y-9133785D01*
X12919250Y-9134316D01*
X12917452Y-9134826D01*
X12892897Y-9141407D01*
X12892886Y-9141411D01*
X12890869Y-9142391D01*
X12890866Y-9142386D01*
X12888177Y-9143762D01*
X12882428Y-9146348D01*
X12878317Y-9148024D01*
X12877614Y-9148281D01*
X12877588Y-9148292D01*
X12856372Y-9162299D01*
X12854779Y-9163316D01*
X12853210Y-9164285D01*
X12851621Y-9165234D01*
X12829618Y-9177938D01*
X12829605Y-9177947D01*
X12829601Y-9177950D01*
X12828322Y-9179096D01*
X12828293Y-9179063D01*
X12825667Y-9181435D01*
X12820815Y-9185394D01*
X12817440Y-9187875D01*
X12816613Y-9188550D01*
X12816612Y-9188551D01*
X12799768Y-9207546D01*
X12798519Y-9208913D01*
X12797222Y-9210291D01*
X12795905Y-9211648D01*
X12777947Y-9229606D01*
X12777933Y-9229622D01*
X12777081Y-9230844D01*
X12775033Y-9234011D01*
X12771352Y-9239118D01*
X12768670Y-9242578D01*
X12768131Y-9243224D01*
X12756780Y-9265928D01*
X12755921Y-9267584D01*
X12755026Y-9269248D01*
X12754109Y-9270892D01*
X12741413Y-9292881D01*
X12741154Y-9293506D01*
X12739741Y-9297883D01*
X12737516Y-9303743D01*
X12734988Y-9309509D01*
X12456772Y-9865942D01*
X12455904Y-9867614D01*
X12455025Y-9869247D01*
X12454120Y-9870871D01*
X12441411Y-9892885D01*
X12441405Y-9892900D01*
X12440736Y-9894866D01*
X12440717Y-9894859D01*
X12439739Y-9897889D01*
X12437523Y-9903727D01*
X12435770Y-9907725D01*
X12435456Y-9908573D01*
X12430357Y-9933483D01*
X12429954Y-9935313D01*
X12429531Y-9937104D01*
X12429076Y-9938910D01*
X12422499Y-9963460D01*
X12422498Y-9963477D01*
X12422435Y-9964875D01*
X12422374Y-9964872D01*
X12422180Y-9968712D01*
X12421548Y-9974946D01*
X12420918Y-9979070D01*
X12420808Y-9980155D01*
X12420808Y-9980159D01*
X12422331Y-10005538D01*
X12422415Y-10007399D01*
X12422461Y-10008951D01*
X12422471Y-10009257D01*
X12422499Y-10011140D01*
X12422499Y-11158740D01*
X12422498Y-11158777D01*
X12422499Y-11207111D01*
X12422499Y-11236539D01*
X12441407Y-11307105D01*
X12441411Y-11307114D01*
X12477941Y-11370387D01*
X12534007Y-11426453D01*
X12534033Y-11426478D01*
X12885123Y-11777568D01*
X12888147Y-11780814D01*
X12891047Y-11784158D01*
X12893829Y-11787606D01*
X13095078Y-12055938D01*
X13103911Y-12067714D01*
X13113205Y-12085452D01*
X13119291Y-12103709D01*
X13122499Y-12123474D01*
X13122499Y-12136539D01*
X13141409Y-12207108D01*
X13141410Y-12207109D01*
X13167351Y-12252043D01*
X13175956Y-12266947D01*
X13177944Y-12270389D01*
X13748802Y-12841247D01*
X14022606Y-13115051D01*
X14295403Y-13387847D01*
X14308950Y-13408121D01*
X14317742Y-13429346D01*
X14322500Y-13453263D01*
X14322500Y-14961275D01*
X14321608Y-14969104D01*
X14321783Y-14969121D01*
X14321391Y-14973196D01*
X14322462Y-15003784D01*
X14322500Y-15005971D01*
X14322500Y-15036534D01*
X14323034Y-15040591D01*
X14322862Y-15040613D01*
X14323101Y-15042211D01*
X14323271Y-15042183D01*
X14323946Y-15046216D01*
X14330767Y-15068521D01*
X14330768Y-15068523D01*
X14332734Y-15074949D01*
X14333038Y-15075976D01*
X14333353Y-15077076D01*
X14333626Y-15078060D01*
X14341409Y-15107109D01*
X14342976Y-15110891D01*
X14342815Y-15110957D01*
X14343460Y-15112441D01*
X14343619Y-15112369D01*
X14345318Y-15116097D01*
X14361529Y-15142033D01*
X14362651Y-15143900D01*
X14377944Y-15170389D01*
X14380436Y-15173637D01*
X14380296Y-15173744D01*
X14385201Y-15179909D01*
X14388289Y-15184851D01*
X14388294Y-15184859D01*
X14612703Y-15543914D01*
X14692893Y-15672217D01*
X14723813Y-15721688D01*
X14732455Y-15744495D01*
X14735304Y-15761515D01*
X14727789Y-15803082D01*
X14721523Y-15813934D01*
X14721523Y-15813935D01*
X14721519Y-15813945D01*
X14697500Y-15903585D01*
X14697500Y-15996413D01*
X14721514Y-16086034D01*
X14721521Y-16086061D01*
X14721525Y-16086068D01*
X14767928Y-16166438D01*
X14767936Y-16166447D01*
X14833552Y-16232063D01*
X14833560Y-16232070D01*
X14913930Y-16278473D01*
X14913937Y-16278477D01*
X14913964Y-16278485D01*
X14987515Y-16298192D01*
X15003592Y-16302500D01*
X15003593Y-16302500D01*
X15096407Y-16302500D01*
X15096408Y-16302500D01*
X15186060Y-16278478D01*
X15266440Y-16232070D01*
X15332070Y-16166440D01*
X15377651Y-16087492D01*
X15378477Y-16086062D01*
X15378478Y-16086059D01*
X15378485Y-16086034D01*
X15402500Y-15996408D01*
X15402500Y-15903592D01*
X15402498Y-15903585D01*
X15398169Y-15887428D01*
X15389145Y-15853750D01*
X15388253Y-15850420D01*
X15380868Y-15822863D01*
X15379429Y-15815944D01*
X15378383Y-15808951D01*
X15377737Y-15801916D01*
X15377552Y-15796604D01*
X15377528Y-15795637D01*
X15377509Y-15794500D01*
X15377500Y-15793456D01*
X15377500Y-15779732D01*
X15379352Y-15774173D01*
X15377140Y-15759380D01*
X15377141Y-15759380D01*
X15376903Y-15757788D01*
X15376902Y-15757788D01*
X15374671Y-15742864D01*
X15371250Y-15738078D01*
X15367254Y-15725015D01*
X15366971Y-15724063D01*
X15366612Y-15722806D01*
X15366407Y-15722068D01*
X15366032Y-15720669D01*
X15364441Y-15696353D01*
X15365684Y-15686914D01*
X15389600Y-15645491D01*
X15391937Y-15643698D01*
X15392974Y-15642903D01*
X15431006Y-15630000D01*
X16244069Y-15630000D01*
X16267989Y-15634759D01*
X16276778Y-15638400D01*
X16310598Y-15672217D01*
X16314240Y-15681009D01*
X16319000Y-15704931D01*
X16319000Y-17076591D01*
X16329363Y-17115264D01*
X16329364Y-17115268D01*
X16349317Y-17189738D01*
X16349325Y-17189763D01*
X16349326Y-17189766D01*
X16377783Y-17239052D01*
X16377783Y-17239053D01*
X16399642Y-17276913D01*
X16399641Y-17276913D01*
X16399646Y-17276920D01*
X16407909Y-17291233D01*
X16407918Y-17291244D01*
X17303750Y-18187077D01*
X17303755Y-18187081D01*
X17303758Y-18187084D01*
X17303767Y-18187091D01*
X17303768Y-18187092D01*
X17303770Y-18187093D01*
X17303774Y-18187095D01*
X17403501Y-18244674D01*
X17405057Y-18245640D01*
X17406215Y-18245971D01*
X17411567Y-18247591D01*
X17413181Y-18247804D01*
X17422783Y-18250376D01*
X17437240Y-18254250D01*
X17518414Y-18276000D01*
X17518415Y-18276000D01*
X17635585Y-18276000D01*
X17635586Y-18276000D01*
X17748764Y-18245675D01*
X17850237Y-18187089D01*
X17933089Y-18104237D01*
X17991675Y-18002764D01*
X17996056Y-17986413D01*
X18004852Y-17953585D01*
X18447500Y-17953585D01*
X18447500Y-18046413D01*
X18471514Y-18136034D01*
X18471521Y-18136061D01*
X18471525Y-18136068D01*
X18517928Y-18216438D01*
X18517936Y-18216447D01*
X18583552Y-18282063D01*
X18583560Y-18282070D01*
X18663930Y-18328473D01*
X18663937Y-18328477D01*
X18663964Y-18328485D01*
X18709762Y-18340756D01*
X18753592Y-18352500D01*
X18753593Y-18352500D01*
X18846407Y-18352500D01*
X18846408Y-18352500D01*
X18936060Y-18328478D01*
X18954469Y-18317848D01*
X19016432Y-18282075D01*
X19016433Y-18282073D01*
X19016440Y-18282070D01*
X19017921Y-18280588D01*
X19038193Y-18267039D01*
X19055992Y-18259665D01*
X19089634Y-18255668D01*
X24793906Y-19153979D01*
X24816787Y-19162398D01*
X24829697Y-19170294D01*
X24834049Y-19172956D01*
X24855562Y-19195021D01*
X24867927Y-19216436D01*
X24867934Y-19216445D01*
X24933552Y-19282063D01*
X24933560Y-19282070D01*
X25013930Y-19328473D01*
X25013937Y-19328477D01*
X25013964Y-19328485D01*
X25087515Y-19348192D01*
X25103592Y-19352500D01*
X25103593Y-19352500D01*
X25196407Y-19352500D01*
X25196408Y-19352500D01*
X25286060Y-19328478D01*
X25295275Y-19323158D01*
X25303048Y-19318669D01*
X25366440Y-19282070D01*
X25432070Y-19216440D01*
X25478478Y-19136060D01*
X25502500Y-19046408D01*
X25502500Y-18953592D01*
X25498192Y-18937515D01*
X25478485Y-18863964D01*
X25478477Y-18863937D01*
X25478473Y-18863930D01*
X25432070Y-18783560D01*
X25432063Y-18783552D01*
X25366447Y-18717936D01*
X25366438Y-18717928D01*
X25286068Y-18671525D01*
X25286061Y-18671521D01*
X25286034Y-18671513D01*
X25196424Y-18647503D01*
X25196415Y-18647501D01*
X25196414Y-18647501D01*
X25196409Y-18647500D01*
X25196408Y-18647500D01*
X25103589Y-18647500D01*
X25103579Y-18647502D01*
X25013964Y-18671514D01*
X25013937Y-18671521D01*
X25013930Y-18671525D01*
X24933559Y-18717929D01*
X24933551Y-18717936D01*
X24932069Y-18719418D01*
X24911797Y-18732962D01*
X24894001Y-18740333D01*
X24860361Y-18744329D01*
X20151457Y-18002769D01*
X19156094Y-17846018D01*
X19133210Y-17837599D01*
X19115949Y-17827042D01*
X19094435Y-17804976D01*
X19093494Y-17803347D01*
X19082072Y-17783563D01*
X19082065Y-17783554D01*
X19082063Y-17783552D01*
X19082062Y-17783550D01*
X19016447Y-17717936D01*
X19016438Y-17717928D01*
X18936068Y-17671525D01*
X18936061Y-17671521D01*
X18936034Y-17671513D01*
X18846424Y-17647503D01*
X18846415Y-17647501D01*
X18846414Y-17647501D01*
X18846409Y-17647500D01*
X18846408Y-17647500D01*
X18753589Y-17647500D01*
X18753579Y-17647502D01*
X18663964Y-17671514D01*
X18663937Y-17671521D01*
X18663930Y-17671525D01*
X18583560Y-17717928D01*
X18517928Y-17783560D01*
X18471525Y-17863930D01*
X18471521Y-17863937D01*
X18471514Y-17863964D01*
X18447500Y-17953585D01*
X18004852Y-17953585D01*
X18009704Y-17935479D01*
X18009705Y-17935474D01*
X18014786Y-17916510D01*
X18022000Y-17889586D01*
X18022000Y-17772414D01*
X17995079Y-17671940D01*
X17991676Y-17659240D01*
X17991672Y-17659231D01*
X17991671Y-17659228D01*
X17991669Y-17659225D01*
X17933095Y-17557774D01*
X17933093Y-17557770D01*
X17933091Y-17557767D01*
X17933084Y-17557758D01*
X17933081Y-17557755D01*
X17933077Y-17557750D01*
X17236096Y-16860770D01*
X17222549Y-16840496D01*
X17213756Y-16819269D01*
X17209000Y-16795354D01*
X17209000Y-16736851D01*
X17213754Y-16712942D01*
X17216331Y-16706720D01*
X17250150Y-16672895D01*
X17297983Y-16672890D01*
X17299343Y-16673453D01*
X17329533Y-16699936D01*
X17367929Y-16766439D01*
X17367934Y-16766445D01*
X17367936Y-16766447D01*
X17433552Y-16832063D01*
X17433560Y-16832070D01*
X17513930Y-16878473D01*
X17513937Y-16878477D01*
X17513964Y-16878485D01*
X17587515Y-16898192D01*
X17603592Y-16902500D01*
X17603593Y-16902500D01*
X17696407Y-16902500D01*
X17696408Y-16902500D01*
X17696416Y-16902498D01*
X17701215Y-16901211D01*
X17786060Y-16878478D01*
X17791222Y-16875498D01*
X17831955Y-16851980D01*
X17866440Y-16832070D01*
X17932070Y-16766440D01*
X17978478Y-16686060D01*
X18002500Y-16596408D01*
X18002500Y-16503592D01*
X17984376Y-16435950D01*
X17978485Y-16413964D01*
X17978477Y-16413937D01*
X17978473Y-16413930D01*
X17932070Y-16333560D01*
X17932063Y-16333552D01*
X17917098Y-16318587D01*
X17903551Y-16298313D01*
X17895828Y-16279669D01*
X17891438Y-16249001D01*
X17893279Y-16232070D01*
X18070722Y-14599585D01*
X18078036Y-14576325D01*
X18078637Y-14575227D01*
X18087311Y-14559386D01*
X18110888Y-14535274D01*
X18116440Y-14532070D01*
X18182070Y-14466440D01*
X18228478Y-14386060D01*
X18252500Y-14296408D01*
X18252500Y-14203592D01*
X18241216Y-14161478D01*
X18228485Y-14113964D01*
X18228477Y-14113937D01*
X18228473Y-14113930D01*
X18182070Y-14033560D01*
X18182063Y-14033552D01*
X18116447Y-13967936D01*
X18116437Y-13967927D01*
X18036063Y-13921522D01*
X18036061Y-13921521D01*
X18004551Y-13913078D01*
X17982684Y-13902294D01*
X17975135Y-13896502D01*
X17951220Y-13855111D01*
X17951123Y-13854378D01*
X17958960Y-13814937D01*
X17960417Y-13812412D01*
X17970339Y-13799484D01*
X19004230Y-12765594D01*
X19024499Y-12752050D01*
X19045730Y-12743256D01*
X19069644Y-12738500D01*
X23786085Y-12738500D01*
X23786086Y-12738500D01*
X23844746Y-12722782D01*
X23899264Y-12708174D01*
X24000736Y-12649589D01*
X24083589Y-12566736D01*
X24236231Y-12414093D01*
X24256499Y-12400550D01*
X24277730Y-12391756D01*
X24301644Y-12387000D01*
X25275882Y-12387000D01*
X25292058Y-12389130D01*
X25307412Y-12393244D01*
X25313309Y-12395142D01*
X25318076Y-12396941D01*
X25329735Y-12403673D01*
X25329737Y-12403674D01*
X25416898Y-12427029D01*
X25438767Y-12437813D01*
X25446003Y-12443365D01*
X25461350Y-12469945D01*
X25462507Y-12471031D01*
X25462537Y-12472002D01*
X25469922Y-12484791D01*
X25463827Y-12512631D01*
X25464025Y-12518842D01*
X25461994Y-12521005D01*
X25460846Y-12526253D01*
X25458442Y-12530071D01*
X25446227Y-12544223D01*
X24765908Y-13127353D01*
X24744654Y-13139305D01*
X24726431Y-13145262D01*
X24698858Y-13147822D01*
X24696411Y-13147500D01*
X24696409Y-13147500D01*
X24696408Y-13147500D01*
X24603592Y-13147500D01*
X24603591Y-13147500D01*
X24603589Y-13147500D01*
X24603579Y-13147502D01*
X24513964Y-13171514D01*
X24513937Y-13171521D01*
X24513930Y-13171525D01*
X24433560Y-13217928D01*
X24367928Y-13283560D01*
X24321525Y-13363930D01*
X24321521Y-13363937D01*
X24321514Y-13363964D01*
X24297500Y-13453585D01*
X24297500Y-13546413D01*
X24321514Y-13636034D01*
X24321521Y-13636061D01*
X24321525Y-13636068D01*
X24367928Y-13716438D01*
X24367936Y-13716447D01*
X24433552Y-13782063D01*
X24433560Y-13782070D01*
X24513930Y-13828473D01*
X24513937Y-13828477D01*
X24513964Y-13828485D01*
X24587515Y-13848192D01*
X24603592Y-13852500D01*
X24603593Y-13852500D01*
X24696407Y-13852500D01*
X24696408Y-13852500D01*
X24786060Y-13828478D01*
X24866440Y-13782070D01*
X24932070Y-13716440D01*
X24968669Y-13653048D01*
X24978477Y-13636062D01*
X24978478Y-13636059D01*
X25002498Y-13546414D01*
X25002500Y-13546408D01*
X25002500Y-13512327D01*
X25007257Y-13488412D01*
X25010533Y-13480503D01*
X25015242Y-13469133D01*
X25032306Y-13445602D01*
X26152386Y-12485532D01*
X26162441Y-12479360D01*
X26162421Y-12479329D01*
X26167533Y-12475912D01*
X26167539Y-12475910D01*
X26189409Y-12454038D01*
X26192888Y-12450817D01*
X26216377Y-12430685D01*
X26216378Y-12430682D01*
X26220182Y-12425841D01*
X26220212Y-12425864D01*
X26222522Y-12422680D01*
X26222489Y-12422658D01*
X26225907Y-12417541D01*
X26225910Y-12417539D01*
X26237748Y-12388956D01*
X26239731Y-12384646D01*
X26250915Y-12362600D01*
X26253294Y-12359150D01*
X26253545Y-12358987D01*
X26255418Y-12351149D01*
X26255419Y-12351150D01*
X26256335Y-12347318D01*
X26256334Y-12347317D01*
X26259042Y-12335990D01*
X26257500Y-12330747D01*
X26257500Y-12311563D01*
X26257545Y-12309190D01*
X26257639Y-12306741D01*
X26257772Y-12304426D01*
X26259280Y-12284818D01*
X26261139Y-12279836D01*
X26259085Y-12266944D01*
X26258277Y-12261874D01*
X26257500Y-12252043D01*
X26257500Y-11129817D01*
X26257802Y-11123677D01*
X26258410Y-11117538D01*
X26259315Y-11111464D01*
X26261565Y-11100221D01*
X26259279Y-11088665D01*
X26258390Y-11082633D01*
X26257798Y-11076588D01*
X26257500Y-11070496D01*
X26257500Y-11058726D01*
X26257407Y-11058333D01*
X26256652Y-11056679D01*
X26254384Y-11051204D01*
X26253110Y-11048128D01*
X26251047Y-11042357D01*
X26249253Y-11036434D01*
X26247769Y-11030485D01*
X26245546Y-11019244D01*
X26243676Y-11016439D01*
X26239009Y-11009439D01*
X26235879Y-11004207D01*
X26233015Y-10998839D01*
X26230415Y-10993336D01*
X26225911Y-10982462D01*
X26217812Y-10974363D01*
X26213676Y-10969798D01*
X26213430Y-10969498D01*
X26209773Y-10965037D01*
X26206115Y-10960098D01*
X25811112Y-10367593D01*
X25471390Y-9858011D01*
X25462083Y-9835474D01*
X25460395Y-9826942D01*
X25469777Y-9780037D01*
X25509578Y-9753503D01*
X25545622Y-9757071D01*
X25562467Y-9764049D01*
X25582741Y-9777596D01*
X26515403Y-10710258D01*
X26528950Y-10730532D01*
X26537742Y-10751757D01*
X26542500Y-10775674D01*
X26542500Y-12719325D01*
X26537742Y-12743243D01*
X26535053Y-12749733D01*
X26528951Y-12764466D01*
X26515403Y-12784741D01*
X22730364Y-16569779D01*
X22730363Y-16569780D01*
X22695500Y-16653950D01*
X22695500Y-17632169D01*
X22690742Y-17656087D01*
X22689436Y-17659240D01*
X22681952Y-17677308D01*
X22668404Y-17697583D01*
X22642441Y-17723546D01*
X22642428Y-17723560D01*
X22596025Y-17803930D01*
X22596021Y-17803937D01*
X22596014Y-17803964D01*
X22572000Y-17893585D01*
X22572000Y-17986413D01*
X22596014Y-18076034D01*
X22596021Y-18076061D01*
X22596025Y-18076068D01*
X22642428Y-18156438D01*
X22642436Y-18156447D01*
X22708052Y-18222063D01*
X22708060Y-18222070D01*
X22788430Y-18268473D01*
X22788437Y-18268477D01*
X22788464Y-18268485D01*
X22853830Y-18285999D01*
X22878092Y-18292500D01*
X22878093Y-18292500D01*
X22970907Y-18292500D01*
X22970908Y-18292500D01*
X23060560Y-18268478D01*
X23140940Y-18222070D01*
X23206570Y-18156440D01*
X23243169Y-18093048D01*
X23252977Y-18076062D01*
X23252978Y-18076059D01*
X23256378Y-18063370D01*
X23277000Y-17986408D01*
X23277000Y-17893592D01*
X23265625Y-17851138D01*
X23252985Y-17803964D01*
X23252977Y-17803937D01*
X23252973Y-17803930D01*
X23206570Y-17723560D01*
X23206563Y-17723552D01*
X23180596Y-17697585D01*
X23167049Y-17677311D01*
X23158256Y-17656084D01*
X23153500Y-17632169D01*
X23153500Y-16832674D01*
X23158256Y-16808760D01*
X23167050Y-16787529D01*
X23180593Y-16767261D01*
X25066357Y-14881498D01*
X26965637Y-12982218D01*
X27000500Y-12898051D01*
X27000500Y-12806949D01*
X27000500Y-10596949D01*
X26965637Y-10512782D01*
X26901218Y-10448363D01*
X25906596Y-9453741D01*
X25903125Y-9446662D01*
X25893048Y-9433466D01*
X25884256Y-9412240D01*
X25879500Y-9388325D01*
X25879500Y-9351594D01*
X25879500Y-9351593D01*
X25879499Y-9351587D01*
X25869326Y-9313625D01*
X25867731Y-9289302D01*
X25868916Y-9280303D01*
X25885904Y-9250874D01*
X25886043Y-9250369D01*
X25886272Y-9250237D01*
X25892830Y-9238879D01*
X25922780Y-9229386D01*
X25927581Y-9226645D01*
X25929649Y-9227209D01*
X25933421Y-9226014D01*
X25934600Y-9226061D01*
X25937991Y-9226200D01*
X25956468Y-9229788D01*
X26503119Y-9425021D01*
X28069160Y-9984321D01*
X28090081Y-9996844D01*
X28099684Y-10005538D01*
X28104037Y-10009478D01*
X28120035Y-10032384D01*
X28121522Y-10036064D01*
X28167928Y-10116438D01*
X28167936Y-10116447D01*
X28233552Y-10182063D01*
X28233560Y-10182070D01*
X28313930Y-10228473D01*
X28313937Y-10228477D01*
X28313964Y-10228485D01*
X28378247Y-10245709D01*
X28403592Y-10252500D01*
X28403593Y-10252500D01*
X28496407Y-10252500D01*
X28496408Y-10252500D01*
X28586060Y-10228478D01*
X28587098Y-10227879D01*
X28598321Y-10221399D01*
X28666440Y-10182070D01*
X28666445Y-10182065D01*
X28666448Y-10182061D01*
X28667982Y-10180886D01*
X28682105Y-10172731D01*
X28689006Y-10169872D01*
X28736840Y-10169870D01*
X28770665Y-10203692D01*
X28773242Y-10209914D01*
X28778000Y-10233830D01*
X28778000Y-10466169D01*
X28773242Y-10490086D01*
X28770667Y-10496305D01*
X28736841Y-10530128D01*
X28689009Y-10530128D01*
X28682027Y-10527235D01*
X28668794Y-10519236D01*
X28668637Y-10519462D01*
X28666443Y-10517931D01*
X28586068Y-10471525D01*
X28586061Y-10471521D01*
X28586034Y-10471513D01*
X28496424Y-10447503D01*
X28496415Y-10447501D01*
X28496414Y-10447501D01*
X28496409Y-10447500D01*
X28496408Y-10447500D01*
X28403589Y-10447500D01*
X28403579Y-10447502D01*
X28313964Y-10471514D01*
X28313937Y-10471521D01*
X28313930Y-10471525D01*
X28233560Y-10517928D01*
X28167928Y-10583560D01*
X28121525Y-10663930D01*
X28121521Y-10663937D01*
X28121514Y-10663964D01*
X28097500Y-10753585D01*
X28097500Y-10790325D01*
X28092742Y-10814244D01*
X28083951Y-10835466D01*
X28070403Y-10855741D01*
X27405864Y-11520279D01*
X27405861Y-11520283D01*
X27402017Y-11529563D01*
X27402018Y-11529564D01*
X27378400Y-11586585D01*
X27371000Y-11604450D01*
X27371000Y-12936324D01*
X27366242Y-12960243D01*
X27357451Y-12981465D01*
X27343903Y-13001740D01*
X24500609Y-15845033D01*
X24494468Y-15850420D01*
X24488021Y-15855368D01*
X24481218Y-15859913D01*
X24433560Y-15887428D01*
X24433551Y-15887435D01*
X24367935Y-15953051D01*
X24367930Y-15953057D01*
X24340413Y-16000718D01*
X24335870Y-16007517D01*
X24330921Y-16013966D01*
X24325535Y-16020107D01*
X24305863Y-16039780D01*
X24305862Y-16039782D01*
X24271000Y-16123946D01*
X24271000Y-16215053D01*
X24301474Y-16288622D01*
X24301475Y-16288624D01*
X24305861Y-16299215D01*
X24305864Y-16299219D01*
X24325532Y-16318887D01*
X24330924Y-16325036D01*
X24335872Y-16331485D01*
X24340412Y-16338280D01*
X24367922Y-16385928D01*
X24367924Y-16385932D01*
X24367940Y-16385952D01*
X24433551Y-16451562D01*
X24433560Y-16451570D01*
X24513930Y-16497973D01*
X24513937Y-16497977D01*
X24513964Y-16497985D01*
X24574724Y-16514265D01*
X24603592Y-16522000D01*
X24603593Y-16522000D01*
X24696406Y-16522000D01*
X24696407Y-16522000D01*
X24696408Y-16522000D01*
X24696416Y-16521998D01*
X24712396Y-16517716D01*
X24752433Y-16506987D01*
X24776761Y-16505393D01*
X24783435Y-16506271D01*
X24824861Y-16530188D01*
X24837243Y-16576383D01*
X24837055Y-16577813D01*
X24819282Y-16613860D01*
X24221061Y-17212081D01*
X24200785Y-17225629D01*
X24191995Y-17229270D01*
X24144161Y-17229271D01*
X24135370Y-17225630D01*
X24115092Y-17212081D01*
X24076447Y-17173436D01*
X24076438Y-17173428D01*
X23996068Y-17127025D01*
X23996061Y-17127021D01*
X23996034Y-17127013D01*
X23906424Y-17103003D01*
X23906415Y-17103001D01*
X23906414Y-17103001D01*
X23906409Y-17103000D01*
X23906408Y-17103000D01*
X23813589Y-17103000D01*
X23813579Y-17103002D01*
X23723964Y-17127014D01*
X23723937Y-17127021D01*
X23723930Y-17127025D01*
X23643560Y-17173428D01*
X23577928Y-17239060D01*
X23531525Y-17319430D01*
X23531521Y-17319437D01*
X23531514Y-17319464D01*
X23507500Y-17409085D01*
X23507500Y-17501913D01*
X23531514Y-17591534D01*
X23531521Y-17591561D01*
X23531525Y-17591568D01*
X23577928Y-17671938D01*
X23577936Y-17671947D01*
X23643552Y-17737563D01*
X23643560Y-17737570D01*
X23723930Y-17783973D01*
X23723937Y-17783977D01*
X23723964Y-17783985D01*
X23796227Y-17803347D01*
X23813592Y-17808000D01*
X23813593Y-17808000D01*
X23889929Y-17808000D01*
X23903493Y-17811501D01*
X23911310Y-17811771D01*
X23929123Y-17818256D01*
X23951936Y-17832791D01*
X23970282Y-17851137D01*
X23970283Y-17851137D01*
X23970284Y-17851138D01*
X23970873Y-17851382D01*
X23987146Y-17861260D01*
X23987635Y-17861671D01*
X23987636Y-17861671D01*
X23987637Y-17861672D01*
X24018980Y-17871564D01*
X24024077Y-17873419D01*
X24025134Y-17873857D01*
X24025167Y-17873875D01*
X24025331Y-17873939D01*
X24045700Y-17882376D01*
X24054449Y-17886000D01*
X24054452Y-17886000D01*
X24057044Y-17886516D01*
X24059823Y-17886729D01*
X24064708Y-17887481D01*
X24068737Y-17888102D01*
X24071214Y-17888701D01*
X24074511Y-17889089D01*
X24074512Y-17889090D01*
X24074515Y-17889091D01*
X24105942Y-17886350D01*
X24108590Y-17886178D01*
X24111356Y-17886057D01*
X24114043Y-17886000D01*
X24145550Y-17886000D01*
X24145551Y-17886000D01*
X24145551Y-17885999D01*
X24148167Y-17885478D01*
X24150791Y-17884617D01*
X24159967Y-17882373D01*
X24162705Y-17881923D01*
X24165269Y-17881178D01*
X24165270Y-17881177D01*
X24165273Y-17881177D01*
X24193242Y-17866626D01*
X24195636Y-17865445D01*
X24198113Y-17864290D01*
X24200568Y-17863209D01*
X24229718Y-17851137D01*
X24229721Y-17851132D01*
X24231953Y-17849641D01*
X24234045Y-17847843D01*
X24241631Y-17842283D01*
X24243989Y-17840819D01*
X24246094Y-17839133D01*
X24255524Y-17827900D01*
X24266372Y-17814977D01*
X24268138Y-17812964D01*
X24269992Y-17810941D01*
X24271830Y-17809022D01*
X26750800Y-15330052D01*
X26771072Y-15316507D01*
X26777293Y-15313931D01*
X26825127Y-15313932D01*
X26858949Y-15347753D01*
X26859500Y-15349083D01*
X26862125Y-15389196D01*
X26847513Y-15443669D01*
X26847511Y-15443680D01*
X26847487Y-15544133D01*
X26847487Y-15544137D01*
X26873462Y-15641166D01*
X26923665Y-15728172D01*
X27945604Y-16750609D01*
X27946191Y-16751214D01*
X27946560Y-16751583D01*
X27985347Y-16790370D01*
X28020171Y-16825212D01*
X28020175Y-16825215D01*
X28020179Y-16825219D01*
X28020183Y-16825221D01*
X28020246Y-16825269D01*
X28020253Y-16825276D01*
X28032021Y-16832070D01*
X28063943Y-16850500D01*
X28063941Y-16850503D01*
X28063954Y-16850506D01*
X28107161Y-16875466D01*
X28107165Y-16875467D01*
X28107238Y-16875498D01*
X28107243Y-16875499D01*
X28107246Y-16875501D01*
X28142654Y-16884988D01*
X28161227Y-16894021D01*
X28173908Y-16893368D01*
X28204182Y-16901488D01*
X28204192Y-16901489D01*
X28204195Y-16901490D01*
X28204260Y-16901499D01*
X28204265Y-16901499D01*
X28204269Y-16901500D01*
X28252397Y-16901500D01*
X28252410Y-16901500D01*
X28304632Y-16901513D01*
X28304634Y-16901512D01*
X28305618Y-16901512D01*
X28308569Y-16901513D01*
X28308570Y-16901512D01*
X28308877Y-16901513D01*
X28309928Y-16901500D01*
X30734569Y-16901500D01*
X30758489Y-16906259D01*
X30767278Y-16909900D01*
X30801098Y-16943717D01*
X30804740Y-16952509D01*
X30809500Y-16976431D01*
X30809500Y-18592234D01*
X30835493Y-18689235D01*
X30835498Y-18689251D01*
X30835499Y-18689254D01*
X30852914Y-18719418D01*
X30862990Y-18736870D01*
X30885724Y-18776247D01*
X31325922Y-19216445D01*
X31665993Y-19556515D01*
X31679539Y-19576786D01*
X31682116Y-19583006D01*
X31682117Y-19630841D01*
X31648297Y-19664665D01*
X31642082Y-19667240D01*
X31618159Y-19672000D01*
X21507721Y-19672000D01*
X21483803Y-19667242D01*
X21462590Y-19658455D01*
X21442303Y-19644897D01*
X20593329Y-18795482D01*
X20593325Y-18795479D01*
X20593316Y-18795473D01*
X20491886Y-18736876D01*
X20491883Y-18736875D01*
X20491881Y-18736874D01*
X20491879Y-18736873D01*
X20491865Y-18736868D01*
X20459568Y-18728205D01*
X20378711Y-18706516D01*
X20378697Y-18706514D01*
X20261531Y-18706485D01*
X20261530Y-18706485D01*
X20261529Y-18706485D01*
X20261527Y-18706485D01*
X20218774Y-18717929D01*
X20218773Y-18717928D01*
X20148340Y-18736781D01*
X20046858Y-18795338D01*
X20046855Y-18795340D01*
X20046853Y-18795342D01*
X19963986Y-18878166D01*
X19963980Y-18878173D01*
X19963978Y-18878175D01*
X19905374Y-18979616D01*
X19905369Y-18979630D01*
X19905365Y-18979645D01*
X19875016Y-19092787D01*
X19875014Y-19092801D01*
X19874992Y-19180872D01*
X19874984Y-19209969D01*
X19874985Y-19209970D01*
X19874985Y-19209971D01*
X19876717Y-19216440D01*
X19894284Y-19282070D01*
X19894283Y-19282070D01*
X19905281Y-19323158D01*
X19963839Y-19424641D01*
X19963841Y-19424644D01*
X20919808Y-20381107D01*
X20925973Y-20387275D01*
X20926134Y-20387459D01*
X20928910Y-20390235D01*
X20928911Y-20390236D01*
X20969283Y-20430608D01*
X20969290Y-20430623D01*
X20969294Y-20430620D01*
X21011668Y-20473016D01*
X21011758Y-20473085D01*
X21011762Y-20473087D01*
X21011764Y-20473089D01*
X21021665Y-20478805D01*
X21062558Y-20502415D01*
X21062556Y-20502418D01*
X21062571Y-20502422D01*
X21113138Y-20531635D01*
X21113216Y-20531667D01*
X21113230Y-20531670D01*
X21113236Y-20531674D01*
X21168836Y-20546571D01*
X21168847Y-20546580D01*
X21168849Y-20546575D01*
X21226299Y-20561985D01*
X21226313Y-20561985D01*
X21226408Y-20561998D01*
X21226415Y-20562000D01*
X21226421Y-20562000D01*
X21228260Y-20562000D01*
X21284885Y-20562000D01*
X21343471Y-20562015D01*
X21343474Y-20562014D01*
X21347431Y-20562015D01*
X21347432Y-20562014D01*
X21347791Y-20562015D01*
X21348871Y-20562000D01*
X32824582Y-20562000D01*
X32824585Y-20562000D01*
X32853793Y-20554173D01*
X32870656Y-20552048D01*
X32887189Y-20552232D01*
X32904008Y-20554733D01*
X33385586Y-20695364D01*
X33407210Y-20706635D01*
X33418573Y-20715764D01*
X33439971Y-20748964D01*
X33440542Y-20751196D01*
X33442500Y-20766714D01*
X33442500Y-21462558D01*
X33447553Y-21487959D01*
X33448697Y-21493713D01*
X33449000Y-21496793D01*
X33449897Y-21499749D01*
X33478074Y-21541919D01*
X33478075Y-21541920D01*
X33478077Y-21541922D01*
X33506257Y-21560750D01*
X33506256Y-21560751D01*
X33506260Y-21560752D01*
X33510362Y-21563493D01*
X33520251Y-21570101D01*
X33520252Y-21570102D01*
X33536203Y-21573275D01*
X33558728Y-21582604D01*
X33562138Y-21584882D01*
X33588718Y-21624653D01*
X33579390Y-21671570D01*
X33545593Y-21696652D01*
X33545106Y-21696800D01*
X33526933Y-21699500D01*
X2443219Y-21699500D01*
X2419302Y-21694742D01*
X2413853Y-21692485D01*
X2380030Y-21658660D01*
X2380031Y-21610825D01*
X2404839Y-21581625D01*
X2404889Y-21581594D01*
X2418505Y-21575273D01*
X2624743Y-21508264D01*
X2852996Y-21391963D01*
X3060245Y-21241388D01*
X3241388Y-21060245D01*
X3391963Y-20852996D01*
X3508264Y-20624743D01*
X3587426Y-20381107D01*
X3627500Y-20128087D01*
X3627500Y-19871913D01*
X3587426Y-19618893D01*
X3508264Y-19375257D01*
X3391963Y-19147004D01*
X3242080Y-18940708D01*
X3241523Y-18939906D01*
X3241432Y-18939798D01*
X3060256Y-18758621D01*
X3060248Y-18758615D01*
X3060245Y-18758612D01*
X2852996Y-18608037D01*
X2821963Y-18592225D01*
X2624744Y-18491736D01*
X2624741Y-18491735D01*
X2624742Y-18491735D01*
X2624689Y-18491717D01*
X2381110Y-18412574D01*
X2381111Y-18412574D01*
X2380932Y-18412530D01*
X2380057Y-18412407D01*
X2200551Y-18383977D01*
X2128089Y-18372500D01*
X2128088Y-18372500D01*
X2128087Y-18372500D01*
X1920105Y-18372500D01*
X1896189Y-18367742D01*
X1889967Y-18365165D01*
X1856146Y-18331341D01*
X1856066Y-18283704D01*
X1856083Y-18283662D01*
X1886752Y-18251794D01*
X1886618Y-18251562D01*
X1886578Y-18251502D01*
X1886581Y-18251499D01*
X1886520Y-18251393D01*
X1887232Y-18250979D01*
X1887201Y-18250916D01*
X1887966Y-18250533D01*
X1887984Y-18250515D01*
X1888171Y-18250428D01*
X1888199Y-18250417D01*
X1888207Y-18250413D01*
X2011371Y-18168117D01*
X2116117Y-18063371D01*
X2198412Y-17940207D01*
X2255101Y-17803348D01*
X2273471Y-17711000D01*
X1890005Y-17711000D01*
X1845811Y-17692694D01*
X1827505Y-17648500D01*
X1829635Y-17632323D01*
X1831999Y-17623499D01*
X1832000Y-17623494D01*
X1832000Y-17544505D01*
X1831999Y-17544500D01*
X1829635Y-17535677D01*
X1835878Y-17488251D01*
X1873828Y-17459130D01*
X1890005Y-17457000D01*
X2273470Y-17457000D01*
X2273470Y-17456999D01*
X4291508Y-17456999D01*
X4291509Y-17457000D01*
X4623995Y-17457000D01*
X4668189Y-17475306D01*
X4686495Y-17519500D01*
X4684365Y-17535677D01*
X4682000Y-17544500D01*
X4682000Y-17623499D01*
X4684365Y-17632323D01*
X4678122Y-17679749D01*
X4640172Y-17708870D01*
X4623995Y-17711000D01*
X4291509Y-17711000D01*
X4306976Y-17788762D01*
X4306979Y-17788774D01*
X4306982Y-17788781D01*
X4348737Y-17889584D01*
X4359895Y-17916522D01*
X4359896Y-17916524D01*
X4436720Y-18031498D01*
X4534501Y-18129279D01*
X4649475Y-18206103D01*
X4649477Y-18206104D01*
X4777226Y-18259020D01*
X4777233Y-18259022D01*
X4906820Y-18284798D01*
X4910782Y-18286000D01*
X4912859Y-18286000D01*
X5305000Y-18286000D01*
X5305000Y-17946500D01*
X5323306Y-17902306D01*
X5367500Y-17884000D01*
X5496500Y-17884000D01*
X5540694Y-17902306D01*
X5559000Y-17946500D01*
X5559000Y-18286000D01*
X5951141Y-18286000D01*
X5962814Y-18286000D01*
X5969735Y-18282300D01*
X6086766Y-18259022D01*
X6086773Y-18259020D01*
X6214522Y-18206104D01*
X6214524Y-18206103D01*
X6329498Y-18129279D01*
X6427279Y-18031498D01*
X6504103Y-17916524D01*
X6504104Y-17916522D01*
X6557020Y-17788773D01*
X6557022Y-17788766D01*
X6572491Y-17711000D01*
X6240005Y-17711000D01*
X6195811Y-17692694D01*
X6177505Y-17648500D01*
X6179635Y-17632323D01*
X6181999Y-17623499D01*
X6182000Y-17623494D01*
X6182000Y-17544505D01*
X6181999Y-17544500D01*
X6179635Y-17535677D01*
X6185878Y-17488251D01*
X6223828Y-17459130D01*
X6240005Y-17457000D01*
X6572491Y-17457000D01*
X6572491Y-17456999D01*
X6572491Y-17456998D01*
X6557022Y-17379233D01*
X6557020Y-17379226D01*
X6504104Y-17251477D01*
X6504103Y-17251475D01*
X6427279Y-17136501D01*
X6329498Y-17038720D01*
X6214524Y-16961896D01*
X6214522Y-16961895D01*
X6170637Y-16943717D01*
X6086781Y-16908982D01*
X6086774Y-16908979D01*
X6086762Y-16908976D01*
X5951141Y-16882000D01*
X5559000Y-16882000D01*
X5559000Y-17221500D01*
X5540694Y-17265694D01*
X5496500Y-17284000D01*
X5367500Y-17284000D01*
X5323306Y-17265694D01*
X5305000Y-17221500D01*
X5305000Y-16882000D01*
X4912859Y-16882000D01*
X4912858Y-16882000D01*
X4777236Y-16908976D01*
X4777224Y-16908979D01*
X4777217Y-16908982D01*
X4649488Y-16961890D01*
X4649471Y-16961898D01*
X4534498Y-17038722D01*
X4436722Y-17136498D01*
X4359898Y-17251471D01*
X4359890Y-17251488D01*
X4306982Y-17379217D01*
X4306979Y-17379224D01*
X4306977Y-17379233D01*
X4291508Y-17456999D01*
X2273470Y-17456999D01*
X2255101Y-17364651D01*
X2198412Y-17227792D01*
X2198410Y-17227790D01*
X2198410Y-17227788D01*
X2116117Y-17104628D01*
X2011370Y-16999881D01*
X1888210Y-16917588D01*
X1888207Y-16917587D01*
X1751349Y-16860898D01*
X1751346Y-16860897D01*
X1606066Y-16832000D01*
X1359000Y-16832000D01*
X1359000Y-17221500D01*
X1340694Y-17265694D01*
X1296500Y-17284000D01*
X1167500Y-17284000D01*
X1123306Y-17265694D01*
X1105000Y-17221500D01*
X1105000Y-16832000D01*
X857934Y-16832000D01*
X712652Y-16860897D01*
X712649Y-16860898D01*
X575791Y-16917587D01*
X575788Y-16917588D01*
X452628Y-16999881D01*
X452626Y-16999883D01*
X452626Y-16999884D01*
X433691Y-17018819D01*
X415982Y-17036528D01*
X395706Y-17050075D01*
X389492Y-17052649D01*
X341657Y-17052650D01*
X307832Y-17018825D01*
X305254Y-17012601D01*
X300500Y-16988691D01*
X300500Y-16069936D01*
X4311500Y-16069936D01*
X4311500Y-16228062D01*
X4352413Y-16380755D01*
X4352421Y-16380782D01*
X4352425Y-16380789D01*
X4370515Y-16412120D01*
X4370516Y-16412123D01*
X4431477Y-16517711D01*
X4431480Y-16517716D01*
X4543284Y-16629520D01*
X4680216Y-16708577D01*
X4680219Y-16708578D01*
X4739343Y-16724420D01*
X4780612Y-16735478D01*
X4832938Y-16749499D01*
X4832941Y-16749499D01*
X4832943Y-16749500D01*
X4832944Y-16749500D01*
X4991056Y-16749500D01*
X4991057Y-16749500D01*
X5143784Y-16708577D01*
X5280716Y-16629520D01*
X5392520Y-16517716D01*
X5471577Y-16380784D01*
X5512500Y-16228057D01*
X5512500Y-16069943D01*
X5471577Y-15917216D01*
X5392520Y-15780284D01*
X5336757Y-15724521D01*
X5280721Y-15668484D01*
X5280712Y-15668477D01*
X5184465Y-15612908D01*
X5184465Y-15612909D01*
X5143784Y-15589422D01*
X5143755Y-15589413D01*
X4991073Y-15548503D01*
X4991064Y-15548501D01*
X4991063Y-15548501D01*
X4991058Y-15548500D01*
X4991057Y-15548500D01*
X4832940Y-15548500D01*
X4832930Y-15548502D01*
X4680243Y-15589413D01*
X4680216Y-15589421D01*
X4680204Y-15589427D01*
X4590594Y-15641165D01*
X4590594Y-15641166D01*
X4543278Y-15668483D01*
X4431482Y-15780279D01*
X4425254Y-15791067D01*
X4423273Y-15794500D01*
X4422286Y-15796209D01*
X4422285Y-15796210D01*
X4352423Y-15917211D01*
X4352422Y-15917214D01*
X4352422Y-15917215D01*
X4352413Y-15917243D01*
X4311500Y-16069936D01*
X300500Y-16069936D01*
X300500Y-10289936D01*
X4311500Y-10289936D01*
X4311500Y-10448062D01*
X4352413Y-10600755D01*
X4352420Y-10600777D01*
X4352443Y-10600845D01*
X4352886Y-10601586D01*
X4431480Y-10737716D01*
X4543284Y-10849520D01*
X4680216Y-10928577D01*
X4680219Y-10928578D01*
X4708150Y-10936062D01*
X4832943Y-10969500D01*
X4832944Y-10969500D01*
X4991056Y-10969500D01*
X4991057Y-10969500D01*
X5143784Y-10928577D01*
X5280716Y-10849520D01*
X5392520Y-10737716D01*
X5471577Y-10600784D01*
X5512500Y-10448057D01*
X5512500Y-10289943D01*
X5511043Y-10284507D01*
X5495870Y-10227879D01*
X5490330Y-10207204D01*
X5471578Y-10137219D01*
X5471577Y-10137216D01*
X5471575Y-10137212D01*
X5471573Y-10137208D01*
X5468526Y-10131930D01*
X5468526Y-10131931D01*
X5468525Y-10131929D01*
X5392520Y-10000284D01*
X5392518Y-10000282D01*
X5392515Y-10000278D01*
X5280721Y-9888484D01*
X5280712Y-9888477D01*
X5184465Y-9832908D01*
X5184465Y-9832909D01*
X5143784Y-9809422D01*
X5143755Y-9809413D01*
X4991073Y-9768503D01*
X4991064Y-9768501D01*
X4991063Y-9768501D01*
X4991058Y-9768500D01*
X4991057Y-9768500D01*
X4832940Y-9768500D01*
X4832930Y-9768502D01*
X4680243Y-9809413D01*
X4680216Y-9809421D01*
X4680204Y-9809427D01*
X4613971Y-9847668D01*
X4543280Y-9888481D01*
X4431482Y-10000279D01*
X4419783Y-10020541D01*
X4419784Y-10020542D01*
X4352421Y-10137216D01*
X4352413Y-10137243D01*
X4311500Y-10289936D01*
X300500Y-10289936D01*
X300500Y-9529308D01*
X305254Y-9505399D01*
X307831Y-9499177D01*
X341650Y-9465352D01*
X389483Y-9465347D01*
X395714Y-9467927D01*
X415984Y-9481473D01*
X452628Y-9518117D01*
X575788Y-9600410D01*
X575790Y-9600410D01*
X575792Y-9600412D01*
X712651Y-9657101D01*
X851895Y-9684798D01*
X855857Y-9686000D01*
X857934Y-9686000D01*
X1105000Y-9686000D01*
X1105000Y-9296500D01*
X1123306Y-9252306D01*
X1167500Y-9234000D01*
X1296500Y-9234000D01*
X1340694Y-9252306D01*
X1359000Y-9296500D01*
X1359000Y-9686000D01*
X1606066Y-9686000D01*
X1617739Y-9686000D01*
X1624660Y-9682300D01*
X1751348Y-9657101D01*
X1888207Y-9600412D01*
X2011371Y-9518117D01*
X2116117Y-9413371D01*
X2198412Y-9290207D01*
X2255101Y-9153348D01*
X2273471Y-9061000D01*
X1890005Y-9061000D01*
X1845811Y-9042694D01*
X1827505Y-8998500D01*
X1829635Y-8982323D01*
X1831999Y-8973499D01*
X1832000Y-8973494D01*
X1832000Y-8894505D01*
X1831999Y-8894500D01*
X1829635Y-8885677D01*
X1835878Y-8838251D01*
X1873828Y-8809130D01*
X1890005Y-8807000D01*
X2273470Y-8807000D01*
X2273470Y-8806999D01*
X2273470Y-8806998D01*
X4291508Y-8806998D01*
X4291508Y-8806999D01*
X4291509Y-8807000D01*
X4623995Y-8807000D01*
X4668189Y-8825306D01*
X4686495Y-8869500D01*
X4684365Y-8885677D01*
X4682000Y-8894500D01*
X4682000Y-8973499D01*
X4684365Y-8982323D01*
X4678122Y-9029749D01*
X4640172Y-9058870D01*
X4623995Y-9061000D01*
X4291509Y-9061000D01*
X4306976Y-9138762D01*
X4306979Y-9138774D01*
X4306982Y-9138781D01*
X4353149Y-9250237D01*
X4359895Y-9266522D01*
X4359896Y-9266524D01*
X4436720Y-9381498D01*
X4534501Y-9479279D01*
X4649475Y-9556103D01*
X4649477Y-9556104D01*
X4777226Y-9609020D01*
X4777233Y-9609022D01*
X4906820Y-9634798D01*
X4910782Y-9636000D01*
X4912859Y-9636000D01*
X5305000Y-9636000D01*
X5305000Y-9296500D01*
X5323306Y-9252306D01*
X5367500Y-9234000D01*
X5496500Y-9234000D01*
X5540694Y-9252306D01*
X5559000Y-9296500D01*
X5559000Y-9636000D01*
X5951141Y-9636000D01*
X5962814Y-9636000D01*
X5969735Y-9632300D01*
X6086766Y-9609022D01*
X6086773Y-9609020D01*
X6214522Y-9556104D01*
X6214524Y-9556103D01*
X6329498Y-9479279D01*
X6427279Y-9381498D01*
X6504103Y-9266524D01*
X6504104Y-9266522D01*
X6557020Y-9138773D01*
X6557022Y-9138766D01*
X6572491Y-9061000D01*
X6240005Y-9061000D01*
X6195811Y-9042694D01*
X6177505Y-8998500D01*
X6179635Y-8982323D01*
X6181999Y-8973499D01*
X6182000Y-8973494D01*
X6182000Y-8894505D01*
X6181999Y-8894500D01*
X6179635Y-8885677D01*
X6185878Y-8838251D01*
X6223828Y-8809130D01*
X6240005Y-8807000D01*
X6572491Y-8807000D01*
X6572491Y-8806999D01*
X6567691Y-8782867D01*
X6557022Y-8729233D01*
X6557020Y-8729226D01*
X6504104Y-8601477D01*
X6504103Y-8601475D01*
X6427279Y-8486501D01*
X6329498Y-8388720D01*
X6214524Y-8311896D01*
X6214522Y-8311895D01*
X6148591Y-8284585D01*
X6086781Y-8258982D01*
X6086774Y-8258979D01*
X6086762Y-8258976D01*
X5951141Y-8232000D01*
X5559000Y-8232000D01*
X5559000Y-8571500D01*
X5540694Y-8615694D01*
X5496500Y-8634000D01*
X5367500Y-8634000D01*
X5323306Y-8615694D01*
X5305000Y-8571500D01*
X5305000Y-8232000D01*
X4912859Y-8232000D01*
X4912858Y-8232000D01*
X4777236Y-8258976D01*
X4777224Y-8258979D01*
X4777217Y-8258982D01*
X4649488Y-8311890D01*
X4649471Y-8311898D01*
X4534498Y-8388722D01*
X4436722Y-8486498D01*
X4359898Y-8601471D01*
X4359890Y-8601488D01*
X4306982Y-8729217D01*
X4306979Y-8729224D01*
X4306976Y-8729236D01*
X4291508Y-8806998D01*
X2273470Y-8806998D01*
X2255101Y-8714651D01*
X2198412Y-8577792D01*
X2198410Y-8577790D01*
X2198410Y-8577788D01*
X2116117Y-8454628D01*
X2011370Y-8349881D01*
X1888210Y-8267588D01*
X1888207Y-8267587D01*
X1751349Y-8210898D01*
X1751346Y-8210897D01*
X1606066Y-8182000D01*
X1359000Y-8182000D01*
X1359000Y-8571500D01*
X1340694Y-8615694D01*
X1296500Y-8634000D01*
X1167500Y-8634000D01*
X1123306Y-8615694D01*
X1105000Y-8571500D01*
X1105000Y-8182000D01*
X857934Y-8182000D01*
X712652Y-8210897D01*
X712649Y-8210898D01*
X575791Y-8267587D01*
X575788Y-8267588D01*
X452628Y-8349881D01*
X452628Y-8349882D01*
X452626Y-8349884D01*
X433691Y-8368819D01*
X415982Y-8386528D01*
X395706Y-8400075D01*
X389492Y-8402649D01*
X341657Y-8402650D01*
X307832Y-8368825D01*
X305254Y-8362601D01*
X300500Y-8338691D01*
X300500Y-5683499D01*
X2329611Y-5683499D01*
X2329611Y-5683500D01*
X2762653Y-5683500D01*
X2806847Y-5701806D01*
X2825153Y-5746000D01*
X2825000Y-5748328D01*
X2825000Y-5873840D01*
X2822739Y-5873840D01*
X2812247Y-5913036D01*
X2770826Y-5936963D01*
X2762653Y-5937500D01*
X2329611Y-5937500D01*
X2358383Y-6082148D01*
X2358383Y-6082149D01*
X2359584Y-6088188D01*
X2431343Y-6261426D01*
X2431352Y-6261446D01*
X2535532Y-6417362D01*
X2668136Y-6549966D01*
X2824052Y-6654146D01*
X2824053Y-6654146D01*
X2824057Y-6654149D01*
X2824061Y-6654151D01*
X2915136Y-6691876D01*
X2997292Y-6725907D01*
X2997307Y-6725912D01*
X2997310Y-6725914D01*
X2997313Y-6725915D01*
X3147999Y-6755888D01*
X3148000Y-6755887D01*
X3148000Y-6322847D01*
X3166306Y-6278653D01*
X3210500Y-6260347D01*
X3212826Y-6260500D01*
X3338341Y-6260500D01*
X3338341Y-6262763D01*
X3377530Y-6273249D01*
X3401462Y-6314667D01*
X3402000Y-6322847D01*
X3402000Y-6755888D01*
X3552686Y-6725915D01*
X3552689Y-6725914D01*
X3725938Y-6654151D01*
X3725942Y-6654149D01*
X3881863Y-6549966D01*
X4014466Y-6417363D01*
X4118649Y-6261442D01*
X4118651Y-6261438D01*
X4190415Y-6088187D01*
X4190415Y-6088186D01*
X4220389Y-5937500D01*
X3787347Y-5937500D01*
X3787230Y-5937451D01*
X3787113Y-5937500D01*
X3765085Y-5928278D01*
X3743153Y-5919194D01*
X3743104Y-5919077D01*
X3742987Y-5919028D01*
X3742561Y-5917765D01*
X3724847Y-5875000D01*
X3724847Y-5874766D01*
X3724863Y-5870251D01*
X3725000Y-5869744D01*
X3725000Y-5838296D01*
X6422500Y-5838296D01*
X6422500Y-5842097D01*
X6422500Y-5937708D01*
X6446095Y-6025757D01*
X6446637Y-6029875D01*
X6449811Y-6037539D01*
X6452339Y-6040833D01*
X6485758Y-6098717D01*
X6492148Y-6109784D01*
X6497927Y-6119793D01*
X6497937Y-6119804D01*
X6568203Y-6190070D01*
X6568207Y-6190072D01*
X6568208Y-6190073D01*
X6568210Y-6190075D01*
X6654291Y-6239774D01*
X6654294Y-6239775D01*
X6696614Y-6251114D01*
X6696616Y-6251114D01*
X6696622Y-6251116D01*
X6744195Y-6263864D01*
X6745549Y-6264378D01*
X6749390Y-6265285D01*
X6750244Y-6265500D01*
X6750301Y-6265500D01*
X6750302Y-6265500D01*
X6849698Y-6265500D01*
X6849699Y-6265500D01*
X6936118Y-6242344D01*
X6945706Y-6239775D01*
X6945706Y-6239774D01*
X6945709Y-6239774D01*
X6966126Y-6227985D01*
X6981199Y-6221742D01*
X6996557Y-6217628D01*
X7012727Y-6215500D01*
X15487273Y-6215500D01*
X15503446Y-6217628D01*
X15518799Y-6221742D01*
X15533873Y-6227985D01*
X15554291Y-6239774D01*
X15596614Y-6251114D01*
X15596616Y-6251114D01*
X15596622Y-6251116D01*
X15644195Y-6263864D01*
X15645549Y-6264378D01*
X15649390Y-6265285D01*
X15650244Y-6265500D01*
X15650301Y-6265500D01*
X15650302Y-6265500D01*
X15749698Y-6265500D01*
X15749699Y-6265500D01*
X15749707Y-6265498D01*
X15757575Y-6263389D01*
X15845709Y-6239774D01*
X15931790Y-6190075D01*
X16002075Y-6119790D01*
X16051774Y-6033709D01*
X16075389Y-5945575D01*
X16077499Y-5937703D01*
X16077500Y-5937697D01*
X16077500Y-5838302D01*
X16077499Y-5838296D01*
X16058657Y-5767978D01*
X16051774Y-5742291D01*
X16002075Y-5656210D01*
X16002073Y-5656208D01*
X16002072Y-5656207D01*
X16002070Y-5656203D01*
X15931793Y-5585926D01*
X15852833Y-5540338D01*
X15849542Y-5537812D01*
X15841875Y-5534637D01*
X15837758Y-5534095D01*
X15749708Y-5510500D01*
X15749703Y-5510500D01*
X15749699Y-5510500D01*
X15650301Y-5510500D01*
X15650296Y-5510500D01*
X15650290Y-5510500D01*
X15562242Y-5534095D01*
X15562238Y-5534095D01*
X15554287Y-5536226D01*
X15533874Y-5548012D01*
X15518801Y-5554256D01*
X15503448Y-5558370D01*
X15487271Y-5560500D01*
X7012729Y-5560500D01*
X6996550Y-5558370D01*
X6981195Y-5554255D01*
X6966125Y-5548012D01*
X6945710Y-5536226D01*
X6945707Y-5536225D01*
X6849708Y-5510500D01*
X6849703Y-5510500D01*
X6849699Y-5510500D01*
X6750301Y-5510500D01*
X6750296Y-5510500D01*
X6750290Y-5510500D01*
X6662242Y-5534095D01*
X6662237Y-5534095D01*
X6662238Y-5534096D01*
X6654289Y-5536225D01*
X6568208Y-5585926D01*
X6568204Y-5585929D01*
X6568195Y-5585937D01*
X6497937Y-5656195D01*
X6497929Y-5656204D01*
X6497926Y-5656208D01*
X6448225Y-5742289D01*
X6446161Y-5749993D01*
X6446144Y-5750056D01*
X6422500Y-5838296D01*
X3725000Y-5838296D01*
X3725000Y-5751256D01*
X3725000Y-5747160D01*
X3727261Y-5747160D01*
X3737753Y-5707964D01*
X3779174Y-5684037D01*
X3787347Y-5683500D01*
X4220389Y-5683500D01*
X4223113Y-5676922D01*
X4216689Y-5664903D01*
X4214959Y-5656208D01*
X4190415Y-5532813D01*
X4190415Y-5532812D01*
X4189997Y-5531804D01*
X4122485Y-5368818D01*
X4118651Y-5359561D01*
X4118649Y-5359557D01*
X4051184Y-5258589D01*
X4014466Y-5203636D01*
X3881862Y-5071032D01*
X3725946Y-4966852D01*
X3725942Y-4966850D01*
X3725938Y-4966848D01*
X3641335Y-4931804D01*
X3552684Y-4895083D01*
X3385024Y-4861734D01*
X3362493Y-4852401D01*
X3356899Y-4848663D01*
X3330324Y-4808889D01*
X3339657Y-4761973D01*
X3379429Y-4735398D01*
X3545542Y-4702357D01*
X3671228Y-4650296D01*
X14622500Y-4650296D01*
X14622500Y-4654106D01*
X14622500Y-4749708D01*
X14646095Y-4837757D01*
X14646096Y-4837761D01*
X14648225Y-4845709D01*
X14673074Y-4888747D01*
X14673075Y-4888750D01*
X14697171Y-4930486D01*
X14697172Y-4930486D01*
X14697927Y-4931792D01*
X14697937Y-4931804D01*
X14768203Y-5002070D01*
X14768207Y-5002072D01*
X14768208Y-5002073D01*
X14768210Y-5002075D01*
X14854291Y-5051774D01*
X14896205Y-5063005D01*
X14915630Y-5068210D01*
X14944190Y-5075863D01*
X14945537Y-5076374D01*
X14949353Y-5077275D01*
X14950244Y-5077500D01*
X14950301Y-5077500D01*
X14950302Y-5077500D01*
X15049698Y-5077500D01*
X15049699Y-5077500D01*
X15145709Y-5051774D01*
X15145712Y-5051772D01*
X15145713Y-5051772D01*
X15145713Y-5051771D01*
X15145925Y-5051715D01*
X15147448Y-5050770D01*
X15156505Y-5045540D01*
X15156507Y-5045539D01*
X15168929Y-5038366D01*
X15186331Y-5028319D01*
X15199820Y-5022522D01*
X15206713Y-5020480D01*
X15213604Y-5018438D01*
X15228072Y-5015948D01*
X22401106Y-4638420D01*
X22418970Y-4640059D01*
X22423677Y-4641188D01*
X22435877Y-4644116D01*
X22452545Y-4650766D01*
X22454291Y-4651774D01*
X22454293Y-4651775D01*
X22544192Y-4675864D01*
X22545542Y-4676376D01*
X22549354Y-4677276D01*
X22550244Y-4677500D01*
X22550301Y-4677500D01*
X22550302Y-4677500D01*
X22649698Y-4677500D01*
X22649699Y-4677500D01*
X22745709Y-4651774D01*
X22831790Y-4602075D01*
X22902075Y-4531790D01*
X22951774Y-4445709D01*
X22976410Y-4353767D01*
X22977499Y-4349703D01*
X22977500Y-4349697D01*
X22977500Y-4250301D01*
X22977376Y-4249840D01*
X22977375Y-4249836D01*
X22956089Y-4170396D01*
X22954519Y-4164538D01*
X22951774Y-4154291D01*
X22946916Y-4145877D01*
X22902075Y-4068210D01*
X22902073Y-4068208D01*
X22902072Y-4068207D01*
X22902070Y-4068203D01*
X22831793Y-3997926D01*
X22752833Y-3952338D01*
X22749542Y-3949812D01*
X22741875Y-3946637D01*
X22737758Y-3946095D01*
X22649708Y-3922500D01*
X22649703Y-3922500D01*
X22649699Y-3922500D01*
X22550301Y-3922500D01*
X22550296Y-3922500D01*
X22550290Y-3922500D01*
X22454308Y-3948220D01*
X22454288Y-3948226D01*
X22454285Y-3948227D01*
X22413665Y-3971679D01*
X22400173Y-3977476D01*
X22386391Y-3981560D01*
X22371919Y-3984050D01*
X15198894Y-4361577D01*
X15181024Y-4359937D01*
X15164119Y-4355880D01*
X15147460Y-4349236D01*
X15145715Y-4348228D01*
X15145709Y-4348226D01*
X15145701Y-4348223D01*
X15145690Y-4348220D01*
X15049708Y-4322500D01*
X15049703Y-4322500D01*
X15049699Y-4322500D01*
X14950301Y-4322500D01*
X14950296Y-4322500D01*
X14950290Y-4322500D01*
X14862242Y-4346095D01*
X14862237Y-4346095D01*
X14862238Y-4346096D01*
X14854289Y-4348225D01*
X14768208Y-4397926D01*
X14768204Y-4397929D01*
X14768195Y-4397937D01*
X14697937Y-4468195D01*
X14697929Y-4468204D01*
X14697926Y-4468208D01*
X14648225Y-4554290D01*
X14646774Y-4559705D01*
X14646755Y-4559778D01*
X14622500Y-4650296D01*
X3671228Y-4650296D01*
X3714336Y-4632440D01*
X3866247Y-4530936D01*
X3995436Y-4401747D01*
X4096940Y-4249836D01*
X4166857Y-4081042D01*
X4202500Y-3901851D01*
X4202500Y-3719149D01*
X4166857Y-3539958D01*
X4096940Y-3371164D01*
X3995436Y-3219253D01*
X3866247Y-3090064D01*
X3866246Y-3090063D01*
X3866245Y-3090062D01*
X3714339Y-2988561D01*
X3714337Y-2988560D01*
X3588162Y-2936296D01*
X10122500Y-2936296D01*
X10122500Y-2940108D01*
X10122500Y-3035708D01*
X10146095Y-3123757D01*
X10146096Y-3123761D01*
X10148225Y-3131709D01*
X10169606Y-3168741D01*
X10197926Y-3217791D01*
X10197929Y-3217795D01*
X10197933Y-3217799D01*
X10197937Y-3217804D01*
X10268203Y-3288070D01*
X10268207Y-3288072D01*
X10268208Y-3288073D01*
X10268210Y-3288075D01*
X10354291Y-3337774D01*
X10354294Y-3337775D01*
X10396614Y-3349114D01*
X10396616Y-3349114D01*
X10396622Y-3349116D01*
X10444195Y-3361864D01*
X10445549Y-3362378D01*
X10449390Y-3363285D01*
X10450244Y-3363500D01*
X10450301Y-3363500D01*
X10450302Y-3363500D01*
X10549698Y-3363500D01*
X10549699Y-3363500D01*
X10613705Y-3346349D01*
X10645706Y-3337775D01*
X10645706Y-3337774D01*
X10645709Y-3337774D01*
X10666126Y-3325985D01*
X10681199Y-3319742D01*
X10696557Y-3315628D01*
X10712727Y-3313500D01*
X15437273Y-3313500D01*
X15453446Y-3315628D01*
X15468799Y-3319742D01*
X15483873Y-3325985D01*
X15504291Y-3337774D01*
X15546614Y-3349114D01*
X15546616Y-3349114D01*
X15546622Y-3349116D01*
X15594195Y-3361864D01*
X15595549Y-3362378D01*
X15599390Y-3363285D01*
X15600244Y-3363500D01*
X15600301Y-3363500D01*
X15600302Y-3363500D01*
X15699698Y-3363500D01*
X15699699Y-3363500D01*
X15699707Y-3363498D01*
X15707575Y-3361389D01*
X15795709Y-3337774D01*
X15881790Y-3288075D01*
X15952075Y-3217790D01*
X16001774Y-3131709D01*
X16027500Y-3035699D01*
X16027500Y-2936301D01*
X16026309Y-2931857D01*
X16007575Y-2861940D01*
X16001774Y-2840291D01*
X15952075Y-2754210D01*
X15952073Y-2754208D01*
X15952072Y-2754207D01*
X15952070Y-2754203D01*
X15881793Y-2683926D01*
X15802833Y-2638338D01*
X15799542Y-2635812D01*
X15791875Y-2632637D01*
X15787758Y-2632095D01*
X15699708Y-2608500D01*
X15699703Y-2608500D01*
X15699699Y-2608500D01*
X15600301Y-2608500D01*
X15600296Y-2608500D01*
X15600290Y-2608500D01*
X15512242Y-2632095D01*
X15512238Y-2632095D01*
X15504287Y-2634226D01*
X15483874Y-2646012D01*
X15468801Y-2652256D01*
X15453448Y-2656370D01*
X15437271Y-2658500D01*
X10712729Y-2658500D01*
X10696551Y-2656370D01*
X10681195Y-2652255D01*
X10666125Y-2646013D01*
X10659243Y-2642040D01*
X10659243Y-2642038D01*
X10659237Y-2642037D01*
X10652831Y-2638338D01*
X10649538Y-2635811D01*
X10641875Y-2632637D01*
X10637758Y-2632095D01*
X10549708Y-2608500D01*
X10549703Y-2608500D01*
X10549699Y-2608500D01*
X10450301Y-2608500D01*
X10450296Y-2608500D01*
X10450290Y-2608500D01*
X10362242Y-2632095D01*
X10362237Y-2632095D01*
X10362238Y-2632096D01*
X10354289Y-2634225D01*
X10268208Y-2683926D01*
X10268204Y-2683929D01*
X10268195Y-2683937D01*
X10197937Y-2754195D01*
X10197929Y-2754204D01*
X10197926Y-2754208D01*
X10148225Y-2840290D01*
X10146951Y-2845043D01*
X10146922Y-2845153D01*
X10122500Y-2936296D01*
X3588162Y-2936296D01*
X3545547Y-2918644D01*
X3545540Y-2918642D01*
X3366351Y-2883000D01*
X3183649Y-2883000D01*
X3183648Y-2883000D01*
X3004460Y-2918641D01*
X3004457Y-2918642D01*
X2835666Y-2988558D01*
X2835661Y-2988561D01*
X2835660Y-2988561D01*
X2683753Y-3090062D01*
X2554562Y-3219253D01*
X2453061Y-3371160D01*
X2453061Y-3371161D01*
X2453058Y-3371166D01*
X2383142Y-3539957D01*
X2383141Y-3539960D01*
X2347500Y-3719147D01*
X2347500Y-3901851D01*
X2383141Y-4081038D01*
X2383142Y-4081041D01*
X2453058Y-4249832D01*
X2453061Y-4249837D01*
X2453061Y-4249838D01*
X2539835Y-4379704D01*
X2554561Y-4401744D01*
X2554563Y-4401746D01*
X2554564Y-4401747D01*
X2683753Y-4530936D01*
X2835664Y-4632440D01*
X3004458Y-4702357D01*
X3105826Y-4722519D01*
X3105827Y-4722520D01*
X3126822Y-4726696D01*
X3164975Y-4734285D01*
X3187505Y-4743618D01*
X3193099Y-4747356D01*
X3219674Y-4787130D01*
X3210341Y-4834046D01*
X3170568Y-4860621D01*
X3003351Y-4893883D01*
X3003349Y-4893883D01*
X2997310Y-4895084D01*
X2824072Y-4966843D01*
X2824052Y-4966852D01*
X2668136Y-5071032D01*
X2535532Y-5203636D01*
X2431352Y-5359552D01*
X2431343Y-5359572D01*
X2359585Y-5532806D01*
X2359585Y-5532809D01*
X2359584Y-5532812D01*
X2359584Y-5532813D01*
X2346304Y-5599579D01*
X2329611Y-5683499D01*
X300500Y-5683499D01*
X300500Y-2003340D01*
X300539Y-2001130D01*
X300620Y-1998866D01*
X300735Y-1996712D01*
X310452Y-1860846D01*
X317320Y-1764804D01*
X317794Y-1760400D01*
X318433Y-1755954D01*
X319220Y-1751596D01*
X346568Y-1625877D01*
X367920Y-1527719D01*
X369021Y-1523411D01*
X370273Y-1519147D01*
X371675Y-1514932D01*
X451751Y-1300244D01*
X453436Y-1296174D01*
X455298Y-1292098D01*
X457270Y-1288158D01*
X567088Y-1087041D01*
X569342Y-1083242D01*
X571772Y-1079461D01*
X574291Y-1075833D01*
X711601Y-892407D01*
X714393Y-888945D01*
X717303Y-885587D01*
X720327Y-882338D01*
X882338Y-720327D01*
X885587Y-717303D01*
X888945Y-714393D01*
X892407Y-711601D01*
X1075829Y-574294D01*
X1079478Y-571762D01*
X1083226Y-569353D01*
X1087044Y-567086D01*
X1288158Y-457270D01*
X1292098Y-455298D01*
X1296174Y-453436D01*
X1300244Y-451751D01*
X1514932Y-371675D01*
X1519142Y-370274D01*
X1523411Y-369020D01*
X1527719Y-367920D01*
X1751613Y-319216D01*
X1755980Y-318429D01*
X1759130Y-317976D01*
X1760387Y-317796D01*
X1764807Y-317320D01*
X1996719Y-300734D01*
X1998867Y-300620D01*
X2001151Y-300538D01*
X2003341Y-300500D01*
X45556781Y-300500D01*
X45580692Y-305255D01*
G37*
%TD.AperFunction*%
%TA.AperFunction,Conductor*%
G36*
X1340694Y-17902306D02*
G01*
X1359000Y-17946500D01*
X1359000Y-18336000D01*
X1447523Y-18336000D01*
X1471434Y-18340755D01*
X1476883Y-18343012D01*
X1510709Y-18376834D01*
X1510712Y-18424669D01*
X1485465Y-18454142D01*
X1485419Y-18454170D01*
X1472239Y-18460223D01*
X1458857Y-18464572D01*
X1458854Y-18464573D01*
X1375270Y-18491730D01*
X1375256Y-18491735D01*
X1146999Y-18608039D01*
X982292Y-18727704D01*
X982293Y-18727705D01*
X982292Y-18727706D01*
X957462Y-18745748D01*
X956417Y-18746507D01*
X956413Y-18746510D01*
X939744Y-18758619D01*
X758624Y-18939739D01*
X758617Y-18939747D01*
X608038Y-19147000D01*
X491735Y-19375256D01*
X491717Y-19375309D01*
X426283Y-19576700D01*
X414362Y-19597984D01*
X410533Y-19602466D01*
X367909Y-19624177D01*
X322416Y-19609389D01*
X302189Y-19576246D01*
X302176Y-19576191D01*
X300500Y-19561814D01*
X300500Y-18179308D01*
X305254Y-18155399D01*
X307831Y-18149177D01*
X341650Y-18115352D01*
X389483Y-18115347D01*
X395714Y-18117927D01*
X415984Y-18131473D01*
X452628Y-18168117D01*
X575788Y-18250410D01*
X575790Y-18250410D01*
X575792Y-18250412D01*
X712651Y-18307101D01*
X851895Y-18334798D01*
X855857Y-18336000D01*
X857934Y-18336000D01*
X1105000Y-18336000D01*
X1105000Y-17946500D01*
X1123306Y-17902306D01*
X1167500Y-17884000D01*
X1296500Y-17884000D01*
X1340694Y-17902306D01*
G37*
%TD.AperFunction*%
%TA.AperFunction,Conductor*%
G36*
X13355018Y-9682255D02*
G01*
X13361240Y-9684832D01*
X13395064Y-9718654D01*
X13395067Y-9766489D01*
X13395055Y-9766517D01*
X13394503Y-9767848D01*
X13369990Y-9795794D01*
X13370407Y-9796391D01*
X13368213Y-9797921D01*
X13368203Y-9797929D01*
X13297936Y-9868195D01*
X13297929Y-9868204D01*
X13297926Y-9868208D01*
X13248225Y-9954289D01*
X13246096Y-9962238D01*
X13246095Y-9962240D01*
X13222500Y-10050290D01*
X13222500Y-10149708D01*
X13246095Y-10237757D01*
X13246096Y-10237761D01*
X13248225Y-10245709D01*
X13252145Y-10252498D01*
X13297926Y-10331791D01*
X13297929Y-10331795D01*
X13297933Y-10331799D01*
X13297937Y-10331804D01*
X13368203Y-10402070D01*
X13368207Y-10402072D01*
X13368208Y-10402073D01*
X13368210Y-10402075D01*
X13454291Y-10451774D01*
X13486536Y-10460414D01*
X13528001Y-10471525D01*
X13544191Y-10475863D01*
X13545539Y-10476375D01*
X13549353Y-10477275D01*
X13550244Y-10477500D01*
X13550301Y-10477500D01*
X13550302Y-10477500D01*
X13649698Y-10477500D01*
X13649699Y-10477500D01*
X13745709Y-10451774D01*
X13831790Y-10402075D01*
X13831795Y-10402070D01*
X13831795Y-10402069D01*
X13835043Y-10399579D01*
X13835637Y-10400353D01*
X13849540Y-10391050D01*
X13870771Y-10382256D01*
X13894685Y-10377500D01*
X14046736Y-10377500D01*
X14070653Y-10382257D01*
X14091876Y-10391048D01*
X14112151Y-10404596D01*
X14229611Y-10522056D01*
X14229613Y-10522057D01*
X14230699Y-10522684D01*
X14231909Y-10523819D01*
X14232861Y-10524549D01*
X14232788Y-10524643D01*
X14240800Y-10532154D01*
X14255026Y-10536729D01*
X14292889Y-10558589D01*
X14363466Y-10577500D01*
X14436534Y-10577500D01*
X14946736Y-10577500D01*
X14970653Y-10582257D01*
X14991876Y-10591048D01*
X15012151Y-10604596D01*
X15029611Y-10622056D01*
X15092889Y-10658589D01*
X15163466Y-10677500D01*
X16446736Y-10677500D01*
X16470653Y-10682257D01*
X16491876Y-10691048D01*
X16512151Y-10704596D01*
X17074748Y-11267192D01*
X17074759Y-11267204D01*
X17075761Y-11268206D01*
X17077944Y-11270389D01*
X17129611Y-11322056D01*
X17192889Y-11358589D01*
X17192892Y-11358589D01*
X17192916Y-11358600D01*
X17193353Y-11358713D01*
X17229883Y-11368501D01*
X17257357Y-11375864D01*
X17258707Y-11376376D01*
X17261933Y-11377138D01*
X17275210Y-11381909D01*
X17294081Y-11391214D01*
X17301115Y-11395271D01*
X17306253Y-11398698D01*
X17329611Y-11422056D01*
X17375395Y-11448489D01*
X17375394Y-11448489D01*
X17392885Y-11458587D01*
X17392886Y-11458587D01*
X17392889Y-11458589D01*
X17392893Y-11458590D01*
X17436817Y-11470359D01*
X17457357Y-11475864D01*
X17458707Y-11476376D01*
X17461933Y-11477138D01*
X17475210Y-11481909D01*
X17494075Y-11491211D01*
X17510626Y-11503071D01*
X17529612Y-11522057D01*
X17585764Y-11554476D01*
X17589054Y-11557000D01*
X17589101Y-11557020D01*
X17592782Y-11558835D01*
X17596669Y-11560155D01*
X17596722Y-11560177D01*
X17600837Y-11560718D01*
X17630135Y-11568569D01*
X17652003Y-11579352D01*
X17670230Y-11593337D01*
X17686309Y-11611671D01*
X17697924Y-11631789D01*
X17697929Y-11631795D01*
X17768204Y-11702070D01*
X17768213Y-11702077D01*
X17842305Y-11744855D01*
X17842306Y-11744855D01*
X17854289Y-11751773D01*
X17854291Y-11751774D01*
X17854294Y-11751775D01*
X17866162Y-11754955D01*
X17888035Y-11765742D01*
X17895584Y-11771535D01*
X17919493Y-11812903D01*
X17919589Y-11813627D01*
X17911757Y-11853093D01*
X17910302Y-11855613D01*
X17900373Y-11868553D01*
X16616714Y-13152399D01*
X16596440Y-13165948D01*
X16575220Y-13174740D01*
X16551297Y-13179500D01*
X16514589Y-13179500D01*
X16514579Y-13179502D01*
X16424964Y-13203514D01*
X16424937Y-13203521D01*
X16424930Y-13203525D01*
X16344560Y-13249928D01*
X16278928Y-13315560D01*
X16232525Y-13395930D01*
X16232521Y-13395937D01*
X16232514Y-13395964D01*
X16208500Y-13485585D01*
X16208500Y-13578413D01*
X16232514Y-13668034D01*
X16232521Y-13668061D01*
X16232525Y-13668068D01*
X16278928Y-13748438D01*
X16278929Y-13748439D01*
X16278934Y-13748445D01*
X16344554Y-13814065D01*
X16344560Y-13814070D01*
X16424937Y-13860477D01*
X16424940Y-13860478D01*
X16486418Y-13876951D01*
X16508284Y-13887734D01*
X16515835Y-13893528D01*
X16539753Y-13934955D01*
X16539758Y-13934993D01*
X16539853Y-13935718D01*
X16532010Y-13975087D01*
X16530558Y-13977602D01*
X16520627Y-13990546D01*
X16490766Y-14020409D01*
X16490764Y-14020410D01*
X16407916Y-14103256D01*
X16407915Y-14103257D01*
X16407914Y-14103259D01*
X16407912Y-14103262D01*
X16349328Y-14204729D01*
X16349324Y-14204736D01*
X16349317Y-14204763D01*
X16319000Y-14317908D01*
X16319000Y-15100068D01*
X16314240Y-15123992D01*
X16310598Y-15132782D01*
X16276784Y-15166597D01*
X16270757Y-15169094D01*
X16267992Y-15170239D01*
X16244069Y-15175000D01*
X15083688Y-15175000D01*
X15059768Y-15170241D01*
X15050971Y-15166597D01*
X15042993Y-15163292D01*
X15013914Y-15138676D01*
X14974750Y-15076013D01*
X14891653Y-14943058D01*
X14884578Y-14927169D01*
X14879920Y-14910929D01*
X14877500Y-14893703D01*
X14877500Y-13263469D01*
X14877492Y-13263437D01*
X14858731Y-13193420D01*
X14858601Y-13192919D01*
X14858589Y-13192892D01*
X14858589Y-13192889D01*
X14822056Y-13129611D01*
X14770389Y-13077944D01*
X14768211Y-13075766D01*
X14767708Y-13075263D01*
X14767663Y-13075219D01*
X13703071Y-12010626D01*
X13691211Y-11994075D01*
X13681864Y-11975119D01*
X13677552Y-11963663D01*
X13677499Y-11963468D01*
X13677499Y-11963462D01*
X13674865Y-11953635D01*
X13673881Y-11949359D01*
X13673039Y-11945004D01*
X13672353Y-11940625D01*
X13671138Y-11930539D01*
X13671138Y-11930535D01*
X13665818Y-11917284D01*
X13664539Y-11913798D01*
X13663346Y-11910217D01*
X13662283Y-11906676D01*
X13658589Y-11892889D01*
X13658588Y-11892888D01*
X13658584Y-11892871D01*
X13658360Y-11892491D01*
X13653510Y-11884092D01*
X13651436Y-11880188D01*
X13649494Y-11876196D01*
X13647704Y-11872157D01*
X13643920Y-11862727D01*
X13643776Y-11862535D01*
X13640823Y-11858597D01*
X13640816Y-11858589D01*
X13635352Y-11851303D01*
X13633224Y-11848280D01*
X13631146Y-11845134D01*
X13629196Y-11841979D01*
X13622056Y-11829611D01*
X13622052Y-11829606D01*
X13622048Y-11829602D01*
X13614868Y-11822422D01*
X13611847Y-11819179D01*
X13608957Y-11815847D01*
X13606172Y-11812396D01*
X13335362Y-11451316D01*
X13333207Y-11448256D01*
X13331152Y-11445144D01*
X13329196Y-11441980D01*
X13322055Y-11429611D01*
X13322053Y-11429609D01*
X13322052Y-11429608D01*
X13322050Y-11429604D01*
X13314874Y-11422428D01*
X13311874Y-11419209D01*
X13308947Y-11415835D01*
X13306178Y-11412404D01*
X13300079Y-11404272D01*
X13300077Y-11404270D01*
X13288852Y-11395459D01*
X13285990Y-11393071D01*
X13283174Y-11390573D01*
X13280466Y-11388022D01*
X13004595Y-11112151D01*
X12991048Y-11091877D01*
X12982255Y-11070650D01*
X12977499Y-11046735D01*
X12977499Y-10087539D01*
X12979169Y-10073188D01*
X12982426Y-10059388D01*
X12987347Y-10045812D01*
X13148670Y-9723165D01*
X13163621Y-9703902D01*
X13176445Y-9692781D01*
X13217392Y-9677500D01*
X13331108Y-9677500D01*
X13355018Y-9682255D01*
G37*
%TD.AperFunction*%
%TA.AperFunction,Conductor*%
G36*
X31938180Y-1075257D02*
G01*
X31959403Y-1084048D01*
X31979678Y-1097596D01*
X32636903Y-1754821D01*
X32650450Y-1775095D01*
X32659242Y-1796320D01*
X32664000Y-1820237D01*
X32664000Y-2388077D01*
X32659242Y-2411996D01*
X32653813Y-2425102D01*
X32627315Y-2455313D01*
X32624796Y-2456767D01*
X32609728Y-2463007D01*
X32543244Y-2480820D01*
X32543228Y-2480827D01*
X32543225Y-2480829D01*
X32441774Y-2539403D01*
X32441770Y-2539405D01*
X32441755Y-2539417D01*
X31980263Y-3000912D01*
X31070264Y-3910910D01*
X30987414Y-3993758D01*
X30987412Y-3993760D01*
X30987411Y-3993762D01*
X30987407Y-3993767D01*
X30928800Y-4095275D01*
X30928582Y-4096144D01*
X30925733Y-4106780D01*
X30925731Y-4106785D01*
X30907503Y-4174812D01*
X30907503Y-4174814D01*
X30898500Y-4208409D01*
X30898500Y-13454527D01*
X30893740Y-13478451D01*
X30890098Y-13487241D01*
X30856305Y-13521047D01*
X30855630Y-13521327D01*
X30815516Y-13523970D01*
X30812704Y-13523217D01*
X30797619Y-13516969D01*
X30776062Y-13504522D01*
X30776058Y-13504520D01*
X30686424Y-13480503D01*
X30686415Y-13480501D01*
X30686414Y-13480501D01*
X30686409Y-13480500D01*
X30686408Y-13480500D01*
X30649674Y-13480500D01*
X30625757Y-13475742D01*
X30604532Y-13466950D01*
X30584258Y-13453403D01*
X29756096Y-12625241D01*
X29742549Y-12604967D01*
X29733756Y-12583740D01*
X29729000Y-12559825D01*
X29729000Y-11107829D01*
X29733756Y-11083915D01*
X29742550Y-11062684D01*
X29756092Y-11042417D01*
X29782070Y-11016440D01*
X29805274Y-10976250D01*
X29828478Y-10936061D01*
X29828478Y-10936059D01*
X29835786Y-10908785D01*
X29852500Y-10846408D01*
X29852500Y-10753592D01*
X29839372Y-10704596D01*
X29828485Y-10663964D01*
X29828477Y-10663937D01*
X29828473Y-10663930D01*
X29782070Y-10583560D01*
X29782063Y-10583552D01*
X29716447Y-10517936D01*
X29716438Y-10517928D01*
X29636068Y-10471525D01*
X29636061Y-10471521D01*
X29636034Y-10471513D01*
X29546424Y-10447503D01*
X29546415Y-10447501D01*
X29546414Y-10447501D01*
X29546409Y-10447500D01*
X29546408Y-10447500D01*
X29453589Y-10447500D01*
X29453579Y-10447502D01*
X29363964Y-10471514D01*
X29363938Y-10471521D01*
X29355532Y-10476375D01*
X29340515Y-10485045D01*
X29317425Y-10492884D01*
X29307993Y-10494126D01*
X29261787Y-10481747D01*
X29261776Y-10481738D01*
X29261195Y-10481292D01*
X29238879Y-10447879D01*
X29238126Y-10445069D01*
X29236000Y-10428906D01*
X29236000Y-9756829D01*
X29240756Y-9732915D01*
X29249550Y-9711684D01*
X29263092Y-9691417D01*
X29289070Y-9665440D01*
X29333460Y-9588556D01*
X29335477Y-9585062D01*
X29335478Y-9585059D01*
X29359500Y-9495408D01*
X29359500Y-9402592D01*
X29353848Y-9381498D01*
X29335485Y-9312964D01*
X29335477Y-9312937D01*
X29335473Y-9312930D01*
X29289070Y-9232560D01*
X29289063Y-9232552D01*
X29223447Y-9166936D01*
X29223438Y-9166928D01*
X29143068Y-9120525D01*
X29143061Y-9120521D01*
X29143034Y-9120513D01*
X29053424Y-9096503D01*
X29053415Y-9096501D01*
X29053414Y-9096501D01*
X29053409Y-9096500D01*
X29053408Y-9096500D01*
X28960589Y-9096500D01*
X28960579Y-9096502D01*
X28870964Y-9120514D01*
X28870937Y-9120521D01*
X28870930Y-9120525D01*
X28790560Y-9166928D01*
X28724928Y-9232560D01*
X28678525Y-9312930D01*
X28678521Y-9312937D01*
X28678514Y-9312964D01*
X28654500Y-9402585D01*
X28654500Y-9482853D01*
X28653962Y-9491034D01*
X28650879Y-9514383D01*
X28626999Y-9555760D01*
X28626416Y-9556208D01*
X28588312Y-9569150D01*
X28585411Y-9569149D01*
X28569257Y-9567019D01*
X28496424Y-9547503D01*
X28496415Y-9547501D01*
X28496414Y-9547501D01*
X28496409Y-9547500D01*
X28496408Y-9547500D01*
X28403589Y-9547500D01*
X28403579Y-9547502D01*
X28313946Y-9571519D01*
X28313942Y-9571520D01*
X28286021Y-9587640D01*
X28262927Y-9595478D01*
X28242341Y-9598187D01*
X28213166Y-9595080D01*
X25726848Y-8707109D01*
X25725368Y-8706559D01*
X25723922Y-8706001D01*
X25722508Y-8705436D01*
X25691275Y-8692500D01*
X25689593Y-8692165D01*
X25686111Y-8691472D01*
X25680926Y-8690706D01*
X25680923Y-8690706D01*
X25680922Y-8690706D01*
X25655077Y-8691991D01*
X25648615Y-8692313D01*
X25648612Y-8692313D01*
X25647183Y-8692384D01*
X25645638Y-8692441D01*
X25644062Y-8692481D01*
X25642516Y-8692500D01*
X25448856Y-8692500D01*
X25438843Y-8691693D01*
X25424648Y-8689389D01*
X25423884Y-8689734D01*
X25419839Y-8690566D01*
X25394842Y-8692343D01*
X25390412Y-8692500D01*
X25358725Y-8692500D01*
X25352689Y-8693700D01*
X25352652Y-8693518D01*
X25350002Y-8694144D01*
X25350052Y-8694323D01*
X25344116Y-8695948D01*
X25315759Y-8710127D01*
X25311727Y-8711967D01*
X25307637Y-8713660D01*
X25307632Y-8713662D01*
X25292338Y-8719997D01*
X25286584Y-8720615D01*
X25272097Y-8731055D01*
X25263510Y-8736250D01*
X25243546Y-8746232D01*
X25235826Y-8749465D01*
X25227966Y-8752154D01*
X25219874Y-8754329D01*
X25219241Y-8754454D01*
X25219238Y-8754455D01*
X25200498Y-8766947D01*
X25197207Y-8768997D01*
X25193854Y-8770943D01*
X25190438Y-8772786D01*
X25170297Y-8782859D01*
X25170283Y-8782866D01*
X25170279Y-8782869D01*
X25169866Y-8783347D01*
X25163965Y-8789293D01*
X25157727Y-8794788D01*
X25151083Y-8799892D01*
X25076375Y-8849697D01*
X25073888Y-8851272D01*
X25073385Y-8851573D01*
X25056658Y-8862775D01*
X25045510Y-8870241D01*
X25040171Y-8873817D01*
X25034682Y-8877493D01*
X25034573Y-8877566D01*
X25000546Y-8900251D01*
X25000509Y-8900281D01*
X25000282Y-8900508D01*
X25000249Y-8900548D01*
X24977738Y-8934316D01*
X24977589Y-8934540D01*
X24977517Y-8934647D01*
X24965018Y-8953309D01*
X24951569Y-8973392D01*
X24951268Y-8973895D01*
X24949693Y-8976382D01*
X24893890Y-9060087D01*
X24890223Y-9065040D01*
X24886326Y-9069794D01*
X24882184Y-9074366D01*
X24874088Y-9082461D01*
X24874086Y-9082464D01*
X24869582Y-9093339D01*
X24866976Y-9098853D01*
X24864119Y-9104205D01*
X24860984Y-9109443D01*
X24857883Y-9114094D01*
X24855928Y-9116478D01*
X24854453Y-9119242D01*
X24852230Y-9130479D01*
X24850738Y-9136457D01*
X24848957Y-9142340D01*
X24846881Y-9148147D01*
X24842500Y-9158722D01*
X24842500Y-9170496D01*
X24842202Y-9176584D01*
X24842069Y-9177950D01*
X24841609Y-9182643D01*
X24840720Y-9188666D01*
X24838434Y-9200221D01*
X24838434Y-9200222D01*
X24840681Y-9211454D01*
X24841589Y-9217546D01*
X24842195Y-9223662D01*
X24842500Y-9229825D01*
X24842500Y-9570174D01*
X24842196Y-9576334D01*
X24841590Y-9582453D01*
X24840679Y-9588556D01*
X24838435Y-9599769D01*
X24838434Y-9599778D01*
X24840719Y-9611328D01*
X24841608Y-9617353D01*
X24842201Y-9623397D01*
X24842500Y-9629500D01*
X24842500Y-9641277D01*
X24846881Y-9651853D01*
X24848959Y-9657665D01*
X24850739Y-9663546D01*
X24852228Y-9669510D01*
X24853263Y-9674736D01*
X24853667Y-9678858D01*
X24855258Y-9682700D01*
X24857885Y-9685904D01*
X24860991Y-9690563D01*
X24864116Y-9695788D01*
X24866974Y-9701142D01*
X24869579Y-9706652D01*
X24874089Y-9717538D01*
X24882188Y-9725637D01*
X24886321Y-9730198D01*
X24890226Y-9734962D01*
X24893885Y-9739904D01*
X25594166Y-10790325D01*
X25819601Y-11128478D01*
X25826869Y-11139380D01*
X25834684Y-11155935D01*
X25839818Y-11172892D01*
X25842500Y-11191003D01*
X25842500Y-11537355D01*
X25837742Y-11561272D01*
X25835167Y-11567491D01*
X25801341Y-11601314D01*
X25753506Y-11601313D01*
X25747286Y-11598736D01*
X25731275Y-11588034D01*
X25730989Y-11588407D01*
X25727737Y-11585912D01*
X25727736Y-11585911D01*
X25665168Y-11549787D01*
X25626263Y-11527325D01*
X25626260Y-11527324D01*
X25626247Y-11527320D01*
X25626230Y-11527315D01*
X25550820Y-11507110D01*
X25550817Y-11507110D01*
X25531953Y-11502055D01*
X25525664Y-11500370D01*
X25513090Y-11497000D01*
X25513088Y-11497000D01*
X25513086Y-11497000D01*
X25513085Y-11497000D01*
X24137586Y-11497000D01*
X24020414Y-11497000D01*
X24020411Y-11497000D01*
X24020408Y-11497000D01*
X23997773Y-11503065D01*
X23997773Y-11503066D01*
X23982680Y-11507111D01*
X23907239Y-11527324D01*
X23907236Y-11527325D01*
X23907234Y-11527325D01*
X23907234Y-11527326D01*
X23907229Y-11527328D01*
X23790687Y-11594615D01*
X23790178Y-11598484D01*
X23780246Y-11611428D01*
X23570271Y-11821403D01*
X23549997Y-11834950D01*
X23528771Y-11843742D01*
X23504856Y-11848500D01*
X18788408Y-11848500D01*
X18765822Y-11854553D01*
X18750761Y-11858589D01*
X18750759Y-11858589D01*
X18736036Y-11862534D01*
X18736029Y-11862536D01*
X18724727Y-11865563D01*
X18700400Y-11867156D01*
X18693731Y-11866278D01*
X18652304Y-11842361D01*
X18639921Y-11796174D01*
X18640111Y-11794736D01*
X18657878Y-11758693D01*
X20174583Y-10241771D01*
X20209137Y-10207218D01*
X20209140Y-10207209D01*
X20209146Y-10207204D01*
X20230029Y-10156779D01*
X20244000Y-10123051D01*
X20244000Y-10123050D01*
X20244000Y-10123045D01*
X20244537Y-10121751D01*
X20244810Y-10118446D01*
X20244002Y-10113274D01*
X20244000Y-10080264D01*
X20244000Y-10069969D01*
X20244000Y-8740828D01*
X20248757Y-8716912D01*
X20257549Y-8695686D01*
X20271097Y-8675413D01*
X20297066Y-8649444D01*
X20297070Y-8649440D01*
X20338439Y-8577788D01*
X20343477Y-8569062D01*
X20343478Y-8569059D01*
X20345904Y-8560005D01*
X20367500Y-8479408D01*
X20367500Y-8386592D01*
X20362739Y-8368825D01*
X20345447Y-8304289D01*
X20343478Y-8296940D01*
X20336349Y-8284593D01*
X20336344Y-8284585D01*
X20526500Y-8284585D01*
X20526500Y-8377413D01*
X20550514Y-8467034D01*
X20550521Y-8467061D01*
X20550525Y-8467068D01*
X20596928Y-8547438D01*
X20596936Y-8547447D01*
X20662552Y-8613063D01*
X20662560Y-8613070D01*
X20742930Y-8659473D01*
X20742937Y-8659477D01*
X20742964Y-8659485D01*
X20816515Y-8679192D01*
X20832592Y-8683500D01*
X20832593Y-8683500D01*
X20925407Y-8683500D01*
X20925408Y-8683500D01*
X21015060Y-8659478D01*
X21095440Y-8613070D01*
X21121412Y-8587096D01*
X21141688Y-8573548D01*
X21162912Y-8564756D01*
X21186829Y-8560000D01*
X23056226Y-8560000D01*
X23062974Y-8560000D01*
X23108521Y-8560005D01*
X23108521Y-8560004D01*
X23108525Y-8560005D01*
X23108528Y-8560003D01*
X23108545Y-8560000D01*
X23108551Y-8560000D01*
X23150178Y-8542756D01*
X23150184Y-8542756D01*
X23150184Y-8542755D01*
X23172424Y-8533545D01*
X23172425Y-8533545D01*
X23184312Y-8528622D01*
X23189749Y-8526370D01*
X23191768Y-8525576D01*
X23192644Y-8525250D01*
X23192668Y-8525234D01*
X23193168Y-8524708D01*
X23194153Y-8523700D01*
X23223459Y-8494395D01*
X23368005Y-8349882D01*
X25201716Y-6516587D01*
X25221989Y-6503045D01*
X25243212Y-6494256D01*
X25267125Y-6489500D01*
X25344907Y-6489500D01*
X25344908Y-6489500D01*
X25434560Y-6465478D01*
X25514940Y-6419070D01*
X25580570Y-6353440D01*
X25626978Y-6273060D01*
X25651000Y-6183408D01*
X25651000Y-6090592D01*
X25636785Y-6037539D01*
X25626985Y-6000964D01*
X25626977Y-6000937D01*
X25626973Y-6000930D01*
X25580570Y-5920560D01*
X25580563Y-5920552D01*
X25514947Y-5854936D01*
X25514938Y-5854928D01*
X25434568Y-5808525D01*
X25434561Y-5808521D01*
X25434534Y-5808513D01*
X25344924Y-5784503D01*
X25344915Y-5784501D01*
X25344914Y-5784501D01*
X25344909Y-5784500D01*
X25344908Y-5784500D01*
X25252089Y-5784500D01*
X25252079Y-5784502D01*
X25162464Y-5808514D01*
X25162437Y-5808521D01*
X25162430Y-5808525D01*
X25082060Y-5854928D01*
X25016428Y-5920560D01*
X24970025Y-6000930D01*
X24970021Y-6000937D01*
X24970014Y-6000964D01*
X24946000Y-6090585D01*
X24946000Y-6090586D01*
X24945760Y-6092514D01*
X24945626Y-6092497D01*
X24945587Y-6092701D01*
X24945384Y-6092661D01*
X24941415Y-6109784D01*
X24932452Y-6131422D01*
X24918899Y-6151703D01*
X22995257Y-8074909D01*
X22974985Y-8088453D01*
X22953763Y-8097243D01*
X22929846Y-8102000D01*
X21186829Y-8102000D01*
X21162912Y-8097242D01*
X21141687Y-8088450D01*
X21121413Y-8074903D01*
X21095438Y-8048928D01*
X21015068Y-8002525D01*
X21015061Y-8002521D01*
X21015034Y-8002513D01*
X20925424Y-7978503D01*
X20925415Y-7978501D01*
X20925414Y-7978501D01*
X20925409Y-7978500D01*
X20925408Y-7978500D01*
X20832589Y-7978500D01*
X20832579Y-7978502D01*
X20742964Y-8002514D01*
X20742937Y-8002521D01*
X20742930Y-8002525D01*
X20662560Y-8048928D01*
X20596928Y-8114560D01*
X20550525Y-8194930D01*
X20550521Y-8194937D01*
X20550514Y-8194964D01*
X20526500Y-8284585D01*
X20336344Y-8284585D01*
X20297070Y-8216560D01*
X20297065Y-8216554D01*
X20231445Y-8150934D01*
X20231439Y-8150929D01*
X20231438Y-8150928D01*
X20151065Y-8104523D01*
X20151062Y-8104522D01*
X20138967Y-8101281D01*
X20117093Y-8090492D01*
X20114185Y-8088261D01*
X20109543Y-8084698D01*
X20085637Y-8043313D01*
X20085540Y-8042580D01*
X20093377Y-8003139D01*
X20094838Y-8000608D01*
X20104755Y-7987688D01*
X21287850Y-6804594D01*
X21308119Y-6791050D01*
X21329350Y-6782256D01*
X21353264Y-6777500D01*
X21358634Y-6777500D01*
X21358699Y-6777501D01*
X21359641Y-6777501D01*
X21363466Y-6777501D01*
X21436533Y-6777501D01*
X21436534Y-6777501D01*
X21436539Y-6777500D01*
X21466598Y-6769445D01*
X21507111Y-6758589D01*
X21570389Y-6722056D01*
X22923628Y-5368814D01*
X22937024Y-5358625D01*
X22951273Y-5350557D01*
X22966903Y-5344313D01*
X23226342Y-5279454D01*
X23229816Y-5278690D01*
X23233318Y-5278025D01*
X23236457Y-5277520D01*
X23236528Y-5277501D01*
X23236534Y-5277501D01*
X23269092Y-5268775D01*
X23269162Y-5268756D01*
X23269905Y-5268563D01*
X23270094Y-5268515D01*
X23302747Y-5260354D01*
X23304821Y-5259202D01*
X23307111Y-5258589D01*
X23321475Y-5250296D01*
X24122500Y-5250296D01*
X24122500Y-5254097D01*
X24122500Y-5349708D01*
X24146095Y-5437757D01*
X24146096Y-5437761D01*
X24148225Y-5445709D01*
X24173075Y-5488749D01*
X24197926Y-5531791D01*
X24197929Y-5531795D01*
X24197933Y-5531799D01*
X24197937Y-5531804D01*
X24268203Y-5602070D01*
X24268207Y-5602072D01*
X24268208Y-5602073D01*
X24268210Y-5602075D01*
X24354291Y-5651774D01*
X24354294Y-5651775D01*
X24396614Y-5663114D01*
X24396616Y-5663114D01*
X24396622Y-5663116D01*
X24444195Y-5675864D01*
X24445549Y-5676378D01*
X24449390Y-5677285D01*
X24450244Y-5677500D01*
X24450301Y-5677500D01*
X24450302Y-5677500D01*
X24549698Y-5677500D01*
X24549699Y-5677500D01*
X24550502Y-5677285D01*
X24557575Y-5675389D01*
X24645709Y-5651774D01*
X24731790Y-5602075D01*
X24731795Y-5602070D01*
X24731795Y-5602069D01*
X24735043Y-5599579D01*
X24735637Y-5600353D01*
X24749540Y-5591050D01*
X24770771Y-5582256D01*
X24794685Y-5577500D01*
X25805315Y-5577500D01*
X25829232Y-5582257D01*
X25850455Y-5591048D01*
X25864368Y-5600345D01*
X25864957Y-5599579D01*
X25866727Y-5600937D01*
X25867100Y-5601241D01*
X25867899Y-5601841D01*
X25868195Y-5602065D01*
X25868204Y-5602070D01*
X25868208Y-5602073D01*
X25868210Y-5602075D01*
X25954291Y-5651774D01*
X25954294Y-5651775D01*
X25996614Y-5663114D01*
X25996616Y-5663114D01*
X25996622Y-5663116D01*
X26044195Y-5675864D01*
X26045549Y-5676378D01*
X26049390Y-5677285D01*
X26050244Y-5677500D01*
X26050301Y-5677500D01*
X26050302Y-5677500D01*
X26149698Y-5677500D01*
X26149699Y-5677500D01*
X26150502Y-5677285D01*
X26157575Y-5675389D01*
X26245709Y-5651774D01*
X26331790Y-5602075D01*
X26402075Y-5531790D01*
X26451774Y-5445709D01*
X26477500Y-5349699D01*
X26477500Y-5250301D01*
X26475138Y-5241487D01*
X26457083Y-5174106D01*
X26457081Y-5174100D01*
X26455006Y-5166353D01*
X26451774Y-5154291D01*
X26402075Y-5068210D01*
X26402073Y-5068208D01*
X26402072Y-5068207D01*
X26402070Y-5068203D01*
X26331793Y-4997926D01*
X26252833Y-4952338D01*
X26249542Y-4949812D01*
X26241875Y-4946637D01*
X26237758Y-4946095D01*
X26149708Y-4922500D01*
X26149703Y-4922500D01*
X26149699Y-4922500D01*
X26050301Y-4922500D01*
X26050296Y-4922500D01*
X26050290Y-4922500D01*
X25962242Y-4946095D01*
X25962237Y-4946095D01*
X25962238Y-4946096D01*
X25954289Y-4948225D01*
X25868208Y-4997926D01*
X25868204Y-4997928D01*
X25868201Y-4997931D01*
X25867747Y-4998325D01*
X25867346Y-4998572D01*
X25866434Y-4999257D01*
X25866372Y-4999174D01*
X25850735Y-5008835D01*
X25829230Y-5017742D01*
X25805315Y-5022500D01*
X24794685Y-5022500D01*
X24770768Y-5017742D01*
X24749543Y-5008950D01*
X24735635Y-4999657D01*
X24735047Y-5000424D01*
X24733278Y-4999067D01*
X24732893Y-4998752D01*
X24732091Y-4998151D01*
X24731799Y-4997929D01*
X24652833Y-4952338D01*
X24649542Y-4949812D01*
X24641875Y-4946637D01*
X24637758Y-4946095D01*
X24549708Y-4922500D01*
X24549703Y-4922500D01*
X24549699Y-4922500D01*
X24450301Y-4922500D01*
X24450296Y-4922500D01*
X24450290Y-4922500D01*
X24362242Y-4946095D01*
X24362237Y-4946095D01*
X24362238Y-4946096D01*
X24354289Y-4948225D01*
X24268208Y-4997926D01*
X24268204Y-4997929D01*
X24268195Y-4997937D01*
X24197937Y-5068195D01*
X24197929Y-5068204D01*
X24197926Y-5068208D01*
X24148225Y-5154289D01*
X24146161Y-5161993D01*
X24146144Y-5162056D01*
X24122500Y-5250296D01*
X23321475Y-5250296D01*
X23336732Y-5241487D01*
X23366630Y-5224890D01*
X23368333Y-5223242D01*
X23370389Y-5222056D01*
X23394566Y-5197878D01*
X23394724Y-5197724D01*
X23394730Y-5197721D01*
X23394868Y-5197585D01*
X23419159Y-5174100D01*
X23419161Y-5174095D01*
X23419744Y-5173532D01*
X23421658Y-5171168D01*
X23423662Y-5168921D01*
X23426071Y-5166371D01*
X23434326Y-5158116D01*
X23445653Y-5149152D01*
X23457703Y-5141704D01*
X23470789Y-5135580D01*
X23647438Y-5076696D01*
X23651241Y-5075562D01*
X23651930Y-5075381D01*
X23651948Y-5075375D01*
X23654315Y-5074574D01*
X23654318Y-5074574D01*
X23688442Y-5063029D01*
X23719382Y-5052715D01*
X23720053Y-5052530D01*
X23721913Y-5051879D01*
X23722888Y-5051547D01*
X23723052Y-5051492D01*
X23723950Y-5050919D01*
X23724927Y-5050228D01*
X23725608Y-5049773D01*
X23726774Y-5049025D01*
X23726957Y-5048874D01*
X23753271Y-5031331D01*
X23783388Y-5011448D01*
X23783387Y-5011448D01*
X23785489Y-5010061D01*
X23785489Y-5010060D01*
X23786368Y-5009481D01*
X23786392Y-5009464D01*
X23820823Y-4986733D01*
X23821835Y-4985621D01*
X24034735Y-4843688D01*
X24037975Y-4841670D01*
X24041362Y-4839704D01*
X24044716Y-4837894D01*
X24187671Y-4766416D01*
X24193927Y-4763706D01*
X24198611Y-4761973D01*
X24200305Y-4761346D01*
X24206812Y-4759335D01*
X24534726Y-4677357D01*
X24540226Y-4676244D01*
X24545784Y-4675378D01*
X24551392Y-4674762D01*
X24554318Y-4674574D01*
X24574684Y-4667682D01*
X24577034Y-4666940D01*
X24579508Y-4666214D01*
X24581906Y-4665563D01*
X24602747Y-4660354D01*
X24605324Y-4658923D01*
X24610336Y-4656428D01*
X24615524Y-4654133D01*
X24620755Y-4652097D01*
X24623531Y-4651159D01*
X24641386Y-4639253D01*
X24643477Y-4637920D01*
X24643542Y-4637879D01*
X24645665Y-4636585D01*
X24647813Y-4635334D01*
X24666630Y-4624890D01*
X24668762Y-4622827D01*
X24672948Y-4619130D01*
X24677349Y-4615582D01*
X24681870Y-4612263D01*
X24934731Y-4443691D01*
X24937980Y-4441668D01*
X24941355Y-4439709D01*
X24944748Y-4437878D01*
X25287680Y-4266412D01*
X25293921Y-4263707D01*
X25300318Y-4261341D01*
X25306805Y-4259337D01*
X25659590Y-4171142D01*
X25660762Y-4170861D01*
X25662200Y-4170534D01*
X25663360Y-4170283D01*
X25691425Y-4164542D01*
X25691426Y-4164540D01*
X25691792Y-4164466D01*
X25693285Y-4163897D01*
X25695301Y-4163202D01*
X25698937Y-4161857D01*
X25701561Y-4160820D01*
X25702602Y-4160433D01*
X25702743Y-4160354D01*
X25702747Y-4160354D01*
X25727736Y-4146480D01*
X25728813Y-4145897D01*
X25730084Y-4145226D01*
X25731172Y-4144667D01*
X25890490Y-4065007D01*
X25896255Y-4062480D01*
X25902148Y-4060244D01*
X25906506Y-4058839D01*
X25907111Y-4058589D01*
X25910133Y-4056844D01*
X25929159Y-4045858D01*
X25930703Y-4044997D01*
X25932396Y-4044085D01*
X25933984Y-4043261D01*
X25956779Y-4031865D01*
X25956788Y-4031856D01*
X25957352Y-4031476D01*
X25960905Y-4028629D01*
X25966000Y-4024956D01*
X25969851Y-4022468D01*
X25970383Y-4022059D01*
X25970389Y-4022056D01*
X25988356Y-4004086D01*
X25989713Y-4002770D01*
X25991075Y-4001488D01*
X25992453Y-4000230D01*
X25995009Y-3997963D01*
X25995051Y-3997926D01*
X26011448Y-3983387D01*
X26011450Y-3983382D01*
X26011886Y-3982881D01*
X26014605Y-3979182D01*
X26017711Y-3975375D01*
X26018572Y-3974319D01*
X26022789Y-3969653D01*
X26487849Y-3504594D01*
X26508118Y-3491050D01*
X26529349Y-3482256D01*
X26553263Y-3477500D01*
X28758634Y-3477500D01*
X28758699Y-3477501D01*
X28759641Y-3477501D01*
X28763466Y-3477501D01*
X28836534Y-3477501D01*
X28836539Y-3477500D01*
X28863918Y-3470162D01*
X28863921Y-3470162D01*
X28884505Y-3464645D01*
X28907111Y-3458589D01*
X28970389Y-3422056D01*
X29425251Y-2967190D01*
X29445521Y-2953646D01*
X29462717Y-2946523D01*
X29498824Y-2942968D01*
X29622149Y-2967500D01*
X29804851Y-2967500D01*
X29984042Y-2931857D01*
X30152836Y-2861940D01*
X30304747Y-2760436D01*
X30433936Y-2631247D01*
X30535440Y-2479336D01*
X30605357Y-2310542D01*
X30605357Y-2310540D01*
X30605358Y-2310539D01*
X30620308Y-2235377D01*
X30641000Y-2131351D01*
X30641000Y-1948649D01*
X30605357Y-1769458D01*
X30535440Y-1600664D01*
X30433936Y-1448753D01*
X30304747Y-1319564D01*
X30304746Y-1319563D01*
X30304745Y-1319562D01*
X30152842Y-1218063D01*
X30152838Y-1218061D01*
X30152836Y-1218060D01*
X30152824Y-1218055D01*
X30098368Y-1195498D01*
X30078092Y-1181950D01*
X30073336Y-1177194D01*
X30055030Y-1133000D01*
X30073336Y-1088806D01*
X30117530Y-1070500D01*
X31914263Y-1070500D01*
X31938180Y-1075257D01*
G37*
%TD.AperFunction*%
%TD*%
M02*
