%TF.GenerationSoftware,KiCad,Pcbnew,10.0.6*%
%TF.CreationDate,2026-09-07T09:22:53+02:00*%
%TF.ProjectId,openrz67,6f70656e-727a-4363-972e-6b696361645f,2*%
%TF.SameCoordinates,Original*%
%TF.FileFunction,Drillmap*%
%TF.FilePolarity,Positive*%
%FSLAX45Y45*%
G04 Gerber Fmt 4.5, Leading zero omitted, Abs format (unit mm)*
G04 Created by KiCad (PCBNEW 10.0.6) date 2026-09-07 09:22:53*
%MOMM*%
%LPD*%
G01*
G04 APERTURE LIST*
%ADD10C,0.254000*%
%ADD11C,0.200000*%
%ADD12C,0.100000*%
G04 APERTURE END LIST*
D10*
X12000000Y-9200000D02*
X12000000Y-11000000D01*
X12000000Y-9200000D02*
G75*
G02*
X12200000Y-9000000I200000J0D01*
G01*
X12200000Y-9000000D02*
X16600000Y-9000000D01*
X12200000Y-11200000D02*
G75*
G02*
X12000000Y-11000000I0J200000D01*
G01*
X12200000Y-11200000D02*
X16600000Y-11200000D01*
X16600000Y-9000000D02*
G75*
G02*
X16800000Y-9200000I0J-200000D01*
G01*
X16800000Y-9200000D02*
X16800000Y-11000000D01*
X16800000Y-11000000D02*
G75*
G02*
X16600000Y-11200000I-200000J0D01*
G01*
D11*
D12*
X12040000Y-9708850D02*
X12065000Y-9733850D01*
X12065000Y-9708850D02*
X12040000Y-9733850D01*
X12040050Y-9401500D02*
X12065050Y-9426500D01*
X12065050Y-9401500D02*
X12040050Y-9426500D01*
X12045150Y-9247050D02*
X12070150Y-9272050D01*
X12070150Y-9247050D02*
X12045150Y-9272050D01*
X12104350Y-10420050D02*
X12129350Y-10445050D01*
X12129350Y-10420050D02*
X12104350Y-10445050D01*
X12109400Y-10257500D02*
X12134400Y-10282500D01*
X12134400Y-10257500D02*
X12109400Y-10282500D01*
X12119600Y-10044150D02*
X12144600Y-10069150D01*
X12144600Y-10044150D02*
X12119600Y-10069150D01*
X12124650Y-10161000D02*
X12149650Y-10186000D01*
X12149650Y-10161000D02*
X12124650Y-10186000D01*
X12124650Y-10582600D02*
X12149650Y-10607600D01*
X12149650Y-10582600D02*
X12124650Y-10607600D01*
X12150050Y-9063700D02*
X12175050Y-9088700D01*
X12175050Y-9063700D02*
X12150050Y-9088700D01*
X12287200Y-10699450D02*
X12312200Y-10724450D01*
X12312200Y-10699450D02*
X12287200Y-10724450D01*
X12363400Y-9040000D02*
X12388400Y-9065000D01*
X12388400Y-9040000D02*
X12363400Y-9065000D01*
X12363400Y-11110950D02*
X12388400Y-11135950D01*
X12388400Y-11110950D02*
X12363400Y-11135950D01*
X12434550Y-10867100D02*
X12459550Y-10892100D01*
X12459550Y-10867100D02*
X12434550Y-10892100D01*
X12459950Y-10983950D02*
X12484950Y-11008950D01*
X12484950Y-10983950D02*
X12459950Y-11008950D01*
X12470100Y-11090600D02*
X12495100Y-11115600D01*
X12495100Y-11090600D02*
X12470100Y-11115600D01*
X12536450Y-10867100D02*
X12561450Y-10892100D01*
X12561450Y-10867100D02*
X12536450Y-10892100D01*
X12597100Y-10938200D02*
X12622100Y-10963200D01*
X12622100Y-10938200D02*
X12597100Y-10963200D01*
X12617400Y-11009350D02*
X12642400Y-11034350D01*
X12642400Y-11009350D02*
X12617400Y-11034350D01*
X12622850Y-10867100D02*
X12647850Y-10892100D01*
X12647850Y-10867100D02*
X12622850Y-10892100D01*
X12658050Y-10790900D02*
X12683050Y-10815900D01*
X12683050Y-10790900D02*
X12658050Y-10815900D01*
X12668200Y-11121100D02*
X12693200Y-11146100D01*
X12693200Y-11121100D02*
X12668200Y-11146100D01*
X12698700Y-10709600D02*
X12723700Y-10734600D01*
X12723700Y-10709600D02*
X12698700Y-10734600D01*
X12769800Y-9871400D02*
X12794800Y-9896400D01*
X12794800Y-9871400D02*
X12769800Y-9896400D01*
X12774900Y-10034000D02*
X12799900Y-10059000D01*
X12799900Y-10034000D02*
X12774900Y-10059000D01*
X12780000Y-9729200D02*
X12805000Y-9754200D01*
X12805000Y-9729200D02*
X12780000Y-9754200D01*
X12810700Y-10709600D02*
X12835700Y-10734600D01*
X12835700Y-10709600D02*
X12810700Y-10734600D01*
X12899850Y-10709600D02*
X12924850Y-10734600D01*
X12924850Y-10709600D02*
X12899850Y-10734600D01*
X12912050Y-9673300D02*
X12937050Y-9698300D01*
X12937050Y-9673300D02*
X12912050Y-9698300D01*
X12962850Y-9043400D02*
X12987850Y-9068400D01*
X12987850Y-9043400D02*
X12962850Y-9068400D01*
X12988250Y-11100800D02*
X13013250Y-11125800D01*
X13013250Y-11100800D02*
X12988250Y-11125800D01*
X12990350Y-10800950D02*
X13015350Y-10825950D01*
X13015350Y-10800950D02*
X12990350Y-10825950D01*
X13042600Y-9774050D02*
X13067600Y-9799050D01*
X13067600Y-9774050D02*
X13042600Y-9799050D01*
X13049200Y-10216850D02*
X13074200Y-10241850D01*
X13074200Y-10216850D02*
X13049200Y-10241850D01*
X13049200Y-10531800D02*
X13074200Y-10556800D01*
X13074200Y-10531800D02*
X13049200Y-10556800D01*
X13059400Y-10440400D02*
X13084400Y-10465400D01*
X13084400Y-10440400D02*
X13059400Y-10465400D01*
X13125400Y-9043400D02*
X13150400Y-9068400D01*
X13150400Y-9043400D02*
X13125400Y-9068400D01*
X13166050Y-10867100D02*
X13191050Y-10892100D01*
X13191050Y-10867100D02*
X13166050Y-10892100D01*
X13196550Y-9861250D02*
X13221550Y-9886250D01*
X13221550Y-9861250D02*
X13196550Y-9886250D01*
X13211800Y-11095700D02*
X13236800Y-11120700D01*
X13236800Y-11095700D02*
X13211800Y-11120700D01*
X13247350Y-9653000D02*
X13272350Y-9678000D01*
X13272350Y-9653000D02*
X13247350Y-9678000D01*
X13267650Y-10191450D02*
X13292650Y-10216450D01*
X13292650Y-10191450D02*
X13267650Y-10216450D01*
X13275550Y-10867100D02*
X13300550Y-10892100D01*
X13300550Y-10867100D02*
X13275550Y-10892100D01*
X13277800Y-9048450D02*
X13302800Y-9073450D01*
X13302800Y-9048450D02*
X13277800Y-9073450D01*
X13328600Y-10094950D02*
X13353600Y-10119950D01*
X13353600Y-10094950D02*
X13328600Y-10119950D01*
X13369250Y-10867100D02*
X13394250Y-10892100D01*
X13394250Y-10867100D02*
X13369250Y-10892100D01*
X13379400Y-11100800D02*
X13404400Y-11125800D01*
X13404400Y-11100800D02*
X13379400Y-11125800D01*
X13394650Y-10343850D02*
X13419650Y-10368850D01*
X13419650Y-10343850D02*
X13394650Y-10368850D01*
X13492500Y-10527750D02*
X13517500Y-10552750D01*
X13517500Y-10527750D02*
X13492500Y-10552750D01*
X13567400Y-10186400D02*
X13592400Y-10211400D01*
X13592400Y-10186400D02*
X13567400Y-10211400D01*
X13567400Y-10348950D02*
X13592400Y-10373950D01*
X13592400Y-10348950D02*
X13567400Y-10373950D01*
X13567400Y-10892500D02*
X13592400Y-10917500D01*
X13592400Y-10892500D02*
X13567400Y-10917500D01*
X13567400Y-11029650D02*
X13592400Y-11054650D01*
X13592400Y-11029650D02*
X13567400Y-11054650D01*
X13582600Y-9790150D02*
X13607600Y-9815150D01*
X13607600Y-9790150D02*
X13582600Y-9815150D01*
X13643600Y-10340700D02*
X13668600Y-10365700D01*
X13668600Y-10340700D02*
X13643600Y-10365700D01*
X13658800Y-11034750D02*
X13683800Y-11059750D01*
X13683800Y-11034750D02*
X13658800Y-11059750D01*
X13659850Y-9051050D02*
X13684850Y-9076050D01*
X13684850Y-9051050D02*
X13659850Y-9076050D01*
X13674050Y-9536150D02*
X13699050Y-9561150D01*
X13699050Y-9536150D02*
X13674050Y-9561150D01*
X13679150Y-9368500D02*
X13704150Y-9393500D01*
X13704150Y-9368500D02*
X13679150Y-9393500D01*
X13684200Y-9607250D02*
X13709200Y-9632250D01*
X13709200Y-9607250D02*
X13684200Y-9632250D01*
X13684350Y-9455900D02*
X13709350Y-9480900D01*
X13709350Y-9455900D02*
X13684350Y-9480900D01*
X13709750Y-10887400D02*
X13734750Y-10912400D01*
X13734750Y-10887400D02*
X13709750Y-10912400D01*
X13745200Y-9790150D02*
X13770200Y-9815150D01*
X13770200Y-9790150D02*
X13745200Y-9815150D01*
X13745200Y-10770600D02*
X13770200Y-10795600D01*
X13770200Y-10770600D02*
X13745200Y-10795600D01*
X13757700Y-9407400D02*
X13782700Y-9432400D01*
X13782700Y-9407400D02*
X13757700Y-9432400D01*
X13801050Y-9048450D02*
X13826050Y-9073450D01*
X13826050Y-9048450D02*
X13801050Y-9073450D01*
X13806150Y-10836550D02*
X13831150Y-10861550D01*
X13831150Y-10836550D02*
X13806150Y-10861550D01*
X13816000Y-9455900D02*
X13841000Y-9480900D01*
X13841000Y-9455900D02*
X13816000Y-9480900D01*
X13816300Y-9526000D02*
X13841300Y-9551000D01*
X13841300Y-9526000D02*
X13816300Y-9551000D01*
X13821400Y-9368500D02*
X13846400Y-9393500D01*
X13846400Y-9368500D02*
X13821400Y-9393500D01*
X13821400Y-11014400D02*
X13846400Y-11039400D01*
X13846400Y-11014400D02*
X13821400Y-11039400D01*
X13826450Y-9607250D02*
X13851450Y-9632250D01*
X13851450Y-9607250D02*
X13826450Y-9632250D01*
X13842750Y-10719450D02*
X13867750Y-10744450D01*
X13867750Y-10719450D02*
X13842750Y-10744450D01*
X13940450Y-10897600D02*
X13965450Y-10922600D01*
X13965450Y-10897600D02*
X13940450Y-10922600D01*
X13973800Y-10288000D02*
X13998800Y-10313000D01*
X13998800Y-10288000D02*
X13973800Y-10313000D01*
X13976750Y-10429450D02*
X14001750Y-10454450D01*
X14001750Y-10429450D02*
X13976750Y-10454450D01*
X13989000Y-9830800D02*
X14014000Y-9855800D01*
X14014000Y-9830800D02*
X13989000Y-9855800D01*
X14019500Y-10902650D02*
X14044500Y-10927650D01*
X14044500Y-10902650D02*
X14019500Y-10927650D01*
X14034750Y-10521650D02*
X14059750Y-10546650D01*
X14059750Y-10521650D02*
X14034750Y-10546650D01*
X14075400Y-9820600D02*
X14100400Y-9845600D01*
X14100400Y-9820600D02*
X14075400Y-9845600D01*
X14113200Y-10287850D02*
X14138200Y-10312850D01*
X14138200Y-10287850D02*
X14113200Y-10312850D01*
X14113200Y-10429450D02*
X14138200Y-10454450D01*
X14138200Y-10429450D02*
X14113200Y-10454450D01*
X14113200Y-10556600D02*
X14138200Y-10581600D01*
X14138200Y-10556600D02*
X14113200Y-10581600D01*
X14139750Y-9090450D02*
X14164750Y-9115450D01*
X14164750Y-9090450D02*
X14139750Y-9115450D01*
X14146500Y-9348200D02*
X14171500Y-9373200D01*
X14171500Y-9348200D02*
X14146500Y-9373200D01*
X14161750Y-9932400D02*
X14186750Y-9957400D01*
X14186750Y-9932400D02*
X14161750Y-9957400D01*
X14222700Y-9612350D02*
X14247700Y-9637350D01*
X14247700Y-9612350D02*
X14222700Y-9637350D01*
X14248100Y-10557200D02*
X14273100Y-10582200D01*
X14273100Y-10557200D02*
X14248100Y-10582200D01*
X14253200Y-10298150D02*
X14278200Y-10323150D01*
X14278200Y-10298150D02*
X14253200Y-10323150D01*
X14255100Y-10429450D02*
X14280100Y-10454450D01*
X14280100Y-10429450D02*
X14255100Y-10454450D01*
X14279950Y-10781500D02*
X14304950Y-10806500D01*
X14304950Y-10781500D02*
X14279950Y-10806500D01*
X14296250Y-9607950D02*
X14321250Y-9632950D01*
X14321250Y-9607950D02*
X14296250Y-9632950D01*
X14344600Y-9927300D02*
X14369600Y-9952300D01*
X14369600Y-9927300D02*
X14344600Y-9952300D01*
X14373500Y-10733050D02*
X14398500Y-10758050D01*
X14398500Y-10733050D02*
X14373500Y-10758050D01*
X14395400Y-10181700D02*
X14420400Y-10206700D01*
X14420400Y-10181700D02*
X14395400Y-10206700D01*
X14415750Y-9358350D02*
X14440750Y-9383350D01*
X14440750Y-9358350D02*
X14415750Y-9383350D01*
X14437500Y-10604450D02*
X14462500Y-10629450D01*
X14462500Y-10604450D02*
X14437500Y-10629450D01*
X14441150Y-9932400D02*
X14466150Y-9957400D01*
X14466150Y-9932400D02*
X14441150Y-9957400D01*
X14443450Y-11103050D02*
X14468450Y-11128050D01*
X14468450Y-11103050D02*
X14443450Y-11128050D01*
X14471600Y-10750250D02*
X14496600Y-10775250D01*
X14496600Y-10750250D02*
X14471600Y-10775250D01*
X14517350Y-9601200D02*
X14542350Y-9626200D01*
X14542350Y-9601200D02*
X14517350Y-9626200D01*
X14537650Y-10186400D02*
X14562650Y-10211400D01*
X14562650Y-10186400D02*
X14537650Y-10211400D01*
X14540200Y-9927300D02*
X14565200Y-9952300D01*
X14565200Y-9927300D02*
X14540200Y-9952300D01*
X14593550Y-10790900D02*
X14618550Y-10815900D01*
X14618550Y-10790900D02*
X14593550Y-10815900D01*
X14629100Y-9749500D02*
X14654100Y-9774500D01*
X14654100Y-9749500D02*
X14629100Y-9774500D01*
X14710400Y-10536900D02*
X14735400Y-10561900D01*
X14735400Y-10536900D02*
X14710400Y-10561900D01*
X14721750Y-9476900D02*
X14746750Y-9501900D01*
X14746750Y-9476900D02*
X14721750Y-9501900D01*
X14817050Y-11100800D02*
X14842050Y-11125800D01*
X14842050Y-11100800D02*
X14817050Y-11125800D01*
X14832500Y-10067500D02*
X14857500Y-10092500D01*
X14857500Y-10067500D02*
X14832500Y-10092500D01*
X14852600Y-9571700D02*
X14877600Y-9596700D01*
X14877600Y-9571700D02*
X14852600Y-9596700D01*
X14888200Y-9932400D02*
X14913200Y-9957400D01*
X14913200Y-9932400D02*
X14888200Y-9957400D01*
X14937500Y-10067500D02*
X14962500Y-10092500D01*
X14962500Y-10067500D02*
X14937500Y-10092500D01*
X15005000Y-9962850D02*
X15030000Y-9987850D01*
X15030000Y-9962850D02*
X15005000Y-9987850D01*
X15015200Y-9414200D02*
X15040200Y-9439200D01*
X15040200Y-9414200D02*
X15015200Y-9439200D01*
X15019250Y-11098500D02*
X15044250Y-11123500D01*
X15044250Y-11098500D02*
X15019250Y-11123500D01*
X15051500Y-10370800D02*
X15076500Y-10395800D01*
X15076500Y-10370800D02*
X15051500Y-10395800D01*
X15106600Y-10694400D02*
X15131600Y-10719400D01*
X15131600Y-10694400D02*
X15106600Y-10719400D01*
X15457150Y-9282150D02*
X15482150Y-9307150D01*
X15482150Y-9282150D02*
X15457150Y-9307150D01*
X15482550Y-10450550D02*
X15507550Y-10475550D01*
X15507550Y-10450550D02*
X15482550Y-10475550D01*
X15497800Y-9510750D02*
X15522800Y-9535750D01*
X15522800Y-9510750D02*
X15497800Y-9535750D01*
X15497800Y-9759650D02*
X15522800Y-9784650D01*
X15522800Y-9759650D02*
X15497800Y-9784650D01*
X15502850Y-10216850D02*
X15527850Y-10241850D01*
X15527850Y-10216850D02*
X15502850Y-10241850D01*
X15518100Y-9089100D02*
X15543100Y-9114100D01*
X15543100Y-9089100D02*
X15518100Y-9114100D01*
X15538400Y-11080450D02*
X15563400Y-11105450D01*
X15563400Y-11080450D02*
X15538400Y-11105450D01*
X15543500Y-9957800D02*
X15568500Y-9982800D01*
X15568500Y-9957800D02*
X15543500Y-9982800D01*
X15558750Y-10653750D02*
X15583750Y-10678750D01*
X15583750Y-10653750D02*
X15558750Y-10678750D01*
X15574000Y-9642800D02*
X15599000Y-9667800D01*
X15599000Y-9642800D02*
X15574000Y-9667800D01*
X15666150Y-10459050D02*
X15691150Y-10484050D01*
X15691150Y-10459050D02*
X15666150Y-10484050D01*
X15685750Y-9810450D02*
X15710750Y-9835450D01*
X15710750Y-9810450D02*
X15685750Y-9835450D01*
X15701000Y-9368500D02*
X15726000Y-9393500D01*
X15726000Y-9368500D02*
X15701000Y-9393500D01*
X15711150Y-9515800D02*
X15736150Y-9540800D01*
X15736150Y-9515800D02*
X15711150Y-9540800D01*
X15767000Y-11080450D02*
X15792000Y-11105450D01*
X15792000Y-11080450D02*
X15767000Y-11105450D01*
X15777200Y-9962850D02*
X15802200Y-9987850D01*
X15802200Y-9962850D02*
X15777200Y-9987850D01*
X15797500Y-10206700D02*
X15822500Y-10231700D01*
X15822500Y-10206700D02*
X15797500Y-10231700D01*
X15802600Y-10455600D02*
X15827600Y-10480600D01*
X15827600Y-10455600D02*
X15802600Y-10480600D01*
X15802600Y-10658800D02*
X15827600Y-10683800D01*
X15827600Y-10658800D02*
X15802600Y-10683800D01*
X15817800Y-9713950D02*
X15842800Y-9738950D01*
X15842800Y-9713950D02*
X15817800Y-9738950D01*
X15833050Y-9297400D02*
X15858050Y-9322400D01*
X15858050Y-9297400D02*
X15833050Y-9322400D01*
X16097200Y-9378650D02*
X16122200Y-9403650D01*
X16122200Y-9378650D02*
X16097200Y-9403650D01*
X16153100Y-11121100D02*
X16178100Y-11146100D01*
X16178100Y-11121100D02*
X16153100Y-11146100D01*
X16173400Y-10440400D02*
X16198400Y-10465400D01*
X16198400Y-10440400D02*
X16173400Y-10465400D01*
X16214050Y-9683450D02*
X16239050Y-9708450D01*
X16239050Y-9683450D02*
X16214050Y-9708450D01*
X16275000Y-10628350D02*
X16300000Y-10653350D01*
X16300000Y-10628350D02*
X16275000Y-10653350D01*
X16305500Y-9531050D02*
X16330500Y-9556050D01*
X16330500Y-9531050D02*
X16305500Y-9556050D01*
X16356300Y-9190700D02*
X16381300Y-9215700D01*
X16381300Y-9190700D02*
X16356300Y-9215700D01*
X16376600Y-9068800D02*
X16401600Y-9093800D01*
X16401600Y-9068800D02*
X16376600Y-9093800D01*
X16412200Y-9332950D02*
X16437200Y-9357950D01*
X16437200Y-9332950D02*
X16412200Y-9357950D01*
X16468300Y-9531450D02*
X16493300Y-9556450D01*
X16493300Y-9531450D02*
X16468300Y-9556450D01*
X16468300Y-10633900D02*
X16493300Y-10658900D01*
X16493300Y-10633900D02*
X16468300Y-10658900D01*
X16564600Y-10150800D02*
X16589600Y-10175800D01*
X16589600Y-10150800D02*
X16564600Y-10175800D01*
X16574750Y-11110950D02*
X16599750Y-11135950D01*
X16599750Y-11110950D02*
X16574750Y-11135950D01*
X16584900Y-9846000D02*
X16609900Y-9871000D01*
X16609900Y-9846000D02*
X16584900Y-9871000D01*
X16610300Y-10455600D02*
X16635300Y-10480600D01*
X16635300Y-10455600D02*
X16610300Y-10480600D01*
X16676350Y-9546300D02*
X16701350Y-9571300D01*
X16701350Y-9546300D02*
X16676350Y-9571300D01*
X16676350Y-9719000D02*
X16701350Y-9744000D01*
X16701350Y-9719000D02*
X16676350Y-9744000D01*
X16676350Y-10343850D02*
X16701350Y-10368850D01*
X16701350Y-10343850D02*
X16676350Y-10368850D01*
X16676350Y-10633400D02*
X16701350Y-10658400D01*
X16701350Y-10633400D02*
X16676350Y-10658400D01*
X16691600Y-10028900D02*
X16716600Y-10053900D01*
X16716600Y-10028900D02*
X16691600Y-10053900D01*
X16701750Y-11044900D02*
X16726750Y-11069900D01*
X16726750Y-11044900D02*
X16701750Y-11069900D01*
X16717000Y-10826450D02*
X16742000Y-10851450D01*
X16742000Y-10826450D02*
X16717000Y-10851450D01*
X13939250Y-9756900D02*
G75*
G02*
X13909250Y-9756900I-15000J0D01*
G01*
X13909250Y-9756900D02*
G75*
G02*
X13939250Y-9756900I15000J0D01*
G01*
X14062250Y-9762000D02*
G75*
G02*
X14032250Y-9762000I-15000J0D01*
G01*
X14032250Y-9762000D02*
G75*
G02*
X14062250Y-9762000I15000J0D01*
G01*
X12123200Y-9863400D02*
X12123200Y-9923400D01*
X12093200Y-9893400D02*
X12153200Y-9893400D01*
X12153200Y-9863400D02*
X12093200Y-9863400D01*
X12093200Y-9923400D02*
G75*
G02*
X12093200Y-9863400I0J30000D01*
G01*
X12093200Y-9923400D02*
X12153200Y-9923400D01*
X12153200Y-9923400D02*
G75*
G03*
X12153200Y-9863400I0J30000D01*
G01*
X12123200Y-10728400D02*
X12123200Y-10788400D01*
X12093200Y-10758400D02*
X12153200Y-10758400D01*
X12153200Y-10728400D02*
X12093200Y-10728400D01*
X12093200Y-10788400D02*
G75*
G02*
X12093200Y-10728400I0J30000D01*
G01*
X12093200Y-10788400D02*
X12153200Y-10788400D01*
X12153200Y-10788400D02*
G75*
G03*
X12153200Y-10728400I0J30000D01*
G01*
X12543200Y-9863400D02*
X12543200Y-9923400D01*
X12513200Y-9893400D02*
X12573200Y-9893400D01*
X12588200Y-9863400D02*
X12498200Y-9863400D01*
X12498200Y-9923400D02*
G75*
G02*
X12498200Y-9863400I0J30000D01*
G01*
X12498200Y-9923400D02*
X12588200Y-9923400D01*
X12588200Y-9923400D02*
G75*
G03*
X12588200Y-9863400I0J30000D01*
G01*
X12543200Y-10728400D02*
X12543200Y-10788400D01*
X12513200Y-10758400D02*
X12573200Y-10758400D01*
X12588200Y-10728400D02*
X12498200Y-10728400D01*
X12498200Y-10788400D02*
G75*
G02*
X12498200Y-10728400I0J30000D01*
G01*
X12498200Y-10788400D02*
X12588200Y-10788400D01*
X12588200Y-10788400D02*
G75*
G03*
X12588200Y-10728400I0J30000D01*
G01*
X12359320Y-9412870D02*
X12359320Y-9349230D01*
X12295680Y-9349230D01*
X12295680Y-9412870D01*
X12359320Y-9412870D01*
X12359320Y-9612870D02*
X12359320Y-9549230D01*
X12295680Y-9549230D01*
X12295680Y-9612870D01*
X12359320Y-9612870D01*
X14803170Y-9235820D02*
X14803170Y-9172180D01*
X14739530Y-9172180D01*
X14739530Y-9235820D01*
X14803170Y-9235820D01*
X15003170Y-9235820D02*
X15003170Y-9172180D01*
X14939530Y-9172180D01*
X14939530Y-9235820D01*
X15003170Y-9235820D01*
X16430050Y-9775000D02*
X16480050Y-9725000D01*
X16430050Y-9675000D01*
X16380050Y-9725000D01*
X16430050Y-9775000D01*
X16430050Y-10025000D02*
X16480050Y-9975000D01*
X16430050Y-9925000D01*
X16380050Y-9975000D01*
X16430050Y-10025000D01*
X16430050Y-10275000D02*
X16480050Y-10225000D01*
X16430050Y-10175000D01*
X16380050Y-10225000D01*
X16430050Y-10275000D01*
X16430050Y-10525000D02*
X16480050Y-10475000D01*
X16430050Y-10425000D01*
X16380050Y-10475000D01*
X16430050Y-10525000D01*
D11*
X12100000Y-10900000D02*
X12300000Y-11100000D01*
X12300000Y-10900000D02*
X12100000Y-11100000D01*
X12300000Y-11000000D02*
G75*
G02*
X12100000Y-11000000I-100000J0D01*
G01*
X12100000Y-11000000D02*
G75*
G02*
X12300000Y-11000000I100000J0D01*
G01*
X16500000Y-9100000D02*
X16700000Y-9300000D01*
X16700000Y-9100000D02*
X16500000Y-9300000D01*
X16700000Y-9200000D02*
G75*
G02*
X16500000Y-9200000I-100000J0D01*
G01*
X16500000Y-9200000D02*
G75*
G02*
X16700000Y-9200000I100000J0D01*
G01*
X12248077Y-11524184D02*
X12248077Y-11324184D01*
X12248077Y-11324184D02*
X12295696Y-11324184D01*
X12295696Y-11324184D02*
X12324267Y-11333708D01*
X12324267Y-11333708D02*
X12343315Y-11352755D01*
X12343315Y-11352755D02*
X12352839Y-11371803D01*
X12352839Y-11371803D02*
X12362362Y-11409898D01*
X12362362Y-11409898D02*
X12362362Y-11438469D01*
X12362362Y-11438469D02*
X12352839Y-11476565D01*
X12352839Y-11476565D02*
X12343315Y-11495612D01*
X12343315Y-11495612D02*
X12324267Y-11514660D01*
X12324267Y-11514660D02*
X12295696Y-11524184D01*
X12295696Y-11524184D02*
X12248077Y-11524184D01*
X12448077Y-11524184D02*
X12448077Y-11390850D01*
X12448077Y-11428946D02*
X12457601Y-11409898D01*
X12457601Y-11409898D02*
X12467124Y-11400374D01*
X12467124Y-11400374D02*
X12486172Y-11390850D01*
X12486172Y-11390850D02*
X12505220Y-11390850D01*
X12571886Y-11524184D02*
X12571886Y-11390850D01*
X12571886Y-11324184D02*
X12562362Y-11333708D01*
X12562362Y-11333708D02*
X12571886Y-11343231D01*
X12571886Y-11343231D02*
X12581410Y-11333708D01*
X12581410Y-11333708D02*
X12571886Y-11324184D01*
X12571886Y-11324184D02*
X12571886Y-11343231D01*
X12695696Y-11524184D02*
X12676648Y-11514660D01*
X12676648Y-11514660D02*
X12667124Y-11495612D01*
X12667124Y-11495612D02*
X12667124Y-11324184D01*
X12800458Y-11524184D02*
X12781410Y-11514660D01*
X12781410Y-11514660D02*
X12771886Y-11495612D01*
X12771886Y-11495612D02*
X12771886Y-11324184D01*
X13029029Y-11524184D02*
X13029029Y-11324184D01*
X13029029Y-11324184D02*
X13095696Y-11467041D01*
X13095696Y-11467041D02*
X13162362Y-11324184D01*
X13162362Y-11324184D02*
X13162362Y-11524184D01*
X13343315Y-11524184D02*
X13343315Y-11419422D01*
X13343315Y-11419422D02*
X13333791Y-11400374D01*
X13333791Y-11400374D02*
X13314743Y-11390850D01*
X13314743Y-11390850D02*
X13276648Y-11390850D01*
X13276648Y-11390850D02*
X13257601Y-11400374D01*
X13343315Y-11514660D02*
X13324267Y-11524184D01*
X13324267Y-11524184D02*
X13276648Y-11524184D01*
X13276648Y-11524184D02*
X13257601Y-11514660D01*
X13257601Y-11514660D02*
X13248077Y-11495612D01*
X13248077Y-11495612D02*
X13248077Y-11476565D01*
X13248077Y-11476565D02*
X13257601Y-11457517D01*
X13257601Y-11457517D02*
X13276648Y-11447993D01*
X13276648Y-11447993D02*
X13324267Y-11447993D01*
X13324267Y-11447993D02*
X13343315Y-11438469D01*
X13438553Y-11390850D02*
X13438553Y-11590850D01*
X13438553Y-11400374D02*
X13457601Y-11390850D01*
X13457601Y-11390850D02*
X13495696Y-11390850D01*
X13495696Y-11390850D02*
X13514743Y-11400374D01*
X13514743Y-11400374D02*
X13524267Y-11409898D01*
X13524267Y-11409898D02*
X13533791Y-11428946D01*
X13533791Y-11428946D02*
X13533791Y-11486088D01*
X13533791Y-11486088D02*
X13524267Y-11505136D01*
X13524267Y-11505136D02*
X13514743Y-11514660D01*
X13514743Y-11514660D02*
X13495696Y-11524184D01*
X13495696Y-11524184D02*
X13457601Y-11524184D01*
X13457601Y-11524184D02*
X13438553Y-11514660D01*
X13619505Y-11505136D02*
X13629029Y-11514660D01*
X13629029Y-11514660D02*
X13619505Y-11524184D01*
X13619505Y-11524184D02*
X13609982Y-11514660D01*
X13609982Y-11514660D02*
X13619505Y-11505136D01*
X13619505Y-11505136D02*
X13619505Y-11524184D01*
X13619505Y-11400374D02*
X13629029Y-11409898D01*
X13629029Y-11409898D02*
X13619505Y-11419422D01*
X13619505Y-11419422D02*
X13609982Y-11409898D01*
X13609982Y-11409898D02*
X13619505Y-11400374D01*
X13619505Y-11400374D02*
X13619505Y-11419422D01*
D12*
X11962300Y-11840200D02*
X11987300Y-11865200D01*
X11987300Y-11840200D02*
X11962300Y-11865200D01*
D11*
X12286172Y-11744184D02*
X12305220Y-11744184D01*
X12305220Y-11744184D02*
X12324267Y-11753708D01*
X12324267Y-11753708D02*
X12333791Y-11763231D01*
X12333791Y-11763231D02*
X12343315Y-11782279D01*
X12343315Y-11782279D02*
X12352839Y-11820374D01*
X12352839Y-11820374D02*
X12352839Y-11867993D01*
X12352839Y-11867993D02*
X12343315Y-11906088D01*
X12343315Y-11906088D02*
X12333791Y-11925136D01*
X12333791Y-11925136D02*
X12324267Y-11934660D01*
X12324267Y-11934660D02*
X12305220Y-11944184D01*
X12305220Y-11944184D02*
X12286172Y-11944184D01*
X12286172Y-11944184D02*
X12267124Y-11934660D01*
X12267124Y-11934660D02*
X12257601Y-11925136D01*
X12257601Y-11925136D02*
X12248077Y-11906088D01*
X12248077Y-11906088D02*
X12238553Y-11867993D01*
X12238553Y-11867993D02*
X12238553Y-11820374D01*
X12238553Y-11820374D02*
X12248077Y-11782279D01*
X12248077Y-11782279D02*
X12257601Y-11763231D01*
X12257601Y-11763231D02*
X12267124Y-11753708D01*
X12267124Y-11753708D02*
X12286172Y-11744184D01*
X12438553Y-11925136D02*
X12448077Y-11934660D01*
X12448077Y-11934660D02*
X12438553Y-11944184D01*
X12438553Y-11944184D02*
X12429029Y-11934660D01*
X12429029Y-11934660D02*
X12438553Y-11925136D01*
X12438553Y-11925136D02*
X12438553Y-11944184D01*
X12524267Y-11763231D02*
X12533791Y-11753708D01*
X12533791Y-11753708D02*
X12552839Y-11744184D01*
X12552839Y-11744184D02*
X12600458Y-11744184D01*
X12600458Y-11744184D02*
X12619505Y-11753708D01*
X12619505Y-11753708D02*
X12629029Y-11763231D01*
X12629029Y-11763231D02*
X12638553Y-11782279D01*
X12638553Y-11782279D02*
X12638553Y-11801327D01*
X12638553Y-11801327D02*
X12629029Y-11829898D01*
X12629029Y-11829898D02*
X12514743Y-11944184D01*
X12514743Y-11944184D02*
X12638553Y-11944184D01*
X12819505Y-11744184D02*
X12724267Y-11744184D01*
X12724267Y-11744184D02*
X12714743Y-11839422D01*
X12714743Y-11839422D02*
X12724267Y-11829898D01*
X12724267Y-11829898D02*
X12743315Y-11820374D01*
X12743315Y-11820374D02*
X12790934Y-11820374D01*
X12790934Y-11820374D02*
X12809982Y-11829898D01*
X12809982Y-11829898D02*
X12819505Y-11839422D01*
X12819505Y-11839422D02*
X12829029Y-11858469D01*
X12829029Y-11858469D02*
X12829029Y-11906088D01*
X12829029Y-11906088D02*
X12819505Y-11925136D01*
X12819505Y-11925136D02*
X12809982Y-11934660D01*
X12809982Y-11934660D02*
X12790934Y-11944184D01*
X12790934Y-11944184D02*
X12743315Y-11944184D01*
X12743315Y-11944184D02*
X12724267Y-11934660D01*
X12724267Y-11934660D02*
X12714743Y-11925136D01*
X12952839Y-11744184D02*
X12971886Y-11744184D01*
X12971886Y-11744184D02*
X12990934Y-11753708D01*
X12990934Y-11753708D02*
X13000458Y-11763231D01*
X13000458Y-11763231D02*
X13009982Y-11782279D01*
X13009982Y-11782279D02*
X13019505Y-11820374D01*
X13019505Y-11820374D02*
X13019505Y-11867993D01*
X13019505Y-11867993D02*
X13009982Y-11906088D01*
X13009982Y-11906088D02*
X13000458Y-11925136D01*
X13000458Y-11925136D02*
X12990934Y-11934660D01*
X12990934Y-11934660D02*
X12971886Y-11944184D01*
X12971886Y-11944184D02*
X12952839Y-11944184D01*
X12952839Y-11944184D02*
X12933791Y-11934660D01*
X12933791Y-11934660D02*
X12924267Y-11925136D01*
X12924267Y-11925136D02*
X12914743Y-11906088D01*
X12914743Y-11906088D02*
X12905220Y-11867993D01*
X12905220Y-11867993D02*
X12905220Y-11820374D01*
X12905220Y-11820374D02*
X12914743Y-11782279D01*
X12914743Y-11782279D02*
X12924267Y-11763231D01*
X12924267Y-11763231D02*
X12933791Y-11753708D01*
X12933791Y-11753708D02*
X12952839Y-11744184D01*
X13105220Y-11944184D02*
X13105220Y-11810850D01*
X13105220Y-11829898D02*
X13114743Y-11820374D01*
X13114743Y-11820374D02*
X13133791Y-11810850D01*
X13133791Y-11810850D02*
X13162363Y-11810850D01*
X13162363Y-11810850D02*
X13181410Y-11820374D01*
X13181410Y-11820374D02*
X13190934Y-11839422D01*
X13190934Y-11839422D02*
X13190934Y-11944184D01*
X13190934Y-11839422D02*
X13200458Y-11820374D01*
X13200458Y-11820374D02*
X13219505Y-11810850D01*
X13219505Y-11810850D02*
X13248077Y-11810850D01*
X13248077Y-11810850D02*
X13267124Y-11820374D01*
X13267124Y-11820374D02*
X13276648Y-11839422D01*
X13276648Y-11839422D02*
X13276648Y-11944184D01*
X13371886Y-11944184D02*
X13371886Y-11810850D01*
X13371886Y-11829898D02*
X13381410Y-11820374D01*
X13381410Y-11820374D02*
X13400458Y-11810850D01*
X13400458Y-11810850D02*
X13429029Y-11810850D01*
X13429029Y-11810850D02*
X13448077Y-11820374D01*
X13448077Y-11820374D02*
X13457601Y-11839422D01*
X13457601Y-11839422D02*
X13457601Y-11944184D01*
X13457601Y-11839422D02*
X13467124Y-11820374D01*
X13467124Y-11820374D02*
X13486172Y-11810850D01*
X13486172Y-11810850D02*
X13514743Y-11810850D01*
X13514743Y-11810850D02*
X13533791Y-11820374D01*
X13533791Y-11820374D02*
X13543315Y-11839422D01*
X13543315Y-11839422D02*
X13543315Y-11944184D01*
X13933791Y-11734660D02*
X13762363Y-11991803D01*
X14190934Y-11744184D02*
X14209982Y-11744184D01*
X14209982Y-11744184D02*
X14229029Y-11753708D01*
X14229029Y-11753708D02*
X14238553Y-11763231D01*
X14238553Y-11763231D02*
X14248077Y-11782279D01*
X14248077Y-11782279D02*
X14257601Y-11820374D01*
X14257601Y-11820374D02*
X14257601Y-11867993D01*
X14257601Y-11867993D02*
X14248077Y-11906088D01*
X14248077Y-11906088D02*
X14238553Y-11925136D01*
X14238553Y-11925136D02*
X14229029Y-11934660D01*
X14229029Y-11934660D02*
X14209982Y-11944184D01*
X14209982Y-11944184D02*
X14190934Y-11944184D01*
X14190934Y-11944184D02*
X14171886Y-11934660D01*
X14171886Y-11934660D02*
X14162363Y-11925136D01*
X14162363Y-11925136D02*
X14152839Y-11906088D01*
X14152839Y-11906088D02*
X14143315Y-11867993D01*
X14143315Y-11867993D02*
X14143315Y-11820374D01*
X14143315Y-11820374D02*
X14152839Y-11782279D01*
X14152839Y-11782279D02*
X14162363Y-11763231D01*
X14162363Y-11763231D02*
X14171886Y-11753708D01*
X14171886Y-11753708D02*
X14190934Y-11744184D01*
X14343315Y-11925136D02*
X14352839Y-11934660D01*
X14352839Y-11934660D02*
X14343315Y-11944184D01*
X14343315Y-11944184D02*
X14333791Y-11934660D01*
X14333791Y-11934660D02*
X14343315Y-11925136D01*
X14343315Y-11925136D02*
X14343315Y-11944184D01*
X14476648Y-11744184D02*
X14495696Y-11744184D01*
X14495696Y-11744184D02*
X14514744Y-11753708D01*
X14514744Y-11753708D02*
X14524267Y-11763231D01*
X14524267Y-11763231D02*
X14533791Y-11782279D01*
X14533791Y-11782279D02*
X14543315Y-11820374D01*
X14543315Y-11820374D02*
X14543315Y-11867993D01*
X14543315Y-11867993D02*
X14533791Y-11906088D01*
X14533791Y-11906088D02*
X14524267Y-11925136D01*
X14524267Y-11925136D02*
X14514744Y-11934660D01*
X14514744Y-11934660D02*
X14495696Y-11944184D01*
X14495696Y-11944184D02*
X14476648Y-11944184D01*
X14476648Y-11944184D02*
X14457601Y-11934660D01*
X14457601Y-11934660D02*
X14448077Y-11925136D01*
X14448077Y-11925136D02*
X14438553Y-11906088D01*
X14438553Y-11906088D02*
X14429029Y-11867993D01*
X14429029Y-11867993D02*
X14429029Y-11820374D01*
X14429029Y-11820374D02*
X14438553Y-11782279D01*
X14438553Y-11782279D02*
X14448077Y-11763231D01*
X14448077Y-11763231D02*
X14457601Y-11753708D01*
X14457601Y-11753708D02*
X14476648Y-11744184D01*
X14667125Y-11744184D02*
X14686172Y-11744184D01*
X14686172Y-11744184D02*
X14705220Y-11753708D01*
X14705220Y-11753708D02*
X14714744Y-11763231D01*
X14714744Y-11763231D02*
X14724267Y-11782279D01*
X14724267Y-11782279D02*
X14733791Y-11820374D01*
X14733791Y-11820374D02*
X14733791Y-11867993D01*
X14733791Y-11867993D02*
X14724267Y-11906088D01*
X14724267Y-11906088D02*
X14714744Y-11925136D01*
X14714744Y-11925136D02*
X14705220Y-11934660D01*
X14705220Y-11934660D02*
X14686172Y-11944184D01*
X14686172Y-11944184D02*
X14667125Y-11944184D01*
X14667125Y-11944184D02*
X14648077Y-11934660D01*
X14648077Y-11934660D02*
X14638553Y-11925136D01*
X14638553Y-11925136D02*
X14629029Y-11906088D01*
X14629029Y-11906088D02*
X14619506Y-11867993D01*
X14619506Y-11867993D02*
X14619506Y-11820374D01*
X14619506Y-11820374D02*
X14629029Y-11782279D01*
X14629029Y-11782279D02*
X14638553Y-11763231D01*
X14638553Y-11763231D02*
X14648077Y-11753708D01*
X14648077Y-11753708D02*
X14667125Y-11744184D01*
X14829029Y-11944184D02*
X14867125Y-11944184D01*
X14867125Y-11944184D02*
X14886172Y-11934660D01*
X14886172Y-11934660D02*
X14895696Y-11925136D01*
X14895696Y-11925136D02*
X14914744Y-11896565D01*
X14914744Y-11896565D02*
X14924267Y-11858469D01*
X14924267Y-11858469D02*
X14924267Y-11782279D01*
X14924267Y-11782279D02*
X14914744Y-11763231D01*
X14914744Y-11763231D02*
X14905220Y-11753708D01*
X14905220Y-11753708D02*
X14886172Y-11744184D01*
X14886172Y-11744184D02*
X14848077Y-11744184D01*
X14848077Y-11744184D02*
X14829029Y-11753708D01*
X14829029Y-11753708D02*
X14819506Y-11763231D01*
X14819506Y-11763231D02*
X14809982Y-11782279D01*
X14809982Y-11782279D02*
X14809982Y-11829898D01*
X14809982Y-11829898D02*
X14819506Y-11848946D01*
X14819506Y-11848946D02*
X14829029Y-11858469D01*
X14829029Y-11858469D02*
X14848077Y-11867993D01*
X14848077Y-11867993D02*
X14886172Y-11867993D01*
X14886172Y-11867993D02*
X14905220Y-11858469D01*
X14905220Y-11858469D02*
X14914744Y-11848946D01*
X14914744Y-11848946D02*
X14924267Y-11829898D01*
X15038553Y-11829898D02*
X15019506Y-11820374D01*
X15019506Y-11820374D02*
X15009982Y-11810850D01*
X15009982Y-11810850D02*
X15000458Y-11791803D01*
X15000458Y-11791803D02*
X15000458Y-11782279D01*
X15000458Y-11782279D02*
X15009982Y-11763231D01*
X15009982Y-11763231D02*
X15019506Y-11753708D01*
X15019506Y-11753708D02*
X15038553Y-11744184D01*
X15038553Y-11744184D02*
X15076648Y-11744184D01*
X15076648Y-11744184D02*
X15095696Y-11753708D01*
X15095696Y-11753708D02*
X15105220Y-11763231D01*
X15105220Y-11763231D02*
X15114744Y-11782279D01*
X15114744Y-11782279D02*
X15114744Y-11791803D01*
X15114744Y-11791803D02*
X15105220Y-11810850D01*
X15105220Y-11810850D02*
X15095696Y-11820374D01*
X15095696Y-11820374D02*
X15076648Y-11829898D01*
X15076648Y-11829898D02*
X15038553Y-11829898D01*
X15038553Y-11829898D02*
X15019506Y-11839422D01*
X15019506Y-11839422D02*
X15009982Y-11848946D01*
X15009982Y-11848946D02*
X15000458Y-11867993D01*
X15000458Y-11867993D02*
X15000458Y-11906088D01*
X15000458Y-11906088D02*
X15009982Y-11925136D01*
X15009982Y-11925136D02*
X15019506Y-11934660D01*
X15019506Y-11934660D02*
X15038553Y-11944184D01*
X15038553Y-11944184D02*
X15076648Y-11944184D01*
X15076648Y-11944184D02*
X15095696Y-11934660D01*
X15095696Y-11934660D02*
X15105220Y-11925136D01*
X15105220Y-11925136D02*
X15114744Y-11906088D01*
X15114744Y-11906088D02*
X15114744Y-11867993D01*
X15114744Y-11867993D02*
X15105220Y-11848946D01*
X15105220Y-11848946D02*
X15095696Y-11839422D01*
X15095696Y-11839422D02*
X15076648Y-11829898D01*
X15190934Y-11744184D02*
X15190934Y-11782279D01*
X15267125Y-11744184D02*
X15267125Y-11782279D01*
X15562363Y-12020374D02*
X15552839Y-12010850D01*
X15552839Y-12010850D02*
X15533791Y-11982279D01*
X15533791Y-11982279D02*
X15524268Y-11963231D01*
X15524268Y-11963231D02*
X15514744Y-11934660D01*
X15514744Y-11934660D02*
X15505220Y-11887041D01*
X15505220Y-11887041D02*
X15505220Y-11848946D01*
X15505220Y-11848946D02*
X15514744Y-11801327D01*
X15514744Y-11801327D02*
X15524268Y-11772755D01*
X15524268Y-11772755D02*
X15533791Y-11753708D01*
X15533791Y-11753708D02*
X15552839Y-11725136D01*
X15552839Y-11725136D02*
X15562363Y-11715612D01*
X15743315Y-11944184D02*
X15629029Y-11944184D01*
X15686172Y-11944184D02*
X15686172Y-11744184D01*
X15686172Y-11744184D02*
X15667125Y-11772755D01*
X15667125Y-11772755D02*
X15648077Y-11791803D01*
X15648077Y-11791803D02*
X15629029Y-11801327D01*
X15924268Y-11744184D02*
X15829029Y-11744184D01*
X15829029Y-11744184D02*
X15819506Y-11839422D01*
X15819506Y-11839422D02*
X15829029Y-11829898D01*
X15829029Y-11829898D02*
X15848077Y-11820374D01*
X15848077Y-11820374D02*
X15895696Y-11820374D01*
X15895696Y-11820374D02*
X15914744Y-11829898D01*
X15914744Y-11829898D02*
X15924268Y-11839422D01*
X15924268Y-11839422D02*
X15933791Y-11858469D01*
X15933791Y-11858469D02*
X15933791Y-11906088D01*
X15933791Y-11906088D02*
X15924268Y-11925136D01*
X15924268Y-11925136D02*
X15914744Y-11934660D01*
X15914744Y-11934660D02*
X15895696Y-11944184D01*
X15895696Y-11944184D02*
X15848077Y-11944184D01*
X15848077Y-11944184D02*
X15829029Y-11934660D01*
X15829029Y-11934660D02*
X15819506Y-11925136D01*
X16029029Y-11944184D02*
X16067125Y-11944184D01*
X16067125Y-11944184D02*
X16086172Y-11934660D01*
X16086172Y-11934660D02*
X16095696Y-11925136D01*
X16095696Y-11925136D02*
X16114744Y-11896565D01*
X16114744Y-11896565D02*
X16124268Y-11858469D01*
X16124268Y-11858469D02*
X16124268Y-11782279D01*
X16124268Y-11782279D02*
X16114744Y-11763231D01*
X16114744Y-11763231D02*
X16105220Y-11753708D01*
X16105220Y-11753708D02*
X16086172Y-11744184D01*
X16086172Y-11744184D02*
X16048077Y-11744184D01*
X16048077Y-11744184D02*
X16029029Y-11753708D01*
X16029029Y-11753708D02*
X16019506Y-11763231D01*
X16019506Y-11763231D02*
X16009982Y-11782279D01*
X16009982Y-11782279D02*
X16009982Y-11829898D01*
X16009982Y-11829898D02*
X16019506Y-11848946D01*
X16019506Y-11848946D02*
X16029029Y-11858469D01*
X16029029Y-11858469D02*
X16048077Y-11867993D01*
X16048077Y-11867993D02*
X16086172Y-11867993D01*
X16086172Y-11867993D02*
X16105220Y-11858469D01*
X16105220Y-11858469D02*
X16114744Y-11848946D01*
X16114744Y-11848946D02*
X16124268Y-11829898D01*
X16362363Y-11944184D02*
X16362363Y-11744184D01*
X16448077Y-11944184D02*
X16448077Y-11839422D01*
X16448077Y-11839422D02*
X16438553Y-11820374D01*
X16438553Y-11820374D02*
X16419506Y-11810850D01*
X16419506Y-11810850D02*
X16390934Y-11810850D01*
X16390934Y-11810850D02*
X16371887Y-11820374D01*
X16371887Y-11820374D02*
X16362363Y-11829898D01*
X16571887Y-11944184D02*
X16552839Y-11934660D01*
X16552839Y-11934660D02*
X16543315Y-11925136D01*
X16543315Y-11925136D02*
X16533791Y-11906088D01*
X16533791Y-11906088D02*
X16533791Y-11848946D01*
X16533791Y-11848946D02*
X16543315Y-11829898D01*
X16543315Y-11829898D02*
X16552839Y-11820374D01*
X16552839Y-11820374D02*
X16571887Y-11810850D01*
X16571887Y-11810850D02*
X16600458Y-11810850D01*
X16600458Y-11810850D02*
X16619506Y-11820374D01*
X16619506Y-11820374D02*
X16629030Y-11829898D01*
X16629030Y-11829898D02*
X16638553Y-11848946D01*
X16638553Y-11848946D02*
X16638553Y-11906088D01*
X16638553Y-11906088D02*
X16629030Y-11925136D01*
X16629030Y-11925136D02*
X16619506Y-11934660D01*
X16619506Y-11934660D02*
X16600458Y-11944184D01*
X16600458Y-11944184D02*
X16571887Y-11944184D01*
X16752839Y-11944184D02*
X16733791Y-11934660D01*
X16733791Y-11934660D02*
X16724268Y-11915612D01*
X16724268Y-11915612D02*
X16724268Y-11744184D01*
X16905220Y-11934660D02*
X16886173Y-11944184D01*
X16886173Y-11944184D02*
X16848077Y-11944184D01*
X16848077Y-11944184D02*
X16829030Y-11934660D01*
X16829030Y-11934660D02*
X16819506Y-11915612D01*
X16819506Y-11915612D02*
X16819506Y-11839422D01*
X16819506Y-11839422D02*
X16829030Y-11820374D01*
X16829030Y-11820374D02*
X16848077Y-11810850D01*
X16848077Y-11810850D02*
X16886173Y-11810850D01*
X16886173Y-11810850D02*
X16905220Y-11820374D01*
X16905220Y-11820374D02*
X16914744Y-11839422D01*
X16914744Y-11839422D02*
X16914744Y-11858469D01*
X16914744Y-11858469D02*
X16819506Y-11877517D01*
X16990934Y-11934660D02*
X17009982Y-11944184D01*
X17009982Y-11944184D02*
X17048077Y-11944184D01*
X17048077Y-11944184D02*
X17067125Y-11934660D01*
X17067125Y-11934660D02*
X17076649Y-11915612D01*
X17076649Y-11915612D02*
X17076649Y-11906088D01*
X17076649Y-11906088D02*
X17067125Y-11887041D01*
X17067125Y-11887041D02*
X17048077Y-11877517D01*
X17048077Y-11877517D02*
X17019506Y-11877517D01*
X17019506Y-11877517D02*
X17000458Y-11867993D01*
X17000458Y-11867993D02*
X16990934Y-11848946D01*
X16990934Y-11848946D02*
X16990934Y-11839422D01*
X16990934Y-11839422D02*
X17000458Y-11820374D01*
X17000458Y-11820374D02*
X17019506Y-11810850D01*
X17019506Y-11810850D02*
X17048077Y-11810850D01*
X17048077Y-11810850D02*
X17067125Y-11820374D01*
X17143315Y-12020374D02*
X17152839Y-12010850D01*
X17152839Y-12010850D02*
X17171887Y-11982279D01*
X17171887Y-11982279D02*
X17181411Y-11963231D01*
X17181411Y-11963231D02*
X17190934Y-11934660D01*
X17190934Y-11934660D02*
X17200458Y-11887041D01*
X17200458Y-11887041D02*
X17200458Y-11848946D01*
X17200458Y-11848946D02*
X17190934Y-11801327D01*
X17190934Y-11801327D02*
X17181411Y-11772755D01*
X17181411Y-11772755D02*
X17171887Y-11753708D01*
X17171887Y-11753708D02*
X17152839Y-11725136D01*
X17152839Y-11725136D02*
X17143315Y-11715612D01*
D12*
X11987300Y-12116700D02*
G75*
G02*
X11957300Y-12116700I-15000J0D01*
G01*
X11957300Y-12116700D02*
G75*
G02*
X11987300Y-12116700I15000J0D01*
G01*
D11*
X12286172Y-12008184D02*
X12305220Y-12008184D01*
X12305220Y-12008184D02*
X12324267Y-12017708D01*
X12324267Y-12017708D02*
X12333791Y-12027231D01*
X12333791Y-12027231D02*
X12343315Y-12046279D01*
X12343315Y-12046279D02*
X12352839Y-12084374D01*
X12352839Y-12084374D02*
X12352839Y-12131993D01*
X12352839Y-12131993D02*
X12343315Y-12170088D01*
X12343315Y-12170088D02*
X12333791Y-12189136D01*
X12333791Y-12189136D02*
X12324267Y-12198660D01*
X12324267Y-12198660D02*
X12305220Y-12208184D01*
X12305220Y-12208184D02*
X12286172Y-12208184D01*
X12286172Y-12208184D02*
X12267124Y-12198660D01*
X12267124Y-12198660D02*
X12257601Y-12189136D01*
X12257601Y-12189136D02*
X12248077Y-12170088D01*
X12248077Y-12170088D02*
X12238553Y-12131993D01*
X12238553Y-12131993D02*
X12238553Y-12084374D01*
X12238553Y-12084374D02*
X12248077Y-12046279D01*
X12248077Y-12046279D02*
X12257601Y-12027231D01*
X12257601Y-12027231D02*
X12267124Y-12017708D01*
X12267124Y-12017708D02*
X12286172Y-12008184D01*
X12438553Y-12189136D02*
X12448077Y-12198660D01*
X12448077Y-12198660D02*
X12438553Y-12208184D01*
X12438553Y-12208184D02*
X12429029Y-12198660D01*
X12429029Y-12198660D02*
X12438553Y-12189136D01*
X12438553Y-12189136D02*
X12438553Y-12208184D01*
X12514743Y-12008184D02*
X12638553Y-12008184D01*
X12638553Y-12008184D02*
X12571886Y-12084374D01*
X12571886Y-12084374D02*
X12600458Y-12084374D01*
X12600458Y-12084374D02*
X12619505Y-12093898D01*
X12619505Y-12093898D02*
X12629029Y-12103422D01*
X12629029Y-12103422D02*
X12638553Y-12122469D01*
X12638553Y-12122469D02*
X12638553Y-12170088D01*
X12638553Y-12170088D02*
X12629029Y-12189136D01*
X12629029Y-12189136D02*
X12619505Y-12198660D01*
X12619505Y-12198660D02*
X12600458Y-12208184D01*
X12600458Y-12208184D02*
X12543315Y-12208184D01*
X12543315Y-12208184D02*
X12524267Y-12198660D01*
X12524267Y-12198660D02*
X12514743Y-12189136D01*
X12762362Y-12008184D02*
X12781410Y-12008184D01*
X12781410Y-12008184D02*
X12800458Y-12017708D01*
X12800458Y-12017708D02*
X12809982Y-12027231D01*
X12809982Y-12027231D02*
X12819505Y-12046279D01*
X12819505Y-12046279D02*
X12829029Y-12084374D01*
X12829029Y-12084374D02*
X12829029Y-12131993D01*
X12829029Y-12131993D02*
X12819505Y-12170088D01*
X12819505Y-12170088D02*
X12809982Y-12189136D01*
X12809982Y-12189136D02*
X12800458Y-12198660D01*
X12800458Y-12198660D02*
X12781410Y-12208184D01*
X12781410Y-12208184D02*
X12762362Y-12208184D01*
X12762362Y-12208184D02*
X12743315Y-12198660D01*
X12743315Y-12198660D02*
X12733791Y-12189136D01*
X12733791Y-12189136D02*
X12724267Y-12170088D01*
X12724267Y-12170088D02*
X12714743Y-12131993D01*
X12714743Y-12131993D02*
X12714743Y-12084374D01*
X12714743Y-12084374D02*
X12724267Y-12046279D01*
X12724267Y-12046279D02*
X12733791Y-12027231D01*
X12733791Y-12027231D02*
X12743315Y-12017708D01*
X12743315Y-12017708D02*
X12762362Y-12008184D01*
X12952839Y-12008184D02*
X12971886Y-12008184D01*
X12971886Y-12008184D02*
X12990934Y-12017708D01*
X12990934Y-12017708D02*
X13000458Y-12027231D01*
X13000458Y-12027231D02*
X13009982Y-12046279D01*
X13009982Y-12046279D02*
X13019505Y-12084374D01*
X13019505Y-12084374D02*
X13019505Y-12131993D01*
X13019505Y-12131993D02*
X13009982Y-12170088D01*
X13009982Y-12170088D02*
X13000458Y-12189136D01*
X13000458Y-12189136D02*
X12990934Y-12198660D01*
X12990934Y-12198660D02*
X12971886Y-12208184D01*
X12971886Y-12208184D02*
X12952839Y-12208184D01*
X12952839Y-12208184D02*
X12933791Y-12198660D01*
X12933791Y-12198660D02*
X12924267Y-12189136D01*
X12924267Y-12189136D02*
X12914743Y-12170088D01*
X12914743Y-12170088D02*
X12905220Y-12131993D01*
X12905220Y-12131993D02*
X12905220Y-12084374D01*
X12905220Y-12084374D02*
X12914743Y-12046279D01*
X12914743Y-12046279D02*
X12924267Y-12027231D01*
X12924267Y-12027231D02*
X12933791Y-12017708D01*
X12933791Y-12017708D02*
X12952839Y-12008184D01*
X13105220Y-12208184D02*
X13105220Y-12074850D01*
X13105220Y-12093898D02*
X13114743Y-12084374D01*
X13114743Y-12084374D02*
X13133791Y-12074850D01*
X13133791Y-12074850D02*
X13162363Y-12074850D01*
X13162363Y-12074850D02*
X13181410Y-12084374D01*
X13181410Y-12084374D02*
X13190934Y-12103422D01*
X13190934Y-12103422D02*
X13190934Y-12208184D01*
X13190934Y-12103422D02*
X13200458Y-12084374D01*
X13200458Y-12084374D02*
X13219505Y-12074850D01*
X13219505Y-12074850D02*
X13248077Y-12074850D01*
X13248077Y-12074850D02*
X13267124Y-12084374D01*
X13267124Y-12084374D02*
X13276648Y-12103422D01*
X13276648Y-12103422D02*
X13276648Y-12208184D01*
X13371886Y-12208184D02*
X13371886Y-12074850D01*
X13371886Y-12093898D02*
X13381410Y-12084374D01*
X13381410Y-12084374D02*
X13400458Y-12074850D01*
X13400458Y-12074850D02*
X13429029Y-12074850D01*
X13429029Y-12074850D02*
X13448077Y-12084374D01*
X13448077Y-12084374D02*
X13457601Y-12103422D01*
X13457601Y-12103422D02*
X13457601Y-12208184D01*
X13457601Y-12103422D02*
X13467124Y-12084374D01*
X13467124Y-12084374D02*
X13486172Y-12074850D01*
X13486172Y-12074850D02*
X13514743Y-12074850D01*
X13514743Y-12074850D02*
X13533791Y-12084374D01*
X13533791Y-12084374D02*
X13543315Y-12103422D01*
X13543315Y-12103422D02*
X13543315Y-12208184D01*
X13933791Y-11998660D02*
X13762363Y-12255803D01*
X14190934Y-12008184D02*
X14209982Y-12008184D01*
X14209982Y-12008184D02*
X14229029Y-12017708D01*
X14229029Y-12017708D02*
X14238553Y-12027231D01*
X14238553Y-12027231D02*
X14248077Y-12046279D01*
X14248077Y-12046279D02*
X14257601Y-12084374D01*
X14257601Y-12084374D02*
X14257601Y-12131993D01*
X14257601Y-12131993D02*
X14248077Y-12170088D01*
X14248077Y-12170088D02*
X14238553Y-12189136D01*
X14238553Y-12189136D02*
X14229029Y-12198660D01*
X14229029Y-12198660D02*
X14209982Y-12208184D01*
X14209982Y-12208184D02*
X14190934Y-12208184D01*
X14190934Y-12208184D02*
X14171886Y-12198660D01*
X14171886Y-12198660D02*
X14162363Y-12189136D01*
X14162363Y-12189136D02*
X14152839Y-12170088D01*
X14152839Y-12170088D02*
X14143315Y-12131993D01*
X14143315Y-12131993D02*
X14143315Y-12084374D01*
X14143315Y-12084374D02*
X14152839Y-12046279D01*
X14152839Y-12046279D02*
X14162363Y-12027231D01*
X14162363Y-12027231D02*
X14171886Y-12017708D01*
X14171886Y-12017708D02*
X14190934Y-12008184D01*
X14343315Y-12189136D02*
X14352839Y-12198660D01*
X14352839Y-12198660D02*
X14343315Y-12208184D01*
X14343315Y-12208184D02*
X14333791Y-12198660D01*
X14333791Y-12198660D02*
X14343315Y-12189136D01*
X14343315Y-12189136D02*
X14343315Y-12208184D01*
X14476648Y-12008184D02*
X14495696Y-12008184D01*
X14495696Y-12008184D02*
X14514744Y-12017708D01*
X14514744Y-12017708D02*
X14524267Y-12027231D01*
X14524267Y-12027231D02*
X14533791Y-12046279D01*
X14533791Y-12046279D02*
X14543315Y-12084374D01*
X14543315Y-12084374D02*
X14543315Y-12131993D01*
X14543315Y-12131993D02*
X14533791Y-12170088D01*
X14533791Y-12170088D02*
X14524267Y-12189136D01*
X14524267Y-12189136D02*
X14514744Y-12198660D01*
X14514744Y-12198660D02*
X14495696Y-12208184D01*
X14495696Y-12208184D02*
X14476648Y-12208184D01*
X14476648Y-12208184D02*
X14457601Y-12198660D01*
X14457601Y-12198660D02*
X14448077Y-12189136D01*
X14448077Y-12189136D02*
X14438553Y-12170088D01*
X14438553Y-12170088D02*
X14429029Y-12131993D01*
X14429029Y-12131993D02*
X14429029Y-12084374D01*
X14429029Y-12084374D02*
X14438553Y-12046279D01*
X14438553Y-12046279D02*
X14448077Y-12027231D01*
X14448077Y-12027231D02*
X14457601Y-12017708D01*
X14457601Y-12017708D02*
X14476648Y-12008184D01*
X14733791Y-12208184D02*
X14619506Y-12208184D01*
X14676648Y-12208184D02*
X14676648Y-12008184D01*
X14676648Y-12008184D02*
X14657601Y-12036755D01*
X14657601Y-12036755D02*
X14638553Y-12055803D01*
X14638553Y-12055803D02*
X14619506Y-12065327D01*
X14924267Y-12208184D02*
X14809982Y-12208184D01*
X14867125Y-12208184D02*
X14867125Y-12008184D01*
X14867125Y-12008184D02*
X14848077Y-12036755D01*
X14848077Y-12036755D02*
X14829029Y-12055803D01*
X14829029Y-12055803D02*
X14809982Y-12065327D01*
X15038553Y-12093898D02*
X15019506Y-12084374D01*
X15019506Y-12084374D02*
X15009982Y-12074850D01*
X15009982Y-12074850D02*
X15000458Y-12055803D01*
X15000458Y-12055803D02*
X15000458Y-12046279D01*
X15000458Y-12046279D02*
X15009982Y-12027231D01*
X15009982Y-12027231D02*
X15019506Y-12017708D01*
X15019506Y-12017708D02*
X15038553Y-12008184D01*
X15038553Y-12008184D02*
X15076648Y-12008184D01*
X15076648Y-12008184D02*
X15095696Y-12017708D01*
X15095696Y-12017708D02*
X15105220Y-12027231D01*
X15105220Y-12027231D02*
X15114744Y-12046279D01*
X15114744Y-12046279D02*
X15114744Y-12055803D01*
X15114744Y-12055803D02*
X15105220Y-12074850D01*
X15105220Y-12074850D02*
X15095696Y-12084374D01*
X15095696Y-12084374D02*
X15076648Y-12093898D01*
X15076648Y-12093898D02*
X15038553Y-12093898D01*
X15038553Y-12093898D02*
X15019506Y-12103422D01*
X15019506Y-12103422D02*
X15009982Y-12112946D01*
X15009982Y-12112946D02*
X15000458Y-12131993D01*
X15000458Y-12131993D02*
X15000458Y-12170088D01*
X15000458Y-12170088D02*
X15009982Y-12189136D01*
X15009982Y-12189136D02*
X15019506Y-12198660D01*
X15019506Y-12198660D02*
X15038553Y-12208184D01*
X15038553Y-12208184D02*
X15076648Y-12208184D01*
X15076648Y-12208184D02*
X15095696Y-12198660D01*
X15095696Y-12198660D02*
X15105220Y-12189136D01*
X15105220Y-12189136D02*
X15114744Y-12170088D01*
X15114744Y-12170088D02*
X15114744Y-12131993D01*
X15114744Y-12131993D02*
X15105220Y-12112946D01*
X15105220Y-12112946D02*
X15095696Y-12103422D01*
X15095696Y-12103422D02*
X15076648Y-12093898D01*
X15190934Y-12008184D02*
X15190934Y-12046279D01*
X15267125Y-12008184D02*
X15267125Y-12046279D01*
X15562363Y-12284374D02*
X15552839Y-12274850D01*
X15552839Y-12274850D02*
X15533791Y-12246279D01*
X15533791Y-12246279D02*
X15524268Y-12227231D01*
X15524268Y-12227231D02*
X15514744Y-12198660D01*
X15514744Y-12198660D02*
X15505220Y-12151041D01*
X15505220Y-12151041D02*
X15505220Y-12112946D01*
X15505220Y-12112946D02*
X15514744Y-12065327D01*
X15514744Y-12065327D02*
X15524268Y-12036755D01*
X15524268Y-12036755D02*
X15533791Y-12017708D01*
X15533791Y-12017708D02*
X15552839Y-11989136D01*
X15552839Y-11989136D02*
X15562363Y-11979612D01*
X15629029Y-12027231D02*
X15638553Y-12017708D01*
X15638553Y-12017708D02*
X15657601Y-12008184D01*
X15657601Y-12008184D02*
X15705220Y-12008184D01*
X15705220Y-12008184D02*
X15724268Y-12017708D01*
X15724268Y-12017708D02*
X15733791Y-12027231D01*
X15733791Y-12027231D02*
X15743315Y-12046279D01*
X15743315Y-12046279D02*
X15743315Y-12065327D01*
X15743315Y-12065327D02*
X15733791Y-12093898D01*
X15733791Y-12093898D02*
X15619506Y-12208184D01*
X15619506Y-12208184D02*
X15743315Y-12208184D01*
X15981410Y-12208184D02*
X15981410Y-12008184D01*
X16067125Y-12208184D02*
X16067125Y-12103422D01*
X16067125Y-12103422D02*
X16057601Y-12084374D01*
X16057601Y-12084374D02*
X16038553Y-12074850D01*
X16038553Y-12074850D02*
X16009982Y-12074850D01*
X16009982Y-12074850D02*
X15990934Y-12084374D01*
X15990934Y-12084374D02*
X15981410Y-12093898D01*
X16190934Y-12208184D02*
X16171887Y-12198660D01*
X16171887Y-12198660D02*
X16162363Y-12189136D01*
X16162363Y-12189136D02*
X16152839Y-12170088D01*
X16152839Y-12170088D02*
X16152839Y-12112946D01*
X16152839Y-12112946D02*
X16162363Y-12093898D01*
X16162363Y-12093898D02*
X16171887Y-12084374D01*
X16171887Y-12084374D02*
X16190934Y-12074850D01*
X16190934Y-12074850D02*
X16219506Y-12074850D01*
X16219506Y-12074850D02*
X16238553Y-12084374D01*
X16238553Y-12084374D02*
X16248077Y-12093898D01*
X16248077Y-12093898D02*
X16257601Y-12112946D01*
X16257601Y-12112946D02*
X16257601Y-12170088D01*
X16257601Y-12170088D02*
X16248077Y-12189136D01*
X16248077Y-12189136D02*
X16238553Y-12198660D01*
X16238553Y-12198660D02*
X16219506Y-12208184D01*
X16219506Y-12208184D02*
X16190934Y-12208184D01*
X16371887Y-12208184D02*
X16352839Y-12198660D01*
X16352839Y-12198660D02*
X16343315Y-12179612D01*
X16343315Y-12179612D02*
X16343315Y-12008184D01*
X16524268Y-12198660D02*
X16505220Y-12208184D01*
X16505220Y-12208184D02*
X16467125Y-12208184D01*
X16467125Y-12208184D02*
X16448077Y-12198660D01*
X16448077Y-12198660D02*
X16438553Y-12179612D01*
X16438553Y-12179612D02*
X16438553Y-12103422D01*
X16438553Y-12103422D02*
X16448077Y-12084374D01*
X16448077Y-12084374D02*
X16467125Y-12074850D01*
X16467125Y-12074850D02*
X16505220Y-12074850D01*
X16505220Y-12074850D02*
X16524268Y-12084374D01*
X16524268Y-12084374D02*
X16533791Y-12103422D01*
X16533791Y-12103422D02*
X16533791Y-12122469D01*
X16533791Y-12122469D02*
X16438553Y-12141517D01*
X16609982Y-12198660D02*
X16629030Y-12208184D01*
X16629030Y-12208184D02*
X16667125Y-12208184D01*
X16667125Y-12208184D02*
X16686172Y-12198660D01*
X16686172Y-12198660D02*
X16695696Y-12179612D01*
X16695696Y-12179612D02*
X16695696Y-12170088D01*
X16695696Y-12170088D02*
X16686172Y-12151041D01*
X16686172Y-12151041D02*
X16667125Y-12141517D01*
X16667125Y-12141517D02*
X16638553Y-12141517D01*
X16638553Y-12141517D02*
X16619506Y-12131993D01*
X16619506Y-12131993D02*
X16609982Y-12112946D01*
X16609982Y-12112946D02*
X16609982Y-12103422D01*
X16609982Y-12103422D02*
X16619506Y-12084374D01*
X16619506Y-12084374D02*
X16638553Y-12074850D01*
X16638553Y-12074850D02*
X16667125Y-12074850D01*
X16667125Y-12074850D02*
X16686172Y-12084374D01*
X16762363Y-12284374D02*
X16771887Y-12274850D01*
X16771887Y-12274850D02*
X16790934Y-12246279D01*
X16790934Y-12246279D02*
X16800458Y-12227231D01*
X16800458Y-12227231D02*
X16809982Y-12198660D01*
X16809982Y-12198660D02*
X16819506Y-12151041D01*
X16819506Y-12151041D02*
X16819506Y-12112946D01*
X16819506Y-12112946D02*
X16809982Y-12065327D01*
X16809982Y-12065327D02*
X16800458Y-12036755D01*
X16800458Y-12036755D02*
X16790934Y-12017708D01*
X16790934Y-12017708D02*
X16771887Y-11989136D01*
X16771887Y-11989136D02*
X16762363Y-11979612D01*
D12*
X11957300Y-12350700D02*
X11957300Y-12410700D01*
X11927300Y-12380700D02*
X11987300Y-12380700D01*
D11*
X12286172Y-12272184D02*
X12305220Y-12272184D01*
X12305220Y-12272184D02*
X12324267Y-12281708D01*
X12324267Y-12281708D02*
X12333791Y-12291231D01*
X12333791Y-12291231D02*
X12343315Y-12310279D01*
X12343315Y-12310279D02*
X12352839Y-12348374D01*
X12352839Y-12348374D02*
X12352839Y-12395993D01*
X12352839Y-12395993D02*
X12343315Y-12434088D01*
X12343315Y-12434088D02*
X12333791Y-12453136D01*
X12333791Y-12453136D02*
X12324267Y-12462660D01*
X12324267Y-12462660D02*
X12305220Y-12472184D01*
X12305220Y-12472184D02*
X12286172Y-12472184D01*
X12286172Y-12472184D02*
X12267124Y-12462660D01*
X12267124Y-12462660D02*
X12257601Y-12453136D01*
X12257601Y-12453136D02*
X12248077Y-12434088D01*
X12248077Y-12434088D02*
X12238553Y-12395993D01*
X12238553Y-12395993D02*
X12238553Y-12348374D01*
X12238553Y-12348374D02*
X12248077Y-12310279D01*
X12248077Y-12310279D02*
X12257601Y-12291231D01*
X12257601Y-12291231D02*
X12267124Y-12281708D01*
X12267124Y-12281708D02*
X12286172Y-12272184D01*
X12438553Y-12453136D02*
X12448077Y-12462660D01*
X12448077Y-12462660D02*
X12438553Y-12472184D01*
X12438553Y-12472184D02*
X12429029Y-12462660D01*
X12429029Y-12462660D02*
X12438553Y-12453136D01*
X12438553Y-12453136D02*
X12438553Y-12472184D01*
X12619505Y-12272184D02*
X12581410Y-12272184D01*
X12581410Y-12272184D02*
X12562362Y-12281708D01*
X12562362Y-12281708D02*
X12552839Y-12291231D01*
X12552839Y-12291231D02*
X12533791Y-12319803D01*
X12533791Y-12319803D02*
X12524267Y-12357898D01*
X12524267Y-12357898D02*
X12524267Y-12434088D01*
X12524267Y-12434088D02*
X12533791Y-12453136D01*
X12533791Y-12453136D02*
X12543315Y-12462660D01*
X12543315Y-12462660D02*
X12562362Y-12472184D01*
X12562362Y-12472184D02*
X12600458Y-12472184D01*
X12600458Y-12472184D02*
X12619505Y-12462660D01*
X12619505Y-12462660D02*
X12629029Y-12453136D01*
X12629029Y-12453136D02*
X12638553Y-12434088D01*
X12638553Y-12434088D02*
X12638553Y-12386469D01*
X12638553Y-12386469D02*
X12629029Y-12367422D01*
X12629029Y-12367422D02*
X12619505Y-12357898D01*
X12619505Y-12357898D02*
X12600458Y-12348374D01*
X12600458Y-12348374D02*
X12562362Y-12348374D01*
X12562362Y-12348374D02*
X12543315Y-12357898D01*
X12543315Y-12357898D02*
X12533791Y-12367422D01*
X12533791Y-12367422D02*
X12524267Y-12386469D01*
X12762362Y-12272184D02*
X12781410Y-12272184D01*
X12781410Y-12272184D02*
X12800458Y-12281708D01*
X12800458Y-12281708D02*
X12809982Y-12291231D01*
X12809982Y-12291231D02*
X12819505Y-12310279D01*
X12819505Y-12310279D02*
X12829029Y-12348374D01*
X12829029Y-12348374D02*
X12829029Y-12395993D01*
X12829029Y-12395993D02*
X12819505Y-12434088D01*
X12819505Y-12434088D02*
X12809982Y-12453136D01*
X12809982Y-12453136D02*
X12800458Y-12462660D01*
X12800458Y-12462660D02*
X12781410Y-12472184D01*
X12781410Y-12472184D02*
X12762362Y-12472184D01*
X12762362Y-12472184D02*
X12743315Y-12462660D01*
X12743315Y-12462660D02*
X12733791Y-12453136D01*
X12733791Y-12453136D02*
X12724267Y-12434088D01*
X12724267Y-12434088D02*
X12714743Y-12395993D01*
X12714743Y-12395993D02*
X12714743Y-12348374D01*
X12714743Y-12348374D02*
X12724267Y-12310279D01*
X12724267Y-12310279D02*
X12733791Y-12291231D01*
X12733791Y-12291231D02*
X12743315Y-12281708D01*
X12743315Y-12281708D02*
X12762362Y-12272184D01*
X12952839Y-12272184D02*
X12971886Y-12272184D01*
X12971886Y-12272184D02*
X12990934Y-12281708D01*
X12990934Y-12281708D02*
X13000458Y-12291231D01*
X13000458Y-12291231D02*
X13009982Y-12310279D01*
X13009982Y-12310279D02*
X13019505Y-12348374D01*
X13019505Y-12348374D02*
X13019505Y-12395993D01*
X13019505Y-12395993D02*
X13009982Y-12434088D01*
X13009982Y-12434088D02*
X13000458Y-12453136D01*
X13000458Y-12453136D02*
X12990934Y-12462660D01*
X12990934Y-12462660D02*
X12971886Y-12472184D01*
X12971886Y-12472184D02*
X12952839Y-12472184D01*
X12952839Y-12472184D02*
X12933791Y-12462660D01*
X12933791Y-12462660D02*
X12924267Y-12453136D01*
X12924267Y-12453136D02*
X12914743Y-12434088D01*
X12914743Y-12434088D02*
X12905220Y-12395993D01*
X12905220Y-12395993D02*
X12905220Y-12348374D01*
X12905220Y-12348374D02*
X12914743Y-12310279D01*
X12914743Y-12310279D02*
X12924267Y-12291231D01*
X12924267Y-12291231D02*
X12933791Y-12281708D01*
X12933791Y-12281708D02*
X12952839Y-12272184D01*
X13105220Y-12472184D02*
X13105220Y-12338850D01*
X13105220Y-12357898D02*
X13114743Y-12348374D01*
X13114743Y-12348374D02*
X13133791Y-12338850D01*
X13133791Y-12338850D02*
X13162363Y-12338850D01*
X13162363Y-12338850D02*
X13181410Y-12348374D01*
X13181410Y-12348374D02*
X13190934Y-12367422D01*
X13190934Y-12367422D02*
X13190934Y-12472184D01*
X13190934Y-12367422D02*
X13200458Y-12348374D01*
X13200458Y-12348374D02*
X13219505Y-12338850D01*
X13219505Y-12338850D02*
X13248077Y-12338850D01*
X13248077Y-12338850D02*
X13267124Y-12348374D01*
X13267124Y-12348374D02*
X13276648Y-12367422D01*
X13276648Y-12367422D02*
X13276648Y-12472184D01*
X13371886Y-12472184D02*
X13371886Y-12338850D01*
X13371886Y-12357898D02*
X13381410Y-12348374D01*
X13381410Y-12348374D02*
X13400458Y-12338850D01*
X13400458Y-12338850D02*
X13429029Y-12338850D01*
X13429029Y-12338850D02*
X13448077Y-12348374D01*
X13448077Y-12348374D02*
X13457601Y-12367422D01*
X13457601Y-12367422D02*
X13457601Y-12472184D01*
X13457601Y-12367422D02*
X13467124Y-12348374D01*
X13467124Y-12348374D02*
X13486172Y-12338850D01*
X13486172Y-12338850D02*
X13514743Y-12338850D01*
X13514743Y-12338850D02*
X13533791Y-12348374D01*
X13533791Y-12348374D02*
X13543315Y-12367422D01*
X13543315Y-12367422D02*
X13543315Y-12472184D01*
X13933791Y-12262660D02*
X13762363Y-12519803D01*
X14190934Y-12272184D02*
X14209982Y-12272184D01*
X14209982Y-12272184D02*
X14229029Y-12281708D01*
X14229029Y-12281708D02*
X14238553Y-12291231D01*
X14238553Y-12291231D02*
X14248077Y-12310279D01*
X14248077Y-12310279D02*
X14257601Y-12348374D01*
X14257601Y-12348374D02*
X14257601Y-12395993D01*
X14257601Y-12395993D02*
X14248077Y-12434088D01*
X14248077Y-12434088D02*
X14238553Y-12453136D01*
X14238553Y-12453136D02*
X14229029Y-12462660D01*
X14229029Y-12462660D02*
X14209982Y-12472184D01*
X14209982Y-12472184D02*
X14190934Y-12472184D01*
X14190934Y-12472184D02*
X14171886Y-12462660D01*
X14171886Y-12462660D02*
X14162363Y-12453136D01*
X14162363Y-12453136D02*
X14152839Y-12434088D01*
X14152839Y-12434088D02*
X14143315Y-12395993D01*
X14143315Y-12395993D02*
X14143315Y-12348374D01*
X14143315Y-12348374D02*
X14152839Y-12310279D01*
X14152839Y-12310279D02*
X14162363Y-12291231D01*
X14162363Y-12291231D02*
X14171886Y-12281708D01*
X14171886Y-12281708D02*
X14190934Y-12272184D01*
X14343315Y-12453136D02*
X14352839Y-12462660D01*
X14352839Y-12462660D02*
X14343315Y-12472184D01*
X14343315Y-12472184D02*
X14333791Y-12462660D01*
X14333791Y-12462660D02*
X14343315Y-12453136D01*
X14343315Y-12453136D02*
X14343315Y-12472184D01*
X14476648Y-12272184D02*
X14495696Y-12272184D01*
X14495696Y-12272184D02*
X14514744Y-12281708D01*
X14514744Y-12281708D02*
X14524267Y-12291231D01*
X14524267Y-12291231D02*
X14533791Y-12310279D01*
X14533791Y-12310279D02*
X14543315Y-12348374D01*
X14543315Y-12348374D02*
X14543315Y-12395993D01*
X14543315Y-12395993D02*
X14533791Y-12434088D01*
X14533791Y-12434088D02*
X14524267Y-12453136D01*
X14524267Y-12453136D02*
X14514744Y-12462660D01*
X14514744Y-12462660D02*
X14495696Y-12472184D01*
X14495696Y-12472184D02*
X14476648Y-12472184D01*
X14476648Y-12472184D02*
X14457601Y-12462660D01*
X14457601Y-12462660D02*
X14448077Y-12453136D01*
X14448077Y-12453136D02*
X14438553Y-12434088D01*
X14438553Y-12434088D02*
X14429029Y-12395993D01*
X14429029Y-12395993D02*
X14429029Y-12348374D01*
X14429029Y-12348374D02*
X14438553Y-12310279D01*
X14438553Y-12310279D02*
X14448077Y-12291231D01*
X14448077Y-12291231D02*
X14457601Y-12281708D01*
X14457601Y-12281708D02*
X14476648Y-12272184D01*
X14619506Y-12291231D02*
X14629029Y-12281708D01*
X14629029Y-12281708D02*
X14648077Y-12272184D01*
X14648077Y-12272184D02*
X14695696Y-12272184D01*
X14695696Y-12272184D02*
X14714744Y-12281708D01*
X14714744Y-12281708D02*
X14724267Y-12291231D01*
X14724267Y-12291231D02*
X14733791Y-12310279D01*
X14733791Y-12310279D02*
X14733791Y-12329327D01*
X14733791Y-12329327D02*
X14724267Y-12357898D01*
X14724267Y-12357898D02*
X14609982Y-12472184D01*
X14609982Y-12472184D02*
X14733791Y-12472184D01*
X14800458Y-12272184D02*
X14924267Y-12272184D01*
X14924267Y-12272184D02*
X14857601Y-12348374D01*
X14857601Y-12348374D02*
X14886172Y-12348374D01*
X14886172Y-12348374D02*
X14905220Y-12357898D01*
X14905220Y-12357898D02*
X14914744Y-12367422D01*
X14914744Y-12367422D02*
X14924267Y-12386469D01*
X14924267Y-12386469D02*
X14924267Y-12434088D01*
X14924267Y-12434088D02*
X14914744Y-12453136D01*
X14914744Y-12453136D02*
X14905220Y-12462660D01*
X14905220Y-12462660D02*
X14886172Y-12472184D01*
X14886172Y-12472184D02*
X14829029Y-12472184D01*
X14829029Y-12472184D02*
X14809982Y-12462660D01*
X14809982Y-12462660D02*
X14800458Y-12453136D01*
X15095696Y-12272184D02*
X15057601Y-12272184D01*
X15057601Y-12272184D02*
X15038553Y-12281708D01*
X15038553Y-12281708D02*
X15029029Y-12291231D01*
X15029029Y-12291231D02*
X15009982Y-12319803D01*
X15009982Y-12319803D02*
X15000458Y-12357898D01*
X15000458Y-12357898D02*
X15000458Y-12434088D01*
X15000458Y-12434088D02*
X15009982Y-12453136D01*
X15009982Y-12453136D02*
X15019506Y-12462660D01*
X15019506Y-12462660D02*
X15038553Y-12472184D01*
X15038553Y-12472184D02*
X15076648Y-12472184D01*
X15076648Y-12472184D02*
X15095696Y-12462660D01*
X15095696Y-12462660D02*
X15105220Y-12453136D01*
X15105220Y-12453136D02*
X15114744Y-12434088D01*
X15114744Y-12434088D02*
X15114744Y-12386469D01*
X15114744Y-12386469D02*
X15105220Y-12367422D01*
X15105220Y-12367422D02*
X15095696Y-12357898D01*
X15095696Y-12357898D02*
X15076648Y-12348374D01*
X15076648Y-12348374D02*
X15038553Y-12348374D01*
X15038553Y-12348374D02*
X15019506Y-12357898D01*
X15019506Y-12357898D02*
X15009982Y-12367422D01*
X15009982Y-12367422D02*
X15000458Y-12386469D01*
X15190934Y-12272184D02*
X15190934Y-12310279D01*
X15267125Y-12272184D02*
X15267125Y-12310279D01*
X15562363Y-12548374D02*
X15552839Y-12538850D01*
X15552839Y-12538850D02*
X15533791Y-12510279D01*
X15533791Y-12510279D02*
X15524268Y-12491231D01*
X15524268Y-12491231D02*
X15514744Y-12462660D01*
X15514744Y-12462660D02*
X15505220Y-12415041D01*
X15505220Y-12415041D02*
X15505220Y-12376946D01*
X15505220Y-12376946D02*
X15514744Y-12329327D01*
X15514744Y-12329327D02*
X15524268Y-12300755D01*
X15524268Y-12300755D02*
X15533791Y-12281708D01*
X15533791Y-12281708D02*
X15552839Y-12253136D01*
X15552839Y-12253136D02*
X15562363Y-12243612D01*
X15676648Y-12272184D02*
X15695696Y-12272184D01*
X15695696Y-12272184D02*
X15714744Y-12281708D01*
X15714744Y-12281708D02*
X15724268Y-12291231D01*
X15724268Y-12291231D02*
X15733791Y-12310279D01*
X15733791Y-12310279D02*
X15743315Y-12348374D01*
X15743315Y-12348374D02*
X15743315Y-12395993D01*
X15743315Y-12395993D02*
X15733791Y-12434088D01*
X15733791Y-12434088D02*
X15724268Y-12453136D01*
X15724268Y-12453136D02*
X15714744Y-12462660D01*
X15714744Y-12462660D02*
X15695696Y-12472184D01*
X15695696Y-12472184D02*
X15676648Y-12472184D01*
X15676648Y-12472184D02*
X15657601Y-12462660D01*
X15657601Y-12462660D02*
X15648077Y-12453136D01*
X15648077Y-12453136D02*
X15638553Y-12434088D01*
X15638553Y-12434088D02*
X15629029Y-12395993D01*
X15629029Y-12395993D02*
X15629029Y-12348374D01*
X15629029Y-12348374D02*
X15638553Y-12310279D01*
X15638553Y-12310279D02*
X15648077Y-12291231D01*
X15648077Y-12291231D02*
X15657601Y-12281708D01*
X15657601Y-12281708D02*
X15676648Y-12272184D01*
X15981410Y-12472184D02*
X15981410Y-12272184D01*
X16067125Y-12472184D02*
X16067125Y-12367422D01*
X16067125Y-12367422D02*
X16057601Y-12348374D01*
X16057601Y-12348374D02*
X16038553Y-12338850D01*
X16038553Y-12338850D02*
X16009982Y-12338850D01*
X16009982Y-12338850D02*
X15990934Y-12348374D01*
X15990934Y-12348374D02*
X15981410Y-12357898D01*
X16190934Y-12472184D02*
X16171887Y-12462660D01*
X16171887Y-12462660D02*
X16162363Y-12453136D01*
X16162363Y-12453136D02*
X16152839Y-12434088D01*
X16152839Y-12434088D02*
X16152839Y-12376946D01*
X16152839Y-12376946D02*
X16162363Y-12357898D01*
X16162363Y-12357898D02*
X16171887Y-12348374D01*
X16171887Y-12348374D02*
X16190934Y-12338850D01*
X16190934Y-12338850D02*
X16219506Y-12338850D01*
X16219506Y-12338850D02*
X16238553Y-12348374D01*
X16238553Y-12348374D02*
X16248077Y-12357898D01*
X16248077Y-12357898D02*
X16257601Y-12376946D01*
X16257601Y-12376946D02*
X16257601Y-12434088D01*
X16257601Y-12434088D02*
X16248077Y-12453136D01*
X16248077Y-12453136D02*
X16238553Y-12462660D01*
X16238553Y-12462660D02*
X16219506Y-12472184D01*
X16219506Y-12472184D02*
X16190934Y-12472184D01*
X16371887Y-12472184D02*
X16352839Y-12462660D01*
X16352839Y-12462660D02*
X16343315Y-12443612D01*
X16343315Y-12443612D02*
X16343315Y-12272184D01*
X16524268Y-12462660D02*
X16505220Y-12472184D01*
X16505220Y-12472184D02*
X16467125Y-12472184D01*
X16467125Y-12472184D02*
X16448077Y-12462660D01*
X16448077Y-12462660D02*
X16438553Y-12443612D01*
X16438553Y-12443612D02*
X16438553Y-12367422D01*
X16438553Y-12367422D02*
X16448077Y-12348374D01*
X16448077Y-12348374D02*
X16467125Y-12338850D01*
X16467125Y-12338850D02*
X16505220Y-12338850D01*
X16505220Y-12338850D02*
X16524268Y-12348374D01*
X16524268Y-12348374D02*
X16533791Y-12367422D01*
X16533791Y-12367422D02*
X16533791Y-12386469D01*
X16533791Y-12386469D02*
X16438553Y-12405517D01*
X16609982Y-12462660D02*
X16629030Y-12472184D01*
X16629030Y-12472184D02*
X16667125Y-12472184D01*
X16667125Y-12472184D02*
X16686172Y-12462660D01*
X16686172Y-12462660D02*
X16695696Y-12443612D01*
X16695696Y-12443612D02*
X16695696Y-12434088D01*
X16695696Y-12434088D02*
X16686172Y-12415041D01*
X16686172Y-12415041D02*
X16667125Y-12405517D01*
X16667125Y-12405517D02*
X16638553Y-12405517D01*
X16638553Y-12405517D02*
X16619506Y-12395993D01*
X16619506Y-12395993D02*
X16609982Y-12376946D01*
X16609982Y-12376946D02*
X16609982Y-12367422D01*
X16609982Y-12367422D02*
X16619506Y-12348374D01*
X16619506Y-12348374D02*
X16638553Y-12338850D01*
X16638553Y-12338850D02*
X16667125Y-12338850D01*
X16667125Y-12338850D02*
X16686172Y-12348374D01*
X16933792Y-12395993D02*
X17086173Y-12395993D01*
X17009982Y-12472184D02*
X17009982Y-12319803D01*
X17419506Y-12338850D02*
X17419506Y-12472184D01*
X17371887Y-12262660D02*
X17324268Y-12405517D01*
X17324268Y-12405517D02*
X17448077Y-12405517D01*
X17667125Y-12462660D02*
X17686173Y-12472184D01*
X17686173Y-12472184D02*
X17724268Y-12472184D01*
X17724268Y-12472184D02*
X17743316Y-12462660D01*
X17743316Y-12462660D02*
X17752839Y-12443612D01*
X17752839Y-12443612D02*
X17752839Y-12434088D01*
X17752839Y-12434088D02*
X17743316Y-12415041D01*
X17743316Y-12415041D02*
X17724268Y-12405517D01*
X17724268Y-12405517D02*
X17695696Y-12405517D01*
X17695696Y-12405517D02*
X17676649Y-12395993D01*
X17676649Y-12395993D02*
X17667125Y-12376946D01*
X17667125Y-12376946D02*
X17667125Y-12367422D01*
X17667125Y-12367422D02*
X17676649Y-12348374D01*
X17676649Y-12348374D02*
X17695696Y-12338850D01*
X17695696Y-12338850D02*
X17724268Y-12338850D01*
X17724268Y-12338850D02*
X17743316Y-12348374D01*
X17867125Y-12472184D02*
X17848077Y-12462660D01*
X17848077Y-12462660D02*
X17838554Y-12443612D01*
X17838554Y-12443612D02*
X17838554Y-12272184D01*
X17971887Y-12472184D02*
X17952839Y-12462660D01*
X17952839Y-12462660D02*
X17943316Y-12453136D01*
X17943316Y-12453136D02*
X17933792Y-12434088D01*
X17933792Y-12434088D02*
X17933792Y-12376946D01*
X17933792Y-12376946D02*
X17943316Y-12357898D01*
X17943316Y-12357898D02*
X17952839Y-12348374D01*
X17952839Y-12348374D02*
X17971887Y-12338850D01*
X17971887Y-12338850D02*
X18000458Y-12338850D01*
X18000458Y-12338850D02*
X18019506Y-12348374D01*
X18019506Y-12348374D02*
X18029030Y-12357898D01*
X18029030Y-12357898D02*
X18038554Y-12376946D01*
X18038554Y-12376946D02*
X18038554Y-12434088D01*
X18038554Y-12434088D02*
X18029030Y-12453136D01*
X18029030Y-12453136D02*
X18019506Y-12462660D01*
X18019506Y-12462660D02*
X18000458Y-12472184D01*
X18000458Y-12472184D02*
X17971887Y-12472184D01*
X18095697Y-12338850D02*
X18171887Y-12338850D01*
X18124268Y-12272184D02*
X18124268Y-12443612D01*
X18124268Y-12443612D02*
X18133792Y-12462660D01*
X18133792Y-12462660D02*
X18152839Y-12472184D01*
X18152839Y-12472184D02*
X18171887Y-12472184D01*
X18229030Y-12462660D02*
X18248077Y-12472184D01*
X18248077Y-12472184D02*
X18286173Y-12472184D01*
X18286173Y-12472184D02*
X18305220Y-12462660D01*
X18305220Y-12462660D02*
X18314744Y-12443612D01*
X18314744Y-12443612D02*
X18314744Y-12434088D01*
X18314744Y-12434088D02*
X18305220Y-12415041D01*
X18305220Y-12415041D02*
X18286173Y-12405517D01*
X18286173Y-12405517D02*
X18257601Y-12405517D01*
X18257601Y-12405517D02*
X18238554Y-12395993D01*
X18238554Y-12395993D02*
X18229030Y-12376946D01*
X18229030Y-12376946D02*
X18229030Y-12367422D01*
X18229030Y-12367422D02*
X18238554Y-12348374D01*
X18238554Y-12348374D02*
X18257601Y-12338850D01*
X18257601Y-12338850D02*
X18286173Y-12338850D01*
X18286173Y-12338850D02*
X18305220Y-12348374D01*
X18381411Y-12548374D02*
X18390935Y-12538850D01*
X18390935Y-12538850D02*
X18409982Y-12510279D01*
X18409982Y-12510279D02*
X18419506Y-12491231D01*
X18419506Y-12491231D02*
X18429030Y-12462660D01*
X18429030Y-12462660D02*
X18438554Y-12415041D01*
X18438554Y-12415041D02*
X18438554Y-12376946D01*
X18438554Y-12376946D02*
X18429030Y-12329327D01*
X18429030Y-12329327D02*
X18419506Y-12300755D01*
X18419506Y-12300755D02*
X18409982Y-12281708D01*
X18409982Y-12281708D02*
X18390935Y-12253136D01*
X18390935Y-12253136D02*
X18381411Y-12243612D01*
D12*
X11974120Y-12676520D02*
X11974120Y-12612880D01*
X11910480Y-12612880D01*
X11910480Y-12676520D01*
X11974120Y-12676520D01*
D11*
X12286172Y-12536184D02*
X12305220Y-12536184D01*
X12305220Y-12536184D02*
X12324267Y-12545708D01*
X12324267Y-12545708D02*
X12333791Y-12555231D01*
X12333791Y-12555231D02*
X12343315Y-12574279D01*
X12343315Y-12574279D02*
X12352839Y-12612374D01*
X12352839Y-12612374D02*
X12352839Y-12659993D01*
X12352839Y-12659993D02*
X12343315Y-12698088D01*
X12343315Y-12698088D02*
X12333791Y-12717136D01*
X12333791Y-12717136D02*
X12324267Y-12726660D01*
X12324267Y-12726660D02*
X12305220Y-12736184D01*
X12305220Y-12736184D02*
X12286172Y-12736184D01*
X12286172Y-12736184D02*
X12267124Y-12726660D01*
X12267124Y-12726660D02*
X12257601Y-12717136D01*
X12257601Y-12717136D02*
X12248077Y-12698088D01*
X12248077Y-12698088D02*
X12238553Y-12659993D01*
X12238553Y-12659993D02*
X12238553Y-12612374D01*
X12238553Y-12612374D02*
X12248077Y-12574279D01*
X12248077Y-12574279D02*
X12257601Y-12555231D01*
X12257601Y-12555231D02*
X12267124Y-12545708D01*
X12267124Y-12545708D02*
X12286172Y-12536184D01*
X12438553Y-12717136D02*
X12448077Y-12726660D01*
X12448077Y-12726660D02*
X12438553Y-12736184D01*
X12438553Y-12736184D02*
X12429029Y-12726660D01*
X12429029Y-12726660D02*
X12438553Y-12717136D01*
X12438553Y-12717136D02*
X12438553Y-12736184D01*
X12543315Y-12736184D02*
X12581410Y-12736184D01*
X12581410Y-12736184D02*
X12600458Y-12726660D01*
X12600458Y-12726660D02*
X12609982Y-12717136D01*
X12609982Y-12717136D02*
X12629029Y-12688565D01*
X12629029Y-12688565D02*
X12638553Y-12650469D01*
X12638553Y-12650469D02*
X12638553Y-12574279D01*
X12638553Y-12574279D02*
X12629029Y-12555231D01*
X12629029Y-12555231D02*
X12619505Y-12545708D01*
X12619505Y-12545708D02*
X12600458Y-12536184D01*
X12600458Y-12536184D02*
X12562362Y-12536184D01*
X12562362Y-12536184D02*
X12543315Y-12545708D01*
X12543315Y-12545708D02*
X12533791Y-12555231D01*
X12533791Y-12555231D02*
X12524267Y-12574279D01*
X12524267Y-12574279D02*
X12524267Y-12621898D01*
X12524267Y-12621898D02*
X12533791Y-12640946D01*
X12533791Y-12640946D02*
X12543315Y-12650469D01*
X12543315Y-12650469D02*
X12562362Y-12659993D01*
X12562362Y-12659993D02*
X12600458Y-12659993D01*
X12600458Y-12659993D02*
X12619505Y-12650469D01*
X12619505Y-12650469D02*
X12629029Y-12640946D01*
X12629029Y-12640946D02*
X12638553Y-12621898D01*
X12762362Y-12536184D02*
X12781410Y-12536184D01*
X12781410Y-12536184D02*
X12800458Y-12545708D01*
X12800458Y-12545708D02*
X12809982Y-12555231D01*
X12809982Y-12555231D02*
X12819505Y-12574279D01*
X12819505Y-12574279D02*
X12829029Y-12612374D01*
X12829029Y-12612374D02*
X12829029Y-12659993D01*
X12829029Y-12659993D02*
X12819505Y-12698088D01*
X12819505Y-12698088D02*
X12809982Y-12717136D01*
X12809982Y-12717136D02*
X12800458Y-12726660D01*
X12800458Y-12726660D02*
X12781410Y-12736184D01*
X12781410Y-12736184D02*
X12762362Y-12736184D01*
X12762362Y-12736184D02*
X12743315Y-12726660D01*
X12743315Y-12726660D02*
X12733791Y-12717136D01*
X12733791Y-12717136D02*
X12724267Y-12698088D01*
X12724267Y-12698088D02*
X12714743Y-12659993D01*
X12714743Y-12659993D02*
X12714743Y-12612374D01*
X12714743Y-12612374D02*
X12724267Y-12574279D01*
X12724267Y-12574279D02*
X12733791Y-12555231D01*
X12733791Y-12555231D02*
X12743315Y-12545708D01*
X12743315Y-12545708D02*
X12762362Y-12536184D01*
X12952839Y-12536184D02*
X12971886Y-12536184D01*
X12971886Y-12536184D02*
X12990934Y-12545708D01*
X12990934Y-12545708D02*
X13000458Y-12555231D01*
X13000458Y-12555231D02*
X13009982Y-12574279D01*
X13009982Y-12574279D02*
X13019505Y-12612374D01*
X13019505Y-12612374D02*
X13019505Y-12659993D01*
X13019505Y-12659993D02*
X13009982Y-12698088D01*
X13009982Y-12698088D02*
X13000458Y-12717136D01*
X13000458Y-12717136D02*
X12990934Y-12726660D01*
X12990934Y-12726660D02*
X12971886Y-12736184D01*
X12971886Y-12736184D02*
X12952839Y-12736184D01*
X12952839Y-12736184D02*
X12933791Y-12726660D01*
X12933791Y-12726660D02*
X12924267Y-12717136D01*
X12924267Y-12717136D02*
X12914743Y-12698088D01*
X12914743Y-12698088D02*
X12905220Y-12659993D01*
X12905220Y-12659993D02*
X12905220Y-12612374D01*
X12905220Y-12612374D02*
X12914743Y-12574279D01*
X12914743Y-12574279D02*
X12924267Y-12555231D01*
X12924267Y-12555231D02*
X12933791Y-12545708D01*
X12933791Y-12545708D02*
X12952839Y-12536184D01*
X13105220Y-12736184D02*
X13105220Y-12602850D01*
X13105220Y-12621898D02*
X13114743Y-12612374D01*
X13114743Y-12612374D02*
X13133791Y-12602850D01*
X13133791Y-12602850D02*
X13162363Y-12602850D01*
X13162363Y-12602850D02*
X13181410Y-12612374D01*
X13181410Y-12612374D02*
X13190934Y-12631422D01*
X13190934Y-12631422D02*
X13190934Y-12736184D01*
X13190934Y-12631422D02*
X13200458Y-12612374D01*
X13200458Y-12612374D02*
X13219505Y-12602850D01*
X13219505Y-12602850D02*
X13248077Y-12602850D01*
X13248077Y-12602850D02*
X13267124Y-12612374D01*
X13267124Y-12612374D02*
X13276648Y-12631422D01*
X13276648Y-12631422D02*
X13276648Y-12736184D01*
X13371886Y-12736184D02*
X13371886Y-12602850D01*
X13371886Y-12621898D02*
X13381410Y-12612374D01*
X13381410Y-12612374D02*
X13400458Y-12602850D01*
X13400458Y-12602850D02*
X13429029Y-12602850D01*
X13429029Y-12602850D02*
X13448077Y-12612374D01*
X13448077Y-12612374D02*
X13457601Y-12631422D01*
X13457601Y-12631422D02*
X13457601Y-12736184D01*
X13457601Y-12631422D02*
X13467124Y-12612374D01*
X13467124Y-12612374D02*
X13486172Y-12602850D01*
X13486172Y-12602850D02*
X13514743Y-12602850D01*
X13514743Y-12602850D02*
X13533791Y-12612374D01*
X13533791Y-12612374D02*
X13543315Y-12631422D01*
X13543315Y-12631422D02*
X13543315Y-12736184D01*
X13933791Y-12526660D02*
X13762363Y-12783803D01*
X14190934Y-12536184D02*
X14209982Y-12536184D01*
X14209982Y-12536184D02*
X14229029Y-12545708D01*
X14229029Y-12545708D02*
X14238553Y-12555231D01*
X14238553Y-12555231D02*
X14248077Y-12574279D01*
X14248077Y-12574279D02*
X14257601Y-12612374D01*
X14257601Y-12612374D02*
X14257601Y-12659993D01*
X14257601Y-12659993D02*
X14248077Y-12698088D01*
X14248077Y-12698088D02*
X14238553Y-12717136D01*
X14238553Y-12717136D02*
X14229029Y-12726660D01*
X14229029Y-12726660D02*
X14209982Y-12736184D01*
X14209982Y-12736184D02*
X14190934Y-12736184D01*
X14190934Y-12736184D02*
X14171886Y-12726660D01*
X14171886Y-12726660D02*
X14162363Y-12717136D01*
X14162363Y-12717136D02*
X14152839Y-12698088D01*
X14152839Y-12698088D02*
X14143315Y-12659993D01*
X14143315Y-12659993D02*
X14143315Y-12612374D01*
X14143315Y-12612374D02*
X14152839Y-12574279D01*
X14152839Y-12574279D02*
X14162363Y-12555231D01*
X14162363Y-12555231D02*
X14171886Y-12545708D01*
X14171886Y-12545708D02*
X14190934Y-12536184D01*
X14343315Y-12717136D02*
X14352839Y-12726660D01*
X14352839Y-12726660D02*
X14343315Y-12736184D01*
X14343315Y-12736184D02*
X14333791Y-12726660D01*
X14333791Y-12726660D02*
X14343315Y-12717136D01*
X14343315Y-12717136D02*
X14343315Y-12736184D01*
X14476648Y-12536184D02*
X14495696Y-12536184D01*
X14495696Y-12536184D02*
X14514744Y-12545708D01*
X14514744Y-12545708D02*
X14524267Y-12555231D01*
X14524267Y-12555231D02*
X14533791Y-12574279D01*
X14533791Y-12574279D02*
X14543315Y-12612374D01*
X14543315Y-12612374D02*
X14543315Y-12659993D01*
X14543315Y-12659993D02*
X14533791Y-12698088D01*
X14533791Y-12698088D02*
X14524267Y-12717136D01*
X14524267Y-12717136D02*
X14514744Y-12726660D01*
X14514744Y-12726660D02*
X14495696Y-12736184D01*
X14495696Y-12736184D02*
X14476648Y-12736184D01*
X14476648Y-12736184D02*
X14457601Y-12726660D01*
X14457601Y-12726660D02*
X14448077Y-12717136D01*
X14448077Y-12717136D02*
X14438553Y-12698088D01*
X14438553Y-12698088D02*
X14429029Y-12659993D01*
X14429029Y-12659993D02*
X14429029Y-12612374D01*
X14429029Y-12612374D02*
X14438553Y-12574279D01*
X14438553Y-12574279D02*
X14448077Y-12555231D01*
X14448077Y-12555231D02*
X14457601Y-12545708D01*
X14457601Y-12545708D02*
X14476648Y-12536184D01*
X14609982Y-12536184D02*
X14733791Y-12536184D01*
X14733791Y-12536184D02*
X14667125Y-12612374D01*
X14667125Y-12612374D02*
X14695696Y-12612374D01*
X14695696Y-12612374D02*
X14714744Y-12621898D01*
X14714744Y-12621898D02*
X14724267Y-12631422D01*
X14724267Y-12631422D02*
X14733791Y-12650469D01*
X14733791Y-12650469D02*
X14733791Y-12698088D01*
X14733791Y-12698088D02*
X14724267Y-12717136D01*
X14724267Y-12717136D02*
X14714744Y-12726660D01*
X14714744Y-12726660D02*
X14695696Y-12736184D01*
X14695696Y-12736184D02*
X14638553Y-12736184D01*
X14638553Y-12736184D02*
X14619506Y-12726660D01*
X14619506Y-12726660D02*
X14609982Y-12717136D01*
X14914744Y-12536184D02*
X14819506Y-12536184D01*
X14819506Y-12536184D02*
X14809982Y-12631422D01*
X14809982Y-12631422D02*
X14819506Y-12621898D01*
X14819506Y-12621898D02*
X14838553Y-12612374D01*
X14838553Y-12612374D02*
X14886172Y-12612374D01*
X14886172Y-12612374D02*
X14905220Y-12621898D01*
X14905220Y-12621898D02*
X14914744Y-12631422D01*
X14914744Y-12631422D02*
X14924267Y-12650469D01*
X14924267Y-12650469D02*
X14924267Y-12698088D01*
X14924267Y-12698088D02*
X14914744Y-12717136D01*
X14914744Y-12717136D02*
X14905220Y-12726660D01*
X14905220Y-12726660D02*
X14886172Y-12736184D01*
X14886172Y-12736184D02*
X14838553Y-12736184D01*
X14838553Y-12736184D02*
X14819506Y-12726660D01*
X14819506Y-12726660D02*
X14809982Y-12717136D01*
X15095696Y-12602850D02*
X15095696Y-12736184D01*
X15048077Y-12526660D02*
X15000458Y-12669517D01*
X15000458Y-12669517D02*
X15124267Y-12669517D01*
X15190934Y-12536184D02*
X15190934Y-12574279D01*
X15267125Y-12536184D02*
X15267125Y-12574279D01*
X15562363Y-12812374D02*
X15552839Y-12802850D01*
X15552839Y-12802850D02*
X15533791Y-12774279D01*
X15533791Y-12774279D02*
X15524268Y-12755231D01*
X15524268Y-12755231D02*
X15514744Y-12726660D01*
X15514744Y-12726660D02*
X15505220Y-12679041D01*
X15505220Y-12679041D02*
X15505220Y-12640946D01*
X15505220Y-12640946D02*
X15514744Y-12593327D01*
X15514744Y-12593327D02*
X15524268Y-12564755D01*
X15524268Y-12564755D02*
X15533791Y-12545708D01*
X15533791Y-12545708D02*
X15552839Y-12517136D01*
X15552839Y-12517136D02*
X15562363Y-12507612D01*
X15724268Y-12602850D02*
X15724268Y-12736184D01*
X15676648Y-12526660D02*
X15629029Y-12669517D01*
X15629029Y-12669517D02*
X15752839Y-12669517D01*
X15981410Y-12736184D02*
X15981410Y-12536184D01*
X16067125Y-12736184D02*
X16067125Y-12631422D01*
X16067125Y-12631422D02*
X16057601Y-12612374D01*
X16057601Y-12612374D02*
X16038553Y-12602850D01*
X16038553Y-12602850D02*
X16009982Y-12602850D01*
X16009982Y-12602850D02*
X15990934Y-12612374D01*
X15990934Y-12612374D02*
X15981410Y-12621898D01*
X16190934Y-12736184D02*
X16171887Y-12726660D01*
X16171887Y-12726660D02*
X16162363Y-12717136D01*
X16162363Y-12717136D02*
X16152839Y-12698088D01*
X16152839Y-12698088D02*
X16152839Y-12640946D01*
X16152839Y-12640946D02*
X16162363Y-12621898D01*
X16162363Y-12621898D02*
X16171887Y-12612374D01*
X16171887Y-12612374D02*
X16190934Y-12602850D01*
X16190934Y-12602850D02*
X16219506Y-12602850D01*
X16219506Y-12602850D02*
X16238553Y-12612374D01*
X16238553Y-12612374D02*
X16248077Y-12621898D01*
X16248077Y-12621898D02*
X16257601Y-12640946D01*
X16257601Y-12640946D02*
X16257601Y-12698088D01*
X16257601Y-12698088D02*
X16248077Y-12717136D01*
X16248077Y-12717136D02*
X16238553Y-12726660D01*
X16238553Y-12726660D02*
X16219506Y-12736184D01*
X16219506Y-12736184D02*
X16190934Y-12736184D01*
X16371887Y-12736184D02*
X16352839Y-12726660D01*
X16352839Y-12726660D02*
X16343315Y-12707612D01*
X16343315Y-12707612D02*
X16343315Y-12536184D01*
X16524268Y-12726660D02*
X16505220Y-12736184D01*
X16505220Y-12736184D02*
X16467125Y-12736184D01*
X16467125Y-12736184D02*
X16448077Y-12726660D01*
X16448077Y-12726660D02*
X16438553Y-12707612D01*
X16438553Y-12707612D02*
X16438553Y-12631422D01*
X16438553Y-12631422D02*
X16448077Y-12612374D01*
X16448077Y-12612374D02*
X16467125Y-12602850D01*
X16467125Y-12602850D02*
X16505220Y-12602850D01*
X16505220Y-12602850D02*
X16524268Y-12612374D01*
X16524268Y-12612374D02*
X16533791Y-12631422D01*
X16533791Y-12631422D02*
X16533791Y-12650469D01*
X16533791Y-12650469D02*
X16438553Y-12669517D01*
X16609982Y-12726660D02*
X16629030Y-12736184D01*
X16629030Y-12736184D02*
X16667125Y-12736184D01*
X16667125Y-12736184D02*
X16686172Y-12726660D01*
X16686172Y-12726660D02*
X16695696Y-12707612D01*
X16695696Y-12707612D02*
X16695696Y-12698088D01*
X16695696Y-12698088D02*
X16686172Y-12679041D01*
X16686172Y-12679041D02*
X16667125Y-12669517D01*
X16667125Y-12669517D02*
X16638553Y-12669517D01*
X16638553Y-12669517D02*
X16619506Y-12659993D01*
X16619506Y-12659993D02*
X16609982Y-12640946D01*
X16609982Y-12640946D02*
X16609982Y-12631422D01*
X16609982Y-12631422D02*
X16619506Y-12612374D01*
X16619506Y-12612374D02*
X16638553Y-12602850D01*
X16638553Y-12602850D02*
X16667125Y-12602850D01*
X16667125Y-12602850D02*
X16686172Y-12612374D01*
X16762363Y-12812374D02*
X16771887Y-12802850D01*
X16771887Y-12802850D02*
X16790934Y-12774279D01*
X16790934Y-12774279D02*
X16800458Y-12755231D01*
X16800458Y-12755231D02*
X16809982Y-12726660D01*
X16809982Y-12726660D02*
X16819506Y-12679041D01*
X16819506Y-12679041D02*
X16819506Y-12640946D01*
X16819506Y-12640946D02*
X16809982Y-12593327D01*
X16809982Y-12593327D02*
X16800458Y-12564755D01*
X16800458Y-12564755D02*
X16790934Y-12545708D01*
X16790934Y-12545708D02*
X16771887Y-12517136D01*
X16771887Y-12517136D02*
X16762363Y-12507612D01*
D12*
X11937300Y-12958700D02*
X11987300Y-12908700D01*
X11937300Y-12858700D01*
X11887300Y-12908700D01*
X11937300Y-12958700D01*
D11*
X12352839Y-13000184D02*
X12238553Y-13000184D01*
X12295696Y-13000184D02*
X12295696Y-12800184D01*
X12295696Y-12800184D02*
X12276648Y-12828755D01*
X12276648Y-12828755D02*
X12257601Y-12847803D01*
X12257601Y-12847803D02*
X12238553Y-12857327D01*
X12438553Y-12981136D02*
X12448077Y-12990660D01*
X12448077Y-12990660D02*
X12438553Y-13000184D01*
X12438553Y-13000184D02*
X12429029Y-12990660D01*
X12429029Y-12990660D02*
X12438553Y-12981136D01*
X12438553Y-12981136D02*
X12438553Y-13000184D01*
X12571886Y-12800184D02*
X12590934Y-12800184D01*
X12590934Y-12800184D02*
X12609982Y-12809708D01*
X12609982Y-12809708D02*
X12619505Y-12819231D01*
X12619505Y-12819231D02*
X12629029Y-12838279D01*
X12629029Y-12838279D02*
X12638553Y-12876374D01*
X12638553Y-12876374D02*
X12638553Y-12923993D01*
X12638553Y-12923993D02*
X12629029Y-12962088D01*
X12629029Y-12962088D02*
X12619505Y-12981136D01*
X12619505Y-12981136D02*
X12609982Y-12990660D01*
X12609982Y-12990660D02*
X12590934Y-13000184D01*
X12590934Y-13000184D02*
X12571886Y-13000184D01*
X12571886Y-13000184D02*
X12552839Y-12990660D01*
X12552839Y-12990660D02*
X12543315Y-12981136D01*
X12543315Y-12981136D02*
X12533791Y-12962088D01*
X12533791Y-12962088D02*
X12524267Y-12923993D01*
X12524267Y-12923993D02*
X12524267Y-12876374D01*
X12524267Y-12876374D02*
X12533791Y-12838279D01*
X12533791Y-12838279D02*
X12543315Y-12819231D01*
X12543315Y-12819231D02*
X12552839Y-12809708D01*
X12552839Y-12809708D02*
X12571886Y-12800184D01*
X12762362Y-12800184D02*
X12781410Y-12800184D01*
X12781410Y-12800184D02*
X12800458Y-12809708D01*
X12800458Y-12809708D02*
X12809982Y-12819231D01*
X12809982Y-12819231D02*
X12819505Y-12838279D01*
X12819505Y-12838279D02*
X12829029Y-12876374D01*
X12829029Y-12876374D02*
X12829029Y-12923993D01*
X12829029Y-12923993D02*
X12819505Y-12962088D01*
X12819505Y-12962088D02*
X12809982Y-12981136D01*
X12809982Y-12981136D02*
X12800458Y-12990660D01*
X12800458Y-12990660D02*
X12781410Y-13000184D01*
X12781410Y-13000184D02*
X12762362Y-13000184D01*
X12762362Y-13000184D02*
X12743315Y-12990660D01*
X12743315Y-12990660D02*
X12733791Y-12981136D01*
X12733791Y-12981136D02*
X12724267Y-12962088D01*
X12724267Y-12962088D02*
X12714743Y-12923993D01*
X12714743Y-12923993D02*
X12714743Y-12876374D01*
X12714743Y-12876374D02*
X12724267Y-12838279D01*
X12724267Y-12838279D02*
X12733791Y-12819231D01*
X12733791Y-12819231D02*
X12743315Y-12809708D01*
X12743315Y-12809708D02*
X12762362Y-12800184D01*
X12952839Y-12800184D02*
X12971886Y-12800184D01*
X12971886Y-12800184D02*
X12990934Y-12809708D01*
X12990934Y-12809708D02*
X13000458Y-12819231D01*
X13000458Y-12819231D02*
X13009982Y-12838279D01*
X13009982Y-12838279D02*
X13019505Y-12876374D01*
X13019505Y-12876374D02*
X13019505Y-12923993D01*
X13019505Y-12923993D02*
X13009982Y-12962088D01*
X13009982Y-12962088D02*
X13000458Y-12981136D01*
X13000458Y-12981136D02*
X12990934Y-12990660D01*
X12990934Y-12990660D02*
X12971886Y-13000184D01*
X12971886Y-13000184D02*
X12952839Y-13000184D01*
X12952839Y-13000184D02*
X12933791Y-12990660D01*
X12933791Y-12990660D02*
X12924267Y-12981136D01*
X12924267Y-12981136D02*
X12914743Y-12962088D01*
X12914743Y-12962088D02*
X12905220Y-12923993D01*
X12905220Y-12923993D02*
X12905220Y-12876374D01*
X12905220Y-12876374D02*
X12914743Y-12838279D01*
X12914743Y-12838279D02*
X12924267Y-12819231D01*
X12924267Y-12819231D02*
X12933791Y-12809708D01*
X12933791Y-12809708D02*
X12952839Y-12800184D01*
X13105220Y-13000184D02*
X13105220Y-12866850D01*
X13105220Y-12885898D02*
X13114743Y-12876374D01*
X13114743Y-12876374D02*
X13133791Y-12866850D01*
X13133791Y-12866850D02*
X13162363Y-12866850D01*
X13162363Y-12866850D02*
X13181410Y-12876374D01*
X13181410Y-12876374D02*
X13190934Y-12895422D01*
X13190934Y-12895422D02*
X13190934Y-13000184D01*
X13190934Y-12895422D02*
X13200458Y-12876374D01*
X13200458Y-12876374D02*
X13219505Y-12866850D01*
X13219505Y-12866850D02*
X13248077Y-12866850D01*
X13248077Y-12866850D02*
X13267124Y-12876374D01*
X13267124Y-12876374D02*
X13276648Y-12895422D01*
X13276648Y-12895422D02*
X13276648Y-13000184D01*
X13371886Y-13000184D02*
X13371886Y-12866850D01*
X13371886Y-12885898D02*
X13381410Y-12876374D01*
X13381410Y-12876374D02*
X13400458Y-12866850D01*
X13400458Y-12866850D02*
X13429029Y-12866850D01*
X13429029Y-12866850D02*
X13448077Y-12876374D01*
X13448077Y-12876374D02*
X13457601Y-12895422D01*
X13457601Y-12895422D02*
X13457601Y-13000184D01*
X13457601Y-12895422D02*
X13467124Y-12876374D01*
X13467124Y-12876374D02*
X13486172Y-12866850D01*
X13486172Y-12866850D02*
X13514743Y-12866850D01*
X13514743Y-12866850D02*
X13533791Y-12876374D01*
X13533791Y-12876374D02*
X13543315Y-12895422D01*
X13543315Y-12895422D02*
X13543315Y-13000184D01*
X13933791Y-12790660D02*
X13762363Y-13047803D01*
X14190934Y-12800184D02*
X14209982Y-12800184D01*
X14209982Y-12800184D02*
X14229029Y-12809708D01*
X14229029Y-12809708D02*
X14238553Y-12819231D01*
X14238553Y-12819231D02*
X14248077Y-12838279D01*
X14248077Y-12838279D02*
X14257601Y-12876374D01*
X14257601Y-12876374D02*
X14257601Y-12923993D01*
X14257601Y-12923993D02*
X14248077Y-12962088D01*
X14248077Y-12962088D02*
X14238553Y-12981136D01*
X14238553Y-12981136D02*
X14229029Y-12990660D01*
X14229029Y-12990660D02*
X14209982Y-13000184D01*
X14209982Y-13000184D02*
X14190934Y-13000184D01*
X14190934Y-13000184D02*
X14171886Y-12990660D01*
X14171886Y-12990660D02*
X14162363Y-12981136D01*
X14162363Y-12981136D02*
X14152839Y-12962088D01*
X14152839Y-12962088D02*
X14143315Y-12923993D01*
X14143315Y-12923993D02*
X14143315Y-12876374D01*
X14143315Y-12876374D02*
X14152839Y-12838279D01*
X14152839Y-12838279D02*
X14162363Y-12819231D01*
X14162363Y-12819231D02*
X14171886Y-12809708D01*
X14171886Y-12809708D02*
X14190934Y-12800184D01*
X14343315Y-12981136D02*
X14352839Y-12990660D01*
X14352839Y-12990660D02*
X14343315Y-13000184D01*
X14343315Y-13000184D02*
X14333791Y-12990660D01*
X14333791Y-12990660D02*
X14343315Y-12981136D01*
X14343315Y-12981136D02*
X14343315Y-13000184D01*
X14476648Y-12800184D02*
X14495696Y-12800184D01*
X14495696Y-12800184D02*
X14514744Y-12809708D01*
X14514744Y-12809708D02*
X14524267Y-12819231D01*
X14524267Y-12819231D02*
X14533791Y-12838279D01*
X14533791Y-12838279D02*
X14543315Y-12876374D01*
X14543315Y-12876374D02*
X14543315Y-12923993D01*
X14543315Y-12923993D02*
X14533791Y-12962088D01*
X14533791Y-12962088D02*
X14524267Y-12981136D01*
X14524267Y-12981136D02*
X14514744Y-12990660D01*
X14514744Y-12990660D02*
X14495696Y-13000184D01*
X14495696Y-13000184D02*
X14476648Y-13000184D01*
X14476648Y-13000184D02*
X14457601Y-12990660D01*
X14457601Y-12990660D02*
X14448077Y-12981136D01*
X14448077Y-12981136D02*
X14438553Y-12962088D01*
X14438553Y-12962088D02*
X14429029Y-12923993D01*
X14429029Y-12923993D02*
X14429029Y-12876374D01*
X14429029Y-12876374D02*
X14438553Y-12838279D01*
X14438553Y-12838279D02*
X14448077Y-12819231D01*
X14448077Y-12819231D02*
X14457601Y-12809708D01*
X14457601Y-12809708D02*
X14476648Y-12800184D01*
X14609982Y-12800184D02*
X14733791Y-12800184D01*
X14733791Y-12800184D02*
X14667125Y-12876374D01*
X14667125Y-12876374D02*
X14695696Y-12876374D01*
X14695696Y-12876374D02*
X14714744Y-12885898D01*
X14714744Y-12885898D02*
X14724267Y-12895422D01*
X14724267Y-12895422D02*
X14733791Y-12914469D01*
X14733791Y-12914469D02*
X14733791Y-12962088D01*
X14733791Y-12962088D02*
X14724267Y-12981136D01*
X14724267Y-12981136D02*
X14714744Y-12990660D01*
X14714744Y-12990660D02*
X14695696Y-13000184D01*
X14695696Y-13000184D02*
X14638553Y-13000184D01*
X14638553Y-13000184D02*
X14619506Y-12990660D01*
X14619506Y-12990660D02*
X14609982Y-12981136D01*
X14829029Y-13000184D02*
X14867125Y-13000184D01*
X14867125Y-13000184D02*
X14886172Y-12990660D01*
X14886172Y-12990660D02*
X14895696Y-12981136D01*
X14895696Y-12981136D02*
X14914744Y-12952565D01*
X14914744Y-12952565D02*
X14924267Y-12914469D01*
X14924267Y-12914469D02*
X14924267Y-12838279D01*
X14924267Y-12838279D02*
X14914744Y-12819231D01*
X14914744Y-12819231D02*
X14905220Y-12809708D01*
X14905220Y-12809708D02*
X14886172Y-12800184D01*
X14886172Y-12800184D02*
X14848077Y-12800184D01*
X14848077Y-12800184D02*
X14829029Y-12809708D01*
X14829029Y-12809708D02*
X14819506Y-12819231D01*
X14819506Y-12819231D02*
X14809982Y-12838279D01*
X14809982Y-12838279D02*
X14809982Y-12885898D01*
X14809982Y-12885898D02*
X14819506Y-12904946D01*
X14819506Y-12904946D02*
X14829029Y-12914469D01*
X14829029Y-12914469D02*
X14848077Y-12923993D01*
X14848077Y-12923993D02*
X14886172Y-12923993D01*
X14886172Y-12923993D02*
X14905220Y-12914469D01*
X14905220Y-12914469D02*
X14914744Y-12904946D01*
X14914744Y-12904946D02*
X14924267Y-12885898D01*
X15095696Y-12866850D02*
X15095696Y-13000184D01*
X15048077Y-12790660D02*
X15000458Y-12933517D01*
X15000458Y-12933517D02*
X15124267Y-12933517D01*
X15190934Y-12800184D02*
X15190934Y-12838279D01*
X15267125Y-12800184D02*
X15267125Y-12838279D01*
X15562363Y-13076374D02*
X15552839Y-13066850D01*
X15552839Y-13066850D02*
X15533791Y-13038279D01*
X15533791Y-13038279D02*
X15524268Y-13019231D01*
X15524268Y-13019231D02*
X15514744Y-12990660D01*
X15514744Y-12990660D02*
X15505220Y-12943041D01*
X15505220Y-12943041D02*
X15505220Y-12904946D01*
X15505220Y-12904946D02*
X15514744Y-12857327D01*
X15514744Y-12857327D02*
X15524268Y-12828755D01*
X15524268Y-12828755D02*
X15533791Y-12809708D01*
X15533791Y-12809708D02*
X15552839Y-12781136D01*
X15552839Y-12781136D02*
X15562363Y-12771612D01*
X15724268Y-12866850D02*
X15724268Y-13000184D01*
X15676648Y-12790660D02*
X15629029Y-12933517D01*
X15629029Y-12933517D02*
X15752839Y-12933517D01*
X15981410Y-13000184D02*
X15981410Y-12800184D01*
X16067125Y-13000184D02*
X16067125Y-12895422D01*
X16067125Y-12895422D02*
X16057601Y-12876374D01*
X16057601Y-12876374D02*
X16038553Y-12866850D01*
X16038553Y-12866850D02*
X16009982Y-12866850D01*
X16009982Y-12866850D02*
X15990934Y-12876374D01*
X15990934Y-12876374D02*
X15981410Y-12885898D01*
X16190934Y-13000184D02*
X16171887Y-12990660D01*
X16171887Y-12990660D02*
X16162363Y-12981136D01*
X16162363Y-12981136D02*
X16152839Y-12962088D01*
X16152839Y-12962088D02*
X16152839Y-12904946D01*
X16152839Y-12904946D02*
X16162363Y-12885898D01*
X16162363Y-12885898D02*
X16171887Y-12876374D01*
X16171887Y-12876374D02*
X16190934Y-12866850D01*
X16190934Y-12866850D02*
X16219506Y-12866850D01*
X16219506Y-12866850D02*
X16238553Y-12876374D01*
X16238553Y-12876374D02*
X16248077Y-12885898D01*
X16248077Y-12885898D02*
X16257601Y-12904946D01*
X16257601Y-12904946D02*
X16257601Y-12962088D01*
X16257601Y-12962088D02*
X16248077Y-12981136D01*
X16248077Y-12981136D02*
X16238553Y-12990660D01*
X16238553Y-12990660D02*
X16219506Y-13000184D01*
X16219506Y-13000184D02*
X16190934Y-13000184D01*
X16371887Y-13000184D02*
X16352839Y-12990660D01*
X16352839Y-12990660D02*
X16343315Y-12971612D01*
X16343315Y-12971612D02*
X16343315Y-12800184D01*
X16524268Y-12990660D02*
X16505220Y-13000184D01*
X16505220Y-13000184D02*
X16467125Y-13000184D01*
X16467125Y-13000184D02*
X16448077Y-12990660D01*
X16448077Y-12990660D02*
X16438553Y-12971612D01*
X16438553Y-12971612D02*
X16438553Y-12895422D01*
X16438553Y-12895422D02*
X16448077Y-12876374D01*
X16448077Y-12876374D02*
X16467125Y-12866850D01*
X16467125Y-12866850D02*
X16505220Y-12866850D01*
X16505220Y-12866850D02*
X16524268Y-12876374D01*
X16524268Y-12876374D02*
X16533791Y-12895422D01*
X16533791Y-12895422D02*
X16533791Y-12914469D01*
X16533791Y-12914469D02*
X16438553Y-12933517D01*
X16609982Y-12990660D02*
X16629030Y-13000184D01*
X16629030Y-13000184D02*
X16667125Y-13000184D01*
X16667125Y-13000184D02*
X16686172Y-12990660D01*
X16686172Y-12990660D02*
X16695696Y-12971612D01*
X16695696Y-12971612D02*
X16695696Y-12962088D01*
X16695696Y-12962088D02*
X16686172Y-12943041D01*
X16686172Y-12943041D02*
X16667125Y-12933517D01*
X16667125Y-12933517D02*
X16638553Y-12933517D01*
X16638553Y-12933517D02*
X16619506Y-12923993D01*
X16619506Y-12923993D02*
X16609982Y-12904946D01*
X16609982Y-12904946D02*
X16609982Y-12895422D01*
X16609982Y-12895422D02*
X16619506Y-12876374D01*
X16619506Y-12876374D02*
X16638553Y-12866850D01*
X16638553Y-12866850D02*
X16667125Y-12866850D01*
X16667125Y-12866850D02*
X16686172Y-12876374D01*
X16762363Y-13076374D02*
X16771887Y-13066850D01*
X16771887Y-13066850D02*
X16790934Y-13038279D01*
X16790934Y-13038279D02*
X16800458Y-13019231D01*
X16800458Y-13019231D02*
X16809982Y-12990660D01*
X16809982Y-12990660D02*
X16819506Y-12943041D01*
X16819506Y-12943041D02*
X16819506Y-12904946D01*
X16819506Y-12904946D02*
X16809982Y-12857327D01*
X16809982Y-12857327D02*
X16800458Y-12828755D01*
X16800458Y-12828755D02*
X16790934Y-12809708D01*
X16790934Y-12809708D02*
X16771887Y-12781136D01*
X16771887Y-12781136D02*
X16762363Y-12771612D01*
X11787300Y-13072700D02*
X11987300Y-13272700D01*
X11987300Y-13072700D02*
X11787300Y-13272700D01*
X11987300Y-13172700D02*
G75*
G02*
X11787300Y-13172700I-100000J0D01*
G01*
X11787300Y-13172700D02*
G75*
G02*
X11987300Y-13172700I100000J0D01*
G01*
X12238553Y-13083231D02*
X12248077Y-13073708D01*
X12248077Y-13073708D02*
X12267124Y-13064184D01*
X12267124Y-13064184D02*
X12314743Y-13064184D01*
X12314743Y-13064184D02*
X12333791Y-13073708D01*
X12333791Y-13073708D02*
X12343315Y-13083231D01*
X12343315Y-13083231D02*
X12352839Y-13102279D01*
X12352839Y-13102279D02*
X12352839Y-13121327D01*
X12352839Y-13121327D02*
X12343315Y-13149898D01*
X12343315Y-13149898D02*
X12229029Y-13264184D01*
X12229029Y-13264184D02*
X12352839Y-13264184D01*
X12438553Y-13245136D02*
X12448077Y-13254660D01*
X12448077Y-13254660D02*
X12438553Y-13264184D01*
X12438553Y-13264184D02*
X12429029Y-13254660D01*
X12429029Y-13254660D02*
X12438553Y-13245136D01*
X12438553Y-13245136D02*
X12438553Y-13264184D01*
X12571886Y-13064184D02*
X12590934Y-13064184D01*
X12590934Y-13064184D02*
X12609982Y-13073708D01*
X12609982Y-13073708D02*
X12619505Y-13083231D01*
X12619505Y-13083231D02*
X12629029Y-13102279D01*
X12629029Y-13102279D02*
X12638553Y-13140374D01*
X12638553Y-13140374D02*
X12638553Y-13187993D01*
X12638553Y-13187993D02*
X12629029Y-13226088D01*
X12629029Y-13226088D02*
X12619505Y-13245136D01*
X12619505Y-13245136D02*
X12609982Y-13254660D01*
X12609982Y-13254660D02*
X12590934Y-13264184D01*
X12590934Y-13264184D02*
X12571886Y-13264184D01*
X12571886Y-13264184D02*
X12552839Y-13254660D01*
X12552839Y-13254660D02*
X12543315Y-13245136D01*
X12543315Y-13245136D02*
X12533791Y-13226088D01*
X12533791Y-13226088D02*
X12524267Y-13187993D01*
X12524267Y-13187993D02*
X12524267Y-13140374D01*
X12524267Y-13140374D02*
X12533791Y-13102279D01*
X12533791Y-13102279D02*
X12543315Y-13083231D01*
X12543315Y-13083231D02*
X12552839Y-13073708D01*
X12552839Y-13073708D02*
X12571886Y-13064184D01*
X12762362Y-13064184D02*
X12781410Y-13064184D01*
X12781410Y-13064184D02*
X12800458Y-13073708D01*
X12800458Y-13073708D02*
X12809982Y-13083231D01*
X12809982Y-13083231D02*
X12819505Y-13102279D01*
X12819505Y-13102279D02*
X12829029Y-13140374D01*
X12829029Y-13140374D02*
X12829029Y-13187993D01*
X12829029Y-13187993D02*
X12819505Y-13226088D01*
X12819505Y-13226088D02*
X12809982Y-13245136D01*
X12809982Y-13245136D02*
X12800458Y-13254660D01*
X12800458Y-13254660D02*
X12781410Y-13264184D01*
X12781410Y-13264184D02*
X12762362Y-13264184D01*
X12762362Y-13264184D02*
X12743315Y-13254660D01*
X12743315Y-13254660D02*
X12733791Y-13245136D01*
X12733791Y-13245136D02*
X12724267Y-13226088D01*
X12724267Y-13226088D02*
X12714743Y-13187993D01*
X12714743Y-13187993D02*
X12714743Y-13140374D01*
X12714743Y-13140374D02*
X12724267Y-13102279D01*
X12724267Y-13102279D02*
X12733791Y-13083231D01*
X12733791Y-13083231D02*
X12743315Y-13073708D01*
X12743315Y-13073708D02*
X12762362Y-13064184D01*
X12952839Y-13064184D02*
X12971886Y-13064184D01*
X12971886Y-13064184D02*
X12990934Y-13073708D01*
X12990934Y-13073708D02*
X13000458Y-13083231D01*
X13000458Y-13083231D02*
X13009982Y-13102279D01*
X13009982Y-13102279D02*
X13019505Y-13140374D01*
X13019505Y-13140374D02*
X13019505Y-13187993D01*
X13019505Y-13187993D02*
X13009982Y-13226088D01*
X13009982Y-13226088D02*
X13000458Y-13245136D01*
X13000458Y-13245136D02*
X12990934Y-13254660D01*
X12990934Y-13254660D02*
X12971886Y-13264184D01*
X12971886Y-13264184D02*
X12952839Y-13264184D01*
X12952839Y-13264184D02*
X12933791Y-13254660D01*
X12933791Y-13254660D02*
X12924267Y-13245136D01*
X12924267Y-13245136D02*
X12914743Y-13226088D01*
X12914743Y-13226088D02*
X12905220Y-13187993D01*
X12905220Y-13187993D02*
X12905220Y-13140374D01*
X12905220Y-13140374D02*
X12914743Y-13102279D01*
X12914743Y-13102279D02*
X12924267Y-13083231D01*
X12924267Y-13083231D02*
X12933791Y-13073708D01*
X12933791Y-13073708D02*
X12952839Y-13064184D01*
X13105220Y-13264184D02*
X13105220Y-13130850D01*
X13105220Y-13149898D02*
X13114743Y-13140374D01*
X13114743Y-13140374D02*
X13133791Y-13130850D01*
X13133791Y-13130850D02*
X13162363Y-13130850D01*
X13162363Y-13130850D02*
X13181410Y-13140374D01*
X13181410Y-13140374D02*
X13190934Y-13159422D01*
X13190934Y-13159422D02*
X13190934Y-13264184D01*
X13190934Y-13159422D02*
X13200458Y-13140374D01*
X13200458Y-13140374D02*
X13219505Y-13130850D01*
X13219505Y-13130850D02*
X13248077Y-13130850D01*
X13248077Y-13130850D02*
X13267124Y-13140374D01*
X13267124Y-13140374D02*
X13276648Y-13159422D01*
X13276648Y-13159422D02*
X13276648Y-13264184D01*
X13371886Y-13264184D02*
X13371886Y-13130850D01*
X13371886Y-13149898D02*
X13381410Y-13140374D01*
X13381410Y-13140374D02*
X13400458Y-13130850D01*
X13400458Y-13130850D02*
X13429029Y-13130850D01*
X13429029Y-13130850D02*
X13448077Y-13140374D01*
X13448077Y-13140374D02*
X13457601Y-13159422D01*
X13457601Y-13159422D02*
X13457601Y-13264184D01*
X13457601Y-13159422D02*
X13467124Y-13140374D01*
X13467124Y-13140374D02*
X13486172Y-13130850D01*
X13486172Y-13130850D02*
X13514743Y-13130850D01*
X13514743Y-13130850D02*
X13533791Y-13140374D01*
X13533791Y-13140374D02*
X13543315Y-13159422D01*
X13543315Y-13159422D02*
X13543315Y-13264184D01*
X13933791Y-13054660D02*
X13762363Y-13311803D01*
X14190934Y-13064184D02*
X14209982Y-13064184D01*
X14209982Y-13064184D02*
X14229029Y-13073708D01*
X14229029Y-13073708D02*
X14238553Y-13083231D01*
X14238553Y-13083231D02*
X14248077Y-13102279D01*
X14248077Y-13102279D02*
X14257601Y-13140374D01*
X14257601Y-13140374D02*
X14257601Y-13187993D01*
X14257601Y-13187993D02*
X14248077Y-13226088D01*
X14248077Y-13226088D02*
X14238553Y-13245136D01*
X14238553Y-13245136D02*
X14229029Y-13254660D01*
X14229029Y-13254660D02*
X14209982Y-13264184D01*
X14209982Y-13264184D02*
X14190934Y-13264184D01*
X14190934Y-13264184D02*
X14171886Y-13254660D01*
X14171886Y-13254660D02*
X14162363Y-13245136D01*
X14162363Y-13245136D02*
X14152839Y-13226088D01*
X14152839Y-13226088D02*
X14143315Y-13187993D01*
X14143315Y-13187993D02*
X14143315Y-13140374D01*
X14143315Y-13140374D02*
X14152839Y-13102279D01*
X14152839Y-13102279D02*
X14162363Y-13083231D01*
X14162363Y-13083231D02*
X14171886Y-13073708D01*
X14171886Y-13073708D02*
X14190934Y-13064184D01*
X14343315Y-13245136D02*
X14352839Y-13254660D01*
X14352839Y-13254660D02*
X14343315Y-13264184D01*
X14343315Y-13264184D02*
X14333791Y-13254660D01*
X14333791Y-13254660D02*
X14343315Y-13245136D01*
X14343315Y-13245136D02*
X14343315Y-13264184D01*
X14476648Y-13064184D02*
X14495696Y-13064184D01*
X14495696Y-13064184D02*
X14514744Y-13073708D01*
X14514744Y-13073708D02*
X14524267Y-13083231D01*
X14524267Y-13083231D02*
X14533791Y-13102279D01*
X14533791Y-13102279D02*
X14543315Y-13140374D01*
X14543315Y-13140374D02*
X14543315Y-13187993D01*
X14543315Y-13187993D02*
X14533791Y-13226088D01*
X14533791Y-13226088D02*
X14524267Y-13245136D01*
X14524267Y-13245136D02*
X14514744Y-13254660D01*
X14514744Y-13254660D02*
X14495696Y-13264184D01*
X14495696Y-13264184D02*
X14476648Y-13264184D01*
X14476648Y-13264184D02*
X14457601Y-13254660D01*
X14457601Y-13254660D02*
X14448077Y-13245136D01*
X14448077Y-13245136D02*
X14438553Y-13226088D01*
X14438553Y-13226088D02*
X14429029Y-13187993D01*
X14429029Y-13187993D02*
X14429029Y-13140374D01*
X14429029Y-13140374D02*
X14438553Y-13102279D01*
X14438553Y-13102279D02*
X14448077Y-13083231D01*
X14448077Y-13083231D02*
X14457601Y-13073708D01*
X14457601Y-13073708D02*
X14476648Y-13064184D01*
X14609982Y-13064184D02*
X14743315Y-13064184D01*
X14743315Y-13064184D02*
X14657601Y-13264184D01*
X14848077Y-13149898D02*
X14829029Y-13140374D01*
X14829029Y-13140374D02*
X14819506Y-13130850D01*
X14819506Y-13130850D02*
X14809982Y-13111803D01*
X14809982Y-13111803D02*
X14809982Y-13102279D01*
X14809982Y-13102279D02*
X14819506Y-13083231D01*
X14819506Y-13083231D02*
X14829029Y-13073708D01*
X14829029Y-13073708D02*
X14848077Y-13064184D01*
X14848077Y-13064184D02*
X14886172Y-13064184D01*
X14886172Y-13064184D02*
X14905220Y-13073708D01*
X14905220Y-13073708D02*
X14914744Y-13083231D01*
X14914744Y-13083231D02*
X14924267Y-13102279D01*
X14924267Y-13102279D02*
X14924267Y-13111803D01*
X14924267Y-13111803D02*
X14914744Y-13130850D01*
X14914744Y-13130850D02*
X14905220Y-13140374D01*
X14905220Y-13140374D02*
X14886172Y-13149898D01*
X14886172Y-13149898D02*
X14848077Y-13149898D01*
X14848077Y-13149898D02*
X14829029Y-13159422D01*
X14829029Y-13159422D02*
X14819506Y-13168946D01*
X14819506Y-13168946D02*
X14809982Y-13187993D01*
X14809982Y-13187993D02*
X14809982Y-13226088D01*
X14809982Y-13226088D02*
X14819506Y-13245136D01*
X14819506Y-13245136D02*
X14829029Y-13254660D01*
X14829029Y-13254660D02*
X14848077Y-13264184D01*
X14848077Y-13264184D02*
X14886172Y-13264184D01*
X14886172Y-13264184D02*
X14905220Y-13254660D01*
X14905220Y-13254660D02*
X14914744Y-13245136D01*
X14914744Y-13245136D02*
X14924267Y-13226088D01*
X14924267Y-13226088D02*
X14924267Y-13187993D01*
X14924267Y-13187993D02*
X14914744Y-13168946D01*
X14914744Y-13168946D02*
X14905220Y-13159422D01*
X14905220Y-13159422D02*
X14886172Y-13149898D01*
X14990934Y-13064184D02*
X15124267Y-13064184D01*
X15124267Y-13064184D02*
X15038553Y-13264184D01*
X15190934Y-13064184D02*
X15190934Y-13102279D01*
X15267125Y-13064184D02*
X15267125Y-13102279D01*
X15562363Y-13340374D02*
X15552839Y-13330850D01*
X15552839Y-13330850D02*
X15533791Y-13302279D01*
X15533791Y-13302279D02*
X15524268Y-13283231D01*
X15524268Y-13283231D02*
X15514744Y-13254660D01*
X15514744Y-13254660D02*
X15505220Y-13207041D01*
X15505220Y-13207041D02*
X15505220Y-13168946D01*
X15505220Y-13168946D02*
X15514744Y-13121327D01*
X15514744Y-13121327D02*
X15524268Y-13092755D01*
X15524268Y-13092755D02*
X15533791Y-13073708D01*
X15533791Y-13073708D02*
X15552839Y-13045136D01*
X15552839Y-13045136D02*
X15562363Y-13035612D01*
X15629029Y-13083231D02*
X15638553Y-13073708D01*
X15638553Y-13073708D02*
X15657601Y-13064184D01*
X15657601Y-13064184D02*
X15705220Y-13064184D01*
X15705220Y-13064184D02*
X15724268Y-13073708D01*
X15724268Y-13073708D02*
X15733791Y-13083231D01*
X15733791Y-13083231D02*
X15743315Y-13102279D01*
X15743315Y-13102279D02*
X15743315Y-13121327D01*
X15743315Y-13121327D02*
X15733791Y-13149898D01*
X15733791Y-13149898D02*
X15619506Y-13264184D01*
X15619506Y-13264184D02*
X15743315Y-13264184D01*
X15981410Y-13264184D02*
X15981410Y-13064184D01*
X16067125Y-13264184D02*
X16067125Y-13159422D01*
X16067125Y-13159422D02*
X16057601Y-13140374D01*
X16057601Y-13140374D02*
X16038553Y-13130850D01*
X16038553Y-13130850D02*
X16009982Y-13130850D01*
X16009982Y-13130850D02*
X15990934Y-13140374D01*
X15990934Y-13140374D02*
X15981410Y-13149898D01*
X16190934Y-13264184D02*
X16171887Y-13254660D01*
X16171887Y-13254660D02*
X16162363Y-13245136D01*
X16162363Y-13245136D02*
X16152839Y-13226088D01*
X16152839Y-13226088D02*
X16152839Y-13168946D01*
X16152839Y-13168946D02*
X16162363Y-13149898D01*
X16162363Y-13149898D02*
X16171887Y-13140374D01*
X16171887Y-13140374D02*
X16190934Y-13130850D01*
X16190934Y-13130850D02*
X16219506Y-13130850D01*
X16219506Y-13130850D02*
X16238553Y-13140374D01*
X16238553Y-13140374D02*
X16248077Y-13149898D01*
X16248077Y-13149898D02*
X16257601Y-13168946D01*
X16257601Y-13168946D02*
X16257601Y-13226088D01*
X16257601Y-13226088D02*
X16248077Y-13245136D01*
X16248077Y-13245136D02*
X16238553Y-13254660D01*
X16238553Y-13254660D02*
X16219506Y-13264184D01*
X16219506Y-13264184D02*
X16190934Y-13264184D01*
X16371887Y-13264184D02*
X16352839Y-13254660D01*
X16352839Y-13254660D02*
X16343315Y-13235612D01*
X16343315Y-13235612D02*
X16343315Y-13064184D01*
X16524268Y-13254660D02*
X16505220Y-13264184D01*
X16505220Y-13264184D02*
X16467125Y-13264184D01*
X16467125Y-13264184D02*
X16448077Y-13254660D01*
X16448077Y-13254660D02*
X16438553Y-13235612D01*
X16438553Y-13235612D02*
X16438553Y-13159422D01*
X16438553Y-13159422D02*
X16448077Y-13140374D01*
X16448077Y-13140374D02*
X16467125Y-13130850D01*
X16467125Y-13130850D02*
X16505220Y-13130850D01*
X16505220Y-13130850D02*
X16524268Y-13140374D01*
X16524268Y-13140374D02*
X16533791Y-13159422D01*
X16533791Y-13159422D02*
X16533791Y-13178469D01*
X16533791Y-13178469D02*
X16438553Y-13197517D01*
X16609982Y-13254660D02*
X16629030Y-13264184D01*
X16629030Y-13264184D02*
X16667125Y-13264184D01*
X16667125Y-13264184D02*
X16686172Y-13254660D01*
X16686172Y-13254660D02*
X16695696Y-13235612D01*
X16695696Y-13235612D02*
X16695696Y-13226088D01*
X16695696Y-13226088D02*
X16686172Y-13207041D01*
X16686172Y-13207041D02*
X16667125Y-13197517D01*
X16667125Y-13197517D02*
X16638553Y-13197517D01*
X16638553Y-13197517D02*
X16619506Y-13187993D01*
X16619506Y-13187993D02*
X16609982Y-13168946D01*
X16609982Y-13168946D02*
X16609982Y-13159422D01*
X16609982Y-13159422D02*
X16619506Y-13140374D01*
X16619506Y-13140374D02*
X16638553Y-13130850D01*
X16638553Y-13130850D02*
X16667125Y-13130850D01*
X16667125Y-13130850D02*
X16686172Y-13140374D01*
X16762363Y-13340374D02*
X16771887Y-13330850D01*
X16771887Y-13330850D02*
X16790934Y-13302279D01*
X16790934Y-13302279D02*
X16800458Y-13283231D01*
X16800458Y-13283231D02*
X16809982Y-13254660D01*
X16809982Y-13254660D02*
X16819506Y-13207041D01*
X16819506Y-13207041D02*
X16819506Y-13168946D01*
X16819506Y-13168946D02*
X16809982Y-13121327D01*
X16809982Y-13121327D02*
X16800458Y-13092755D01*
X16800458Y-13092755D02*
X16790934Y-13073708D01*
X16790934Y-13073708D02*
X16771887Y-13045136D01*
X16771887Y-13045136D02*
X16762363Y-13035612D01*
M02*
