%TF.GenerationSoftware,KiCad,Pcbnew,10.0.6*%
%TF.CreationDate,2026-09-07T19:17:36+02:00*%
%TF.ProjectId,openrz67,6f70656e-727a-4363-972e-6b696361645f,2*%
%TF.SameCoordinates,Original*%
%TF.FileFunction,Legend,Top*%
%TF.FilePolarity,Positive*%
%FSLAX46Y46*%
G04 Gerber Fmt 4.6, Leading zero omitted, Abs format (unit mm)*
G04 Created by KiCad (PCBNEW 10.0.6) date 2026-09-07 19:17:36*
%MOMM*%
%LPD*%
G01*
G04 APERTURE LIST*
G04 Aperture macros list*
%AMRoundRect*
0 Rectangle with rounded corners*
0 $1 Rounding radius*
0 $2 $3 $4 $5 $6 $7 $8 $9 X,Y pos of 4 corners*
0 Add a 4 corners polygon primitive as box body*
4,1,4,$2,$3,$4,$5,$6,$7,$8,$9,$2,$3,0*
0 Add four circle primitives for the rounded corners*
1,1,$1+$1,$2,$3*
1,1,$1+$1,$4,$5*
1,1,$1+$1,$6,$7*
1,1,$1+$1,$8,$9*
0 Add four rect primitives between the rounded corners*
20,1,$1+$1,$2,$3,$4,$5,0*
20,1,$1+$1,$4,$5,$6,$7,0*
20,1,$1+$1,$6,$7,$8,$9,0*
20,1,$1+$1,$8,$9,$2,$3,0*%
G04 Aperture macros list end*
%ADD10C,0.100000*%
%ADD11C,0.150000*%
%ADD12C,0.203000*%
%ADD13C,0.152500*%
%ADD14C,0.200000*%
%ADD15C,0.060000*%
%ADD16C,0.254000*%
%ADD17C,0.152000*%
%ADD18C,0.300000*%
%ADD19C,0.250000*%
%ADD20C,0.000000*%
%ADD21RoundRect,0.051000X0.525000X0.850000X-0.525000X0.850000X-0.525000X-0.850000X0.525000X-0.850000X0*%
%ADD22RoundRect,0.051000X-0.395000X-0.270000X0.395000X-0.270000X0.395000X0.270000X-0.395000X0.270000X0*%
%ADD23RoundRect,0.051000X0.282750X0.270000X-0.282750X0.270000X-0.282750X-0.270000X0.282750X-0.270000X0*%
%ADD24RoundRect,0.051000X-0.270000X0.395000X-0.270000X-0.395000X0.270000X-0.395000X0.270000X0.395000X0*%
%ADD25RoundRect,0.051000X0.400000X0.450000X-0.400000X0.450000X-0.400000X-0.450000X0.400000X-0.450000X0*%
%ADD26RoundRect,0.051000X-0.332500X-0.140000X0.332500X-0.140000X0.332500X0.140000X-0.332500X0.140000X0*%
%ADD27RoundRect,0.051000X-0.600000X-1.000000X0.600000X-1.000000X0.600000X1.000000X-0.600000X1.000000X0*%
%ADD28RoundRect,0.051000X0.395000X0.270000X-0.395000X0.270000X-0.395000X-0.270000X0.395000X-0.270000X0*%
%ADD29RoundRect,0.051000X-0.450000X0.400000X-0.450000X-0.400000X0.450000X-0.400000X0.450000X0.400000X0*%
%ADD30RoundRect,0.051000X-0.400000X-0.450000X0.400000X-0.450000X0.400000X0.450000X-0.400000X0.450000X0*%
%ADD31RoundRect,0.051000X-0.400000X-0.400000X0.400000X-0.400000X0.400000X0.400000X-0.400000X0.400000X0*%
%ADD32RoundRect,0.051000X0.270000X-0.282750X0.270000X0.282750X-0.270000X0.282750X-0.270000X-0.282750X0*%
%ADD33RoundRect,0.051000X-0.282750X-0.270000X0.282750X-0.270000X0.282750X0.270000X-0.282750X0.270000X0*%
%ADD34RoundRect,0.051000X0.450000X-0.400000X0.450000X0.400000X-0.450000X0.400000X-0.450000X-0.400000X0*%
%ADD35RoundRect,0.051000X-0.270000X0.282750X-0.270000X-0.282750X0.270000X-0.282750X0.270000X0.282750X0*%
%ADD36RoundRect,0.051000X0.525000X-0.500000X0.525000X0.500000X-0.525000X0.500000X-0.525000X-0.500000X0*%
%ADD37RoundRect,0.051000X1.100000X-0.525000X1.100000X0.525000X-1.100000X0.525000X-1.100000X-0.525000X0*%
%ADD38RoundRect,0.051000X-0.403250X-0.432000X0.403250X-0.432000X0.403250X0.432000X-0.403250X0.432000X0*%
%ADD39RoundRect,0.051000X-0.550000X-0.400000X0.550000X-0.400000X0.550000X0.400000X-0.550000X0.400000X0*%
%ADD40RoundRect,0.051000X-1.700000X1.000000X-1.700000X-1.000000X1.700000X-1.000000X1.700000X1.000000X0*%
%ADD41C,1.702000*%
%ADD42C,3.102000*%
%ADD43RoundRect,0.051000X-0.800000X-0.800000X0.800000X-0.800000X0.800000X0.800000X-0.800000X0.800000X0*%
%ADD44RoundRect,0.051000X0.750000X0.400000X-0.750000X0.400000X-0.750000X-0.400000X0.750000X-0.400000X0*%
%ADD45RoundRect,0.051000X-0.850000X0.400000X-0.850000X-0.400000X0.850000X-0.400000X0.850000X0.400000X0*%
%ADD46O,0.382000X1.002000*%
%ADD47O,1.002000X0.382000*%
%ADD48RoundRect,0.051000X-1.850000X-1.850000X1.850000X-1.850000X1.850000X1.850000X-1.850000X1.850000X0*%
%ADD49RoundRect,0.051000X0.270000X-0.395000X0.270000X0.395000X-0.270000X0.395000X-0.270000X-0.395000X0*%
%ADD50C,0.802000*%
%ADD51RoundRect,0.051000X-0.550000X0.275000X-0.550000X-0.275000X0.550000X-0.275000X0.550000X0.275000X0*%
%ADD52RoundRect,0.051000X-0.550000X0.150000X-0.550000X-0.150000X0.550000X-0.150000X0.550000X0.150000X0*%
%ADD53O,2.102000X1.202000*%
%ADD54O,1.902000X1.302000*%
%ADD55RoundRect,0.051000X0.850000X-0.850000X0.850000X0.850000X-0.850000X0.850000X-0.850000X-0.850000X0*%
%ADD56C,1.802000*%
%ADD57RoundRect,0.051000X0.850000X-0.400000X0.850000X0.400000X-0.850000X0.400000X-0.850000X-0.400000X0*%
%ADD58RoundRect,0.051000X0.100000X-0.250000X0.100000X0.250000X-0.100000X0.250000X-0.100000X-0.250000X0*%
%ADD59RoundRect,0.051000X0.750000X-0.450000X0.750000X0.450000X-0.750000X0.450000X-0.750000X-0.450000X0*%
%ADD60RoundRect,0.051000X0.400000X0.400000X-0.400000X0.400000X-0.400000X-0.400000X0.400000X-0.400000X0*%
G04 APERTURE END LIST*
D10*
X23651503Y-5971704D02*
X23722931Y-5995514D01*
X23722931Y-5995514D02*
X23746741Y-6019323D01*
X23746741Y-6019323D02*
X23770550Y-6066942D01*
X23770550Y-6066942D02*
X23770550Y-6138371D01*
X23770550Y-6138371D02*
X23746741Y-6185990D01*
X23746741Y-6185990D02*
X23722931Y-6209800D01*
X23722931Y-6209800D02*
X23675312Y-6233609D01*
X23675312Y-6233609D02*
X23484836Y-6233609D01*
X23484836Y-6233609D02*
X23484836Y-5733609D01*
X23484836Y-5733609D02*
X23651503Y-5733609D01*
X23651503Y-5733609D02*
X23699122Y-5757419D01*
X23699122Y-5757419D02*
X23722931Y-5781228D01*
X23722931Y-5781228D02*
X23746741Y-5828847D01*
X23746741Y-5828847D02*
X23746741Y-5876466D01*
X23746741Y-5876466D02*
X23722931Y-5924085D01*
X23722931Y-5924085D02*
X23699122Y-5947895D01*
X23699122Y-5947895D02*
X23651503Y-5971704D01*
X23651503Y-5971704D02*
X23484836Y-5971704D01*
X24080074Y-5733609D02*
X24175312Y-5733609D01*
X24175312Y-5733609D02*
X24222931Y-5757419D01*
X24222931Y-5757419D02*
X24270550Y-5805038D01*
X24270550Y-5805038D02*
X24294360Y-5900276D01*
X24294360Y-5900276D02*
X24294360Y-6066942D01*
X24294360Y-6066942D02*
X24270550Y-6162180D01*
X24270550Y-6162180D02*
X24222931Y-6209800D01*
X24222931Y-6209800D02*
X24175312Y-6233609D01*
X24175312Y-6233609D02*
X24080074Y-6233609D01*
X24080074Y-6233609D02*
X24032455Y-6209800D01*
X24032455Y-6209800D02*
X23984836Y-6162180D01*
X23984836Y-6162180D02*
X23961027Y-6066942D01*
X23961027Y-6066942D02*
X23961027Y-5900276D01*
X23961027Y-5900276D02*
X23984836Y-5805038D01*
X23984836Y-5805038D02*
X24032455Y-5757419D01*
X24032455Y-5757419D02*
X24080074Y-5733609D01*
X24603884Y-5733609D02*
X24699122Y-5733609D01*
X24699122Y-5733609D02*
X24746741Y-5757419D01*
X24746741Y-5757419D02*
X24794360Y-5805038D01*
X24794360Y-5805038D02*
X24818170Y-5900276D01*
X24818170Y-5900276D02*
X24818170Y-6066942D01*
X24818170Y-6066942D02*
X24794360Y-6162180D01*
X24794360Y-6162180D02*
X24746741Y-6209800D01*
X24746741Y-6209800D02*
X24699122Y-6233609D01*
X24699122Y-6233609D02*
X24603884Y-6233609D01*
X24603884Y-6233609D02*
X24556265Y-6209800D01*
X24556265Y-6209800D02*
X24508646Y-6162180D01*
X24508646Y-6162180D02*
X24484837Y-6066942D01*
X24484837Y-6066942D02*
X24484837Y-5900276D01*
X24484837Y-5900276D02*
X24508646Y-5805038D01*
X24508646Y-5805038D02*
X24556265Y-5757419D01*
X24556265Y-5757419D02*
X24603884Y-5733609D01*
X24961028Y-5733609D02*
X25246742Y-5733609D01*
X25103885Y-6233609D02*
X25103885Y-5733609D01*
X25794360Y-5971704D02*
X25961027Y-5971704D01*
X26032455Y-6233609D02*
X25794360Y-6233609D01*
X25794360Y-6233609D02*
X25794360Y-5733609D01*
X25794360Y-5733609D02*
X26032455Y-5733609D01*
X26246741Y-6233609D02*
X26246741Y-5733609D01*
X26246741Y-5733609D02*
X26532455Y-6233609D01*
X26532455Y-6233609D02*
X26532455Y-5733609D01*
D11*
X33181905Y-17504819D02*
X33800952Y-17504819D01*
X33800952Y-17504819D02*
X33467619Y-17885771D01*
X33467619Y-17885771D02*
X33610476Y-17885771D01*
X33610476Y-17885771D02*
X33705714Y-17933390D01*
X33705714Y-17933390D02*
X33753333Y-17981009D01*
X33753333Y-17981009D02*
X33800952Y-18076247D01*
X33800952Y-18076247D02*
X33800952Y-18314342D01*
X33800952Y-18314342D02*
X33753333Y-18409580D01*
X33753333Y-18409580D02*
X33705714Y-18457200D01*
X33705714Y-18457200D02*
X33610476Y-18504819D01*
X33610476Y-18504819D02*
X33324762Y-18504819D01*
X33324762Y-18504819D02*
X33229524Y-18457200D01*
X33229524Y-18457200D02*
X33181905Y-18409580D01*
X34086667Y-17504819D02*
X34420000Y-18504819D01*
X34420000Y-18504819D02*
X34753333Y-17504819D01*
X34991429Y-17504819D02*
X35610476Y-17504819D01*
X35610476Y-17504819D02*
X35277143Y-17885771D01*
X35277143Y-17885771D02*
X35420000Y-17885771D01*
X35420000Y-17885771D02*
X35515238Y-17933390D01*
X35515238Y-17933390D02*
X35562857Y-17981009D01*
X35562857Y-17981009D02*
X35610476Y-18076247D01*
X35610476Y-18076247D02*
X35610476Y-18314342D01*
X35610476Y-18314342D02*
X35562857Y-18409580D01*
X35562857Y-18409580D02*
X35515238Y-18457200D01*
X35515238Y-18457200D02*
X35420000Y-18504819D01*
X35420000Y-18504819D02*
X35134286Y-18504819D01*
X35134286Y-18504819D02*
X35039048Y-18457200D01*
X35039048Y-18457200D02*
X34991429Y-18409580D01*
X36198095Y-18602438D02*
X36102857Y-18554819D01*
X36102857Y-18554819D02*
X35960000Y-18554819D01*
X35960000Y-18554819D02*
X35817143Y-18602438D01*
X35817143Y-18602438D02*
X35721905Y-18697676D01*
X35721905Y-18697676D02*
X35674286Y-18792914D01*
X35674286Y-18792914D02*
X35626667Y-18983390D01*
X35626667Y-18983390D02*
X35626667Y-19126247D01*
X35626667Y-19126247D02*
X35674286Y-19316723D01*
X35674286Y-19316723D02*
X35721905Y-19411961D01*
X35721905Y-19411961D02*
X35817143Y-19507200D01*
X35817143Y-19507200D02*
X35960000Y-19554819D01*
X35960000Y-19554819D02*
X36055238Y-19554819D01*
X36055238Y-19554819D02*
X36198095Y-19507200D01*
X36198095Y-19507200D02*
X36245714Y-19459580D01*
X36245714Y-19459580D02*
X36245714Y-19126247D01*
X36245714Y-19126247D02*
X36055238Y-19126247D01*
X36674286Y-19554819D02*
X36674286Y-18554819D01*
X36674286Y-18554819D02*
X37245714Y-19554819D01*
X37245714Y-19554819D02*
X37245714Y-18554819D01*
X37721905Y-19554819D02*
X37721905Y-18554819D01*
X37721905Y-18554819D02*
X37960000Y-18554819D01*
X37960000Y-18554819D02*
X38102857Y-18602438D01*
X38102857Y-18602438D02*
X38198095Y-18697676D01*
X38198095Y-18697676D02*
X38245714Y-18792914D01*
X38245714Y-18792914D02*
X38293333Y-18983390D01*
X38293333Y-18983390D02*
X38293333Y-19126247D01*
X38293333Y-19126247D02*
X38245714Y-19316723D01*
X38245714Y-19316723D02*
X38198095Y-19411961D01*
X38198095Y-19411961D02*
X38102857Y-19507200D01*
X38102857Y-19507200D02*
X37960000Y-19554819D01*
X37960000Y-19554819D02*
X37721905Y-19554819D01*
X38738095Y-17504819D02*
X39309523Y-17504819D01*
X39023809Y-18504819D02*
X39023809Y-17504819D01*
X39547619Y-17504819D02*
X40214285Y-18504819D01*
X40214285Y-17504819D02*
X39547619Y-18504819D01*
X41040000Y-19554819D02*
X41040000Y-18554819D01*
X41706666Y-18554819D02*
X41897142Y-18554819D01*
X41897142Y-18554819D02*
X41992380Y-18602438D01*
X41992380Y-18602438D02*
X42087618Y-18697676D01*
X42087618Y-18697676D02*
X42135237Y-18888152D01*
X42135237Y-18888152D02*
X42135237Y-19221485D01*
X42135237Y-19221485D02*
X42087618Y-19411961D01*
X42087618Y-19411961D02*
X41992380Y-19507200D01*
X41992380Y-19507200D02*
X41897142Y-19554819D01*
X41897142Y-19554819D02*
X41706666Y-19554819D01*
X41706666Y-19554819D02*
X41611428Y-19507200D01*
X41611428Y-19507200D02*
X41516190Y-19411961D01*
X41516190Y-19411961D02*
X41468571Y-19221485D01*
X41468571Y-19221485D02*
X41468571Y-18888152D01*
X41468571Y-18888152D02*
X41516190Y-18697676D01*
X41516190Y-18697676D02*
X41611428Y-18602438D01*
X41611428Y-18602438D02*
X41706666Y-18554819D01*
X42992380Y-18554819D02*
X42801904Y-18554819D01*
X42801904Y-18554819D02*
X42706666Y-18602438D01*
X42706666Y-18602438D02*
X42659047Y-18650057D01*
X42659047Y-18650057D02*
X42563809Y-18792914D01*
X42563809Y-18792914D02*
X42516190Y-18983390D01*
X42516190Y-18983390D02*
X42516190Y-19364342D01*
X42516190Y-19364342D02*
X42563809Y-19459580D01*
X42563809Y-19459580D02*
X42611428Y-19507200D01*
X42611428Y-19507200D02*
X42706666Y-19554819D01*
X42706666Y-19554819D02*
X42897142Y-19554819D01*
X42897142Y-19554819D02*
X42992380Y-19507200D01*
X42992380Y-19507200D02*
X43039999Y-19459580D01*
X43039999Y-19459580D02*
X43087618Y-19364342D01*
X43087618Y-19364342D02*
X43087618Y-19126247D01*
X43087618Y-19126247D02*
X43039999Y-19031009D01*
X43039999Y-19031009D02*
X42992380Y-18983390D01*
X42992380Y-18983390D02*
X42897142Y-18935771D01*
X42897142Y-18935771D02*
X42706666Y-18935771D01*
X42706666Y-18935771D02*
X42611428Y-18983390D01*
X42611428Y-18983390D02*
X42563809Y-19031009D01*
X42563809Y-19031009D02*
X42516190Y-19126247D01*
D12*
X3741599Y-8354887D02*
X4554552Y-8354887D01*
D11*
X31706666Y-20054819D02*
X31706666Y-20769104D01*
X31706666Y-20769104D02*
X31659047Y-20911961D01*
X31659047Y-20911961D02*
X31563809Y-21007200D01*
X31563809Y-21007200D02*
X31420952Y-21054819D01*
X31420952Y-21054819D02*
X31325714Y-21054819D01*
X32706666Y-21054819D02*
X32135238Y-21054819D01*
X32420952Y-21054819D02*
X32420952Y-20054819D01*
X32420952Y-20054819D02*
X32325714Y-20197676D01*
X32325714Y-20197676D02*
X32230476Y-20292914D01*
X32230476Y-20292914D02*
X32135238Y-20340533D01*
%TO.C,X2*%
D13*
X22531000Y-19398000D02*
X26588000Y-19398000D01*
X22531000Y-21555000D02*
X22531000Y-19398000D01*
X26588000Y-19398000D02*
X26588000Y-21555000D01*
X26588000Y-21555000D02*
X22531000Y-21555000D01*
%TO.C,U2*%
D11*
X14070000Y-7070000D02*
X16730000Y-7070000D01*
X16730000Y-9730000D02*
X14070000Y-9730000D01*
D14*
X13710000Y-7400000D02*
G75*
G02*
X13510000Y-7400000I-100000J0D01*
G01*
X13510000Y-7400000D02*
G75*
G02*
X13710000Y-7400000I100000J0D01*
G01*
D15*
X14180000Y-7150000D02*
G75*
G02*
X14120000Y-7150000I-30000J0D01*
G01*
X14120000Y-7150000D02*
G75*
G02*
X14180000Y-7150000I30000J0D01*
G01*
%TO.C,D4*%
D11*
X23478000Y-1674500D02*
X23478000Y-624500D01*
X23480500Y-2054500D02*
X23480500Y-3204500D01*
X23778000Y-324500D02*
X23478000Y-624500D01*
X23878000Y-324500D02*
X23778000Y-324500D01*
X23900500Y-2024500D02*
X24230500Y-1694500D01*
X23900500Y-2034500D02*
X23900500Y-2024500D01*
X24230500Y-2034500D02*
X24230500Y-1694500D01*
X24570500Y-2034500D02*
X24230500Y-1694500D01*
X24578000Y-324500D02*
X23878000Y-324500D01*
X24578000Y-324500D02*
X24678500Y-324500D01*
X24580500Y-2034500D02*
X23900500Y-2034500D01*
X24580500Y-2034500D02*
X24570500Y-2034500D01*
X24678500Y-324500D02*
X24978500Y-624500D01*
X24978500Y-1674500D02*
X24978500Y-624500D01*
X24980500Y-2054500D02*
X24980500Y-3204500D01*
X24980500Y-3204500D02*
X23500500Y-3204500D01*
%TO.C,A1*%
D16*
X6688000Y-19334500D02*
X6938000Y-19334500D01*
X6688000Y-19984500D02*
X6688000Y-19334500D01*
X6938000Y-18334500D02*
X6944500Y-18334500D01*
X6938000Y-19334500D02*
X6938000Y-18334500D01*
X6938000Y-19984500D02*
X6688000Y-19984500D01*
X6938000Y-20934500D02*
X6938000Y-19984500D01*
X6944500Y-20934500D02*
X6938000Y-20934500D01*
X9607000Y-20904500D02*
X9672500Y-20904500D01*
X9672500Y-18364500D02*
X9607000Y-18364500D01*
X9672500Y-18903500D02*
X9672500Y-18364500D01*
X9672500Y-20904500D02*
X9672500Y-20365500D01*
%TO.C,X1*%
D13*
X10951500Y-15946500D02*
X10951500Y-17404500D01*
X10951500Y-17404500D02*
X12208500Y-17404500D01*
X11144500Y-14519000D02*
X14403500Y-14519000D01*
X11144500Y-17176000D02*
X11144500Y-14519000D01*
X11238500Y-17176000D02*
X11144500Y-17176000D01*
X14403500Y-14519000D02*
X14403500Y-17176000D01*
X14403500Y-17176000D02*
X11238500Y-17176000D01*
%TO.C,L3*%
D16*
X6900999Y-11565500D02*
X6900999Y-4165500D01*
X8369999Y-4165000D02*
X6900999Y-4165000D01*
X8369999Y-11565000D02*
X6900999Y-11565000D01*
X12840999Y-5071000D02*
X12840999Y-4309000D01*
X13602999Y-5071000D02*
X12840999Y-5071000D01*
X13700999Y-4165000D02*
X12231999Y-4165000D01*
X13700999Y-4165000D02*
X13700999Y-11565000D01*
X13700999Y-11565000D02*
X12231999Y-11565000D01*
X11443999Y-7865500D02*
G75*
G02*
X9157999Y-7865500I-1143000J0D01*
G01*
X9157999Y-7865500D02*
G75*
G02*
X11443999Y-7865500I1143000J0D01*
G01*
%TO.C,BAT1*%
X475000Y-1810500D02*
X4975000Y-1810500D01*
X475000Y-7810500D02*
X475000Y-1810500D01*
X1116000Y-2270500D02*
X3021000Y-2270500D01*
X1116000Y-7223500D02*
X1116000Y-2270500D01*
X3021000Y-2270500D02*
X3021000Y-1889500D01*
X3021000Y-7223500D02*
X1116000Y-7223500D01*
X3021000Y-7731500D02*
X3021000Y-7223500D01*
X3656000Y-1810500D02*
X3656000Y-2318500D01*
X3656000Y-2318500D02*
X4418000Y-2318500D01*
X3656000Y-7223500D02*
X4418000Y-7223500D01*
X3656000Y-7731500D02*
X3656000Y-7223500D01*
X4418000Y-2318500D02*
X4418000Y-4477500D01*
X4418000Y-4477500D02*
X4926000Y-4477500D01*
X4418000Y-5064500D02*
X4926000Y-5064500D01*
X4418000Y-7223500D02*
X4418000Y-5064500D01*
X4975000Y-1810500D02*
X4975000Y-7810500D01*
X4975000Y-7810500D02*
X475000Y-7810500D01*
%TO.C,S3*%
X25713500Y-340000D02*
X31713500Y-340000D01*
X25713500Y-1659000D02*
X26221500Y-1659000D01*
X25713500Y-4840000D02*
X25713500Y-340000D01*
X26173500Y-2294000D02*
X25792500Y-2294000D01*
X26173500Y-4199000D02*
X26173500Y-2294000D01*
X26221500Y-897000D02*
X28380500Y-897000D01*
X26221500Y-1659000D02*
X26221500Y-897000D01*
X28380500Y-897000D02*
X28380500Y-389000D01*
X28967500Y-897000D02*
X28967500Y-389000D01*
X31126500Y-897000D02*
X28967500Y-897000D01*
X31126500Y-1659000D02*
X31126500Y-897000D01*
X31126500Y-2294000D02*
X31126500Y-4199000D01*
X31126500Y-4199000D02*
X26173500Y-4199000D01*
X31634500Y-1659000D02*
X31126500Y-1659000D01*
X31634500Y-2294000D02*
X31126500Y-2294000D01*
X31713500Y-340000D02*
X31713500Y-4840000D01*
X31713500Y-4840000D02*
X25713500Y-4840000D01*
%TO.C,U6*%
D17*
X34200000Y-9400000D02*
X34200000Y-5800000D01*
X38800000Y-5800000D02*
X34200000Y-5800000D01*
X38800000Y-9400000D02*
X34200000Y-9400000D01*
X38800000Y-9400000D02*
X38800000Y-5800000D01*
D14*
X33100000Y-5400000D02*
G75*
G02*
X32900000Y-5400000I-100000J0D01*
G01*
X32900000Y-5400000D02*
G75*
G02*
X33100000Y-5400000I100000J0D01*
G01*
%TO.C,S2*%
D16*
X24261500Y-7114500D02*
X24261500Y-10114500D01*
X24261500Y-7114500D02*
X24424500Y-7114500D01*
X24261500Y-10114500D02*
X24261500Y-7114500D01*
X24430500Y-10114500D02*
X24261500Y-10114500D01*
X26592500Y-7114500D02*
X26761500Y-7114500D01*
X26761500Y-7114500D02*
X26761500Y-10114500D01*
X26761500Y-7114500D02*
X26761500Y-10114500D01*
X26761500Y-10114500D02*
X26592500Y-10114500D01*
X26311500Y-8614500D02*
G75*
G02*
X24711500Y-8614500I-800000J0D01*
G01*
X24711500Y-8614500D02*
G75*
G02*
X26311500Y-8614500I800000J0D01*
G01*
%TO.C,U1*%
D14*
X18557000Y-11719500D02*
X18962000Y-11719500D01*
X18557000Y-12124500D02*
X18557000Y-11719500D01*
X18557000Y-17119500D02*
X18557000Y-16714500D01*
X18962000Y-17119500D02*
X18557000Y-17119500D01*
X23552000Y-17119500D02*
X23957000Y-17119500D01*
X23957000Y-11719500D02*
X23552000Y-11719500D01*
X23957000Y-12124500D02*
X23957000Y-11719500D01*
X23957000Y-17119500D02*
X23957000Y-16714500D01*
D18*
X18731500Y-17470000D02*
G75*
G02*
X18729000Y-17470000I-1250J-149999D01*
G01*
%TO.C,U5*%
D17*
X34200000Y-16200000D02*
X34200000Y-12600000D01*
X38800000Y-12600000D02*
X34200000Y-12600000D01*
X38800000Y-16200000D02*
X34200000Y-16200000D01*
X38800000Y-16200000D02*
X38800000Y-12600000D01*
D14*
X33100000Y-12200000D02*
G75*
G02*
X32900000Y-12200000I-100000J0D01*
G01*
X32900000Y-12200000D02*
G75*
G02*
X33100000Y-12200000I100000J0D01*
G01*
%TO.C,S1*%
D16*
X21461000Y-7119500D02*
X21630000Y-7119500D01*
X21461000Y-10119500D02*
X21461000Y-7119500D01*
X21461000Y-10119500D02*
X21461000Y-7119500D01*
X21630000Y-10119500D02*
X21461000Y-10119500D01*
X23792000Y-7119500D02*
X23961000Y-7119500D01*
X23961000Y-7119500D02*
X23961000Y-10119500D01*
X23961000Y-10119500D02*
X23798000Y-10119500D01*
X23961000Y-10119500D02*
X23961000Y-7119500D01*
X23511000Y-8619500D02*
G75*
G02*
X21911000Y-8619500I-800000J0D01*
G01*
X21911000Y-8619500D02*
G75*
G02*
X23511000Y-8619500I800000J0D01*
G01*
%TO.C,U3*%
D19*
X15860000Y-2560000D02*
X15860000Y-3700000D01*
X15860000Y-3700000D02*
X15860000Y-4840000D01*
X15860000Y-4840000D02*
X15870000Y-4840000D01*
X15870000Y-2560000D02*
X15860000Y-2560000D01*
X18130000Y-4840000D02*
X18140000Y-4840000D01*
X18140000Y-2560000D02*
X18130000Y-2560000D01*
X18140000Y-4840000D02*
X18140000Y-2560000D01*
D15*
X16030000Y-4800000D02*
G75*
G02*
X15970000Y-4800000I-30000J0D01*
G01*
X15970000Y-4800000D02*
G75*
G02*
X16030000Y-4800000I30000J0D01*
G01*
D20*
%TO.C,D3*%
D11*
X19743500Y-2609500D02*
X21223500Y-2609500D01*
X19743500Y-3759500D02*
X19743500Y-2609500D01*
X19745500Y-4139500D02*
X19745500Y-5189500D01*
X20045500Y-5489500D02*
X19745500Y-5189500D01*
X20143500Y-3779500D02*
X20153500Y-3779500D01*
X20143500Y-3779500D02*
X20823500Y-3779500D01*
X20146000Y-5489500D02*
X20045500Y-5489500D01*
X20146000Y-5489500D02*
X20846000Y-5489500D01*
X20153500Y-3779500D02*
X20493500Y-4119500D01*
X20493500Y-3779500D02*
X20493500Y-4119500D01*
X20823500Y-3779500D02*
X20823500Y-3789500D01*
X20823500Y-3789500D02*
X20493500Y-4119500D01*
X20846000Y-5489500D02*
X20946000Y-5489500D01*
X20946000Y-5489500D02*
X21246000Y-5189500D01*
X21243500Y-3759500D02*
X21243500Y-2609500D01*
X21246000Y-4139500D02*
X21246000Y-5189500D01*
%TD*%
%LPC*%
D21*
%TO.C,X2*%
X25834500Y-20476500D03*
X23284500Y-20476500D03*
%TD*%
D22*
%TO.C,C4*%
X19240000Y-19910000D03*
X20330000Y-19910000D03*
%TD*%
D23*
%TO.C,R5*%
X8389500Y-13795500D03*
X7523500Y-13795500D03*
%TD*%
D24*
%TO.C,C7*%
X25663500Y-16018500D03*
X25663500Y-17108500D03*
%TD*%
D25*
%TO.C,C29*%
X26559500Y-14395000D03*
X25159500Y-14395000D03*
%TD*%
D26*
%TO.C,U2*%
X14240000Y-7400000D03*
X14240000Y-7900000D03*
X14240000Y-8400000D03*
X14240000Y-8900000D03*
X14240000Y-9400000D03*
X16560000Y-9400000D03*
X16560000Y-8900000D03*
X16560000Y-8400000D03*
X16560000Y-7900000D03*
X16560000Y-7400000D03*
D27*
X15400000Y-8400000D03*
%TD*%
D28*
%TO.C,C25*%
X18545000Y-9800000D03*
X17455000Y-9800000D03*
%TD*%
D29*
%TO.C,C22*%
X11800000Y-800000D03*
X11800000Y-2200000D03*
%TD*%
D30*
%TO.C,C26*%
X28510000Y-17526000D03*
X29910000Y-17526000D03*
%TD*%
D31*
%TO.C,D4*%
X24220500Y-1014500D03*
X24227500Y-2613500D03*
%TD*%
D24*
%TO.C,C2*%
X14744500Y-19712500D03*
X14744500Y-20802500D03*
%TD*%
D29*
%TO.C,C14*%
X27742500Y-5940500D03*
X27742500Y-7340500D03*
%TD*%
D32*
%TO.C,R7*%
X27742000Y-9776000D03*
X27742000Y-8910000D03*
%TD*%
D33*
%TO.C,R20*%
X19611000Y-9175500D03*
X20477000Y-9175500D03*
%TD*%
D34*
%TO.C,C21*%
X6072000Y-7287500D03*
X6072000Y-5887500D03*
%TD*%
D35*
%TO.C,R21*%
X31350000Y-12967000D03*
X31350000Y-13833000D03*
%TD*%
D36*
%TO.C,A1*%
X9800500Y-19634500D03*
D37*
X8275500Y-21109500D03*
X8275500Y-18159500D03*
%TD*%
D35*
%TO.C,R8*%
X26939500Y-16006500D03*
X26939500Y-16872500D03*
%TD*%
D38*
%TO.C,R16*%
X17946500Y-1000000D03*
X19453500Y-1000000D03*
%TD*%
D39*
%TO.C,X1*%
X11967500Y-16422500D03*
X13567500Y-16422500D03*
X13567500Y-15272500D03*
X11967500Y-15272500D03*
%TD*%
D40*
%TO.C,L3*%
X10300999Y-5065000D03*
X10300999Y-10665000D03*
%TD*%
D41*
%TO.C,BAT1*%
X3275000Y-3810500D03*
X3275000Y-5810500D03*
%TD*%
%TO.C,S3*%
X27713500Y-2040000D03*
X29713500Y-2040000D03*
%TD*%
D22*
%TO.C,L1*%
X12330500Y-19709500D03*
X13420500Y-19709500D03*
%TD*%
D42*
%TO.C,H2*%
X46000000Y-2000000D03*
%TD*%
D29*
%TO.C,C24*%
X19300000Y-5800000D03*
X19300000Y-7200000D03*
%TD*%
D24*
%TO.C,C1*%
X11003000Y-19712500D03*
X11003000Y-20802500D03*
%TD*%
D23*
%TO.C,R6*%
X20500500Y-10373500D03*
X19634500Y-10373500D03*
%TD*%
%TO.C,R13*%
X16633000Y-1000000D03*
X15767000Y-1000000D03*
%TD*%
D43*
%TO.C,U4*%
X44300500Y-14750000D03*
D41*
X44300500Y-12250000D03*
X44300500Y-9750000D03*
X44300500Y-7250000D03*
%TD*%
D44*
%TO.C,U6*%
X33000000Y-6330000D03*
X33000000Y-8870000D03*
X40000000Y-8870000D03*
X40000000Y-6330000D03*
%TD*%
D22*
%TO.C,L2*%
X15487000Y-15402500D03*
X16577000Y-15402500D03*
%TD*%
D45*
%TO.C,S2*%
X25511500Y-6914500D03*
X25511500Y-10314500D03*
%TD*%
D28*
%TO.C,C5*%
X16496000Y-16611500D03*
X15406000Y-16611500D03*
%TD*%
D46*
%TO.C,U1*%
X19507000Y-16969500D03*
X20007000Y-16969500D03*
X20507000Y-16969500D03*
X21007000Y-16969500D03*
X21507000Y-16969500D03*
X22007000Y-16969500D03*
X22507000Y-16969500D03*
X23007000Y-16969500D03*
D47*
X23807000Y-16169500D03*
X23807000Y-15669500D03*
X23807000Y-15169500D03*
X23807000Y-14669500D03*
X23807000Y-14169500D03*
X23807000Y-13669500D03*
X23807000Y-13169500D03*
X23807000Y-12669500D03*
D46*
X23007000Y-11869500D03*
X22507000Y-11869500D03*
X22007000Y-11869500D03*
X21507000Y-11869500D03*
X21007000Y-11869500D03*
X20507000Y-11869500D03*
X20007000Y-11869500D03*
X19507000Y-11869500D03*
D47*
X18707000Y-12669500D03*
X18707000Y-13169500D03*
X18707000Y-13669500D03*
X18707000Y-14169500D03*
X18707000Y-14669500D03*
X18707000Y-15169500D03*
X18707000Y-15669500D03*
X18707000Y-16169500D03*
D48*
X21257000Y-14419500D03*
%TD*%
D28*
%TO.C,C9*%
X12858500Y-13807000D03*
X11768500Y-13807000D03*
%TD*%
D23*
%TO.C,R4*%
X8389500Y-14967500D03*
X7523500Y-14967500D03*
%TD*%
D22*
%TO.C,C6*%
X25760000Y-12867000D03*
X26850000Y-12867000D03*
%TD*%
D49*
%TO.C,C31*%
X27420000Y-21042500D03*
X27420000Y-19952500D03*
%TD*%
D50*
%TO.C,USB1*%
X4912000Y-10369000D03*
X4912000Y-16149000D03*
D51*
X5982000Y-10059000D03*
X5982000Y-10859000D03*
D52*
X5982000Y-11509000D03*
X5982000Y-12009000D03*
X5982000Y-12509000D03*
X5982000Y-13009000D03*
X5982000Y-13509000D03*
X5982000Y-14009000D03*
X5982000Y-14509000D03*
X5982000Y-15009000D03*
D51*
X5982000Y-15659000D03*
X5982000Y-16459000D03*
D53*
X5432000Y-8934000D03*
D54*
X1232000Y-8934000D03*
D53*
X5432000Y-17584000D03*
D54*
X1232000Y-17584000D03*
%TD*%
D49*
%TO.C,C30*%
X21764500Y-21061500D03*
X21764500Y-19971500D03*
%TD*%
D29*
%TO.C,C20*%
X9779000Y-1586000D03*
X9779000Y-2986000D03*
%TD*%
D44*
%TO.C,U5*%
X33000000Y-13130000D03*
X33000000Y-15670000D03*
X40000000Y-15670000D03*
X40000000Y-13130000D03*
%TD*%
D55*
%TO.C,J1*%
X34420000Y-20600000D03*
D56*
X36960000Y-20600000D03*
X39500000Y-20600000D03*
X42040000Y-20600000D03*
%TD*%
D57*
%TO.C,S1*%
X22711000Y-10319500D03*
X22711000Y-6919500D03*
%TD*%
D58*
%TO.C,U3*%
X16200000Y-4750000D03*
X16600000Y-4750000D03*
X17000000Y-4750000D03*
X17400000Y-4750000D03*
X17800000Y-4750000D03*
X17800000Y-2650000D03*
X17400000Y-2650000D03*
X17000000Y-2650000D03*
X16600000Y-2650000D03*
X16200000Y-2650000D03*
D59*
X17000000Y-3700000D03*
%TD*%
D30*
%TO.C,C15*%
X15200500Y-18034000D03*
X16600500Y-18034000D03*
%TD*%
D33*
%TO.C,R9*%
X7523500Y-12553000D03*
X8389500Y-12553000D03*
%TD*%
D32*
%TO.C,R18*%
X22000000Y-3233000D03*
X22000000Y-2367000D03*
%TD*%
D35*
%TO.C,R22*%
X31350000Y-6167000D03*
X31350000Y-7033000D03*
%TD*%
D33*
%TO.C,R10*%
X7523500Y-16141500D03*
X8389500Y-16141500D03*
%TD*%
D42*
%TO.C,H1*%
X2000000Y-20000000D03*
%TD*%
D23*
%TO.C,R11*%
X14632999Y-1000000D03*
X13766999Y-1000000D03*
%TD*%
D60*
%TO.C,D3*%
X20500000Y-4799500D03*
X20500000Y-3200500D03*
%TD*%
D30*
%TO.C,C23*%
X15800000Y-11400000D03*
X17200000Y-11400000D03*
%TD*%
D22*
%TO.C,C3*%
X19219000Y-21114500D03*
X20309000Y-21114500D03*
%TD*%
D28*
%TO.C,C8*%
X13536000Y-17987000D03*
X12446000Y-17987000D03*
%TD*%
%LPD*%
M02*
