%TF.GenerationSoftware,KiCad,Pcbnew,10.0.6*%
%TF.CreationDate,2026-09-07T09:22:53+02:00*%
%TF.ProjectId,openrz67,6f70656e-727a-4363-972e-6b696361645f,2*%
%TF.SameCoordinates,Original*%
%TF.FileFunction,Drillmap*%
%TF.FilePolarity,Positive*%
%FSLAX45Y45*%
G04 Gerber Fmt 4.5, Leading zero omitted, Abs format (unit mm)*
G04 Created by KiCad (PCBNEW 10.0.6) date 2026-09-07 09:22:53*
%MOMM*%
%LPD*%
G01*
G04 APERTURE LIST*
%ADD10C,0.254000*%
%ADD11C,0.200000*%
%ADD12C,0.100000*%
G04 APERTURE END LIST*
D10*
X12000000Y-9200000D02*
X12000000Y-11000000D01*
X12000000Y-9200000D02*
G75*
G02*
X12200000Y-9000000I200000J0D01*
G01*
X12200000Y-9000000D02*
X16600000Y-9000000D01*
X12200000Y-11200000D02*
G75*
G02*
X12000000Y-11000000I0J200000D01*
G01*
X12200000Y-11200000D02*
X16600000Y-11200000D01*
X16600000Y-9000000D02*
G75*
G02*
X16800000Y-9200000I0J-200000D01*
G01*
X16800000Y-9200000D02*
X16800000Y-11000000D01*
X16800000Y-11000000D02*
G75*
G02*
X16600000Y-11200000I-200000J0D01*
G01*
D11*
D12*
X12456200Y-10001900D02*
X12526200Y-10071900D01*
X12526200Y-10001900D02*
X12456200Y-10071900D01*
X12456200Y-10579900D02*
X12526200Y-10649900D01*
X12526200Y-10579900D02*
X12456200Y-10649900D01*
D11*
X12248077Y-11524184D02*
X12248077Y-11324184D01*
X12248077Y-11324184D02*
X12295696Y-11324184D01*
X12295696Y-11324184D02*
X12324267Y-11333708D01*
X12324267Y-11333708D02*
X12343315Y-11352755D01*
X12343315Y-11352755D02*
X12352839Y-11371803D01*
X12352839Y-11371803D02*
X12362362Y-11409898D01*
X12362362Y-11409898D02*
X12362362Y-11438469D01*
X12362362Y-11438469D02*
X12352839Y-11476565D01*
X12352839Y-11476565D02*
X12343315Y-11495612D01*
X12343315Y-11495612D02*
X12324267Y-11514660D01*
X12324267Y-11514660D02*
X12295696Y-11524184D01*
X12295696Y-11524184D02*
X12248077Y-11524184D01*
X12448077Y-11524184D02*
X12448077Y-11390850D01*
X12448077Y-11428946D02*
X12457601Y-11409898D01*
X12457601Y-11409898D02*
X12467124Y-11400374D01*
X12467124Y-11400374D02*
X12486172Y-11390850D01*
X12486172Y-11390850D02*
X12505220Y-11390850D01*
X12571886Y-11524184D02*
X12571886Y-11390850D01*
X12571886Y-11324184D02*
X12562362Y-11333708D01*
X12562362Y-11333708D02*
X12571886Y-11343231D01*
X12571886Y-11343231D02*
X12581410Y-11333708D01*
X12581410Y-11333708D02*
X12571886Y-11324184D01*
X12571886Y-11324184D02*
X12571886Y-11343231D01*
X12695696Y-11524184D02*
X12676648Y-11514660D01*
X12676648Y-11514660D02*
X12667124Y-11495612D01*
X12667124Y-11495612D02*
X12667124Y-11324184D01*
X12800458Y-11524184D02*
X12781410Y-11514660D01*
X12781410Y-11514660D02*
X12771886Y-11495612D01*
X12771886Y-11495612D02*
X12771886Y-11324184D01*
X13029029Y-11524184D02*
X13029029Y-11324184D01*
X13029029Y-11324184D02*
X13095696Y-11467041D01*
X13095696Y-11467041D02*
X13162362Y-11324184D01*
X13162362Y-11324184D02*
X13162362Y-11524184D01*
X13343315Y-11524184D02*
X13343315Y-11419422D01*
X13343315Y-11419422D02*
X13333791Y-11400374D01*
X13333791Y-11400374D02*
X13314743Y-11390850D01*
X13314743Y-11390850D02*
X13276648Y-11390850D01*
X13276648Y-11390850D02*
X13257601Y-11400374D01*
X13343315Y-11514660D02*
X13324267Y-11524184D01*
X13324267Y-11524184D02*
X13276648Y-11524184D01*
X13276648Y-11524184D02*
X13257601Y-11514660D01*
X13257601Y-11514660D02*
X13248077Y-11495612D01*
X13248077Y-11495612D02*
X13248077Y-11476565D01*
X13248077Y-11476565D02*
X13257601Y-11457517D01*
X13257601Y-11457517D02*
X13276648Y-11447993D01*
X13276648Y-11447993D02*
X13324267Y-11447993D01*
X13324267Y-11447993D02*
X13343315Y-11438469D01*
X13438553Y-11390850D02*
X13438553Y-11590850D01*
X13438553Y-11400374D02*
X13457601Y-11390850D01*
X13457601Y-11390850D02*
X13495696Y-11390850D01*
X13495696Y-11390850D02*
X13514743Y-11400374D01*
X13514743Y-11400374D02*
X13524267Y-11409898D01*
X13524267Y-11409898D02*
X13533791Y-11428946D01*
X13533791Y-11428946D02*
X13533791Y-11486088D01*
X13533791Y-11486088D02*
X13524267Y-11505136D01*
X13524267Y-11505136D02*
X13514743Y-11514660D01*
X13514743Y-11514660D02*
X13495696Y-11524184D01*
X13495696Y-11524184D02*
X13457601Y-11524184D01*
X13457601Y-11524184D02*
X13438553Y-11514660D01*
X13619505Y-11505136D02*
X13629029Y-11514660D01*
X13629029Y-11514660D02*
X13619505Y-11524184D01*
X13619505Y-11524184D02*
X13609982Y-11514660D01*
X13609982Y-11514660D02*
X13619505Y-11505136D01*
X13619505Y-11505136D02*
X13619505Y-11524184D01*
X13619505Y-11400374D02*
X13629029Y-11409898D01*
X13629029Y-11409898D02*
X13619505Y-11419422D01*
X13619505Y-11419422D02*
X13609982Y-11409898D01*
X13609982Y-11409898D02*
X13619505Y-11400374D01*
X13619505Y-11400374D02*
X13619505Y-11419422D01*
D12*
X11917300Y-11817700D02*
X11987300Y-11887700D01*
X11987300Y-11817700D02*
X11917300Y-11887700D01*
D11*
X12286172Y-11744184D02*
X12305220Y-11744184D01*
X12305220Y-11744184D02*
X12324267Y-11753708D01*
X12324267Y-11753708D02*
X12333791Y-11763231D01*
X12333791Y-11763231D02*
X12343315Y-11782279D01*
X12343315Y-11782279D02*
X12352839Y-11820374D01*
X12352839Y-11820374D02*
X12352839Y-11867993D01*
X12352839Y-11867993D02*
X12343315Y-11906088D01*
X12343315Y-11906088D02*
X12333791Y-11925136D01*
X12333791Y-11925136D02*
X12324267Y-11934660D01*
X12324267Y-11934660D02*
X12305220Y-11944184D01*
X12305220Y-11944184D02*
X12286172Y-11944184D01*
X12286172Y-11944184D02*
X12267124Y-11934660D01*
X12267124Y-11934660D02*
X12257601Y-11925136D01*
X12257601Y-11925136D02*
X12248077Y-11906088D01*
X12248077Y-11906088D02*
X12238553Y-11867993D01*
X12238553Y-11867993D02*
X12238553Y-11820374D01*
X12238553Y-11820374D02*
X12248077Y-11782279D01*
X12248077Y-11782279D02*
X12257601Y-11763231D01*
X12257601Y-11763231D02*
X12267124Y-11753708D01*
X12267124Y-11753708D02*
X12286172Y-11744184D01*
X12438553Y-11925136D02*
X12448077Y-11934660D01*
X12448077Y-11934660D02*
X12438553Y-11944184D01*
X12438553Y-11944184D02*
X12429029Y-11934660D01*
X12429029Y-11934660D02*
X12438553Y-11925136D01*
X12438553Y-11925136D02*
X12438553Y-11944184D01*
X12514743Y-11744184D02*
X12648077Y-11744184D01*
X12648077Y-11744184D02*
X12562362Y-11944184D01*
X12762362Y-11744184D02*
X12781410Y-11744184D01*
X12781410Y-11744184D02*
X12800458Y-11753708D01*
X12800458Y-11753708D02*
X12809982Y-11763231D01*
X12809982Y-11763231D02*
X12819505Y-11782279D01*
X12819505Y-11782279D02*
X12829029Y-11820374D01*
X12829029Y-11820374D02*
X12829029Y-11867993D01*
X12829029Y-11867993D02*
X12819505Y-11906088D01*
X12819505Y-11906088D02*
X12809982Y-11925136D01*
X12809982Y-11925136D02*
X12800458Y-11934660D01*
X12800458Y-11934660D02*
X12781410Y-11944184D01*
X12781410Y-11944184D02*
X12762362Y-11944184D01*
X12762362Y-11944184D02*
X12743315Y-11934660D01*
X12743315Y-11934660D02*
X12733791Y-11925136D01*
X12733791Y-11925136D02*
X12724267Y-11906088D01*
X12724267Y-11906088D02*
X12714743Y-11867993D01*
X12714743Y-11867993D02*
X12714743Y-11820374D01*
X12714743Y-11820374D02*
X12724267Y-11782279D01*
X12724267Y-11782279D02*
X12733791Y-11763231D01*
X12733791Y-11763231D02*
X12743315Y-11753708D01*
X12743315Y-11753708D02*
X12762362Y-11744184D01*
X12952839Y-11744184D02*
X12971886Y-11744184D01*
X12971886Y-11744184D02*
X12990934Y-11753708D01*
X12990934Y-11753708D02*
X13000458Y-11763231D01*
X13000458Y-11763231D02*
X13009982Y-11782279D01*
X13009982Y-11782279D02*
X13019505Y-11820374D01*
X13019505Y-11820374D02*
X13019505Y-11867993D01*
X13019505Y-11867993D02*
X13009982Y-11906088D01*
X13009982Y-11906088D02*
X13000458Y-11925136D01*
X13000458Y-11925136D02*
X12990934Y-11934660D01*
X12990934Y-11934660D02*
X12971886Y-11944184D01*
X12971886Y-11944184D02*
X12952839Y-11944184D01*
X12952839Y-11944184D02*
X12933791Y-11934660D01*
X12933791Y-11934660D02*
X12924267Y-11925136D01*
X12924267Y-11925136D02*
X12914743Y-11906088D01*
X12914743Y-11906088D02*
X12905220Y-11867993D01*
X12905220Y-11867993D02*
X12905220Y-11820374D01*
X12905220Y-11820374D02*
X12914743Y-11782279D01*
X12914743Y-11782279D02*
X12924267Y-11763231D01*
X12924267Y-11763231D02*
X12933791Y-11753708D01*
X12933791Y-11753708D02*
X12952839Y-11744184D01*
X13105220Y-11944184D02*
X13105220Y-11810850D01*
X13105220Y-11829898D02*
X13114743Y-11820374D01*
X13114743Y-11820374D02*
X13133791Y-11810850D01*
X13133791Y-11810850D02*
X13162363Y-11810850D01*
X13162363Y-11810850D02*
X13181410Y-11820374D01*
X13181410Y-11820374D02*
X13190934Y-11839422D01*
X13190934Y-11839422D02*
X13190934Y-11944184D01*
X13190934Y-11839422D02*
X13200458Y-11820374D01*
X13200458Y-11820374D02*
X13219505Y-11810850D01*
X13219505Y-11810850D02*
X13248077Y-11810850D01*
X13248077Y-11810850D02*
X13267124Y-11820374D01*
X13267124Y-11820374D02*
X13276648Y-11839422D01*
X13276648Y-11839422D02*
X13276648Y-11944184D01*
X13371886Y-11944184D02*
X13371886Y-11810850D01*
X13371886Y-11829898D02*
X13381410Y-11820374D01*
X13381410Y-11820374D02*
X13400458Y-11810850D01*
X13400458Y-11810850D02*
X13429029Y-11810850D01*
X13429029Y-11810850D02*
X13448077Y-11820374D01*
X13448077Y-11820374D02*
X13457601Y-11839422D01*
X13457601Y-11839422D02*
X13457601Y-11944184D01*
X13457601Y-11839422D02*
X13467124Y-11820374D01*
X13467124Y-11820374D02*
X13486172Y-11810850D01*
X13486172Y-11810850D02*
X13514743Y-11810850D01*
X13514743Y-11810850D02*
X13533791Y-11820374D01*
X13533791Y-11820374D02*
X13543315Y-11839422D01*
X13543315Y-11839422D02*
X13543315Y-11944184D01*
X13933791Y-11734660D02*
X13762363Y-11991803D01*
X14190934Y-11744184D02*
X14209982Y-11744184D01*
X14209982Y-11744184D02*
X14229029Y-11753708D01*
X14229029Y-11753708D02*
X14238553Y-11763231D01*
X14238553Y-11763231D02*
X14248077Y-11782279D01*
X14248077Y-11782279D02*
X14257601Y-11820374D01*
X14257601Y-11820374D02*
X14257601Y-11867993D01*
X14257601Y-11867993D02*
X14248077Y-11906088D01*
X14248077Y-11906088D02*
X14238553Y-11925136D01*
X14238553Y-11925136D02*
X14229029Y-11934660D01*
X14229029Y-11934660D02*
X14209982Y-11944184D01*
X14209982Y-11944184D02*
X14190934Y-11944184D01*
X14190934Y-11944184D02*
X14171886Y-11934660D01*
X14171886Y-11934660D02*
X14162363Y-11925136D01*
X14162363Y-11925136D02*
X14152839Y-11906088D01*
X14152839Y-11906088D02*
X14143315Y-11867993D01*
X14143315Y-11867993D02*
X14143315Y-11820374D01*
X14143315Y-11820374D02*
X14152839Y-11782279D01*
X14152839Y-11782279D02*
X14162363Y-11763231D01*
X14162363Y-11763231D02*
X14171886Y-11753708D01*
X14171886Y-11753708D02*
X14190934Y-11744184D01*
X14343315Y-11925136D02*
X14352839Y-11934660D01*
X14352839Y-11934660D02*
X14343315Y-11944184D01*
X14343315Y-11944184D02*
X14333791Y-11934660D01*
X14333791Y-11934660D02*
X14343315Y-11925136D01*
X14343315Y-11925136D02*
X14343315Y-11944184D01*
X14476648Y-11744184D02*
X14495696Y-11744184D01*
X14495696Y-11744184D02*
X14514744Y-11753708D01*
X14514744Y-11753708D02*
X14524267Y-11763231D01*
X14524267Y-11763231D02*
X14533791Y-11782279D01*
X14533791Y-11782279D02*
X14543315Y-11820374D01*
X14543315Y-11820374D02*
X14543315Y-11867993D01*
X14543315Y-11867993D02*
X14533791Y-11906088D01*
X14533791Y-11906088D02*
X14524267Y-11925136D01*
X14524267Y-11925136D02*
X14514744Y-11934660D01*
X14514744Y-11934660D02*
X14495696Y-11944184D01*
X14495696Y-11944184D02*
X14476648Y-11944184D01*
X14476648Y-11944184D02*
X14457601Y-11934660D01*
X14457601Y-11934660D02*
X14448077Y-11925136D01*
X14448077Y-11925136D02*
X14438553Y-11906088D01*
X14438553Y-11906088D02*
X14429029Y-11867993D01*
X14429029Y-11867993D02*
X14429029Y-11820374D01*
X14429029Y-11820374D02*
X14438553Y-11782279D01*
X14438553Y-11782279D02*
X14448077Y-11763231D01*
X14448077Y-11763231D02*
X14457601Y-11753708D01*
X14457601Y-11753708D02*
X14476648Y-11744184D01*
X14619506Y-11763231D02*
X14629029Y-11753708D01*
X14629029Y-11753708D02*
X14648077Y-11744184D01*
X14648077Y-11744184D02*
X14695696Y-11744184D01*
X14695696Y-11744184D02*
X14714744Y-11753708D01*
X14714744Y-11753708D02*
X14724267Y-11763231D01*
X14724267Y-11763231D02*
X14733791Y-11782279D01*
X14733791Y-11782279D02*
X14733791Y-11801327D01*
X14733791Y-11801327D02*
X14724267Y-11829898D01*
X14724267Y-11829898D02*
X14609982Y-11944184D01*
X14609982Y-11944184D02*
X14733791Y-11944184D01*
X14800458Y-11744184D02*
X14933791Y-11744184D01*
X14933791Y-11744184D02*
X14848077Y-11944184D01*
X15095696Y-11744184D02*
X15057601Y-11744184D01*
X15057601Y-11744184D02*
X15038553Y-11753708D01*
X15038553Y-11753708D02*
X15029029Y-11763231D01*
X15029029Y-11763231D02*
X15009982Y-11791803D01*
X15009982Y-11791803D02*
X15000458Y-11829898D01*
X15000458Y-11829898D02*
X15000458Y-11906088D01*
X15000458Y-11906088D02*
X15009982Y-11925136D01*
X15009982Y-11925136D02*
X15019506Y-11934660D01*
X15019506Y-11934660D02*
X15038553Y-11944184D01*
X15038553Y-11944184D02*
X15076648Y-11944184D01*
X15076648Y-11944184D02*
X15095696Y-11934660D01*
X15095696Y-11934660D02*
X15105220Y-11925136D01*
X15105220Y-11925136D02*
X15114744Y-11906088D01*
X15114744Y-11906088D02*
X15114744Y-11858469D01*
X15114744Y-11858469D02*
X15105220Y-11839422D01*
X15105220Y-11839422D02*
X15095696Y-11829898D01*
X15095696Y-11829898D02*
X15076648Y-11820374D01*
X15076648Y-11820374D02*
X15038553Y-11820374D01*
X15038553Y-11820374D02*
X15019506Y-11829898D01*
X15019506Y-11829898D02*
X15009982Y-11839422D01*
X15009982Y-11839422D02*
X15000458Y-11858469D01*
X15190934Y-11744184D02*
X15190934Y-11782279D01*
X15267125Y-11744184D02*
X15267125Y-11782279D01*
X15562363Y-12020374D02*
X15552839Y-12010850D01*
X15552839Y-12010850D02*
X15533791Y-11982279D01*
X15533791Y-11982279D02*
X15524268Y-11963231D01*
X15524268Y-11963231D02*
X15514744Y-11934660D01*
X15514744Y-11934660D02*
X15505220Y-11887041D01*
X15505220Y-11887041D02*
X15505220Y-11848946D01*
X15505220Y-11848946D02*
X15514744Y-11801327D01*
X15514744Y-11801327D02*
X15524268Y-11772755D01*
X15524268Y-11772755D02*
X15533791Y-11753708D01*
X15533791Y-11753708D02*
X15552839Y-11725136D01*
X15552839Y-11725136D02*
X15562363Y-11715612D01*
X15629029Y-11763231D02*
X15638553Y-11753708D01*
X15638553Y-11753708D02*
X15657601Y-11744184D01*
X15657601Y-11744184D02*
X15705220Y-11744184D01*
X15705220Y-11744184D02*
X15724268Y-11753708D01*
X15724268Y-11753708D02*
X15733791Y-11763231D01*
X15733791Y-11763231D02*
X15743315Y-11782279D01*
X15743315Y-11782279D02*
X15743315Y-11801327D01*
X15743315Y-11801327D02*
X15733791Y-11829898D01*
X15733791Y-11829898D02*
X15619506Y-11944184D01*
X15619506Y-11944184D02*
X15743315Y-11944184D01*
X15981410Y-11944184D02*
X15981410Y-11744184D01*
X16067125Y-11944184D02*
X16067125Y-11839422D01*
X16067125Y-11839422D02*
X16057601Y-11820374D01*
X16057601Y-11820374D02*
X16038553Y-11810850D01*
X16038553Y-11810850D02*
X16009982Y-11810850D01*
X16009982Y-11810850D02*
X15990934Y-11820374D01*
X15990934Y-11820374D02*
X15981410Y-11829898D01*
X16190934Y-11944184D02*
X16171887Y-11934660D01*
X16171887Y-11934660D02*
X16162363Y-11925136D01*
X16162363Y-11925136D02*
X16152839Y-11906088D01*
X16152839Y-11906088D02*
X16152839Y-11848946D01*
X16152839Y-11848946D02*
X16162363Y-11829898D01*
X16162363Y-11829898D02*
X16171887Y-11820374D01*
X16171887Y-11820374D02*
X16190934Y-11810850D01*
X16190934Y-11810850D02*
X16219506Y-11810850D01*
X16219506Y-11810850D02*
X16238553Y-11820374D01*
X16238553Y-11820374D02*
X16248077Y-11829898D01*
X16248077Y-11829898D02*
X16257601Y-11848946D01*
X16257601Y-11848946D02*
X16257601Y-11906088D01*
X16257601Y-11906088D02*
X16248077Y-11925136D01*
X16248077Y-11925136D02*
X16238553Y-11934660D01*
X16238553Y-11934660D02*
X16219506Y-11944184D01*
X16219506Y-11944184D02*
X16190934Y-11944184D01*
X16371887Y-11944184D02*
X16352839Y-11934660D01*
X16352839Y-11934660D02*
X16343315Y-11915612D01*
X16343315Y-11915612D02*
X16343315Y-11744184D01*
X16524268Y-11934660D02*
X16505220Y-11944184D01*
X16505220Y-11944184D02*
X16467125Y-11944184D01*
X16467125Y-11944184D02*
X16448077Y-11934660D01*
X16448077Y-11934660D02*
X16438553Y-11915612D01*
X16438553Y-11915612D02*
X16438553Y-11839422D01*
X16438553Y-11839422D02*
X16448077Y-11820374D01*
X16448077Y-11820374D02*
X16467125Y-11810850D01*
X16467125Y-11810850D02*
X16505220Y-11810850D01*
X16505220Y-11810850D02*
X16524268Y-11820374D01*
X16524268Y-11820374D02*
X16533791Y-11839422D01*
X16533791Y-11839422D02*
X16533791Y-11858469D01*
X16533791Y-11858469D02*
X16438553Y-11877517D01*
X16609982Y-11934660D02*
X16629030Y-11944184D01*
X16629030Y-11944184D02*
X16667125Y-11944184D01*
X16667125Y-11944184D02*
X16686172Y-11934660D01*
X16686172Y-11934660D02*
X16695696Y-11915612D01*
X16695696Y-11915612D02*
X16695696Y-11906088D01*
X16695696Y-11906088D02*
X16686172Y-11887041D01*
X16686172Y-11887041D02*
X16667125Y-11877517D01*
X16667125Y-11877517D02*
X16638553Y-11877517D01*
X16638553Y-11877517D02*
X16619506Y-11867993D01*
X16619506Y-11867993D02*
X16609982Y-11848946D01*
X16609982Y-11848946D02*
X16609982Y-11839422D01*
X16609982Y-11839422D02*
X16619506Y-11820374D01*
X16619506Y-11820374D02*
X16638553Y-11810850D01*
X16638553Y-11810850D02*
X16667125Y-11810850D01*
X16667125Y-11810850D02*
X16686172Y-11820374D01*
X16762363Y-12020374D02*
X16771887Y-12010850D01*
X16771887Y-12010850D02*
X16790934Y-11982279D01*
X16790934Y-11982279D02*
X16800458Y-11963231D01*
X16800458Y-11963231D02*
X16809982Y-11934660D01*
X16809982Y-11934660D02*
X16819506Y-11887041D01*
X16819506Y-11887041D02*
X16819506Y-11848946D01*
X16819506Y-11848946D02*
X16809982Y-11801327D01*
X16809982Y-11801327D02*
X16800458Y-11772755D01*
X16800458Y-11772755D02*
X16790934Y-11753708D01*
X16790934Y-11753708D02*
X16771887Y-11725136D01*
X16771887Y-11725136D02*
X16762363Y-11715612D01*
X17124268Y-12020374D02*
X17114744Y-12010850D01*
X17114744Y-12010850D02*
X17095696Y-11982279D01*
X17095696Y-11982279D02*
X17086173Y-11963231D01*
X17086173Y-11963231D02*
X17076649Y-11934660D01*
X17076649Y-11934660D02*
X17067125Y-11887041D01*
X17067125Y-11887041D02*
X17067125Y-11848946D01*
X17067125Y-11848946D02*
X17076649Y-11801327D01*
X17076649Y-11801327D02*
X17086173Y-11772755D01*
X17086173Y-11772755D02*
X17095696Y-11753708D01*
X17095696Y-11753708D02*
X17114744Y-11725136D01*
X17114744Y-11725136D02*
X17124268Y-11715612D01*
X17200458Y-11810850D02*
X17200458Y-11944184D01*
X17200458Y-11829898D02*
X17209982Y-11820374D01*
X17209982Y-11820374D02*
X17229030Y-11810850D01*
X17229030Y-11810850D02*
X17257601Y-11810850D01*
X17257601Y-11810850D02*
X17276649Y-11820374D01*
X17276649Y-11820374D02*
X17286173Y-11839422D01*
X17286173Y-11839422D02*
X17286173Y-11944184D01*
X17409982Y-11944184D02*
X17390934Y-11934660D01*
X17390934Y-11934660D02*
X17381411Y-11925136D01*
X17381411Y-11925136D02*
X17371887Y-11906088D01*
X17371887Y-11906088D02*
X17371887Y-11848946D01*
X17371887Y-11848946D02*
X17381411Y-11829898D01*
X17381411Y-11829898D02*
X17390934Y-11820374D01*
X17390934Y-11820374D02*
X17409982Y-11810850D01*
X17409982Y-11810850D02*
X17438554Y-11810850D01*
X17438554Y-11810850D02*
X17457601Y-11820374D01*
X17457601Y-11820374D02*
X17467125Y-11829898D01*
X17467125Y-11829898D02*
X17476649Y-11848946D01*
X17476649Y-11848946D02*
X17476649Y-11906088D01*
X17476649Y-11906088D02*
X17467125Y-11925136D01*
X17467125Y-11925136D02*
X17457601Y-11934660D01*
X17457601Y-11934660D02*
X17438554Y-11944184D01*
X17438554Y-11944184D02*
X17409982Y-11944184D01*
X17533792Y-11810850D02*
X17609982Y-11810850D01*
X17562363Y-11744184D02*
X17562363Y-11915612D01*
X17562363Y-11915612D02*
X17571887Y-11934660D01*
X17571887Y-11934660D02*
X17590934Y-11944184D01*
X17590934Y-11944184D02*
X17609982Y-11944184D01*
X17829030Y-11810850D02*
X17829030Y-12010850D01*
X17829030Y-11820374D02*
X17848077Y-11810850D01*
X17848077Y-11810850D02*
X17886173Y-11810850D01*
X17886173Y-11810850D02*
X17905220Y-11820374D01*
X17905220Y-11820374D02*
X17914744Y-11829898D01*
X17914744Y-11829898D02*
X17924268Y-11848946D01*
X17924268Y-11848946D02*
X17924268Y-11906088D01*
X17924268Y-11906088D02*
X17914744Y-11925136D01*
X17914744Y-11925136D02*
X17905220Y-11934660D01*
X17905220Y-11934660D02*
X17886173Y-11944184D01*
X17886173Y-11944184D02*
X17848077Y-11944184D01*
X17848077Y-11944184D02*
X17829030Y-11934660D01*
X18038554Y-11944184D02*
X18019506Y-11934660D01*
X18019506Y-11934660D02*
X18009982Y-11915612D01*
X18009982Y-11915612D02*
X18009982Y-11744184D01*
X18200458Y-11944184D02*
X18200458Y-11839422D01*
X18200458Y-11839422D02*
X18190935Y-11820374D01*
X18190935Y-11820374D02*
X18171887Y-11810850D01*
X18171887Y-11810850D02*
X18133792Y-11810850D01*
X18133792Y-11810850D02*
X18114744Y-11820374D01*
X18200458Y-11934660D02*
X18181411Y-11944184D01*
X18181411Y-11944184D02*
X18133792Y-11944184D01*
X18133792Y-11944184D02*
X18114744Y-11934660D01*
X18114744Y-11934660D02*
X18105220Y-11915612D01*
X18105220Y-11915612D02*
X18105220Y-11896565D01*
X18105220Y-11896565D02*
X18114744Y-11877517D01*
X18114744Y-11877517D02*
X18133792Y-11867993D01*
X18133792Y-11867993D02*
X18181411Y-11867993D01*
X18181411Y-11867993D02*
X18200458Y-11858469D01*
X18267125Y-11810850D02*
X18343315Y-11810850D01*
X18295696Y-11744184D02*
X18295696Y-11915612D01*
X18295696Y-11915612D02*
X18305220Y-11934660D01*
X18305220Y-11934660D02*
X18324268Y-11944184D01*
X18324268Y-11944184D02*
X18343315Y-11944184D01*
X18486173Y-11934660D02*
X18467125Y-11944184D01*
X18467125Y-11944184D02*
X18429030Y-11944184D01*
X18429030Y-11944184D02*
X18409982Y-11934660D01*
X18409982Y-11934660D02*
X18400458Y-11915612D01*
X18400458Y-11915612D02*
X18400458Y-11839422D01*
X18400458Y-11839422D02*
X18409982Y-11820374D01*
X18409982Y-11820374D02*
X18429030Y-11810850D01*
X18429030Y-11810850D02*
X18467125Y-11810850D01*
X18467125Y-11810850D02*
X18486173Y-11820374D01*
X18486173Y-11820374D02*
X18495696Y-11839422D01*
X18495696Y-11839422D02*
X18495696Y-11858469D01*
X18495696Y-11858469D02*
X18400458Y-11877517D01*
X18667125Y-11944184D02*
X18667125Y-11744184D01*
X18667125Y-11934660D02*
X18648077Y-11944184D01*
X18648077Y-11944184D02*
X18609982Y-11944184D01*
X18609982Y-11944184D02*
X18590935Y-11934660D01*
X18590935Y-11934660D02*
X18581411Y-11925136D01*
X18581411Y-11925136D02*
X18571887Y-11906088D01*
X18571887Y-11906088D02*
X18571887Y-11848946D01*
X18571887Y-11848946D02*
X18581411Y-11829898D01*
X18581411Y-11829898D02*
X18590935Y-11820374D01*
X18590935Y-11820374D02*
X18609982Y-11810850D01*
X18609982Y-11810850D02*
X18648077Y-11810850D01*
X18648077Y-11810850D02*
X18667125Y-11820374D01*
X18743316Y-12020374D02*
X18752839Y-12010850D01*
X18752839Y-12010850D02*
X18771887Y-11982279D01*
X18771887Y-11982279D02*
X18781411Y-11963231D01*
X18781411Y-11963231D02*
X18790935Y-11934660D01*
X18790935Y-11934660D02*
X18800458Y-11887041D01*
X18800458Y-11887041D02*
X18800458Y-11848946D01*
X18800458Y-11848946D02*
X18790935Y-11801327D01*
X18790935Y-11801327D02*
X18781411Y-11772755D01*
X18781411Y-11772755D02*
X18771887Y-11753708D01*
X18771887Y-11753708D02*
X18752839Y-11725136D01*
X18752839Y-11725136D02*
X18743316Y-11715612D01*
M02*
