%TF.GenerationSoftware,KiCad,Pcbnew,10.0.6*%
%TF.CreationDate,2026-09-10T21:52:26+02:00*%
%TF.ProjectId,openrz67,6f70656e-727a-4363-972e-6b696361645f,2*%
%TF.SameCoordinates,Original*%
%TF.FileFunction,Drillmap*%
%TF.FilePolarity,Positive*%
%FSLAX45Y45*%
G04 Gerber Fmt 4.5, Leading zero omitted, Abs format (unit mm)*
G04 Created by KiCad (PCBNEW 10.0.6) date 2026-09-10 21:52:26*
%MOMM*%
%LPD*%
G01*
G04 APERTURE LIST*
%ADD10C,0.254000*%
%ADD11C,0.200000*%
%ADD12C,0.100000*%
G04 APERTURE END LIST*
D10*
X0Y-200000D02*
X0Y-2000000D01*
X0Y-200000D02*
G75*
G02*
X200000Y0I200000J0D01*
G01*
X200000Y0D02*
X4600000Y0D01*
X200000Y-2200000D02*
G75*
G02*
X0Y-2000000I0J200000D01*
G01*
X200000Y-2200000D02*
X4600000Y-2200000D01*
X4600000Y0D02*
G75*
G02*
X4800000Y-200000I0J-200000D01*
G01*
X4800000Y-200000D02*
X4800000Y-2000000D01*
X4800000Y-2000000D02*
G75*
G02*
X4600000Y-2200000I-200000J0D01*
G01*
D11*
D12*
X2452000Y-1419000D02*
X2472000Y-1439000D01*
X2472000Y-1419000D02*
X2452000Y-1439000D01*
X65000Y-721350D02*
G75*
G02*
X40000Y-721350I-12500J0D01*
G01*
X40000Y-721350D02*
G75*
G02*
X65000Y-721350I12500J0D01*
G01*
X65050Y-414000D02*
G75*
G02*
X40050Y-414000I-12500J0D01*
G01*
X40050Y-414000D02*
G75*
G02*
X65050Y-414000I12500J0D01*
G01*
X70150Y-259550D02*
G75*
G02*
X45150Y-259550I-12500J0D01*
G01*
X45150Y-259550D02*
G75*
G02*
X70150Y-259550I12500J0D01*
G01*
X129350Y-1432550D02*
G75*
G02*
X104350Y-1432550I-12500J0D01*
G01*
X104350Y-1432550D02*
G75*
G02*
X129350Y-1432550I12500J0D01*
G01*
X134400Y-1270000D02*
G75*
G02*
X109400Y-1270000I-12500J0D01*
G01*
X109400Y-1270000D02*
G75*
G02*
X134400Y-1270000I12500J0D01*
G01*
X144600Y-1056650D02*
G75*
G02*
X119600Y-1056650I-12500J0D01*
G01*
X119600Y-1056650D02*
G75*
G02*
X144600Y-1056650I12500J0D01*
G01*
X149650Y-1173500D02*
G75*
G02*
X124650Y-1173500I-12500J0D01*
G01*
X124650Y-1173500D02*
G75*
G02*
X149650Y-1173500I12500J0D01*
G01*
X149650Y-1595100D02*
G75*
G02*
X124650Y-1595100I-12500J0D01*
G01*
X124650Y-1595100D02*
G75*
G02*
X149650Y-1595100I12500J0D01*
G01*
X175050Y-76200D02*
G75*
G02*
X150050Y-76200I-12500J0D01*
G01*
X150050Y-76200D02*
G75*
G02*
X175050Y-76200I12500J0D01*
G01*
X312200Y-1711950D02*
G75*
G02*
X287200Y-1711950I-12500J0D01*
G01*
X287200Y-1711950D02*
G75*
G02*
X312200Y-1711950I12500J0D01*
G01*
X388400Y-52500D02*
G75*
G02*
X363400Y-52500I-12500J0D01*
G01*
X363400Y-52500D02*
G75*
G02*
X388400Y-52500I12500J0D01*
G01*
X388400Y-2123450D02*
G75*
G02*
X363400Y-2123450I-12500J0D01*
G01*
X363400Y-2123450D02*
G75*
G02*
X388400Y-2123450I12500J0D01*
G01*
X459550Y-1879600D02*
G75*
G02*
X434550Y-1879600I-12500J0D01*
G01*
X434550Y-1879600D02*
G75*
G02*
X459550Y-1879600I12500J0D01*
G01*
X484950Y-1996450D02*
G75*
G02*
X459950Y-1996450I-12500J0D01*
G01*
X459950Y-1996450D02*
G75*
G02*
X484950Y-1996450I12500J0D01*
G01*
X495100Y-2103100D02*
G75*
G02*
X470100Y-2103100I-12500J0D01*
G01*
X470100Y-2103100D02*
G75*
G02*
X495100Y-2103100I12500J0D01*
G01*
X561450Y-1879600D02*
G75*
G02*
X536450Y-1879600I-12500J0D01*
G01*
X536450Y-1879600D02*
G75*
G02*
X561450Y-1879600I12500J0D01*
G01*
X622100Y-1950700D02*
G75*
G02*
X597100Y-1950700I-12500J0D01*
G01*
X597100Y-1950700D02*
G75*
G02*
X622100Y-1950700I12500J0D01*
G01*
X642400Y-2021850D02*
G75*
G02*
X617400Y-2021850I-12500J0D01*
G01*
X617400Y-2021850D02*
G75*
G02*
X642400Y-2021850I12500J0D01*
G01*
X647850Y-1879600D02*
G75*
G02*
X622850Y-1879600I-12500J0D01*
G01*
X622850Y-1879600D02*
G75*
G02*
X647850Y-1879600I12500J0D01*
G01*
X683050Y-1803400D02*
G75*
G02*
X658050Y-1803400I-12500J0D01*
G01*
X658050Y-1803400D02*
G75*
G02*
X683050Y-1803400I12500J0D01*
G01*
X692500Y-588800D02*
G75*
G02*
X667500Y-588800I-12500J0D01*
G01*
X667500Y-588800D02*
G75*
G02*
X692500Y-588800I12500J0D01*
G01*
X693200Y-2133600D02*
G75*
G02*
X668200Y-2133600I-12500J0D01*
G01*
X668200Y-2133600D02*
G75*
G02*
X693200Y-2133600I12500J0D01*
G01*
X723700Y-1722100D02*
G75*
G02*
X698700Y-1722100I-12500J0D01*
G01*
X698700Y-1722100D02*
G75*
G02*
X723700Y-1722100I12500J0D01*
G01*
X835700Y-1722100D02*
G75*
G02*
X810700Y-1722100I-12500J0D01*
G01*
X810700Y-1722100D02*
G75*
G02*
X835700Y-1722100I12500J0D01*
G01*
X924850Y-1722100D02*
G75*
G02*
X899850Y-1722100I-12500J0D01*
G01*
X899850Y-1722100D02*
G75*
G02*
X924850Y-1722100I12500J0D01*
G01*
X1013250Y-2113300D02*
G75*
G02*
X988250Y-2113300I-12500J0D01*
G01*
X988250Y-2113300D02*
G75*
G02*
X1013250Y-2113300I12500J0D01*
G01*
X1015350Y-1813450D02*
G75*
G02*
X990350Y-1813450I-12500J0D01*
G01*
X990350Y-1813450D02*
G75*
G02*
X1015350Y-1813450I12500J0D01*
G01*
X1062500Y-298600D02*
G75*
G02*
X1037500Y-298600I-12500J0D01*
G01*
X1037500Y-298600D02*
G75*
G02*
X1062500Y-298600I12500J0D01*
G01*
X1074200Y-1229350D02*
G75*
G02*
X1049200Y-1229350I-12500J0D01*
G01*
X1049200Y-1229350D02*
G75*
G02*
X1074200Y-1229350I12500J0D01*
G01*
X1074200Y-1544300D02*
G75*
G02*
X1049200Y-1544300I-12500J0D01*
G01*
X1049200Y-1544300D02*
G75*
G02*
X1074200Y-1544300I12500J0D01*
G01*
X1084400Y-1452900D02*
G75*
G02*
X1059400Y-1452900I-12500J0D01*
G01*
X1059400Y-1452900D02*
G75*
G02*
X1084400Y-1452900I12500J0D01*
G01*
X1191050Y-1879600D02*
G75*
G02*
X1166050Y-1879600I-12500J0D01*
G01*
X1166050Y-1879600D02*
G75*
G02*
X1191050Y-1879600I12500J0D01*
G01*
X1236800Y-2108200D02*
G75*
G02*
X1211800Y-2108200I-12500J0D01*
G01*
X1211800Y-2108200D02*
G75*
G02*
X1236800Y-2108200I12500J0D01*
G01*
X1292650Y-1203950D02*
G75*
G02*
X1267650Y-1203950I-12500J0D01*
G01*
X1267650Y-1203950D02*
G75*
G02*
X1292650Y-1203950I12500J0D01*
G01*
X1300550Y-1879600D02*
G75*
G02*
X1275550Y-1879600I-12500J0D01*
G01*
X1275550Y-1879600D02*
G75*
G02*
X1300550Y-1879600I12500J0D01*
G01*
X1353600Y-1107450D02*
G75*
G02*
X1328600Y-1107450I-12500J0D01*
G01*
X1328600Y-1107450D02*
G75*
G02*
X1353600Y-1107450I12500J0D01*
G01*
X1372500Y-1010000D02*
G75*
G02*
X1347500Y-1010000I-12500J0D01*
G01*
X1347500Y-1010000D02*
G75*
G02*
X1372500Y-1010000I12500J0D01*
G01*
X1394250Y-1879600D02*
G75*
G02*
X1369250Y-1879600I-12500J0D01*
G01*
X1369250Y-1879600D02*
G75*
G02*
X1394250Y-1879600I12500J0D01*
G01*
X1404400Y-2113300D02*
G75*
G02*
X1379400Y-2113300I-12500J0D01*
G01*
X1379400Y-2113300D02*
G75*
G02*
X1404400Y-2113300I12500J0D01*
G01*
X1419650Y-1356350D02*
G75*
G02*
X1394650Y-1356350I-12500J0D01*
G01*
X1394650Y-1356350D02*
G75*
G02*
X1419650Y-1356350I12500J0D01*
G01*
X1512500Y-470000D02*
G75*
G02*
X1487500Y-470000I-12500J0D01*
G01*
X1487500Y-470000D02*
G75*
G02*
X1512500Y-470000I12500J0D01*
G01*
X1517500Y-1595000D02*
G75*
G02*
X1492500Y-1595000I-12500J0D01*
G01*
X1492500Y-1595000D02*
G75*
G02*
X1517500Y-1595000I12500J0D01*
G01*
X1522500Y-790000D02*
G75*
G02*
X1497500Y-790000I-12500J0D01*
G01*
X1497500Y-790000D02*
G75*
G02*
X1522500Y-790000I12500J0D01*
G01*
X1522500Y-890000D02*
G75*
G02*
X1497500Y-890000I-12500J0D01*
G01*
X1497500Y-890000D02*
G75*
G02*
X1522500Y-890000I12500J0D01*
G01*
X1577500Y-298600D02*
G75*
G02*
X1552500Y-298600I-12500J0D01*
G01*
X1552500Y-298600D02*
G75*
G02*
X1577500Y-298600I12500J0D01*
G01*
X1582500Y-588800D02*
G75*
G02*
X1557500Y-588800I-12500J0D01*
G01*
X1557500Y-588800D02*
G75*
G02*
X1582500Y-588800I12500J0D01*
G01*
X1582500Y-790000D02*
G75*
G02*
X1557500Y-790000I-12500J0D01*
G01*
X1557500Y-790000D02*
G75*
G02*
X1582500Y-790000I12500J0D01*
G01*
X1582500Y-890000D02*
G75*
G02*
X1557500Y-890000I-12500J0D01*
G01*
X1557500Y-890000D02*
G75*
G02*
X1582500Y-890000I12500J0D01*
G01*
X1592400Y-1198900D02*
G75*
G02*
X1567400Y-1198900I-12500J0D01*
G01*
X1567400Y-1198900D02*
G75*
G02*
X1592400Y-1198900I12500J0D01*
G01*
X1592400Y-1361450D02*
G75*
G02*
X1567400Y-1361450I-12500J0D01*
G01*
X1567400Y-1361450D02*
G75*
G02*
X1592400Y-1361450I12500J0D01*
G01*
X1592400Y-1905000D02*
G75*
G02*
X1567400Y-1905000I-12500J0D01*
G01*
X1567400Y-1905000D02*
G75*
G02*
X1592400Y-1905000I12500J0D01*
G01*
X1592400Y-2042150D02*
G75*
G02*
X1567400Y-2042150I-12500J0D01*
G01*
X1567400Y-2042150D02*
G75*
G02*
X1592400Y-2042150I12500J0D01*
G01*
X1597500Y-1120000D02*
G75*
G02*
X1572500Y-1120000I-12500J0D01*
G01*
X1572500Y-1120000D02*
G75*
G02*
X1597500Y-1120000I12500J0D01*
G01*
X1668600Y-1353200D02*
G75*
G02*
X1643600Y-1353200I-12500J0D01*
G01*
X1643600Y-1353200D02*
G75*
G02*
X1668600Y-1353200I12500J0D01*
G01*
X1677500Y-370000D02*
G75*
G02*
X1652500Y-370000I-12500J0D01*
G01*
X1652500Y-370000D02*
G75*
G02*
X1677500Y-370000I12500J0D01*
G01*
X1683800Y-2047250D02*
G75*
G02*
X1658800Y-2047250I-12500J0D01*
G01*
X1658800Y-2047250D02*
G75*
G02*
X1683800Y-2047250I12500J0D01*
G01*
X1734750Y-1899900D02*
G75*
G02*
X1709750Y-1899900I-12500J0D01*
G01*
X1709750Y-1899900D02*
G75*
G02*
X1734750Y-1899900I12500J0D01*
G01*
X1747500Y-370000D02*
G75*
G02*
X1722500Y-370000I-12500J0D01*
G01*
X1722500Y-370000D02*
G75*
G02*
X1747500Y-370000I12500J0D01*
G01*
X1762500Y-670000D02*
G75*
G02*
X1737500Y-670000I-12500J0D01*
G01*
X1737500Y-670000D02*
G75*
G02*
X1762500Y-670000I12500J0D01*
G01*
X1770200Y-1783100D02*
G75*
G02*
X1745200Y-1783100I-12500J0D01*
G01*
X1745200Y-1783100D02*
G75*
G02*
X1770200Y-1783100I12500J0D01*
G01*
X1812500Y-1140000D02*
G75*
G02*
X1787500Y-1140000I-12500J0D01*
G01*
X1787500Y-1140000D02*
G75*
G02*
X1812500Y-1140000I12500J0D01*
G01*
X1812500Y-1416900D02*
G75*
G02*
X1787500Y-1416900I-12500J0D01*
G01*
X1787500Y-1416900D02*
G75*
G02*
X1812500Y-1416900I12500J0D01*
G01*
X1812500Y-1880000D02*
G75*
G02*
X1787500Y-1880000I-12500J0D01*
G01*
X1787500Y-1880000D02*
G75*
G02*
X1812500Y-1880000I12500J0D01*
G01*
X1846400Y-2026900D02*
G75*
G02*
X1821400Y-2026900I-12500J0D01*
G01*
X1821400Y-2026900D02*
G75*
G02*
X1846400Y-2026900I12500J0D01*
G01*
X1902500Y-1755000D02*
G75*
G02*
X1877500Y-1755000I-12500J0D01*
G01*
X1877500Y-1755000D02*
G75*
G02*
X1902500Y-1755000I12500J0D01*
G01*
X1965450Y-1910100D02*
G75*
G02*
X1940450Y-1910100I-12500J0D01*
G01*
X1940450Y-1910100D02*
G75*
G02*
X1965450Y-1910100I12500J0D01*
G01*
X1998800Y-1300500D02*
G75*
G02*
X1973800Y-1300500I-12500J0D01*
G01*
X1973800Y-1300500D02*
G75*
G02*
X1998800Y-1300500I12500J0D01*
G01*
X2001750Y-1441950D02*
G75*
G02*
X1976750Y-1441950I-12500J0D01*
G01*
X1976750Y-1441950D02*
G75*
G02*
X2001750Y-1441950I12500J0D01*
G01*
X2014000Y-843300D02*
G75*
G02*
X1989000Y-843300I-12500J0D01*
G01*
X1989000Y-843300D02*
G75*
G02*
X2014000Y-843300I12500J0D01*
G01*
X2045500Y-1940000D02*
G75*
G02*
X2020500Y-1940000I-12500J0D01*
G01*
X2020500Y-1940000D02*
G75*
G02*
X2045500Y-1940000I12500J0D01*
G01*
X2059750Y-1534150D02*
G75*
G02*
X2034750Y-1534150I-12500J0D01*
G01*
X2034750Y-1534150D02*
G75*
G02*
X2059750Y-1534150I12500J0D01*
G01*
X2100400Y-833100D02*
G75*
G02*
X2075400Y-833100I-12500J0D01*
G01*
X2075400Y-833100D02*
G75*
G02*
X2100400Y-833100I12500J0D01*
G01*
X2138200Y-1300350D02*
G75*
G02*
X2113200Y-1300350I-12500J0D01*
G01*
X2113200Y-1300350D02*
G75*
G02*
X2138200Y-1300350I12500J0D01*
G01*
X2138200Y-1441950D02*
G75*
G02*
X2113200Y-1441950I-12500J0D01*
G01*
X2113200Y-1441950D02*
G75*
G02*
X2138200Y-1441950I12500J0D01*
G01*
X2138200Y-1569100D02*
G75*
G02*
X2113200Y-1569100I-12500J0D01*
G01*
X2113200Y-1569100D02*
G75*
G02*
X2138200Y-1569100I12500J0D01*
G01*
X2272500Y-430000D02*
G75*
G02*
X2247500Y-430000I-12500J0D01*
G01*
X2247500Y-430000D02*
G75*
G02*
X2272500Y-430000I12500J0D01*
G01*
X2273100Y-1569700D02*
G75*
G02*
X2248100Y-1569700I-12500J0D01*
G01*
X2248100Y-1569700D02*
G75*
G02*
X2273100Y-1569700I12500J0D01*
G01*
X2278200Y-1310650D02*
G75*
G02*
X2253200Y-1310650I-12500J0D01*
G01*
X2253200Y-1310650D02*
G75*
G02*
X2278200Y-1310650I12500J0D01*
G01*
X2280100Y-1441950D02*
G75*
G02*
X2255100Y-1441950I-12500J0D01*
G01*
X2255100Y-1441950D02*
G75*
G02*
X2280100Y-1441950I12500J0D01*
G01*
X2304900Y-1778000D02*
G75*
G02*
X2279900Y-1778000I-12500J0D01*
G01*
X2279900Y-1778000D02*
G75*
G02*
X2304900Y-1778000I12500J0D01*
G01*
X2398500Y-1745550D02*
G75*
G02*
X2373500Y-1745550I-12500J0D01*
G01*
X2373500Y-1745550D02*
G75*
G02*
X2398500Y-1745550I12500J0D01*
G01*
X2420400Y-1194200D02*
G75*
G02*
X2395400Y-1194200I-12500J0D01*
G01*
X2395400Y-1194200D02*
G75*
G02*
X2420400Y-1194200I12500J0D01*
G01*
X2440750Y-370850D02*
G75*
G02*
X2415750Y-370850I-12500J0D01*
G01*
X2415750Y-370850D02*
G75*
G02*
X2440750Y-370850I12500J0D01*
G01*
X2462500Y-530000D02*
G75*
G02*
X2437500Y-530000I-12500J0D01*
G01*
X2437500Y-530000D02*
G75*
G02*
X2462500Y-530000I12500J0D01*
G01*
X2468450Y-2115550D02*
G75*
G02*
X2443450Y-2115550I-12500J0D01*
G01*
X2443450Y-2115550D02*
G75*
G02*
X2468450Y-2115550I12500J0D01*
G01*
X2477500Y-1616950D02*
G75*
G02*
X2452500Y-1616950I-12500J0D01*
G01*
X2452500Y-1616950D02*
G75*
G02*
X2477500Y-1616950I12500J0D01*
G01*
X2496600Y-1762750D02*
G75*
G02*
X2471600Y-1762750I-12500J0D01*
G01*
X2471600Y-1762750D02*
G75*
G02*
X2496600Y-1762750I12500J0D01*
G01*
X2527500Y-1900000D02*
G75*
G02*
X2502500Y-1900000I-12500J0D01*
G01*
X2502500Y-1900000D02*
G75*
G02*
X2527500Y-1900000I12500J0D01*
G01*
X2542350Y-613700D02*
G75*
G02*
X2517350Y-613700I-12500J0D01*
G01*
X2517350Y-613700D02*
G75*
G02*
X2542350Y-613700I12500J0D01*
G01*
X2562650Y-1198900D02*
G75*
G02*
X2537650Y-1198900I-12500J0D01*
G01*
X2537650Y-1198900D02*
G75*
G02*
X2562650Y-1198900I12500J0D01*
G01*
X2565200Y-939800D02*
G75*
G02*
X2540200Y-939800I-12500J0D01*
G01*
X2540200Y-939800D02*
G75*
G02*
X2565200Y-939800I12500J0D01*
G01*
X2618550Y-1803400D02*
G75*
G02*
X2593550Y-1803400I-12500J0D01*
G01*
X2593550Y-1803400D02*
G75*
G02*
X2618550Y-1803400I12500J0D01*
G01*
X2622500Y-530000D02*
G75*
G02*
X2597500Y-530000I-12500J0D01*
G01*
X2597500Y-530000D02*
G75*
G02*
X2622500Y-530000I12500J0D01*
G01*
X2654100Y-762000D02*
G75*
G02*
X2629100Y-762000I-12500J0D01*
G01*
X2629100Y-762000D02*
G75*
G02*
X2654100Y-762000I12500J0D01*
G01*
X2735400Y-1549400D02*
G75*
G02*
X2710400Y-1549400I-12500J0D01*
G01*
X2710400Y-1549400D02*
G75*
G02*
X2735400Y-1549400I12500J0D01*
G01*
X2842050Y-2113300D02*
G75*
G02*
X2817050Y-2113300I-12500J0D01*
G01*
X2817050Y-2113300D02*
G75*
G02*
X2842050Y-2113300I12500J0D01*
G01*
X2857500Y-990000D02*
G75*
G02*
X2832500Y-990000I-12500J0D01*
G01*
X2832500Y-990000D02*
G75*
G02*
X2857500Y-990000I12500J0D01*
G01*
X2857500Y-1080000D02*
G75*
G02*
X2832500Y-1080000I-12500J0D01*
G01*
X2832500Y-1080000D02*
G75*
G02*
X2857500Y-1080000I12500J0D01*
G01*
X2913200Y-944900D02*
G75*
G02*
X2888200Y-944900I-12500J0D01*
G01*
X2888200Y-944900D02*
G75*
G02*
X2913200Y-944900I12500J0D01*
G01*
X2962500Y-1080000D02*
G75*
G02*
X2937500Y-1080000I-12500J0D01*
G01*
X2937500Y-1080000D02*
G75*
G02*
X2962500Y-1080000I12500J0D01*
G01*
X3044250Y-2111000D02*
G75*
G02*
X3019250Y-2111000I-12500J0D01*
G01*
X3019250Y-2111000D02*
G75*
G02*
X3044250Y-2111000I12500J0D01*
G01*
X3076500Y-1383300D02*
G75*
G02*
X3051500Y-1383300I-12500J0D01*
G01*
X3051500Y-1383300D02*
G75*
G02*
X3076500Y-1383300I12500J0D01*
G01*
X3131600Y-1706900D02*
G75*
G02*
X3106600Y-1706900I-12500J0D01*
G01*
X3106600Y-1706900D02*
G75*
G02*
X3131600Y-1706900I12500J0D01*
G01*
X3296700Y-1761800D02*
G75*
G02*
X3271700Y-1761800I-12500J0D01*
G01*
X3271700Y-1761800D02*
G75*
G02*
X3296700Y-1761800I12500J0D01*
G01*
X3482150Y-294650D02*
G75*
G02*
X3457150Y-294650I-12500J0D01*
G01*
X3457150Y-294650D02*
G75*
G02*
X3482150Y-294650I12500J0D01*
G01*
X3507550Y-1463050D02*
G75*
G02*
X3482550Y-1463050I-12500J0D01*
G01*
X3482550Y-1463050D02*
G75*
G02*
X3507550Y-1463050I12500J0D01*
G01*
X3522800Y-523250D02*
G75*
G02*
X3497800Y-523250I-12500J0D01*
G01*
X3497800Y-523250D02*
G75*
G02*
X3522800Y-523250I12500J0D01*
G01*
X3522800Y-772150D02*
G75*
G02*
X3497800Y-772150I-12500J0D01*
G01*
X3497800Y-772150D02*
G75*
G02*
X3522800Y-772150I12500J0D01*
G01*
X3527850Y-1229350D02*
G75*
G02*
X3502850Y-1229350I-12500J0D01*
G01*
X3502850Y-1229350D02*
G75*
G02*
X3527850Y-1229350I12500J0D01*
G01*
X3543100Y-101600D02*
G75*
G02*
X3518100Y-101600I-12500J0D01*
G01*
X3518100Y-101600D02*
G75*
G02*
X3543100Y-101600I12500J0D01*
G01*
X3568500Y-970300D02*
G75*
G02*
X3543500Y-970300I-12500J0D01*
G01*
X3543500Y-970300D02*
G75*
G02*
X3568500Y-970300I12500J0D01*
G01*
X3583750Y-1666250D02*
G75*
G02*
X3558750Y-1666250I-12500J0D01*
G01*
X3558750Y-1666250D02*
G75*
G02*
X3583750Y-1666250I12500J0D01*
G01*
X3599000Y-655300D02*
G75*
G02*
X3574000Y-655300I-12500J0D01*
G01*
X3574000Y-655300D02*
G75*
G02*
X3599000Y-655300I12500J0D01*
G01*
X3691150Y-1471550D02*
G75*
G02*
X3666150Y-1471550I-12500J0D01*
G01*
X3666150Y-1471550D02*
G75*
G02*
X3691150Y-1471550I12500J0D01*
G01*
X3710750Y-822950D02*
G75*
G02*
X3685750Y-822950I-12500J0D01*
G01*
X3685750Y-822950D02*
G75*
G02*
X3710750Y-822950I12500J0D01*
G01*
X3726000Y-381000D02*
G75*
G02*
X3701000Y-381000I-12500J0D01*
G01*
X3701000Y-381000D02*
G75*
G02*
X3726000Y-381000I12500J0D01*
G01*
X3736150Y-528300D02*
G75*
G02*
X3711150Y-528300I-12500J0D01*
G01*
X3711150Y-528300D02*
G75*
G02*
X3736150Y-528300I12500J0D01*
G01*
X3802200Y-975350D02*
G75*
G02*
X3777200Y-975350I-12500J0D01*
G01*
X3777200Y-975350D02*
G75*
G02*
X3802200Y-975350I12500J0D01*
G01*
X3822500Y-1219200D02*
G75*
G02*
X3797500Y-1219200I-12500J0D01*
G01*
X3797500Y-1219200D02*
G75*
G02*
X3822500Y-1219200I12500J0D01*
G01*
X3827600Y-1468100D02*
G75*
G02*
X3802600Y-1468100I-12500J0D01*
G01*
X3802600Y-1468100D02*
G75*
G02*
X3827600Y-1468100I12500J0D01*
G01*
X3827600Y-1671300D02*
G75*
G02*
X3802600Y-1671300I-12500J0D01*
G01*
X3802600Y-1671300D02*
G75*
G02*
X3827600Y-1671300I12500J0D01*
G01*
X3842800Y-726450D02*
G75*
G02*
X3817800Y-726450I-12500J0D01*
G01*
X3817800Y-726450D02*
G75*
G02*
X3842800Y-726450I12500J0D01*
G01*
X3858050Y-309900D02*
G75*
G02*
X3833050Y-309900I-12500J0D01*
G01*
X3833050Y-309900D02*
G75*
G02*
X3858050Y-309900I12500J0D01*
G01*
X4122200Y-391150D02*
G75*
G02*
X4097200Y-391150I-12500J0D01*
G01*
X4097200Y-391150D02*
G75*
G02*
X4122200Y-391150I12500J0D01*
G01*
X4198400Y-1452900D02*
G75*
G02*
X4173400Y-1452900I-12500J0D01*
G01*
X4173400Y-1452900D02*
G75*
G02*
X4198400Y-1452900I12500J0D01*
G01*
X4239050Y-695950D02*
G75*
G02*
X4214050Y-695950I-12500J0D01*
G01*
X4214050Y-695950D02*
G75*
G02*
X4239050Y-695950I12500J0D01*
G01*
X4300000Y-1640850D02*
G75*
G02*
X4275000Y-1640850I-12500J0D01*
G01*
X4275000Y-1640850D02*
G75*
G02*
X4300000Y-1640850I12500J0D01*
G01*
X4330500Y-543550D02*
G75*
G02*
X4305500Y-543550I-12500J0D01*
G01*
X4305500Y-543550D02*
G75*
G02*
X4330500Y-543550I12500J0D01*
G01*
X4381300Y-203200D02*
G75*
G02*
X4356300Y-203200I-12500J0D01*
G01*
X4356300Y-203200D02*
G75*
G02*
X4381300Y-203200I12500J0D01*
G01*
X4401600Y-81300D02*
G75*
G02*
X4376600Y-81300I-12500J0D01*
G01*
X4376600Y-81300D02*
G75*
G02*
X4401600Y-81300I12500J0D01*
G01*
X4437200Y-345450D02*
G75*
G02*
X4412200Y-345450I-12500J0D01*
G01*
X4412200Y-345450D02*
G75*
G02*
X4437200Y-345450I12500J0D01*
G01*
X4493300Y-543950D02*
G75*
G02*
X4468300Y-543950I-12500J0D01*
G01*
X4468300Y-543950D02*
G75*
G02*
X4493300Y-543950I12500J0D01*
G01*
X4493300Y-1646400D02*
G75*
G02*
X4468300Y-1646400I-12500J0D01*
G01*
X4468300Y-1646400D02*
G75*
G02*
X4493300Y-1646400I12500J0D01*
G01*
X4589600Y-1163300D02*
G75*
G02*
X4564600Y-1163300I-12500J0D01*
G01*
X4564600Y-1163300D02*
G75*
G02*
X4589600Y-1163300I12500J0D01*
G01*
X4599750Y-2123450D02*
G75*
G02*
X4574750Y-2123450I-12500J0D01*
G01*
X4574750Y-2123450D02*
G75*
G02*
X4599750Y-2123450I12500J0D01*
G01*
X4609900Y-858500D02*
G75*
G02*
X4584900Y-858500I-12500J0D01*
G01*
X4584900Y-858500D02*
G75*
G02*
X4609900Y-858500I12500J0D01*
G01*
X4635300Y-1468100D02*
G75*
G02*
X4610300Y-1468100I-12500J0D01*
G01*
X4610300Y-1468100D02*
G75*
G02*
X4635300Y-1468100I12500J0D01*
G01*
X4701350Y-558800D02*
G75*
G02*
X4676350Y-558800I-12500J0D01*
G01*
X4676350Y-558800D02*
G75*
G02*
X4701350Y-558800I12500J0D01*
G01*
X4701350Y-731500D02*
G75*
G02*
X4676350Y-731500I-12500J0D01*
G01*
X4676350Y-731500D02*
G75*
G02*
X4701350Y-731500I12500J0D01*
G01*
X4701350Y-1356350D02*
G75*
G02*
X4676350Y-1356350I-12500J0D01*
G01*
X4676350Y-1356350D02*
G75*
G02*
X4701350Y-1356350I12500J0D01*
G01*
X4701350Y-1645900D02*
G75*
G02*
X4676350Y-1645900I-12500J0D01*
G01*
X4676350Y-1645900D02*
G75*
G02*
X4701350Y-1645900I12500J0D01*
G01*
X4716600Y-1041400D02*
G75*
G02*
X4691600Y-1041400I-12500J0D01*
G01*
X4691600Y-1041400D02*
G75*
G02*
X4716600Y-1041400I12500J0D01*
G01*
X4726750Y-2057400D02*
G75*
G02*
X4701750Y-2057400I-12500J0D01*
G01*
X4701750Y-2057400D02*
G75*
G02*
X4726750Y-2057400I12500J0D01*
G01*
X4742000Y-1838950D02*
G75*
G02*
X4717000Y-1838950I-12500J0D01*
G01*
X4717000Y-1838950D02*
G75*
G02*
X4742000Y-1838950I12500J0D01*
G01*
X123200Y-863400D02*
X123200Y-923400D01*
X93200Y-893400D02*
X153200Y-893400D01*
X153200Y-863400D02*
X93200Y-863400D01*
X93200Y-923400D02*
G75*
G02*
X93200Y-863400I0J30000D01*
G01*
X93200Y-923400D02*
X153200Y-923400D01*
X153200Y-923400D02*
G75*
G03*
X153200Y-863400I0J30000D01*
G01*
X123200Y-1728400D02*
X123200Y-1788400D01*
X93200Y-1758400D02*
X153200Y-1758400D01*
X153200Y-1728400D02*
X93200Y-1728400D01*
X93200Y-1788400D02*
G75*
G02*
X93200Y-1728400I0J30000D01*
G01*
X93200Y-1788400D02*
X153200Y-1788400D01*
X153200Y-1788400D02*
G75*
G03*
X153200Y-1728400I0J30000D01*
G01*
X543200Y-863400D02*
X543200Y-923400D01*
X513200Y-893400D02*
X573200Y-893400D01*
X588200Y-863400D02*
X498200Y-863400D01*
X498200Y-923400D02*
G75*
G02*
X498200Y-863400I0J30000D01*
G01*
X498200Y-923400D02*
X588200Y-923400D01*
X588200Y-923400D02*
G75*
G03*
X588200Y-863400I0J30000D01*
G01*
X543200Y-1728400D02*
X543200Y-1788400D01*
X513200Y-1758400D02*
X573200Y-1758400D01*
X588200Y-1728400D02*
X498200Y-1728400D01*
X498200Y-1788400D02*
G75*
G02*
X498200Y-1728400I0J30000D01*
G01*
X498200Y-1788400D02*
X588200Y-1788400D01*
X588200Y-1788400D02*
G75*
G03*
X588200Y-1728400I0J30000D01*
G01*
X359320Y-412870D02*
X359320Y-349230D01*
X295680Y-349230D01*
X295680Y-412870D01*
X359320Y-412870D01*
X359320Y-612870D02*
X359320Y-549230D01*
X295680Y-549230D01*
X295680Y-612870D01*
X359320Y-612870D01*
X2803170Y-235820D02*
X2803170Y-172180D01*
X2739530Y-172180D01*
X2739530Y-235820D01*
X2803170Y-235820D01*
X3003170Y-235820D02*
X3003170Y-172180D01*
X2939530Y-172180D01*
X2939530Y-235820D01*
X3003170Y-235820D01*
X3442000Y-2110000D02*
X3492000Y-2060000D01*
X3442000Y-2010000D01*
X3392000Y-2060000D01*
X3442000Y-2110000D01*
X3696000Y-2110000D02*
X3746000Y-2060000D01*
X3696000Y-2010000D01*
X3646000Y-2060000D01*
X3696000Y-2110000D01*
X3950000Y-2110000D02*
X4000000Y-2060000D01*
X3950000Y-2010000D01*
X3900000Y-2060000D01*
X3950000Y-2110000D01*
X4204000Y-2110000D02*
X4254000Y-2060000D01*
X4204000Y-2010000D01*
X4154000Y-2060000D01*
X4204000Y-2110000D01*
X4430050Y-775000D02*
X4480050Y-725000D01*
X4430050Y-675000D01*
X4380050Y-725000D01*
X4430050Y-775000D01*
X4430050Y-1025000D02*
X4480050Y-975000D01*
X4430050Y-925000D01*
X4380050Y-975000D01*
X4430050Y-1025000D01*
X4430050Y-1275000D02*
X4480050Y-1225000D01*
X4430050Y-1175000D01*
X4380050Y-1225000D01*
X4430050Y-1275000D01*
X4430050Y-1525000D02*
X4480050Y-1475000D01*
X4430050Y-1425000D01*
X4380050Y-1475000D01*
X4430050Y-1525000D01*
D11*
X100000Y-1900000D02*
X300000Y-2100000D01*
X300000Y-1900000D02*
X100000Y-2100000D01*
X300000Y-2000000D02*
G75*
G02*
X100000Y-2000000I-100000J0D01*
G01*
X100000Y-2000000D02*
G75*
G02*
X300000Y-2000000I100000J0D01*
G01*
X4500000Y-100000D02*
X4700000Y-300000D01*
X4700000Y-100000D02*
X4500000Y-300000D01*
X4700000Y-200000D02*
G75*
G02*
X4500000Y-200000I-100000J0D01*
G01*
X4500000Y-200000D02*
G75*
G02*
X4700000Y-200000I100000J0D01*
G01*
X248077Y-2524184D02*
X248077Y-2324184D01*
X248077Y-2324184D02*
X295696Y-2324184D01*
X295696Y-2324184D02*
X324267Y-2333708D01*
X324267Y-2333708D02*
X343315Y-2352755D01*
X343315Y-2352755D02*
X352839Y-2371803D01*
X352839Y-2371803D02*
X362362Y-2409898D01*
X362362Y-2409898D02*
X362362Y-2438470D01*
X362362Y-2438470D02*
X352839Y-2476565D01*
X352839Y-2476565D02*
X343315Y-2495612D01*
X343315Y-2495612D02*
X324267Y-2514660D01*
X324267Y-2514660D02*
X295696Y-2524184D01*
X295696Y-2524184D02*
X248077Y-2524184D01*
X448077Y-2524184D02*
X448077Y-2390850D01*
X448077Y-2428946D02*
X457601Y-2409898D01*
X457601Y-2409898D02*
X467124Y-2400374D01*
X467124Y-2400374D02*
X486172Y-2390850D01*
X486172Y-2390850D02*
X505220Y-2390850D01*
X571886Y-2524184D02*
X571886Y-2390850D01*
X571886Y-2324184D02*
X562363Y-2333708D01*
X562363Y-2333708D02*
X571886Y-2343231D01*
X571886Y-2343231D02*
X581410Y-2333708D01*
X581410Y-2333708D02*
X571886Y-2324184D01*
X571886Y-2324184D02*
X571886Y-2343231D01*
X695696Y-2524184D02*
X676648Y-2514660D01*
X676648Y-2514660D02*
X667124Y-2495612D01*
X667124Y-2495612D02*
X667124Y-2324184D01*
X800458Y-2524184D02*
X781410Y-2514660D01*
X781410Y-2514660D02*
X771886Y-2495612D01*
X771886Y-2495612D02*
X771886Y-2324184D01*
X1029029Y-2524184D02*
X1029029Y-2324184D01*
X1029029Y-2324184D02*
X1095696Y-2467041D01*
X1095696Y-2467041D02*
X1162363Y-2324184D01*
X1162363Y-2324184D02*
X1162363Y-2524184D01*
X1343315Y-2524184D02*
X1343315Y-2419422D01*
X1343315Y-2419422D02*
X1333791Y-2400374D01*
X1333791Y-2400374D02*
X1314744Y-2390850D01*
X1314744Y-2390850D02*
X1276648Y-2390850D01*
X1276648Y-2390850D02*
X1257601Y-2400374D01*
X1343315Y-2514660D02*
X1324267Y-2524184D01*
X1324267Y-2524184D02*
X1276648Y-2524184D01*
X1276648Y-2524184D02*
X1257601Y-2514660D01*
X1257601Y-2514660D02*
X1248077Y-2495612D01*
X1248077Y-2495612D02*
X1248077Y-2476565D01*
X1248077Y-2476565D02*
X1257601Y-2457517D01*
X1257601Y-2457517D02*
X1276648Y-2447993D01*
X1276648Y-2447993D02*
X1324267Y-2447993D01*
X1324267Y-2447993D02*
X1343315Y-2438470D01*
X1438553Y-2390850D02*
X1438553Y-2590850D01*
X1438553Y-2400374D02*
X1457601Y-2390850D01*
X1457601Y-2390850D02*
X1495696Y-2390850D01*
X1495696Y-2390850D02*
X1514743Y-2400374D01*
X1514743Y-2400374D02*
X1524267Y-2409898D01*
X1524267Y-2409898D02*
X1533791Y-2428946D01*
X1533791Y-2428946D02*
X1533791Y-2486089D01*
X1533791Y-2486089D02*
X1524267Y-2505136D01*
X1524267Y-2505136D02*
X1514743Y-2514660D01*
X1514743Y-2514660D02*
X1495696Y-2524184D01*
X1495696Y-2524184D02*
X1457601Y-2524184D01*
X1457601Y-2524184D02*
X1438553Y-2514660D01*
X1619505Y-2505136D02*
X1629029Y-2514660D01*
X1629029Y-2514660D02*
X1619505Y-2524184D01*
X1619505Y-2524184D02*
X1609982Y-2514660D01*
X1609982Y-2514660D02*
X1619505Y-2505136D01*
X1619505Y-2505136D02*
X1619505Y-2524184D01*
X1619505Y-2400374D02*
X1629029Y-2409898D01*
X1629029Y-2409898D02*
X1619505Y-2419422D01*
X1619505Y-2419422D02*
X1609982Y-2409898D01*
X1609982Y-2409898D02*
X1619505Y-2400374D01*
X1619505Y-2400374D02*
X1619505Y-2419422D01*
D12*
X-32700Y-2842700D02*
X-12700Y-2862700D01*
X-12700Y-2842700D02*
X-32700Y-2862700D01*
D11*
X286172Y-2744184D02*
X305220Y-2744184D01*
X305220Y-2744184D02*
X324267Y-2753708D01*
X324267Y-2753708D02*
X333791Y-2763231D01*
X333791Y-2763231D02*
X343315Y-2782279D01*
X343315Y-2782279D02*
X352839Y-2820374D01*
X352839Y-2820374D02*
X352839Y-2867993D01*
X352839Y-2867993D02*
X343315Y-2906088D01*
X343315Y-2906088D02*
X333791Y-2925136D01*
X333791Y-2925136D02*
X324267Y-2934660D01*
X324267Y-2934660D02*
X305220Y-2944184D01*
X305220Y-2944184D02*
X286172Y-2944184D01*
X286172Y-2944184D02*
X267124Y-2934660D01*
X267124Y-2934660D02*
X257601Y-2925136D01*
X257601Y-2925136D02*
X248077Y-2906088D01*
X248077Y-2906088D02*
X238553Y-2867993D01*
X238553Y-2867993D02*
X238553Y-2820374D01*
X238553Y-2820374D02*
X248077Y-2782279D01*
X248077Y-2782279D02*
X257601Y-2763231D01*
X257601Y-2763231D02*
X267124Y-2753708D01*
X267124Y-2753708D02*
X286172Y-2744184D01*
X438553Y-2925136D02*
X448077Y-2934660D01*
X448077Y-2934660D02*
X438553Y-2944184D01*
X438553Y-2944184D02*
X429029Y-2934660D01*
X429029Y-2934660D02*
X438553Y-2925136D01*
X438553Y-2925136D02*
X438553Y-2944184D01*
X524267Y-2763231D02*
X533791Y-2753708D01*
X533791Y-2753708D02*
X552839Y-2744184D01*
X552839Y-2744184D02*
X600458Y-2744184D01*
X600458Y-2744184D02*
X619505Y-2753708D01*
X619505Y-2753708D02*
X629029Y-2763231D01*
X629029Y-2763231D02*
X638553Y-2782279D01*
X638553Y-2782279D02*
X638553Y-2801327D01*
X638553Y-2801327D02*
X629029Y-2829898D01*
X629029Y-2829898D02*
X514743Y-2944184D01*
X514743Y-2944184D02*
X638553Y-2944184D01*
X762362Y-2744184D02*
X781410Y-2744184D01*
X781410Y-2744184D02*
X800458Y-2753708D01*
X800458Y-2753708D02*
X809982Y-2763231D01*
X809982Y-2763231D02*
X819505Y-2782279D01*
X819505Y-2782279D02*
X829029Y-2820374D01*
X829029Y-2820374D02*
X829029Y-2867993D01*
X829029Y-2867993D02*
X819505Y-2906088D01*
X819505Y-2906088D02*
X809982Y-2925136D01*
X809982Y-2925136D02*
X800458Y-2934660D01*
X800458Y-2934660D02*
X781410Y-2944184D01*
X781410Y-2944184D02*
X762362Y-2944184D01*
X762362Y-2944184D02*
X743315Y-2934660D01*
X743315Y-2934660D02*
X733791Y-2925136D01*
X733791Y-2925136D02*
X724267Y-2906088D01*
X724267Y-2906088D02*
X714743Y-2867993D01*
X714743Y-2867993D02*
X714743Y-2820374D01*
X714743Y-2820374D02*
X724267Y-2782279D01*
X724267Y-2782279D02*
X733791Y-2763231D01*
X733791Y-2763231D02*
X743315Y-2753708D01*
X743315Y-2753708D02*
X762362Y-2744184D01*
X952839Y-2744184D02*
X971886Y-2744184D01*
X971886Y-2744184D02*
X990934Y-2753708D01*
X990934Y-2753708D02*
X1000458Y-2763231D01*
X1000458Y-2763231D02*
X1009982Y-2782279D01*
X1009982Y-2782279D02*
X1019505Y-2820374D01*
X1019505Y-2820374D02*
X1019505Y-2867993D01*
X1019505Y-2867993D02*
X1009982Y-2906088D01*
X1009982Y-2906088D02*
X1000458Y-2925136D01*
X1000458Y-2925136D02*
X990934Y-2934660D01*
X990934Y-2934660D02*
X971886Y-2944184D01*
X971886Y-2944184D02*
X952839Y-2944184D01*
X952839Y-2944184D02*
X933791Y-2934660D01*
X933791Y-2934660D02*
X924267Y-2925136D01*
X924267Y-2925136D02*
X914743Y-2906088D01*
X914743Y-2906088D02*
X905220Y-2867993D01*
X905220Y-2867993D02*
X905220Y-2820374D01*
X905220Y-2820374D02*
X914743Y-2782279D01*
X914743Y-2782279D02*
X924267Y-2763231D01*
X924267Y-2763231D02*
X933791Y-2753708D01*
X933791Y-2753708D02*
X952839Y-2744184D01*
X1105220Y-2944184D02*
X1105220Y-2810850D01*
X1105220Y-2829898D02*
X1114744Y-2820374D01*
X1114744Y-2820374D02*
X1133791Y-2810850D01*
X1133791Y-2810850D02*
X1162363Y-2810850D01*
X1162363Y-2810850D02*
X1181410Y-2820374D01*
X1181410Y-2820374D02*
X1190934Y-2839422D01*
X1190934Y-2839422D02*
X1190934Y-2944184D01*
X1190934Y-2839422D02*
X1200458Y-2820374D01*
X1200458Y-2820374D02*
X1219505Y-2810850D01*
X1219505Y-2810850D02*
X1248077Y-2810850D01*
X1248077Y-2810850D02*
X1267125Y-2820374D01*
X1267125Y-2820374D02*
X1276648Y-2839422D01*
X1276648Y-2839422D02*
X1276648Y-2944184D01*
X1371886Y-2944184D02*
X1371886Y-2810850D01*
X1371886Y-2829898D02*
X1381410Y-2820374D01*
X1381410Y-2820374D02*
X1400458Y-2810850D01*
X1400458Y-2810850D02*
X1429029Y-2810850D01*
X1429029Y-2810850D02*
X1448077Y-2820374D01*
X1448077Y-2820374D02*
X1457601Y-2839422D01*
X1457601Y-2839422D02*
X1457601Y-2944184D01*
X1457601Y-2839422D02*
X1467124Y-2820374D01*
X1467124Y-2820374D02*
X1486172Y-2810850D01*
X1486172Y-2810850D02*
X1514743Y-2810850D01*
X1514743Y-2810850D02*
X1533791Y-2820374D01*
X1533791Y-2820374D02*
X1543315Y-2839422D01*
X1543315Y-2839422D02*
X1543315Y-2944184D01*
X1933791Y-2734660D02*
X1762363Y-2991803D01*
X2190934Y-2744184D02*
X2209982Y-2744184D01*
X2209982Y-2744184D02*
X2229029Y-2753708D01*
X2229029Y-2753708D02*
X2238553Y-2763231D01*
X2238553Y-2763231D02*
X2248077Y-2782279D01*
X2248077Y-2782279D02*
X2257601Y-2820374D01*
X2257601Y-2820374D02*
X2257601Y-2867993D01*
X2257601Y-2867993D02*
X2248077Y-2906088D01*
X2248077Y-2906088D02*
X2238553Y-2925136D01*
X2238553Y-2925136D02*
X2229029Y-2934660D01*
X2229029Y-2934660D02*
X2209982Y-2944184D01*
X2209982Y-2944184D02*
X2190934Y-2944184D01*
X2190934Y-2944184D02*
X2171887Y-2934660D01*
X2171887Y-2934660D02*
X2162363Y-2925136D01*
X2162363Y-2925136D02*
X2152839Y-2906088D01*
X2152839Y-2906088D02*
X2143315Y-2867993D01*
X2143315Y-2867993D02*
X2143315Y-2820374D01*
X2143315Y-2820374D02*
X2152839Y-2782279D01*
X2152839Y-2782279D02*
X2162363Y-2763231D01*
X2162363Y-2763231D02*
X2171887Y-2753708D01*
X2171887Y-2753708D02*
X2190934Y-2744184D01*
X2343315Y-2925136D02*
X2352839Y-2934660D01*
X2352839Y-2934660D02*
X2343315Y-2944184D01*
X2343315Y-2944184D02*
X2333791Y-2934660D01*
X2333791Y-2934660D02*
X2343315Y-2925136D01*
X2343315Y-2925136D02*
X2343315Y-2944184D01*
X2476648Y-2744184D02*
X2495696Y-2744184D01*
X2495696Y-2744184D02*
X2514744Y-2753708D01*
X2514744Y-2753708D02*
X2524268Y-2763231D01*
X2524268Y-2763231D02*
X2533791Y-2782279D01*
X2533791Y-2782279D02*
X2543315Y-2820374D01*
X2543315Y-2820374D02*
X2543315Y-2867993D01*
X2543315Y-2867993D02*
X2533791Y-2906088D01*
X2533791Y-2906088D02*
X2524268Y-2925136D01*
X2524268Y-2925136D02*
X2514744Y-2934660D01*
X2514744Y-2934660D02*
X2495696Y-2944184D01*
X2495696Y-2944184D02*
X2476648Y-2944184D01*
X2476648Y-2944184D02*
X2457601Y-2934660D01*
X2457601Y-2934660D02*
X2448077Y-2925136D01*
X2448077Y-2925136D02*
X2438553Y-2906088D01*
X2438553Y-2906088D02*
X2429029Y-2867993D01*
X2429029Y-2867993D02*
X2429029Y-2820374D01*
X2429029Y-2820374D02*
X2438553Y-2782279D01*
X2438553Y-2782279D02*
X2448077Y-2763231D01*
X2448077Y-2763231D02*
X2457601Y-2753708D01*
X2457601Y-2753708D02*
X2476648Y-2744184D01*
X2667125Y-2744184D02*
X2686172Y-2744184D01*
X2686172Y-2744184D02*
X2705220Y-2753708D01*
X2705220Y-2753708D02*
X2714744Y-2763231D01*
X2714744Y-2763231D02*
X2724268Y-2782279D01*
X2724268Y-2782279D02*
X2733791Y-2820374D01*
X2733791Y-2820374D02*
X2733791Y-2867993D01*
X2733791Y-2867993D02*
X2724268Y-2906088D01*
X2724268Y-2906088D02*
X2714744Y-2925136D01*
X2714744Y-2925136D02*
X2705220Y-2934660D01*
X2705220Y-2934660D02*
X2686172Y-2944184D01*
X2686172Y-2944184D02*
X2667125Y-2944184D01*
X2667125Y-2944184D02*
X2648077Y-2934660D01*
X2648077Y-2934660D02*
X2638553Y-2925136D01*
X2638553Y-2925136D02*
X2629029Y-2906088D01*
X2629029Y-2906088D02*
X2619506Y-2867993D01*
X2619506Y-2867993D02*
X2619506Y-2820374D01*
X2619506Y-2820374D02*
X2629029Y-2782279D01*
X2629029Y-2782279D02*
X2638553Y-2763231D01*
X2638553Y-2763231D02*
X2648077Y-2753708D01*
X2648077Y-2753708D02*
X2667125Y-2744184D01*
X2800458Y-2744184D02*
X2933791Y-2744184D01*
X2933791Y-2744184D02*
X2848077Y-2944184D01*
X3019506Y-2944184D02*
X3057601Y-2944184D01*
X3057601Y-2944184D02*
X3076648Y-2934660D01*
X3076648Y-2934660D02*
X3086172Y-2925136D01*
X3086172Y-2925136D02*
X3105220Y-2896565D01*
X3105220Y-2896565D02*
X3114744Y-2858469D01*
X3114744Y-2858469D02*
X3114744Y-2782279D01*
X3114744Y-2782279D02*
X3105220Y-2763231D01*
X3105220Y-2763231D02*
X3095696Y-2753708D01*
X3095696Y-2753708D02*
X3076648Y-2744184D01*
X3076648Y-2744184D02*
X3038553Y-2744184D01*
X3038553Y-2744184D02*
X3019506Y-2753708D01*
X3019506Y-2753708D02*
X3009982Y-2763231D01*
X3009982Y-2763231D02*
X3000458Y-2782279D01*
X3000458Y-2782279D02*
X3000458Y-2829898D01*
X3000458Y-2829898D02*
X3009982Y-2848946D01*
X3009982Y-2848946D02*
X3019506Y-2858469D01*
X3019506Y-2858469D02*
X3038553Y-2867993D01*
X3038553Y-2867993D02*
X3076648Y-2867993D01*
X3076648Y-2867993D02*
X3095696Y-2858469D01*
X3095696Y-2858469D02*
X3105220Y-2848946D01*
X3105220Y-2848946D02*
X3114744Y-2829898D01*
X3190934Y-2744184D02*
X3190934Y-2782279D01*
X3267125Y-2744184D02*
X3267125Y-2782279D01*
X3562363Y-3020374D02*
X3552839Y-3010850D01*
X3552839Y-3010850D02*
X3533791Y-2982279D01*
X3533791Y-2982279D02*
X3524268Y-2963231D01*
X3524268Y-2963231D02*
X3514744Y-2934660D01*
X3514744Y-2934660D02*
X3505220Y-2887041D01*
X3505220Y-2887041D02*
X3505220Y-2848946D01*
X3505220Y-2848946D02*
X3514744Y-2801327D01*
X3514744Y-2801327D02*
X3524268Y-2772755D01*
X3524268Y-2772755D02*
X3533791Y-2753708D01*
X3533791Y-2753708D02*
X3552839Y-2725136D01*
X3552839Y-2725136D02*
X3562363Y-2715612D01*
X3743315Y-2944184D02*
X3629029Y-2944184D01*
X3686172Y-2944184D02*
X3686172Y-2744184D01*
X3686172Y-2744184D02*
X3667125Y-2772755D01*
X3667125Y-2772755D02*
X3648077Y-2791803D01*
X3648077Y-2791803D02*
X3629029Y-2801327D01*
X3981410Y-2944184D02*
X3981410Y-2744184D01*
X4067125Y-2944184D02*
X4067125Y-2839422D01*
X4067125Y-2839422D02*
X4057601Y-2820374D01*
X4057601Y-2820374D02*
X4038553Y-2810850D01*
X4038553Y-2810850D02*
X4009982Y-2810850D01*
X4009982Y-2810850D02*
X3990934Y-2820374D01*
X3990934Y-2820374D02*
X3981410Y-2829898D01*
X4190934Y-2944184D02*
X4171887Y-2934660D01*
X4171887Y-2934660D02*
X4162363Y-2925136D01*
X4162363Y-2925136D02*
X4152839Y-2906088D01*
X4152839Y-2906088D02*
X4152839Y-2848946D01*
X4152839Y-2848946D02*
X4162363Y-2829898D01*
X4162363Y-2829898D02*
X4171887Y-2820374D01*
X4171887Y-2820374D02*
X4190934Y-2810850D01*
X4190934Y-2810850D02*
X4219506Y-2810850D01*
X4219506Y-2810850D02*
X4238553Y-2820374D01*
X4238553Y-2820374D02*
X4248077Y-2829898D01*
X4248077Y-2829898D02*
X4257601Y-2848946D01*
X4257601Y-2848946D02*
X4257601Y-2906088D01*
X4257601Y-2906088D02*
X4248077Y-2925136D01*
X4248077Y-2925136D02*
X4238553Y-2934660D01*
X4238553Y-2934660D02*
X4219506Y-2944184D01*
X4219506Y-2944184D02*
X4190934Y-2944184D01*
X4371887Y-2944184D02*
X4352839Y-2934660D01*
X4352839Y-2934660D02*
X4343315Y-2915612D01*
X4343315Y-2915612D02*
X4343315Y-2744184D01*
X4524268Y-2934660D02*
X4505220Y-2944184D01*
X4505220Y-2944184D02*
X4467125Y-2944184D01*
X4467125Y-2944184D02*
X4448077Y-2934660D01*
X4448077Y-2934660D02*
X4438553Y-2915612D01*
X4438553Y-2915612D02*
X4438553Y-2839422D01*
X4438553Y-2839422D02*
X4448077Y-2820374D01*
X4448077Y-2820374D02*
X4467125Y-2810850D01*
X4467125Y-2810850D02*
X4505220Y-2810850D01*
X4505220Y-2810850D02*
X4524268Y-2820374D01*
X4524268Y-2820374D02*
X4533792Y-2839422D01*
X4533792Y-2839422D02*
X4533792Y-2858469D01*
X4533792Y-2858469D02*
X4438553Y-2877517D01*
X4600458Y-3020374D02*
X4609982Y-3010850D01*
X4609982Y-3010850D02*
X4629030Y-2982279D01*
X4629030Y-2982279D02*
X4638553Y-2963231D01*
X4638553Y-2963231D02*
X4648077Y-2934660D01*
X4648077Y-2934660D02*
X4657601Y-2887041D01*
X4657601Y-2887041D02*
X4657601Y-2848946D01*
X4657601Y-2848946D02*
X4648077Y-2801327D01*
X4648077Y-2801327D02*
X4638553Y-2772755D01*
X4638553Y-2772755D02*
X4629030Y-2753708D01*
X4629030Y-2753708D02*
X4609982Y-2725136D01*
X4609982Y-2725136D02*
X4600458Y-2715612D01*
D12*
X-12700Y-3116700D02*
G75*
G02*
X-37700Y-3116700I-12500J0D01*
G01*
X-37700Y-3116700D02*
G75*
G02*
X-12700Y-3116700I12500J0D01*
G01*
D11*
X286172Y-3008184D02*
X305220Y-3008184D01*
X305220Y-3008184D02*
X324267Y-3017708D01*
X324267Y-3017708D02*
X333791Y-3027231D01*
X333791Y-3027231D02*
X343315Y-3046279D01*
X343315Y-3046279D02*
X352839Y-3084374D01*
X352839Y-3084374D02*
X352839Y-3131993D01*
X352839Y-3131993D02*
X343315Y-3170088D01*
X343315Y-3170088D02*
X333791Y-3189136D01*
X333791Y-3189136D02*
X324267Y-3198660D01*
X324267Y-3198660D02*
X305220Y-3208184D01*
X305220Y-3208184D02*
X286172Y-3208184D01*
X286172Y-3208184D02*
X267124Y-3198660D01*
X267124Y-3198660D02*
X257601Y-3189136D01*
X257601Y-3189136D02*
X248077Y-3170088D01*
X248077Y-3170088D02*
X238553Y-3131993D01*
X238553Y-3131993D02*
X238553Y-3084374D01*
X238553Y-3084374D02*
X248077Y-3046279D01*
X248077Y-3046279D02*
X257601Y-3027231D01*
X257601Y-3027231D02*
X267124Y-3017708D01*
X267124Y-3017708D02*
X286172Y-3008184D01*
X438553Y-3189136D02*
X448077Y-3198660D01*
X448077Y-3198660D02*
X438553Y-3208184D01*
X438553Y-3208184D02*
X429029Y-3198660D01*
X429029Y-3198660D02*
X438553Y-3189136D01*
X438553Y-3189136D02*
X438553Y-3208184D01*
X524267Y-3027231D02*
X533791Y-3017708D01*
X533791Y-3017708D02*
X552839Y-3008184D01*
X552839Y-3008184D02*
X600458Y-3008184D01*
X600458Y-3008184D02*
X619505Y-3017708D01*
X619505Y-3017708D02*
X629029Y-3027231D01*
X629029Y-3027231D02*
X638553Y-3046279D01*
X638553Y-3046279D02*
X638553Y-3065327D01*
X638553Y-3065327D02*
X629029Y-3093898D01*
X629029Y-3093898D02*
X514743Y-3208184D01*
X514743Y-3208184D02*
X638553Y-3208184D01*
X819505Y-3008184D02*
X724267Y-3008184D01*
X724267Y-3008184D02*
X714743Y-3103422D01*
X714743Y-3103422D02*
X724267Y-3093898D01*
X724267Y-3093898D02*
X743315Y-3084374D01*
X743315Y-3084374D02*
X790934Y-3084374D01*
X790934Y-3084374D02*
X809982Y-3093898D01*
X809982Y-3093898D02*
X819505Y-3103422D01*
X819505Y-3103422D02*
X829029Y-3122469D01*
X829029Y-3122469D02*
X829029Y-3170088D01*
X829029Y-3170088D02*
X819505Y-3189136D01*
X819505Y-3189136D02*
X809982Y-3198660D01*
X809982Y-3198660D02*
X790934Y-3208184D01*
X790934Y-3208184D02*
X743315Y-3208184D01*
X743315Y-3208184D02*
X724267Y-3198660D01*
X724267Y-3198660D02*
X714743Y-3189136D01*
X952839Y-3008184D02*
X971886Y-3008184D01*
X971886Y-3008184D02*
X990934Y-3017708D01*
X990934Y-3017708D02*
X1000458Y-3027231D01*
X1000458Y-3027231D02*
X1009982Y-3046279D01*
X1009982Y-3046279D02*
X1019505Y-3084374D01*
X1019505Y-3084374D02*
X1019505Y-3131993D01*
X1019505Y-3131993D02*
X1009982Y-3170088D01*
X1009982Y-3170088D02*
X1000458Y-3189136D01*
X1000458Y-3189136D02*
X990934Y-3198660D01*
X990934Y-3198660D02*
X971886Y-3208184D01*
X971886Y-3208184D02*
X952839Y-3208184D01*
X952839Y-3208184D02*
X933791Y-3198660D01*
X933791Y-3198660D02*
X924267Y-3189136D01*
X924267Y-3189136D02*
X914743Y-3170088D01*
X914743Y-3170088D02*
X905220Y-3131993D01*
X905220Y-3131993D02*
X905220Y-3084374D01*
X905220Y-3084374D02*
X914743Y-3046279D01*
X914743Y-3046279D02*
X924267Y-3027231D01*
X924267Y-3027231D02*
X933791Y-3017708D01*
X933791Y-3017708D02*
X952839Y-3008184D01*
X1105220Y-3208184D02*
X1105220Y-3074850D01*
X1105220Y-3093898D02*
X1114744Y-3084374D01*
X1114744Y-3084374D02*
X1133791Y-3074850D01*
X1133791Y-3074850D02*
X1162363Y-3074850D01*
X1162363Y-3074850D02*
X1181410Y-3084374D01*
X1181410Y-3084374D02*
X1190934Y-3103422D01*
X1190934Y-3103422D02*
X1190934Y-3208184D01*
X1190934Y-3103422D02*
X1200458Y-3084374D01*
X1200458Y-3084374D02*
X1219505Y-3074850D01*
X1219505Y-3074850D02*
X1248077Y-3074850D01*
X1248077Y-3074850D02*
X1267125Y-3084374D01*
X1267125Y-3084374D02*
X1276648Y-3103422D01*
X1276648Y-3103422D02*
X1276648Y-3208184D01*
X1371886Y-3208184D02*
X1371886Y-3074850D01*
X1371886Y-3093898D02*
X1381410Y-3084374D01*
X1381410Y-3084374D02*
X1400458Y-3074850D01*
X1400458Y-3074850D02*
X1429029Y-3074850D01*
X1429029Y-3074850D02*
X1448077Y-3084374D01*
X1448077Y-3084374D02*
X1457601Y-3103422D01*
X1457601Y-3103422D02*
X1457601Y-3208184D01*
X1457601Y-3103422D02*
X1467124Y-3084374D01*
X1467124Y-3084374D02*
X1486172Y-3074850D01*
X1486172Y-3074850D02*
X1514743Y-3074850D01*
X1514743Y-3074850D02*
X1533791Y-3084374D01*
X1533791Y-3084374D02*
X1543315Y-3103422D01*
X1543315Y-3103422D02*
X1543315Y-3208184D01*
X1933791Y-2998660D02*
X1762363Y-3255803D01*
X2190934Y-3008184D02*
X2209982Y-3008184D01*
X2209982Y-3008184D02*
X2229029Y-3017708D01*
X2229029Y-3017708D02*
X2238553Y-3027231D01*
X2238553Y-3027231D02*
X2248077Y-3046279D01*
X2248077Y-3046279D02*
X2257601Y-3084374D01*
X2257601Y-3084374D02*
X2257601Y-3131993D01*
X2257601Y-3131993D02*
X2248077Y-3170088D01*
X2248077Y-3170088D02*
X2238553Y-3189136D01*
X2238553Y-3189136D02*
X2229029Y-3198660D01*
X2229029Y-3198660D02*
X2209982Y-3208184D01*
X2209982Y-3208184D02*
X2190934Y-3208184D01*
X2190934Y-3208184D02*
X2171887Y-3198660D01*
X2171887Y-3198660D02*
X2162363Y-3189136D01*
X2162363Y-3189136D02*
X2152839Y-3170088D01*
X2152839Y-3170088D02*
X2143315Y-3131993D01*
X2143315Y-3131993D02*
X2143315Y-3084374D01*
X2143315Y-3084374D02*
X2152839Y-3046279D01*
X2152839Y-3046279D02*
X2162363Y-3027231D01*
X2162363Y-3027231D02*
X2171887Y-3017708D01*
X2171887Y-3017708D02*
X2190934Y-3008184D01*
X2343315Y-3189136D02*
X2352839Y-3198660D01*
X2352839Y-3198660D02*
X2343315Y-3208184D01*
X2343315Y-3208184D02*
X2333791Y-3198660D01*
X2333791Y-3198660D02*
X2343315Y-3189136D01*
X2343315Y-3189136D02*
X2343315Y-3208184D01*
X2476648Y-3008184D02*
X2495696Y-3008184D01*
X2495696Y-3008184D02*
X2514744Y-3017708D01*
X2514744Y-3017708D02*
X2524268Y-3027231D01*
X2524268Y-3027231D02*
X2533791Y-3046279D01*
X2533791Y-3046279D02*
X2543315Y-3084374D01*
X2543315Y-3084374D02*
X2543315Y-3131993D01*
X2543315Y-3131993D02*
X2533791Y-3170088D01*
X2533791Y-3170088D02*
X2524268Y-3189136D01*
X2524268Y-3189136D02*
X2514744Y-3198660D01*
X2514744Y-3198660D02*
X2495696Y-3208184D01*
X2495696Y-3208184D02*
X2476648Y-3208184D01*
X2476648Y-3208184D02*
X2457601Y-3198660D01*
X2457601Y-3198660D02*
X2448077Y-3189136D01*
X2448077Y-3189136D02*
X2438553Y-3170088D01*
X2438553Y-3170088D02*
X2429029Y-3131993D01*
X2429029Y-3131993D02*
X2429029Y-3084374D01*
X2429029Y-3084374D02*
X2438553Y-3046279D01*
X2438553Y-3046279D02*
X2448077Y-3027231D01*
X2448077Y-3027231D02*
X2457601Y-3017708D01*
X2457601Y-3017708D02*
X2476648Y-3008184D01*
X2667125Y-3008184D02*
X2686172Y-3008184D01*
X2686172Y-3008184D02*
X2705220Y-3017708D01*
X2705220Y-3017708D02*
X2714744Y-3027231D01*
X2714744Y-3027231D02*
X2724268Y-3046279D01*
X2724268Y-3046279D02*
X2733791Y-3084374D01*
X2733791Y-3084374D02*
X2733791Y-3131993D01*
X2733791Y-3131993D02*
X2724268Y-3170088D01*
X2724268Y-3170088D02*
X2714744Y-3189136D01*
X2714744Y-3189136D02*
X2705220Y-3198660D01*
X2705220Y-3198660D02*
X2686172Y-3208184D01*
X2686172Y-3208184D02*
X2667125Y-3208184D01*
X2667125Y-3208184D02*
X2648077Y-3198660D01*
X2648077Y-3198660D02*
X2638553Y-3189136D01*
X2638553Y-3189136D02*
X2629029Y-3170088D01*
X2629029Y-3170088D02*
X2619506Y-3131993D01*
X2619506Y-3131993D02*
X2619506Y-3084374D01*
X2619506Y-3084374D02*
X2629029Y-3046279D01*
X2629029Y-3046279D02*
X2638553Y-3027231D01*
X2638553Y-3027231D02*
X2648077Y-3017708D01*
X2648077Y-3017708D02*
X2667125Y-3008184D01*
X2829029Y-3208184D02*
X2867125Y-3208184D01*
X2867125Y-3208184D02*
X2886172Y-3198660D01*
X2886172Y-3198660D02*
X2895696Y-3189136D01*
X2895696Y-3189136D02*
X2914744Y-3160565D01*
X2914744Y-3160565D02*
X2924267Y-3122469D01*
X2924267Y-3122469D02*
X2924267Y-3046279D01*
X2924267Y-3046279D02*
X2914744Y-3027231D01*
X2914744Y-3027231D02*
X2905220Y-3017708D01*
X2905220Y-3017708D02*
X2886172Y-3008184D01*
X2886172Y-3008184D02*
X2848077Y-3008184D01*
X2848077Y-3008184D02*
X2829029Y-3017708D01*
X2829029Y-3017708D02*
X2819506Y-3027231D01*
X2819506Y-3027231D02*
X2809982Y-3046279D01*
X2809982Y-3046279D02*
X2809982Y-3093898D01*
X2809982Y-3093898D02*
X2819506Y-3112946D01*
X2819506Y-3112946D02*
X2829029Y-3122469D01*
X2829029Y-3122469D02*
X2848077Y-3131993D01*
X2848077Y-3131993D02*
X2886172Y-3131993D01*
X2886172Y-3131993D02*
X2905220Y-3122469D01*
X2905220Y-3122469D02*
X2914744Y-3112946D01*
X2914744Y-3112946D02*
X2924267Y-3093898D01*
X3038553Y-3093898D02*
X3019506Y-3084374D01*
X3019506Y-3084374D02*
X3009982Y-3074850D01*
X3009982Y-3074850D02*
X3000458Y-3055803D01*
X3000458Y-3055803D02*
X3000458Y-3046279D01*
X3000458Y-3046279D02*
X3009982Y-3027231D01*
X3009982Y-3027231D02*
X3019506Y-3017708D01*
X3019506Y-3017708D02*
X3038553Y-3008184D01*
X3038553Y-3008184D02*
X3076648Y-3008184D01*
X3076648Y-3008184D02*
X3095696Y-3017708D01*
X3095696Y-3017708D02*
X3105220Y-3027231D01*
X3105220Y-3027231D02*
X3114744Y-3046279D01*
X3114744Y-3046279D02*
X3114744Y-3055803D01*
X3114744Y-3055803D02*
X3105220Y-3074850D01*
X3105220Y-3074850D02*
X3095696Y-3084374D01*
X3095696Y-3084374D02*
X3076648Y-3093898D01*
X3076648Y-3093898D02*
X3038553Y-3093898D01*
X3038553Y-3093898D02*
X3019506Y-3103422D01*
X3019506Y-3103422D02*
X3009982Y-3112946D01*
X3009982Y-3112946D02*
X3000458Y-3131993D01*
X3000458Y-3131993D02*
X3000458Y-3170088D01*
X3000458Y-3170088D02*
X3009982Y-3189136D01*
X3009982Y-3189136D02*
X3019506Y-3198660D01*
X3019506Y-3198660D02*
X3038553Y-3208184D01*
X3038553Y-3208184D02*
X3076648Y-3208184D01*
X3076648Y-3208184D02*
X3095696Y-3198660D01*
X3095696Y-3198660D02*
X3105220Y-3189136D01*
X3105220Y-3189136D02*
X3114744Y-3170088D01*
X3114744Y-3170088D02*
X3114744Y-3131993D01*
X3114744Y-3131993D02*
X3105220Y-3112946D01*
X3105220Y-3112946D02*
X3095696Y-3103422D01*
X3095696Y-3103422D02*
X3076648Y-3093898D01*
X3190934Y-3008184D02*
X3190934Y-3046279D01*
X3267125Y-3008184D02*
X3267125Y-3046279D01*
X3562363Y-3284374D02*
X3552839Y-3274850D01*
X3552839Y-3274850D02*
X3533791Y-3246279D01*
X3533791Y-3246279D02*
X3524268Y-3227231D01*
X3524268Y-3227231D02*
X3514744Y-3198660D01*
X3514744Y-3198660D02*
X3505220Y-3151041D01*
X3505220Y-3151041D02*
X3505220Y-3112946D01*
X3505220Y-3112946D02*
X3514744Y-3065327D01*
X3514744Y-3065327D02*
X3524268Y-3036755D01*
X3524268Y-3036755D02*
X3533791Y-3017708D01*
X3533791Y-3017708D02*
X3552839Y-2989136D01*
X3552839Y-2989136D02*
X3562363Y-2979612D01*
X3743315Y-3208184D02*
X3629029Y-3208184D01*
X3686172Y-3208184D02*
X3686172Y-3008184D01*
X3686172Y-3008184D02*
X3667125Y-3036755D01*
X3667125Y-3036755D02*
X3648077Y-3055803D01*
X3648077Y-3055803D02*
X3629029Y-3065327D01*
X3914744Y-3074850D02*
X3914744Y-3208184D01*
X3867125Y-2998660D02*
X3819506Y-3141517D01*
X3819506Y-3141517D02*
X3943315Y-3141517D01*
X4105220Y-3074850D02*
X4105220Y-3208184D01*
X4057601Y-2998660D02*
X4009982Y-3141517D01*
X4009982Y-3141517D02*
X4133791Y-3141517D01*
X4362363Y-3208184D02*
X4362363Y-3008184D01*
X4448077Y-3208184D02*
X4448077Y-3103422D01*
X4448077Y-3103422D02*
X4438553Y-3084374D01*
X4438553Y-3084374D02*
X4419506Y-3074850D01*
X4419506Y-3074850D02*
X4390934Y-3074850D01*
X4390934Y-3074850D02*
X4371887Y-3084374D01*
X4371887Y-3084374D02*
X4362363Y-3093898D01*
X4571887Y-3208184D02*
X4552839Y-3198660D01*
X4552839Y-3198660D02*
X4543315Y-3189136D01*
X4543315Y-3189136D02*
X4533792Y-3170088D01*
X4533792Y-3170088D02*
X4533792Y-3112946D01*
X4533792Y-3112946D02*
X4543315Y-3093898D01*
X4543315Y-3093898D02*
X4552839Y-3084374D01*
X4552839Y-3084374D02*
X4571887Y-3074850D01*
X4571887Y-3074850D02*
X4600458Y-3074850D01*
X4600458Y-3074850D02*
X4619506Y-3084374D01*
X4619506Y-3084374D02*
X4629030Y-3093898D01*
X4629030Y-3093898D02*
X4638553Y-3112946D01*
X4638553Y-3112946D02*
X4638553Y-3170088D01*
X4638553Y-3170088D02*
X4629030Y-3189136D01*
X4629030Y-3189136D02*
X4619506Y-3198660D01*
X4619506Y-3198660D02*
X4600458Y-3208184D01*
X4600458Y-3208184D02*
X4571887Y-3208184D01*
X4752839Y-3208184D02*
X4733792Y-3198660D01*
X4733792Y-3198660D02*
X4724268Y-3179612D01*
X4724268Y-3179612D02*
X4724268Y-3008184D01*
X4905220Y-3198660D02*
X4886173Y-3208184D01*
X4886173Y-3208184D02*
X4848077Y-3208184D01*
X4848077Y-3208184D02*
X4829030Y-3198660D01*
X4829030Y-3198660D02*
X4819506Y-3179612D01*
X4819506Y-3179612D02*
X4819506Y-3103422D01*
X4819506Y-3103422D02*
X4829030Y-3084374D01*
X4829030Y-3084374D02*
X4848077Y-3074850D01*
X4848077Y-3074850D02*
X4886173Y-3074850D01*
X4886173Y-3074850D02*
X4905220Y-3084374D01*
X4905220Y-3084374D02*
X4914744Y-3103422D01*
X4914744Y-3103422D02*
X4914744Y-3122469D01*
X4914744Y-3122469D02*
X4819506Y-3141517D01*
X4990934Y-3198660D02*
X5009982Y-3208184D01*
X5009982Y-3208184D02*
X5048077Y-3208184D01*
X5048077Y-3208184D02*
X5067125Y-3198660D01*
X5067125Y-3198660D02*
X5076649Y-3179612D01*
X5076649Y-3179612D02*
X5076649Y-3170088D01*
X5076649Y-3170088D02*
X5067125Y-3151041D01*
X5067125Y-3151041D02*
X5048077Y-3141517D01*
X5048077Y-3141517D02*
X5019506Y-3141517D01*
X5019506Y-3141517D02*
X5000458Y-3131993D01*
X5000458Y-3131993D02*
X4990934Y-3112946D01*
X4990934Y-3112946D02*
X4990934Y-3103422D01*
X4990934Y-3103422D02*
X5000458Y-3084374D01*
X5000458Y-3084374D02*
X5019506Y-3074850D01*
X5019506Y-3074850D02*
X5048077Y-3074850D01*
X5048077Y-3074850D02*
X5067125Y-3084374D01*
X5143315Y-3284374D02*
X5152839Y-3274850D01*
X5152839Y-3274850D02*
X5171887Y-3246279D01*
X5171887Y-3246279D02*
X5181411Y-3227231D01*
X5181411Y-3227231D02*
X5190934Y-3198660D01*
X5190934Y-3198660D02*
X5200458Y-3151041D01*
X5200458Y-3151041D02*
X5200458Y-3112946D01*
X5200458Y-3112946D02*
X5190934Y-3065327D01*
X5190934Y-3065327D02*
X5181411Y-3036755D01*
X5181411Y-3036755D02*
X5171887Y-3017708D01*
X5171887Y-3017708D02*
X5152839Y-2989136D01*
X5152839Y-2989136D02*
X5143315Y-2979612D01*
D12*
X-42700Y-3350700D02*
X-42700Y-3410700D01*
X-72700Y-3380700D02*
X-12700Y-3380700D01*
D11*
X286172Y-3272184D02*
X305220Y-3272184D01*
X305220Y-3272184D02*
X324267Y-3281708D01*
X324267Y-3281708D02*
X333791Y-3291231D01*
X333791Y-3291231D02*
X343315Y-3310279D01*
X343315Y-3310279D02*
X352839Y-3348374D01*
X352839Y-3348374D02*
X352839Y-3395993D01*
X352839Y-3395993D02*
X343315Y-3434088D01*
X343315Y-3434088D02*
X333791Y-3453136D01*
X333791Y-3453136D02*
X324267Y-3462660D01*
X324267Y-3462660D02*
X305220Y-3472184D01*
X305220Y-3472184D02*
X286172Y-3472184D01*
X286172Y-3472184D02*
X267124Y-3462660D01*
X267124Y-3462660D02*
X257601Y-3453136D01*
X257601Y-3453136D02*
X248077Y-3434088D01*
X248077Y-3434088D02*
X238553Y-3395993D01*
X238553Y-3395993D02*
X238553Y-3348374D01*
X238553Y-3348374D02*
X248077Y-3310279D01*
X248077Y-3310279D02*
X257601Y-3291231D01*
X257601Y-3291231D02*
X267124Y-3281708D01*
X267124Y-3281708D02*
X286172Y-3272184D01*
X438553Y-3453136D02*
X448077Y-3462660D01*
X448077Y-3462660D02*
X438553Y-3472184D01*
X438553Y-3472184D02*
X429029Y-3462660D01*
X429029Y-3462660D02*
X438553Y-3453136D01*
X438553Y-3453136D02*
X438553Y-3472184D01*
X619505Y-3272184D02*
X581410Y-3272184D01*
X581410Y-3272184D02*
X562363Y-3281708D01*
X562363Y-3281708D02*
X552839Y-3291231D01*
X552839Y-3291231D02*
X533791Y-3319803D01*
X533791Y-3319803D02*
X524267Y-3357898D01*
X524267Y-3357898D02*
X524267Y-3434088D01*
X524267Y-3434088D02*
X533791Y-3453136D01*
X533791Y-3453136D02*
X543315Y-3462660D01*
X543315Y-3462660D02*
X562363Y-3472184D01*
X562363Y-3472184D02*
X600458Y-3472184D01*
X600458Y-3472184D02*
X619505Y-3462660D01*
X619505Y-3462660D02*
X629029Y-3453136D01*
X629029Y-3453136D02*
X638553Y-3434088D01*
X638553Y-3434088D02*
X638553Y-3386469D01*
X638553Y-3386469D02*
X629029Y-3367422D01*
X629029Y-3367422D02*
X619505Y-3357898D01*
X619505Y-3357898D02*
X600458Y-3348374D01*
X600458Y-3348374D02*
X562363Y-3348374D01*
X562363Y-3348374D02*
X543315Y-3357898D01*
X543315Y-3357898D02*
X533791Y-3367422D01*
X533791Y-3367422D02*
X524267Y-3386469D01*
X762362Y-3272184D02*
X781410Y-3272184D01*
X781410Y-3272184D02*
X800458Y-3281708D01*
X800458Y-3281708D02*
X809982Y-3291231D01*
X809982Y-3291231D02*
X819505Y-3310279D01*
X819505Y-3310279D02*
X829029Y-3348374D01*
X829029Y-3348374D02*
X829029Y-3395993D01*
X829029Y-3395993D02*
X819505Y-3434088D01*
X819505Y-3434088D02*
X809982Y-3453136D01*
X809982Y-3453136D02*
X800458Y-3462660D01*
X800458Y-3462660D02*
X781410Y-3472184D01*
X781410Y-3472184D02*
X762362Y-3472184D01*
X762362Y-3472184D02*
X743315Y-3462660D01*
X743315Y-3462660D02*
X733791Y-3453136D01*
X733791Y-3453136D02*
X724267Y-3434088D01*
X724267Y-3434088D02*
X714743Y-3395993D01*
X714743Y-3395993D02*
X714743Y-3348374D01*
X714743Y-3348374D02*
X724267Y-3310279D01*
X724267Y-3310279D02*
X733791Y-3291231D01*
X733791Y-3291231D02*
X743315Y-3281708D01*
X743315Y-3281708D02*
X762362Y-3272184D01*
X952839Y-3272184D02*
X971886Y-3272184D01*
X971886Y-3272184D02*
X990934Y-3281708D01*
X990934Y-3281708D02*
X1000458Y-3291231D01*
X1000458Y-3291231D02*
X1009982Y-3310279D01*
X1009982Y-3310279D02*
X1019505Y-3348374D01*
X1019505Y-3348374D02*
X1019505Y-3395993D01*
X1019505Y-3395993D02*
X1009982Y-3434088D01*
X1009982Y-3434088D02*
X1000458Y-3453136D01*
X1000458Y-3453136D02*
X990934Y-3462660D01*
X990934Y-3462660D02*
X971886Y-3472184D01*
X971886Y-3472184D02*
X952839Y-3472184D01*
X952839Y-3472184D02*
X933791Y-3462660D01*
X933791Y-3462660D02*
X924267Y-3453136D01*
X924267Y-3453136D02*
X914743Y-3434088D01*
X914743Y-3434088D02*
X905220Y-3395993D01*
X905220Y-3395993D02*
X905220Y-3348374D01*
X905220Y-3348374D02*
X914743Y-3310279D01*
X914743Y-3310279D02*
X924267Y-3291231D01*
X924267Y-3291231D02*
X933791Y-3281708D01*
X933791Y-3281708D02*
X952839Y-3272184D01*
X1105220Y-3472184D02*
X1105220Y-3338850D01*
X1105220Y-3357898D02*
X1114744Y-3348374D01*
X1114744Y-3348374D02*
X1133791Y-3338850D01*
X1133791Y-3338850D02*
X1162363Y-3338850D01*
X1162363Y-3338850D02*
X1181410Y-3348374D01*
X1181410Y-3348374D02*
X1190934Y-3367422D01*
X1190934Y-3367422D02*
X1190934Y-3472184D01*
X1190934Y-3367422D02*
X1200458Y-3348374D01*
X1200458Y-3348374D02*
X1219505Y-3338850D01*
X1219505Y-3338850D02*
X1248077Y-3338850D01*
X1248077Y-3338850D02*
X1267125Y-3348374D01*
X1267125Y-3348374D02*
X1276648Y-3367422D01*
X1276648Y-3367422D02*
X1276648Y-3472184D01*
X1371886Y-3472184D02*
X1371886Y-3338850D01*
X1371886Y-3357898D02*
X1381410Y-3348374D01*
X1381410Y-3348374D02*
X1400458Y-3338850D01*
X1400458Y-3338850D02*
X1429029Y-3338850D01*
X1429029Y-3338850D02*
X1448077Y-3348374D01*
X1448077Y-3348374D02*
X1457601Y-3367422D01*
X1457601Y-3367422D02*
X1457601Y-3472184D01*
X1457601Y-3367422D02*
X1467124Y-3348374D01*
X1467124Y-3348374D02*
X1486172Y-3338850D01*
X1486172Y-3338850D02*
X1514743Y-3338850D01*
X1514743Y-3338850D02*
X1533791Y-3348374D01*
X1533791Y-3348374D02*
X1543315Y-3367422D01*
X1543315Y-3367422D02*
X1543315Y-3472184D01*
X1933791Y-3262660D02*
X1762363Y-3519803D01*
X2190934Y-3272184D02*
X2209982Y-3272184D01*
X2209982Y-3272184D02*
X2229029Y-3281708D01*
X2229029Y-3281708D02*
X2238553Y-3291231D01*
X2238553Y-3291231D02*
X2248077Y-3310279D01*
X2248077Y-3310279D02*
X2257601Y-3348374D01*
X2257601Y-3348374D02*
X2257601Y-3395993D01*
X2257601Y-3395993D02*
X2248077Y-3434088D01*
X2248077Y-3434088D02*
X2238553Y-3453136D01*
X2238553Y-3453136D02*
X2229029Y-3462660D01*
X2229029Y-3462660D02*
X2209982Y-3472184D01*
X2209982Y-3472184D02*
X2190934Y-3472184D01*
X2190934Y-3472184D02*
X2171887Y-3462660D01*
X2171887Y-3462660D02*
X2162363Y-3453136D01*
X2162363Y-3453136D02*
X2152839Y-3434088D01*
X2152839Y-3434088D02*
X2143315Y-3395993D01*
X2143315Y-3395993D02*
X2143315Y-3348374D01*
X2143315Y-3348374D02*
X2152839Y-3310279D01*
X2152839Y-3310279D02*
X2162363Y-3291231D01*
X2162363Y-3291231D02*
X2171887Y-3281708D01*
X2171887Y-3281708D02*
X2190934Y-3272184D01*
X2343315Y-3453136D02*
X2352839Y-3462660D01*
X2352839Y-3462660D02*
X2343315Y-3472184D01*
X2343315Y-3472184D02*
X2333791Y-3462660D01*
X2333791Y-3462660D02*
X2343315Y-3453136D01*
X2343315Y-3453136D02*
X2343315Y-3472184D01*
X2476648Y-3272184D02*
X2495696Y-3272184D01*
X2495696Y-3272184D02*
X2514744Y-3281708D01*
X2514744Y-3281708D02*
X2524268Y-3291231D01*
X2524268Y-3291231D02*
X2533791Y-3310279D01*
X2533791Y-3310279D02*
X2543315Y-3348374D01*
X2543315Y-3348374D02*
X2543315Y-3395993D01*
X2543315Y-3395993D02*
X2533791Y-3434088D01*
X2533791Y-3434088D02*
X2524268Y-3453136D01*
X2524268Y-3453136D02*
X2514744Y-3462660D01*
X2514744Y-3462660D02*
X2495696Y-3472184D01*
X2495696Y-3472184D02*
X2476648Y-3472184D01*
X2476648Y-3472184D02*
X2457601Y-3462660D01*
X2457601Y-3462660D02*
X2448077Y-3453136D01*
X2448077Y-3453136D02*
X2438553Y-3434088D01*
X2438553Y-3434088D02*
X2429029Y-3395993D01*
X2429029Y-3395993D02*
X2429029Y-3348374D01*
X2429029Y-3348374D02*
X2438553Y-3310279D01*
X2438553Y-3310279D02*
X2448077Y-3291231D01*
X2448077Y-3291231D02*
X2457601Y-3281708D01*
X2457601Y-3281708D02*
X2476648Y-3272184D01*
X2619506Y-3291231D02*
X2629029Y-3281708D01*
X2629029Y-3281708D02*
X2648077Y-3272184D01*
X2648077Y-3272184D02*
X2695696Y-3272184D01*
X2695696Y-3272184D02*
X2714744Y-3281708D01*
X2714744Y-3281708D02*
X2724268Y-3291231D01*
X2724268Y-3291231D02*
X2733791Y-3310279D01*
X2733791Y-3310279D02*
X2733791Y-3329327D01*
X2733791Y-3329327D02*
X2724268Y-3357898D01*
X2724268Y-3357898D02*
X2609982Y-3472184D01*
X2609982Y-3472184D02*
X2733791Y-3472184D01*
X2800458Y-3272184D02*
X2924267Y-3272184D01*
X2924267Y-3272184D02*
X2857601Y-3348374D01*
X2857601Y-3348374D02*
X2886172Y-3348374D01*
X2886172Y-3348374D02*
X2905220Y-3357898D01*
X2905220Y-3357898D02*
X2914744Y-3367422D01*
X2914744Y-3367422D02*
X2924267Y-3386469D01*
X2924267Y-3386469D02*
X2924267Y-3434088D01*
X2924267Y-3434088D02*
X2914744Y-3453136D01*
X2914744Y-3453136D02*
X2905220Y-3462660D01*
X2905220Y-3462660D02*
X2886172Y-3472184D01*
X2886172Y-3472184D02*
X2829029Y-3472184D01*
X2829029Y-3472184D02*
X2809982Y-3462660D01*
X2809982Y-3462660D02*
X2800458Y-3453136D01*
X3095696Y-3272184D02*
X3057601Y-3272184D01*
X3057601Y-3272184D02*
X3038553Y-3281708D01*
X3038553Y-3281708D02*
X3029029Y-3291231D01*
X3029029Y-3291231D02*
X3009982Y-3319803D01*
X3009982Y-3319803D02*
X3000458Y-3357898D01*
X3000458Y-3357898D02*
X3000458Y-3434088D01*
X3000458Y-3434088D02*
X3009982Y-3453136D01*
X3009982Y-3453136D02*
X3019506Y-3462660D01*
X3019506Y-3462660D02*
X3038553Y-3472184D01*
X3038553Y-3472184D02*
X3076648Y-3472184D01*
X3076648Y-3472184D02*
X3095696Y-3462660D01*
X3095696Y-3462660D02*
X3105220Y-3453136D01*
X3105220Y-3453136D02*
X3114744Y-3434088D01*
X3114744Y-3434088D02*
X3114744Y-3386469D01*
X3114744Y-3386469D02*
X3105220Y-3367422D01*
X3105220Y-3367422D02*
X3095696Y-3357898D01*
X3095696Y-3357898D02*
X3076648Y-3348374D01*
X3076648Y-3348374D02*
X3038553Y-3348374D01*
X3038553Y-3348374D02*
X3019506Y-3357898D01*
X3019506Y-3357898D02*
X3009982Y-3367422D01*
X3009982Y-3367422D02*
X3000458Y-3386469D01*
X3190934Y-3272184D02*
X3190934Y-3310279D01*
X3267125Y-3272184D02*
X3267125Y-3310279D01*
X3562363Y-3548374D02*
X3552839Y-3538850D01*
X3552839Y-3538850D02*
X3533791Y-3510279D01*
X3533791Y-3510279D02*
X3524268Y-3491231D01*
X3524268Y-3491231D02*
X3514744Y-3462660D01*
X3514744Y-3462660D02*
X3505220Y-3415041D01*
X3505220Y-3415041D02*
X3505220Y-3376946D01*
X3505220Y-3376946D02*
X3514744Y-3329327D01*
X3514744Y-3329327D02*
X3524268Y-3300755D01*
X3524268Y-3300755D02*
X3533791Y-3281708D01*
X3533791Y-3281708D02*
X3552839Y-3253136D01*
X3552839Y-3253136D02*
X3562363Y-3243612D01*
X3676648Y-3272184D02*
X3695696Y-3272184D01*
X3695696Y-3272184D02*
X3714744Y-3281708D01*
X3714744Y-3281708D02*
X3724268Y-3291231D01*
X3724268Y-3291231D02*
X3733791Y-3310279D01*
X3733791Y-3310279D02*
X3743315Y-3348374D01*
X3743315Y-3348374D02*
X3743315Y-3395993D01*
X3743315Y-3395993D02*
X3733791Y-3434088D01*
X3733791Y-3434088D02*
X3724268Y-3453136D01*
X3724268Y-3453136D02*
X3714744Y-3462660D01*
X3714744Y-3462660D02*
X3695696Y-3472184D01*
X3695696Y-3472184D02*
X3676648Y-3472184D01*
X3676648Y-3472184D02*
X3657601Y-3462660D01*
X3657601Y-3462660D02*
X3648077Y-3453136D01*
X3648077Y-3453136D02*
X3638553Y-3434088D01*
X3638553Y-3434088D02*
X3629029Y-3395993D01*
X3629029Y-3395993D02*
X3629029Y-3348374D01*
X3629029Y-3348374D02*
X3638553Y-3310279D01*
X3638553Y-3310279D02*
X3648077Y-3291231D01*
X3648077Y-3291231D02*
X3657601Y-3281708D01*
X3657601Y-3281708D02*
X3676648Y-3272184D01*
X3981410Y-3472184D02*
X3981410Y-3272184D01*
X4067125Y-3472184D02*
X4067125Y-3367422D01*
X4067125Y-3367422D02*
X4057601Y-3348374D01*
X4057601Y-3348374D02*
X4038553Y-3338850D01*
X4038553Y-3338850D02*
X4009982Y-3338850D01*
X4009982Y-3338850D02*
X3990934Y-3348374D01*
X3990934Y-3348374D02*
X3981410Y-3357898D01*
X4190934Y-3472184D02*
X4171887Y-3462660D01*
X4171887Y-3462660D02*
X4162363Y-3453136D01*
X4162363Y-3453136D02*
X4152839Y-3434088D01*
X4152839Y-3434088D02*
X4152839Y-3376946D01*
X4152839Y-3376946D02*
X4162363Y-3357898D01*
X4162363Y-3357898D02*
X4171887Y-3348374D01*
X4171887Y-3348374D02*
X4190934Y-3338850D01*
X4190934Y-3338850D02*
X4219506Y-3338850D01*
X4219506Y-3338850D02*
X4238553Y-3348374D01*
X4238553Y-3348374D02*
X4248077Y-3357898D01*
X4248077Y-3357898D02*
X4257601Y-3376946D01*
X4257601Y-3376946D02*
X4257601Y-3434088D01*
X4257601Y-3434088D02*
X4248077Y-3453136D01*
X4248077Y-3453136D02*
X4238553Y-3462660D01*
X4238553Y-3462660D02*
X4219506Y-3472184D01*
X4219506Y-3472184D02*
X4190934Y-3472184D01*
X4371887Y-3472184D02*
X4352839Y-3462660D01*
X4352839Y-3462660D02*
X4343315Y-3443612D01*
X4343315Y-3443612D02*
X4343315Y-3272184D01*
X4524268Y-3462660D02*
X4505220Y-3472184D01*
X4505220Y-3472184D02*
X4467125Y-3472184D01*
X4467125Y-3472184D02*
X4448077Y-3462660D01*
X4448077Y-3462660D02*
X4438553Y-3443612D01*
X4438553Y-3443612D02*
X4438553Y-3367422D01*
X4438553Y-3367422D02*
X4448077Y-3348374D01*
X4448077Y-3348374D02*
X4467125Y-3338850D01*
X4467125Y-3338850D02*
X4505220Y-3338850D01*
X4505220Y-3338850D02*
X4524268Y-3348374D01*
X4524268Y-3348374D02*
X4533792Y-3367422D01*
X4533792Y-3367422D02*
X4533792Y-3386469D01*
X4533792Y-3386469D02*
X4438553Y-3405517D01*
X4609982Y-3462660D02*
X4629030Y-3472184D01*
X4629030Y-3472184D02*
X4667125Y-3472184D01*
X4667125Y-3472184D02*
X4686173Y-3462660D01*
X4686173Y-3462660D02*
X4695696Y-3443612D01*
X4695696Y-3443612D02*
X4695696Y-3434088D01*
X4695696Y-3434088D02*
X4686173Y-3415041D01*
X4686173Y-3415041D02*
X4667125Y-3405517D01*
X4667125Y-3405517D02*
X4638553Y-3405517D01*
X4638553Y-3405517D02*
X4619506Y-3395993D01*
X4619506Y-3395993D02*
X4609982Y-3376946D01*
X4609982Y-3376946D02*
X4609982Y-3367422D01*
X4609982Y-3367422D02*
X4619506Y-3348374D01*
X4619506Y-3348374D02*
X4638553Y-3338850D01*
X4638553Y-3338850D02*
X4667125Y-3338850D01*
X4667125Y-3338850D02*
X4686173Y-3348374D01*
X4933792Y-3395993D02*
X5086173Y-3395993D01*
X5009982Y-3472184D02*
X5009982Y-3319803D01*
X5419506Y-3338850D02*
X5419506Y-3472184D01*
X5371887Y-3262660D02*
X5324268Y-3405517D01*
X5324268Y-3405517D02*
X5448077Y-3405517D01*
X5667125Y-3462660D02*
X5686173Y-3472184D01*
X5686173Y-3472184D02*
X5724268Y-3472184D01*
X5724268Y-3472184D02*
X5743315Y-3462660D01*
X5743315Y-3462660D02*
X5752839Y-3443612D01*
X5752839Y-3443612D02*
X5752839Y-3434088D01*
X5752839Y-3434088D02*
X5743315Y-3415041D01*
X5743315Y-3415041D02*
X5724268Y-3405517D01*
X5724268Y-3405517D02*
X5695696Y-3405517D01*
X5695696Y-3405517D02*
X5676649Y-3395993D01*
X5676649Y-3395993D02*
X5667125Y-3376946D01*
X5667125Y-3376946D02*
X5667125Y-3367422D01*
X5667125Y-3367422D02*
X5676649Y-3348374D01*
X5676649Y-3348374D02*
X5695696Y-3338850D01*
X5695696Y-3338850D02*
X5724268Y-3338850D01*
X5724268Y-3338850D02*
X5743315Y-3348374D01*
X5867125Y-3472184D02*
X5848077Y-3462660D01*
X5848077Y-3462660D02*
X5838554Y-3443612D01*
X5838554Y-3443612D02*
X5838554Y-3272184D01*
X5971887Y-3472184D02*
X5952839Y-3462660D01*
X5952839Y-3462660D02*
X5943315Y-3453136D01*
X5943315Y-3453136D02*
X5933792Y-3434088D01*
X5933792Y-3434088D02*
X5933792Y-3376946D01*
X5933792Y-3376946D02*
X5943315Y-3357898D01*
X5943315Y-3357898D02*
X5952839Y-3348374D01*
X5952839Y-3348374D02*
X5971887Y-3338850D01*
X5971887Y-3338850D02*
X6000458Y-3338850D01*
X6000458Y-3338850D02*
X6019506Y-3348374D01*
X6019506Y-3348374D02*
X6029030Y-3357898D01*
X6029030Y-3357898D02*
X6038554Y-3376946D01*
X6038554Y-3376946D02*
X6038554Y-3434088D01*
X6038554Y-3434088D02*
X6029030Y-3453136D01*
X6029030Y-3453136D02*
X6019506Y-3462660D01*
X6019506Y-3462660D02*
X6000458Y-3472184D01*
X6000458Y-3472184D02*
X5971887Y-3472184D01*
X6095696Y-3338850D02*
X6171887Y-3338850D01*
X6124268Y-3272184D02*
X6124268Y-3443612D01*
X6124268Y-3443612D02*
X6133792Y-3462660D01*
X6133792Y-3462660D02*
X6152839Y-3472184D01*
X6152839Y-3472184D02*
X6171887Y-3472184D01*
X6229030Y-3462660D02*
X6248077Y-3472184D01*
X6248077Y-3472184D02*
X6286173Y-3472184D01*
X6286173Y-3472184D02*
X6305220Y-3462660D01*
X6305220Y-3462660D02*
X6314744Y-3443612D01*
X6314744Y-3443612D02*
X6314744Y-3434088D01*
X6314744Y-3434088D02*
X6305220Y-3415041D01*
X6305220Y-3415041D02*
X6286173Y-3405517D01*
X6286173Y-3405517D02*
X6257601Y-3405517D01*
X6257601Y-3405517D02*
X6238554Y-3395993D01*
X6238554Y-3395993D02*
X6229030Y-3376946D01*
X6229030Y-3376946D02*
X6229030Y-3367422D01*
X6229030Y-3367422D02*
X6238554Y-3348374D01*
X6238554Y-3348374D02*
X6257601Y-3338850D01*
X6257601Y-3338850D02*
X6286173Y-3338850D01*
X6286173Y-3338850D02*
X6305220Y-3348374D01*
X6381411Y-3548374D02*
X6390935Y-3538850D01*
X6390935Y-3538850D02*
X6409982Y-3510279D01*
X6409982Y-3510279D02*
X6419506Y-3491231D01*
X6419506Y-3491231D02*
X6429030Y-3462660D01*
X6429030Y-3462660D02*
X6438554Y-3415041D01*
X6438554Y-3415041D02*
X6438554Y-3376946D01*
X6438554Y-3376946D02*
X6429030Y-3329327D01*
X6429030Y-3329327D02*
X6419506Y-3300755D01*
X6419506Y-3300755D02*
X6409982Y-3281708D01*
X6409982Y-3281708D02*
X6390935Y-3253136D01*
X6390935Y-3253136D02*
X6381411Y-3243612D01*
D12*
X-25880Y-3676520D02*
X-25880Y-3612880D01*
X-89520Y-3612880D01*
X-89520Y-3676520D01*
X-25880Y-3676520D01*
D11*
X286172Y-3536184D02*
X305220Y-3536184D01*
X305220Y-3536184D02*
X324267Y-3545708D01*
X324267Y-3545708D02*
X333791Y-3555231D01*
X333791Y-3555231D02*
X343315Y-3574279D01*
X343315Y-3574279D02*
X352839Y-3612374D01*
X352839Y-3612374D02*
X352839Y-3659993D01*
X352839Y-3659993D02*
X343315Y-3698088D01*
X343315Y-3698088D02*
X333791Y-3717136D01*
X333791Y-3717136D02*
X324267Y-3726660D01*
X324267Y-3726660D02*
X305220Y-3736184D01*
X305220Y-3736184D02*
X286172Y-3736184D01*
X286172Y-3736184D02*
X267124Y-3726660D01*
X267124Y-3726660D02*
X257601Y-3717136D01*
X257601Y-3717136D02*
X248077Y-3698088D01*
X248077Y-3698088D02*
X238553Y-3659993D01*
X238553Y-3659993D02*
X238553Y-3612374D01*
X238553Y-3612374D02*
X248077Y-3574279D01*
X248077Y-3574279D02*
X257601Y-3555231D01*
X257601Y-3555231D02*
X267124Y-3545708D01*
X267124Y-3545708D02*
X286172Y-3536184D01*
X438553Y-3717136D02*
X448077Y-3726660D01*
X448077Y-3726660D02*
X438553Y-3736184D01*
X438553Y-3736184D02*
X429029Y-3726660D01*
X429029Y-3726660D02*
X438553Y-3717136D01*
X438553Y-3717136D02*
X438553Y-3736184D01*
X543315Y-3736184D02*
X581410Y-3736184D01*
X581410Y-3736184D02*
X600458Y-3726660D01*
X600458Y-3726660D02*
X609982Y-3717136D01*
X609982Y-3717136D02*
X629029Y-3688565D01*
X629029Y-3688565D02*
X638553Y-3650469D01*
X638553Y-3650469D02*
X638553Y-3574279D01*
X638553Y-3574279D02*
X629029Y-3555231D01*
X629029Y-3555231D02*
X619505Y-3545708D01*
X619505Y-3545708D02*
X600458Y-3536184D01*
X600458Y-3536184D02*
X562363Y-3536184D01*
X562363Y-3536184D02*
X543315Y-3545708D01*
X543315Y-3545708D02*
X533791Y-3555231D01*
X533791Y-3555231D02*
X524267Y-3574279D01*
X524267Y-3574279D02*
X524267Y-3621898D01*
X524267Y-3621898D02*
X533791Y-3640946D01*
X533791Y-3640946D02*
X543315Y-3650469D01*
X543315Y-3650469D02*
X562363Y-3659993D01*
X562363Y-3659993D02*
X600458Y-3659993D01*
X600458Y-3659993D02*
X619505Y-3650469D01*
X619505Y-3650469D02*
X629029Y-3640946D01*
X629029Y-3640946D02*
X638553Y-3621898D01*
X762362Y-3536184D02*
X781410Y-3536184D01*
X781410Y-3536184D02*
X800458Y-3545708D01*
X800458Y-3545708D02*
X809982Y-3555231D01*
X809982Y-3555231D02*
X819505Y-3574279D01*
X819505Y-3574279D02*
X829029Y-3612374D01*
X829029Y-3612374D02*
X829029Y-3659993D01*
X829029Y-3659993D02*
X819505Y-3698088D01*
X819505Y-3698088D02*
X809982Y-3717136D01*
X809982Y-3717136D02*
X800458Y-3726660D01*
X800458Y-3726660D02*
X781410Y-3736184D01*
X781410Y-3736184D02*
X762362Y-3736184D01*
X762362Y-3736184D02*
X743315Y-3726660D01*
X743315Y-3726660D02*
X733791Y-3717136D01*
X733791Y-3717136D02*
X724267Y-3698088D01*
X724267Y-3698088D02*
X714743Y-3659993D01*
X714743Y-3659993D02*
X714743Y-3612374D01*
X714743Y-3612374D02*
X724267Y-3574279D01*
X724267Y-3574279D02*
X733791Y-3555231D01*
X733791Y-3555231D02*
X743315Y-3545708D01*
X743315Y-3545708D02*
X762362Y-3536184D01*
X952839Y-3536184D02*
X971886Y-3536184D01*
X971886Y-3536184D02*
X990934Y-3545708D01*
X990934Y-3545708D02*
X1000458Y-3555231D01*
X1000458Y-3555231D02*
X1009982Y-3574279D01*
X1009982Y-3574279D02*
X1019505Y-3612374D01*
X1019505Y-3612374D02*
X1019505Y-3659993D01*
X1019505Y-3659993D02*
X1009982Y-3698088D01*
X1009982Y-3698088D02*
X1000458Y-3717136D01*
X1000458Y-3717136D02*
X990934Y-3726660D01*
X990934Y-3726660D02*
X971886Y-3736184D01*
X971886Y-3736184D02*
X952839Y-3736184D01*
X952839Y-3736184D02*
X933791Y-3726660D01*
X933791Y-3726660D02*
X924267Y-3717136D01*
X924267Y-3717136D02*
X914743Y-3698088D01*
X914743Y-3698088D02*
X905220Y-3659993D01*
X905220Y-3659993D02*
X905220Y-3612374D01*
X905220Y-3612374D02*
X914743Y-3574279D01*
X914743Y-3574279D02*
X924267Y-3555231D01*
X924267Y-3555231D02*
X933791Y-3545708D01*
X933791Y-3545708D02*
X952839Y-3536184D01*
X1105220Y-3736184D02*
X1105220Y-3602850D01*
X1105220Y-3621898D02*
X1114744Y-3612374D01*
X1114744Y-3612374D02*
X1133791Y-3602850D01*
X1133791Y-3602850D02*
X1162363Y-3602850D01*
X1162363Y-3602850D02*
X1181410Y-3612374D01*
X1181410Y-3612374D02*
X1190934Y-3631422D01*
X1190934Y-3631422D02*
X1190934Y-3736184D01*
X1190934Y-3631422D02*
X1200458Y-3612374D01*
X1200458Y-3612374D02*
X1219505Y-3602850D01*
X1219505Y-3602850D02*
X1248077Y-3602850D01*
X1248077Y-3602850D02*
X1267125Y-3612374D01*
X1267125Y-3612374D02*
X1276648Y-3631422D01*
X1276648Y-3631422D02*
X1276648Y-3736184D01*
X1371886Y-3736184D02*
X1371886Y-3602850D01*
X1371886Y-3621898D02*
X1381410Y-3612374D01*
X1381410Y-3612374D02*
X1400458Y-3602850D01*
X1400458Y-3602850D02*
X1429029Y-3602850D01*
X1429029Y-3602850D02*
X1448077Y-3612374D01*
X1448077Y-3612374D02*
X1457601Y-3631422D01*
X1457601Y-3631422D02*
X1457601Y-3736184D01*
X1457601Y-3631422D02*
X1467124Y-3612374D01*
X1467124Y-3612374D02*
X1486172Y-3602850D01*
X1486172Y-3602850D02*
X1514743Y-3602850D01*
X1514743Y-3602850D02*
X1533791Y-3612374D01*
X1533791Y-3612374D02*
X1543315Y-3631422D01*
X1543315Y-3631422D02*
X1543315Y-3736184D01*
X1933791Y-3526660D02*
X1762363Y-3783803D01*
X2190934Y-3536184D02*
X2209982Y-3536184D01*
X2209982Y-3536184D02*
X2229029Y-3545708D01*
X2229029Y-3545708D02*
X2238553Y-3555231D01*
X2238553Y-3555231D02*
X2248077Y-3574279D01*
X2248077Y-3574279D02*
X2257601Y-3612374D01*
X2257601Y-3612374D02*
X2257601Y-3659993D01*
X2257601Y-3659993D02*
X2248077Y-3698088D01*
X2248077Y-3698088D02*
X2238553Y-3717136D01*
X2238553Y-3717136D02*
X2229029Y-3726660D01*
X2229029Y-3726660D02*
X2209982Y-3736184D01*
X2209982Y-3736184D02*
X2190934Y-3736184D01*
X2190934Y-3736184D02*
X2171887Y-3726660D01*
X2171887Y-3726660D02*
X2162363Y-3717136D01*
X2162363Y-3717136D02*
X2152839Y-3698088D01*
X2152839Y-3698088D02*
X2143315Y-3659993D01*
X2143315Y-3659993D02*
X2143315Y-3612374D01*
X2143315Y-3612374D02*
X2152839Y-3574279D01*
X2152839Y-3574279D02*
X2162363Y-3555231D01*
X2162363Y-3555231D02*
X2171887Y-3545708D01*
X2171887Y-3545708D02*
X2190934Y-3536184D01*
X2343315Y-3717136D02*
X2352839Y-3726660D01*
X2352839Y-3726660D02*
X2343315Y-3736184D01*
X2343315Y-3736184D02*
X2333791Y-3726660D01*
X2333791Y-3726660D02*
X2343315Y-3717136D01*
X2343315Y-3717136D02*
X2343315Y-3736184D01*
X2476648Y-3536184D02*
X2495696Y-3536184D01*
X2495696Y-3536184D02*
X2514744Y-3545708D01*
X2514744Y-3545708D02*
X2524268Y-3555231D01*
X2524268Y-3555231D02*
X2533791Y-3574279D01*
X2533791Y-3574279D02*
X2543315Y-3612374D01*
X2543315Y-3612374D02*
X2543315Y-3659993D01*
X2543315Y-3659993D02*
X2533791Y-3698088D01*
X2533791Y-3698088D02*
X2524268Y-3717136D01*
X2524268Y-3717136D02*
X2514744Y-3726660D01*
X2514744Y-3726660D02*
X2495696Y-3736184D01*
X2495696Y-3736184D02*
X2476648Y-3736184D01*
X2476648Y-3736184D02*
X2457601Y-3726660D01*
X2457601Y-3726660D02*
X2448077Y-3717136D01*
X2448077Y-3717136D02*
X2438553Y-3698088D01*
X2438553Y-3698088D02*
X2429029Y-3659993D01*
X2429029Y-3659993D02*
X2429029Y-3612374D01*
X2429029Y-3612374D02*
X2438553Y-3574279D01*
X2438553Y-3574279D02*
X2448077Y-3555231D01*
X2448077Y-3555231D02*
X2457601Y-3545708D01*
X2457601Y-3545708D02*
X2476648Y-3536184D01*
X2609982Y-3536184D02*
X2733791Y-3536184D01*
X2733791Y-3536184D02*
X2667125Y-3612374D01*
X2667125Y-3612374D02*
X2695696Y-3612374D01*
X2695696Y-3612374D02*
X2714744Y-3621898D01*
X2714744Y-3621898D02*
X2724268Y-3631422D01*
X2724268Y-3631422D02*
X2733791Y-3650469D01*
X2733791Y-3650469D02*
X2733791Y-3698088D01*
X2733791Y-3698088D02*
X2724268Y-3717136D01*
X2724268Y-3717136D02*
X2714744Y-3726660D01*
X2714744Y-3726660D02*
X2695696Y-3736184D01*
X2695696Y-3736184D02*
X2638553Y-3736184D01*
X2638553Y-3736184D02*
X2619506Y-3726660D01*
X2619506Y-3726660D02*
X2609982Y-3717136D01*
X2914744Y-3536184D02*
X2819506Y-3536184D01*
X2819506Y-3536184D02*
X2809982Y-3631422D01*
X2809982Y-3631422D02*
X2819506Y-3621898D01*
X2819506Y-3621898D02*
X2838553Y-3612374D01*
X2838553Y-3612374D02*
X2886172Y-3612374D01*
X2886172Y-3612374D02*
X2905220Y-3621898D01*
X2905220Y-3621898D02*
X2914744Y-3631422D01*
X2914744Y-3631422D02*
X2924267Y-3650469D01*
X2924267Y-3650469D02*
X2924267Y-3698088D01*
X2924267Y-3698088D02*
X2914744Y-3717136D01*
X2914744Y-3717136D02*
X2905220Y-3726660D01*
X2905220Y-3726660D02*
X2886172Y-3736184D01*
X2886172Y-3736184D02*
X2838553Y-3736184D01*
X2838553Y-3736184D02*
X2819506Y-3726660D01*
X2819506Y-3726660D02*
X2809982Y-3717136D01*
X3095696Y-3602850D02*
X3095696Y-3736184D01*
X3048077Y-3526660D02*
X3000458Y-3669517D01*
X3000458Y-3669517D02*
X3124267Y-3669517D01*
X3190934Y-3536184D02*
X3190934Y-3574279D01*
X3267125Y-3536184D02*
X3267125Y-3574279D01*
X3562363Y-3812374D02*
X3552839Y-3802850D01*
X3552839Y-3802850D02*
X3533791Y-3774279D01*
X3533791Y-3774279D02*
X3524268Y-3755231D01*
X3524268Y-3755231D02*
X3514744Y-3726660D01*
X3514744Y-3726660D02*
X3505220Y-3679041D01*
X3505220Y-3679041D02*
X3505220Y-3640946D01*
X3505220Y-3640946D02*
X3514744Y-3593327D01*
X3514744Y-3593327D02*
X3524268Y-3564755D01*
X3524268Y-3564755D02*
X3533791Y-3545708D01*
X3533791Y-3545708D02*
X3552839Y-3517136D01*
X3552839Y-3517136D02*
X3562363Y-3507612D01*
X3724268Y-3602850D02*
X3724268Y-3736184D01*
X3676648Y-3526660D02*
X3629029Y-3669517D01*
X3629029Y-3669517D02*
X3752839Y-3669517D01*
X3981410Y-3736184D02*
X3981410Y-3536184D01*
X4067125Y-3736184D02*
X4067125Y-3631422D01*
X4067125Y-3631422D02*
X4057601Y-3612374D01*
X4057601Y-3612374D02*
X4038553Y-3602850D01*
X4038553Y-3602850D02*
X4009982Y-3602850D01*
X4009982Y-3602850D02*
X3990934Y-3612374D01*
X3990934Y-3612374D02*
X3981410Y-3621898D01*
X4190934Y-3736184D02*
X4171887Y-3726660D01*
X4171887Y-3726660D02*
X4162363Y-3717136D01*
X4162363Y-3717136D02*
X4152839Y-3698088D01*
X4152839Y-3698088D02*
X4152839Y-3640946D01*
X4152839Y-3640946D02*
X4162363Y-3621898D01*
X4162363Y-3621898D02*
X4171887Y-3612374D01*
X4171887Y-3612374D02*
X4190934Y-3602850D01*
X4190934Y-3602850D02*
X4219506Y-3602850D01*
X4219506Y-3602850D02*
X4238553Y-3612374D01*
X4238553Y-3612374D02*
X4248077Y-3621898D01*
X4248077Y-3621898D02*
X4257601Y-3640946D01*
X4257601Y-3640946D02*
X4257601Y-3698088D01*
X4257601Y-3698088D02*
X4248077Y-3717136D01*
X4248077Y-3717136D02*
X4238553Y-3726660D01*
X4238553Y-3726660D02*
X4219506Y-3736184D01*
X4219506Y-3736184D02*
X4190934Y-3736184D01*
X4371887Y-3736184D02*
X4352839Y-3726660D01*
X4352839Y-3726660D02*
X4343315Y-3707612D01*
X4343315Y-3707612D02*
X4343315Y-3536184D01*
X4524268Y-3726660D02*
X4505220Y-3736184D01*
X4505220Y-3736184D02*
X4467125Y-3736184D01*
X4467125Y-3736184D02*
X4448077Y-3726660D01*
X4448077Y-3726660D02*
X4438553Y-3707612D01*
X4438553Y-3707612D02*
X4438553Y-3631422D01*
X4438553Y-3631422D02*
X4448077Y-3612374D01*
X4448077Y-3612374D02*
X4467125Y-3602850D01*
X4467125Y-3602850D02*
X4505220Y-3602850D01*
X4505220Y-3602850D02*
X4524268Y-3612374D01*
X4524268Y-3612374D02*
X4533792Y-3631422D01*
X4533792Y-3631422D02*
X4533792Y-3650469D01*
X4533792Y-3650469D02*
X4438553Y-3669517D01*
X4609982Y-3726660D02*
X4629030Y-3736184D01*
X4629030Y-3736184D02*
X4667125Y-3736184D01*
X4667125Y-3736184D02*
X4686173Y-3726660D01*
X4686173Y-3726660D02*
X4695696Y-3707612D01*
X4695696Y-3707612D02*
X4695696Y-3698088D01*
X4695696Y-3698088D02*
X4686173Y-3679041D01*
X4686173Y-3679041D02*
X4667125Y-3669517D01*
X4667125Y-3669517D02*
X4638553Y-3669517D01*
X4638553Y-3669517D02*
X4619506Y-3659993D01*
X4619506Y-3659993D02*
X4609982Y-3640946D01*
X4609982Y-3640946D02*
X4609982Y-3631422D01*
X4609982Y-3631422D02*
X4619506Y-3612374D01*
X4619506Y-3612374D02*
X4638553Y-3602850D01*
X4638553Y-3602850D02*
X4667125Y-3602850D01*
X4667125Y-3602850D02*
X4686173Y-3612374D01*
X4762363Y-3812374D02*
X4771887Y-3802850D01*
X4771887Y-3802850D02*
X4790934Y-3774279D01*
X4790934Y-3774279D02*
X4800458Y-3755231D01*
X4800458Y-3755231D02*
X4809982Y-3726660D01*
X4809982Y-3726660D02*
X4819506Y-3679041D01*
X4819506Y-3679041D02*
X4819506Y-3640946D01*
X4819506Y-3640946D02*
X4809982Y-3593327D01*
X4809982Y-3593327D02*
X4800458Y-3564755D01*
X4800458Y-3564755D02*
X4790934Y-3545708D01*
X4790934Y-3545708D02*
X4771887Y-3517136D01*
X4771887Y-3517136D02*
X4762363Y-3507612D01*
D12*
X-62700Y-3958700D02*
X-12700Y-3908700D01*
X-62700Y-3858700D01*
X-112700Y-3908700D01*
X-62700Y-3958700D01*
D11*
X352839Y-4000184D02*
X238553Y-4000184D01*
X295696Y-4000184D02*
X295696Y-3800184D01*
X295696Y-3800184D02*
X276648Y-3828755D01*
X276648Y-3828755D02*
X257601Y-3847803D01*
X257601Y-3847803D02*
X238553Y-3857327D01*
X438553Y-3981136D02*
X448077Y-3990660D01*
X448077Y-3990660D02*
X438553Y-4000184D01*
X438553Y-4000184D02*
X429029Y-3990660D01*
X429029Y-3990660D02*
X438553Y-3981136D01*
X438553Y-3981136D02*
X438553Y-4000184D01*
X571886Y-3800184D02*
X590934Y-3800184D01*
X590934Y-3800184D02*
X609982Y-3809708D01*
X609982Y-3809708D02*
X619505Y-3819231D01*
X619505Y-3819231D02*
X629029Y-3838279D01*
X629029Y-3838279D02*
X638553Y-3876374D01*
X638553Y-3876374D02*
X638553Y-3923993D01*
X638553Y-3923993D02*
X629029Y-3962088D01*
X629029Y-3962088D02*
X619505Y-3981136D01*
X619505Y-3981136D02*
X609982Y-3990660D01*
X609982Y-3990660D02*
X590934Y-4000184D01*
X590934Y-4000184D02*
X571886Y-4000184D01*
X571886Y-4000184D02*
X552839Y-3990660D01*
X552839Y-3990660D02*
X543315Y-3981136D01*
X543315Y-3981136D02*
X533791Y-3962088D01*
X533791Y-3962088D02*
X524267Y-3923993D01*
X524267Y-3923993D02*
X524267Y-3876374D01*
X524267Y-3876374D02*
X533791Y-3838279D01*
X533791Y-3838279D02*
X543315Y-3819231D01*
X543315Y-3819231D02*
X552839Y-3809708D01*
X552839Y-3809708D02*
X571886Y-3800184D01*
X762362Y-3800184D02*
X781410Y-3800184D01*
X781410Y-3800184D02*
X800458Y-3809708D01*
X800458Y-3809708D02*
X809982Y-3819231D01*
X809982Y-3819231D02*
X819505Y-3838279D01*
X819505Y-3838279D02*
X829029Y-3876374D01*
X829029Y-3876374D02*
X829029Y-3923993D01*
X829029Y-3923993D02*
X819505Y-3962088D01*
X819505Y-3962088D02*
X809982Y-3981136D01*
X809982Y-3981136D02*
X800458Y-3990660D01*
X800458Y-3990660D02*
X781410Y-4000184D01*
X781410Y-4000184D02*
X762362Y-4000184D01*
X762362Y-4000184D02*
X743315Y-3990660D01*
X743315Y-3990660D02*
X733791Y-3981136D01*
X733791Y-3981136D02*
X724267Y-3962088D01*
X724267Y-3962088D02*
X714743Y-3923993D01*
X714743Y-3923993D02*
X714743Y-3876374D01*
X714743Y-3876374D02*
X724267Y-3838279D01*
X724267Y-3838279D02*
X733791Y-3819231D01*
X733791Y-3819231D02*
X743315Y-3809708D01*
X743315Y-3809708D02*
X762362Y-3800184D01*
X952839Y-3800184D02*
X971886Y-3800184D01*
X971886Y-3800184D02*
X990934Y-3809708D01*
X990934Y-3809708D02*
X1000458Y-3819231D01*
X1000458Y-3819231D02*
X1009982Y-3838279D01*
X1009982Y-3838279D02*
X1019505Y-3876374D01*
X1019505Y-3876374D02*
X1019505Y-3923993D01*
X1019505Y-3923993D02*
X1009982Y-3962088D01*
X1009982Y-3962088D02*
X1000458Y-3981136D01*
X1000458Y-3981136D02*
X990934Y-3990660D01*
X990934Y-3990660D02*
X971886Y-4000184D01*
X971886Y-4000184D02*
X952839Y-4000184D01*
X952839Y-4000184D02*
X933791Y-3990660D01*
X933791Y-3990660D02*
X924267Y-3981136D01*
X924267Y-3981136D02*
X914743Y-3962088D01*
X914743Y-3962088D02*
X905220Y-3923993D01*
X905220Y-3923993D02*
X905220Y-3876374D01*
X905220Y-3876374D02*
X914743Y-3838279D01*
X914743Y-3838279D02*
X924267Y-3819231D01*
X924267Y-3819231D02*
X933791Y-3809708D01*
X933791Y-3809708D02*
X952839Y-3800184D01*
X1105220Y-4000184D02*
X1105220Y-3866850D01*
X1105220Y-3885898D02*
X1114744Y-3876374D01*
X1114744Y-3876374D02*
X1133791Y-3866850D01*
X1133791Y-3866850D02*
X1162363Y-3866850D01*
X1162363Y-3866850D02*
X1181410Y-3876374D01*
X1181410Y-3876374D02*
X1190934Y-3895422D01*
X1190934Y-3895422D02*
X1190934Y-4000184D01*
X1190934Y-3895422D02*
X1200458Y-3876374D01*
X1200458Y-3876374D02*
X1219505Y-3866850D01*
X1219505Y-3866850D02*
X1248077Y-3866850D01*
X1248077Y-3866850D02*
X1267125Y-3876374D01*
X1267125Y-3876374D02*
X1276648Y-3895422D01*
X1276648Y-3895422D02*
X1276648Y-4000184D01*
X1371886Y-4000184D02*
X1371886Y-3866850D01*
X1371886Y-3885898D02*
X1381410Y-3876374D01*
X1381410Y-3876374D02*
X1400458Y-3866850D01*
X1400458Y-3866850D02*
X1429029Y-3866850D01*
X1429029Y-3866850D02*
X1448077Y-3876374D01*
X1448077Y-3876374D02*
X1457601Y-3895422D01*
X1457601Y-3895422D02*
X1457601Y-4000184D01*
X1457601Y-3895422D02*
X1467124Y-3876374D01*
X1467124Y-3876374D02*
X1486172Y-3866850D01*
X1486172Y-3866850D02*
X1514743Y-3866850D01*
X1514743Y-3866850D02*
X1533791Y-3876374D01*
X1533791Y-3876374D02*
X1543315Y-3895422D01*
X1543315Y-3895422D02*
X1543315Y-4000184D01*
X1933791Y-3790660D02*
X1762363Y-4047803D01*
X2190934Y-3800184D02*
X2209982Y-3800184D01*
X2209982Y-3800184D02*
X2229029Y-3809708D01*
X2229029Y-3809708D02*
X2238553Y-3819231D01*
X2238553Y-3819231D02*
X2248077Y-3838279D01*
X2248077Y-3838279D02*
X2257601Y-3876374D01*
X2257601Y-3876374D02*
X2257601Y-3923993D01*
X2257601Y-3923993D02*
X2248077Y-3962088D01*
X2248077Y-3962088D02*
X2238553Y-3981136D01*
X2238553Y-3981136D02*
X2229029Y-3990660D01*
X2229029Y-3990660D02*
X2209982Y-4000184D01*
X2209982Y-4000184D02*
X2190934Y-4000184D01*
X2190934Y-4000184D02*
X2171887Y-3990660D01*
X2171887Y-3990660D02*
X2162363Y-3981136D01*
X2162363Y-3981136D02*
X2152839Y-3962088D01*
X2152839Y-3962088D02*
X2143315Y-3923993D01*
X2143315Y-3923993D02*
X2143315Y-3876374D01*
X2143315Y-3876374D02*
X2152839Y-3838279D01*
X2152839Y-3838279D02*
X2162363Y-3819231D01*
X2162363Y-3819231D02*
X2171887Y-3809708D01*
X2171887Y-3809708D02*
X2190934Y-3800184D01*
X2343315Y-3981136D02*
X2352839Y-3990660D01*
X2352839Y-3990660D02*
X2343315Y-4000184D01*
X2343315Y-4000184D02*
X2333791Y-3990660D01*
X2333791Y-3990660D02*
X2343315Y-3981136D01*
X2343315Y-3981136D02*
X2343315Y-4000184D01*
X2476648Y-3800184D02*
X2495696Y-3800184D01*
X2495696Y-3800184D02*
X2514744Y-3809708D01*
X2514744Y-3809708D02*
X2524268Y-3819231D01*
X2524268Y-3819231D02*
X2533791Y-3838279D01*
X2533791Y-3838279D02*
X2543315Y-3876374D01*
X2543315Y-3876374D02*
X2543315Y-3923993D01*
X2543315Y-3923993D02*
X2533791Y-3962088D01*
X2533791Y-3962088D02*
X2524268Y-3981136D01*
X2524268Y-3981136D02*
X2514744Y-3990660D01*
X2514744Y-3990660D02*
X2495696Y-4000184D01*
X2495696Y-4000184D02*
X2476648Y-4000184D01*
X2476648Y-4000184D02*
X2457601Y-3990660D01*
X2457601Y-3990660D02*
X2448077Y-3981136D01*
X2448077Y-3981136D02*
X2438553Y-3962088D01*
X2438553Y-3962088D02*
X2429029Y-3923993D01*
X2429029Y-3923993D02*
X2429029Y-3876374D01*
X2429029Y-3876374D02*
X2438553Y-3838279D01*
X2438553Y-3838279D02*
X2448077Y-3819231D01*
X2448077Y-3819231D02*
X2457601Y-3809708D01*
X2457601Y-3809708D02*
X2476648Y-3800184D01*
X2609982Y-3800184D02*
X2733791Y-3800184D01*
X2733791Y-3800184D02*
X2667125Y-3876374D01*
X2667125Y-3876374D02*
X2695696Y-3876374D01*
X2695696Y-3876374D02*
X2714744Y-3885898D01*
X2714744Y-3885898D02*
X2724268Y-3895422D01*
X2724268Y-3895422D02*
X2733791Y-3914469D01*
X2733791Y-3914469D02*
X2733791Y-3962088D01*
X2733791Y-3962088D02*
X2724268Y-3981136D01*
X2724268Y-3981136D02*
X2714744Y-3990660D01*
X2714744Y-3990660D02*
X2695696Y-4000184D01*
X2695696Y-4000184D02*
X2638553Y-4000184D01*
X2638553Y-4000184D02*
X2619506Y-3990660D01*
X2619506Y-3990660D02*
X2609982Y-3981136D01*
X2829029Y-4000184D02*
X2867125Y-4000184D01*
X2867125Y-4000184D02*
X2886172Y-3990660D01*
X2886172Y-3990660D02*
X2895696Y-3981136D01*
X2895696Y-3981136D02*
X2914744Y-3952565D01*
X2914744Y-3952565D02*
X2924267Y-3914469D01*
X2924267Y-3914469D02*
X2924267Y-3838279D01*
X2924267Y-3838279D02*
X2914744Y-3819231D01*
X2914744Y-3819231D02*
X2905220Y-3809708D01*
X2905220Y-3809708D02*
X2886172Y-3800184D01*
X2886172Y-3800184D02*
X2848077Y-3800184D01*
X2848077Y-3800184D02*
X2829029Y-3809708D01*
X2829029Y-3809708D02*
X2819506Y-3819231D01*
X2819506Y-3819231D02*
X2809982Y-3838279D01*
X2809982Y-3838279D02*
X2809982Y-3885898D01*
X2809982Y-3885898D02*
X2819506Y-3904946D01*
X2819506Y-3904946D02*
X2829029Y-3914469D01*
X2829029Y-3914469D02*
X2848077Y-3923993D01*
X2848077Y-3923993D02*
X2886172Y-3923993D01*
X2886172Y-3923993D02*
X2905220Y-3914469D01*
X2905220Y-3914469D02*
X2914744Y-3904946D01*
X2914744Y-3904946D02*
X2924267Y-3885898D01*
X3095696Y-3866850D02*
X3095696Y-4000184D01*
X3048077Y-3790660D02*
X3000458Y-3933517D01*
X3000458Y-3933517D02*
X3124267Y-3933517D01*
X3190934Y-3800184D02*
X3190934Y-3838279D01*
X3267125Y-3800184D02*
X3267125Y-3838279D01*
X3562363Y-4076374D02*
X3552839Y-4066850D01*
X3552839Y-4066850D02*
X3533791Y-4038279D01*
X3533791Y-4038279D02*
X3524268Y-4019231D01*
X3524268Y-4019231D02*
X3514744Y-3990660D01*
X3514744Y-3990660D02*
X3505220Y-3943041D01*
X3505220Y-3943041D02*
X3505220Y-3904946D01*
X3505220Y-3904946D02*
X3514744Y-3857327D01*
X3514744Y-3857327D02*
X3524268Y-3828755D01*
X3524268Y-3828755D02*
X3533791Y-3809708D01*
X3533791Y-3809708D02*
X3552839Y-3781136D01*
X3552839Y-3781136D02*
X3562363Y-3771612D01*
X3667125Y-3885898D02*
X3648077Y-3876374D01*
X3648077Y-3876374D02*
X3638553Y-3866850D01*
X3638553Y-3866850D02*
X3629029Y-3847803D01*
X3629029Y-3847803D02*
X3629029Y-3838279D01*
X3629029Y-3838279D02*
X3638553Y-3819231D01*
X3638553Y-3819231D02*
X3648077Y-3809708D01*
X3648077Y-3809708D02*
X3667125Y-3800184D01*
X3667125Y-3800184D02*
X3705220Y-3800184D01*
X3705220Y-3800184D02*
X3724268Y-3809708D01*
X3724268Y-3809708D02*
X3733791Y-3819231D01*
X3733791Y-3819231D02*
X3743315Y-3838279D01*
X3743315Y-3838279D02*
X3743315Y-3847803D01*
X3743315Y-3847803D02*
X3733791Y-3866850D01*
X3733791Y-3866850D02*
X3724268Y-3876374D01*
X3724268Y-3876374D02*
X3705220Y-3885898D01*
X3705220Y-3885898D02*
X3667125Y-3885898D01*
X3667125Y-3885898D02*
X3648077Y-3895422D01*
X3648077Y-3895422D02*
X3638553Y-3904946D01*
X3638553Y-3904946D02*
X3629029Y-3923993D01*
X3629029Y-3923993D02*
X3629029Y-3962088D01*
X3629029Y-3962088D02*
X3638553Y-3981136D01*
X3638553Y-3981136D02*
X3648077Y-3990660D01*
X3648077Y-3990660D02*
X3667125Y-4000184D01*
X3667125Y-4000184D02*
X3705220Y-4000184D01*
X3705220Y-4000184D02*
X3724268Y-3990660D01*
X3724268Y-3990660D02*
X3733791Y-3981136D01*
X3733791Y-3981136D02*
X3743315Y-3962088D01*
X3743315Y-3962088D02*
X3743315Y-3923993D01*
X3743315Y-3923993D02*
X3733791Y-3904946D01*
X3733791Y-3904946D02*
X3724268Y-3895422D01*
X3724268Y-3895422D02*
X3705220Y-3885898D01*
X3981410Y-4000184D02*
X3981410Y-3800184D01*
X4067125Y-4000184D02*
X4067125Y-3895422D01*
X4067125Y-3895422D02*
X4057601Y-3876374D01*
X4057601Y-3876374D02*
X4038553Y-3866850D01*
X4038553Y-3866850D02*
X4009982Y-3866850D01*
X4009982Y-3866850D02*
X3990934Y-3876374D01*
X3990934Y-3876374D02*
X3981410Y-3885898D01*
X4190934Y-4000184D02*
X4171887Y-3990660D01*
X4171887Y-3990660D02*
X4162363Y-3981136D01*
X4162363Y-3981136D02*
X4152839Y-3962088D01*
X4152839Y-3962088D02*
X4152839Y-3904946D01*
X4152839Y-3904946D02*
X4162363Y-3885898D01*
X4162363Y-3885898D02*
X4171887Y-3876374D01*
X4171887Y-3876374D02*
X4190934Y-3866850D01*
X4190934Y-3866850D02*
X4219506Y-3866850D01*
X4219506Y-3866850D02*
X4238553Y-3876374D01*
X4238553Y-3876374D02*
X4248077Y-3885898D01*
X4248077Y-3885898D02*
X4257601Y-3904946D01*
X4257601Y-3904946D02*
X4257601Y-3962088D01*
X4257601Y-3962088D02*
X4248077Y-3981136D01*
X4248077Y-3981136D02*
X4238553Y-3990660D01*
X4238553Y-3990660D02*
X4219506Y-4000184D01*
X4219506Y-4000184D02*
X4190934Y-4000184D01*
X4371887Y-4000184D02*
X4352839Y-3990660D01*
X4352839Y-3990660D02*
X4343315Y-3971612D01*
X4343315Y-3971612D02*
X4343315Y-3800184D01*
X4524268Y-3990660D02*
X4505220Y-4000184D01*
X4505220Y-4000184D02*
X4467125Y-4000184D01*
X4467125Y-4000184D02*
X4448077Y-3990660D01*
X4448077Y-3990660D02*
X4438553Y-3971612D01*
X4438553Y-3971612D02*
X4438553Y-3895422D01*
X4438553Y-3895422D02*
X4448077Y-3876374D01*
X4448077Y-3876374D02*
X4467125Y-3866850D01*
X4467125Y-3866850D02*
X4505220Y-3866850D01*
X4505220Y-3866850D02*
X4524268Y-3876374D01*
X4524268Y-3876374D02*
X4533792Y-3895422D01*
X4533792Y-3895422D02*
X4533792Y-3914469D01*
X4533792Y-3914469D02*
X4438553Y-3933517D01*
X4609982Y-3990660D02*
X4629030Y-4000184D01*
X4629030Y-4000184D02*
X4667125Y-4000184D01*
X4667125Y-4000184D02*
X4686173Y-3990660D01*
X4686173Y-3990660D02*
X4695696Y-3971612D01*
X4695696Y-3971612D02*
X4695696Y-3962088D01*
X4695696Y-3962088D02*
X4686173Y-3943041D01*
X4686173Y-3943041D02*
X4667125Y-3933517D01*
X4667125Y-3933517D02*
X4638553Y-3933517D01*
X4638553Y-3933517D02*
X4619506Y-3923993D01*
X4619506Y-3923993D02*
X4609982Y-3904946D01*
X4609982Y-3904946D02*
X4609982Y-3895422D01*
X4609982Y-3895422D02*
X4619506Y-3876374D01*
X4619506Y-3876374D02*
X4638553Y-3866850D01*
X4638553Y-3866850D02*
X4667125Y-3866850D01*
X4667125Y-3866850D02*
X4686173Y-3876374D01*
X4762363Y-4076374D02*
X4771887Y-4066850D01*
X4771887Y-4066850D02*
X4790934Y-4038279D01*
X4790934Y-4038279D02*
X4800458Y-4019231D01*
X4800458Y-4019231D02*
X4809982Y-3990660D01*
X4809982Y-3990660D02*
X4819506Y-3943041D01*
X4819506Y-3943041D02*
X4819506Y-3904946D01*
X4819506Y-3904946D02*
X4809982Y-3857327D01*
X4809982Y-3857327D02*
X4800458Y-3828755D01*
X4800458Y-3828755D02*
X4790934Y-3809708D01*
X4790934Y-3809708D02*
X4771887Y-3781136D01*
X4771887Y-3781136D02*
X4762363Y-3771612D01*
X-212700Y-4072700D02*
X-12700Y-4272700D01*
X-12700Y-4072700D02*
X-212700Y-4272700D01*
X-12700Y-4172700D02*
G75*
G02*
X-212700Y-4172700I-100000J0D01*
G01*
X-212700Y-4172700D02*
G75*
G02*
X-12700Y-4172700I100000J0D01*
G01*
X238553Y-4083231D02*
X248077Y-4073708D01*
X248077Y-4073708D02*
X267124Y-4064184D01*
X267124Y-4064184D02*
X314744Y-4064184D01*
X314744Y-4064184D02*
X333791Y-4073708D01*
X333791Y-4073708D02*
X343315Y-4083231D01*
X343315Y-4083231D02*
X352839Y-4102279D01*
X352839Y-4102279D02*
X352839Y-4121327D01*
X352839Y-4121327D02*
X343315Y-4149898D01*
X343315Y-4149898D02*
X229029Y-4264184D01*
X229029Y-4264184D02*
X352839Y-4264184D01*
X438553Y-4245136D02*
X448077Y-4254660D01*
X448077Y-4254660D02*
X438553Y-4264184D01*
X438553Y-4264184D02*
X429029Y-4254660D01*
X429029Y-4254660D02*
X438553Y-4245136D01*
X438553Y-4245136D02*
X438553Y-4264184D01*
X571886Y-4064184D02*
X590934Y-4064184D01*
X590934Y-4064184D02*
X609982Y-4073708D01*
X609982Y-4073708D02*
X619505Y-4083231D01*
X619505Y-4083231D02*
X629029Y-4102279D01*
X629029Y-4102279D02*
X638553Y-4140374D01*
X638553Y-4140374D02*
X638553Y-4187993D01*
X638553Y-4187993D02*
X629029Y-4226089D01*
X629029Y-4226089D02*
X619505Y-4245136D01*
X619505Y-4245136D02*
X609982Y-4254660D01*
X609982Y-4254660D02*
X590934Y-4264184D01*
X590934Y-4264184D02*
X571886Y-4264184D01*
X571886Y-4264184D02*
X552839Y-4254660D01*
X552839Y-4254660D02*
X543315Y-4245136D01*
X543315Y-4245136D02*
X533791Y-4226089D01*
X533791Y-4226089D02*
X524267Y-4187993D01*
X524267Y-4187993D02*
X524267Y-4140374D01*
X524267Y-4140374D02*
X533791Y-4102279D01*
X533791Y-4102279D02*
X543315Y-4083231D01*
X543315Y-4083231D02*
X552839Y-4073708D01*
X552839Y-4073708D02*
X571886Y-4064184D01*
X762362Y-4064184D02*
X781410Y-4064184D01*
X781410Y-4064184D02*
X800458Y-4073708D01*
X800458Y-4073708D02*
X809982Y-4083231D01*
X809982Y-4083231D02*
X819505Y-4102279D01*
X819505Y-4102279D02*
X829029Y-4140374D01*
X829029Y-4140374D02*
X829029Y-4187993D01*
X829029Y-4187993D02*
X819505Y-4226089D01*
X819505Y-4226089D02*
X809982Y-4245136D01*
X809982Y-4245136D02*
X800458Y-4254660D01*
X800458Y-4254660D02*
X781410Y-4264184D01*
X781410Y-4264184D02*
X762362Y-4264184D01*
X762362Y-4264184D02*
X743315Y-4254660D01*
X743315Y-4254660D02*
X733791Y-4245136D01*
X733791Y-4245136D02*
X724267Y-4226089D01*
X724267Y-4226089D02*
X714743Y-4187993D01*
X714743Y-4187993D02*
X714743Y-4140374D01*
X714743Y-4140374D02*
X724267Y-4102279D01*
X724267Y-4102279D02*
X733791Y-4083231D01*
X733791Y-4083231D02*
X743315Y-4073708D01*
X743315Y-4073708D02*
X762362Y-4064184D01*
X952839Y-4064184D02*
X971886Y-4064184D01*
X971886Y-4064184D02*
X990934Y-4073708D01*
X990934Y-4073708D02*
X1000458Y-4083231D01*
X1000458Y-4083231D02*
X1009982Y-4102279D01*
X1009982Y-4102279D02*
X1019505Y-4140374D01*
X1019505Y-4140374D02*
X1019505Y-4187993D01*
X1019505Y-4187993D02*
X1009982Y-4226089D01*
X1009982Y-4226089D02*
X1000458Y-4245136D01*
X1000458Y-4245136D02*
X990934Y-4254660D01*
X990934Y-4254660D02*
X971886Y-4264184D01*
X971886Y-4264184D02*
X952839Y-4264184D01*
X952839Y-4264184D02*
X933791Y-4254660D01*
X933791Y-4254660D02*
X924267Y-4245136D01*
X924267Y-4245136D02*
X914743Y-4226089D01*
X914743Y-4226089D02*
X905220Y-4187993D01*
X905220Y-4187993D02*
X905220Y-4140374D01*
X905220Y-4140374D02*
X914743Y-4102279D01*
X914743Y-4102279D02*
X924267Y-4083231D01*
X924267Y-4083231D02*
X933791Y-4073708D01*
X933791Y-4073708D02*
X952839Y-4064184D01*
X1105220Y-4264184D02*
X1105220Y-4130850D01*
X1105220Y-4149898D02*
X1114744Y-4140374D01*
X1114744Y-4140374D02*
X1133791Y-4130850D01*
X1133791Y-4130850D02*
X1162363Y-4130850D01*
X1162363Y-4130850D02*
X1181410Y-4140374D01*
X1181410Y-4140374D02*
X1190934Y-4159422D01*
X1190934Y-4159422D02*
X1190934Y-4264184D01*
X1190934Y-4159422D02*
X1200458Y-4140374D01*
X1200458Y-4140374D02*
X1219505Y-4130850D01*
X1219505Y-4130850D02*
X1248077Y-4130850D01*
X1248077Y-4130850D02*
X1267125Y-4140374D01*
X1267125Y-4140374D02*
X1276648Y-4159422D01*
X1276648Y-4159422D02*
X1276648Y-4264184D01*
X1371886Y-4264184D02*
X1371886Y-4130850D01*
X1371886Y-4149898D02*
X1381410Y-4140374D01*
X1381410Y-4140374D02*
X1400458Y-4130850D01*
X1400458Y-4130850D02*
X1429029Y-4130850D01*
X1429029Y-4130850D02*
X1448077Y-4140374D01*
X1448077Y-4140374D02*
X1457601Y-4159422D01*
X1457601Y-4159422D02*
X1457601Y-4264184D01*
X1457601Y-4159422D02*
X1467124Y-4140374D01*
X1467124Y-4140374D02*
X1486172Y-4130850D01*
X1486172Y-4130850D02*
X1514743Y-4130850D01*
X1514743Y-4130850D02*
X1533791Y-4140374D01*
X1533791Y-4140374D02*
X1543315Y-4159422D01*
X1543315Y-4159422D02*
X1543315Y-4264184D01*
X1933791Y-4054660D02*
X1762363Y-4311803D01*
X2190934Y-4064184D02*
X2209982Y-4064184D01*
X2209982Y-4064184D02*
X2229029Y-4073708D01*
X2229029Y-4073708D02*
X2238553Y-4083231D01*
X2238553Y-4083231D02*
X2248077Y-4102279D01*
X2248077Y-4102279D02*
X2257601Y-4140374D01*
X2257601Y-4140374D02*
X2257601Y-4187993D01*
X2257601Y-4187993D02*
X2248077Y-4226089D01*
X2248077Y-4226089D02*
X2238553Y-4245136D01*
X2238553Y-4245136D02*
X2229029Y-4254660D01*
X2229029Y-4254660D02*
X2209982Y-4264184D01*
X2209982Y-4264184D02*
X2190934Y-4264184D01*
X2190934Y-4264184D02*
X2171887Y-4254660D01*
X2171887Y-4254660D02*
X2162363Y-4245136D01*
X2162363Y-4245136D02*
X2152839Y-4226089D01*
X2152839Y-4226089D02*
X2143315Y-4187993D01*
X2143315Y-4187993D02*
X2143315Y-4140374D01*
X2143315Y-4140374D02*
X2152839Y-4102279D01*
X2152839Y-4102279D02*
X2162363Y-4083231D01*
X2162363Y-4083231D02*
X2171887Y-4073708D01*
X2171887Y-4073708D02*
X2190934Y-4064184D01*
X2343315Y-4245136D02*
X2352839Y-4254660D01*
X2352839Y-4254660D02*
X2343315Y-4264184D01*
X2343315Y-4264184D02*
X2333791Y-4254660D01*
X2333791Y-4254660D02*
X2343315Y-4245136D01*
X2343315Y-4245136D02*
X2343315Y-4264184D01*
X2476648Y-4064184D02*
X2495696Y-4064184D01*
X2495696Y-4064184D02*
X2514744Y-4073708D01*
X2514744Y-4073708D02*
X2524268Y-4083231D01*
X2524268Y-4083231D02*
X2533791Y-4102279D01*
X2533791Y-4102279D02*
X2543315Y-4140374D01*
X2543315Y-4140374D02*
X2543315Y-4187993D01*
X2543315Y-4187993D02*
X2533791Y-4226089D01*
X2533791Y-4226089D02*
X2524268Y-4245136D01*
X2524268Y-4245136D02*
X2514744Y-4254660D01*
X2514744Y-4254660D02*
X2495696Y-4264184D01*
X2495696Y-4264184D02*
X2476648Y-4264184D01*
X2476648Y-4264184D02*
X2457601Y-4254660D01*
X2457601Y-4254660D02*
X2448077Y-4245136D01*
X2448077Y-4245136D02*
X2438553Y-4226089D01*
X2438553Y-4226089D02*
X2429029Y-4187993D01*
X2429029Y-4187993D02*
X2429029Y-4140374D01*
X2429029Y-4140374D02*
X2438553Y-4102279D01*
X2438553Y-4102279D02*
X2448077Y-4083231D01*
X2448077Y-4083231D02*
X2457601Y-4073708D01*
X2457601Y-4073708D02*
X2476648Y-4064184D01*
X2609982Y-4064184D02*
X2743315Y-4064184D01*
X2743315Y-4064184D02*
X2657601Y-4264184D01*
X2848077Y-4149898D02*
X2829029Y-4140374D01*
X2829029Y-4140374D02*
X2819506Y-4130850D01*
X2819506Y-4130850D02*
X2809982Y-4111803D01*
X2809982Y-4111803D02*
X2809982Y-4102279D01*
X2809982Y-4102279D02*
X2819506Y-4083231D01*
X2819506Y-4083231D02*
X2829029Y-4073708D01*
X2829029Y-4073708D02*
X2848077Y-4064184D01*
X2848077Y-4064184D02*
X2886172Y-4064184D01*
X2886172Y-4064184D02*
X2905220Y-4073708D01*
X2905220Y-4073708D02*
X2914744Y-4083231D01*
X2914744Y-4083231D02*
X2924267Y-4102279D01*
X2924267Y-4102279D02*
X2924267Y-4111803D01*
X2924267Y-4111803D02*
X2914744Y-4130850D01*
X2914744Y-4130850D02*
X2905220Y-4140374D01*
X2905220Y-4140374D02*
X2886172Y-4149898D01*
X2886172Y-4149898D02*
X2848077Y-4149898D01*
X2848077Y-4149898D02*
X2829029Y-4159422D01*
X2829029Y-4159422D02*
X2819506Y-4168946D01*
X2819506Y-4168946D02*
X2809982Y-4187993D01*
X2809982Y-4187993D02*
X2809982Y-4226089D01*
X2809982Y-4226089D02*
X2819506Y-4245136D01*
X2819506Y-4245136D02*
X2829029Y-4254660D01*
X2829029Y-4254660D02*
X2848077Y-4264184D01*
X2848077Y-4264184D02*
X2886172Y-4264184D01*
X2886172Y-4264184D02*
X2905220Y-4254660D01*
X2905220Y-4254660D02*
X2914744Y-4245136D01*
X2914744Y-4245136D02*
X2924267Y-4226089D01*
X2924267Y-4226089D02*
X2924267Y-4187993D01*
X2924267Y-4187993D02*
X2914744Y-4168946D01*
X2914744Y-4168946D02*
X2905220Y-4159422D01*
X2905220Y-4159422D02*
X2886172Y-4149898D01*
X2990934Y-4064184D02*
X3124267Y-4064184D01*
X3124267Y-4064184D02*
X3038553Y-4264184D01*
X3190934Y-4064184D02*
X3190934Y-4102279D01*
X3267125Y-4064184D02*
X3267125Y-4102279D01*
X3562363Y-4340374D02*
X3552839Y-4330850D01*
X3552839Y-4330850D02*
X3533791Y-4302279D01*
X3533791Y-4302279D02*
X3524268Y-4283231D01*
X3524268Y-4283231D02*
X3514744Y-4254660D01*
X3514744Y-4254660D02*
X3505220Y-4207041D01*
X3505220Y-4207041D02*
X3505220Y-4168946D01*
X3505220Y-4168946D02*
X3514744Y-4121327D01*
X3514744Y-4121327D02*
X3524268Y-4092755D01*
X3524268Y-4092755D02*
X3533791Y-4073708D01*
X3533791Y-4073708D02*
X3552839Y-4045136D01*
X3552839Y-4045136D02*
X3562363Y-4035612D01*
X3629029Y-4083231D02*
X3638553Y-4073708D01*
X3638553Y-4073708D02*
X3657601Y-4064184D01*
X3657601Y-4064184D02*
X3705220Y-4064184D01*
X3705220Y-4064184D02*
X3724268Y-4073708D01*
X3724268Y-4073708D02*
X3733791Y-4083231D01*
X3733791Y-4083231D02*
X3743315Y-4102279D01*
X3743315Y-4102279D02*
X3743315Y-4121327D01*
X3743315Y-4121327D02*
X3733791Y-4149898D01*
X3733791Y-4149898D02*
X3619506Y-4264184D01*
X3619506Y-4264184D02*
X3743315Y-4264184D01*
X3981410Y-4264184D02*
X3981410Y-4064184D01*
X4067125Y-4264184D02*
X4067125Y-4159422D01*
X4067125Y-4159422D02*
X4057601Y-4140374D01*
X4057601Y-4140374D02*
X4038553Y-4130850D01*
X4038553Y-4130850D02*
X4009982Y-4130850D01*
X4009982Y-4130850D02*
X3990934Y-4140374D01*
X3990934Y-4140374D02*
X3981410Y-4149898D01*
X4190934Y-4264184D02*
X4171887Y-4254660D01*
X4171887Y-4254660D02*
X4162363Y-4245136D01*
X4162363Y-4245136D02*
X4152839Y-4226089D01*
X4152839Y-4226089D02*
X4152839Y-4168946D01*
X4152839Y-4168946D02*
X4162363Y-4149898D01*
X4162363Y-4149898D02*
X4171887Y-4140374D01*
X4171887Y-4140374D02*
X4190934Y-4130850D01*
X4190934Y-4130850D02*
X4219506Y-4130850D01*
X4219506Y-4130850D02*
X4238553Y-4140374D01*
X4238553Y-4140374D02*
X4248077Y-4149898D01*
X4248077Y-4149898D02*
X4257601Y-4168946D01*
X4257601Y-4168946D02*
X4257601Y-4226089D01*
X4257601Y-4226089D02*
X4248077Y-4245136D01*
X4248077Y-4245136D02*
X4238553Y-4254660D01*
X4238553Y-4254660D02*
X4219506Y-4264184D01*
X4219506Y-4264184D02*
X4190934Y-4264184D01*
X4371887Y-4264184D02*
X4352839Y-4254660D01*
X4352839Y-4254660D02*
X4343315Y-4235612D01*
X4343315Y-4235612D02*
X4343315Y-4064184D01*
X4524268Y-4254660D02*
X4505220Y-4264184D01*
X4505220Y-4264184D02*
X4467125Y-4264184D01*
X4467125Y-4264184D02*
X4448077Y-4254660D01*
X4448077Y-4254660D02*
X4438553Y-4235612D01*
X4438553Y-4235612D02*
X4438553Y-4159422D01*
X4438553Y-4159422D02*
X4448077Y-4140374D01*
X4448077Y-4140374D02*
X4467125Y-4130850D01*
X4467125Y-4130850D02*
X4505220Y-4130850D01*
X4505220Y-4130850D02*
X4524268Y-4140374D01*
X4524268Y-4140374D02*
X4533792Y-4159422D01*
X4533792Y-4159422D02*
X4533792Y-4178469D01*
X4533792Y-4178469D02*
X4438553Y-4197517D01*
X4609982Y-4254660D02*
X4629030Y-4264184D01*
X4629030Y-4264184D02*
X4667125Y-4264184D01*
X4667125Y-4264184D02*
X4686173Y-4254660D01*
X4686173Y-4254660D02*
X4695696Y-4235612D01*
X4695696Y-4235612D02*
X4695696Y-4226089D01*
X4695696Y-4226089D02*
X4686173Y-4207041D01*
X4686173Y-4207041D02*
X4667125Y-4197517D01*
X4667125Y-4197517D02*
X4638553Y-4197517D01*
X4638553Y-4197517D02*
X4619506Y-4187993D01*
X4619506Y-4187993D02*
X4609982Y-4168946D01*
X4609982Y-4168946D02*
X4609982Y-4159422D01*
X4609982Y-4159422D02*
X4619506Y-4140374D01*
X4619506Y-4140374D02*
X4638553Y-4130850D01*
X4638553Y-4130850D02*
X4667125Y-4130850D01*
X4667125Y-4130850D02*
X4686173Y-4140374D01*
X4762363Y-4340374D02*
X4771887Y-4330850D01*
X4771887Y-4330850D02*
X4790934Y-4302279D01*
X4790934Y-4302279D02*
X4800458Y-4283231D01*
X4800458Y-4283231D02*
X4809982Y-4254660D01*
X4809982Y-4254660D02*
X4819506Y-4207041D01*
X4819506Y-4207041D02*
X4819506Y-4168946D01*
X4819506Y-4168946D02*
X4809982Y-4121327D01*
X4809982Y-4121327D02*
X4800458Y-4092755D01*
X4800458Y-4092755D02*
X4790934Y-4073708D01*
X4790934Y-4073708D02*
X4771887Y-4045136D01*
X4771887Y-4045136D02*
X4762363Y-4035612D01*
M02*
