M48
; DRILL file KiCad 10.0.6 date 2026-09-07T09:22:53
; FORMAT={-:-/ absolute / metric / decimal}
; #@! TF.CreationDate,2026-09-07T09:22:53+02:00
; #@! TF.GenerationSoftware,Kicad,Pcbnew,10.0.6
; #@! TF.FileFunction,Plated,1,2,PTH
FMAT,2
METRIC
; #@! TA.AperFunction,Plated,PTH,ViaDrill
T1C0.250
; #@! TA.AperFunction,Plated,PTH,ViaDrill
T2C0.300
; #@! TA.AperFunction,Plated,PTH,ComponentDrill
T3C0.600
; #@! TA.AperFunction,Plated,PTH,ComponentDrill
T4C0.900
; #@! TA.AperFunction,Plated,PTH,ComponentDrill
T5C1.000
; #@! TA.AperFunction,Plated,PTH,ComponentDrill
T6C2.000
%
G90
G05
T1
X120.525Y-97.213
X120.525Y-94.14
X120.576Y-92.596
X121.168Y-104.325
X121.219Y-102.7
X121.321Y-100.566
X121.371Y-101.735
X121.371Y-105.951
X121.625Y-90.762
X122.997Y-107.12
X123.759Y-90.525
X123.759Y-111.234
X124.471Y-108.796
X124.724Y-109.965
X124.826Y-111.031
X125.489Y-108.796
X126.096Y-109.507
X126.299Y-110.218
X126.353Y-108.796
X126.706Y-108.034
X126.807Y-111.336
X127.112Y-107.221
X127.823Y-98.839
X127.874Y-100.465
X127.925Y-97.417
X128.232Y-107.221
X129.124Y-107.221
X129.245Y-96.858
X129.754Y-90.559
X130.007Y-111.133
X130.029Y-108.134
X130.551Y-97.865
X130.617Y-102.293
X130.617Y-105.443
X130.719Y-104.529
X131.379Y-90.559
X131.785Y-108.796
X132.09Y-98.737
X132.243Y-111.082
X132.599Y-96.655
X132.802Y-102.039
X132.88Y-108.796
X132.903Y-90.609
X133.411Y-101.075
X133.817Y-108.796
X133.919Y-111.133
X134.071Y-103.563
X135.05Y-105.402
X135.799Y-101.989
X135.799Y-103.614
X135.799Y-109.05
X135.799Y-110.421
X135.951Y-98.026
X136.561Y-103.532
X136.713Y-110.472
X136.724Y-90.635
X136.865Y-95.486
X136.916Y-93.81
X136.967Y-96.197
X136.969Y-94.684
X137.222Y-108.999
X137.577Y-98.026
X137.577Y-107.831
X137.702Y-94.199
X138.136Y-90.609
X138.186Y-108.49
X138.285Y-94.684
X138.288Y-95.385
X138.339Y-93.81
X138.339Y-110.269
X138.389Y-96.197
X138.552Y-107.319
X139.529Y-109.101
X139.863Y-103.005
X139.892Y-104.419
X140.015Y-98.433
X140.32Y-109.151
X140.472Y-105.341
X140.879Y-98.331
X141.257Y-103.003
X141.257Y-104.419
X141.257Y-105.691
X141.522Y-91.029
X141.59Y-93.607
X141.743Y-99.449
X142.352Y-96.248
X142.606Y-105.697
X142.657Y-103.106
X142.676Y-104.419
X142.924Y-107.94
X143.088Y-96.204
X143.571Y-99.398
X143.86Y-107.456
X144.079Y-101.942
X144.282Y-93.709
X144.5Y-106.169
X144.536Y-99.449
X144.559Y-111.155
X144.841Y-107.627
X145.298Y-96.137
X145.501Y-101.989
X145.527Y-99.398
X146.06Y-108.034
X146.416Y-97.62
X147.229Y-105.494
X147.343Y-94.894
X148.296Y-111.133
X148.45Y-100.8
X148.651Y-95.842
X149.007Y-99.449
X149.5Y-100.8
X150.175Y-99.754
X150.277Y-94.267
X150.317Y-111.11
X150.64Y-103.833
X151.191Y-107.069
X154.696Y-92.947
X154.951Y-104.63
X155.103Y-95.233
X155.103Y-97.721
X155.153Y-102.293
X155.306Y-91.016
X155.509Y-110.929
X155.56Y-99.703
X155.713Y-106.662
X155.865Y-96.553
X156.786Y-104.715
X156.982Y-98.23
X157.135Y-93.81
X157.237Y-95.283
X157.795Y-110.929
X157.897Y-99.754
X158.1Y-102.192
X158.151Y-104.681
X158.151Y-106.713
X158.303Y-97.264
X158.456Y-93.099
X161.097Y-93.911
X161.656Y-111.336
X161.859Y-104.529
X162.266Y-96.959
X162.875Y-106.408
X163.18Y-95.435
X163.688Y-92.032
X163.891Y-90.813
X164.247Y-93.454
X164.808Y-95.439
X164.808Y-106.464
X165.771Y-101.633
X165.873Y-111.234
X165.974Y-98.585
X166.228Y-104.681
X166.888Y-95.588
X166.888Y-97.315
X166.888Y-103.563
X166.888Y-106.459
X167.041Y-100.414
X167.142Y-110.574
X167.295Y-108.389
T2
X139.243Y-97.569
X140.472Y-97.62
T4
X123.275Y-93.81
X123.275Y-95.81
X147.713Y-92.04
X149.713Y-92.04
T5
X164.3Y-97.25
X164.3Y-99.75
X164.3Y-102.25
X164.3Y-104.75
T6
X122.0Y-110.0
X166.0Y-92.0
T3
X121.532Y-98.934G85X120.932Y-98.934
G05
X121.532Y-107.584G85X120.932Y-107.584
G05
X125.882Y-98.934G85X124.982Y-98.934
G05
X125.882Y-107.584G85X124.982Y-107.584
G05
M30
