%TF.GenerationSoftware,KiCad,Pcbnew,10.0.6*%
%TF.CreationDate,2026-09-07T20:10:15+02:00*%
%TF.ProjectId,openrz67,6f70656e-727a-4363-972e-6b696361645f,2*%
%TF.SameCoordinates,Original*%
%TF.FileFunction,Drillmap*%
%TF.FilePolarity,Positive*%
%FSLAX45Y45*%
G04 Gerber Fmt 4.5, Leading zero omitted, Abs format (unit mm)*
G04 Created by KiCad (PCBNEW 10.0.6) date 2026-09-07 20:10:15*
%MOMM*%
%LPD*%
G01*
G04 APERTURE LIST*
%ADD10C,0.254000*%
%ADD11C,0.200000*%
%ADD12C,0.100000*%
G04 APERTURE END LIST*
D10*
X0Y-200000D02*
X0Y-2000000D01*
X0Y-200000D02*
G75*
G02*
X200000Y0I200000J0D01*
G01*
X200000Y0D02*
X4600000Y0D01*
X200000Y-2200000D02*
G75*
G02*
X0Y-2000000I0J200000D01*
G01*
X200000Y-2200000D02*
X4600000Y-2200000D01*
X4600000Y0D02*
G75*
G02*
X4800000Y-200000I0J-200000D01*
G01*
X4800000Y-200000D02*
X4800000Y-2000000D01*
X4800000Y-2000000D02*
G75*
G02*
X4600000Y-2200000I-200000J0D01*
G01*
D11*
D12*
X456200Y-1001900D02*
X526200Y-1071900D01*
X526200Y-1001900D02*
X456200Y-1071900D01*
X456200Y-1579900D02*
X526200Y-1649900D01*
X526200Y-1579900D02*
X456200Y-1649900D01*
D11*
X248077Y-2524184D02*
X248077Y-2324184D01*
X248077Y-2324184D02*
X295696Y-2324184D01*
X295696Y-2324184D02*
X324267Y-2333708D01*
X324267Y-2333708D02*
X343315Y-2352755D01*
X343315Y-2352755D02*
X352839Y-2371803D01*
X352839Y-2371803D02*
X362362Y-2409898D01*
X362362Y-2409898D02*
X362362Y-2438470D01*
X362362Y-2438470D02*
X352839Y-2476565D01*
X352839Y-2476565D02*
X343315Y-2495612D01*
X343315Y-2495612D02*
X324267Y-2514660D01*
X324267Y-2514660D02*
X295696Y-2524184D01*
X295696Y-2524184D02*
X248077Y-2524184D01*
X448077Y-2524184D02*
X448077Y-2390850D01*
X448077Y-2428946D02*
X457601Y-2409898D01*
X457601Y-2409898D02*
X467124Y-2400374D01*
X467124Y-2400374D02*
X486172Y-2390850D01*
X486172Y-2390850D02*
X505220Y-2390850D01*
X571886Y-2524184D02*
X571886Y-2390850D01*
X571886Y-2324184D02*
X562363Y-2333708D01*
X562363Y-2333708D02*
X571886Y-2343231D01*
X571886Y-2343231D02*
X581410Y-2333708D01*
X581410Y-2333708D02*
X571886Y-2324184D01*
X571886Y-2324184D02*
X571886Y-2343231D01*
X695696Y-2524184D02*
X676648Y-2514660D01*
X676648Y-2514660D02*
X667124Y-2495612D01*
X667124Y-2495612D02*
X667124Y-2324184D01*
X800458Y-2524184D02*
X781410Y-2514660D01*
X781410Y-2514660D02*
X771886Y-2495612D01*
X771886Y-2495612D02*
X771886Y-2324184D01*
X1029029Y-2524184D02*
X1029029Y-2324184D01*
X1029029Y-2324184D02*
X1095696Y-2467041D01*
X1095696Y-2467041D02*
X1162363Y-2324184D01*
X1162363Y-2324184D02*
X1162363Y-2524184D01*
X1343315Y-2524184D02*
X1343315Y-2419422D01*
X1343315Y-2419422D02*
X1333791Y-2400374D01*
X1333791Y-2400374D02*
X1314744Y-2390850D01*
X1314744Y-2390850D02*
X1276648Y-2390850D01*
X1276648Y-2390850D02*
X1257601Y-2400374D01*
X1343315Y-2514660D02*
X1324267Y-2524184D01*
X1324267Y-2524184D02*
X1276648Y-2524184D01*
X1276648Y-2524184D02*
X1257601Y-2514660D01*
X1257601Y-2514660D02*
X1248077Y-2495612D01*
X1248077Y-2495612D02*
X1248077Y-2476565D01*
X1248077Y-2476565D02*
X1257601Y-2457517D01*
X1257601Y-2457517D02*
X1276648Y-2447993D01*
X1276648Y-2447993D02*
X1324267Y-2447993D01*
X1324267Y-2447993D02*
X1343315Y-2438470D01*
X1438553Y-2390850D02*
X1438553Y-2590850D01*
X1438553Y-2400374D02*
X1457601Y-2390850D01*
X1457601Y-2390850D02*
X1495696Y-2390850D01*
X1495696Y-2390850D02*
X1514743Y-2400374D01*
X1514743Y-2400374D02*
X1524267Y-2409898D01*
X1524267Y-2409898D02*
X1533791Y-2428946D01*
X1533791Y-2428946D02*
X1533791Y-2486089D01*
X1533791Y-2486089D02*
X1524267Y-2505136D01*
X1524267Y-2505136D02*
X1514743Y-2514660D01*
X1514743Y-2514660D02*
X1495696Y-2524184D01*
X1495696Y-2524184D02*
X1457601Y-2524184D01*
X1457601Y-2524184D02*
X1438553Y-2514660D01*
X1619505Y-2505136D02*
X1629029Y-2514660D01*
X1629029Y-2514660D02*
X1619505Y-2524184D01*
X1619505Y-2524184D02*
X1609982Y-2514660D01*
X1609982Y-2514660D02*
X1619505Y-2505136D01*
X1619505Y-2505136D02*
X1619505Y-2524184D01*
X1619505Y-2400374D02*
X1629029Y-2409898D01*
X1629029Y-2409898D02*
X1619505Y-2419422D01*
X1619505Y-2419422D02*
X1609982Y-2409898D01*
X1609982Y-2409898D02*
X1619505Y-2400374D01*
X1619505Y-2400374D02*
X1619505Y-2419422D01*
D12*
X-82700Y-2817700D02*
X-12700Y-2887700D01*
X-12700Y-2817700D02*
X-82700Y-2887700D01*
D11*
X286172Y-2744184D02*
X305220Y-2744184D01*
X305220Y-2744184D02*
X324267Y-2753708D01*
X324267Y-2753708D02*
X333791Y-2763231D01*
X333791Y-2763231D02*
X343315Y-2782279D01*
X343315Y-2782279D02*
X352839Y-2820374D01*
X352839Y-2820374D02*
X352839Y-2867993D01*
X352839Y-2867993D02*
X343315Y-2906088D01*
X343315Y-2906088D02*
X333791Y-2925136D01*
X333791Y-2925136D02*
X324267Y-2934660D01*
X324267Y-2934660D02*
X305220Y-2944184D01*
X305220Y-2944184D02*
X286172Y-2944184D01*
X286172Y-2944184D02*
X267124Y-2934660D01*
X267124Y-2934660D02*
X257601Y-2925136D01*
X257601Y-2925136D02*
X248077Y-2906088D01*
X248077Y-2906088D02*
X238553Y-2867993D01*
X238553Y-2867993D02*
X238553Y-2820374D01*
X238553Y-2820374D02*
X248077Y-2782279D01*
X248077Y-2782279D02*
X257601Y-2763231D01*
X257601Y-2763231D02*
X267124Y-2753708D01*
X267124Y-2753708D02*
X286172Y-2744184D01*
X438553Y-2925136D02*
X448077Y-2934660D01*
X448077Y-2934660D02*
X438553Y-2944184D01*
X438553Y-2944184D02*
X429029Y-2934660D01*
X429029Y-2934660D02*
X438553Y-2925136D01*
X438553Y-2925136D02*
X438553Y-2944184D01*
X514743Y-2744184D02*
X648077Y-2744184D01*
X648077Y-2744184D02*
X562363Y-2944184D01*
X762362Y-2744184D02*
X781410Y-2744184D01*
X781410Y-2744184D02*
X800458Y-2753708D01*
X800458Y-2753708D02*
X809982Y-2763231D01*
X809982Y-2763231D02*
X819505Y-2782279D01*
X819505Y-2782279D02*
X829029Y-2820374D01*
X829029Y-2820374D02*
X829029Y-2867993D01*
X829029Y-2867993D02*
X819505Y-2906088D01*
X819505Y-2906088D02*
X809982Y-2925136D01*
X809982Y-2925136D02*
X800458Y-2934660D01*
X800458Y-2934660D02*
X781410Y-2944184D01*
X781410Y-2944184D02*
X762362Y-2944184D01*
X762362Y-2944184D02*
X743315Y-2934660D01*
X743315Y-2934660D02*
X733791Y-2925136D01*
X733791Y-2925136D02*
X724267Y-2906088D01*
X724267Y-2906088D02*
X714743Y-2867993D01*
X714743Y-2867993D02*
X714743Y-2820374D01*
X714743Y-2820374D02*
X724267Y-2782279D01*
X724267Y-2782279D02*
X733791Y-2763231D01*
X733791Y-2763231D02*
X743315Y-2753708D01*
X743315Y-2753708D02*
X762362Y-2744184D01*
X952839Y-2744184D02*
X971886Y-2744184D01*
X971886Y-2744184D02*
X990934Y-2753708D01*
X990934Y-2753708D02*
X1000458Y-2763231D01*
X1000458Y-2763231D02*
X1009982Y-2782279D01*
X1009982Y-2782279D02*
X1019505Y-2820374D01*
X1019505Y-2820374D02*
X1019505Y-2867993D01*
X1019505Y-2867993D02*
X1009982Y-2906088D01*
X1009982Y-2906088D02*
X1000458Y-2925136D01*
X1000458Y-2925136D02*
X990934Y-2934660D01*
X990934Y-2934660D02*
X971886Y-2944184D01*
X971886Y-2944184D02*
X952839Y-2944184D01*
X952839Y-2944184D02*
X933791Y-2934660D01*
X933791Y-2934660D02*
X924267Y-2925136D01*
X924267Y-2925136D02*
X914743Y-2906088D01*
X914743Y-2906088D02*
X905220Y-2867993D01*
X905220Y-2867993D02*
X905220Y-2820374D01*
X905220Y-2820374D02*
X914743Y-2782279D01*
X914743Y-2782279D02*
X924267Y-2763231D01*
X924267Y-2763231D02*
X933791Y-2753708D01*
X933791Y-2753708D02*
X952839Y-2744184D01*
X1105220Y-2944184D02*
X1105220Y-2810850D01*
X1105220Y-2829898D02*
X1114744Y-2820374D01*
X1114744Y-2820374D02*
X1133791Y-2810850D01*
X1133791Y-2810850D02*
X1162363Y-2810850D01*
X1162363Y-2810850D02*
X1181410Y-2820374D01*
X1181410Y-2820374D02*
X1190934Y-2839422D01*
X1190934Y-2839422D02*
X1190934Y-2944184D01*
X1190934Y-2839422D02*
X1200458Y-2820374D01*
X1200458Y-2820374D02*
X1219505Y-2810850D01*
X1219505Y-2810850D02*
X1248077Y-2810850D01*
X1248077Y-2810850D02*
X1267125Y-2820374D01*
X1267125Y-2820374D02*
X1276648Y-2839422D01*
X1276648Y-2839422D02*
X1276648Y-2944184D01*
X1371886Y-2944184D02*
X1371886Y-2810850D01*
X1371886Y-2829898D02*
X1381410Y-2820374D01*
X1381410Y-2820374D02*
X1400458Y-2810850D01*
X1400458Y-2810850D02*
X1429029Y-2810850D01*
X1429029Y-2810850D02*
X1448077Y-2820374D01*
X1448077Y-2820374D02*
X1457601Y-2839422D01*
X1457601Y-2839422D02*
X1457601Y-2944184D01*
X1457601Y-2839422D02*
X1467124Y-2820374D01*
X1467124Y-2820374D02*
X1486172Y-2810850D01*
X1486172Y-2810850D02*
X1514743Y-2810850D01*
X1514743Y-2810850D02*
X1533791Y-2820374D01*
X1533791Y-2820374D02*
X1543315Y-2839422D01*
X1543315Y-2839422D02*
X1543315Y-2944184D01*
X1933791Y-2734660D02*
X1762363Y-2991803D01*
X2190934Y-2744184D02*
X2209982Y-2744184D01*
X2209982Y-2744184D02*
X2229029Y-2753708D01*
X2229029Y-2753708D02*
X2238553Y-2763231D01*
X2238553Y-2763231D02*
X2248077Y-2782279D01*
X2248077Y-2782279D02*
X2257601Y-2820374D01*
X2257601Y-2820374D02*
X2257601Y-2867993D01*
X2257601Y-2867993D02*
X2248077Y-2906088D01*
X2248077Y-2906088D02*
X2238553Y-2925136D01*
X2238553Y-2925136D02*
X2229029Y-2934660D01*
X2229029Y-2934660D02*
X2209982Y-2944184D01*
X2209982Y-2944184D02*
X2190934Y-2944184D01*
X2190934Y-2944184D02*
X2171887Y-2934660D01*
X2171887Y-2934660D02*
X2162363Y-2925136D01*
X2162363Y-2925136D02*
X2152839Y-2906088D01*
X2152839Y-2906088D02*
X2143315Y-2867993D01*
X2143315Y-2867993D02*
X2143315Y-2820374D01*
X2143315Y-2820374D02*
X2152839Y-2782279D01*
X2152839Y-2782279D02*
X2162363Y-2763231D01*
X2162363Y-2763231D02*
X2171887Y-2753708D01*
X2171887Y-2753708D02*
X2190934Y-2744184D01*
X2343315Y-2925136D02*
X2352839Y-2934660D01*
X2352839Y-2934660D02*
X2343315Y-2944184D01*
X2343315Y-2944184D02*
X2333791Y-2934660D01*
X2333791Y-2934660D02*
X2343315Y-2925136D01*
X2343315Y-2925136D02*
X2343315Y-2944184D01*
X2476648Y-2744184D02*
X2495696Y-2744184D01*
X2495696Y-2744184D02*
X2514744Y-2753708D01*
X2514744Y-2753708D02*
X2524268Y-2763231D01*
X2524268Y-2763231D02*
X2533791Y-2782279D01*
X2533791Y-2782279D02*
X2543315Y-2820374D01*
X2543315Y-2820374D02*
X2543315Y-2867993D01*
X2543315Y-2867993D02*
X2533791Y-2906088D01*
X2533791Y-2906088D02*
X2524268Y-2925136D01*
X2524268Y-2925136D02*
X2514744Y-2934660D01*
X2514744Y-2934660D02*
X2495696Y-2944184D01*
X2495696Y-2944184D02*
X2476648Y-2944184D01*
X2476648Y-2944184D02*
X2457601Y-2934660D01*
X2457601Y-2934660D02*
X2448077Y-2925136D01*
X2448077Y-2925136D02*
X2438553Y-2906088D01*
X2438553Y-2906088D02*
X2429029Y-2867993D01*
X2429029Y-2867993D02*
X2429029Y-2820374D01*
X2429029Y-2820374D02*
X2438553Y-2782279D01*
X2438553Y-2782279D02*
X2448077Y-2763231D01*
X2448077Y-2763231D02*
X2457601Y-2753708D01*
X2457601Y-2753708D02*
X2476648Y-2744184D01*
X2619506Y-2763231D02*
X2629029Y-2753708D01*
X2629029Y-2753708D02*
X2648077Y-2744184D01*
X2648077Y-2744184D02*
X2695696Y-2744184D01*
X2695696Y-2744184D02*
X2714744Y-2753708D01*
X2714744Y-2753708D02*
X2724268Y-2763231D01*
X2724268Y-2763231D02*
X2733791Y-2782279D01*
X2733791Y-2782279D02*
X2733791Y-2801327D01*
X2733791Y-2801327D02*
X2724268Y-2829898D01*
X2724268Y-2829898D02*
X2609982Y-2944184D01*
X2609982Y-2944184D02*
X2733791Y-2944184D01*
X2800458Y-2744184D02*
X2933791Y-2744184D01*
X2933791Y-2744184D02*
X2848077Y-2944184D01*
X3095696Y-2744184D02*
X3057601Y-2744184D01*
X3057601Y-2744184D02*
X3038553Y-2753708D01*
X3038553Y-2753708D02*
X3029029Y-2763231D01*
X3029029Y-2763231D02*
X3009982Y-2791803D01*
X3009982Y-2791803D02*
X3000458Y-2829898D01*
X3000458Y-2829898D02*
X3000458Y-2906088D01*
X3000458Y-2906088D02*
X3009982Y-2925136D01*
X3009982Y-2925136D02*
X3019506Y-2934660D01*
X3019506Y-2934660D02*
X3038553Y-2944184D01*
X3038553Y-2944184D02*
X3076648Y-2944184D01*
X3076648Y-2944184D02*
X3095696Y-2934660D01*
X3095696Y-2934660D02*
X3105220Y-2925136D01*
X3105220Y-2925136D02*
X3114744Y-2906088D01*
X3114744Y-2906088D02*
X3114744Y-2858469D01*
X3114744Y-2858469D02*
X3105220Y-2839422D01*
X3105220Y-2839422D02*
X3095696Y-2829898D01*
X3095696Y-2829898D02*
X3076648Y-2820374D01*
X3076648Y-2820374D02*
X3038553Y-2820374D01*
X3038553Y-2820374D02*
X3019506Y-2829898D01*
X3019506Y-2829898D02*
X3009982Y-2839422D01*
X3009982Y-2839422D02*
X3000458Y-2858469D01*
X3190934Y-2744184D02*
X3190934Y-2782279D01*
X3267125Y-2744184D02*
X3267125Y-2782279D01*
X3562363Y-3020374D02*
X3552839Y-3010850D01*
X3552839Y-3010850D02*
X3533791Y-2982279D01*
X3533791Y-2982279D02*
X3524268Y-2963231D01*
X3524268Y-2963231D02*
X3514744Y-2934660D01*
X3514744Y-2934660D02*
X3505220Y-2887041D01*
X3505220Y-2887041D02*
X3505220Y-2848946D01*
X3505220Y-2848946D02*
X3514744Y-2801327D01*
X3514744Y-2801327D02*
X3524268Y-2772755D01*
X3524268Y-2772755D02*
X3533791Y-2753708D01*
X3533791Y-2753708D02*
X3552839Y-2725136D01*
X3552839Y-2725136D02*
X3562363Y-2715612D01*
X3629029Y-2763231D02*
X3638553Y-2753708D01*
X3638553Y-2753708D02*
X3657601Y-2744184D01*
X3657601Y-2744184D02*
X3705220Y-2744184D01*
X3705220Y-2744184D02*
X3724268Y-2753708D01*
X3724268Y-2753708D02*
X3733791Y-2763231D01*
X3733791Y-2763231D02*
X3743315Y-2782279D01*
X3743315Y-2782279D02*
X3743315Y-2801327D01*
X3743315Y-2801327D02*
X3733791Y-2829898D01*
X3733791Y-2829898D02*
X3619506Y-2944184D01*
X3619506Y-2944184D02*
X3743315Y-2944184D01*
X3981410Y-2944184D02*
X3981410Y-2744184D01*
X4067125Y-2944184D02*
X4067125Y-2839422D01*
X4067125Y-2839422D02*
X4057601Y-2820374D01*
X4057601Y-2820374D02*
X4038553Y-2810850D01*
X4038553Y-2810850D02*
X4009982Y-2810850D01*
X4009982Y-2810850D02*
X3990934Y-2820374D01*
X3990934Y-2820374D02*
X3981410Y-2829898D01*
X4190934Y-2944184D02*
X4171887Y-2934660D01*
X4171887Y-2934660D02*
X4162363Y-2925136D01*
X4162363Y-2925136D02*
X4152839Y-2906088D01*
X4152839Y-2906088D02*
X4152839Y-2848946D01*
X4152839Y-2848946D02*
X4162363Y-2829898D01*
X4162363Y-2829898D02*
X4171887Y-2820374D01*
X4171887Y-2820374D02*
X4190934Y-2810850D01*
X4190934Y-2810850D02*
X4219506Y-2810850D01*
X4219506Y-2810850D02*
X4238553Y-2820374D01*
X4238553Y-2820374D02*
X4248077Y-2829898D01*
X4248077Y-2829898D02*
X4257601Y-2848946D01*
X4257601Y-2848946D02*
X4257601Y-2906088D01*
X4257601Y-2906088D02*
X4248077Y-2925136D01*
X4248077Y-2925136D02*
X4238553Y-2934660D01*
X4238553Y-2934660D02*
X4219506Y-2944184D01*
X4219506Y-2944184D02*
X4190934Y-2944184D01*
X4371887Y-2944184D02*
X4352839Y-2934660D01*
X4352839Y-2934660D02*
X4343315Y-2915612D01*
X4343315Y-2915612D02*
X4343315Y-2744184D01*
X4524268Y-2934660D02*
X4505220Y-2944184D01*
X4505220Y-2944184D02*
X4467125Y-2944184D01*
X4467125Y-2944184D02*
X4448077Y-2934660D01*
X4448077Y-2934660D02*
X4438553Y-2915612D01*
X4438553Y-2915612D02*
X4438553Y-2839422D01*
X4438553Y-2839422D02*
X4448077Y-2820374D01*
X4448077Y-2820374D02*
X4467125Y-2810850D01*
X4467125Y-2810850D02*
X4505220Y-2810850D01*
X4505220Y-2810850D02*
X4524268Y-2820374D01*
X4524268Y-2820374D02*
X4533792Y-2839422D01*
X4533792Y-2839422D02*
X4533792Y-2858469D01*
X4533792Y-2858469D02*
X4438553Y-2877517D01*
X4609982Y-2934660D02*
X4629030Y-2944184D01*
X4629030Y-2944184D02*
X4667125Y-2944184D01*
X4667125Y-2944184D02*
X4686173Y-2934660D01*
X4686173Y-2934660D02*
X4695696Y-2915612D01*
X4695696Y-2915612D02*
X4695696Y-2906088D01*
X4695696Y-2906088D02*
X4686173Y-2887041D01*
X4686173Y-2887041D02*
X4667125Y-2877517D01*
X4667125Y-2877517D02*
X4638553Y-2877517D01*
X4638553Y-2877517D02*
X4619506Y-2867993D01*
X4619506Y-2867993D02*
X4609982Y-2848946D01*
X4609982Y-2848946D02*
X4609982Y-2839422D01*
X4609982Y-2839422D02*
X4619506Y-2820374D01*
X4619506Y-2820374D02*
X4638553Y-2810850D01*
X4638553Y-2810850D02*
X4667125Y-2810850D01*
X4667125Y-2810850D02*
X4686173Y-2820374D01*
X4762363Y-3020374D02*
X4771887Y-3010850D01*
X4771887Y-3010850D02*
X4790934Y-2982279D01*
X4790934Y-2982279D02*
X4800458Y-2963231D01*
X4800458Y-2963231D02*
X4809982Y-2934660D01*
X4809982Y-2934660D02*
X4819506Y-2887041D01*
X4819506Y-2887041D02*
X4819506Y-2848946D01*
X4819506Y-2848946D02*
X4809982Y-2801327D01*
X4809982Y-2801327D02*
X4800458Y-2772755D01*
X4800458Y-2772755D02*
X4790934Y-2753708D01*
X4790934Y-2753708D02*
X4771887Y-2725136D01*
X4771887Y-2725136D02*
X4762363Y-2715612D01*
X5124268Y-3020374D02*
X5114744Y-3010850D01*
X5114744Y-3010850D02*
X5095696Y-2982279D01*
X5095696Y-2982279D02*
X5086173Y-2963231D01*
X5086173Y-2963231D02*
X5076649Y-2934660D01*
X5076649Y-2934660D02*
X5067125Y-2887041D01*
X5067125Y-2887041D02*
X5067125Y-2848946D01*
X5067125Y-2848946D02*
X5076649Y-2801327D01*
X5076649Y-2801327D02*
X5086173Y-2772755D01*
X5086173Y-2772755D02*
X5095696Y-2753708D01*
X5095696Y-2753708D02*
X5114744Y-2725136D01*
X5114744Y-2725136D02*
X5124268Y-2715612D01*
X5200458Y-2810850D02*
X5200458Y-2944184D01*
X5200458Y-2829898D02*
X5209982Y-2820374D01*
X5209982Y-2820374D02*
X5229030Y-2810850D01*
X5229030Y-2810850D02*
X5257601Y-2810850D01*
X5257601Y-2810850D02*
X5276649Y-2820374D01*
X5276649Y-2820374D02*
X5286173Y-2839422D01*
X5286173Y-2839422D02*
X5286173Y-2944184D01*
X5409982Y-2944184D02*
X5390934Y-2934660D01*
X5390934Y-2934660D02*
X5381411Y-2925136D01*
X5381411Y-2925136D02*
X5371887Y-2906088D01*
X5371887Y-2906088D02*
X5371887Y-2848946D01*
X5371887Y-2848946D02*
X5381411Y-2829898D01*
X5381411Y-2829898D02*
X5390934Y-2820374D01*
X5390934Y-2820374D02*
X5409982Y-2810850D01*
X5409982Y-2810850D02*
X5438554Y-2810850D01*
X5438554Y-2810850D02*
X5457601Y-2820374D01*
X5457601Y-2820374D02*
X5467125Y-2829898D01*
X5467125Y-2829898D02*
X5476649Y-2848946D01*
X5476649Y-2848946D02*
X5476649Y-2906088D01*
X5476649Y-2906088D02*
X5467125Y-2925136D01*
X5467125Y-2925136D02*
X5457601Y-2934660D01*
X5457601Y-2934660D02*
X5438554Y-2944184D01*
X5438554Y-2944184D02*
X5409982Y-2944184D01*
X5533792Y-2810850D02*
X5609982Y-2810850D01*
X5562363Y-2744184D02*
X5562363Y-2915612D01*
X5562363Y-2915612D02*
X5571887Y-2934660D01*
X5571887Y-2934660D02*
X5590934Y-2944184D01*
X5590934Y-2944184D02*
X5609982Y-2944184D01*
X5829030Y-2810850D02*
X5829030Y-3010850D01*
X5829030Y-2820374D02*
X5848077Y-2810850D01*
X5848077Y-2810850D02*
X5886173Y-2810850D01*
X5886173Y-2810850D02*
X5905220Y-2820374D01*
X5905220Y-2820374D02*
X5914744Y-2829898D01*
X5914744Y-2829898D02*
X5924268Y-2848946D01*
X5924268Y-2848946D02*
X5924268Y-2906088D01*
X5924268Y-2906088D02*
X5914744Y-2925136D01*
X5914744Y-2925136D02*
X5905220Y-2934660D01*
X5905220Y-2934660D02*
X5886173Y-2944184D01*
X5886173Y-2944184D02*
X5848077Y-2944184D01*
X5848077Y-2944184D02*
X5829030Y-2934660D01*
X6038553Y-2944184D02*
X6019506Y-2934660D01*
X6019506Y-2934660D02*
X6009982Y-2915612D01*
X6009982Y-2915612D02*
X6009982Y-2744184D01*
X6200458Y-2944184D02*
X6200458Y-2839422D01*
X6200458Y-2839422D02*
X6190934Y-2820374D01*
X6190934Y-2820374D02*
X6171887Y-2810850D01*
X6171887Y-2810850D02*
X6133792Y-2810850D01*
X6133792Y-2810850D02*
X6114744Y-2820374D01*
X6200458Y-2934660D02*
X6181411Y-2944184D01*
X6181411Y-2944184D02*
X6133792Y-2944184D01*
X6133792Y-2944184D02*
X6114744Y-2934660D01*
X6114744Y-2934660D02*
X6105220Y-2915612D01*
X6105220Y-2915612D02*
X6105220Y-2896565D01*
X6105220Y-2896565D02*
X6114744Y-2877517D01*
X6114744Y-2877517D02*
X6133792Y-2867993D01*
X6133792Y-2867993D02*
X6181411Y-2867993D01*
X6181411Y-2867993D02*
X6200458Y-2858469D01*
X6267125Y-2810850D02*
X6343315Y-2810850D01*
X6295696Y-2744184D02*
X6295696Y-2915612D01*
X6295696Y-2915612D02*
X6305220Y-2934660D01*
X6305220Y-2934660D02*
X6324268Y-2944184D01*
X6324268Y-2944184D02*
X6343315Y-2944184D01*
X6486173Y-2934660D02*
X6467125Y-2944184D01*
X6467125Y-2944184D02*
X6429030Y-2944184D01*
X6429030Y-2944184D02*
X6409982Y-2934660D01*
X6409982Y-2934660D02*
X6400458Y-2915612D01*
X6400458Y-2915612D02*
X6400458Y-2839422D01*
X6400458Y-2839422D02*
X6409982Y-2820374D01*
X6409982Y-2820374D02*
X6429030Y-2810850D01*
X6429030Y-2810850D02*
X6467125Y-2810850D01*
X6467125Y-2810850D02*
X6486173Y-2820374D01*
X6486173Y-2820374D02*
X6495696Y-2839422D01*
X6495696Y-2839422D02*
X6495696Y-2858469D01*
X6495696Y-2858469D02*
X6400458Y-2877517D01*
X6667125Y-2944184D02*
X6667125Y-2744184D01*
X6667125Y-2934660D02*
X6648077Y-2944184D01*
X6648077Y-2944184D02*
X6609982Y-2944184D01*
X6609982Y-2944184D02*
X6590934Y-2934660D01*
X6590934Y-2934660D02*
X6581411Y-2925136D01*
X6581411Y-2925136D02*
X6571887Y-2906088D01*
X6571887Y-2906088D02*
X6571887Y-2848946D01*
X6571887Y-2848946D02*
X6581411Y-2829898D01*
X6581411Y-2829898D02*
X6590934Y-2820374D01*
X6590934Y-2820374D02*
X6609982Y-2810850D01*
X6609982Y-2810850D02*
X6648077Y-2810850D01*
X6648077Y-2810850D02*
X6667125Y-2820374D01*
X6743315Y-3020374D02*
X6752839Y-3010850D01*
X6752839Y-3010850D02*
X6771887Y-2982279D01*
X6771887Y-2982279D02*
X6781411Y-2963231D01*
X6781411Y-2963231D02*
X6790934Y-2934660D01*
X6790934Y-2934660D02*
X6800458Y-2887041D01*
X6800458Y-2887041D02*
X6800458Y-2848946D01*
X6800458Y-2848946D02*
X6790934Y-2801327D01*
X6790934Y-2801327D02*
X6781411Y-2772755D01*
X6781411Y-2772755D02*
X6771887Y-2753708D01*
X6771887Y-2753708D02*
X6752839Y-2725136D01*
X6752839Y-2725136D02*
X6743315Y-2715612D01*
M02*
