M48
; DRILL file KiCad 10.0.6 date 2026-09-10T21:52:26
; FORMAT={-:-/ absolute / metric / decimal}
; #@! TF.CreationDate,2026-09-10T21:52:26+02:00
; #@! TF.GenerationSoftware,Kicad,Pcbnew,10.0.6
; #@! TF.FileFunction,Plated,1,2,PTH
FMAT,2
METRIC
; #@! TA.AperFunction,Plated,PTH,ViaDrill
T1C0.200
; #@! TA.AperFunction,Plated,PTH,ViaDrill
T2C0.250
; #@! TA.AperFunction,Plated,PTH,ComponentDrill
T3C0.600
; #@! TA.AperFunction,Plated,PTH,ComponentDrill
T4C0.900
; #@! TA.AperFunction,Plated,PTH,ComponentDrill
T5C1.000
; #@! TA.AperFunction,Plated,PTH,ComponentDrill
T6C2.000
%
G90
G05
T1
X24.62Y-14.29
T2
X0.525Y-7.213
X0.525Y-4.14
X0.577Y-2.595
X1.168Y-14.325
X1.219Y-12.7
X1.321Y-10.566
X1.371Y-11.735
X1.371Y-15.951
X1.625Y-0.762
X2.997Y-17.119
X3.759Y-0.525
X3.759Y-21.235
X4.47Y-18.796
X4.724Y-19.964
X4.826Y-21.031
X5.489Y-18.796
X6.096Y-19.507
X6.299Y-20.218
X6.353Y-18.796
X6.705Y-18.034
X6.8Y-5.888
X6.807Y-21.336
X7.112Y-17.221
X8.232Y-17.221
X9.123Y-17.221
X10.008Y-21.133
X10.028Y-18.134
X10.5Y-2.986
X10.617Y-12.293
X10.617Y-15.443
X10.719Y-14.529
X11.785Y-18.796
X12.243Y-21.082
X12.801Y-12.04
X12.88Y-18.796
X13.411Y-11.074
X13.6Y-10.1
X13.817Y-18.796
X13.919Y-21.133
X14.071Y-13.563
X15.0Y-4.7
X15.05Y-15.95
X15.1Y-7.9
X15.1Y-8.9
X15.65Y-2.986
X15.7Y-5.888
X15.7Y-7.9
X15.7Y-8.9
X15.799Y-11.989
X15.799Y-13.614
X15.799Y-19.05
X15.799Y-20.421
X15.85Y-11.2
X16.561Y-13.532
X16.65Y-3.7
X16.713Y-20.473
X17.223Y-18.999
X17.35Y-3.7
X17.5Y-6.7
X17.577Y-17.831
X18.0Y-11.4
X18.0Y-14.169
X18.0Y-18.8
X18.339Y-20.269
X18.9Y-17.55
X19.529Y-19.101
X19.863Y-13.005
X19.892Y-14.419
X20.015Y-8.433
X20.33Y-19.4
X20.473Y-15.341
X20.879Y-8.331
X21.257Y-13.003
X21.257Y-14.419
X21.257Y-15.691
X22.6Y-4.3
X22.606Y-15.697
X22.657Y-13.106
X22.676Y-14.419
X22.924Y-17.78
X23.86Y-17.456
X24.079Y-11.942
X24.282Y-3.708
X24.5Y-5.3
X24.559Y-21.155
X24.65Y-16.169
X24.841Y-17.627
X25.15Y-19.0
X25.298Y-6.137
X25.502Y-11.989
X25.527Y-9.398
X26.06Y-18.034
X26.1Y-5.3
X26.416Y-7.62
X27.229Y-15.494
X28.295Y-21.133
X28.45Y-9.9
X28.45Y-10.8
X29.007Y-9.449
X29.5Y-10.8
X30.317Y-21.11
X30.64Y-13.833
X31.191Y-17.069
X32.842Y-17.618
X34.697Y-2.946
X34.95Y-14.63
X35.103Y-5.232
X35.103Y-7.721
X35.154Y-12.293
X35.306Y-1.016
X35.56Y-9.703
X35.712Y-16.662
X35.865Y-6.553
X36.786Y-14.715
X36.983Y-8.229
X37.135Y-3.81
X37.236Y-5.283
X37.897Y-9.753
X38.1Y-12.192
X38.151Y-14.681
X38.151Y-16.713
X38.303Y-7.264
X38.456Y-3.099
X41.097Y-3.911
X41.859Y-14.529
X42.265Y-6.959
X42.875Y-16.409
X43.18Y-5.435
X43.688Y-2.032
X43.891Y-0.813
X44.247Y-3.454
X44.808Y-5.439
X44.808Y-16.464
X45.771Y-11.633
X45.872Y-21.235
X45.974Y-8.585
X46.228Y-14.681
X46.889Y-5.588
X46.889Y-7.315
X46.889Y-13.563
X46.889Y-16.459
X47.041Y-10.414
X47.142Y-20.574
X47.295Y-18.389
T4
X3.275Y-3.81
X3.275Y-5.81
X27.713Y-2.04
X29.713Y-2.04
T5
X34.42Y-20.6
X36.96Y-20.6
X39.5Y-20.6
X42.04Y-20.6
X44.3Y-7.25
X44.3Y-9.75
X44.3Y-12.25
X44.3Y-14.75
T6
X2.0Y-20.0
X46.0Y-2.0
T3
X1.532Y-8.934G85X0.932Y-8.934
G05
X1.532Y-17.584G85X0.932Y-17.584
G05
X5.882Y-8.934G85X4.982Y-8.934
G05
X5.882Y-17.584G85X4.982Y-17.584
G05
M30
